<?xml version="1.0" encoding="UTF-8" standalone="no"?>
<!DOCTYPE svg PUBLIC "-//W3C//DTD SVG 1.1//EN" "http://www.w3.org/Graphics/SVG/1.1/DTD/svg11.dtd">
<svg width="200" height="200" viewBox="-25 -25 250 250" version="1.1" xmlns="http://www.w3.org/2000/svg" xmlns:xlink="http://www.w3.org/1999/xlink" xml:space="preserve" xmlns:serif="http://www.serif.com/" style="fill-rule:evenodd;clip-rule:evenodd;stroke-linejoin:round;stroke-miterlimit:2;">
    <g class="actief" transform="matrix(1,0,0,1,-251,-251)">
        <g transform="matrix(0.284887,0,0,0.284887,251.016,251.016)">
            <path d="M245.81,128.195C266.975,99.899 293.312,74.312 323.027,53.564C352.743,32.815 385.836,16.905 419.692,6.783C441.578,44.691 463.464,82.599 485.35,120.507C446.127,112.965 405.567,109.73 365.152,111.027C324.738,112.324 284.468,118.154 245.81,128.195Z" style="fill:rgb(255,84,0);fill-rule:nonzero;"/>
        </g>
        <g transform="matrix(0.284887,0,0,0.284887,251.016,251.016)">
            <path d="M105.444,330.717C91.521,298.24 82.531,262.638 79.42,226.529C76.309,190.421 79.077,153.806 87.24,119.425L218.556,119.425C192.413,149.623 169.332,183.131 150.248,218.78C131.164,254.429 116.078,292.217 105.444,330.717Z" style="fill:rgb(255,84,0);fill-rule:nonzero;"/>
        </g>
        <g transform="matrix(0.284887,0,0,0.284887,251.016,251.016)">
            <path d="M210.65,553.539C175.563,549.358 140.236,539.342 107.409,523.982C74.583,508.622 44.257,487.917 18.564,463.658C40.45,425.751 62.336,387.843 84.222,349.935C97.303,387.674 114.781,424.417 136.112,458.769C157.442,493.12 182.625,525.08 210.65,553.539Z" style="fill:rgb(255,84,0);fill-rule:nonzero;"/>
        </g>
        <g transform="matrix(0.284887,0,0,0.284887,251.016,251.016)">
            <path d="M456.223,573.838C435.058,602.134 408.721,627.721 379.005,648.469C349.29,669.218 316.197,685.128 282.341,695.249C260.455,657.342 238.569,619.434 216.683,581.526C255.906,589.068 296.466,592.303 336.881,591.006C377.295,589.708 417.564,583.879 456.223,573.838Z" style="fill:rgb(255,84,0);fill-rule:nonzero;"/>
        </g>
        <g transform="matrix(0.284887,0,0,0.284887,251.016,251.016)">
            <path d="M596.589,371.316C610.512,403.793 619.502,439.395 622.613,475.504C625.724,511.612 622.956,548.227 614.793,582.607L483.477,582.607C509.619,552.41 532.701,518.902 551.785,483.253C570.869,447.604 585.955,409.816 596.589,371.316Z" style="fill:rgb(255,84,0);fill-rule:nonzero;"/>
        </g>
        <g transform="matrix(0.284887,0,0,0.284887,251.016,251.016)">
            <path d="M491.382,148.494C526.47,152.675 561.797,162.691 594.624,178.051C627.45,193.411 657.776,214.115 683.469,238.375C661.583,276.282 639.697,314.19 617.81,352.097C604.73,314.359 587.252,277.615 565.921,243.264C544.59,208.912 519.407,176.953 491.382,148.494Z" style="fill:rgb(255,84,0);fill-rule:nonzero;"/>
        </g>
    </g>
</svg>
