<?xml version="1.0" encoding="utf-8"?>
<!DOCTYPE svg PUBLIC "-//W3C//DTD SVG 1.1//EN" "http://www.w3.org/Graphics/SVG/1.1/DTD/svg11.dtd">
<svg version="1.1" xmlns="http://www.w3.org/2000/svg" xmlns:xlink="http://www.w3.org/1999/xlink" xmlns:xml="http://www.w3.org/XML/1998/namespace" xmlns:serif="http://www.serif.com/" width="200" height="200" viewBox="0, 0, 200, 200" xml:space="preserve" fill-rule="evenodd" stroke-linejoin="round" stroke-miterlimit="2" style="clip-rule:evenodd;">
	<g id="spice">
        <path d="M70 36.5 C76.1 28.5 83.6 21.2 92 15.3 C100.5 9.4 109.9 4.8 119.6 1.9 C125.8 12.7 132.1 23.5 138.3 34.3 C127.1 32.2 115.6 31.3 104 31.6 C92.5 32 81.1 33.7 70 36.5 z" fill-rule="nonzero" style="fill:#FF5400;" />
        <path d="M30.1 94.2 C26.1 85 23.5 74.8 22.6 64.6 C21.8 54.3 22.5 43.8 24.9 34 L62.3 34 C54.8 42.6 48.3 52.2 42.8 62.3 C37.4 72.5 33.1 83.3 30.1 94.2 z" fill-rule="nonzero" style="fill:#FF5400;" />
        <path d="M60 157.7 C50 156.5 40 153.7 30.6 149.3 C21.3 144.9 12.6 139 5.3 132.1 C11.5 121.3 17.8 110.5 24 99.7 C27.7 110.5 32.7 120.9 38.8 130.7 C44.9 140.5 52 149.6 60 157.7 z" fill-rule="nonzero" style="fill:#FF5400;" />
        <path d="M130 163.5 C124 171.6 116.5 178.8 108 184.8 C99.5 190.7 90.1 195.2 80.5 198.1 C74.2 187.3 68 176.5 61.7 165.7 C72.9 167.8 84.5 168.8 96 168.4 C107.5 168 119 166.4 130 163.5 z" fill-rule="nonzero" style="fill:#FF5400;" />
        <path d="M170 105.8 C173.9 115.1 176.5 125.2 177.4 135.5 C178.3 145.8 177.5 156.2 175.2 166 L137.8 166 C145.2 157.4 151.8 147.8 157.2 137.7 C162.6 127.5 166.9 116.8 170 105.8 z" fill-rule="nonzero" style="fill:#FF5400;" />
        <path d="M140 42.3 C150 43.5 160.1 46.4 169.4 50.7 C178.8 55.1 187.4 61 194.7 67.9 C188.5 78.7 182.3 89.5 176 100.3 C172.3 89.6 167.3 79.1 161.2 69.3 C155.2 59.5 148 50.4 140 42.3 z" fill-rule="nonzero" style="fill:#FF5400;" />
    </g>
</svg>