<?xml version="1.0" encoding="UTF-8" standalone="no"?>
<!DOCTYPE svg PUBLIC "-//W3C//DTD SVG 1.1//EN" "http://www.w3.org/Graphics/SVG/1.1/DTD/svg11.dtd">
<svg width="212" height="212" viewBox="0 0 212 212" version="1.1" xmlns="http://www.w3.org/2000/svg" xmlns:xlink="http://www.w3.org/1999/xlink" xml:space="preserve" xmlns:serif="http://www.serif.com/" style="fill-rule:evenodd;clip-rule:evenodd;">
    <g transform="matrix(1,0,0,1,-414.685,-777.696)">
        <g transform="matrix(0.665121,0,0,0.665121,136.837,296.772)">
            <g transform="matrix(1.48956,0,0,1.48956,81.4683,263.971)">
                <path d="M433.619,414.739C433.634,402.823 431.459,389.905 426.504,377.439C421.549,364.974 413.813,352.961 403.939,343.087C394.065,333.212 382.052,325.477 369.586,320.522C357.121,315.567 344.203,313.392 332.287,313.407C320.37,313.392 307.452,315.567 294.987,320.522C282.521,325.477 270.508,333.212 260.634,343.087C250.76,352.961 243.024,364.974 238.069,377.439C233.114,389.905 230.939,402.823 230.955,414.739C230.939,426.656 233.114,439.574 238.069,452.039C243.024,464.505 250.76,476.518 260.634,486.392C270.508,496.266 282.521,504.001 294.987,508.957C307.452,513.912 320.37,516.086 332.287,516.071C344.203,516.086 357.121,513.912 369.586,508.957C382.052,504.001 394.065,496.266 403.939,486.392C413.813,476.518 421.549,464.505 426.504,452.039C431.459,439.574 433.634,426.656 433.619,414.739Z" style="fill:url(#_Radial1);fill-rule:nonzero;stroke:black;stroke-width:2.52px;"/>
            </g>
            <g transform="matrix(1.03917,0,0,1.03917,333.933,534.454)">
                <circle cx="233.356" cy="334.206" r="99.794" style="fill:none;stroke:white;stroke-opacity:0.5;stroke-width:9.04px;stroke-linecap:round;stroke-linejoin:round;stroke-miterlimit:1.5;"/>
            </g>
            <g>
                <path d="M585.18,898.434L559.476,921.883C559.443,926.819 561.156,931.312 563.069,936.248C563.365,937.01 563.665,937.783 564.284,938.185L565.614,938.821C566.39,939.348 566.671,940.501 566.597,941.51L566.192,942.869C565.604,943.821 564.318,944.373 563.185,944.488L568.49,961.098L572.197,959.485L573.989,963.244L569.723,964.959L573.382,976.414L570.664,977.123L566.782,966.141L561.759,968.159L559.966,964.805L565.465,962.414L559.539,945.653L554.23,947.529L551.911,943.516L554.052,941.053L549.912,929.916L547.77,931.308L548.377,934.413L534.527,946.871L522.319,964.184L520.713,978.748L522.248,985.673L525.746,989.099L524.996,990.384L515.18,990.099L508.112,984.316L507.005,967.825L505.874,964.624L505.363,962.006L513.181,955.438L514.93,955.153L524.425,926.239L532.421,928.167L541.737,906.963L537.275,899.61L518.571,907.356L516.001,901.895L535.241,893.649L532.207,884.154L514.502,891.079L512.074,885.51L530.208,877.407L530.565,874.98L529.137,874.23L529.101,871.196L532.212,868.351L531.278,863.736L530.014,862.132L527.664,863.518L526.058,863.589L524.844,849.846L520.811,847.883L517.741,842.993L506.532,817.72L504.176,815.507L504.176,811.973L520.275,811.973L521.81,819.719L530.556,843.671L532.697,843.493L539.765,830.214L545.512,820.362L552.94,811.136L555.761,815.543C558.462,812.905 561.499,810.584 564.795,808.712C568.364,806.685 572.236,805.184 576.209,804.217C576.593,802.002 577.166,799.814 577.927,797.695C578.678,795.607 579.611,793.584 580.704,791.657C584.298,792.036 587.862,792.814 591.28,794.037C596.706,795.978 601.761,799.04 606.087,802.807L610.492,797.748L614.196,803.071L617.373,800.86L614.02,792.715C612.39,788.902 610.609,785.144 609.304,781.213C607.582,776.026 606.688,770.539 606.308,765.084L620.41,772.311C624.63,774.467 628.887,776.543 632.837,779.23L635.834,781.654C637.306,783.199 638.303,785.165 639.271,787.118C641.012,790.629 642.662,794.101 643.943,797.739C645.078,800.966 645.923,804.324 646.543,807.699L642.665,806.376L641.243,810.545L632.485,822.197L636.747,825.401L633.566,829.634L637.63,840.77L640.936,849.716C641.196,850.506 641.447,851.311 641.949,851.919C642.483,852.565 643.3,852.989 644.109,853.329C645.961,854.11 647.77,854.454 649.749,855.092L651.115,855.357C651.952,855.253 652.592,854.298 653.054,853.418L654.244,851.39L654.685,850.994C655.94,850.075 657.791,850.401 659.356,850.597L662.661,851.038C663.768,851.243 665.083,851.573 665.35,852.404C665.495,852.856 665.33,853.455 665.173,854.035C664.333,857.146 663.74,859.664 663.675,862.716C663.645,864.127 663.727,865.651 662.97,866.726C662.591,867.264 662.002,867.69 661.383,868.004C659.749,868.836 657.913,868.892 656.095,869.018C653.593,869.191 651.128,869.497 648.78,870.208C645.812,871.107 643.032,872.653 640.098,873.733L634.105,875.452C633.342,873.535 632.827,871.503 632.652,869.434C632.381,866.227 632.927,862.932 634.061,859.94L625.864,849.892L622.162,845.089L619.43,841.783L607.575,863.025C607.141,865.14 607.255,867.227 607.443,869.503C607.543,870.708 607.663,871.967 608.369,872.808C608.932,873.48 609.869,873.885 610.792,874.086C612.175,874.386 613.529,874.227 614.892,874.21L617.855,874.282L618.961,876.459C619.733,877.489 620.821,878.245 621.924,878.958C625.576,881.317 629.389,883.193 633.133,885.205C636.518,887.024 639.847,888.955 642.913,891.452L644.323,892.861C645.042,893.918 645.156,895.324 645.19,896.702C645.247,899.01 645.081,901.238 644.487,903.26L643.503,906.374C643.222,907.501 643.041,908.826 643.667,909.536C644.093,910.018 644.889,910.216 645.588,910.496L648.164,911.901L642.639,919.676C638.259,925.703 633.642,931.563 629.418,937.7L625.32,943.869L625.1,949.598C625.191,952.516 625.583,955.413 626.379,958.261C626.805,959.781 627.345,961.288 628.274,962.535C629.013,963.526 629.996,964.354 631.051,965.003L630.096,966.553L622.833,966.514L607.002,947.243C607.755,945.058 608.749,942.895 610.121,941.051C611.677,938.958 613.719,937.277 615.579,935.382L617.242,933.391C618.499,931.415 618.723,928.908 619.045,926.482C619.55,922.68 620.295,919.074 621.438,915.551C622.267,912.994 623.305,910.48 623.698,907.853L623.827,906.242C623.824,905.211 623.644,904.036 623.297,903.041C622.83,901.699 622.06,900.683 621.001,900.113C619.703,899.415 617.97,899.385 616.291,899.332L602.227,898.69L585.18,898.434ZM560.342,831.739L560.225,828.156L569.85,824.69L570.225,850.873L571.513,853.8L569.967,858.321L566.15,864.316L560.717,869.515L556.852,872.419L551.419,879.914L551.255,885.347L550.178,889.867L548.889,889.985L546.735,886.19L545.095,878.532L548.374,876.729L546.43,869.328L542.589,870.546L540.247,864.574L537.414,861.623L536.477,860.054L536.828,858.391L539.358,849.96L543.128,845.135L553.48,836.493L560.342,831.739Z" style="fill:rgb(255,255,201);"/>
                <path d="M602.036,788.605C601.442,787.144 600.883,785.67 600.386,784.174C598.417,778.243 597.368,771.974 596.934,765.737C596.698,762.355 598.302,759.109 601.132,757.241C603.961,755.374 607.577,755.175 610.593,756.721C610.593,756.721 624.696,763.949 624.685,763.943C629.254,766.277 633.847,768.552 638.123,771.461C638.337,771.606 638.545,771.761 638.747,771.924L641.743,774.348C642.059,774.603 642.358,774.879 642.639,775.174C644.751,777.392 646.299,780.139 647.69,782.944C649.603,786.801 651.4,790.623 652.806,794.619C654.105,798.308 655.077,802.145 655.785,806.002C656.387,809.282 655.206,812.635 652.681,814.813C651.38,815.935 649.823,816.659 648.187,816.947L645.086,821.072C645.572,822.005 645.901,823.022 646.051,824.083C646.401,826.55 645.756,829.056 644.259,831.048L644.142,831.203L646.445,837.513L648.738,843.719C648.867,843.613 648.999,843.511 649.134,843.412C652.238,841.14 656.657,840.788 660.526,841.273L663.903,841.723C664.062,841.745 664.22,841.77 664.377,841.799C666.521,842.197 668.839,843.065 670.356,844.159C672.331,845.583 673.623,847.434 674.296,849.53C674.912,851.446 674.909,854.03 674.245,856.484C673.622,858.793 673.118,860.652 673.07,862.918C672.999,866.22 672.425,869.621 670.653,872.137C669.432,873.871 667.637,875.366 665.644,876.38C662.875,877.788 659.825,878.179 656.745,878.392C654.955,878.516 653.183,878.693 651.503,879.201C649.444,879.825 647.489,880.796 645.497,881.671C646.639,882.449 647.756,883.277 648.846,884.164C649.094,884.366 649.331,884.58 649.557,884.806L650.967,886.216C651.384,886.633 651.761,887.088 652.093,887.576C653.779,890.055 654.504,893.238 654.584,896.47C654.652,899.245 654.449,901.936 653.877,904.442C655.6,905.76 656.826,907.646 657.32,909.788C657.924,912.405 657.379,915.156 655.824,917.345C655.824,917.345 650.299,925.119 650.241,925.199C645.908,931.163 641.337,936.957 637.246,942.899L634.608,946.869L634.504,949.582C634.584,951.652 634.864,953.709 635.429,955.73C635.543,956.137 635.561,956.588 635.81,956.921C635.847,956.971 635.926,956.97 635.979,957.002C638.101,958.31 639.617,960.406 640.193,962.831C640.769,965.256 640.358,967.81 639.051,969.932L638.096,971.481C636.376,974.274 633.325,975.967 630.046,975.949L622.783,975.91C619.989,975.895 617.346,974.638 615.573,972.479L599.741,953.209C597.668,950.686 597.054,947.268 598.118,944.181C599.183,941.089 600.64,938.053 602.581,935.443C604.324,933.1 606.54,931.152 608.632,929.041L609.234,928.32C609.341,927.71 609.611,926.143 609.73,925.246C610.312,920.864 611.183,916.712 612.499,912.652C612.937,911.303 613.481,909.978 613.892,908.629L601.942,908.084L588.762,907.885L569.311,925.63C569.744,927.51 570.456,929.355 571.214,931.276C574.348,933.603 576.275,938.024 575.968,942.199C575.919,942.875 575.796,943.544 575.603,944.193L575.198,945.552C574.961,946.345 574.621,947.104 574.186,947.808L574.134,947.885L574.973,950.51C577.396,951.258 579.505,952.98 580.678,955.44L582.471,959.199C583.588,961.541 583.687,964.241 582.744,966.658C582.338,967.699 581.754,968.649 581.028,969.468L582.333,973.555C583.118,976.012 582.858,978.685 581.614,980.945C580.37,983.205 578.251,984.854 575.754,985.506L573.037,986.215C568.313,987.448 563.432,984.857 561.805,980.255L560.834,977.509C557.803,977.21 554.996,975.44 553.471,972.589L551.679,969.235C550.442,966.921 550.229,964.195 551.091,961.717C551.639,960.143 552.59,958.759 553.829,957.692L553.549,956.9C550.522,956.681 547.693,954.997 546.095,952.232L544.906,950.174L541.597,953.151L531.394,967.62L530.223,978.232L530.818,980.914L532.321,982.387C535.396,985.399 536.031,990.116 533.863,993.834L533.113,995.119C531.38,998.09 528.161,999.877 524.723,999.777L514.906,999.492C512.832,999.431 510.836,998.686 509.229,997.372L502.162,991.589C500.15,989.943 498.91,987.538 498.736,984.945L497.716,969.741L497.014,967.756C496.861,967.321 496.739,966.876 496.651,966.423L496.14,963.805C495.486,960.453 496.703,957.009 499.319,954.812L507.136,948.244L507.368,948.062L515.497,923.307C517.025,918.656 521.868,915.957 526.627,917.104L526.98,917.189L528.67,913.345L522.166,916.038C517.531,917.958 512.205,915.897 510.068,911.357L507.498,905.896C506.413,903.589 506.311,900.941 507.216,898.558C507.349,898.207 507.503,897.867 507.677,897.54C506.946,896.77 506.336,895.861 505.888,894.834L503.46,889.265C501.4,884.538 503.533,879.034 508.241,876.931L519.711,871.805L519.705,871.307C519.702,871.048 519.709,870.79 519.731,870.533C518.045,869.001 516.913,866.855 516.698,864.416L515.947,855.918C514.694,855.165 513.634,854.124 512.852,852.879L509.782,847.989C509.544,847.609 509.333,847.212 509.151,846.802L498.713,823.268L497.743,822.356C495.852,820.58 494.78,818.101 494.78,815.507L494.78,811.973C494.78,806.783 498.987,802.576 504.176,802.576L520.275,802.576C524.761,802.576 528.621,805.747 529.493,810.147L530.886,817.179L533.044,823.087L537.395,815.627C537.632,815.221 537.899,814.834 538.193,814.469L545.621,805.243C547.517,802.888 550.431,801.589 553.45,801.753C554.642,801.818 555.793,802.107 556.849,802.594C557.922,801.866 559.026,801.182 560.154,800.542C562.765,799.058 565.509,797.805 568.334,796.789C568.564,796.025 568.815,795.268 569.084,794.517C570.016,791.925 571.173,789.414 572.53,787.022C574.374,783.77 577.97,781.921 581.688,782.312C586.023,782.769 590.323,783.714 594.446,785.19C597.056,786.124 599.596,787.271 602.036,788.605ZM585.18,898.434L559.476,921.883C559.443,926.819 561.156,931.312 563.069,936.248C563.365,937.01 563.665,937.783 564.284,938.185L565.614,938.821C566.39,939.348 566.671,940.501 566.597,941.51L566.192,942.869C565.604,943.821 564.318,944.373 563.185,944.488L568.49,961.098L572.197,959.485L573.989,963.244L569.723,964.959L573.382,976.414L570.664,977.123L566.782,966.141L561.759,968.159L559.966,964.805L565.465,962.414L559.539,945.653L554.23,947.529L551.911,943.516L554.052,941.053L549.912,929.916L547.77,931.308L548.377,934.413L534.527,946.871L522.319,964.184L520.713,978.748L522.248,985.673L525.746,989.099L524.996,990.384L515.18,990.099L508.112,984.316L507.005,967.825L505.874,964.624L505.363,962.006L513.181,955.438L514.93,955.153L524.425,926.239L532.421,928.167L541.737,906.963L537.275,899.61L518.571,907.356L516.001,901.895L535.241,893.649L532.207,884.154L514.502,891.079L512.074,885.51L530.208,877.407L530.565,874.98L529.137,874.23L529.101,871.196L532.212,868.351L531.278,863.736L530.014,862.132L527.664,863.518L526.058,863.589L524.844,849.846L520.811,847.883L517.741,842.993L506.532,817.72L504.176,815.507L504.176,811.973L520.275,811.973L521.81,819.719L530.556,843.671L532.697,843.493L539.765,830.214L545.512,820.362L552.94,811.136L555.761,815.543C558.462,812.905 561.499,810.584 564.795,808.712C568.364,806.685 572.236,805.184 576.209,804.217C576.593,802.002 577.166,799.814 577.927,797.695C578.678,795.607 579.611,793.584 580.704,791.657C584.298,792.036 587.862,792.814 591.28,794.037C596.706,795.978 601.761,799.04 606.087,802.807L610.492,797.748L614.196,803.071L617.373,800.86L614.02,792.715C612.39,788.902 610.609,785.144 609.304,781.213C607.582,776.026 606.688,770.539 606.308,765.084L620.41,772.311C624.63,774.467 628.887,776.543 632.837,779.23L635.834,781.654C637.306,783.199 638.303,785.165 639.271,787.118C641.012,790.629 642.662,794.101 643.943,797.739C645.078,800.966 645.923,804.324 646.543,807.699L642.665,806.376L641.243,810.545L632.485,822.197L636.747,825.401L633.566,829.634L637.63,840.77L640.936,849.716C641.196,850.506 641.447,851.311 641.949,851.919C642.483,852.565 643.3,852.989 644.109,853.329C645.961,854.11 647.77,854.454 649.749,855.092L651.115,855.357C651.952,855.253 652.592,854.298 653.054,853.418L654.244,851.39L654.685,850.994C655.94,850.075 657.791,850.401 659.356,850.597L662.661,851.038C663.768,851.243 665.083,851.573 665.35,852.404C665.495,852.856 665.33,853.455 665.173,854.035C664.333,857.146 663.74,859.664 663.675,862.716C663.645,864.127 663.727,865.651 662.97,866.726C662.591,867.264 662.002,867.69 661.383,868.004C659.749,868.836 657.913,868.892 656.095,869.018C653.593,869.191 651.128,869.497 648.78,870.208C645.812,871.107 643.032,872.653 640.098,873.733L634.105,875.452C633.342,873.535 632.827,871.503 632.652,869.434C632.381,866.227 632.927,862.932 634.061,859.94L625.864,849.892L622.162,845.089L619.43,841.783L607.575,863.025C607.141,865.14 607.255,867.227 607.443,869.503C607.543,870.708 607.663,871.967 608.369,872.808C608.932,873.48 609.869,873.885 610.792,874.086C612.175,874.386 613.529,874.227 614.892,874.21L617.855,874.282L618.961,876.459C619.733,877.489 620.821,878.245 621.924,878.958C625.576,881.317 629.389,883.193 633.133,885.205C636.518,887.024 639.847,888.955 642.913,891.452L644.323,892.861C645.042,893.918 645.156,895.324 645.19,896.702C645.247,899.01 645.081,901.238 644.487,903.26L643.503,906.374C643.222,907.501 643.041,908.826 643.667,909.536C644.093,910.018 644.889,910.216 645.588,910.496L648.164,911.901L642.639,919.676C638.259,925.703 633.642,931.563 629.418,937.7L625.32,943.869L625.1,949.598C625.191,952.516 625.583,955.413 626.379,958.261C626.805,959.781 627.345,961.288 628.274,962.535C629.013,963.526 629.996,964.354 631.051,965.003L630.096,966.553L622.833,966.514L607.002,947.243C607.755,945.058 608.749,942.895 610.121,941.051C611.677,938.958 613.719,937.277 615.579,935.382L617.242,933.391C618.499,931.415 618.723,928.908 619.045,926.482C619.55,922.68 620.295,919.074 621.438,915.551C622.267,912.994 623.305,910.48 623.698,907.853L623.827,906.242C623.824,905.211 623.644,904.036 623.297,903.041C622.83,901.699 622.06,900.683 621.001,900.113C619.703,899.415 617.97,899.385 616.291,899.332L602.227,898.69L585.18,898.434ZM560.342,831.739L560.225,828.156L569.85,824.69L570.225,850.873L571.513,853.8L569.967,858.321L566.15,864.316L560.717,869.515L556.852,872.419L551.419,879.914L551.255,885.347L550.178,889.867L548.889,889.985L546.735,886.19L545.095,878.532L548.374,876.729L546.43,869.328L542.589,870.546L540.247,864.574L537.414,861.623L536.477,860.054L536.828,858.391L539.358,849.96L543.128,845.135L553.48,836.493L560.342,831.739ZM623.725,862.135L620.82,858.575L617.307,864.869L618.081,864.888C619.955,864.933 621.733,865.534 623.216,866.57C623.277,865.083 623.449,863.598 623.725,862.135ZM560.713,842.913L559.178,843.977L549.917,851.708L547.85,854.353L546.805,857.836L547.025,858.065C547.63,858.696 548.144,859.406 548.549,860.176C549.385,860.367 550.198,860.675 550.964,861.097C551.942,861.636 552.806,862.339 553.524,863.166L554.624,862.339L558.833,858.312L561.439,854.219L561.442,854.212C561.052,853.189 560.845,852.104 560.829,851.007L560.713,842.913Z" style="fill-opacity:0.71;"/>
            </g>
            <g transform="matrix(1.44979,0,0,1.44979,-2811.8,402.692)">
                <path d="M2288,264L2296.11,280.832L2314.63,283.348L2301.13,296.266L2304.46,314.652L2288,305.804L2271.54,314.652L2274.87,296.266L2261.37,283.348L2279.89,280.832L2288,264Z" style="fill:rgb(255,255,201);"/>
                <path d="M2275.56,274.879L2282.16,261.186C2283.24,258.944 2285.51,257.519 2288,257.519C2290.49,257.519 2292.76,258.944 2293.84,261.186L2300.44,274.879L2315.5,276.925C2317.97,277.26 2320.03,278.978 2320.79,281.345C2321.56,283.712 2320.91,286.31 2319.11,288.031L2308.13,298.54L2310.84,313.498C2311.28,315.947 2310.28,318.433 2308.27,319.896C2306.25,321.359 2303.58,321.54 2301.39,320.361L2288,313.163L2274.61,320.361C2272.42,321.54 2269.75,321.359 2267.73,319.896C2265.72,318.433 2264.72,315.947 2265.16,313.498L2267.87,298.54L2256.89,288.031C2255.09,286.31 2254.44,283.712 2255.21,281.345C2255.97,278.978 2258.03,277.26 2260.5,276.925L2275.56,274.879ZM2288,264L2296.11,280.832L2314.63,283.348L2301.13,296.266L2304.46,314.652L2288,305.804L2271.54,314.652L2274.87,296.266L2261.37,283.348L2279.89,280.832L2288,264Z" style="fill-opacity:0.71;"/>
            </g>
        </g>
    </g>
    <defs>
        <radialGradient id="_Radial1" cx="0" cy="0" r="1" gradientUnits="userSpaceOnUse" gradientTransform="matrix(59.7328,-62.5025,62.5025,59.7328,332.287,414.739)"><stop offset="0" style="stop-color:rgb(229,229,229);stop-opacity:1"/><stop offset="1" style="stop-color:rgb(176,176,121);stop-opacity:1"/></radialGradient>
    </defs>
</svg>
