<?xml version="1.0" encoding="utf-8"?>
<!DOCTYPE svg PUBLIC "-//W3C//DTD SVG 1.1//EN" "http://www.w3.org/Graphics/SVG/1.1/DTD/svg11.dtd">
<svg version="1.1" xmlns="http://www.w3.org/2000/svg" xmlns:xlink="http://www.w3.org/1999/xlink" xmlns:xml="http://www.w3.org/XML/1998/namespace" xmlns:serif="http://www.serif.com/" width="204" height="204" viewBox="0, 0, 204, 204" xml:space="preserve" fill-rule="evenodd" stroke-linecap="round" stroke-linejoin="round" stroke-miterlimit="1.5" style="clip-rule:evenodd;">

	<circle cx="101.6" cy="101.6" r="100.4" stroke-width="2.49px" style="fill:url(#Radial);stroke:black;" />
    
	<circle cx="101.6" cy="101.6" r="69" stroke-width="6px" stroke-opacity="0.76" style="fill:none;stroke:#FFDFC4;" />
    
	<path d="M70 103.3 L63.8 100 L63.7 95.8 L62.3 95.2 L62.2 93.5 L58.7 92.6 L57.9 94.4 L55.5 94.6 L40.3 84.2 L37.8 83.7 L38.3 80.3 L40.5 80.7 L40.9 79.1 L43.8 79.7 L44.6 78.5 L52.8 80.7 L53.5 82.6 L59.3 84.5 L59.8 86.2 L63.3 86.9 L63.8 84.7 L65.2 84 L79.7 88 L81 87.5 L84.9 82.9 L86.6 82.1 L84.6 75.3 L81.2 73.3 C78.5 67.8 77.9 62.4 81.7 57.4 L85.5 55.8 L87.6 54.1 L87.6 51.4 L84.4 51.2 L82.1 47.7 L79.8 47.5 L77 38.1 L72.3 38.1 L71.9 35.9 L76 33.3 L76 29.4 L80 28.7 C83.2 24 88.4 22.9 93.9 23.6 C98.6 24.2 101.4 27.5 102.3 32.4 L104.3 33.3 L105 42.4 L103 45.5 L105.4 46.9 L110.2 47.3 C113.5 43.4 118 41.7 123.5 44.4 C127.4 46.4 129.9 50 131.4 54.3 L131.5 56.8 L129.9 59.9 C132.6 64.2 134.4 68.5 135.6 72.8 L137.3 72.5 C140 78 139.3 82.4 136.9 86.2 L135 85.3 L133.2 87.1 L133.4 89.3 L126.3 96.1 C129.2 102.2 131.7 108.4 133.7 114.5 L137.1 115 L140.2 113.5 C149.9 112.6 157.3 113.7 163 116.1 L163.7 118.7 L167.7 119.1 L170.3 122.9 L169.9 124.9 L172.2 130.4 L172.1 136.6 C172.2 140.9 170.9 144.2 167.5 146.2 C165.2 147.5 163.2 147 161.2 144.5 L160.3 136.5 L157.8 130.7 L155.5 132.8 C149.2 129.6 142.8 127.6 136.4 128 L135.2 127.3 C133.5 129.3 130.9 131.2 127.3 130.4 C123.7 129.5 121.4 126.4 119.7 123 L122.3 119.8 C119 116.9 116.4 113.6 114.3 109.9 L110.3 110.7 L107.3 111 L105.4 109.8 C99.7 115.1 93.8 120.1 87.6 124.2 L84.1 132.8 L83.1 133.8 L82.8 137.1 L84.5 139.4 C83.6 148 81.4 155.9 77.6 162.8 L75.1 163.3 L75.4 165.6 L74.6 170.7 L69.4 170.4 L65.7 168.7 C59.8 169 54.9 167 51 162.9 L49.6 160.7 L52.3 157.6 L59.7 157.2 L63.2 154.9 L64.2 153.8 L63 151.5 C66.8 146.8 69.2 140.7 70 133.1 L72.4 132.5 L72.4 130.5 L71.6 128.8 C70.7 124.1 72 119.4 75.2 114.7 L79.2 114.7 C81.2 110.9 84 107.3 87.3 104.1 L85.8 103.5 L85.8 101.3 L81.8 100.4 L80.5 101.3 L77.4 100 L76.9 101.9 L70 103.3 z" style="fill:#FFFFC9;" />

	<path d="M91.1 17.2 L91.5 17.2 L91.8 17.2 L92.1 17.2 L92.4 17.2 L92.7 17.2 L93.1 17.2 L93.4 17.3 L93.7 17.3 L94 17.3 L94.3 17.3 L94.7 17.4 L94.8 17.4 L95 17.4 L95.2 17.5 L95.3 17.5 L95.5 17.5 L95.7 17.5 L95.8 17.6 L96 17.6 L96.2 17.6 L96.3 17.7 L96.5 17.7 L96.7 17.8 L96.8 17.8 L97 17.9 L97.2 17.9 L97.3 18 L97.5 18 L97.7 18.1 L97.8 18.1 L98 18.2 L98.1 18.2 L98.3 18.3 L98.5 18.3 L98.6 18.4 L98.8 18.5 L98.9 18.5 L99.1 18.6 L99.2 18.7 L99.4 18.7 L99.6 18.8 L99.7 18.9 L99.9 19 L100 19 L100.2 19.1 L100.3 19.2 L100.5 19.3 L100.6 19.3 L100.7 19.4 L100.9 19.5 L101 19.6 L101.2 19.7 L101.3 19.8 L101.5 19.9 L101.6 20 L101.7 20.1 L101.9 20.2 L102 20.3 L102.1 20.4 L102.3 20.5 L102.4 20.6 L102.5 20.7 L102.7 20.8 L102.8 20.9 L102.9 21 L103 21.1 L103.2 21.2 L103.3 21.3 L103.4 21.4 L103.5 21.6 L103.6 21.7 L103.8 21.8 L103.9 21.9 L104 22 L104.1 22.1 L104.2 22.3 L104.3 22.4 L104.4 22.5 L104.5 22.6 L104.6 22.7 L104.7 22.9 L104.8 23 L104.9 23.1 L105 23.3 L105.1 23.4 L105.2 23.5 L105.3 23.6 L105.4 23.8 L105.5 23.9 L105.6 24 L105.7 24.2 L105.8 24.3 L105.9 24.4 L106 24.6 L106 24.7 L106.1 24.9 L106.2 25 L106.3 25.1 L106.4 25.3 L106.4 25.4 L106.5 25.5 L106.6 25.7 L106.7 25.8 L106.7 26 L106.8 26.1 L106.9 26.3 L106.9 26.4 L107 26.5 L107.1 26.7 L107.1 26.8 L107.2 27 L107.3 27.3 L107.4 27.6 L107.5 27.9 L107.6 27.9 L110.3 29.2 L111 38.7 L111 38.7 L111.2 38.6 L111.3 38.5 L111.5 38.4 L111.7 38.4 L111.8 38.3 L112 38.2 L112.1 38.1 L112.3 38.1 L112.4 38 L112.6 37.9 L112.8 37.9 L112.9 37.8 L113.1 37.8 L113.3 37.7 L113.4 37.6 L113.6 37.6 L113.8 37.5 L114 37.5 L114.1 37.4 L114.3 37.4 L114.5 37.3 L114.7 37.3 L114.8 37.2 L115 37.2 L115.2 37.2 L115.4 37.1 L115.6 37.1 L115.7 37.1 L115.9 37 L116.1 37 L116.3 37 L116.4 37 L116.6 36.9 L116.8 36.9 L117 36.9 L117.2 36.9 L117.4 36.9 L117.6 36.9 L117.7 36.9 L117.9 36.9 L118.1 36.9 L118.3 36.8 L118.5 36.9 L118.7 36.9 L118.9 36.9 L119.1 36.9 L119.2 36.9 L119.4 36.9 L119.6 36.9 L119.8 36.9 L120 36.9 L120.2 37 L120.4 37 L120.6 37 L120.7 37 L120.9 37.1 L121.1 37.1 L121.3 37.1 L121.5 37.2 L121.7 37.2 L121.9 37.2 L122 37.3 L122.2 37.3 L122.4 37.4 L122.6 37.4 L122.8 37.5 L123 37.5 L123.2 37.6 L123.3 37.6 L123.5 37.7 L123.7 37.8 L123.9 37.8 L124.1 37.9 L124.3 38 L124.4 38 L124.6 38.1 L124.8 38.2 L125 38.2 L125.2 38.3 L125.3 38.4 L125.5 38.5 L125.7 38.6 L125.9 38.6 L126.1 38.7 L126.2 38.8 L126.5 38.9 L126.8 39.1 L127 39.2 L127.3 39.4 L127.6 39.5 L127.8 39.7 L128.1 39.8 L128.3 40 L128.6 40.2 L128.8 40.3 L129 40.5 L129.3 40.7 L129.5 40.8 L129.7 41 L130 41.2 L130.2 41.4 L130.4 41.6 L130.6 41.8 L130.8 42 L131 42.2 L131.3 42.3 L131.5 42.5 L131.7 42.7 L131.9 43 L132 43.2 L132.2 43.4 L132.4 43.6 L132.6 43.8 L132.8 44 L133 44.2 L133.1 44.4 L133.3 44.6 L133.5 44.9 L133.6 45.1 L133.8 45.3 L134 45.5 L134.1 45.8 L134.3 46 L134.4 46.2 L134.6 46.4 L134.7 46.7 L134.8 46.9 L135 47.1 L135.1 47.4 L135.3 47.6 L135.4 47.8 L135.5 48.1 L135.6 48.3 L135.8 48.5 L135.9 48.8 L136 49 L136.1 49.2 L136.2 49.5 L136.3 49.7 L136.4 50 L136.5 50.2 L136.6 50.5 L136.7 50.7 L136.8 50.9 L136.9 51.2 L137 51.4 L137.1 51.7 L137.2 51.9 L137.6 53 L137.8 58.2 L137 59.7 L137.2 60 L137.3 60.2 L137.4 60.4 L137.5 60.6 L137.6 60.9 L137.8 61.1 L137.9 61.3 L138 61.5 L138.1 61.8 L138.2 62 L138.3 62.2 L138.4 62.4 L138.5 62.7 L138.6 62.9 L138.7 63.1 L138.8 63.3 L138.9 63.6 L139 63.8 L139.1 64 L139.2 64.2 L139.3 64.5 L139.4 64.7 L139.5 64.9 L139.6 65.1 L139.7 65.4 L139.8 65.6 L139.9 65.9 L141 65.8 L143 70 L143.1 70.2 L143.2 70.3 L143.3 70.5 L143.4 70.8 L143.5 71 L143.6 71.1 L143.6 71.3 L143.7 71.5 L143.8 71.6 L143.8 71.8 L143.9 72 L143.9 72.1 L144 72.3 L144.1 72.5 L144.1 72.6 L144.2 72.8 
		  L144.2 73 L144.3 73.1 L144.3 73.3 L144.4 73.5 L144.4 73.6 L144.5 73.8 L144.5 73.9 L144.6 74.1 L144.6 74.3 L144.7 74.4 L144.7 74.6 L144.7 74.8 L144.8 74.9 L144.8 75.1 L144.9 75.3 L144.9 75.4 L144.9 75.6 L145 75.8 L145 75.9 L145 76.1 L145 76.3 L145.1 76.4 L145.1 76.6 L145.1 76.8 L145.1 76.9 L145.2 77.1 L145.2 77.3 L145.2 77.4 L145.2 77.6 L145.2 77.8 L145.2 77.9 L145.2 78.1 L145.3 78.2 L145.3 78.4 L145.3 78.6 L145.3 78.7 L145.3 78.9 L145.3 79.1 L145.3 79.2 L145.3 79.4 L145.3 79.5 L145.3 79.7 L145.3 79.9 L145.3 80 L145.3 80.2 L145.3 80.4 L145.2 80.5 L145.2 80.7 L145.2 80.8 L145.2 81 L145.2 81.2 L145.2 81.3 L145.2 81.5 L145.1 81.6 L145.1 81.8 L145.1 82 L145.1 82.1 L145.1 82.3 L145 82.4 L145 82.6 L145 82.7 L144.9 82.9 L144.9 83 L144.9 83.2 L144.8 83.4 L144.8 83.5 L144.8 83.7 L144.7 83.8 L144.7 84 L144.6 84.1 L144.6 84.3 L144.6 84.4 L144.5 84.6 L144.5 84.7 L144.4 84.9 L144.4 85 L144.3 85.1 L144.3 85.3 L144.2 85.4 L144.2 85.6 L144.1 85.7 L144.1 85.9 L144 86 L144 86.2 L143.9 86.3 L143.8 86.4 L143.8 86.6 L143.7 86.7 L143.7 86.8 L143.6 87 L143.5 87.1 L143.5 87.3 L143.4 87.4 L143.3 87.5 L143.3 87.7 L143.2 87.8 L143.1 87.9 L143.1 88.1 L142.9 88.3 L142.8 88.6 L142.6 88.8 L142.5 89.1 L142.3 89.3 L139.3 94.1 L138 93.5 L133.8 97.5 L134.1 98.2 L134.4 98.8 L134.6 99.4 L134.9 100 L135.1 100.6 L135.4 101.2 L135.6 101.8 L135.9 102.4 L136.1 103 L136.4 103.6 L136.6 104.2 L136.8 104.8 L137.1 105.4 L137.3 105.9 L137.5 106.5 L137.7 107.1 L137.9 107.6 L138.5 107.3 L140.1 107.2 L140.6 107.2 L141.1 107.1 L141.6 107.1 L142.1 107.1 L142.5 107 L143 107 L143.5 107 L143.9 107 L144.4 107 L144.8 107 L145.3 106.9 L145.8 106.9 L146.2 106.9 L146.7 106.9 L147.1 106.9 L147.5 106.9 L148 107 L148.4 107 L148.9 107 L149.3 107 L149.7 107 L150.1 107 L150.6 107.1 L151 107.1 L151.4 107.1 L151.8 107.2 L152.2 107.2 L152.6 107.2 L153 107.3 L153.4 107.3 L153.9 107.4 L154.3 107.4 L154.6 107.5 L155 107.5 L155.4 107.6 L155.8 107.7 L156.2 107.7 L156.6 107.8 L157 107.9 L157.4 107.9 L157.7 108 L158.1 108.1 L158.5 108.2 L158.9 108.2 L159.2 108.3 L159.6 108.4 L159.9 108.5 L160.3 108.6 L160.7 108.7 L161 108.8 L161.4 108.9 L161.7 109 L162.1 109.1 L162.4 109.2 L162.8 109.3 L163.1 109.5 L163.4 109.6 L163.8 109.7 L164.1 109.8 L164.4 109.9 L164.8 110.1 L165.1 110.2 L168.4 111.5 L168.7 112.9 L171.1 113.1 L177 121.5 L176.4 124.2 L178.5 129.2 L178.4 136.6 L178.4 136.7 L178.4 137 L178.4 137.3 L178.4 137.5 L178.4 137.8 L178.4 138.1 L178.3 138.3 L178.3 138.6 L178.3 138.9 L178.3 139.1 L178.3 139.4 L178.2 139.7 L178.2 139.9 L178.2 140.2 L178.1 140.5 L178.1 140.7 L178 141 L178 141.2 L177.9 141.5 L177.9 141.8 L177.8 142 L177.7 142.3 L177.7 142.6 L177.6 142.8 L177.5 143.1 L177.4 143.3 L177.3 143.6 L177.2 143.9 L177.1 144.1 L177 144.4 L176.9 144.6 L176.9 144.8 L176.8 144.9 L176.7 145 L176.7 145.2 L176.6 145.3 L176.5 145.4 L176.5 145.5 L176.4 145.7 L176.4 145.8 L176.3 145.9 L176.2 146 L176.1 146.2 L176.1 146.3 L176 146.4 L175.9 146.5 L175.8 146.6 L175.8 146.8 L175.7 146.9 L175.6 147 L175.5 147.1 L175.4 147.2 L175.4 147.4 L175.3 147.5 L175.2 147.6 L175.1 147.7 L175 147.8 L174.9 147.9 L174.8 148 L174.7 148.2 L174.7 148.3 L174.6 148.4 L174.5 148.5 L174.4 148.6 L174.3 148.7 L174.2 148.8 L174.1 148.9 L174 149 L173.9 149.1 L173.8 149.2 L173.7 149.3 L173.6 149.4 L173.5 149.5 L173.4 149.6 L173.2 149.7 L173.1 149.8 L173 149.9 L172.9 150 L172.8 150.1 L172.7 150.2 L172.6 150.3 L172.5 150.4 L172.3 150.5 L172.2 150.6 L172.1 150.7 L172 150.8 L171.9 150.8 L171.7 150.9 L171.6 151 L171.5 151.1 L171.4 151.2 L171.3 151.3 L171.1 151.3 L171 151.4 L170.9 151.5 L170.8 151.6 L170.6 151.6 L170.4 151.8 L170.2 151.9 L170 152 
		  L169.8 152.1 L169.6 152.2 L169.3 152.3 L169.1 152.4 L168.9 152.5 L168.6 152.6 L168.4 152.7 L168.1 152.7 L167.9 152.8 L167.6 152.9 L167.4 152.9 L167.1 153 L166.8 153 L166.6 153.1 L166.3 153.1 L166 153.1 L165.8 153.1 L165.5 153.2 L165.2 153.2 L164.9 153.2 L164.7 153.1 L164.4 153.1 L164.1 153.1 L163.8 153.1 L163.6 153 L163.3 153 L163 152.9 L162.8 152.9 L162.5 152.8 L162.3 152.7 L162 152.6 L161.8 152.5 L161.5 152.4 L161.3 152.3 L161 152.2 L160.8 152.1 L160.6 152 L160.3 151.9 L160.1 151.8 L159.9 151.6 L159.7 151.5 L159.5 151.3 L159.3 151.2 L159.1 151.1 L158.9 150.9 L158.7 150.8 L158.5 150.6 L158.3 150.5 L158.2 150.3 L158 150.1 L157.8 150 L157.6 149.8 L157.5 149.7 L157.3 149.5 L157.2 149.3 L157 149.2 L156.9 149 L156.7 148.8 L156.6 148.6 L156.4 148.5 L155.2 146.9 L154.3 139.2 L152.4 138.3 L152.1 138.1 L151.9 138 L151.6 137.9 L151.4 137.7 L151.1 137.6 L150.8 137.5 L150.6 137.4 L150.3 137.2 L150 137.1 L149.8 137 L149.5 136.9 L149.2 136.8 L149 136.7 L148.7 136.6 L148.5 136.5 L148.2 136.4 L147.9 136.3 L147.7 136.2 L147.4 136.1 L147.2 136 L146.9 135.9 L146.7 135.8 L146.4 135.7 L146.2 135.6 L145.9 135.5 L145.6 135.5 L145.4 135.4 L145.1 135.3 L144.9 135.2 L144.6 135.2 L144.4 135.1 L144.1 135 L143.9 135 L143.6 134.9 L143.4 134.9 L143.1 134.8 L142.9 134.7 L142.7 134.7 L142.4 134.6 L142.2 134.6 L141.9 134.5 L141.7 134.5 L141.4 134.5 L141.2 134.4 L140.9 134.4 L140.7 134.4 L140.5 134.3 L140.2 134.3 L140 134.3 L139.7 134.3 L139.6 134.3 L139.5 134.2 L139.4 134.2 L139.3 134.2 L139.2 134.2 L139 134.2 L138.9 134.2 L138.8 134.2 L138.7 134.2 L138.6 134.2 L138.4 134.2 L138.3 134.2 L138.2 134.2 L138.1 134.2 L138 134.2 L137.8 134.2 L137.7 134.2 L137.6 134.2 L137.5 134.2 L137.4 134.2 L137.3 134.2 L137.1 134.2 L137 134.2 L137 134.2 L136.9 134.3 L136.7 134.4 L136.5 134.5 L136.3 134.6 L136.1 134.8 L135.9 134.9 L135.7 135 L135.5 135.1 L135.3 135.2 L135.1 135.4 L134.8 135.5 L134.6 135.6 L134.4 135.7 L134.2 135.8 L133.9 135.9 L133.7 136 L133.4 136.1 L133.2 136.2 L132.9 136.2 L132.7 136.3 L132.4 136.4 L132.2 136.4 L131.9 136.5 L131.8 136.5 L131.6 136.6 L131.5 136.6 L131.4 136.6 L131.2 136.7 L131.1 136.7 L130.9 136.7 L130.8 136.7 L130.7 136.7 L130.5 136.8 L130.4 136.8 L130.2 136.8 L130.1 136.8 L130 136.8 L129.8 136.8 L129.7 136.8 L129.5 136.8 L129.4 136.8 L129.2 136.8 L129.1 136.8 L129 136.8 L128.8 136.8 L128.7 136.8 L128.5 136.8 L128.4 136.8 L128.2 136.8 L128.1 136.8 L127.9 136.8 L127.8 136.8 L127.6 136.8 L127.5 136.8 L127.3 136.7 L127.2 136.7 L127 136.7 L126.9 136.7 L126.7 136.7 L126.6 136.6 L126.5 136.6 L126.3 136.6 L126.2 136.5 L126 136.5 L125.9 136.5 L125.7 136.4 L125.6 136.4 L125.4 136.4 L125.3 136.3 L125.1 136.3 L125 136.2 L124.8 136.2 L124.7 136.1 L124.5 136.1 L124.4 136 L124.2 136 L124.1 135.9 L124 135.9 L123.8 135.8 L123.7 135.8 L123.6 135.7 L123.4 135.7 L123.3 135.6 L123.1 135.5 L123 135.5 L122.9 135.4 L122.7 135.3 L122.6 135.3 L122.5 135.2 L122.4 135.2 L122.2 135.1 L122.1 135 L122 134.9 L121.9 134.9 L121.7 134.8 L121.6 134.7 L121.5 134.7 L121.4 134.6 L121.3 134.5 L121.1 134.4 L121 134.3 L120.9 134.3 L120.8 134.2 L120.6 134 L120.3 133.9 L120.1 133.7 L119.9 133.5 L119.7 133.3 L119.5 133.2 L119.3 133 L119.1 132.8 L118.9 132.6 L118.7 132.5 L118.6 132.3 L118.4 132.1 L118.2 131.9 L118 131.7 L117.9 131.5 L117.7 131.3 L117.5 131.2 L117.4 131 L117.2 130.8 L117.1 130.6 L116.9 130.4 L116.8 130.2 L116.6 130 L116.5 129.8 L116.3 129.6 L116.2 129.4 L116.1 129.2 L115.9 129 L115.8 128.9 L115.7 128.7 L115.6 128.5 L115.5 128.3 L115.3 128.1 L115.2 127.9 L115.1 127.7 L115 127.5 L114.9 127.3 L114.8 127.1 L114.7 126.9 L114.6 126.7 L114.5 126.5 L114.4 126.4 L114.3 126.2 
		  L114.2 126 L112.2 122.1 L113.9 120.1 L113.9 120.1 L113.7 120 L113.6 119.8 L113.4 119.6 L113.3 119.4 L113.1 119.2 L113 119.1 L112.9 118.9 L112.7 118.7 L112.6 118.5 L112.4 118.3 L112.3 118.2 L112.2 118 L112 117.8 L111.9 117.6 L111.7 117.4 L111.6 117.2 L111.5 117 L111.3 116.9 L111.2 116.9 L106.3 117.4 L105.8 117.9 L105.2 118.4 L104.7 118.9 L104.4 119.1 L104.1 119.4 L103.8 119.6 L103.5 119.9 L103.2 120.1 L103 120.4 L102.7 120.6 L102.4 120.9 L102.1 121.1 L101.8 121.3 L101.5 121.6 L101.2 121.8 L100.9 122.1 L100.7 122.3 L100.4 122.5 L100.1 122.8 L99.8 123 L99.5 123.2 L99.2 123.5 L98.9 123.7 L98.6 124 L98.3 124.2 L98 124.4 L97.7 124.6 L97.4 124.9 L97.1 125.1 L96.8 125.3 L96.6 125.6 L96.3 125.8 L96 126 L95.7 126.2 L95.4 126.5 L95.1 126.7 L94.8 126.9 L94.5 127.1 L94.2 127.3 L93.8 127.5 L93.6 127.8 L93.2 128 L92.9 128.2 L92.7 128.4 L89.7 135.9 L90.9 137.6 L90.6 140.4 L90.6 140.9 L90.5 141.3 L90.5 141.7 L90.4 142.2 L90.4 142.6 L90.3 143 L90.3 143.5 L90.2 143.9 L90.1 144.3 L90.1 144.7 L90 145.2 L89.9 145.6 L89.9 146 L89.8 146.4 L89.7 146.9 L89.6 147.3 L89.5 147.7 L89.5 148.1 L89.4 148.5 L89.3 148.9 L89.2 149.4 L89.1 149.8 L89 150.2 L88.9 150.6 L88.8 151 L88.7 151.4 L88.6 151.8 L88.5 152.3 L88.4 152.7 L88.3 153.1 L88.1 153.5 L88 153.9 L87.9 154.3 L87.8 154.7 L87.7 155.1 L87.5 155.5 L87.4 155.9 L87.3 156.3 L87.1 156.7 L87 157.1 L86.8 157.5 L86.7 157.9 L86.6 158.3 L86.4 158.7 L86.3 159 L86.1 159.4 L85.9 159.8 L85.8 160.2 L85.6 160.6 L85.5 161 L85.3 161.4 L85.1 161.8 L84.9 162.1 L84.8 162.5 L84.6 162.9 L84.4 163.3 L84.2 163.6 L84 164 L83.8 164.4 L83.6 164.8 L83.5 165.1 L83.3 165.5 L81.6 168.5 L81.3 168.6 L80 177.3 L67.9 176.5 L64.5 175 L64.3 175 L64.2 175 L64 174.9 L63.8 174.9 L63.6 174.9 L63.5 174.9 L63.3 174.9 L63.1 174.9 L62.9 174.9 L62.8 174.9 L62.6 174.9 L62.4 174.9 L62.2 174.9 L62.1 174.8 L61.9 174.8 L61.7 174.8 L61.6 174.8 L61.4 174.8 L61.2 174.8 L61 174.7 L60.9 174.7 L60.7 174.7 L60.5 174.7 L60.4 174.6 L60.2 174.6 L60 174.6 L59.9 174.5 L59.7 174.5 L59.5 174.5 L59.4 174.5 L59.2 174.4 L59 174.4 L58.9 174.4 L58.7 174.3 L58.5 174.3 L58.4 174.2 L58.2 174.2 L58 174.1 L57.9 174.1 L57.7 174.1 L57.5 174 L57.4 174 L57.2 173.9 L57 173.9 L56.9 173.8 L56.7 173.8 L56.6 173.7 L56.4 173.7 L56.2 173.6 L56.1 173.5 L55.9 173.5 L55.8 173.4 L55.6 173.4 L55.5 173.3 L55.3 173.2 L55.1 173.2 L55 173.1 L54.8 173.1 L54.7 173 L54.5 172.9 L54.4 172.9 L54.2 172.8 L54.1 172.7 L53.9 172.6 L53.8 172.6 L53.6 172.5 L53.5 172.4 L53.3 172.4 L53.2 172.3 L53 172.2 L52.9 172.1 L52.7 172 L52.6 172 L52.4 171.9 L52.3 171.8 L52.1 171.7 L52 171.6 L51.9 171.5 L51.7 171.5 L51.6 171.4 L51.4 171.3 L51.3 171.2 L51.1 171.1 L51 171 L50.9 170.9 L50.7 170.8 L50.6 170.7 L50.5 170.6 L50.3 170.5 L50.2 170.5 L50.1 170.4 L49.9 170.3 L49.8 170.2 L49.7 170.1 L49.5 170 L49.4 169.9 L49.3 169.7 L49.1 169.6 L49 169.5 L48.9 169.4 L48.7 169.3 L48.6 169.2 L48.5 169.1 L48.4 169 L48.2 168.9 L48.1 168.8 L48 168.7 L47.9 168.6 L47.7 168.5 L47.6 168.3 L47.5 168.2 L47.4 168.1 L47.3 168 L47.1 167.9 L47 167.8 L46.9 167.6 L46.8 167.5 L46.7 167.4 L46.2 166.9 L41.7 160.2 L49.4 151.4 L55.7 151.2 L55.6 150.8 L58.3 147.4 L58.4 147.2 L58.6 147.1 L58.7 146.9 L58.8 146.7 L59 146.5 L59.1 146.3 L59.2 146.2 L59.3 146 L59.5 145.8 L59.6 145.6 L59.7 145.4 L59.8 145.2 L59.9 145 L60.1 144.8 L60.2 144.6 L60.3 144.4 L60.4 144.2 L60.5 144 L60.6 143.8 L60.7 143.6 L60.8 143.4 L60.9 143.2 L61 143 L61.2 142.7 L61.2 142.5 L61.3 142.3 L61.4 142.1 L61.5 141.8 L61.6 141.6 L61.7 141.4 L61.8 141.2 L61.9 140.9 L62 140.7 L62.1 140.5 L62.2 140.2 L62.2 140 L62.3 139.7 L62.4 139.5 L62.5 139.2 L62.5 139 L62.6 138.7 L62.7 138.5 L62.8 138.2 L62.8 137.9 
		  L62.9 137.7 L63 137.4 L63 137.1 L63.1 136.9 L63.1 136.6 L63.2 136.3 L63.2 136.1 L63.3 135.8 L63.3 135.5 L63.4 135.2 L63.4 134.9 L63.5 134.6 L63.5 134.3 L63.6 134 L63.6 133.7 L63.7 133.4 L63.7 133.1 L63.7 132.8 L64.2 128.2 L65.1 127.9 L65.1 127.8 L65.1 127.7 L65.1 127.5 L65.1 127.4 L65.1 127.2 L65.1 127 L65.1 126.9 L65.1 126.7 L65 126.6 L65 126.4 L65 126.3 L65 126.1 L65 126 L65 125.8 L65 125.7 L65 125.5 L65 125.3 L65 125.2 L65.1 125 L65.1 124.9 L65.1 124.7 L65.1 124.6 L65.1 124.4 L65.1 124.3 L65.1 124.1 L65.1 124 L65.1 123.8 L65.1 123.6 L65.2 123.5 L65.2 123.3 L65.2 123.2 L65.2 123 L65.2 122.9 L65.3 122.7 L65.3 122.6 L65.3 122.4 L65.3 122.3 L65.4 122.1 L65.4 122 L65.4 121.7 L65.5 121.4 L65.6 121.1 L65.6 120.8 L65.7 120.5 L65.8 120.2 L65.9 119.9 L65.9 119.6 L66 119.3 L66.1 119 L66.2 118.7 L66.3 118.4 L66.4 118.1 L66.5 117.8 L66.6 117.6 L66.7 117.3 L66.9 117 L67 116.7 L67.1 116.4 L67.2 116.1 L67.3 115.8 L67.5 115.6 L67.6 115.3 L67.8 115 L67.9 114.7 L68 114.5 L68.2 114.2 L68.3 113.9 L68.5 113.6 L68.6 113.4 L68.8 113.1 L69 112.8 L69.1 112.6 L69.3 112.3 L69.5 112 L69.6 111.8 L69.8 111.5 L71.2 109.4 L69 109.9 L57.7 103.8 L57.6 100.7 L53.8 101.1 L37.7 90 L30.9 88.5 L32.9 72.9 L35.9 73.5 L36.4 71.7 L40.9 72.7 L41.9 71.3 L57.7 75.5 L58.4 77.6 L61.8 78.7 L64.5 77.3 L78.2 81.1 L79.4 79.7 L79.3 79.4 L76.4 77.7 L75.4 75.7 L75.3 75.4 L75.1 75.1 L75 74.7 L74.8 74.4 L74.7 74.1 L74.6 73.8 L74.5 73.6 L74.5 73.5 L74.4 73.3 L74.3 73.1 L74.3 73 L74.2 72.8 L74.2 72.7 L74.1 72.5 L74 72.3 L74 72.2 L73.9 72 L73.9 71.8 L73.8 71.7 L73.8 71.5 L73.7 71.3 L73.7 71.2 L73.6 71 L73.6 70.8 L73.5 70.7 L73.5 70.5 L73.4 70.3 L73.4 70.2 L73.4 70 L73.3 69.8 L73.3 69.6 L73.2 69.5 L73.2 69.3 L73.2 69.1 L73.1 68.9 L73.1 68.8 L73.1 68.6 L73 68.4 L73 68.2 L73 68.1 L73 67.9 L72.9 67.7 L72.9 67.5 L72.9 67.3 L72.9 67.2 L72.9 67 L72.8 66.8 L72.8 66.6 L72.8 66.5 L72.8 66.3 L72.8 66.1 L72.8 65.9 L72.8 65.7 L72.8 65.5 L72.8 65.4 L72.8 65.2 L72.8 65 L72.8 64.8 L72.8 64.6 L72.8 64.4 L72.8 64.2 L72.8 64.1 L72.8 63.9 L72.8 63.7 L72.8 63.5 L72.8 63.3 L72.9 63.1 L72.9 62.9 L72.9 62.8 L72.9 62.6 L73 62.4 L73 62.2 L73 62 L73.1 61.8 L73.1 61.6 L73.1 61.4 L73.2 61.3 L73.2 61.1 L73.2 60.9 L73.3 60.7 L73.3 60.5 L73.4 60.3 L73.4 60.1 L73.5 60 L73.5 59.8 L73.6 59.6 L73.7 59.4 L73.7 59.2 L73.8 59 L73.8 58.8 L73.9 58.7 L74 58.5 L74.1 58.3 L74.1 58.1 L74.2 57.9 L74.3 57.8 L74.4 57.6 L74.5 57.4 L74.5 57.2 L74.6 57 L74.7 56.9 L74.8 56.7 L74.9 56.5 L75 56.3 L75.1 56.2 L75.2 56 L75.3 55.8 L75.4 55.6 L75.5 55.5 L75.6 55.3 L75.7 55.1 L75.8 54.9 L75.9 54.8 L76 54.6 L76.2 54.4 L76.3 54.3 L76.4 54.1 L76.5 53.9 L76.6 53.8 L76.9 53.5 L75 53.3 L72.3 44.3 L67.1 44.3 L64.9 32.8 L69.8 29.8 L69.8 24.2 L76.6 22.9 L76.7 22.9 L76.8 22.7 L76.9 22.6 L77.1 22.5 L77.2 22.3 L77.4 22.2 L77.5 22.1 L77.6 21.9 L77.8 21.8 L77.9 21.7 L78.1 21.6 L78.2 21.4 L78.3 21.3 L78.5 21.2 L78.6 21.1 L78.8 21 L78.9 20.9 L79.1 20.7 L79.2 20.6 L79.4 20.5 L79.5 20.4 L79.7 20.3 L79.8 20.2 L80 20.1 L80.2 20 L80.3 19.9 L80.5 19.8 L80.6 19.7 L80.8 19.6 L80.9 19.6 L81.1 19.5 L81.3 19.4 L81.4 19.3 L81.6 19.2 L81.7 19.1 L81.9 19.1 L82.1 19 L82.2 18.9 L82.4 18.8 L82.5 18.8 L82.7 18.7 L82.9 18.6 L83 18.6 L83.2 18.5 L83.4 18.4 L83.5 18.4 L83.7 18.3 L83.9 18.3 L84 18.2 L84.2 18.2 L84.4 18.1 L84.5 18.1 L84.7 18 L84.9 18 L85 17.9 L85.2 17.9 L85.4 17.8 L85.5 17.8 L85.7 17.7 L85.9 17.7 L86 17.7 L86.2 17.6 L86.4 17.6 L86.5 17.6 L86.7 17.5 L86.9 17.5 L87 17.5 L87.2 17.4 L87.4 17.4 L87.5 17.4 L87.7 17.4 L87.9 17.3 L88 17.3 L88.2 17.3 L88.3 17.3 L88.5 17.3 L88.7 17.3 L88.8 17.2 L89 17.2 L89.2 17.2 L89.3 17.2 L89.5 17.2 L89.7 17.2 L89.8 17.2 L90 17.2 L90.2 17.2 L90.3 17.2 
		  L90.5 17.2 L90.6 17.2 L90.8 17.2 L91 17.2 L91.1 17.2 z M90.9 23.4 L90.7 23.4 L90.6 23.4 L90.5 23.4 L90.4 23.4 L90.2 23.4 L90.1 23.4 L90 23.4 L89.9 23.4 L89.7 23.4 L89.6 23.5 L89.5 23.5 L89.4 23.5 L89.3 23.5 L89.1 23.5 L89 23.5 L88.9 23.5 L88.8 23.5 L88.7 23.5 L88.5 23.6 L88.4 23.6 L88.3 23.6 L88.2 23.6 L88.1 23.6 L87.9 23.7 L87.8 23.7 L87.7 23.7 L87.6 23.7 L87.5 23.7 L87.4 23.8 L87.3 23.8 L87.1 23.8 L87 23.9 L86.9 23.9 L86.8 23.9 L86.7 23.9 L86.6 24 L86.4 24 L86.3 24 L86.2 24.1 L86.1 24.1 L86 24.1 L85.9 24.2 L85.8 24.2 L85.7 24.3 L85.6 24.3 L85.4 24.3 L85.3 24.4 L85.2 24.4 L85.1 24.5 L85 24.5 L84.9 24.6 L84.8 24.6 L84.7 24.7 L84.6 24.7 L84.5 24.8 L84.4 24.8 L84.3 24.9 L84.2 24.9 L84.1 25 L84 25 L83.9 25.1 L83.8 25.1 L83.7 25.2 L83.6 25.3 L83.5 25.3 L83.4 25.4 L83.3 25.5 L83.2 25.5 L83.1 25.6 L83 25.7 L82.9 25.7 L82.8 25.8 L82.7 25.9 L82.6 25.9 L82.5 26 L82.4 26.1 L82.3 26.2 L82.2 26.2 L82.1 26.3 L82 26.4 L81.9 26.5 L81.8 26.6 L81.8 26.6 L81.7 26.7 L81.6 26.8 L81.5 26.9 L81.4 27 L81.3 27.1 L81.2 27.2 L81.1 27.3 L81.1 27.3 L81 27.4 L80.9 27.5 L80.8 27.6 L80.7 27.7 L80.6 27.8 L80.6 27.9 L80.5 28 L80.4 28.1 L80.3 28.2 L80.3 28.3 L80.2 28.4 L80.1 28.6 L80 28.7 L76 29.4 L76 33.3 L71.9 35.9 L72.3 38.1 L77 38.1 L79.8 47.5 L82.1 47.7 L84.4 51.2 L87.6 51.4 L87.6 54.1 L85.5 55.8 L81.7 57.4 L81.6 57.5 L81.5 57.7 L81.5 57.8 L81.4 57.9 L81.3 58 L81.2 58.1 L81.1 58.2 L81 58.4 L81 58.5 L80.9 58.6 L80.8 58.7 L80.8 58.8 L80.7 58.9 L80.6 59.1 L80.5 59.2 L80.5 59.3 L80.4 59.4 L80.4 59.5 L80.3 59.7 L80.2 59.8 L80.2 59.9 L80.1 60 L80.1 60.1 L80 60.3 L80 60.4 L79.9 60.5 L79.9 60.6 L79.8 60.7 L79.8 60.9 L79.7 61 L79.7 61.1 L79.6 61.2 L79.6 61.3 L79.6 61.5 L79.5 61.6 L79.5 61.7 L79.5 61.8 L79.4 61.9 L79.4 62.1 L79.4 62.2 L79.3 62.3 L79.3 62.4 L79.3 62.6 L79.3 62.7 L79.2 62.8 L79.2 62.9 L79.2 63 L79.2 63.2 L79.1 63.3 L79.1 63.4 L79.1 63.5 L79.1 63.7 L79.1 63.8 L79.1 63.9 L79.1 64 L79 64.2 L79 64.3 L79 64.4 L79 64.5 L79 64.6 L79 64.8 L79 64.9 L79 65 L79 65.3 L79 65.5 L79 65.8 L79 66 L79.1 66.3 L79.1 66.5 L79.1 66.8 L79.2 67 L79.2 67.3 L79.2 67.5 L79.3 67.8 L79.3 68 L79.4 68.3 L79.4 68.5 L79.5 68.8 L79.6 69 L79.6 69.3 L79.7 69.6 L79.8 69.8 L79.9 70.1 L80 70.3 L80 70.6 L80.1 70.8 L80.2 71.1 L80.3 71.4 L80.4 71.5 L80.5 71.7 L80.6 72 L80.7 72.2 L80.8 72.5 L80.9 72.8 L81.1 73 L81.2 73.3 L84.6 75.3 L86.6 82.1 L84.9 82.9 L81 87.5 L79.7 88 L65.2 84 L63.8 84.7 L63.3 86.9 L59.8 86.2 L59.3 84.5 L53.5 82.6 L52.8 80.7 L44.6 78.5 L43.8 79.7 L40.9 79.1 L40.5 80.7 L38.3 80.3 L37.8 83.7 L40.3 84.2 L55.5 94.6 L57.9 94.4 L58.7 92.6 L62.2 93.5 L62.3 95.2 L63.7 95.8 L63.8 100 L70 103.3 L76.9 101.9 L77.4 100 L80.5 101.3 L81.8 100.4 L85.8 101.3 L85.8 103.5 L87.3 104.1 L87.2 104.2 L87 104.4 L86.9 104.5 L86.7 104.7 L86.5 104.8 L86.4 105 L86.2 105.1 L86.1 105.3 L85.9 105.5 L85.8 105.6 L85.7 105.8 L85.5 105.9 L85.4 106.1 L85.2 106.3 L85.1 106.4 L84.9 106.6 L84.8 106.7 L84.7 106.9 L84.5 107 L84.4 107.2 L84.2 107.4 L84.1 107.5 L84 107.7 L83.8 107.9 L83.7 108 L83.6 108.2 L83.4 108.4 L83.3 108.5 L83.2 108.7 L83 108.9 L82.9 109 L82.8 109.2 L82.6 109.4 L82.5 109.5 L82.4 109.7 L82.3 109.9 L82.1 110 L82 110.2 L81.9 110.4 L81.8 110.5 L81.7 110.7 L81.5 110.9 L81.4 111 L81.3 111.2 L81.2 111.4 L81.1 111.6 L81 111.7 L80.9 111.9 L80.7 112.1 L80.6 112.3 L80.5 112.4 L80.4 112.6 L80.3 112.8 L80.2 112.9 L80.1 113.1 L80 113.3 L79.9 113.5 L79.8 113.7 L79.7 113.8 L79.6 114 L79.5 114.2 L79.4 114.4 L79.3 114.6 L79.2 114.7 L75.2 114.7 L75 115 L74.9 115.2 L74.7 115.4 L74.6 115.6 L74.4 115.8 L74.3 116.1 L74.2 116.3 L74.1 116.5 L73.9 116.7 L73.8 116.9 L73.7 117.2 L73.6 117.4 L73.5 117.6 L73.3 117.8 L73.2 118 L73.1 118.2 
		  L73 118.5 L72.9 118.7 L72.8 118.9 L72.7 119.1 L72.6 119.3 L72.6 119.6 L72.5 119.8 L72.4 120 L72.3 120.2 L72.2 120.5 L72.2 120.7 L72.1 120.9 L72 121.1 L72 121.3 L71.9 121.5 L71.8 121.8 L71.8 122 L71.7 122.2 L71.7 122.4 L71.6 122.6 L71.6 122.9 L71.5 123.1 L71.5 123.2 L71.5 123.3 L71.5 123.4 L71.5 123.5 L71.4 123.6 L71.4 123.7 L71.4 123.9 L71.4 124 L71.4 124.1 L71.4 124.2 L71.4 124.3 L71.3 124.4 L71.3 124.5 L71.3 124.6 L71.3 124.7 L71.3 124.8 L71.3 125 L71.3 125.1 L71.3 125.2 L71.3 125.3 L71.3 125.4 L71.3 125.5 L71.3 125.6 L71.3 125.7 L71.3 125.8 L71.3 125.9 L71.3 126.2 L71.3 126.4 L71.3 126.6 L71.3 126.8 L71.3 127 L71.3 127.3 L71.4 127.5 L71.4 127.7 L71.4 127.9 L71.5 128.1 L71.5 128.4 L71.5 128.6 L71.6 128.8 L72.4 130.5 L72.4 132.5 L70 133.1 L69.9 133.5 L69.9 133.8 L69.9 134.2 L69.8 134.5 L69.8 134.9 L69.7 135.2 L69.7 135.6 L69.6 135.9 L69.6 136.2 L69.5 136.6 L69.4 136.9 L69.4 137.2 L69.3 137.6 L69.2 137.9 L69.2 138.2 L69.1 138.5 L69 138.8 L69 139.2 L68.9 139.5 L68.8 139.8 L68.7 140.1 L68.6 140.4 L68.5 140.7 L68.4 141 L68.4 141.3 L68.3 141.6 L68.2 141.9 L68.1 142.2 L68 142.5 L67.9 142.8 L67.8 143.1 L67.6 143.4 L67.5 143.7 L67.4 144 L67.3 144.2 L67.2 144.5 L67.1 144.8 L66.9 145.1 L66.8 145.4 L66.7 145.6 L66.6 145.9 L66.4 146.2 L66.3 146.4 L66.2 146.7 L66 146.9 L65.9 147.2 L65.8 147.5 L65.6 147.7 L65.5 148 L65.3 148.2 L65.2 148.5 L65 148.7 L64.8 149 L64.7 149.2 L64.5 149.5 L64.4 149.7 L64.2 149.9 L64 150.2 L63.9 150.4 L63.7 150.6 L63.5 150.9 L63.4 151.1 L63.2 151.3 L63 151.5 L64.2 153.8 L63.2 154.9 L59.7 157.2 L52.3 157.6 L49.6 160.7 L51 162.9 L51.2 163.1 L51.4 163.3 L51.6 163.5 L51.8 163.7 L52 163.9 L52.2 164 L52.4 164.2 L52.5 164.4 L52.7 164.5 L52.9 164.7 L53.1 164.8 L53.3 165 L53.5 165.2 L53.7 165.3 L53.9 165.5 L54.1 165.6 L54.3 165.7 L54.5 165.9 L54.8 166 L55 166.1 L55.2 166.3 L55.4 166.4 L55.6 166.5 L55.8 166.6 L56 166.7 L56.3 166.8 L56.5 167 L56.7 167.1 L56.9 167.2 L57.1 167.3 L57.4 167.3 L57.6 167.4 L57.8 167.5 L58.1 167.6 L58.3 167.7 L58.5 167.8 L58.8 167.9 L59 167.9 L59.2 168 L59.5 168.1 L59.7 168.1 L60 168.2 L60.2 168.2 L60.5 168.3 L60.7 168.3 L61 168.4 L61.2 168.4 L61.5 168.5 L61.7 168.5 L62 168.6 L62.2 168.6 L62.5 168.6 L62.8 168.6 L63 168.7 L63.3 168.7 L63.5 168.7 L63.8 168.7 L64.1 168.7 L64.4 168.7 L64.5 168.7 L64.6 168.7 L64.8 168.7 L64.9 168.7 L65.1 168.7 L65.2 168.7 L65.3 168.7 L65.5 168.7 L65.6 168.7 L65.7 168.7 L69.4 170.4 L74.6 170.7 L75.4 165.6 L75.1 163.3 L77.6 162.8 L77.8 162.5 L77.9 162.2 L78.1 161.9 L78.3 161.5 L78.5 161.2 L78.6 160.9 L78.8 160.5 L79 160.2 L79.1 159.9 L79.3 159.5 L79.4 159.2 L79.6 158.8 L79.7 158.5 L79.9 158.2 L80 157.8 L80.2 157.5 L80.3 157.1 L80.4 156.8 L80.6 156.4 L80.7 156.1 L80.8 155.7 L81 155.4 L81.1 155 L81.2 154.7 L81.3 154.3 L81.5 153.9 L81.6 153.6 L81.7 153.2 L81.8 152.8 L81.9 152.5 L82 152.1 L82.1 151.7 L82.2 151.4 L82.3 151 L82.4 150.6 L82.5 150.3 L82.6 149.9 L82.7 149.5 L82.8 149.1 L82.9 148.8 L83 148.4 L83.1 148 L83.2 147.6 L83.3 147.2 L83.3 146.9 L83.4 146.5 L83.5 146.1 L83.6 145.7 L83.6 145.3 L83.7 144.9 L83.8 144.5 L83.8 144.1 L83.9 143.8 L84 143.4 L84 143 L84.1 142.6 L84.1 142.2 L84.2 141.8 L84.2 141.4 L84.3 141 L84.3 140.6 L84.4 140.2 L84.4 139.8 L84.5 139.4 L82.8 137.1 L83.1 133.8 L84.1 132.8 L87.6 124.2 L87.9 124.1 L88.2 123.9 L88.5 123.7 L88.8 123.5 L89.1 123.3 L89.4 123.1 L89.6 122.9 L89.9 122.7 L90.2 122.5 L90.5 122.3 L90.8 122.1 L91.1 121.9 L91.4 121.6 L91.6 121.4 L91.9 121.2 L92.2 121 L92.5 120.8 L92.8 120.6 L93.1 120.4 L93.3 120.2 L93.6 119.9 L93.9 119.7 L94.2 119.5 L94.5 119.3 L94.7 119.1 L95 118.8 L95.3 118.6 L95.6 118.4 L95.8 118.2 L96.1 117.9 L96.4 117.7 L96.7 117.5 L97 117.3 
		  L97.2 117 L97.5 116.8 L97.8 116.6 L98.1 116.3 L98.3 116.1 L98.6 115.9 L98.9 115.6 L99.2 115.4 L99.4 115.2 L99.7 114.9 L100 114.7 L100.2 114.4 L100.5 114.2 L101.1 113.7 L101.6 113.2 L102.2 112.7 L102.7 112.3 L103.2 111.8 L103.8 111.3 L104.3 110.8 L104.9 110.3 L105.4 109.8 L107.3 111 L110.3 110.7 L114.3 109.9 L114.5 110.2 L114.7 110.6 L114.9 110.9 L115.1 111.2 L115.3 111.6 L115.5 111.9 L115.8 112.3 L116 112.6 L116.2 112.9 L116.4 113.2 L116.7 113.6 L116.9 113.9 L117.1 114.2 L117.4 114.5 L117.6 114.8 L117.9 115.2 L118.1 115.5 L118.3 115.6 L118.4 115.8 L118.5 115.9 L118.6 116.1 L118.8 116.2 L118.9 116.4 L119 116.5 L119.2 116.7 L119.3 116.8 L119.4 117 L119.6 117.1 L119.7 117.3 L119.8 117.4 L120 117.6 L120.1 117.7 L120.3 117.9 L120.4 118 L120.5 118.1 L120.7 118.3 L120.8 118.4 L121 118.6 L121.1 118.7 L121.3 118.8 L121.4 119 L121.6 119.1 L121.7 119.3 L121.9 119.4 L122 119.5 L122.2 119.7 L122.3 119.8 L119.7 123 L119.8 123.3 L120 123.6 L120.2 123.9 L120.2 124.1 L120.3 124.2 L120.4 124.4 L120.5 124.5 L120.6 124.7 L120.7 124.9 L120.8 125 L120.9 125.1 L121 125.3 L121.1 125.4 L121.2 125.6 L121.3 125.7 L121.4 125.9 L121.5 126 L121.6 126.2 L121.7 126.3 L121.8 126.5 L121.9 126.6 L122 126.7 L122.1 126.9 L122.2 127 L122.3 127.1 L122.4 127.3 L122.5 127.4 L122.6 127.5 L122.8 127.6 L122.9 127.8 L123 127.9 L123.1 128 L123.2 128.1 L123.3 128.2 L123.5 128.3 L123.6 128.5 L123.7 128.6 L123.9 128.7 L124 128.8 L124.1 128.9 L124.3 129 L124.5 129.1 L124.7 129.3 L124.9 129.4 L125.1 129.5 L125.3 129.6 L125.5 129.8 L125.7 129.8 L125.8 129.9 L126 130 L126.1 130 L126.3 130.1 L126.5 130.2 L126.6 130.2 L126.8 130.3 L127 130.3 L127.1 130.3 L127.3 130.4 L127.5 130.4 L127.6 130.5 L127.8 130.5 L127.9 130.5 L128.1 130.5 L128.3 130.5 L128.5 130.6 L128.7 130.6 L129 130.6 L129.1 130.6 L129.1 130.6 L129.2 130.6 L129.3 130.6 L129.4 130.6 L129.4 130.6 L129.5 130.6 L129.6 130.6 L129.6 130.6 L129.7 130.5 L129.8 130.5 L129.9 130.5 L129.9 130.5 L130 130.5 L130.1 130.5 L130.2 130.5 L130.2 130.5 L130.3 130.5 L130.4 130.5 L130.4 130.4 L130.5 130.4 L130.6 130.4 L130.8 130.4 L130.9 130.3 L131.1 130.3 L131.2 130.2 L131.3 130.2 L131.4 130.1 L131.6 130.1 L131.7 130 L131.8 130 L132 129.9 L132.1 129.9 L132.2 129.8 L132.3 129.7 L132.4 129.7 L132.6 129.6 L132.7 129.5 L132.8 129.5 L132.9 129.4 L133 129.3 L133.1 129.2 L133.2 129.2 L133.3 129.1 L133.4 129 L133.5 128.9 L133.7 128.8 L133.8 128.8 L133.9 128.7 L134 128.6 L134.1 128.5 L134.2 128.4 L134.3 128.3 L134.3 128.2 L134.4 128.1 L134.5 128.1 L134.6 128 L134.7 127.9 L134.8 127.8 L134.9 127.7 L135 127.6 L135 127.5 L135.1 127.4 L135.2 127.3 L136.4 128 L136.5 127.9 L136.7 127.9 L136.8 127.9 L137 127.9 L137.1 127.9 L137.3 127.9 L137.4 127.9 L137.6 127.9 L137.7 127.9 L138 127.9 L138.3 127.9 L138.6 127.9 L138.9 127.9 L139.2 128 L139.6 128 L139.8 128 L140.2 128 L140.3 128 L140.6 128.1 L140.9 128.1 L141.2 128.1 L141.5 128.2 L141.8 128.2 L142.1 128.3 L142.4 128.3 L142.7 128.3 L143 128.4 L143.3 128.5 L143.6 128.5 L143.9 128.6 L144.2 128.6 L144.5 128.7 L144.8 128.8 L145.1 128.8 L145.4 128.9 L145.7 129 L146 129.1 L146.3 129.1 L146.6 129.2 L146.9 129.3 L147.2 129.4 L147.5 129.5 L147.8 129.6 L148.1 129.7 L148.4 129.8 L148.7 129.9 L149 130 L149.3 130.1 L149.6 130.2 L149.9 130.3 L150.2 130.4 L150.5 130.5 L150.8 130.7 L151.1 130.8 L151.4 130.9 L151.7 131 L152 131.2 L152.3 131.3 L152.6 131.4 L152.9 131.5 L153.1 131.7 L153.4 131.8 L153.7 131.9 L154 132.1 L154.3 132.2 L154.6 132.4 L154.9 132.5 L155.2 132.7 L155.5 132.8 L157.8 130.7 L160.3 136.5 L161.2 144.5 L161.3 144.6 L161.4 144.7 L161.5 144.8 L161.6 144.9 L161.7 145 L161.8 145.1 L161.9 145.2 L162 145.3 L162 145.4 L162.2 145.5 
		  L162.2 145.6 L162.3 145.7 L162.4 145.7 L162.5 145.8 L162.6 145.9 L162.7 146 L162.8 146 L162.9 146.1 L163 146.2 L163.1 146.2 L163.2 146.3 L163.3 146.4 L163.4 146.4 L163.5 146.5 L163.6 146.5 L163.7 146.6 L163.8 146.6 L163.9 146.6 L163.9 146.7 L164.1 146.7 L164.1 146.7 L164.2 146.8 L164.3 146.8 L164.4 146.8 L164.5 146.8 L164.6 146.9 L164.7 146.9 L164.8 146.9 L164.9 146.9 L165 146.9 L165.1 146.9 L165.2 146.9 L165.3 146.9 L165.4 146.9 L165.5 146.9 L165.6 146.9 L165.7 146.9 L165.8 146.9 L165.9 146.9 L166 146.8 L166.1 146.8 L166.2 146.8 L166.3 146.7 L166.4 146.7 L166.5 146.7 L166.6 146.6 L166.7 146.6 L166.8 146.6 L166.9 146.5 L167.1 146.5 L167.2 146.4 L167.3 146.4 L167.4 146.3 L167.5 146.2 L167.6 146.2 L167.6 146.1 L167.7 146.1 L167.8 146.1 L167.9 146 L167.9 146 L168 145.9 L168.1 145.9 L168.2 145.8 L168.2 145.7 L168.3 145.7 L168.4 145.6 L168.5 145.6 L168.5 145.5 L168.6 145.5 L168.7 145.4 L168.7 145.4 L168.8 145.3 L168.9 145.3 L168.9 145.2 L169 145.1 L169.1 145.1 L169.1 145 L169.2 145 L169.2 144.9 L169.3 144.9 L169.4 144.8 L169.4 144.7 L169.5 144.7 L169.5 144.6 L169.6 144.6 L169.7 144.5 L169.7 144.4 L169.8 144.4 L169.8 144.3 L169.9 144.2 L169.9 144.2 L170 144.1 L170 144 L170.1 144 L170.1 143.9 L170.2 143.8 L170.2 143.8 L170.3 143.7 L170.3 143.6 L170.4 143.6 L170.4 143.5 L170.5 143.4 L170.5 143.4 L170.6 143.3 L170.6 143.2 L170.6 143.2 L170.7 143.1 L170.7 143 L170.8 143 L170.8 142.9 L170.8 142.8 L170.9 142.7 L170.9 142.7 L171 142.6 L171 142.5 L171 142.4 L171.1 142.4 L171.1 142.3 L171.1 142.2 L171.2 142.1 L171.2 142 L171.3 141.8 L171.4 141.7 L171.4 141.5 L171.5 141.3 L171.5 141.2 L171.6 141 L171.6 140.8 L171.7 140.7 L171.7 140.5 L171.8 140.3 L171.8 140.2 L171.8 140 L171.9 139.8 L171.9 139.6 L172 139.5 L172 139.3 L172 139.1 L172 138.9 L172 138.7 L172.1 138.6 L172.1 138.4 L172.1 138.2 L172.1 138 L172.1 137.8 L172.1 137.6 L172.1 137.4 L172.1 137.2 L172.1 137 L172.1 136.8 L172.1 136.6 L172.2 130.4 L169.9 124.9 L170.3 122.9 L167.7 119.1 L163.7 118.7 L163 116.1 L162.8 116 L162.5 115.9 L162.2 115.8 L161.9 115.7 L161.6 115.6 L161.4 115.5 L161.1 115.4 L160.8 115.3 L160.5 115.2 L160.2 115.1 L159.9 115 L159.6 114.9 L159.3 114.8 L159 114.7 L158.7 114.6 L158.4 114.6 L158.1 114.5 L157.8 114.4 L157.4 114.3 L157.1 114.3 L156.8 114.2 L156.5 114.1 L156.2 114.1 L155.8 114 L155.5 113.9 L155.2 113.9 L154.8 113.8 L154.5 113.8 L154.1 113.7 L153.8 113.7 L153.4 113.6 L153.1 113.6 L152.7 113.5 L152.4 113.5 L152 113.4 L151.6 113.4 L151.3 113.4 L150.9 113.4 L150.5 113.3 L150.2 113.3 L149.8 113.3 L149.4 113.3 L149 113.2 L148.6 113.2 L148.2 113.2 L147.8 113.2 L147.4 113.2 L147 113.2 L146.6 113.2 L146.2 113.2 L145.8 113.2 L145.4 113.2 L145 113.2 L144.6 113.2 L144.1 113.2 L143.7 113.2 L143.3 113.3 L142.9 113.3 L142.4 113.3 L142 113.3 L141.5 113.4 L141.1 113.4 L140.6 113.4 L140.2 113.5 L137.1 115 L133.7 114.5 L133.5 113.9 L133.3 113.4 L133.1 112.8 L132.9 112.2 L132.7 111.6 L132.5 111.1 L132.3 110.5 L132.1 109.9 L131.9 109.3 L131.7 108.8 L131.5 108.2 L131.2 107.6 L131 107 L130.8 106.5 L130.6 105.9 L130.3 105.3 L130.1 104.7 L129.9 104.1 L129.6 103.6 L129.4 103 L129.1 102.4 L128.9 101.8 L128.6 101.3 L128.4 100.7 L128.1 100.1 L127.9 99.5 L127.6 99 L127.4 98.4 L127.1 97.8 L126.8 97.2 L126.5 96.6 L126.3 96.1 L133.4 89.3 L133.2 87.1 L135 85.3 L136.9 86.2 L137 86 L137.1 85.8 L137.2 85.7 L137.3 85.5 L137.4 85.3 L137.5 85.1 L137.6 85 L137.6 84.9 L137.7 84.8 L137.7 84.7 L137.8 84.6 L137.8 84.5 L137.9 84.5 L137.9 84.4 L138 84.3 L138 84.2 L138 84.1 L138.1 84 L138.1 83.9 L138.2 83.8 L138.2 83.7 L138.2 83.6 L138.3 83.5 L138.3 83.4 L138.3 83.3 L138.4 83.2 L138.4 83.1 L138.4 83 L138.5 82.9 L138.5 82.8 
		  L138.5 82.7 L138.6 82.6 L138.6 82.5 L138.6 82.4 L138.6 82.3 L138.7 82.3 L138.7 82.2 L138.7 82 L138.7 81.9 L138.8 81.9 L138.8 81.8 L138.8 81.7 L138.8 81.5 L138.8 81.4 L138.9 81.3 L138.9 81.2 L138.9 81.1 L138.9 81 L138.9 80.9 L138.9 80.8 L139 80.7 L139 80.6 L139 80.5 L139 80.4 L139 80.3 L139 80.2 L139 80.1 L139 80 L139 79.9 L139 79.8 L139 79.7 L139 79.6 L139 79.5 L139 79.4 L139 79.3 L139 79.1 L139 79 L139 78.9 L139 78.8 L139 78.7 L139 78.6 L139 78.5 L139 78.4 L139 78.3 L139 78.2 L139 78 L139 77.9 L138.9 77.8 L138.9 77.7 L138.9 77.6 L138.9 77.5 L138.9 77.4 L138.9 77.3 L138.9 77.1 L138.8 77 L138.8 76.9 L138.8 76.8 L138.8 76.7 L138.7 76.6 L138.7 76.5 L138.7 76.3 L138.7 76.2 L138.6 76.1 L138.6 76 L138.6 75.9 L138.6 75.8 L138.5 75.6 L138.5 75.5 L138.4 75.4 L138.4 75.3 L138.4 75.1 L138.3 75 L138.3 74.9 L138.3 74.8 L138.2 74.7 L138.2 74.5 L138.1 74.4 L138.1 74.3 L138 74.2 L138 74.1 L137.9 73.9 L137.9 73.8 L137.8 73.7 L137.8 73.6 L137.7 73.4 L137.7 73.3 L137.6 73.2 L137.6 73.1 L137.5 72.9 L137.5 72.8 L137.4 72.7 L137.3 72.5 L135.6 72.8 L135.6 72.6 L135.5 72.4 L135.5 72.2 L135.4 72 L135.3 71.7 L135.3 71.5 L135.2 71.4 L135.2 71.1 L135.1 70.9 L135 70.7 L135 70.5 L134.9 70.3 L134.8 70.1 L134.7 69.9 L134.7 69.7 L134.6 69.5 L134.5 69.3 L134.5 69.1 L134.4 68.9 L134.3 68.7 L134.2 68.5 L134.2 68.3 L134.1 68.1 L134 67.9 L133.9 67.7 L133.8 67.5 L133.7 67.3 L133.7 67.1 L133.6 66.9 L133.5 66.7 L133.4 66.5 L133.3 66.3 L133.2 66.1 L133.1 65.9 L133 65.7 L132.9 65.5 L132.9 65.3 L132.8 65.1 L132.7 64.9 L132.6 64.7 L132.5 64.5 L132.4 64.3 L132.3 64.1 L132.2 63.9 L132.1 63.7 L132 63.5 L131.9 63.3 L131.8 63.1 L131.6 62.9 L131.5 62.7 L131.4 62.5 L131.3 62.3 L131.2 62.1 L131.1 61.9 L131 61.7 L130.9 61.5 L130.8 61.3 L130.6 61.1 L130.5 60.9 L130.4 60.7 L130.3 60.5 L130.2 60.3 L130.1 60.1 L129.9 59.9 L131.5 56.8 L131.4 54.3 L131.3 54.1 L131.3 53.9 L131.2 53.7 L131.1 53.5 L131 53.3 L131 53.1 L130.9 52.9 L130.8 52.7 L130.7 52.5 L130.6 52.3 L130.5 52.1 L130.5 51.9 L130.4 51.7 L130.3 51.6 L130.2 51.4 L130.1 51.2 L130 51 L129.9 50.8 L129.8 50.6 L129.7 50.5 L129.6 50.3 L129.5 50.1 L129.4 50 L129.3 49.8 L129.2 49.6 L129.1 49.4 L128.9 49.3 L128.8 49.1 L128.7 48.9 L128.6 48.8 L128.5 48.6 L128.4 48.5 L128.2 48.3 L128.1 48.2 L128 48 L127.9 47.9 L127.7 47.7 L127.6 47.6 L127.5 47.4 L127.3 47.3 L127.2 47.1 L127.1 47 L126.9 46.8 L126.8 46.7 L126.6 46.6 L126.5 46.4 L126.3 46.3 L126.2 46.2 L126 46.1 L125.9 45.9 L125.7 45.8 L125.6 45.7 L125.4 45.6 L125.2 45.5 L125.1 45.4 L125.1 45.3 L125 45.3 L124.9 45.2 L124.8 45.2 L124.7 45.1 L124.6 45.1 L124.6 45 L124.5 45 L124.4 44.9 L124.3 44.8 L124.2 44.8 L124.1 44.7 L124 44.7 L123.9 44.7 L123.9 44.6 L123.8 44.6 L123.7 44.5 L123.6 44.5 L123.5 44.4 L123.3 44.3 L123.2 44.3 L123.1 44.2 L123 44.2 L122.8 44.1 L122.7 44.1 L122.6 44 L122.5 44 L122.3 43.9 L122.2 43.9 L122.1 43.8 L122 43.8 L121.8 43.7 L121.7 43.7 L121.6 43.6 L121.5 43.6 L121.3 43.6 L121.2 43.5 L121.1 43.5 L121 43.5 L120.9 43.4 L120.7 43.4 L120.6 43.4 L120.5 43.3 L120.4 43.3 L120.3 43.3 L120.1 43.3 L120 43.3 L119.9 43.2 L119.8 43.2 L119.7 43.2 L119.6 43.2 L119.5 43.2 L119.3 43.2 L119.2 43.1 L119.1 43.1 L119 43.1 L118.9 43.1 L118.8 43.1 L118.6 43.1 L118.5 43.1 L118.4 43.1 L118.3 43.1 L118.2 43.1 L118.1 43.1 L118 43.1 L117.9 43.1 L117.7 43.1 L117.6 43.1 L117.5 43.1 L117.4 43.1 L117.3 43.2 L117.2 43.2 L117.1 43.2 L117 43.2 L116.9 43.2 L116.8 43.2 L116.7 43.2 L116.6 43.3 L116.4 43.3 L116.3 43.3 L116.2 43.3 L116.1 43.4 L116 43.4 L115.9 43.4 L115.8 43.4 L115.7 43.5 L115.6 43.5 L115.5 43.5 L115.4 43.6 L115.3 43.6 L115.2 43.6 L115.1 43.7 L115 43.7 L114.9 43.7 L114.8 43.8 L114.7 43.8 L114.6 43.9 L114.5 43.9 
		  L114.4 44 L114.3 44 L114.2 44.1 L114.1 44.1 L114 44.2 L113.9 44.2 L113.8 44.2 L113.7 44.3 L113.6 44.4 L113.5 44.4 L113.5 44.5 L113.4 44.5 L113.3 44.6 L113.2 44.6 L113.1 44.7 L113 44.8 L112.9 44.8 L112.8 44.9 L112.7 44.9 L112.6 45 L112.5 45.1 L112.4 45.1 L112.4 45.2 L112.3 45.3 L112.2 45.3 L112.1 45.4 L112 45.5 L111.9 45.6 L111.8 45.6 L111.7 45.7 L111.7 45.8 L111.6 45.8 L111.5 45.9 L111.4 46 L111.3 46.1 L111.2 46.2 L111.1 46.2 L111 46.3 L111 46.4 L110.9 46.5 L110.8 46.6 L110.7 46.7 L110.6 46.7 L110.6 46.8 L110.5 46.9 L110.4 47 L110.3 47.1 L110.2 47.2 L110.2 47.3 L105.4 46.9 L103 45.5 L105 42.4 L104.3 33.3 L102.3 32.4 L102.3 32.3 L102.3 32.1 L102.3 32 L102.2 31.9 L102.2 31.8 L102.2 31.7 L102.2 31.6 L102.1 31.5 L102.1 31.4 L102.1 31.3 L102.1 31.2 L102 31 L102 30.9 L102 30.8 L101.9 30.7 L101.9 30.6 L101.9 30.5 L101.8 30.4 L101.8 30.3 L101.8 30.2 L101.7 30.1 L101.7 30 L101.6 29.9 L101.6 29.8 L101.6 29.7 L101.5 29.6 L101.5 29.5 L101.5 29.4 L101.4 29.3 L101.4 29.2 L101.3 29.1 L101.3 29 L101.2 29 L101.2 28.9 L101.1 28.8 L101.1 28.7 L101.1 28.6 L101 28.5 L101 28.4 L100.9 28.3 L100.9 28.2 L100.8 28.1 L100.7 28 L100.7 28 L100.6 27.9 L100.6 27.8 L100.5 27.7 L100.5 27.6 L100.4 27.5 L100.4 27.5 L100.3 27.4 L100.3 27.3 L100.2 27.2 L100.1 27.1 L100.1 27.1 L100 27 L100 26.9 L99.9 26.8 L99.8 26.8 L99.8 26.7 L99.7 26.6 L99.6 26.5 L99.6 26.5 L99.5 26.4 L99.5 26.3 L99.4 26.3 L99.3 26.2 L99.2 26.1 L99.2 26 L99.1 26 L99 25.9 L99 25.9 L98.9 25.8 L98.8 25.7 L98.7 25.7 L98.7 25.6 L98.6 25.5 L98.5 25.5 L98.4 25.4 L98.4 25.4 L98.3 25.3 L98.2 25.2 L98.1 25.2 L98.1 25.1 L98 25.1 L97.9 25 L97.8 25 L97.7 24.9 L97.6 24.9 L97.6 24.8 L97.5 24.8 L97.4 24.7 L97.3 24.7 L97.2 24.6 L97.1 24.6 L97 24.5 L97 24.5 L96.9 24.4 L96.8 24.4 L96.7 24.4 L96.6 24.3 L96.5 24.3 L96.4 24.2 L96.3 24.2 L96.2 24.2 L96.1 24.1 L96 24.1 L95.9 24.1 L95.8 24 L95.7 24 L95.6 24 L95.5 23.9 L95.5 23.9 L95.3 23.9 L95.2 23.9 L95.1 23.8 L95 23.8 L94.9 23.8 L94.8 23.7 L94.7 23.7 L94.6 23.7 L94.5 23.7 L94.4 23.7 L94.3 23.6 L94.2 23.6 L94.1 23.6 L94 23.6 L93.9 23.6 L93.6 23.6 L93.4 23.5 L93.1 23.5 L92.9 23.5 L92.6 23.5 L92.3 23.4 L92.1 23.4 L91.8 23.4 L91.6 23.4 L91.3 23.4 L91.2 23.4 L91.1 23.4 L91 23.4 L90.9 23.4 z" fill-opacity="0.71" />
	
    <path d="M152.6 34.8 L160.5 51.1 L178.3 53.5 L165.3 66 L168.5 83.7 L152.6 75.1 L136.8 83.7 L140 66 L127 53.5 L144.8 51.1 L152.6 34.8 z" style="fill:#FFFFC9;" />
    
	<path d="M153 28.6 L153.3 28.6 L153.7 28.7 L154 28.7 L154.4 28.8 L154.7 28.9 L155 29.1 L155.4 29.2 L155.7 29.4 L156 29.5 L156.3 29.7 L156.5 30 L156.8 30.2 L157.1 30.4 L157.3 30.7 L157.5 30.9 L157.7 31.2 L157.9 31.5 L158.1 31.8 L158.3 32.1 L164.6 45.3 L179.2 47.3 L179.5 47.4 L179.9 47.4 L180.2 47.5 L180.5 47.6 L180.8 47.8 L181.2 47.9 L181.5 48.1 L181.8 48.3 L182.1 48.5 L182.3 48.7 L182.6 48.9 L182.8 49.2 L183.1 49.4 L183.3 49.7 L183.5 50 L183.7 50.3 L183.9 50.6 L184 50.9 L184.2 51.2 L184.3 51.6 L184.4 51.9 L184.4 52.2 L184.5 52.6 L184.6 52.9 L184.6 53.3 L184.6 53.6 L184.6 54 L184.5 54.3 L184.5 54.7 L184.4 55 L184.3 55.4 L184.2 55.7 L184 56 L183.9 56.3 L183.7 56.6 L183.5 56.9 L183.3 57.2 L183.1 57.5 L182.9 57.8 L182.6 58 L172.1 68.1 L174.7 82.6 L174.7 82.9 L174.8 83.3 L174.8 83.6 L174.8 84 L174.7 84.3 L174.7 84.7 L174.6 85 L174.5 85.3 L174.4 85.7 L174.3 86 L174.2 86.3 L174 86.6 L173.8 86.9 L173.6 87.2 L173.4 87.5 L173.2 87.8 L173 88.1 L172.7 88.3 L172.5 88.5 L172.2 88.7 L171.9 88.9 L171.6 89.1 L171.3 89.3 L171 89.4 L170.7 89.6 L170.3 89.7 L170 89.8 L169.6 89.8 L169.3 89.9 L168.9 89.9 L168.6 89.9 L168.2 89.9 L167.9 89.9 L167.5 89.9 L167.2 89.8 L166.9 89.7 L166.5 89.6 L166.2 89.5 L165.9 89.3 L165.6 89.2 L152.6 82.2 L139.7 89.2 L139.4 89.3 L139.1 89.5 L138.8 89.6 L138.4 89.7 L138.1 89.8 L137.7 89.9 L137.4 89.9 L137.1 89.9 L136.7 89.9 L136.4 89.9 L136 89.9 L135.7 89.8 L135.3 89.8 L135 89.7 L134.6 89.6 L134.3 89.4 L134 89.3 L133.7 89.1 L133.4 88.9 L133.1 88.7 L132.8 88.5 L132.6 88.3 L132.3 88.1 L132.1 87.8 L131.8 87.5 L131.6 87.2 L131.5 86.9 L131.3 86.6 L131.1 86.3 L131 86 L130.9 85.7 L130.8 85.3 L130.7 85 L130.6 84.7 L130.6 84.3 L130.5 84 L130.5 83.6 L130.5 83.3 L130.6 82.9 L130.6 82.6 L133.2 68.1 L122.6 58 L122.4 57.8 L122.2 57.5 L122 57.2 L121.8 56.9 L121.6 56.6 L121.4 56.3 L121.3 56 L121.1 55.7 L121 55.4 L120.9 55 L120.8 54.7 L120.8 54.3 L120.7 54 L120.7 53.6 L120.7 53.3 L120.7 52.9 L120.8 52.6 L120.8 52.2 L120.9 51.9 L121 51.6 L121.1 51.2 L121.3 50.9 L121.4 50.6 L121.6 50.3 L121.8 50 L122 49.7 L122.2 49.4 L122.4 49.2 L122.7 48.9 L123 48.7 L123.2 48.5 L123.5 48.3 L123.8 48.1 L124.1 47.9 L124.5 47.8 L124.8 47.6 L125.1 47.5 L125.4 47.4 L125.8 47.4 L126.1 47.3 L140.7 45.3 L147 32.1 L147.2 31.8 L147.4 31.5 L147.6 31.2 L147.8 30.9 L148 30.7 L148.2 30.4 L148.5 30.2 L148.8 30 L149 29.7 L149.3 29.5 L149.6 29.4 L149.9 29.2 L150.3 29.1 L150.6 28.9 L150.9 28.8 L151.3 28.7 L151.6 28.7 L152 28.6 L152.3 28.6 L152.6 28.6 L153 28.6 z M144.8 51.1 L127 53.5 L140 66 L136.8 83.7 L152.6 75.1 L168.5 83.7 L165.3 66 L178.3 53.5 L160.5 51.1 L152.6 34.8 L144.8 51.1 z" fill-opacity="0.71" />
    
    
	<defs>
        <radialGradient cx="101.6" cy="101.6" r="100.4" gradientUnits="userSpaceOnUse" id="Radial">
			<stop offset="0%" stop-color="#FFA972" stop-opacity="1" />
		    <stop offset="100%" stop-color="#A12607" stop-opacity="1" />
	    </radialGradient>
    </defs>

</svg>