<?xml version="1.0" encoding="utf-8"?>
<!DOCTYPE svg PUBLIC "-//W3C//DTD SVG 1.1//EN" "http://www.w3.org/Graphics/SVG/1.1/DTD/svg11.dtd">
<svg version="1.1" xmlns="http://www.w3.org/2000/svg" xmlns:xlink="http://www.w3.org/1999/xlink" xmlns:xml="http://www.w3.org/XML/1998/namespace" xmlns:serif="http://www.serif.com/" width="91" height="91" viewBox="0, 0, 91, 91" xml:space="preserve" fill-rule="evenodd" stroke-linejoin="round" stroke-miterlimit="2" style="clip-rule:evenodd;">

    <defs>
        <radialGradient cx="45" cy="45" r="45" gradientUnits="userSpaceOnUse" id="Radial">
			<stop offset="0%" stop-color="#a85f9c" stop-opacity="1" />
			<stop offset="100%" stop-color="#643F5E" stop-opacity="1" />
		</radialGradient>
    </defs>
	
	<circle cx="45" cy="45" r="45" stroke-width="1.1px" style="fill:url(#Radial);" />
	
    <circle cx="45" cy="45" r="31" stroke-width="2.5px" stroke-opacity="0.5" style="fill:none;stroke:white;" />
	
    <g stroke-width="0.5" style="stroke:black;fill:white;" filter="url(#dropshadow)" fill-rule="nonzero">
		
		<path
		 style="fill:#FFFFC9;stroke:#000000;stroke-width:0;stroke-linecap:butt;stroke-dasharray:none;stroke-opacity:1"
		 d="m 107.86969,287.46071 c -0.30236,-1.09466 -0.10382,-2.72471 0.48346,-3.96919 1.27112,-2.69354 3.79168,-5.28369 10.18031,-10.46137 2.22062,-1.79971 4.82591,-4.00441 5.78953,-4.89932 0.96362,-0.89491 2.0334,-1.87978 2.37729,-2.18861 1.45026,-1.3024 1.88437,-3.26359 1.64153,-7.41597 -0.087,-1.48778 -0.1062,-3.61801 -0.0426,-4.73385 0.0636,-1.11584 0.0507,-3.2026 -0.0286,-4.63724 -0.33709,-6.10072 -0.12313,-8.65808 0.89917,-10.7476 0.79641,-1.62781 2.46928,-2.95622 4.47874,-3.55653 0.7661,-0.22887 0.80495,-0.27537 0.70392,-0.8427 -0.21207,-1.19101 -0.62214,-2.40964 -1.95954,-5.82337 -1.79487,-4.58142 -2.02713,-5.52139 -1.93587,-7.83459 0.0638,-1.61647 0.15294,-2.01315 0.70425,-3.13303 0.38008,-0.77205 1.21744,-1.91916 2.10455,-2.88304 2.73597,-2.97274 4.13713,-5.26447 5.23153,-8.55668 1.00049,-3.00969 1.4583,-5.73457 2.17502,-12.94563 0.48894,-4.9193 1.00158,-8.0291 1.63397,-9.91195 0.73478,-2.18774 0.92835,-3.70072 0.81806,-6.39434 -0.0722,-1.76406 -0.21841,-2.80894 -0.53001,-3.78843 -1.66991,-5.24924 -5.96504,-10.18818 -13.53349,-15.56204 -1.11089,-0.78877 -2.77823,-2.06138 -3.7052,-2.82801 -2.07784,-1.71843 -4.95375,-3.61411 -9.61787,-6.33971 -5.66399,-3.30988 -7.74527,-4.77068 -10.30565,-7.23327 -4.23025,-4.0687 -6.30695,-8.95781 -5.474307,-12.88801 0.769807,-3.63362 2.978267,-6.35414 9.773667,-12.03987 6.12845,-5.12768 7.4245,-6.52113 9.10985,-9.79446 2.30369,-4.47428 5.45948,-7.636131 10.94957,-10.970563 0.98107,-0.595859 3.71994,-2.094007 6.08638,-3.329219 4.98351,-2.601246 8.26042,-4.47412 8.38184,-4.790526 0.0736,-0.191675 -13.90513,-26.557219 -17.05467,-32.167255 -3.3078,-5.891911 -3.72443,-6.846376 -3.26362,-7.476572 0.1827,-0.249861 0.39809,-0.293412 0.94431,-0.190939 0.57059,0.107042 0.8643,0.346207 1.51659,1.234921 1.49677,2.0393 2.55924,3.151249 5.08334,5.320079 5.35265,4.599266 7.82836,7.376381 9.00151,10.097388 0.22502,0.521928 0.95507,2.079286 1.62231,3.460797 0.66725,1.381512 1.92599,4.200779 2.7972,6.26504 4.14657,9.824917 7.03324,13.792808 11.458,15.749647 1.19109,0.526756 3.60518,1.074915 4.73392,1.074915 1.02767,0 2.60037,-0.832115 3.49621,-1.849844 1.88919,-2.14623 1.60562,-4.887683 -1.22766,-11.868664 -2.09514,-5.162236 -2.42771,-6.414295 -2.61743,-9.85414 -0.12832,-2.326446 -0.3202,-3.663324 -0.85973,-5.989771 -1.57455,-6.789534 -1.70816,-7.553027 -1.72445,-9.854139 -0.0134,-1.885567 0.0443,-2.336356 0.38045,-2.977182 0.51375,-0.979239 1.43046,-1.466842 2.75772,-1.466842 0.94974,0 1.11585,-0.07113 2.02641,-0.867658 1.16512,-1.019221 3.19959,-2.060028 4.96365,-2.53933 1.76698,-0.480097 5.73962,-0.47781 7.82534,0.0045 4.26726,0.986784 8.94939,3.291742 11.93417,5.875048 l 0.86902,0.752132 -0.52512,1.237623 c -1.14452,2.69744 -1.70653,5.556804 -2.52187,12.830729 -0.71954,6.419156 -1.18206,8.993367 -2.15006,11.96631 -0.87365,2.683201 -2.1102,4.995469 -3.56121,6.659223 l -1.02904,1.179908 0.35211,1.023416 c 0.60151,1.748325 1.18285,2.693343 2.4069,3.91264 1.33665,1.331455 2.61221,2.020601 4.85212,2.621435 1.38905,0.372598 2.28027,0.429841 8.79143,0.564661 8.04259,0.16653 9.10427,0.29906 11.54094,1.44066 1.80364,0.84502 3.09845,2.068925 4.60028,4.348361 2.42886,3.686441 5.16225,6.598051 17.77726,18.936321 4.4615,4.36362 7.05685,7.15823 8.85041,9.5299 0.65059,0.8603 0.70474,1.03253 0.69852,2.22201 -0.0138,2.63291 -0.8086,5.54853 -2.11608,7.76224 -2.04008,3.45408 -5.37132,6.42496 -11.78891,10.51366 -4.53834,2.89142 -7.07596,4.61012 -8.88804,6.01979 -0.9033,0.70271 -3.46828,2.54415 -5.69995,4.09211 -4.89159,3.39295 -6.77476,4.84424 -8.91652,6.87159 -3.04631,2.88358 -5.21083,6.34289 -6.05687,9.68 -0.48439,1.91064 -0.48461,2.47622 -0.002,3.88042 0.88238,2.5647 2.27374,4.49834 6.67447,9.27583 3.26138,3.54059 4.75306,5.51007 5.70736,7.53551 0.93088,1.97577 1.42723,4.36147 1.26672,6.08853 -0.22809,2.45416 -0.19346,2.39415 -1.65271,2.86413 -5.06333,1.63076 -6.18377,5.94805 -3.96136,15.26393 0.27043,1.13361 0.7364,3.20559 1.03549,4.6044 l 0.54379,2.54328 -0.86995,0.83804 c -4.13668,4.85631 -3.89376,10.42346 2.28141,11.48928 l 0.78409,0.12538 -0.0316,11.6149 -0.0316,11.61492 0.49654,1.54575 c 0.83455,2.59801 2.55822,5.07349 5.19069,7.45471 0.77326,0.69945 3.14489,2.66934 5.27029,4.37752 2.1254,1.70819 4.6074,3.83131 5.51555,4.71805 0.90815,0.88673 2.10653,1.96004 2.66308,2.38512 1.55207,1.18546 2.38114,2.59012 2.20006,3.72752 -0.10951,0.68787 -1.26207,1.70208 -2.43153,2.13962 -2.372,0.88747 -5.64533,0.89908 -8.22759,0.0292 -1.10647,-0.37273 -1.2114,-0.37745 -1.78636,-0.0801 -0.84609,0.43752 -2.20746,0.41404 -3.24672,-0.056 -1.21005,-0.54729 -2.46877,-1.7202 -4.2937,-4.00103 -2.81166,-3.51412 -3.58049,-4.17443 -4.86046,-4.17443 -0.88519,0 -1.66852,0.9346 -2.4254,2.89374 -0.53542,1.38592 -0.60173,1.46674 -1.63207,1.98938 -2.31963,1.17664 -4.04072,1.14466 -5.46001,-0.1015 -1.96458,-1.72494 -2.87455,-4.75045 -3.93577,-13.08591 -0.63876,-5.01715 -0.98647,-7.08414 -1.43014,-8.50157 -0.1504,-0.4805 -0.32364,-1.67648 -0.38497,-2.65776 -0.14711,-2.35377 -0.47545,-3.8731 -1.94949,-9.02085 -1.505,-5.25595 -1.83783,-6.95227 -1.83783,-9.36709 0,-2.96024 0.70633,-5.00098 2.39486,-6.91925 0.69063,-0.7846 0.74482,-0.92011 0.5521,-1.38071 -3.35446,-8.01716 -4.47261,-11.82634 -6.13358,-20.89527 -0.37953,-2.07227 -0.94163,-5.07198 -1.24911,-6.66603 -0.66375,-3.44113 -0.694,-3.66664 -1.07572,-8.01857 -0.67585,-7.70529 -1.68149,-10.82055 -4.37132,-13.54135 -1.97093,-1.99363 -3.35029,-2.47593 -6.0202,-2.10498 -3.65134,0.50732 -6.27858,3.0772 -7.96254,7.78871 -0.86143,2.41018 -1.22466,3.88064 -2.40398,9.7321 -1.06576,5.28803 -1.65682,7.53232 -2.53309,9.61836 -0.39404,0.93803 -0.56703,1.67366 -0.56797,2.41523 -0.002,1.20876 -0.54732,3.66911 -1.1606,5.23189 -0.22693,0.57825 -1.26998,2.83381 -2.3179,5.01234 -2.52138,5.24177 -3.14241,7.08383 -3.16317,9.38248 -0.0144,1.59894 0.0382,1.86004 0.60854,3.01857 0.36128,0.73386 0.99754,1.61222 1.51008,2.08465 l 0.88573,0.81645 -1.57507,7.56489 c -3.4884,16.75439 -4.43621,21.64492 -5.40339,27.88041 l -0.39389,2.53943 0.50172,1.09592 c 0.69892,1.52664 0.62095,3.54088 -0.20226,5.22509 -1.1694,2.39251 -3.73499,4.21098 -5.9778,4.23705 -2.12819,0.0247 -3.54112,-1.19239 -4.67644,-4.02836 -0.28608,-0.7146 -0.80123,-1.59733 -1.14479,-1.96161 -1.20746,-1.28028 -2.21603,-0.74435 -4.3996,2.33787 -3.81918,5.39096 -4.97219,6.27051 -7.30623,5.57336 -1.3599,-0.40618 -3.99242,-0.26521 -7.42215,0.39749 -1.38748,0.26807 -3.22373,0.48786 -4.10221,0.49099 -1.57247,0.006 -1.59202,0 -1.73714,-0.52567 z m 90.27859,-138.3988 c 3.59797,-0.53471 6.67652,-1.07814 6.84123,-1.20762 0.27939,-0.21962 15.98488,-14.55205 16.99567,-15.50981 l 0.46025,-0.43611 -8.37548,-8.81394 -8.37547,-8.81395 -3.56646,0.0524 -3.56645,0.0524 -1.20107,3.42847 -1.20107,3.42847 -0.53738,5.93676 -0.53737,5.93676 -2.30111,3.82836 -2.3011,3.82835 0.13964,4.63081 c 0.13844,4.59079 0.14329,4.63082 0.56203,4.63082 0.23231,0 3.36617,-0.43749 6.96414,-0.9722 z m -48.42251,-0.42864 c -0.20206,-0.66419 -2.70332,-8.77211 -5.55835,-18.01762 l -5.19097,-16.81 -2.42298,-0.0539 -2.42299,-0.0539 -8.71328,9.30024 c -4.7923,5.11514 -8.71327,9.36656 -8.71327,9.4476 0,0.29712 15.9164,15.17556 16.30839,15.24488 1.2092,0.21381 15.77895,2.10547 16.37504,2.12604 l 0.70579,0.0244 z"
		 transform="scale(0.26458333)" />
		
	   <path
	    style="fill:#000000;stroke-width:0.7;stroke-dasharray:none"
        d="m 25.759373,76.736542 c -0.281742,-2.181481 2.513925,-3.065746 3.74941,-4.620094 0.906262,-0.830425 1.812524,-1.660849 2.718786,-2.491274 0.716899,-4.606526 0.637667,-9.308836 1.567782,-13.886263 2.403316,-1.670756 1.716301,-4.800158 2.101584,-7.308743 0.07957,-0.95519 0.159134,-1.91038 0.238701,-2.86557 -2.710642,-3.147836 -6.468146,-5.140579 -9.685255,-7.632999 -0.702213,-1.445365 -1.404425,-2.890729 -2.106638,-4.336094 1.321954,-3.135617 5.239378,-3.983705 6.649324,-7.094141 0.914235,-2.366228 4.5968,-2.87238 5.030444,-4.829662 -0.595165,-2.409122 -2.297331,-4.340648 -3.213534,-6.628478 -0.519797,-1.011938 -1.039594,-2.023875 -1.559391,-3.035813 2.466251,-3.1856245 3.490603,2.413499 5.804526,2.751203 0.979727,0.961528 1.18597,2.44903 1.93016,3.618526 0.667666,1.35974 1.335332,2.71948 2.002998,4.07922 2.968138,-0.505946 -0.402879,-4.417515 0.06789,-6.435508 -0.549371,-2.103005 -0.954172,-6.3999517 2.420559,-5.70085 2.604005,-0.5171828 7.68886,0.06722 7.99349,3.444938 -0.936731,2.783112 -1.783626,5.861769 -2.175233,8.650975 1.803524,0.426427 3.781959,-0.104487 5.518324,0.900256 0.852514,0.425666 2.287652,0.294004 2.743693,1.09893 1.007562,3.664312 4.484113,5.729467 7.177948,8.060143 0.886552,2.675567 -1.65495,5.791443 -3.846376,7.175626 -2.605107,1.675012 -5.991193,3.088076 -7.10074,6.209736 -0.01916,2.083092 2.879474,2.198329 2.389899,4.667601 0.511436,2.276939 1.227444,4.207038 -0.635344,5.828634 -0.297442,3.191318 0.774757,6.353253 0.560184,9.569437 -0.119474,2.057291 0.713221,4.049197 2.390826,5.245103 1.638733,1.518821 3.277466,3.037643 4.916199,4.556464 -0.534883,3.362509 -4.750005,1.110795 -6.985389,1.554791 -2.942099,-0.225645 -7.701241,0.299799 -7.170182,-4.023518 -0.724974,-3.567262 -1.390523,-7.148032 -2.089815,-10.721119 1.759117,-2.186544 -0.881426,-4.790256 -0.553755,-7.253591 -0.17715,-1.993182 -1.112636,-7.770645 -3.026139,-3.606319 -0.736854,2.894971 -1.274397,5.802699 -2.420127,8.573858 -0.168104,2.171388 0.966521,3.885898 -0.223366,6.097201 -0.768207,3.312086 -1.356253,6.662093 -1.943014,10.010002 -4.171021,1.216581 -8.561649,0.883178 -12.843392,1.244738 -0.274984,-0.216445 -0.211262,-0.59791 -0.395035,-0.867346 z m 6.163449,-0.789908 c 1.740036,0.880423 2.546648,-4.190076 3.573454,-1.361442 0.882882,2.222414 3.916948,-0.101268 2.724339,-1.914389 0.469682,-3.397021 1.296572,-6.729296 1.94628,-10.093368 -2.369755,-1.765392 1.226175,-4.630993 0.942409,-6.984834 1.324191,-2.394937 0.587628,-8.002206 4.371348,-7.541544 2.384287,1.232471 1.601719,4.279285 2.247556,6.447054 0.391731,2.459009 0.85532,4.951456 1.961426,7.204544 -2.108996,1.975413 0.321842,4.970741 0.16691,7.3899 0.817253,1.925716 0.105776,7.82954 3.311015,5.860281 1.053035,-3.523266 2.197296,2.253103 4.20673,0.955499 1.553794,0.793377 4.795844,-0.100573 2.159588,-1.795265 -1.591692,-1.906433 -4.961952,-3.076795 -4.673146,-6.023048 0,-1.751148 0,-3.502297 0,-5.253445 -2.256777,-0.226028 -1.805954,-2.260394 -0.555701,-3.235948 -0.350765,-2.295002 -1.874783,-5.449035 0.968124,-6.032055 0.801437,-3.306104 -3.061088,-4.522377 -3.630659,-7.136743 0.365741,-3.257933 3.947773,-4.606099 6.15198,-6.510655 2.318043,-1.599285 5.787047,-3.040466 5.440405,-6.422675 -2.038365,-2.701404 -5.103462,-4.808625 -7.177283,-7.648391 -1.651272,-3.484437 -7.498837,0.439632 -8.626273,-3.734064 2.338357,-2.312828 1.287962,-6.476665 2.598244,-8.975266 -1.920933,-1.755241 -5.27299,-2.77285 -7.09858,-0.859444 -2.352789,-0.390787 -0.335376,3.767402 -0.414609,5.40253 -0.192725,2.091643 2.916913,5.278135 0.236857,6.192867 -3.381462,-0.03427 -4.017196,-4.221086 -5.379376,-6.58425 -0.843786,-2.376394 -2.868634,-2.80791 -4.087375,-4.783164 -1.534005,-0.570394 0.489895,1.97017 0.727681,2.71948 1.389061,2.589629 2.778123,5.179259 4.167184,7.768889 -2.508351,1.632925 -5.641599,2.346672 -6.930429,5.390658 -1.487779,2.411857 -6.173066,3.908112 -4.555375,7.286996 1.332847,2.795029 4.679986,3.479325 6.80983,5.499532 2.569295,1.734986 5.385529,4.044705 4.016353,7.520496 -0.624094,2.724666 -0.06242,5.77163 -2.24194,7.93936 -1.888614,1.829116 0.03517,3.66064 0.264339,5.425103 -2.474339,0.536636 -1.423273,3.323919 -1.622949,5.209741 -0.169189,1.138199 0.50514,2.622269 -0.737374,3.326382 -1.423437,1.615104 -5.393143,3.696458 -4.61824,5.613656 1.134075,0.162782 2.22312,-0.44831 3.357257,-0.262978 z"
       />
	   <path
		style="fill:none;fill-opacity:1;stroke:#000000;stroke-width:0.7;stroke-linecap:butt;stroke-dasharray:none;stroke-opacity:1"
		d="m 31.377313,35.028359 4.301728,-4.59092 h 0.795277 l 2.711174,8.784201 -3.904091,-0.506085 z"
       />
	   <path
		style="fill:none;fill-opacity:1;stroke:#000000;stroke-width:0.7;stroke-linecap:butt;stroke-dasharray:none;stroke-opacity:1"
		d="m 52.813656,30.618184 h 1.445958 l 4.048686,4.26558 -4.301728,3.940239 -3.181109,0.469934 -0.03615,-1.952043 1.192916,-1.988195 0.289192,-3.18111 z"
	   />

	/>
    </g>
</svg>