<?xml version="1.0" encoding="utf-8"?>
<!DOCTYPE svg PUBLIC "-//W3C//DTD SVG 1.1//EN" "http://www.w3.org/Graphics/SVG/1.1/DTD/svg11.dtd">
<svg version="1.1" xmlns="http://www.w3.org/2000/svg" xmlns:xlink="http://www.w3.org/1999/xlink" xmlns:xml="http://www.w3.org/XML/1998/namespace" xmlns:serif="http://www.serif.com/" width="201" height="201" viewBox="0, 0, 201, 201" xml:space="preserve" fill-rule="evenodd" stroke-linecap="round" stroke-linejoin="round" stroke-miterlimit="1.5" style="clip-rule:evenodd;">

    <circle cx="100.4" cy="100.4" r="100.4" stroke-width="2.49px" style="fill:url(#Radial);" />
	
    <circle cx="100.4" cy="100.4" r="69" stroke-width="6px" stroke-opacity="0.5" style="fill:none;stroke:white;" />
	
	<path d="M100.7 0 L101 0 L101.4 0 L101.7 0 L102 0 L102.3 0 L102.7 0 L103 0 L103.3 0 L103.6 0.1 L104 0.1 L104.3 0.1 L104.6 0.1 L104.9 0.1 L105.2 0.1 L105.6 0.1 L105.9 0.1 L106.2 0.2 L106.5 0.2 L106.8 0.2 L107.2 0.2 L107.5 0.2 L107.8 0.3 L108.1 0.3 L108.4 0.3 L108.8 0.3 L109.1 0.4 L109.4 0.4 L109.7 0.4 L110 0.5 L110.3 0.5 L110.7 0.5 L111 0.6 L111.3 0.6 L111.6 0.6 L111.9 0.7 L112.2 0.7 L112.5 0.7 L112.9 0.8 L113.2 0.8 L113.5 0.8 L113.8 0.9 L114.1 0.9 L114.4 1 L114.7 1 L115.1 1.1 L115.4 1.1 L115.7 1.2 L116 1.2 L116.3 1.3 L116.6 1.3 L116.9 1.4 L117.2 1.4 L117.5 1.5 L117.8 1.5 L118.2 1.6 L118.5 1.6 L118.8 1.7 L119.1 1.7 L119.4 1.8 L119.7 1.9 L120 1.9 L120.3 2 L120.6 2 L120.9 2.1 L121.2 2.2 L121.5 2.2 L121.8 2.3 L122.1 2.4 L122.4 2.4 L122.8 2.5 L123.1 2.6 L123.4 2.6 L123.7 2.7 L124 2.8 L124.3 2.9 L124.6 2.9 L124.9 3 L125.2 3.1 L125.5 3.2 L125.8 3.2 L126.1 3.3 L126.4 3.4 L126.7 3.5 L127 3.6 L127.3 3.6 L127.6 3.7 L127.9 3.8 L128.2 3.9 L128.5 4 L128.8 4.1 L129.1 4.2 L129.4 4.2 L129.6 4.3 L129.9 4.4 L130.2 4.5 L130.5 4.6 L130.8 4.7 L131.1 4.8 L131.4 4.9 L131.7 5 L132 5.1 L132.3 5.2 L132.6 5.3 L132.9 5.4 L133.2 5.5 L133.5 5.6 L133.7 5.7 L134 5.8 L134.3 5.9 L134.6 6 L134.9 6.1 L135.2 6.2 L135.5 6.3 L135.8 6.4 L136.1 6.5 L136.3 6.6 L136.6 6.7 L136.9 6.9 L137.2 7 L137.5 7.1 L137.8 7.2 L138 7.3 L138.3 7.4 L138.6 7.5 L138.9 7.7 L139.2 7.8 L139.5 7.9 L139.7 8 L140 8.1 L140.3 8.3 L140.6 8.4 L140.9 8.5 L141.1 8.6 L141.4 8.8 L141.7 8.9 L142 9 L142.3 9.1 L142.5 9.3 L142.8 9.4 L143.1 9.5 L143.4 9.6 L143.6 9.8 L143.9 9.9 L144.2 10 L144.5 10.2 L144.7 10.3 L145 10.4 L145.3 10.6 L145.5 10.7 L145.8 10.9 L146.1 11 L146.4 11.1 L146.6 11.3 L146.9 11.4 L147.2 11.6 L147.4 11.7 L147.7 11.8 L148 12 L148.2 12.1 L148.5 12.3 L148.8 12.4 L149 12.6 L149.3 12.7 L149.6 12.9 L149.8 13 L150.1 13.2 L150.4 13.3 L150.6 13.5 L150.9 13.6 L151.1 13.8 L151.4 13.9 L151.7 14.1 L151.9 14.2 L152.2 14.4 L152.4 14.5 L152.7 14.7 L153 14.9 L153.2 15 L153.5 15.2 L153.7 15.3 L154 15.5 L154.2 15.7 L154.5 15.8 L154.7 16 L155 16.2 L155.3 16.3 L155.5 16.5 L155.8 16.7 L156 16.8 L156.3 17 L156.5 17.2 L156.8 17.3 L157 17.5 L157.3 17.7 L157.5 17.8 L157.8 18 L158 18.2 L158.3 18.4 L158.5 18.5 L158.7 18.7 L159 18.9 L159.2 19.1 L159.5 19.2 L159.7 19.4 L160 19.6 L160.2 19.8 L160.4 20 L160.7 20.1 L160.9 20.3 L161.2 20.5 L161.4 20.7 L161.6 20.9 L161.9 21.1 L162.1 21.2 L162.4 21.4 L162.6 21.6 L162.8 21.8 L163.1 22 L163.3 22.2 L163.5 22.4 L163.8 22.6 L164 22.7 L164.2 22.9 L164.5 23.1 L164.7 23.3 L164.9 23.5 L165.2 23.7 L165.4 23.9 L165.6 24.1 L165.9 24.3 L166.1 24.5 L166.3 24.7 L166.5 24.9 L166.8 25.1 L167 25.3 L167.2 25.5 L167.4 25.7 L167.7 25.9 L167.9 26.1 L168.1 26.3 L168.3 26.5 L168.6 26.7 L168.8 26.9 L169 27.1 L169.2 27.3 L169.4 27.5 L169.6 27.7 L169.9 27.9 L170.1 28.2 L170.3 28.4 L170.5 28.6 L170.7 28.8 L170.9 29 L171.2 29.2 L171.4 29.4 L171.6 29.6 L171.8 29.8 L172 30.1 L172.2 30.3 L172.4 30.5 L172.6 30.7 L172.8 30.9 L173.1 31.1 L173.3 31.4 L173.5 31.6 L173.7 31.8 L173.9 32 L174.1 32.2 L174.3 32.5 L174.5 32.7 L174.7 32.9 L174.9 33.1 L175.1 33.4 L175.3 33.6 L175.5 33.8 L175.7 34 L175.9 34.3 L176.1 34.5 L176.3 34.7 L176.5 34.9 L176.7 35.2 L176.9 35.4 L177.1 35.6 L177.3 35.9 L177.5 36.1 L177.7 36.3 L177.9 36.6 L178 36.8 L178.2 37 L178.4 37.3 L178.6 37.5 L178.8 37.7 L179 38 L179.2 38.2 L179.4 38.4 L179.6 38.7 L179.7 38.9 L179.9 39.1 L180.1 39.4 L180.3 39.6 L180.5 39.9 L180.7 40.1 L180.8 40.3 L181 40.6 L181.2 40.8 L181.4 41.1 L181.6 41.3 L181.7 41.6 L181.9 41.8 L182.1 42 L182.3 42.3 L182.4 42.5 L182.6 42.8 L182.8 43 L183 43.3 L183.1 43.5 L183.3 43.8 L183.5 44 L183.6 44.3 L183.8 44.5 L184 44.8 L184.1 45 L184.3 45.3 L184.5 45.5 L184.6 45.8 L184.8 46 L185 46.3 L185.1 46.6 L185.3 46.8 L185.5 47.1 L185.6 47.3 L185.8 47.6 L185.9 47.8 L186.1 48.1 L186.2 48.4 L186.4 48.6 L186.6 48.9 L186.7 49.1 L186.9 49.4 L187 49.7 L187.2 49.9 L187.3 50.2 L187.5 50.4 L187.6 50.7 L187.8 51 L187.9 51.2 L188.1 51.5 L188.2 51.8 L188.4 52 L188.5 52.3 L188.7 52.6 L188.8 52.8 L189 53.1 L189.1 53.4 L189.2 53.6 L189.4 53.9 L189.5 54.2 L189.7 54.4 L189.8 54.7 L189.9 55 L190.1 55.2 L190.2 55.5 L190.3 55.8 L190.5 56.1 L190.6 56.3 L190.8 56.6 L190.9 56.9 L191 57.2 L191.1 57.4 L191.3 57.7 L191.4 58 L191.5 58.3 L191.7 58.5 L191.8 58.8 L191.9 59.1 L192 59.4 L192.2 59.7 L192.3 59.9 L192.4 60.2 L192.5 60.5 L192.7 60.8 L192.8 61.1 L192.9 61.3 L193 61.6 L193.1 61.9 L193.2 62.2 L193.4 62.5 L193.5 62.7 L193.6 63 L193.7 63.3 L193.8 63.6 L193.9 63.9 L194 64.2 L194.2 64.5 L194.3 64.7 L194.4 65 L194.5 65.3 L194.6 65.6 L194.7 65.9 L194.8 66.2 L194.9 66.5 L195 66.8 L195.1 67 L195.2 67.3 L195.3 67.6 L195.4 67.9 L195.5 68.2 L195.6 68.5 L195.7 68.8 L195.8 69.1 L195.9 69.4 L196 69.7 L196.1 70 L196.2 70.3 L196.3 70.6 L196.4 70.9 L196.5 71.1 L196.5 71.4 L196.6 71.7 L196.7 72 L196.8 72.3 L196.9 72.6 L197 72.9 L197.1 73.2 L197.1 73.5 L197.2 73.8 L197.3 74.1 L197.4 74.4 L197.5 74.7 L197.5 75 L197.6 75.3 L197.7 75.6 L197.8 75.9 L197.9 76.2 L197.9 76.5 L198 76.8 L198.1 77.1 L198.1 77.4 L198.2 77.7 L198.3 78 L198.4 78.3 L198.4 78.6 L198.5 79 L198.6 79.3 L198.6 79.6 L198.7 79.9 L198.7 80.2 L198.8 80.5 L198.9 80.8 L198.9 81.1 L199 81.4 L199.1 81.7 L199.1 82 L199.2 82.3 L199.2 82.6 L199.3 82.9 L199.3 83.3 L199.4 83.6 L199.4 83.9 L199.5 84.2 L199.5 84.5 L199.6 84.8 L199.6 85.1 L199.7 85.4 L199.7 85.7 L199.8 86.1 L199.8 86.4 L199.9 86.7 L199.9 87 L199.9 87.3 L200 87.6 L200 87.9 L200.1 88.2 L200.1 88.6 L200.1 88.9 L200.2 89.2 L200.2 89.5 L200.2 89.8 L200.3 90.1 L200.3 90.5 L200.3 90.8 L200.4 91.1 L200.4 91.4 L200.4 91.7 L200.4 92 L200.5 92.4 L200.5 92.7 L200.5 93 L200.5 93.3 L200.6 93.6 L200.6 94 L200.6 94.3 L200.6 94.6 L200.6 94.9 L200.7 95.2 L200.7 95.6 L200.7 95.9 L200.7 96.2 L200.7 96.5 L200.7 96.8 L200.7 97.2 L200.7 97.5 L200.8 97.8 L200.8 98.1 L200.8 98.5 L200.8 98.8 L200.8 99.1 L200.8 99.4 L200.8 99.7 L200.8 100.1 L200.8 100.4 L200.8 100.7 L200.8 101 L200.8 101.4 L200.8 101.7 L200.8 102 L200.8 102.3 L200.8 102.7 L200.8 103 L200.7 103.3 L200.7 103.6 L200.7 104 L200.7 104.3 L200.7 104.6 L200.7 104.9 L200.7 105.2 L200.7 105.6 L200.6 105.9 L200.6 106.2 L200.6 106.5 L200.6 106.8 L200.6 107.2 L200.5 107.5 L200.5 107.8 L200.5 108.1 L200.5 108.4 L200.4 108.8 L200.4 109.1 L200.4 109.4 L200.4 109.7 L200.3 110 L200.3 110.3 L200.3 110.7 L200.2 111 L200.2 111.3 L200.2 111.6 L200.1 111.9 L200.1 112.2 L200.1 112.5 L200 112.9 L200 113.2 L199.9 113.5 L199.9 113.8 L199.9 114.1 L199.8 114.4 L199.8 114.7 L199.7 115.1 L199.7 115.4 L199.6 115.7 L199.6 116 L199.5 116.3 L199.5 116.6 L199.4 116.9 L199.4 117.2 L199.3 117.5 L199.3 117.8 L199.2 118.2 L199.2 118.5 L199.1 118.8 L199.1 119.1 L199 119.4 L198.9 119.7 L198.9 120 L198.8 120.3 L198.7 120.6 L198.7 120.9 L198.6 121.2 L198.6 121.5 L198.5 121.8 L198.4 122.1 L198.4 122.4 L198.3 122.8 L198.2 123.1 L198.1 123.4 L198.1 123.7 L198 124 L197.9 124.3 L197.9 124.6 L197.8 124.9 L197.7 125.2 L197.6 125.5 L197.5 125.8 L197.5 126.1 L197.4 126.4 L197.3 126.7 L197.2 127 L197.1 127.3 L197.1 127.6 L197 127.9 L196.9 128.2 L196.8 128.5 L196.7 128.8 L196.6 129.1 L196.5 129.4 L196.5 129.6 L196.4 129.9 L196.3 130.2 L196.2 130.5 L196.1 130.8 L196 131.1 L195.9 131.4 L195.8 131.7 L195.7 132 L195.6 132.3 L195.5 132.6 L195.4 132.9 L195.3 133.2 L195.2 133.5 L195.1 133.7 L195 134 L194.9 134.3 L194.8 134.6 L194.7 134.9 L194.6 135.2 L194.5 135.5 L194.4 135.8 L194.3 136 L194.2 136.3 L194 136.6 L193.9 136.9 L193.8 137.2 L193.7 137.5 L193.6 137.8 
		  L193.5 138 L193.4 138.3 L193.2 138.6 L193.1 138.9 L193 139.2 L192.9 139.5 L192.8 139.7 L192.7 140 L192.5 140.3 L192.4 140.6 L192.3 140.9 L192.2 141.1 L192 141.4 L191.9 141.7 L191.8 142 L191.7 142.3 L191.5 142.5 L191.4 142.8 L191.3 143.1 L191.1 143.4 L191 143.6 L190.9 143.9 L190.8 144.2 L190.6 144.5 L190.5 144.7 L190.3 145 L190.2 145.3 L190.1 145.5 L189.9 145.8 L189.8 146.1 L189.7 146.4 L189.5 146.6 L189.4 146.9 L189.2 147.2 L189.1 147.4 L189 147.7 L188.8 148 L188.7 148.2 L188.5 148.5 L188.4 148.8 L188.2 149 L188.1 149.3 L187.9 149.6 L187.8 149.8 L187.6 150.1 L187.5 150.4 L187.3 150.6 L187.2 150.9 L187 151.1 L186.9 151.4 L186.7 151.7 L186.6 151.9 L186.4 152.2 L186.2 152.4 L186.1 152.7 L185.9 153 L185.8 153.2 L185.6 153.5 L185.5 153.7 L185.3 154 L185.1 154.2 L185 154.5 L184.8 154.7 L184.6 155 L184.5 155.3 L184.3 155.5 L184.1 155.8 L184 156 L183.8 156.3 L183.6 156.5 L183.5 156.8 L183.3 157 L183.1 157.3 L183 157.5 L182.8 157.8 L182.6 158 L182.4 158.3 L182.3 158.5 L182.1 158.7 L181.9 159 L181.7 159.2 L181.6 159.5 L181.4 159.7 L181.2 160 L181 160.2 L180.8 160.4 L180.7 160.7 L180.5 160.9 L180.3 161.2 L180.1 161.4 L179.9 161.6 L179.7 161.9 L179.6 162.1 L179.4 162.4 L179.2 162.6 L179 162.8 L178.8 163.1 L178.6 163.3 L178.4 163.5 L178.2 163.8 L178 164 L177.9 164.2 L177.7 164.5 L177.5 164.7 L177.3 164.9 L177.1 165.2 L176.9 165.4 L176.7 165.6 L176.5 165.9 L176.3 166.1 L176.1 166.3 L175.9 166.5 L175.7 166.8 L175.5 167 L175.3 167.2 L175.1 167.4 L174.9 167.7 L174.7 167.9 L174.5 168.1 L174.3 168.3 L174.1 168.6 L173.9 168.8 L173.7 169 L173.5 169.2 L173.3 169.4 L173.1 169.6 L172.8 169.9 L172.6 170.1 L172.4 170.3 L172.2 170.5 L172 170.7 L171.8 170.9 L171.6 171.2 L171.4 171.4 L171.2 171.6 L170.9 171.8 L170.7 172 L170.5 172.2 L170.3 172.4 L170.1 172.6 L169.9 172.8 L169.6 173.1 L169.4 173.3 L169.2 173.5 L169 173.7 L168.8 173.9 L168.6 174.1 L168.3 174.3 L168.1 174.5 L167.9 174.7 L167.7 174.9 L167.4 175.1 L167.2 175.3 L167 175.5 L166.8 175.7 L166.5 175.9 L166.3 176.1 L166.1 176.3 L165.9 176.5 L165.6 176.7 L165.4 176.9 L165.2 177.1 L164.9 177.3 L164.7 177.5 L164.5 177.7 L164.2 177.9 L164 178 L163.8 178.2 L163.5 178.4 L163.3 178.6 L163.1 178.8 L162.8 179 L162.6 179.2 L162.4 179.4 L162.1 179.6 L161.9 179.7 L161.6 179.9 L161.4 180.1 L161.2 180.3 L160.9 180.5 L160.7 180.7 L160.4 180.8 L160.2 181 L160 181.2 L159.7 181.4 L159.5 181.6 L159.2 181.7 L159 181.9 L158.7 182.1 L158.5 182.3 L158.3 182.4 L158 182.6 L157.8 182.8 L157.5 183 L157.3 183.1 L157 183.3 L156.8 183.5 L156.5 183.6 L156.3 183.8 L156 184 L155.8 184.1 L155.5 184.3 L155.3 184.5 L155 184.6 L154.7 184.8 L154.5 185 L154.2 185.1 L154 185.3 L153.7 185.5 L153.5 185.6 L153.2 185.8 L153 185.9 L152.7 186.1 L152.4 186.2 L152.2 186.4 L151.9 186.6 L151.7 186.7 L151.4 186.9 L151.1 187 L150.9 187.2 L150.6 187.3 L150.4 187.5 L150.1 187.6 L149.8 187.8 L149.6 187.9 L149.3 188.1 L149 188.2 L148.8 188.4 L148.5 188.5 L148.2 188.7 L148 188.8 L147.7 189 L147.4 189.1 L147.2 189.2 L146.9 189.4 L146.6 189.5 L146.4 189.7 L146.1 189.8 L145.8 189.9 L145.5 190.1 L145.3 190.2 
		  L145 190.3 L144.7 190.5 L144.5 190.6 L144.2 190.8 L143.9 190.9 L143.6 191 L143.4 191.1 L143.1 191.3 L142.8 191.4 L142.5 191.5 L142.3 191.7 L142 191.8 L141.7 191.9 L141.4 192 L141.1 192.2 L140.9 192.3 L140.6 192.4 L140.3 192.5 L140 192.7 L139.7 192.8 L139.5 192.9 L139.2 193 L138.9 193.1 L138.6 193.2 L138.3 193.4 L138 193.5 L137.8 193.6 L137.5 193.7 L137.2 193.8 L136.9 193.9 L136.6 194 L136.3 194.2 L136.1 194.3 L135.8 194.4 L135.5 194.5 L135.2 194.6 L134.9 194.7 L134.6 194.8 L134.3 194.9 L134 195 L133.7 195.1 L133.5 195.2 L133.2 195.3 L132.9 195.4 L132.6 195.5 L132.3 195.6 L132 195.7 L131.7 195.8 L131.4 195.9 L131.1 196 L130.8 196.1 L130.5 196.2 L130.2 196.3 L129.9 196.4 L129.6 196.5 L129.4 196.5 L129.1 196.6 L128.8 196.7 L128.5 196.8 L128.2 196.9 L127.9 197 L127.6 197.1 L127.3 197.1 L127 197.2 L126.7 197.3 L126.4 197.4 L126.1 197.5 L125.8 197.5 L125.5 197.6 L125.2 197.7 L124.9 197.8 L124.6 197.9 L124.3 197.9 L124 198 L123.7 198.1 L123.4 198.1 L123.1 198.2 L122.8 198.3 L122.4 198.4 L122.1 198.4 L121.8 198.5 L121.5 198.6 L121.2 198.6 L120.9 198.7 L120.6 198.7 L120.3 198.8 L120 198.9 L119.7 198.9 L119.4 199 L119.1 199.1 L118.8 199.1 L118.5 199.2 L118.2 199.2 L117.8 199.3 L117.5 199.3 L117.2 199.4 L116.9 199.4 L116.6 199.5 L116.3 199.5 L116 199.6 L115.7 199.6 L115.4 199.7 L115.1 199.7 L114.7 199.8 L114.4 199.8 L114.1 199.9 L113.8 199.9 L113.5 199.9 L113.2 200 L112.9 200 L112.5 200.1 L112.2 200.1 L111.9 200.1 L111.6 200.2 L111.3 200.2 L111 200.2 L110.7 200.3 L110.3 200.3 L110 200.3 L109.7 200.4 L109.4 200.4 L109.1 200.4 L108.8 200.4 L108.4 200.5 L108.1 200.5 L107.8 200.5 L107.5 200.5 L107.2 200.6 L106.8 200.6 L106.5 200.6 L106.2 200.6 L105.9 200.6 L105.6 200.7 L105.2 200.7 L104.9 200.7 L104.6 200.7 L104.3 200.7 L104 200.7 L103.6 200.7 L103.3 200.7 L103 200.8 L102.7 200.8 L102.3 200.8 L102 200.8 L101.7 200.8 L101.4 200.8 L101 200.8 L100.7 200.8 L100.4 200.8 L100.1 200.8 L99.7 200.8 L99.4 200.8 L99.1 200.8 L98.8 200.8 L98.5 200.8 L98.1 200.8 L97.8 200.8 L97.5 200.7 L97.2 200.7 L96.8 200.7 L96.5 200.7 L96.2 200.7 L95.9 200.7 L95.6 200.7 L95.2 200.7 L94.9 200.6 L94.6 200.6 L94.3 200.6 L94 200.6 L93.6 200.6 L93.3 200.5 L93 200.5 L92.7 200.5 L92.4 200.5 L92 200.4 L91.7 200.4 L91.4 200.4 L91.1 200.4 L90.8 200.3 L90.5 200.3 L90.1 200.3 L89.8 200.2 L89.5 200.2 L89.2 200.2 L88.9 200.1 L88.6 200.1 L88.2 200.1 L87.9 200 L87.6 200 L87.3 199.9 L87 199.9 L86.7 199.9 L86.4 199.8 L86.1 199.8 L85.7 199.7 L85.4 199.7 L85.1 199.6 L84.8 199.6 L84.5 199.5 L84.2 199.5 L83.9 199.4 L83.6 199.4 L83.3 199.3 L82.9 199.3 L82.6 199.2 L82.3 199.2 L82 199.1 L81.7 199.1 L81.4 199 L81.1 198.9 L80.8 198.9 L80.5 198.8 L80.2 198.7 L79.9 198.7 L79.6 198.6 L79.3 198.6 L79 198.5 L78.6 198.4 L78.3 198.4 L78 198.3 L77.7 198.2 L77.4 198.1 L77.1 198.1 L76.8 198 L76.5 197.9 L76.2 197.9 L75.9 197.8 L75.6 197.7 L75.3 197.6 L75 197.5 L74.7 197.5 L74.4 197.4 L74.1 197.3 L73.8 197.2 L73.5 197.1 L73.2 197.1 L72.9 197 L72.6 196.9 L72.3 196.8 L72 196.7 L71.7 196.6 L71.4 196.5 L71.1 196.5 L70.9 196.4 L70.6 196.3 L70.3 196.2 L70 196.1 L69.7 196 L69.4 195.9 L69.1 195.8 L68.8 195.7 L68.5 195.6 L68.2 195.5 L67.9 195.4 L67.6 195.3 L67.3 195.2 L67 195.1 L66.8 195 L66.5 194.9 L66.2 194.8 L65.9 194.7 L65.6 194.6 L65.3 194.5 L65 194.4 L64.7 194.3 L64.5 194.2 L64.2 194 L63.9 193.9 L63.6 193.8 L63.3 193.7 L63 193.6 L62.7 193.5 L62.5 193.4 L62.2 193.2 L61.9 193.1 L61.6 193 L61.3 192.9 L61.1 192.8 L60.8 192.7 L60.5 192.5 L60.2 192.4 L59.9 192.3 L59.7 192.2 L59.4 192 L59.1 191.9 L58.8 191.8 L58.5 191.7 L58.3 191.5 L58 191.4 L57.7 191.3 L57.4 191.1 L57.2 191 L56.9 190.9 L56.6 190.8 L56.3 190.6 L56.1 190.5 L55.8 190.3 L55.5 190.2 L55.3 190.1 L55 189.9 L54.7 189.8 L54.4 189.7 L54.2 189.5 L53.9 189.4 L53.6 189.2 L53.4 189.1 L53.1 189 L52.8 188.8 L52.6 188.7 L52.3 188.5 L52 188.4 L51.8 188.2 L51.5 188.1 L51.2 187.9 L51 187.8 L50.7 187.6 L50.4 187.5 L50.2 187.3 L49.9 187.2 L49.7 187 L49.4 186.9 L49.1 186.7 L48.9 186.6 L48.6 186.4 L48.4 186.2 L48.1 186.1 L47.8 185.9 L47.6 185.8 L47.3 185.6 L47.1 185.5 L46.8 185.3 L46.6 185.1 L46.3 185 L46 184.8 L45.8 184.6 L45.5 184.5 L45.3 184.3 L45 184.1 L44.8 184 L44.5 183.8 L44.3 183.6 L44 183.5 L43.8 183.3 L43.5 183.1 L43.3 183 L43 182.8 L42.8 182.6 L42.5 182.4 L42.3 182.3 L42 182.1 L41.8 181.9 L41.6 181.7 L41.3 181.6 L41.1 181.4 L40.8 181.2 L40.6 181 L40.3 180.8 L40.1 180.7 L39.9 180.5 L39.6 180.3 L39.4 180.1 L39.1 179.9 L38.9 179.7 L38.7 179.6 L38.4 179.4 L38.2 179.2 L38 179 L37.7 178.8 L37.5 178.6 L37.3 178.4 L37 178.2 L36.8 178 L36.6 177.9 L36.3 177.7 L36.1 177.5 L35.9 177.3 L35.6 177.1 L35.4 176.9 L35.2 176.7 L34.9 176.5 L34.7 176.3 L34.5 176.1 L34.3 175.9 L34 175.7 L33.8 175.5 L33.6 175.3 L33.4 175.1 L33.1 174.9 L32.9 174.7 L32.7 174.5 L32.5 174.3 L32.2 174.1 L32 173.9 L31.8 173.7 L31.6 173.5 L31.4 173.3 L31.1 173.1 L30.9 172.8 L30.7 172.6 L30.5 172.4 L30.3 172.2 L30.1 172 L29.8 171.8 L29.6 171.6 L29.4 171.4 L29.2 171.2 L29 170.9 L28.8 170.7 L28.6 170.5 L28.4 170.3 L28.2 170.1 L27.9 169.9 L27.7 169.6 L27.5 169.4 L27.3 169.2 L27.1 169 L26.9 168.8 L26.7 168.6 L26.5 168.3 L26.3 168.1 L26.1 167.9 L25.9 167.7 L25.7 167.4 L25.5 167.2 L25.3 167 L25.1 166.8 L24.9 166.5 L24.7 166.3 L24.5 166.1 L24.3 165.9 L24.1 165.6 L23.9 165.4 L23.7 165.2 L23.5 164.9 L23.3 164.7 L23.1 164.5 L22.9 164.2 L22.7 164 L22.6 163.8 L22.4 163.5 L22.2 163.3 L22 163.1 L21.8 162.8 L21.6 162.6 L21.4 162.4 L21.2 162.1 L21.1 161.9 L20.9 161.6 L20.7 161.4 L20.5 161.2 L20.3 160.9 L20.1 160.7 L20 160.4 L19.8 160.2 L19.6 160 L19.4 159.7 L19.2 159.5 L19.1 159.2 L18.9 159 L18.7 158.7 L18.5 158.5 L18.4 158.3 L18.2 158 L18 157.8 L17.8 157.5 L17.7 157.3 L17.5 157 L17.3 156.8 L17.2 156.5 L17 156.3 L16.8 156 L16.7 155.8 L16.5 155.5 L16.3 155.3 L16.2 155 L16 154.7 L15.8 154.5 L15.7 154.2 L15.5 154 L15.3 153.7 L15.2 153.5 L15 153.2 L14.9 153 L14.7 152.7 L14.5 152.4 L14.4 152.2 L14.2 151.9 L14.1 151.7 L13.9 151.4 L13.8 151.1 L13.6 150.9 L13.5 150.6 L13.3 150.4 L13.2 150.1 L13 149.8 L12.9 149.6 L12.7 149.3 L12.6 149 L12.4 148.8 L12.3 148.5 L12.1 148.2 L12 148 L11.8 147.7 L11.7 147.4 L11.6 147.2 L11.4 146.9 L11.3 146.6 L11.1 146.4 L11 146.1 L10.9 145.8 L10.7 145.5 L10.6 145.3 L10.4 145 L10.3 144.7 L10.2 144.5 L10 144.2 L9.9 143.9 L9.8 143.6 L9.6 143.4 L9.5 143.1 L9.4 142.8 L9.3 142.5 L9.1 142.3 L9 142 L8.9 141.7 L8.8 141.4 L8.6 141.1 L8.5 140.9 L8.4 140.6 L8.3 140.3 L8.1 140 L8 139.7 L7.9 139.5 L7.8 139.2 L7.7 138.9 L7.5 138.6 L7.4 138.3 L7.3 138 L7.2 137.8 L7.1 137.5 L7 137.2 L6.9 136.9 L6.7 136.6 L6.6 136.3 L6.5 136 L6.4 135.8 L6.3 135.5 L6.2 135.2 L6.1 134.9 L6 134.6 L5.9 134.3 L5.8 134 L5.7 133.7 L5.6 133.5 L5.5 133.2 L5.4 132.9 L5.3 132.6 L5.2 132.3 L5.1 132 L5 131.7 L4.9 131.4 L4.8 131.1 L4.7 130.8 L4.6 130.5 L4.5 130.2 L4.4 129.9 L4.3 129.6 L4.2 129.4 L4.2 129.1 L4.1 128.8 L4 128.5 L3.9 128.2 L3.8 127.9 L3.7 127.6 L3.6 127.3 L3.6 127 L3.5 126.7 L3.4 126.4 L3.3 126.1 L3.2 125.8 L3.2 125.5 L3.1 125.2 L3 124.9 L2.9 124.6 L2.9 124.3 L2.8 124 L2.7 123.7 L2.6 123.4 L2.6 123.1 L2.5 122.8 L2.4 122.4 L2.4 122.1 L2.3 121.8 L2.2 121.5 L2.2 121.2 L2.1 120.9 L2 120.6 L2 120.3 L1.9 120 L1.9 119.7 L1.8 119.4 L1.7 119.1 L1.7 118.8 L1.6 118.5 L1.6 118.2 L1.5 117.8 L1.5 117.5 L1.4 117.2 L1.4 116.9 L1.3 116.6 L1.3 116.3 L1.2 116 L1.2 115.7 L1.1 115.4 L1.1 115.1 L1 114.7 L1 114.4 L0.9 114.1 L0.9 113.8 L0.8 113.5 L0.8 113.2 L0.8 112.9 L0.7 112.5 L0.7 112.2 L0.7 111.9 L0.6 111.6 L0.6 111.3 L0.6 111 
		  L0.5 110.7 L0.5 110.3 L0.5 110 L0.4 109.7 L0.4 109.4 L0.4 109.1 L0.3 108.8 L0.3 108.4 L0.3 108.1 L0.3 107.8 L0.2 107.5 L0.2 107.2 L0.2 106.8 L0.2 106.5 L0.2 106.2 L0.1 105.9 L0.1 105.6 L0.1 105.2 L0.1 104.9 L0.1 104.6 L0.1 104.3 L0.1 104 L0.1 103.6 L0 103.3 L0 103 L0 102.7 L0 102.3 L0 102 L0 101.7 L0 101.4 L0 101 L0 100.7 L0 100.4 L0 100.1 L0 99.7 L0 99.4 L0 99.1 L0 98.8 L0 98.5 L0 98.1 L0 97.8 L0 97.5 L0.1 97.2 L0.1 96.8 L0.1 96.5 L0.1 96.2 L0.1 95.9 L0.1 95.6 L0.1 95.2 L0.1 94.9 L0.2 94.6 L0.2 94.3 L0.2 94 L0.2 93.6 L0.2 93.3 L0.3 93 L0.3 92.7 L0.3 92.4 L0.3 92 L0.4 91.7 L0.4 91.4 L0.4 91.1 L0.5 90.8 L0.5 90.5 L0.5 90.1 L0.6 89.8 L0.6 89.5 L0.6 89.2 L0.7 88.9 L0.7 88.6 L0.7 88.2 L0.8 87.9 L0.8 87.6 L0.8 87.3 L0.9 87 L0.9 86.7 L1 86.4 L1 86.1 L1.1 85.7 L1.1 85.4 L1.2 85.1 L1.2 84.8 L1.3 84.5 L1.3 84.2 L1.4 83.9 L1.4 83.6 L1.5 83.3 L1.5 82.9 L1.6 82.6 L1.6 82.3 L1.7 82 L1.7 81.7 L1.8 81.4 L1.9 81.1 L1.9 80.8 L2 80.5 L2 80.2 L2.1 79.9 L2.2 79.6 L2.2 79.3 L2.3 79 L2.4 78.6 L2.4 78.3 L2.5 78 L2.6 77.7 L2.6 77.4 L2.7 77.1 L2.8 76.8 L2.9 76.5 L2.9 76.2 L3 75.9 L3.1 75.6 L3.2 75.3 L3.2 75 L3.3 74.7 L3.4 74.4 L3.5 74.1 L3.6 73.8 L3.6 73.5 L3.7 73.2 L3.8 72.9 L3.9 72.6 L4 72.3 L4.1 72 L4.2 71.7 L4.2 71.4 L4.3 71.1 L4.4 70.9 L4.5 70.6 L4.6 70.3 L4.7 70 L4.8 69.7 L4.9 69.4 L5 69.1 L5.1 68.8 L5.2 68.5 L5.3 68.2 L5.4 67.9 L5.5 67.6 L5.6 67.3 L5.7 67 L5.8 66.8 L5.9 66.5 L6 66.2 L6.1 65.9 L6.2 65.6 L6.3 65.3 L6.4 65 L6.5 64.7 L6.6 64.5 L6.7 64.2 L6.9 63.9 L7 63.6 L7.1 63.3 L7.2 63 L7.3 62.7 L7.4 62.5 L7.5 62.2 L7.7 61.9 L7.8 61.6 L7.9 61.3 L8 61.1 L8.1 60.8 L8.3 60.5 L8.4 60.2 L8.5 59.9 L8.6 59.7 L8.8 59.4 L8.9 59.1 L9 58.8 L9.1 58.5 L9.3 58.3 L9.4 58 L9.5 57.7 L9.6 57.4 L9.8 57.2 L9.9 56.9 L10 56.6 L10.2 56.3 L10.3 56.1 L10.4 55.8 L10.6 55.5 L10.7 55.2 L10.9 55 L11 54.7 L11.1 54.4 L11.3 54.2 L11.4 53.9 L11.6 53.6 L11.7 53.4 L11.8 53.1 L12 52.8 L12.1 52.6 L12.3 52.3 L12.4 52 L12.6 51.8 L12.7 51.5 L12.9 51.2 L13 51 L13.2 50.7 L13.3 50.4 L13.5 50.2 L13.6 49.9 L13.8 49.7 L13.9 49.4 L14.1 49.1 L14.2 48.9 L14.4 48.6 L14.5 48.4 L14.7 48.1 L14.9 47.8 L15 47.6 L15.2 47.3 L15.3 47.1 L15.5 46.8 L15.7 46.6 L15.8 46.3 L16 46 L16.2 45.8 L16.3 45.5 L16.5 45.3 L16.7 45 L16.8 44.8 L17 44.5 L17.2 44.3 L17.3 44 L17.5 43.8 L17.7 43.5 L17.8 43.3 L18 43 L18.2 42.8 L18.4 42.5 L18.5 42.3 L18.7 42 L18.9 41.8 L19.1 41.6 L19.2 41.3 L19.4 41.1 L19.6 40.8 L19.8 40.6 L20 40.3 L20.1 40.1 L20.3 39.9 L20.5 39.6 L20.7 39.4 L20.9 39.1 L21.1 38.9 L21.2 38.7 L21.4 38.4 L21.6 38.2 L21.8 38 L22 37.7 L22.2 37.5 L22.4 37.3 L22.6 37 L22.7 36.8 L22.9 36.6 L23.1 36.3 L23.3 36.1 L23.5 35.9 L23.7 35.6 L23.9 35.4 L24.1 35.2 L24.3 34.9 L24.5 34.7 L24.7 34.5 L24.9 34.3 L25.1 34 L25.3 33.8 L25.5 33.6 L25.7 33.4 L25.9 33.1 L26.1 32.9 L26.3 32.7 L26.5 32.5 L26.7 32.2 L26.9 32 L27.1 31.8 L27.3 31.6 L27.5 31.4 L27.7 31.1 L27.9 30.9 L28.2 30.7 L28.4 30.5 L28.6 30.3 L28.8 30.1 L29 29.8 L29.2 29.6 L29.4 29.4 L29.6 29.2 L29.8 29 L30.1 28.8 L30.3 28.6 L30.5 28.4 L30.7 28.2 L30.9 27.9 L31.1 27.7 L31.4 27.5 L31.6 27.3 L31.8 27.1 L32 26.9 L32.2 26.7 
		  L32.5 26.5 L32.7 26.3 L32.9 26.1 L33.1 25.9 L33.4 25.7 L33.6 25.5 L33.8 25.3 L34 25.1 L34.3 24.9 L34.5 24.7 L34.7 24.5 L34.9 24.3 L35.2 24.1 L35.4 23.9 L35.6 23.7 L35.9 23.5 L36.1 23.3 L36.3 23.1 L36.6 22.9 L36.8 22.7 L37 22.6 L37.3 22.4 L37.5 22.2 L37.7 22 L38 21.8 L38.2 21.6 L38.4 21.4 L38.7 21.2 L38.9 21.1 L39.1 20.9 L39.4 20.7 L39.6 20.5 L39.9 20.3 L40.1 20.1 L40.3 20 L40.6 19.8 L40.8 19.6 L41.1 19.4 L41.3 19.2 L41.6 19.1 L41.8 18.9 L42 18.7 L42.3 18.5 L42.5 18.4 L42.8 18.2 L43 18 L43.3 17.8 L43.5 17.7 L43.8 17.5 L44 17.3 L44.3 17.2 L44.5 17 L44.8 16.8 L45 16.7 L45.3 16.5 L45.5 16.3 L45.8 16.2 L46 16 L46.3 15.8 L46.6 15.7 L46.8 15.5 L47.1 15.3 L47.3 15.2 L47.6 15 L47.8 14.9 L48.1 14.7 L48.4 14.5 L48.6 14.4 L48.9 14.2 L49.1 14.1 L49.4 13.9 L49.7 13.8 L49.9 13.6 L50.2 13.5 L50.4 13.3 L50.7 13.2 L51 13 L51.2 12.9 L51.5 12.7 L51.8 12.6 L52 12.4 L52.3 12.3 L52.6 12.1 L52.8 12 L53.1 11.8 L53.4 11.7 L53.6 11.6 L53.9 11.4 L54.2 11.3 L54.4 11.1 L54.7 11 L55 10.9 L55.3 10.7 L55.5 10.6 L55.8 10.4 L56.1 10.3 L56.3 10.2 L56.6 10 L56.9 9.9 L57.2 9.8 L57.4 9.6 L57.7 9.5 L58 9.4 L58.3 9.3 L58.5 9.1 L58.8 9 L59.1 8.9 L59.4 8.8 L59.7 8.6 L59.9 8.5 L60.2 8.4 L60.5 8.3 L60.8 8.1 L61.1 8 L61.3 7.9 L61.6 7.8 L61.9 7.7 L62.2 7.5 L62.5 7.4 L62.7 7.3 L63 7.2 L63.3 7.1 L63.6 7 L63.9 6.9 L64.2 6.7 L64.5 6.6 L64.7 6.5 L65 6.4 L65.3 6.3 L65.6 6.2 L65.9 6.1 L66.2 6 L66.5 5.9 L66.8 5.8 L67 5.7 L67.3 5.6 L67.6 5.5 L67.9 5.4 L68.2 5.3 L68.5 5.2 L68.8 5.1 L69.1 5 L69.4 4.9 L69.7 4.8 L70 4.7 L70.3 4.6 L70.6 4.5 L70.9 4.4 L71.1 4.3 L71.4 4.2 L71.7 4.2 L72 4.1 L72.3 4 L72.6 3.9 L72.9 3.8 L73.2 3.7 L73.5 3.6 L73.8 3.6 L74.1 3.5 L74.4 3.4 L74.7 3.3 L75 3.2 L75.3 3.2 L75.6 3.1 L75.9 3 L76.2 2.9 L76.5 2.9 L76.8 2.8 L77.1 2.7 L77.4 2.6 L77.7 2.6 L78 2.5 L78.3 2.4 L78.6 2.4 L79 2.3 L79.3 2.2 L79.6 2.2 L79.9 2.1 L80.2 2 L80.5 2 L80.8 1.9 L81.1 1.9 L81.4 1.8 L81.7 1.7 L82 1.7 L82.3 1.6 L82.6 1.6 L82.9 1.5 L83.3 1.5 L83.6 1.4 L83.9 1.4 L84.2 1.3 L84.5 1.3 L84.8 1.2 L85.1 1.2 L85.4 1.1 L85.7 1.1 L86.1 1 L86.4 1 L86.7 0.9 L87 0.9 L87.3 0.8 L87.6 0.8 L87.9 0.8 L88.2 0.7 L88.6 0.7 L88.9 0.7 L89.2 0.6 L89.5 0.6 L89.8 0.6 L90.1 0.5 L90.5 0.5 L90.8 0.5 L91.1 0.4 L91.4 0.4 L91.7 0.4 L92 0.3 L92.4 0.3 L92.7 0.3 L93 0.3 L93.3 0.2 L93.6 0.2 L94 0.2 L94.3 0.2 L94.6 0.2 L94.9 0.1 L95.2 0.1 L95.6 0.1 L95.9 0.1 L96.2 0.1 L96.5 0.1 L96.8 0.1 L97.2 0.1 L97.5 0 L97.8 0 L98.1 0 L98.5 0 L98.8 0 L99.1 0 L99.4 0 L99.7 0 L100.1 0 L100.4 0 L100.7 0 z M100.1 2.5 L99.8 2.5 L99.4 2.5 L99.1 2.5 L98.8 2.5 L98.5 2.5 L98.2 2.5 L97.9 2.5 L97.6 2.5 L97.2 2.6 L96.9 2.6 L96.6 2.6 L96.3 2.6 L96 2.6 L95.7 2.6 L95.4 2.6 L95 2.6 L94.7 2.7 L94.4 2.7 L94.1 2.7 L93.8 2.7 L93.5 2.7 L93.2 2.8 L92.9 2.8 L92.6 2.8 L92.2 2.8 L91.9 2.9 L91.6 2.9 L91.3 2.9 L91 2.9 L90.7 3 L90.4 3 L90.1 3 L89.8 3.1 L89.5 3.1 L89.2 3.1 L88.9 3.2 L88.5 3.2 L88.2 3.3 L87.9 3.3 L87.6 3.3 L87.3 3.4 L87 3.4 L86.7 3.5 L86.4 3.5 L86.1 3.5 L85.8 3.6 L85.5 3.6 L85.2 3.7 L84.9 3.7 L84.6 3.8 L84.3 3.8 L84 3.9 L83.7 3.9 L83.4 4 L83.1 4 L82.8 4.1 L82.5 4.1 L82.2 4.2 L81.9 4.3 L81.6 4.3 L81.3 4.4 
		  L81 4.4 L80.7 4.5 L80.4 4.6 L80.1 4.6 L79.8 4.7 L79.5 4.7 L79.2 4.8 L78.9 4.9 L78.6 4.9 L78.3 5 L78 5.1 L77.7 5.1 L77.4 5.2 L77.1 5.3 L76.8 5.4 L76.5 5.4 L76.2 5.5 L75.9 5.6 L75.6 5.7 L75.4 5.7 L75.1 5.8 L74.8 5.9 L74.5 6 L74.2 6.1 L73.9 6.1 L73.6 6.2 L73.3 6.3 L73 6.4 L72.7 6.5 L72.5 6.6 L72.2 6.6 L71.9 6.7 L71.6 6.8 L71.3 6.9 L71 7 L70.7 7.1 L70.4 7.2 L70.2 7.3 L69.9 7.4 L69.6 7.5 L69.3 7.6 L69 7.6 L68.7 7.7 L68.4 7.8 L68.2 7.9 L67.9 8 L67.6 8.1 L67.3 8.2 L67 8.3 L66.8 8.4 L66.5 8.5 L66.2 8.7 L65.9 8.8 L65.6 8.9 L65.4 9 L65.1 9.1 L64.8 9.2 L64.5 9.3 L64.2 9.4 L64 9.5 L63.7 9.6 L63.4 9.7 L63.1 9.9 L62.9 10 L62.6 10.1 L62.3 10.2 L62 10.3 L61.8 10.4 L61.5 10.6 L61.2 10.7 L60.9 10.8 L60.7 10.9 L60.4 11 L60.1 11.2 L59.9 11.3 L59.6 11.4 L59.3 11.5 L59 11.7 L58.8 11.8 L58.5 11.9 L58.2 12 L58 12.2 L57.7 12.3 L57.4 12.4 L57.2 12.6 L56.9 12.7 L56.6 12.8 L56.4 12.9 L56.1 13.1 L55.8 13.2 L55.6 13.4 L55.3 13.5 L55.1 13.6 L54.8 13.8 L54.5 13.9 L54.3 14 L54 14.2 L53.8 14.3 L53.5 14.5 L53.2 14.6 L53 14.8 L52.7 14.9 L52.5 15 L52.2 15.2 L51.9 15.3 L51.7 15.5 L51.4 15.6 L51.2 15.8 L50.9 15.9 L50.7 16.1 L50.4 16.2 L50.2 16.4 L49.9 16.5 L49.7 16.7 L49.4 16.8 L49.1 17 L48.9 17.1 L48.6 17.3 L48.4 17.5 L48.1 17.6 L47.9 17.8 L47.7 17.9 L47.4 18.1 L47.2 18.3 L46.9 18.4 L46.7 18.6 L46.4 18.7 L46.2 18.9 L45.9 19.1 L45.7 19.2 L45.4 19.4 L45.2 19.6 L45 19.7 L44.7 19.9 L44.5 20.1 L44.2 20.2 L44 20.4 L43.7 20.6 L43.5 20.7 L43.3 20.9 L43 21.1 L42.8 21.3 L42.6 21.4 L42.3 21.6 L42.1 21.8 L41.8 22 L41.6 22.1 L41.4 22.3 L41.1 22.5 L40.9 22.7 L40.7 22.8 L40.4 23 L40.2 23.2 L40 23.4 L39.7 23.6 L39.5 23.8 L39.3 23.9 L39.1 24.1 L38.8 24.3 L38.6 24.5 L38.4 24.7 L38.1 24.9 L37.9 25.1 L37.7 25.2 L37.5 25.4 L37.2 25.6 L37 25.8 L36.8 26 L36.6 26.2 L36.3 26.4 L36.1 26.6 L35.9 26.8 L35.7 27 L35.5 27.2 L35.2 27.4 L35 27.6 L34.8 27.7 L34.6 27.9 L34.4 28.1 L34.2 28.3 L33.9 28.5 L33.7 28.7 L33.5 28.9 L33.3 29.1 L33.1 29.3 L32.9 29.5 L32.7 29.8 L32.4 30 L32.2 30.2 L32 30.4 L31.8 30.6 L31.6 30.8 L31.4 31 L31.2 31.2 L31 31.4 L30.8 31.6 L30.6 31.8 L30.4 32 L30.2 32.2 L30 32.4 L29.8 32.7 L29.5 32.9 L29.3 33.1 L29.1 33.3 L28.9 33.5 L28.7 33.7 L28.5 33.9 L28.3 34.2 L28.1 34.4 L27.9 34.6 L27.7 34.8 L27.6 35 L27.4 35.2 L27.2 35.5 L27 35.7 L26.8 35.9 L26.6 36.1 L26.4 36.3 L26.2 36.6 L26 36.8 L25.8 37 L25.6 37.2 L25.4 37.5 L25.2 37.7 L25.1 37.9 L24.9 38.1 L24.7 38.4 L24.5 38.6 L24.3 38.8 L24.1 39.1 L23.9 39.3 L23.8 39.5 L23.6 39.7 L23.4 40 L23.2 40.2 L23 40.4 L22.8 40.7 L22.7 40.9 L22.5 41.1 L22.3 41.4 L22.1 41.6 L22 41.8 L21.8 42.1 L21.6 42.3 L21.4 42.6 L21.3 42.8 L21.1 43 L20.9 43.3 L20.7 43.5 L20.6 43.7 L20.4 44 L20.2 44.2 L20.1 44.5 L19.9 44.7 L19.7 45 L19.6 45.2 L19.4 45.4 L19.2 45.7 L19.1 45.9 L18.9 46.2 L18.7 46.4 L18.6 46.7 L18.4 46.9 L18.3 47.2 L18.1 47.4 L17.9 47.7 L17.8 47.9 L17.6 48.1 L17.5 48.4 L17.3 48.6 L17.1 48.9 L17 49.2 L16.8 49.4 L16.7 49.7 L16.5 49.9 L16.4 50.2 L16.2 50.4 L16.1 50.7 L15.9 50.9 L15.8 51.2 L15.6 51.4 L15.5 51.7 L15.3 51.9 L15.2 52.2 L15 52.5 L14.9 52.7 L14.8 53 L14.6 53.2 L14.5 53.5 L14.3 53.8 L14.2 54 L14 54.3 L13.9 54.5 L13.8 54.8 L13.6 55.1 L13.5 55.3 L13.4 55.6 L13.2 55.8 L13.1 56.1 L12.9 56.4 L12.8 56.6 L12.7 56.9 L12.6 57.2 L12.4 57.4 L12.3 57.7 L12.2 58 L12 58.2 L11.9 58.5 L11.8 58.8 L11.7 59 L11.5 59.3 L11.4 59.6 L11.3 59.9 L11.2 60.1 L11 60.4 L10.9 60.7 L10.8 60.9 L10.7 61.2 L10.6 61.5 L10.4 61.8 L10.3 62 L10.2 62.3 L10.1 62.6 L10 62.9 L9.9 63.1 L9.7 63.4 L9.6 63.7 L9.5 64 L9.4 64.2 L9.3 64.5 L9.2 64.8 L9.1 65.1 L9 65.4 L8.9 65.6 L8.8 65.9 L8.7 66.2 L8.5 66.5 L8.4 66.8 L8.3 67 L8.2 67.3 L8.1 67.6 L8 67.9 L7.9 68.2 L7.8 68.4 L7.7 68.7 L7.6 69 L7.6 69.3 L7.5 69.6 L7.4 69.9 L7.3 70.2 L7.2 70.4 L7.1 70.7 L7 71 L6.9 71.3 L6.8 71.6 L6.7 71.9 L6.6 72.2 L6.6 72.5 L6.5 72.7 L6.4 73 L6.3 73.3 L6.2 73.6 L6.1 73.9 L6.1 74.2 L6 74.5 L5.9 74.8 L5.8 75.1 L5.7 75.4 L5.7 75.6 L5.6 75.9 L5.5 76.2 L5.4 76.5 L5.4 76.8 L5.3 77.1 L5.2 77.4 L5.1 77.7 L5.1 78 L5 78.3 L4.9 78.6 L4.9 78.9 L4.8 79.2 L4.7 79.5 L4.7 79.8 L4.6 80.1 L4.6 80.4 L4.5 80.7 L4.4 81 L4.4 81.3 L4.3 81.6 L4.3 81.9 L4.2 82.2 L4.1 82.5 L4.1 82.8 L4 83.1 L4 83.4 L3.9 83.7 L3.9 84 L3.8 84.3 L3.8 84.6 L3.7 84.9 L3.7 85.2 L3.6 85.5 L3.6 85.8 L3.5 86.1 L3.5 86.4 L3.5 86.7 L3.4 87 L3.4 87.3 L3.3 87.6 L3.3 87.9 L3.3 88.2 L3.2 88.5 L3.2 88.9 L3.1 89.2 L3.1 89.5 L3.1 89.8 L3 90.1 L3 90.4 L3 90.7 L2.9 91 L2.9 91.3 L2.9 91.6 L2.9 91.9 L2.8 92.2 L2.8 92.6 L2.8 92.9 L2.8 93.2 L2.7 93.5 L2.7 93.8 L2.7 94.1 L2.7 94.4 L2.7 94.7 L2.6 95 L2.6 95.4 L2.6 95.7 L2.6 96 L2.6 96.3 L2.6 96.6 L2.6 96.9 L2.6 97.2 L2.5 97.6 L2.5 97.9 L2.5 98.2 L2.5 98.5 L2.5 98.8 L2.5 99.1 L2.5 99.4 L2.5 99.8 L2.5 100.1 L2.5 100.4 L2.5 100.7 L2.5 101 L2.5 101.3 L2.5 101.7 L2.5 102 L2.5 102.3 L2.5 102.6 L2.5 102.9 L2.5 103.2 L2.6 103.6 L2.6 103.9 L2.6 104.2 L2.6 104.5 L2.6 104.8 L2.6 105.1 L2.6 105.4 L2.6 105.7 L2.7 106.1 L2.7 106.4 L2.7 106.7 L2.7 107 L2.7 107.3 L2.8 107.6 L2.8 107.9 L2.8 108.2 L2.8 108.5 L2.9 108.9 L2.9 109.2 L2.9 109.5 L2.9 109.8 L3 110.1 L3 110.4 L3 110.7 L3.1 111 L3.1 111.3 L3.1 111.6 L3.2 111.9 L3.2 112.2 L3.3 112.6 L3.3 112.9 L3.3 113.2 L3.4 113.5 L3.4 113.8 
		  L3.5 114.1 L3.5 114.4 L3.5 114.7 L3.6 115 L3.6 115.3 L3.7 115.6 L3.7 115.9 L3.8 116.2 L3.8 116.5 L3.9 116.8 L3.9 117.1 L4 117.4 L4 117.7 L4.1 118 L4.1 118.3 L4.2 118.6 L4.3 118.9 L4.3 119.2 L4.4 119.5 L4.4 119.8 L4.5 120.1 L4.6 120.4 L4.6 120.7 L4.7 121 L4.7 121.3 L4.8 121.6 L4.9 121.9 L4.9 122.2 L5 122.5 L5.1 122.8 L5.1 123.1 L5.2 123.4 L5.3 123.7 L5.4 124 L5.4 124.3 L5.5 124.6 L5.6 124.9 L5.7 125.1 L5.7 125.4 L5.8 125.7 L5.9 126 L6 126.3 L6.1 126.6 L6.1 126.9 L6.2 127.2 L6.3 127.5 L6.4 127.8 L6.5 128.1 L6.6 128.3 L6.6 128.6 L6.7 128.9 L6.8 129.2 L6.9 129.5 L7 129.8 L7.1 130.1 L7.2 130.4 L7.3 130.6 L7.4 130.9 L7.5 131.2 L7.6 131.5 L7.6 131.8 L7.7 132.1 L7.8 132.3 L7.9 132.6 L8 132.9 L8.1 133.2 L8.2 133.5 L8.3 133.8 L8.4 134 L8.5 134.3 L8.7 134.6 L8.8 134.9 L8.9 135.2 L9 135.4 L9.1 135.7 L9.2 136 L9.3 136.3 L9.4 136.6 L9.5 136.8 L9.6 137.1 L9.7 137.4 L9.9 137.7 L10 137.9 L10.1 138.2 L10.2 138.5 L10.3 138.8 L10.4 139 L10.6 139.3 L10.7 139.6 L10.8 139.9 L10.9 140.1 L11 140.4 L11.2 140.7 L11.3 140.9 L11.4 141.2 L11.5 141.5 L11.7 141.7 L11.8 142 L11.9 142.3 L12 142.6 L12.2 142.8 L12.3 143.1 L12.4 143.4 L12.6 143.6 L12.7 143.9 L12.8 144.2 L12.9 144.4 L13.1 144.7 L13.2 144.9 L13.4 145.2 L13.5 145.5 L13.6 145.7 L13.8 146 L13.9 146.3 L14 146.5 L14.2 146.8 L14.3 147 L14.5 147.3 L14.6 147.6 L14.8 147.8 L14.9 148.1 L15 148.3 L15.2 148.6 L15.3 148.8 L15.5 149.1 L15.6 149.4 L15.8 149.6 L15.9 149.9 L16.1 150.1 L16.2 150.4 L16.4 150.6 L16.5 150.9 L16.7 151.1 L16.8 151.4 L17 151.6 L17.1 151.9 L17.3 152.1 L17.5 152.4 L17.6 152.6 L17.8 152.9 L17.9 153.1 L18.1 153.4 L18.3 153.6 L18.4 153.9 L18.6 154.1 L18.7 154.4 L18.9 154.6 L19.1 154.9 L19.2 155.1 L19.4 155.4 L19.6 155.6 L19.7 155.8 L19.9 156.1 L20.1 156.3 L20.2 156.6 L20.4 156.8 L20.6 157 L20.7 157.3 L20.9 157.5 L21.1 157.8 L21.3 158 L21.4 158.2 L21.6 158.5 L21.8 158.7 L22 159 L22.1 159.2 L22.3 159.4 L22.5 159.7 L22.7 159.9 L22.8 160.1 L23 160.4 L23.2 160.6 L23.4 160.8 L23.6 161 L23.8 161.3 L23.9 161.5 L24.1 161.7 L24.3 162 L24.5 162.2 L24.7 162.4 L24.9 162.6 L25.1 162.9 L25.2 163.1 L25.4 163.3 L25.6 163.6 L25.8 163.8 L26 164 L26.2 164.2 L26.4 164.4 L26.6 164.7 L26.8 164.9 L27 165.1 L27.2 165.3 L27.4 165.5 L27.6 165.8 L27.7 166 L27.9 166.2 L28.1 166.4 L28.3 166.6 L28.5 166.9 L28.7 167.1 L28.9 167.3 L29.1 167.5 L29.3 167.7 L29.5 167.9 L29.8 168.1 L30 168.3 L30.2 168.6 L30.4 168.8 L30.6 169 L30.8 169.2 L31 169.4 L31.2 169.6 L31.4 169.8 L31.6 170 L31.8 170.2 L32 170.4 L32.2 170.6 L32.4 170.8 L32.7 171 L32.9 171.2 L33.1 171.4 L33.3 171.6 L33.5 171.9 L33.7 172.1 L33.9 172.3 L34.2 172.4 L34.4 172.6 L34.6 172.8 L34.8 173 L35 173.2 L35.2 173.4 L35.5 173.6 L35.7 173.8 L35.9 174 L36.1 174.2 L36.3 174.4 L36.6 174.6 L36.8 174.8 L37 175 L37.2 175.2 L37.5 175.4 L37.7 175.5 L37.9 175.7 L38.1 175.9 L38.4 176.1 L38.6 176.3 L38.8 176.5 L39.1 176.7 L39.3 176.9 L39.5 177 L39.7 177.2 L40 177.4 L40.2 177.6 L40.4 177.8 L40.7 177.9 L40.9 178.1 L41.1 178.3 L41.4 178.5 L41.6 178.7 L41.8 178.8 L42.1 179 L42.3 179.2 L42.6 179.4 L42.8 179.5 L43 179.7 L43.3 179.9 L43.5 180 L43.7 180.2 L44 180.4 L44.2 180.6 L44.5 180.7 L44.7 180.9 L45 181.1 L45.2 181.2 L45.4 181.4 L45.7 181.6 L45.9 181.7 L46.2 181.9 L46.4 182.1 L46.7 182.2 L46.9 182.4 L47.2 182.5 L47.4 182.7 L47.7 182.9 L47.9 183 L48.1 183.2 L48.4 183.3 L48.6 183.5 L48.9 183.6 L49.1 183.8 L49.4 184 L49.7 184.1 L49.9 184.3 L50.2 184.4 L50.4 184.6 L50.7 184.7 L50.9 184.9 L51.2 185 L51.4 185.2 L51.7 185.3 L51.9 185.5 L52.2 185.6 L52.5 185.8 L52.7 185.9 L53 186 L53.2 186.2 L53.5 186.3 L53.8 186.5 L54 186.6 L54.3 186.8 L54.5 186.9 L54.8 187 L55.1 187.2 L55.3 187.3 L55.6 187.4 L55.8 187.6 L56.1 187.7 L56.4 187.8 L56.6 188 L56.9 188.1 L57.2 188.2 L57.4 188.4 L57.7 188.5 L58 188.6 L58.2 188.8 L58.5 188.9 L58.8 189 L59 189.1 L59.3 189.3 L59.6 189.4 L59.9 189.5 L60.1 189.6 L60.4 189.8 L60.7 189.9 L60.9 190 L61.2 190.1 L61.5 190.2 L61.8 190.4 L62 190.5 L62.3 190.6 L62.6 190.7 L62.9 190.8 L63.1 190.9 L63.4 191.1 L63.7 191.2 L64 191.3 L64.2 191.4 L64.5 191.5 L64.8 191.6 L65.1 191.7 L65.4 191.8 L65.6 191.9 L65.9 192 L66.2 192.1 L66.5 192.2 L66.8 192.3 L67 192.4 L67.3 192.6 L67.6 192.7 L67.9 192.8 L68.2 192.9 L68.4 192.9 L68.7 193 L69 193.1 L69.3 193.2 L69.6 193.3 L69.9 193.4 L70.2 193.5 L70.4 193.6 L70.7 193.7 L71 193.8 L71.3 193.9 L71.6 194 L71.9 194.1 L72.2 194.2 L72.5 194.2 L72.7 194.3 L73 194.4 L73.3 194.5 L73.6 194.6 L73.9 194.7 L74.2 194.7 L74.5 194.8 L74.8 194.9 L75.1 195 L75.4 195.1 L75.6 195.1 L75.9 195.2 L76.2 195.3 L76.5 195.4 L76.8 195.4 L77.1 195.5 L77.4 195.6 L77.7 195.6 L78 195.7 L78.3 195.8 L78.6 195.8 L78.9 195.9 L79.2 196 L79.5 196 L79.8 196.1 L80.1 196.2 L80.4 196.2 L80.7 196.3 L81 196.4 L81.3 196.4 L81.6 196.5 L81.9 196.5 L82.2 196.6 L82.5 196.7 L82.8 196.7 L83.1 196.8 L83.4 196.8 L83.7 196.9 L84 196.9 L84.3 197 L84.6 197 L84.9 197.1 L85.2 197.1 L85.5 197.2 L85.8 197.2 L86.1 197.3 L86.4 197.3 L86.7 197.3 L87 197.4 L87.3 197.4 L87.6 197.5 L87.9 197.5 L88.2 197.5 L88.5 197.6 L88.9 197.6 L89.2 197.7 L89.5 197.7 L89.8 197.7 L90.1 197.8 L90.4 197.8 L90.7 197.8 L91 197.8 L91.3 197.9 L91.6 197.9 L91.9 197.9 
		  L92.2 198 L92.6 198 L92.9 198 L93.2 198 L93.5 198 L93.8 198.1 L94.1 198.1 L94.4 198.1 L94.7 198.1 L95 198.1 L95.4 198.2 L95.7 198.2 L96 198.2 L96.3 198.2 L96.6 198.2 L96.9 198.2 L97.2 198.2 L97.6 198.3 L97.9 198.3 L98.2 198.3 L98.5 198.3 L98.8 198.3 L99.1 198.3 L99.4 198.3 L99.8 198.3 L100.1 198.3 L100.4 198.3 L100.7 198.3 L101 198.3 L101.3 198.3 L101.7 198.3 L102 198.3 L102.3 198.3 L102.6 198.3 L102.9 198.3 L103.2 198.3 L103.6 198.2 L103.9 198.2 L104.2 198.2 L104.5 198.2 L104.8 198.2 L105.1 198.2 L105.4 198.2 L105.7 198.1 L106.1 198.1 L106.4 198.1 L106.7 198.1 L107 198.1 L107.3 198 L107.6 198 L107.9 198 L108.2 198 L108.5 198 L108.9 197.9 L109.2 197.9 L109.5 197.9 L109.8 197.8 L110.1 197.8 L110.4 197.8 L110.7 197.8 L111 197.7 L111.3 197.7 L111.6 197.7 L111.9 197.6 L112.2 197.6 L112.6 197.5 L112.9 197.5 L113.2 197.5 L113.5 197.4 L113.8 197.4 L114.1 197.3 L114.4 197.3 L114.7 197.3 L115 197.2 L115.3 197.2 L115.6 197.1 L115.9 197.1 L116.2 197 L116.5 197 L116.8 196.9 L117.1 196.9 L117.4 196.8 L117.7 196.8 L118 196.7 L118.3 196.7 L118.6 196.6 L118.9 196.5 L119.2 196.5 L119.5 196.4 L119.8 196.4 L120.1 196.3 L120.4 196.2 L120.7 196.2 L121 196.1 L121.3 196 L121.6 196 L121.9 195.9 L122.2 195.8 L122.5 195.8 L122.8 195.7 L123.1 195.6 L123.4 195.6 L123.7 195.5 L124 195.4 L124.3 195.4 L124.6 195.3 L124.9 195.2 L125.1 195.1 L125.4 195.1 L125.7 195 L126 194.9 L126.3 194.8 L126.6 194.7 L126.9 194.7 L127.2 194.6 L127.5 194.5 L127.8 194.4 L128.1 194.3 L128.3 194.2 L128.6 194.2 L128.9 194.1 L129.2 194 L129.5 193.9 L129.8 193.8 L130.1 193.7 L130.4 193.6 L130.6 193.5 L130.9 193.4 L131.2 193.3 L131.5 193.2 L131.8 193.1 L132.1 193 L132.3 192.9 L132.6 192.9 L132.9 192.8 L133.2 192.7 L133.5 192.6 L133.8 192.4 L134 192.3 L134.3 192.2 L134.6 192.1 L134.9 192 L135.2 191.9 L135.4 191.8 L135.7 191.7 L136 191.6 L136.3 191.5 L136.6 191.4 L136.8 191.3 L137.1 191.2 L137.4 191.1 L137.7 190.9 L137.9 190.8 L138.2 190.7 L138.5 190.6 L138.8 190.5 L139 190.4 L139.3 190.2 L139.6 190.1 L139.9 190 L140.1 189.9 L140.4 189.8 L140.7 189.6 L140.9 189.5 L141.2 189.4 L141.5 189.3 L141.7 189.1 L142 189 L142.3 188.9 L142.6 188.8 L142.8 188.6 L143.1 188.5 L143.4 188.4 L143.6 188.2 L143.9 188.1 L144.2 188 L144.4 187.8 L144.7 187.7 L144.9 187.6 L145.2 187.4 L145.5 187.3 L145.7 187.2 L146 187 L146.3 186.9 L146.5 186.8 L146.8 186.6 L147 186.5 L147.3 186.3 L147.6 186.2 L147.8 186 L148.1 185.9 L148.3 185.8 L148.6 185.6 L148.8 185.5 L149.1 185.3 L149.4 185.2 L149.6 185 L149.9 184.9 L150.1 184.7 L150.4 184.6 L150.6 184.4 L150.9 184.3 L151.1 184.1 L151.4 184 L151.6 183.8 L151.9 183.6 L152.1 183.5 L152.4 183.3 L152.6 183.2 L152.9 183 L153.1 182.9 L153.4 182.7 L153.6 182.5 L153.9 182.4 L154.1 182.2 L154.4 182.1 L154.6 181.9 L154.9 181.7 L155.1 181.6 L155.4 181.4 L155.6 181.2 L155.8 181.1 L156.1 180.9 L156.3 180.7 L156.6 180.6 L156.8 180.4 L157 180.2 L157.3 180 L157.5 179.9 L157.8 179.7 L158 179.5 L158.2 179.4 L158.5 179.2 L158.7 179 L158.9 178.8 L159.2 178.7 L159.4 178.5 L159.7 178.3 L159.9 178.1 L160.1 177.9 L160.4 177.8 L160.6 177.6 L160.8 177.4 L161 177.2 L161.3 177 L161.5 176.9 L161.7 176.7 L162 176.5 L162.2 176.3 L162.4 176.1 L162.6 175.9 L162.9 175.7 L163.1 175.5 L163.3 175.4 L163.6 175.2 L163.8 175 L164 174.8 L164.2 174.6 L164.4 174.4 L164.7 174.2 L164.9 174 L165.1 173.8 L165.3 173.6 L165.5 173.4 L165.8 173.2 L166 173 L166.2 172.8 L166.4 172.6 L166.6 172.5 L166.9 172.3 L167.1 172.1 L167.3 171.9 L167.5 171.6 L167.7 171.4 L167.9 171.2 L168.1 171 L168.3 170.8 L168.6 170.6 L168.8 170.4 L169 170.2 L169.2 170 L169.4 169.8 L169.6 169.6 L169.8 169.4 L170 169.2 L170.2 169 L170.4 168.8 L170.6 168.6 L170.8 168.3 L171 168.1 L171.2 167.9 L171.4 167.7 L171.6 167.5 L171.9 167.3 L172.1 167.1 L172.3 166.9 L172.5 166.6 L172.6 166.4 L172.8 166.2 L173 166 L173.2 165.8 L173.4 165.5 L173.6 165.3 L173.8 165.1 L174 164.9 L174.2 164.7 L174.4 164.4 L174.6 164.2 L174.8 164 L175 163.8 L175.2 163.6 L175.4 163.3 L175.5 163.1 L175.7 162.9 L175.9 162.6 L176.1 162.4 L176.3 162.2 L176.5 162 L176.7 161.7 L176.9 161.5 L177 161.3 L177.2 161 L177.4 160.8 L177.6 160.6 L177.8 160.4 L177.9 160.1 L178.1 159.9 L178.3 159.7 L178.5 159.4 L178.7 159.2 L178.8 159 L179 158.7 L179.2 158.5 L179.4 158.2 L179.5 158 L179.7 157.8 L179.9 157.5 L180 157.3 L180.2 157 L180.4 156.8 L180.6 156.6 L180.7 156.3 L180.9 156.1 L181.1 155.8 L181.2 155.6 L181.4 155.4 L181.6 155.1 L181.7 154.9 L181.9 154.6 L182.1 154.4 L182.2 154.1 L182.4 153.9 L182.5 153.6 L182.7 153.4 L182.9 153.1 L183 152.9 L183.2 152.6 L183.3 152.4 L183.5 152.1 L183.6 151.9 L183.8 151.6 L184 151.4 L184.1 151.1 L184.3 150.9 L184.4 150.6 L184.6 150.4 L184.7 150.1 L184.9 149.9 L185 149.6 L185.2 149.4 L185.3 149.1 L185.5 148.8 L185.6 148.6 L185.8 148.3 L185.9 148.1 L186 147.8 L186.2 147.6 L186.3 147.3 L186.5 147 L186.6 146.8 L186.7 146.5 L186.9 146.3 L187 146 L187.2 145.7 L187.3 145.5 L187.4 145.2 L187.6 144.9 L187.7 144.7 L187.8 144.4 L188 144.2 L188.1 143.9 L188.2 143.6 L188.4 143.4 L188.5 143.1 L188.6 142.8 L188.8 142.6 L188.9 142.3 L189 142 L189.1 141.7 L189.3 141.5 L189.4 141.2 L189.5 140.9 L189.6 140.7 L189.8 140.4 L189.9 140.1 L190 139.9 L190.1 139.6 L190.2 139.3 L190.4 139 L190.5 138.8 L190.6 138.5 L190.7 138.2 L190.8 137.9 L190.9 137.7 L191.1 137.4 L191.2 137.1 L191.3 136.8 L191.4 136.6 L191.5 136.3 L191.6 136 L191.7 135.7 L191.8 135.4 L191.9 135.2 L192 134.9 
		  L192.1 134.6 L192.2 134.3 L192.3 134 L192.4 133.8 L192.6 133.5 L192.7 133.2 L192.8 132.9 L192.9 132.6 L192.9 132.3 L193 132.1 L193.1 131.8 L193.2 131.5 L193.3 131.2 L193.4 130.9 L193.5 130.6 L193.6 130.4 L193.7 130.1 L193.8 129.8 L193.9 129.5 L194 129.2 L194.1 128.9 L194.2 128.6 L194.2 128.3 L194.3 128.1 L194.4 127.8 L194.5 127.5 L194.6 127.2 L194.7 126.9 L194.7 126.6 L194.8 126.3 L194.9 126 L195 125.7 L195.1 125.4 L195.1 125.1 L195.2 124.9 L195.3 124.6 L195.4 124.3 L195.4 124 L195.5 123.7 L195.6 123.4 L195.6 123.1 L195.7 122.8 L195.8 122.5 L195.8 122.2 L195.9 121.9 L196 121.6 L196 121.3 L196.1 121 L196.2 120.7 L196.2 120.4 L196.3 120.1 L196.4 119.8 L196.4 119.5 L196.5 119.2 L196.5 118.9 L196.6 118.6 L196.6 118.3 L196.7 118 L196.8 117.7 L196.8 117.4 L196.9 117.1 L196.9 116.8 L197 116.5 L197 116.2 L197.1 115.9 L197.1 115.6 L197.2 115.3 L197.2 115 L197.3 114.7 L197.3 114.4 L197.3 114.1 L197.4 113.8 L197.4 113.5 L197.5 113.2 L197.5 112.9 L197.5 112.6 L197.6 112.2 L197.6 111.9 L197.7 111.6 L197.7 111.3 L197.7 111 L197.8 110.7 L197.8 110.4 L197.8 110.1 L197.8 109.8 L197.9 109.5 L197.9 109.2 L197.9 108.9 L198 108.5 L198 108.2 L198 107.9 L198 107.6 L198 107.3 L198.1 107 L198.1 106.7 L198.1 106.4 L198.1 106.1 L198.1 105.7 L198.2 105.4 L198.2 105.1 L198.2 104.8 L198.2 104.5 L198.2 104.2 L198.2 103.9 L198.2 103.6 L198.2 103.2 L198.3 102.9 L198.3 102.6 L198.3 102.3 L198.3 102 L198.3 101.7 L198.3 101.3 L198.3 101 L198.3 100.7 L198.3 100.4 L198.3 100.1 L198.3 99.8 L198.3 99.4 L198.3 99.1 L198.3 98.8 L198.3 98.5 L198.3 98.2 L198.3 97.9 L198.2 97.6 L198.2 97.2 L198.2 96.9 L198.2 96.6 L198.2 96.3 L198.2 96 L198.2 95.7 L198.2 95.4 L198.1 95 L198.1 94.7 L198.1 94.4 L198.1 94.1 L198.1 93.8 L198 93.5 L198 93.2 L198 92.9 L198 92.6 L198 92.2 L197.9 91.9 L197.9 91.6 L197.9 91.3 L197.8 91 L197.8 90.7 L197.8 90.4 L197.8 90.1 L197.7 89.8 L197.7 89.5 L197.7 89.2 L197.6 88.9 L197.6 88.5 L197.5 88.2 L197.5 87.9 L197.5 87.6 L197.4 87.3 L197.4 87 L197.3 86.7 L197.3 86.4 L197.3 86.1 L197.2 85.8 L197.2 85.5 L197.1 85.2 L197.1 84.9 L197 84.6 L197 84.3 L196.9 84 L196.9 83.7 L196.8 83.4 L196.8 83.1 L196.7 82.8 L196.6 82.5 L196.6 82.2 L196.5 81.9 L196.5 81.6 L196.4 81.3 L196.4 81 L196.3 80.7 L196.2 80.4 L196.2 80.1 L196.1 79.8 L196 79.5 L196 79.2 L195.9 78.9 L195.8 78.6 L195.8 78.3 L195.7 78 L195.6 77.7 L195.6 77.4 L195.5 77.1 L195.4 76.8 L195.4 76.5 L195.3 76.2 L195.2 75.9 L195.1 75.6 L195.1 75.4 L195 75.1 L194.9 74.8 L194.8 74.5 L194.7 74.2 L194.7 73.9 L194.6 73.6 L194.5 73.3 L194.4 73 L194.3 72.7 L194.2 72.5 L194.2 72.2 L194.1 71.9 L194 71.6 L193.9 71.3 L193.8 71 L193.7 70.7 L193.6 70.4 L193.5 70.2 L193.4 69.9 L193.3 69.6 L193.2 69.3 L193.1 69 L193 68.7 L192.9 68.4 L192.9 68.2 L192.8 67.9 L192.7 67.6 L192.6 67.3 L192.4 67 L192.3 66.8 L192.2 66.5 L192.1 66.2 L192 65.9 L191.9 65.6 L191.8 65.4 L191.7 65.1 L191.6 64.8 L191.5 64.5 L191.4 64.2 L191.3 64 L191.2 63.7 L191.1 63.4 L190.9 63.1 L190.8 62.9 L190.7 62.6 L190.6 62.3 L190.5 62 L190.4 61.8 L190.2 61.5 L190.1 61.2 L190 60.9 L189.9 60.7 L189.8 60.4 L189.6 60.1 L189.5 59.9 L189.4 59.6 L189.3 59.3 L189.1 59 L189 58.8 L188.9 58.5 L188.8 58.2 L188.6 58 L188.5 57.7 L188.4 57.4 L188.2 57.2 L188.1 56.9 L188 56.6 L187.8 56.4 L187.7 56.1 L187.6 55.8 L187.4 55.6 L187.3 55.3 L187.2 55.1 L187 54.8 L186.9 54.5 L186.7 54.3 L186.6 54 L186.5 53.8 L186.3 53.5 L186.2 53.2 L186 53 L185.9 52.7 L185.8 52.5 L185.6 52.2 L185.5 51.9 L185.3 51.7 L185.2 51.4 L185 51.2 L184.9 50.9 L184.7 50.7 L184.6 50.4 L184.4 50.2 L184.3 49.9 L184.1 49.7 L184 49.4 L183.8 49.2 L183.6 48.9 L183.5 48.6 L183.3 48.4 L183.2 48.1 L183 47.9 L182.9 47.7 L182.7 47.4 L182.5 47.2 L182.4 46.9 L182.2 46.7 L182.1 46.4 L181.9 46.2 L181.7 45.9 L181.6 45.7 L181.4 45.4 L181.2 45.2 L181.1 45 L180.9 44.7 L180.7 44.5 L180.6 44.2 L180.4 44 L180.2 43.7 L180 43.5 L179.9 43.3 L179.7 43 L179.5 42.8 L179.4 42.6 L179.2 42.3 L179 42.1 L178.8 41.8 L178.7 41.6 L178.5 41.4 L178.3 41.1 L178.1 40.9 L177.9 40.7 L177.8 40.4 L177.6 40.2 L177.4 40 L177.2 39.7 L177 39.5 L176.9 39.3 L176.7 39.1 L176.5 38.8 L176.3 38.6 L176.1 38.4 L175.9 38.1 L175.7 37.9 L175.5 37.7 L175.4 37.5 L175.2 37.2 L175 37 L174.8 36.8 L174.6 36.6 L174.4 36.3 L174.2 36.1 L174 35.9 L173.8 35.7 L173.6 35.5 L173.4 35.2 L173.2 35 L173 34.8 L172.8 34.6 L172.6 34.4 L172.5 34.2 L172.3 33.9 L172.1 33.7 L171.9 33.5 L171.6 33.3 L171.4 33.1 L171.2 32.9 L171 32.7 L170.8 32.4 L170.6 32.2 L170.4 32 L170.2 31.8 L170 31.6 L169.8 31.4 L169.6 31.2 L169.4 31 L169.2 30.8 L169 30.6 L168.8 30.4 L168.6 30.2 L168.3 30 L168.1 29.8 L167.9 29.5 L167.7 29.3 L167.5 29.1 L167.3 28.9 L167.1 28.7 L166.9 28.5 L166.6 28.3 L166.4 28.1 L166.2 27.9 L166 27.7 L165.8 27.6 L165.5 27.4 L165.3 27.2 L165.1 27 L164.9 26.8 L164.7 26.6 L164.4 26.4 L164.2 26.2 L164 26 L163.8 25.8 L163.6 25.6 L163.3 25.4 L163.1 25.2 L162.9 25.1 L162.6 24.9 L162.4 24.7 L162.2 24.5 L162 24.3 L161.7 24.1 L161.5 23.9 L161.3 23.8 L161 23.6 L160.8 23.4 L160.6 23.2 L160.4 23 L160.1 22.9 L159.9 22.7 L159.7 22.5 L159.4 22.3 L159.2 22.1 L158.9 22 L158.7 21.8 L158.5 21.6 L158.2 21.4 L158 21.3 L157.8 21.1 L157.5 20.9 L157.3 20.7 L157 20.6 L156.8 20.4 L156.6 20.2 L156.3 20.1 L156.1 19.9 L155.8 19.7 L155.6 19.6 L155.4 19.4 L155.1 19.2 L154.9 19.1 L154.6 18.9 L154.4 18.7 L154.1 18.6 L153.9 18.4 L153.6 18.3 L153.4 18.1 L153.1 17.9 L152.9 17.8 L152.6 17.6 L152.4 17.5 L152.1 17.3 L151.9 17.1 L151.6 17 L151.4 16.8 L151.1 16.7 L150.9 16.5 L150.6 16.4 L150.4 16.2 L150.1 16.1 L149.9 15.9 L149.6 15.8 L149.4 15.6 L149.1 15.5 L148.8 15.3 L148.6 15.2 L148.3 15 L148.1 14.9 L147.8 14.8 L147.6 14.6 L147.3 14.5 L147 14.3 L146.8 14.2 L146.5 14 L146.3 13.9 L146 13.8 L145.7 13.6 L145.5 13.5 L145.2 13.4 L144.9 13.2 L144.7 13.1 L144.4 12.9 L144.2 12.8 L143.9 12.7 L143.6 12.6 L143.4 12.4 L143.1 12.3 L142.8 12.2 L142.6 12 L142.3 11.9 L142 11.8 L141.7 11.7 L141.5 11.5 L141.2 11.4 L140.9 11.3 L140.7 11.2 L140.4 11 L140.1 10.9 L139.9 10.8 L139.6 10.7 L139.3 10.6 L139 10.4 L138.8 10.3 L138.5 10.2 L138.2 10.1 L137.9 10 L137.7 9.9 L137.4 9.7 L137.1 9.6 L136.8 9.5 L136.6 9.4 L136.3 9.3 L136 9.2 L135.7 9.1 L135.4 9 L135.2 8.9 L134.9 8.8 L134.6 8.7 L134.3 8.5 L134 8.4 L133.8 8.3 L133.5 8.2 L133.2 8.1 L132.9 8 L132.6 7.9 L132.3 7.8 L132.1 7.7 L131.8 7.6 L131.5 7.6 L131.2 7.5 L130.9 7.4 L130.6 7.3 L130.4 7.2 L130.1 7.1 L129.8 7 L129.5 6.9 L129.2 6.8 L128.9 6.7 L128.6 6.6 L128.3 6.6 L128.1 6.5 L127.8 6.4 L127.5 6.3 L127.2 6.2 L126.9 6.1 L126.6 6.1 L126.3 6 L126 5.9 L125.7 5.8 L125.4 5.7 L125.1 5.7 L124.9 5.6 L124.6 5.5 L124.3 5.4 L124 5.4 L123.7 5.3 L123.4 5.2 L123.1 5.1 L122.8 5.1 L122.5 5 L122.2 4.9 L121.9 4.9 L121.6 4.8 L121.3 4.7 L121 4.7 L120.7 4.6 L120.4 4.6 L120.1 4.5 L119.8 4.4 L119.5 4.4 L119.2 4.3 L118.9 4.3 L118.6 4.2 L118.3 4.1 L118 4.1 L117.7 4 L117.4 4 L117.1 3.9 L116.8 3.9 L116.5 3.8 L116.2 3.8 L115.9 3.7 L115.6 3.7 L115.3 3.6 L115 3.6 L114.7 3.5 L114.4 3.5 L114.1 3.5 L113.8 3.4 L113.5 3.4 L113.2 3.3 L112.9 3.3 L112.6 3.3 L112.2 3.2 L111.9 3.2 L111.6 3.1 L111.3 3.1 L111 3.1 L110.7 3 L110.4 3 L110.1 3 L109.8 2.9 L109.5 2.9 L109.2 2.9 L108.9 2.9 L108.5 2.8 L108.2 2.8 L107.9 2.8 L107.6 2.8 L107.3 2.7 L107 2.7 L106.7 2.7 L106.4 2.7 L106.1 2.7 L105.7 2.6 L105.4 2.6 L105.1 2.6 L104.8 2.6 L104.5 2.6 L104.2 2.6 L103.9 2.6 L103.6 2.6 L103.2 2.5 L102.9 2.5 L102.6 2.5 L102.3 2.5 L102 2.5 L101.7 2.5 L101.3 2.5 L101 2.5 L100.7 2.5 L100.4 2.5 L100.1 2.5 z" fill-opacity="0.5" style="fill:white;" />
	
    <path d="M67.1 170.2 L45.8 169.6 L45.8 166.7 L48.3 161 L46.6 159.4 C48 152.4 50.3 145.8 53.9 139.6 L56.9 139.6 L58.5 136.5 L57 134.1 C58.7 130 61.1 126.3 64.4 123.1 L65.8 123.4 L68.7 113.8 L64.9 111.6 L63.3 105.9 L66.5 101.1 L70.3 101.1 L70 98.2 L67.7 95.7 L64.2 94.7 L54.4 85.5 L54.4 81.7 L56 79.1 L55.3 77.2 L58.8 72.5 L55.6 69.9 L60.1 63.5 L56 61 L63.2 51.2 C64.7 49.5 66.5 48.4 68.7 47.9 L77.6 46.7 L79.5 47.9 L82.3 45.6 L79.8 43.9 L78.2 41.4 L79.2 31.7 L77.4 28.9 C77.7 25.5 79.3 23 82.5 21.8 L85.2 22.1 C91.7 18.8 97 20.8 101.9 25.1 C104.5 25 105.6 27.9 103.9 29.5 L105 31.7 L104.7 36.2 L103.9 37.3 L104.9 40.2 C106.3 42.5 105.5 44.6 103.8 46.5 L108.5 47.1 C110.6 47.9 112.4 49.2 113.9 51.3 L118.4 56.8 L118.2 59 L117.2 60.1 L119.8 62.7 L119.8 64.6 L120.9 66 L121 67.3 L122.2 68.2 L123.7 67.1 C127.8 69 131 71 133.6 73.3 L141 71.2 L145 77.7 L142 82.8 L141 83 L141.7 88.2 L143.1 89.3 L146.6 88.7 L146.9 89.7 L151.7 88.9 L151.5 87.3 L173.1 83.6 L174.3 91.2 L170.5 97.9 L156.6 100.3 L155.2 99.6 L154.2 98.1 L149.4 99 L149.6 100.6 L149.9 102.5 L152.9 102.5 L153.4 105.4 L144.2 106.8 L143.5 104.4 L145.6 103.4 L145.2 101.6 L138.7 103 L139.9 109.6 L138.7 111.2 L129.3 113.1 L127.9 111.9 L126.4 105.5 L121.2 106.1 L121.4 107.6 L120.4 108.7 L125.8 121.7 L129.8 122 C131.7 126 132.8 129.9 133.4 133.9 L132.6 135.8 L133.1 137.5 L135.5 137.5 L139.4 153.3 L138.8 155.2 L139.1 156.7 L146.9 161.7 L151.3 167.1 L151 168.5 L139.3 169.6 L130.6 168.3 L121.8 169.1 L121.8 166.4 L123.3 162.3 L121.4 162.3 L117.6 144.1 L118 142 L118 139.5 L116 138.5 L115 131 L116.1 128.7 L106.5 118.1 C105.4 121.8 104.1 125.4 102.4 128.6 C99.9 133.3 96.5 137.1 91.6 139.4 C86.7 141.7 81.1 141.1 75.9 139.1 C75.3 138.8 74.7 138.6 74.1 138.4 L73.6 139.6 L69.5 140.4 L69.5 142.6 L70.9 144.2 L67.3 157.2 L65.4 158.8 L65.5 161.8 L66.5 162.9 L67.1 170.2 z M102.8 116.4 L95.5 116.8 C95.3 120 93.2 123 90.3 124.3 C87.4 125.5 83.7 125.1 80.6 122.8 L77.6 126.9 L78.7 127.6 L75.7 134.6 C76.3 134.8 76.8 135.1 77.3 135.3 C81.6 136.9 86.1 137.5 89.9 135.7 C93.9 133.8 96.7 130.6 98.8 126.6 C100.4 123.6 101.7 120.1 102.8 116.4 z M80.8 89.8 L77.7 86.5 L73 86.8 L69.8 83.3 L68.7 80.3 L68.7 78.5 L70.4 78.4 L71.4 74.1 L77 81.2 L79.2 82.2 L81.2 86.3 L80.8 89.8 z M115.8 92.2 L113 89.7 L112 85.5 L110.4 85.5 L110.1 80.9 L112 78.9 L111.8 74.6 L114.7 77.6 L116.5 78.2 L118.4 78.5 L119.5 81.2 C123 83.2 127.2 84.1 132 83.9 L132.8 82.7 L136.1 85 L138.2 84.1 L138.8 88.7 L138 89.3 L123.4 91.4 L123 92.7 L118.2 93.1 L117.9 91.9 L115.8 92.2 z" style="fill:#FFFFC9;" />
	
    <path d="M91.7 14.2 L91.9 14.2 L92.1 14.2 L92.3 14.2 L92.5 14.2 L92.7 14.2 L92.9 14.2 L93.1 14.3 L93.4 14.3 L93.6 14.3 L93.7 14.3 L94 14.3 L94.2 14.4 L94.4 14.4 L94.6 14.4 L94.7 14.5 L95 14.5 L95.1 14.5 L95.3 14.6 L95.5 14.6 L95.7 14.7 L95.9 14.7 L96.1 14.8 L96.3 14.8 L96.5 14.9 L96.7 14.9 L96.9 15 L97.1 15 L97.2 15.1 L97.4 15.2 L97.6 15.2 L97.8 15.3 L98 15.4 L98.2 15.4 L98.4 15.5 L98.5 15.6 L98.7 15.7 L98.9 15.7 L99.1 15.8 L99.2 15.9 L99.4 16 L99.6 16 L99.8 16.1 L99.9 16.2 L100.1 16.3 L100.3 16.4 L100.4 16.5 L100.6 16.5 L100.8 16.6 L100.9 16.7 L101.1 16.8 L101.3 16.9 L101.4 17 L101.6 17.1 L101.8 17.2 L101.9 17.3 L102.1 17.4 L102.2 17.5 L102.4 17.6 L102.5 17.7 L102.7 17.8 L102.9 17.9 L103.2 18.1 L103.3 18.2 L103.6 18.5 L103.9 18.7 L104.1 18.8 L104.2 18.9 L104.3 19 L104.6 19.2 L104.7 19.2 L104.8 19.3 L105 19.3 L105.2 19.4 L105.3 19.4 L105.5 19.5 L105.6 19.6 L105.8 19.6 L106 19.7 L106.1 19.8 L106.3 19.9 L106.4 20 L106.6 20 L106.7 20.1 L106.9 20.2 L107 20.3 L107.2 20.4 L107.3 20.5 L107.4 20.6 L107.6 20.7 L107.7 20.8 L107.8 20.9 L108 21 L108.1 21.2 L108.2 21.3 L108.3 21.4 L108.4 21.5 L108.6 21.6 L108.7 21.7 L108.8 21.9 L108.9 22 L109 22.1 L109.1 22.3 L109.2 22.4 L109.3 22.5 L109.4 22.6 L109.5 22.8 L109.6 22.9 L109.7 23.1 L109.7 23.2 L109.8 23.3 L109.9 23.5 L110 23.6 L110 23.7 L110.1 23.9 L110.2 24.1 L110.2 24.2 L110.3 24.3 L110.4 24.5 L110.4 24.6 L110.5 24.8 L110.5 24.9 L110.6 25.1 L110.6 25.3 L110.7 25.4 L110.7 25.6 L110.7 25.7 L110.8 25.9 L110.8 26 L110.8 26.2 L110.8 26.3 L110.9 26.5 L110.9 26.7 L110.9 26.8 L110.9 27 L110.9 27.1 L110.9 27.3 L110.9 27.5 L110.9 27.6 L110.9 27.8 L110.9 27.9 L110.9 28.1 L110.9 28.3 L110.9 28.4 L110.9 28.6 L110.9 28.7 L110.9 28.9 L110.8 29.1 L110.8 29.2 L110.8 29.4 L110.8 29.5 L111 30 L111.2 30.5 L111.2 31.1 L111.3 31.6 L111.3 32.2 L110.9 36.6 L110.9 37.2 L110.8 37.8 L110.7 37.9 L110.8 38 L110.9 38.3 L111 38.5 L111.1 38.8 L111.2 39 L111.3 39.2 L111.4 39.5 L111.4 39.7 L111.5 40 L111.6 40.2 L111.6 40.5 L111.7 40.8 L111.7 41 L111.8 41.3 L111.8 41.5 L111.8 41.7 L112 41.8 L112.1 41.9 L112.3 41.9 L112.4 42 L112.6 42.1 L112.7 42.2 L112.9 42.2 L113 42.3 L113.2 42.4 L113.3 42.5 L113.5 42.5 L113.6 42.6 L113.7 42.7 L113.9 42.8 L114 42.9 L114.2 43 L114.3 43.1 L114.4 43.2 L114.6 43.3 L114.7 43.4 L114.8 43.5 L115 43.6 L115.1 43.7 L115.2 43.8 L115.4 43.9 L115.5 44 L115.6 44.1 L115.8 44.2 L115.9 44.3 L116 44.4 L116.2 44.5 L116.3 44.6 L116.4 44.7 L116.5 44.8 L116.6 44.9 L116.8 45.1 L117 45.3 L117.1 45.4 L117.2 45.5 L117.5 45.8 L117.6 45.9 L117.8 46.1 L118 46.4 L118.2 46.6 L118.4 46.9 L118.6 47.2 L118.7 47.3 L118.9 47.4 L123.2 52.9 L123.6 53.4 L123.9 53.9 L124.1 54.4 L124.3 55 L124.5 55.5 L124.6 56.1 L124.6 56.7 L124.6 57.3 L124.5 58.6 L124.6 58.7 L124.9 59.1 L125.2 59.6 L125.4 60 L125.6 60.5 L125.8 61.1 L125.9 61.2 L126.4 61.5 L126.8 61.6 L127.2 61.8 L127.6 62 L128 62.2 L128.4 62.4 L128.8 62.6 L129.2 62.8 L129.6 63 L130 63.3 L130.3 63.5 L130.7 63.7 L131.1 63.9 L131.5 64.1 L131.6 64.2 L131.8 64.3 L132.2 64.5 L132.4 64.7 L132.7 64.9 L133.1 65.1 L133.4 65.3 L133.8 65.6 L134.1 65.8 L134.4 66 L134.6 66.2 L134.8 66.3 L135 66.4 L139.4 65.2 L139.9 65.1 L140.5 65 L141.1 65 L141.7 65 L142.2 65.1 L142.8 65.3 L143.3 65.4 L143.9 65.7 L144.4 66 L144.8 66.3 L145.3 66.7 L145.7 67.1 L146 67.5 L146.4 68 L150.3 74.5 L150.6 75 L150.8 75.5 L151 76 L151.1 76.6 L151.2 77.1 L151.3 77.7 L151.2 78.3 L151.1 78.8 L151 79.4 L150.9 79.9 L150.6 80.4 L150.4 80.9 L150.3 81.2 L150.5 81.1 L172 77.5 L172.6 77.4 L173.2 77.4 L173.8 77.4 L174.3 77.5 L174.9 77.6 L175.4 77.8 L176 78.1 L176.5 78.4 L176.9 78.7 L177.4 79.1 L177.8 79.5 L178.1 80 L178.5 80.4 L178.7 80.9 L178.9 81.5 L179.1 82 L179.2 82.6 L180.5 90.2 L180.6 90.8 L180.6 91.4 L180.5 92 L180.4 92.6 L180.3 93.2 L180 93.8 L179.8 94.3 L176 101 L175.7 101.5 L175.3 101.9 L175 102.3 L174.6 102.7 L174.1 103 L173.7 103.3 L173.2 103.6 L172.7 103.8 L172.1 103.9 L171.6 104.1 L159.6 106.1 L159.5 106.6 L159.4 107.2 L159.2 107.7 L158.9 108.3 L158.6 108.8 L158.3 109.3 L157.9 109.7 L157.5 110.1 L157 110.4 L156.5 110.8 L156 111 L155.5 111.3 L154.9 111.4 L154.4 111.5 L145.2 112.9 L145.2 113.1 L144.8 113.5 L143.5 115.1 L143.2 115.5 L142.8 115.9 L142.4 116.3 L141.9 116.6 L141.4 116.8 L140.9 117 L140.4 117.2 L139.9 117.3 L134.9 118.4 L135.1 118.8 L135.4 119.3 L135.5 119.5 L135.6 119.8 L135.7 120 L135.8 120.2 L135.9 120.4 L136 120.6 L136.1 120.8 L136.2 121 L136.3 121.2 L136.4 121.5 L136.5 121.7 L136.5 121.9 L136.6 122.1 L136.8 122.5 L137 123 L137 123.2 L137.1 123.4 L137.2 123.6 L137.3 123.8 L137.4 124 L137.4 124.2 L137.5 124.5 L137.6 124.7 L137.6 124.9 L137.8 125.3 L137.9 125.5 L138 125.9 L138.1 126.4 L138.2 126.8 L138.3 127 L138.4 127.2 L138.4 127.4 L138.5 127.8 L138.6 128.1 L138.6 128.3 L138.7 128.5 L138.8 128.9 L138.8 129.1 L139 129.6 L139 129.8 L139.1 130.2 L139.1 130.4 L139.2 130.8 L139.3 131.2 L139.4 131.7 L139.5 132.1 L139.5 132.5 L139.6 132.8 L139.8 133 L140.2 133.4 L140.6 133.9 L140.9 134.4 L141.1 134.9 L141.4 135.5 L141.5 136 L145.5 151.7 L145.6 152.3 L145.7 152.9 L145.7 153.5 L145.7 153.5 L150.2 156.4 L150.6 156.7 L151 157 L151.4 157.3 L151.7 157.7 L156.2 163.1 L156.5 163.5 L156.8 164 L157.1 164.5 L157.3 165 L157.4 165.6 L157.5 166.2 L157.6 166.7 L157.6 167.3 L157.5 167.9 L157.4 168.4 L157.1 169.8 L157 170.4 L156.8 171 L156.5 171.5 L156.2 172 L155.8 172.5 L155.4 173 L154.9 173.4 L154.4 173.7 L153.9 174 L153.4 174.3 L152.8 174.5 L152.2 174.6 L151.6 174.7 L139.9 175.8 L139.4 175.8 L138.9 175.8 L138.4 175.8 L130.4 174.6 L122.4 175.3 L121.8 175.4 L121.2 175.3 L120.6 175.2 L120 175.1 L119.4 174.9 L118.9 174.6 L118.4 174.3 L117.9 173.9 L117.4 173.5 L117 173.1 L116.6 172.6 L116.3 172.1 L116.1 171.5 L115.9 170.9 L115.7 170.3 L115.6 169.7 L115.6 169.1 L115.6 166.4 L115.6 165.9 L115.7 165.4 L115.7 165 L115.6 164.7 L115.4 164.2 L115.2 163.6 L111.4 145.3 L111.4 144.8 L111.3 144.3 L111.3 143.7 L111.4 143.2 L111.4 142.8 L111.1 142.4 L110.8 142 L110.5 141.5 L110.2 141 L110 140.4 L109.9 139.9 L109.8 139.3 L108.8 131.8 L108.8 131.3 L108.8 130.7 L108.8 130.1 L108.9 130 L108.7 129.8 L108.6 130.1 L108.4 130.5 L108.3 130.8 L108.1 131.1 L108 131.3 L107.9 131.5 L107.8 131.8 L107.6 132 L107.5 132.3 L107.3 132.5 L107.2 132.8 L107 133 L106.9 133.3 L106.8 133.5 L106.6 133.8 L106.4 134 L106.3 134.3 L106.1 134.5 L106 134.8 L105.8 135 L105.6 135.3 L105.5 135.5 L105.3 135.7 L105.1 136 L104.9 136.2 L104.8 136.5 L104.6 136.7 L104.4 136.9 L104.2 137.2 L104 137.4 L103.8 137.6 L103.6 137.9 L103.4 138.1 L103.2 138.3 L103 138.5 L102.8 138.8 L102.6 139 L102.4 139.2 L102.2 139.4 L102 139.7 L101.8 139.9 L101.5 140.1 L101.3 140.3 L101.1 140.5 L100.9 140.7 L100.6 140.9 L100.4 141.1 L100.2 141.3 L99.9 141.5 L99.7 141.7 L99.4 141.9 L99.2 142.1 L98.9 142.3 L98.7 142.5 L98.4 142.7 L98.2 142.8 L97.9 143 L97.6 143.2 L97.4 143.4 L97.1 143.5 L96.8 143.7 L96.5 143.9 L96.3 144 L96 144.2 L95.8 144.3 L95.7 144.3 L95.6 144.4 L95.4 144.5 L95.3 144.6 L95.1 144.6 L95 144.7 L94.8 144.8 L94.7 144.9 L94.5 144.9 L94.4 145 L94.2 145.1 L94.1 145.2 L93.9 145.2 L93.7 145.3 L93.6 145.4 L93.4 145.4 L93.2 145.5 L93.1 145.6 L92.9 145.6 L92.7 145.7 L92.6 145.8 L92.4 145.8 L92.3 145.9 L92.1 145.9 L91.9 146 L91.8 146 L91.6 146.1 L91.4 146.1 L91.3 146.2 L91.1 146.2 L90.9 146.3 L90.7 146.3 L90.6 146.4 L90.4 146.4 L90.2 146.5 L90.1 146.5 L89.9 146.5 L89.7 146.6 L89.6 146.6 L89.4 146.7 L89.2 146.7 L89.1 146.7 L88.9 146.7 L88.7 146.8 L88.6 146.8 L88.4 146.8 
		  L88.2 146.9 L88.1 146.9 L87.9 146.9 L87.7 146.9 L87.6 146.9 L87.4 147 L87.2 147 L87.1 147 L86.9 147 L86.7 147 L86.6 147 L86.4 147.1 L86.2 147.1 L86.1 147.1 L85.9 147.1 L85.7 147.1 L85.6 147.1 L85.4 147.1 L85.2 147.1 L85.1 147.1 L84.9 147.1 L84.7 147.1 L84.6 147.1 L84.4 147.1 L84.2 147.1 L84.1 147.1 L83.9 147.1 L83.7 147.1 L83.6 147.1 L83.4 147.1 L83.2 147.1 L83.1 147.1 L82.9 147 L82.8 147 L82.6 147 L82.3 147 L81.9 147 L81.6 146.9 L81.3 146.9 L81 146.8 L80.7 146.8 L80.3 146.7 L80 146.7 L79.7 146.6 L79.4 146.6 L79.1 146.5 L78.8 146.4 L78.4 146.4 L78.1 146.3 L77.8 146.2 L77.5 146.1 L77.2 146.1 L76.9 146 L73.3 158.9 L73.1 159.4 L72.9 159.9 L72.7 160.4 L72.4 160.8 L72.5 161.3 L72.6 161.9 L72.7 162.4 L73.3 169.7 L73.3 170.3 L73.3 170.8 L73.2 171.4 L73.1 172 L72.9 172.6 L72.6 173.1 L72.4 173.6 L72 174.1 L71.6 174.5 L71.2 174.9 L70.8 175.3 L70.3 175.6 L69.7 175.9 L69.2 176.1 L68.6 176.3 L68.1 176.4 L67.5 176.4 L66.9 176.5 L45.6 175.8 L45 175.8 L44.4 175.7 L43.8 175.5 L43.2 175.3 L42.7 175 L42.2 174.7 L41.7 174.3 L41.3 173.9 L40.9 173.5 L40.5 173 L40.2 172.5 L40 171.9 L39.8 171.3 L39.6 170.8 L39.5 170.2 L39.5 169.6 L39.5 166.7 L39.5 166.2 L39.6 165.7 L39.7 165.2 L39.9 164.7 L40.1 164.2 L41 162.1 L40.9 162.1 L40.7 161.6 L40.5 161 L40.4 160.4 L40.3 159.9 L40.3 159.3 L40.3 158.7 L40.4 158.1 L40.5 157.8 L40.6 157.4 L40.7 157.1 L40.7 156.7 L40.8 156.4 L40.9 156 L41 155.7 L41.1 155.3 L41.2 155 L41.2 154.6 L41.3 154.3 L41.4 153.9 L41.5 153.6 L41.6 153.2 L41.7 152.9 L41.8 152.5 L41.9 152.2 L42 151.8 L42.1 151.5 L42.2 151.1 L42.3 150.8 L42.4 150.5 L42.5 150.1 L42.6 149.8 L42.7 149.4 L42.9 149.1 L43 148.7 L43.1 148.4 L43.2 148.1 L43.3 147.7 L43.4 147.4 L43.6 147.1 L43.7 146.7 L43.8 146.4 L43.9 146 L44.1 145.7 L44.2 145.4 L44.3 145 L44.5 144.7 L44.6 144.4 L44.7 144 L44.9 143.7 L45 143.4 L45.2 143 L45.3 142.7 L45.5 142.4 L45.6 142 L45.8 141.7 L45.9 141.4 L46.1 141 L46.2 140.7 L46.4 140.4 L46.6 140.1 L46.7 139.7 L46.9 139.4 L47.1 139.1 L47.2 138.8 L47.4 138.4 L47.6 138.1 L47.7 137.8 L47.9 137.5 L48.1 137.1 L48.3 136.8 L48.5 136.5 L48.8 136 L49.2 135.5 L49.6 135.1 L50 134.7 L50.5 134.4 L50.8 134.2 L50.8 134 L50.8 133.4 L50.9 132.9 L51 132.3 L51.2 131.8 L51.3 131.6 L51.4 131.3 L51.5 131.1 L51.6 130.9 L51.7 130.6 L51.8 130.4 L51.9 130.2 L52 130 L52.1 129.7 L52.2 129.5 L52.3 129.3 L52.4 129.1 L52.5 128.8 L52.6 128.6 L52.8 128.4 L52.9 128.2 L53 128 L53.1 127.7 L53.2 127.5 L53.3 127.3 L53.5 127.1 L53.6 126.9 L53.7 126.7 L53.8 126.4 L54 126.2 L54.1 126 L54.2 125.8 L54.4 125.6 L54.5 125.4 L54.6 125.2 L54.8 125 L54.9 124.8 L55 124.6 L55.2 124.4 L55.3 124.2 L55.5 124 L55.6 123.8 L55.7 123.6 L55.9 123.4 L56 123.2 L56.2 123 L56.3 122.8 L56.5 122.6 L56.7 122.4 L56.8 122.2 L57 122 L57.1 121.8 L57.3 121.6 L57.4 121.4 L57.6 121.2 L57.8 121 L57.9 120.8 L58.1 120.7 L58.3 120.5 L58.4 120.3 L58.6 120.1 L58.8 119.9 L58.9 119.7 L59.1 119.5 L59.3 119.4 L59.5 119.2 L59.6 119 L59.8 118.8 L60 118.7 L60.4 118.3 L60.9 117.9 L61 117.9 L61.3 116.7 L61.2 116.7 L60.7 116.3 L60.3 115.9 L59.9 115.4 L59.6 114.9 L59.3 114.4 L59 113.9 L58.8 113.3 L57.3 107.6 L57.1 107 L57 106.4 L57 105.8 L57.1 105.2 L57.2 104.6 L57.3 104 L57.5 103.5 L57.8 102.9 L58.1 102.4 L60.1 99.4 L60 99.3 L50.1 90.1 L49.7 89.7 L49.3 89.2 L49 88.8 L48.8 88.3 L48.5 87.7 L48.3 87.2 L48.2 86.6 L48.1 86.1 L48.1 85.5 L48.1 81.7 L48.1 81.1 L48.2 80.5 L48.4 80 L48.5 79.4 L48.8 78.9 L49.1 78.4 L49.1 78.2 L49.1 78 L49.1 77.5 L49.1 76.9 L49.1 76.3 L49.3 75.7 L49.4 75.1 L49.7 74.6 L49.9 74 L50.3 73.5 L50.4 73.3 L50.2 73 L49.9 72.5 L49.7 71.9 L49.6 71.4 L49.4 70.8 L49.4 70.2 L49.4 69.6 L49.4 69 L49.6 68.5 L49.7 67.9 L49.9 67.3 L50.2 66.8 L50.5 66.3 L51.3 65.2 L51.3 65.1 L50.9 64.7 L50.6 64.2 L50.3 63.6 L50.1 63.1 L49.9 62.5 L49.8 61.9 L49.7 61.3 L49.7 60.7 L49.8 60.1 L49.9 59.5 L50.1 58.9 L50.3 58.3 L50.6 57.8 L50.9 57.3 L58.3 47.3 L58.6 47 L58.7 46.8 L58.8 46.7 L58.9 46.6 L59.1 46.5 L59.2 46.4 L59.3 46.2 L59.4 46.1 L59.5 46 L59.6 45.9 L59.7 45.8 L59.9 45.7 L60 45.6 L60.1 45.5 L60.2 45.3 L60.4 45.2 L60.5 45.1 L60.6 45 L60.7 44.9 L60.9 44.8 L61 44.7 L61.1 44.6 L61.3 44.5 L61.4 44.4 L61.5 44.3 L61.7 44.2 L61.8 44.2 L61.9 44.1 L62.1 44 L62.2 43.9 L62.4 43.8 L62.5 43.7 L62.7 43.6 L62.8 43.5 L62.9 43.5 L63.1 43.4 L63.2 43.3 L63.4 43.2 L63.5 43.2 L63.7 43.1 L63.8 43 L64 42.9 L64.1 42.9 L64.3 42.8 L64.4 42.8 L64.6 42.7 L64.7 42.6 L64.9 42.6 L65 42.5 L65.2 42.4 L65.3 42.4 L65.5 42.3 L65.7 42.3 L65.8 42.2 L66 42.2 L66.1 42.1 L66.3 42.1 L66.5 42 L66.6 42 L66.8 42 L66.9 41.9 L67.1 41.9 L67.2 41.9 L67.6 41.8 L72 41.2 L72 40.8 L72.8 33.2 L72.1 32.2 L71.8 31.7 L71.6 31.2 L71.4 30.6 L71.3 30.1 L71.2 29.5 L71.2 29 L71.2 28.4 L71.2 28.2 L71.2 28 L71.3 27.7 L71.3 27.5 L71.3 27.2 L71.4 27 L71.4 26.8 L71.4 26.5 L71.5 26.3 L71.5 26 L71.6 25.8 L71.6 25.6 L71.7 25.3 L71.8 25.1 L71.8 24.8 L71.9 24.6 L72 24.4 L72.1 24.1 L72.2 23.9 L72.3 23.7 L72.4 23.4 L72.5 23.2 L72.6 23 L72.7 22.7 L72.8 22.5 L72.9 22.3 L73 22.1 L73.2 21.8 L73.3 21.6 L73.4 21.4 L73.6 21.2 L73.7 20.9 L73.9 20.7 L74 20.5 L74.2 20.3 L74.3 20.1 L74.5 19.9 L74.7 19.7 L74.9 19.5 L75 19.3 L75.2 19.2 L75.4 19 L75.6 18.8 L75.8 18.6 L76 18.4 L76.2 18.3 L76.4 18.1 L76.6 18 L76.8 17.8 L77 17.7 L77.2 17.5 L77.4 17.4 L77.7 17.2 L77.9 17.1 L78.1 17 L78.3 16.8 L78.6 16.7 L78.8 16.6 L79 16.5 L79.3 16.4 L79.5 16.2 L79.7 16.1 L80 16 L80.2 16 L80.7 15.8 L81.2 15.7 L81.7 15.6 L82.2 15.5 L82.7 15.5 L83.2 15.5 L84.2 15.7 L84.2 15.7 L84.4 15.6 L84.6 15.5 L84.8 15.4 L85 15.4 L85.2 15.3 L85.4 15.2 L85.7 15.1 L85.9 15.1 L86.1 15 L86.3 14.9 L86.5 14.9 L86.7 14.8 L86.9 14.8 L87.1 14.7 L87.3 14.7 L87.5 14.6 L87.7 14.6 L88 14.5 L88.2 14.5 L88.4 14.5 L88.6 14.4 L88.8 14.4 L89 14.4 L89.2 14.3 L89.4 14.3 L89.6 14.3 L89.8 14.3 L90 14.3 L90.2 14.2 L90.5 14.2 L90.7 14.2 L90.9 14.2 L91.1 14.2 L91.3 14.2 L91.5 14.2 L91.7 14.2 z M91.4 20.4 L91.2 20.4 L91.1 20.4 L91 20.4 L90.8 20.5 L90.7 20.5 L90.6 20.5 L90.4 20.5 L90.3 20.5 L90.1 20.5 L90 20.5 L89.9 20.6 L89.7 20.6 L89.6 20.6 L89.5 20.6 L89.3 20.6 L89.2 20.7 L89 20.7 L88.9 20.7 L88.7 20.8 L88.6 20.8 L88.5 20.8 L88.3 20.9 L88.2 20.9 L88 20.9 L87.9 21 L87.7 21 L87.6 21.1 L87.4 21.1 L87.3 21.2 L87.1 21.2 L87 21.3 L86.8 21.3 L86.7 21.4 L86.6 21.5 L86.4 21.5 L86.3 21.6 L86.1 21.7 L86 21.7 L85.8 21.8 L85.7 21.9 L85.5 21.9 L85.3 22 L85.2 22.1 L82.5 21.8 L82.3 21.8 L82.2 21.9 L82.1 21.9 L81.9 22 L81.8 22.1 L81.6 22.1 L81.5 22.2 L81.4 22.3 L81.2 22.4 L81.1 22.4 L81 22.5 L80.9 22.6 L80.7 22.7 L80.6 22.8 L80.5 22.8 L80.4 22.9 L80.3 23 L80.2 23.1 L80 23.2 L79.9 23.3 L79.8 23.4 L79.7 23.5 L79.6 23.6 L79.5 23.7 L79.4 23.8 L79.4 23.9 L79.3 24 L79.2 24.1 L79.1 24.2 L79 24.3 L78.9 24.4 L78.8 24.5 L78.8 24.6 L78.7 24.8 L78.6 24.9 L78.5 25 L78.5 25.1 L78.4 25.2 L78.4 25.3 L78.3 25.5 L78.2 25.6 L78.2 25.7 L78.1 25.9 L78.1 26 L78 26.1 L78 26.2 L77.9 26.4 L77.9 26.5 L77.8 26.7 L77.8 26.8 L77.7 26.9 L77.7 27.1 L77.7 27.2 L77.6 27.4 L77.6 27.5 L77.6 27.7 L77.6 27.8 L77.5 28 L77.5 28.1 L77.5 28.3 L77.5 28.4 L77.5 28.6 L77.4 28.7 L77.4 28.9 L79.2 31.7 L78.2 41.4 L79.8 43.9 L82.3 45.6 L79.5 47.9 L77.6 46.7 L68.7 47.9 L68.6 48 L68.5 48 L68.4 48 L68.3 48 L68.2 48.1 L68.1 48.1 L68 48.1 L67.9 48.1 L67.8 48.2 L67.7 48.2 L67.6 48.2 L67.5 48.3 L67.4 48.3 L67.3 48.3 L67.2 48.4 L67.1 48.4 L67 48.4 L67 48.5 L66.9 48.5 L66.8 48.5 L66.7 48.6 L66.6 48.6 L66.5 48.7 L66.4 48.7 L66.3 48.8 L66.2 48.8 L66.1 48.8 L66.1 48.9 L66 48.9 L65.9 49 L65.8 49 L65.7 49.1 L65.6 49.1 L65.5 49.2 
		  L65.5 49.2 L65.4 49.3 L65.3 49.4 L65.2 49.4 L65.1 49.5 L65 49.5 L65 49.6 L64.9 49.6 L64.8 49.7 L64.7 49.8 L64.6 49.8 L64.5 49.9 L64.5 50 L64.4 50 L64.3 50.1 L64.2 50.2 L64.2 50.2 L64.1 50.3 L64 50.4 L63.9 50.4 L63.8 50.5 L63.8 50.6 L63.7 50.7 L63.6 50.7 L63.6 50.8 L63.5 50.9 L63.4 51 L63.3 51 L63.3 51.1 L63.2 51.2 L56 61 L60.1 63.5 L55.6 69.9 L58.8 72.5 L55.3 77.2 L56 79.1 L54.4 81.7 L54.4 85.5 L64.2 94.7 L67.7 95.7 L70 98.2 L70.3 101.1 L66.5 101.1 L63.3 105.9 L64.9 111.6 L68.7 113.8 L65.8 123.4 L64.4 123.1 L64.2 123.2 L64.1 123.4 L63.9 123.5 L63.8 123.7 L63.6 123.9 L63.5 124 L63.3 124.2 L63.2 124.3 L63.1 124.5 L62.9 124.6 L62.8 124.8 L62.6 125 L62.5 125.1 L62.3 125.3 L62.2 125.4 L62.1 125.6 L61.9 125.8 L61.8 125.9 L61.7 126.1 L61.6 126.2 L61.4 126.4 L61.3 126.6 L61.2 126.7 L61 126.9 L60.9 127.1 L60.8 127.2 L60.7 127.4 L60.6 127.6 L60.4 127.7 L60.3 127.9 L60.2 128.1 L60.1 128.3 L60 128.4 L59.9 128.6 L59.7 128.8 L59.6 128.9 L59.5 129.1 L59.4 129.3 L59.3 129.5 L59.2 129.6 L59.1 129.8 L59 130 L58.9 130.2 L58.8 130.4 L58.7 130.5 L58.6 130.7 L58.5 130.9 L58.4 131.1 L58.3 131.2 L58.2 131.4 L58.1 131.6 L58 131.8 L57.9 132 L57.9 132.2 L57.8 132.4 L57.7 132.5 L57.6 132.7 L57.5 132.9 L57.4 133.1 L57.4 133.3 L57.3 133.5 L57.2 133.7 L57.1 133.9 L57 134.1 L58.5 136.5 L56.9 139.6 L53.9 139.6 L53.7 139.9 L53.5 140.2 L53.4 140.5 L53.2 140.8 L53.1 141.1 L52.9 141.4 L52.8 141.7 L52.6 142 L52.5 142.3 L52.3 142.5 L52.1 142.8 L52 143.1 L51.9 143.4 L51.7 143.7 L51.6 144 L51.4 144.3 L51.3 144.6 L51.2 144.9 L51 145.2 L50.9 145.5 L50.8 145.8 L50.6 146.1 L50.5 146.4 L50.4 146.7 L50.3 147 L50.1 147.3 L50 147.7 L49.9 148 L49.8 148.3 L49.7 148.6 L49.5 148.9 L49.4 149.2 L49.3 149.5 L49.2 149.8 L49.1 150.1 L49 150.4 L48.9 150.7 L48.8 151.1 L48.7 151.4 L48.6 151.7 L48.5 152 L48.4 152.3 L48.3 152.6 L48.2 152.9 L48.1 153.3 L48 153.6 L47.9 153.9 L47.8 154.2 L47.7 154.5 L47.6 154.9 L47.6 155.2 L47.5 155.5 L47.4 155.8 L47.3 156.1 L47.2 156.5 L47.1 156.8 L47.1 157.1 L47 157.4 L46.9 157.8 L46.8 158.1 L46.8 158.4 L46.7 158.7 L46.6 159.1 L46.6 159.4 L48.3 161 L45.8 166.7 L45.8 169.6 L67.1 170.2 L66.5 162.9 L65.5 161.8 L65.4 158.8 L67.3 157.2 L70.9 144.2 L69.5 142.6 L69.5 140.4 L73.6 139.6 L74.1 138.4 L74.4 138.4 L74.6 138.5 L74.8 138.6 L75 138.7 L75.2 138.8 L75.4 138.9 L75.6 139 L75.9 139.1 L76.1 139.2 L76.4 139.2 L76.6 139.3 L76.8 139.4 L77.1 139.5 L77.3 139.6 L77.6 139.7 L77.8 139.7 L78.1 139.8 L78.3 139.9 L78.6 140 L78.8 140 L79.1 140.1 L79.3 140.2 L79.6 140.2 L79.8 140.3 L80.1 140.3 L80.3 140.4 L80.6 140.4 L80.8 140.5 L81.1 140.5 L81.3 140.6 L81.6 140.6 L81.8 140.7 L82.1 140.7 L82.3 140.7 L82.6 140.7 L82.8 140.8 L83.1 140.8 L83.3 140.8 L83.6 140.8 L83.8 140.8 L84.1 140.8 L84.3 140.9 L84.6 140.9 L84.7 140.9 L84.8 140.9 L85 140.9 L85.1 140.9 L85.2 140.8 L85.3 140.8 L85.5 140.8 L85.6 140.8 L85.7 140.8 L85.8 140.8 L86 140.8 L86.1 140.8 L86.2 140.8 L86.3 140.8 L86.5 140.8 L86.6 140.8 L86.7 140.8 L86.8 140.7 L86.9 140.7 L87.1 140.7 L87.2 140.7 L87.3 140.7 L87.4 140.7 L87.6 140.6 L87.7 140.6 L87.8 140.6 L87.9 140.6 L88.1 140.5 L88.2 140.5 L88.3 140.5 L88.4 140.5 L88.5 140.4 L88.7 140.4 L88.8 140.4 L88.9 140.4 L89 140.3 L89.1 140.3 L89.3 140.3 L89.4 140.2 L89.5 140.2 L89.6 140.2 L89.7 140.1 L89.8 140.1 L90 140 L90.1 140 L90.2 140 L90.3 139.9 L90.4 139.9 L90.6 139.8 L90.7 139.8 L90.8 139.8 L90.9 139.7 L91 139.7 L91.1 139.6 L91.3 139.6 L91.4 139.5 L91.5 139.5 L91.6 139.4 L91.7 139.3 L91.8 139.3 L92 139.2 L92.1 139.2 L92.2 139.1 L92.3 139.1 L92.4 139 L92.5 139 L92.6 138.9 L92.7 138.8 L92.8 138.8 L93 138.7 L93.2 138.6 L93.4 138.5 L93.6 138.3 L93.8 138.2 L94 138.1 L94.2 138 L94.4 137.8 L94.6 137.7 L94.8 137.5 L95 137.4 L95.2 137.3 L95.4 137.1 L95.6 137 L95.8 136.8 L96 136.7 L96.2 136.5 L96.4 136.4 L96.5 136.2 L96.7 136 L96.9 135.9 L97.1 135.7 L97.2 135.6 L97.4 135.4 L97.6 135.2 L97.8 135 L97.9 134.9 L98.1 134.7 L98.2 134.5 L98.4 134.4 L98.6 134.2 L98.7 134 L98.9 133.8 L99 133.6 L99.2 133.4 L99.3 133.3 L99.5 133.1 L99.6 132.9 L99.8 132.7 L99.9 132.5 L100.1 132.3 L100.2 132.1 L100.3 131.9 L100.5 131.7 L100.6 131.5 L100.8 131.3 L100.9 131.1 L101 130.9 L101.2 130.7 L101.3 130.5 L101.4 130.3 L101.5 130.1 L101.7 129.9 L101.8 129.6 L101.9 129.4 L102 129.2 L102.2 129 L102.3 128.8 L102.4 128.6 L102.5 128.4 L102.5 128.3 L102.7 128 L102.9 127.7 L103 127.3 L103.2 127 L103.3 126.7 L103.5 126.4 L103.6 126.1 L103.7 125.8 L103.9 125.5 L104 125.2 L104.2 124.8 L104.3 124.5 L104.4 124.2 L104.5 123.9 L104.7 123.5 L104.8 123.2 L104.9 122.9 L105 122.6 L105.2 122.2 L105.3 121.9 L105.4 121.6 L105.5 121.2 L105.7 120.9 L105.8 120.5 L105.9 120.2 L106 119.9 L106.1 119.5 L106.2 119.2 L106.3 118.8 L106.4 118.5 L106.5 118.1 L116.1 128.7 L115 131 L116 138.5 L118 139.5 L118 142 L117.6 144.1 L121.4 162.3 L123.3 162.3 L121.8 166.4 L121.8 169.1 L130.6 168.3 L139.3 169.6 L151 168.5 L151.3 167.1 L146.9 161.7 L139.1 156.7 L138.8 155.2 L139.5 153.3 L135.5 137.5 L133.1 137.5 L132.6 135.8 L133.4 133.9 L133.4 133.7 L133.4 133.5 L133.3 133.4 L133.3 133.2 L133.3 133 L133.2 132.8 L133.2 132.6 L133.2 132.4 L133.1 132.2 L133.1 132 L133.1 131.9 L133 131.7 L133 131.5 L132.9 131.3 L132.9 131.1 L132.9 130.9 L132.8 130.7 L132.8 130.6 L132.7 130.4 L132.7 130.2 L132.6 130 L132.6 129.8 L132.5 129.6 L132.5 129.4 L132.4 129.3 L132.4 129.1 L132.3 128.9 L132.3 128.7 L132.2 128.5 L132.2 128.3 L132.1 128.1 L132.1 128 L132 127.8 L132 127.6 L131.9 127.4 L131.8 127.2 L131.8 127 L131.7 126.8 L131.7 126.7 L131.6 126.5 L131.5 126.3 L131.5 126.1 L131.4 125.9 L131.3 125.7 L131.3 125.5 L131.2 125.4 L131.1 125.2 L131 125 L131 124.8 L130.9 124.6 L130.8 124.4 L130.8 124.2 L130.7 124.1 L130.6 123.9 L130.5 123.7 L130.4 123.5 L130.4 123.3 L130.3 123.1 L130.2 122.9 L130.1 122.8 L130 122.6 L129.9 122.4 L129.9 122.2 L129.8 122 L125.8 121.7 L120.4 108.7 L121.4 107.6 L121.2 106.1 L126.4 105.5 L127.9 111.9 L129.3 113.1 L138.7 111.2 L139.9 109.6 L138.7 103 L145.2 101.6 L145.6 103.4 L143.5 104.4 L144.2 106.8 L153.4 105.4 L152.9 102.5 L149.9 102.5 L149.6 100.6 L149.4 99 L154.2 98.1 L155.2 99.6 L156.6 100.3 L170.5 97.9 L174.3 91.2 L173.1 83.6 L151.5 87.3 L151.7 88.9 L146.9 89.7 L146.6 88.7 L143.1 89.3 L141.7 88.2 L141 83 L142 82.8 L145 77.7 L141 71.2 L133.6 73.3 L133.5 73.2 L133.3 73.1 L133.2 73 L133.1 72.9 L133 72.8 L132.8 72.7 L132.7 72.6 L132.6 72.5 L132.5 72.4 L132.3 72.3 L132.2 72.2 L132.1 72.1 L131.9 71.9 L131.8 71.8 L131.7 71.7 L131.5 71.6 L131.4 71.5 L131.3 71.4 L131.1 71.3 L131 71.2 L130.8 71.1 L130.7 71 L130.5 70.9 L130.4 70.8 L130.3 70.7 L130.1 70.6 L130 70.5 L129.8 70.4 L129.7 70.3 L129.5 70.3 L129.4 70.2 L129.2 70.1 L129.1 70 L128.9 69.9 L128.8 69.8 L128.6 69.7 L128.4 69.6 L128.3 69.5 L128.1 69.4 L128 69.3 L127.8 69.2 L127.6 69.1 L127.5 69 L127.3 68.9 L127.1 68.8 L127 68.7 L126.8 68.7 L126.6 68.6 L126.5 68.5 L126.3 68.4 L126.1 68.3 L125.9 68.2 L125.8 68.1 L125.6 68 L125.4 67.9 L125.2 67.8 L124.9 67.7 L124.5 67.5 L124.1 67.3 L123.8 67.1 L122.2 68.2 L121 67.3 L120.9 66 L119.8 64.6 L119.8 62.7 L117.2 60.1 L118.2 59 L118.4 56.8 L113.9 51.3 L113.8 51.2 L113.8 51.1 L113.7 51 L113.6 50.9 L113.6 50.8 L113.5 50.7 L113.4 50.6 L113.3 50.5 L113.3 50.5 L113.2 50.4 L113.1 50.3 L113 50.2 L113 50.1 L112.9 50 L112.8 50 L112.7 49.9 L112.7 49.8 L112.6 49.7 L112.5 49.6 L112.4 49.6 L112.3 49.5 L112.3 49.4 L112.2 49.3 L112.1 49.3 L112 49.2 L111.9 49.1 L111.9 49.1 L111.8 49 L111.7 48.9 L111.6 48.8 L111.5 48.8 L111.4 48.7 L111.4 48.7 
		  L111.3 48.6 L111.2 48.5 L111.1 48.5 L111 48.4 L110.9 48.3 L110.8 48.3 L110.8 48.2 L110.7 48.2 L110.6 48.1 L110.5 48.1 L110.4 48 L110.3 48 L110.2 47.9 L110.1 47.9 L110 47.8 L109.9 47.8 L109.9 47.7 L109.8 47.7 L109.7 47.6 L109.6 47.6 L109.5 47.5 L109.4 47.5 L109.3 47.4 L109.2 47.4 L109.1 47.4 L109 47.3 L108.9 47.3 L108.8 47.2 L108.7 47.2 L108.6 47.2 L108.5 47.1 L103.8 46.5 L103.8 46.4 L103.9 46.3 L104 46.2 L104.1 46.1 L104.2 46.1 L104.2 46 L104.3 45.9 L104.4 45.8 L104.4 45.7 L104.5 45.6 L104.6 45.5 L104.6 45.4 L104.7 45.3 L104.8 45.2 L104.8 45.1 L104.9 45 L104.9 44.9 L105 44.8 L105 44.7 L105.1 44.7 L105.1 44.6 L105.2 44.5 L105.2 44.4 L105.3 44.3 L105.3 44.2 L105.3 44.1 L105.4 44 L105.4 43.9 L105.4 43.8 L105.5 43.7 L105.5 43.6 L105.5 43.5 L105.5 43.4 L105.5 43.3 L105.6 43.2 L105.6 43.1 L105.6 43 L105.6 42.9 L105.6 42.8 L105.6 42.7 L105.6 42.6 L105.6 42.5 L105.6 42.4 L105.6 42.3 L105.6 42.2 L105.6 42.1 L105.6 42 L105.5 41.9 L105.5 41.8 L105.5 41.7 L105.5 41.6 L105.4 41.5 L105.4 41.3 L105.4 41.2 L105.3 41.1 L105.3 41 L105.3 40.9 L105.2 40.8 L105.2 40.7 L105.1 40.6 L105 40.5 L105 40.4 L104.9 40.3 L104.9 40.2 L103.9 37.3 L104.7 36.2 L105 31.7 L103.9 29.5 L104 29.5 L104 29.5 L104 29.4 L104.1 29.4 L104.1 29.3 L104.1 29.3 L104.2 29.2 L104.2 29.2 L104.2 29.2 L104.3 29.1 L104.3 29.1 L104.3 29 L104.3 29 L104.4 29 L104.4 28.9 L104.4 28.9 L104.4 28.8 L104.5 28.8 L104.5 28.7 L104.5 28.7 L104.5 28.6 L104.5 28.6 L104.5 28.5 L104.6 28.5 L104.6 28.5 L104.6 28.4 L104.6 28.4 L104.6 28.3 L104.6 28.3 L104.6 28.2 L104.7 28.2 L104.7 28.1 L104.7 28.1 L104.7 28 L104.7 28 L104.7 27.9 L104.7 27.9 L104.7 27.8 L104.7 27.8 L104.7 27.7 L104.7 27.7 L104.7 27.7 L104.7 27.6 L104.7 27.6 L104.7 27.5 L104.7 27.5 L104.7 27.4 L104.7 27.4 L104.7 27.3 L104.7 27.3 L104.7 27.2 L104.7 27.2 L104.7 27.1 L104.6 27.1 L104.6 27.1 L104.6 27 L104.6 27 L104.6 26.9 L104.6 26.9 L104.6 26.8 L104.5 26.8 L104.5 26.7 L104.5 26.7 L104.5 26.6 L104.5 26.6 L104.5 26.6 L104.4 26.5 L104.4 26.5 L104.4 26.4 L104.4 26.4 L104.3 26.4 L104.3 26.3 L104.3 26.3 L104.3 26.2 L104.2 26.2 L104.2 26.2 L104.2 26.1 L104.2 26.1 L104.1 26 L104.1 26 L104.1 26 L104 25.9 L104 25.9 L104 25.9 L103.9 25.8 L103.9 25.8 L103.9 25.8 L103.8 25.7 L103.8 25.7 L103.8 25.7 L103.7 25.6 L103.7 25.6 L103.6 25.6 L103.6 25.6 L103.6 25.5 L103.5 25.5 L103.5 25.5 L103.4 25.5 L103.4 25.4 L103.3 25.4 L103.3 25.4 L103.3 25.4 L103.2 25.3 L103.2 25.3 L103.1 25.3 L103.1 25.3 L103 25.3 L103 25.2 L102.9 25.2 L102.9 25.2 L102.8 25.2 L102.8 25.2 L102.7 25.2 L102.7 25.2 L102.6 25.1 L102.5 25.1 L102.5 25.1 L102.4 25.1 L102.4 25.1 L102.3 25.1 L102.3 25.1 L102.2 25.1 L102.2 25.1 L102.1 25.1 L102 25.1 L102 25.1 L101.9 25.1 L101.9 25.1 L101.7 25 L101.6 24.9 L101.5 24.8 L101.4 24.7 L101.3 24.6 L101.2 24.5 L101.1 24.4 L100.9 24.3 L100.8 24.2 L100.7 24.1 L100.6 24 L100.5 23.9 L100.4 23.8 L100.3 23.8 L100.1 23.7 L100 23.6 L99.9 23.5 L99.8 23.4 L99.7 23.3 L99.6 23.2 L99.4 23.2 L99.3 23.1 L99.2 23 L99.1 22.9 L99 22.8 L98.9 22.8 L98.7 22.7 L98.6 22.6 L98.5 22.5 L98.4 22.5 L98.3 22.4 L98.1 22.3 L98 22.3 L97.9 22.2 L97.8 22.1 L97.7 22.1 L97.5 22 L97.4 21.9 L97.3 21.9 L97.2 21.8 L97 21.7 L96.9 21.7 L96.8 21.6 L96.7 21.6 L96.6 21.5 L96.4 21.5 L96.3 21.4 L96.2 21.4 L96.1 21.3 L95.9 21.3 L95.8 21.2 L95.7 21.2 L95.6 21.1 L95.4 21.1 L95.3 21 L95.2 21 L95.1 21 L94.9 20.9 L94.8 20.9 L94.7 20.9 L94.5 20.8 L94.4 20.8 L94.3 20.8 L94.2 20.7 L94 20.7 L93.9 20.7 L93.8 20.6 L93.6 20.6 L93.5 20.6 L93.4 20.6 L93.2 20.6 L93.1 20.5 L93 20.5 L92.9 20.5 L92.7 20.5 L92.6 20.5 L92.5 20.5 L92.3 20.5 L92.2 20.4 L92.1 20.4 L91.9 20.4 L91.8 20.4 L91.7 20.4 L91.5 20.4 L91.4 20.4 z M102.7 116.7 L102.6 117.1 L102.5 117.4 L102.4 117.8 L102.3 118.1 L102.2 118.4 L102.1 118.8 L102 119.1 L101.8 119.5 L101.7 119.8 L101.6 120.1 L101.5 120.4 L101.4 120.8 L101.3 121.1 L101.1 121.4 L101 121.8 L100.9 122.1 L100.8 122.4 L100.6 122.7 L100.5 123 L100.4 123.3 L100.2 123.7 L100.1 124 L100 124.3 L99.8 124.6 L99.7 124.9 L99.5 125.2 L99.4 125.5 L99.3 125.8 L99.1 126.1 L99 126.2 L99 126.4 L98.9 126.5 L98.8 126.6 L98.7 126.8 L98.6 127 L98.5 127.2 L98.4 127.4 L98.3 127.6 L98.2 127.7 L98.1 127.9 L98 128.1 L97.9 128.3 L97.8 128.4 L97.7 128.6 L97.5 128.8 L97.4 129 L97.3 129.1 L97.2 129.3 L97.1 129.5 L97 129.6 L96.9 129.8 L96.7 130 L96.6 130.1 L96.5 130.3 L96.4 130.4 L96.2 130.6 L96.1 130.8 L96 130.9 L95.9 131.1 L95.7 131.2 L95.6 131.4 L95.5 131.5 L95.3 131.7 L95.2 131.8 L95.1 132 L94.9 132.1 L94.8 132.2 L94.7 132.4 L94.5 132.5 L94.4 132.7 L94.2 132.8 L94.1 132.9 L93.9 133.1 L93.8 133.2 L93.6 133.3 L93.5 133.4 L93.3 133.6 L93.2 133.7 L93 133.8 L92.9 133.9 L92.7 134.1 L92.5 134.2 L92.4 134.3 L92.2 134.4 L92 134.5 L91.9 134.6 L91.7 134.7 L91.5 134.8 L91.3 134.9 L91.2 135 L91 135.1 L90.8 135.2 L90.6 135.3 L90.5 135.4 L90.3 135.5 L90.1 135.6 L89.9 135.7 L89.8 135.7 L89.7 135.8 L89.6 135.8 L89.5 135.9 L89.5 135.9 L89.4 135.9 L89.3 136 L89.2 136 L89.1 136 L89 136.1 L88.9 136.1 L88.8 136.1 L88.7 136.2 L88.6 136.2 L88.5 136.2 L88.5 136.3 L88.4 136.3 L88.3 136.3 L88.2 136.3 L88.1 136.4 L88 136.4 L87.9 136.4 L87.8 136.4 L87.7 136.5 L87.6 136.5 L87.5 136.5 L87.4 136.5 L87.3 136.5 L87.2 136.6 L87.1 136.6 L87 136.6 L86.9 136.6 L86.7 136.6 L86.6 136.7 L86.4 136.7 L86.2 136.7 L86 136.7 L85.8 136.7 L85.6 136.8 L85.4 136.8 L85.2 136.8 L85 136.8 L84.8 136.8 L84.6 136.8 L84.4 136.8 L84.2 136.8 L84 136.8 L83.8 136.8 L83.6 136.7 L83.4 136.7 L83.2 136.7 L83 136.7 L82.8 136.7 L82.6 136.6 L82.4 136.6 L82.2 136.6 L82 136.6 L81.8 136.5 L81.6 136.5 L81.4 136.4 L81.2 136.4 L81 136.4 L80.8 136.3 L80.6 136.3 L80.4 136.2 L80.2 136.2 L79.9 136.1 L79.7 136.1 L79.5 136 L79.3 136 L79.1 135.9 L78.9 135.8 L78.7 135.8 L78.5 135.7 L78.3 135.6 L78.1 135.6 L77.9 135.5 L77.7 135.4 L77.5 135.3 L77.3 135.3 L77.1 135.2 L76.9 135.1 L76.7 135 L76.5 135 L76.3 134.9 L76.1 134.8 L75.9 134.7 L75.7 134.6 L78.7 127.6 L77.6 126.9 L80.6 122.8 L80.7 122.9 L80.9 123 L81 123.1 L81.2 123.2 L81.3 123.3 L81.5 123.4 L81.6 123.5 L81.8 123.6 L81.9 123.7 L82.1 123.7 L82.2 123.8 L82.4 123.9 L82.5 124 L82.7 124 L82.9 124.1 L83 124.2 L83.2 124.2 L83.3 124.3 L83.5 124.4 L83.6 124.4 L83.8 124.5 L84 124.5 L84.1 124.6 L84.3 124.6 L84.4 124.7 L84.6 124.7 L84.7 124.7 L84.9 124.8 L85.1 124.8 L85.2 124.8 L85.4 124.8 L85.5 124.9 L85.7 124.9 L85.9 124.9 L86 124.9 L86.2 124.9 L86.3 125 L86.5 125 L86.6 125 L86.8 125 L86.9 125 L87.1 125 L87.3 125 L87.4 125 L87.6 125 L87.7 124.9 L87.9 124.9 L88 124.9 L88.2 124.9 L88.3 124.9 L88.5 124.8 L88.6 124.8 L88.8 124.8 L88.9 124.7 L89.1 124.7 L89.2 124.7 L89.3 124.6 L89.5 124.6 L89.6 124.5 L89.8 124.5 L89.9 124.4 L90.1 124.4 L90.2 124.3 L90.3 124.3 L90.5 124.2 L90.6 124.1 L90.7 124.1 L90.9 124 L91 123.9 L91.1 123.9 L91.2 123.8 L91.4 123.7 L91.5 123.6 L91.6 123.6 L91.7 123.5 L91.9 123.4 L92 123.3 L92.1 123.2 L92.2 123.1 L92.3 123 L92.5 122.9 L92.6 122.8 L92.7 122.7 L92.8 122.6 L92.9 122.5 L93 122.4 L93.1 122.3 L93.2 122.2 L93.3 122.1 
		  L93.4 122 L93.5 121.9 L93.6 121.7 L93.7 121.6 L93.8 121.5 L93.9 121.4 L93.9 121.3 L94 121.1 L94.1 121 L94.2 120.9 L94.3 120.8 L94.3 120.6 L94.4 120.5 L94.5 120.4 L94.6 120.2 L94.6 120.1 L94.7 120 L94.8 119.8 L94.8 119.7 L94.9 119.6 L94.9 119.4 L95 119.3 L95 119.1 L95.1 119 L95.1 118.8 L95.2 118.7 L95.2 118.6 L95.2 118.4 L95.3 118.3 L95.3 118.1 L95.4 118 L95.4 117.8 L95.4 117.7 L95.4 117.5 L95.5 117.4 L95.5 117.2 L95.5 117.1 L95.5 116.9 L95.5 116.8 L102.8 116.4 L102.7 116.7 z M114.7 77.6 L116.5 78.2 L118.4 78.5 L119.5 81.2 L119.6 81.3 L119.8 81.4 L120 81.5 L120.1 81.6 L120.3 81.7 L120.5 81.8 L120.6 81.9 L120.8 81.9 L121 82 L121.2 82.1 L121.3 82.2 L121.5 82.2 L121.7 82.3 L121.9 82.4 L122.1 82.5 L122.2 82.5 L122.4 82.6 L122.6 82.6 L122.8 82.7 L123 82.8 L123.1 82.8 L123.3 82.9 L123.5 83 L123.7 83 L123.9 83.1 L124.1 83.1 L124.3 83.2 L124.5 83.2 L124.7 83.3 L124.9 83.3 L125 83.4 L125.3 83.4 L125.4 83.4 L125.6 83.5 L125.8 83.5 L126 83.5 L126.2 83.6 L126.4 83.6 L126.6 83.6 L126.8 83.7 L127 83.7 L127.3 83.7 L127.5 83.8 L127.7 83.8 L127.9 83.8 L128.1 83.8 L128.3 83.9 L128.5 83.9 L128.7 83.9 L128.9 83.9 L129.1 83.9 L129.3 83.9 L129.6 83.9 L129.8 83.9 L130 83.9 L130.2 84 L130.4 84 L130.7 84 L130.9 84 L131.1 84 L131.3 84 L131.5 84 L131.8 83.9 L132 83.9 L132.8 82.7 L136.1 85 L138.2 84.1 L138.8 88.7 L138 89.3 L123.4 91.4 L123 92.7 L118.2 93.1 L117.9 91.9 L115.8 92.2 L113 89.7 L112 85.5 L110.4 85.5 L110.1 80.9 L112 78.9 L111.8 74.6 L114.7 77.6 z M77 81.2 L79.2 82.2 L81.2 86.3 L80.8 89.8 L77.7 86.5 L73 86.8 L69.8 83.3 L68.7 80.3 L68.7 78.5 L70.4 78.4 L71.4 74.1 L77 81.2 z" fill-opacity="0.71" />
	
    <defs>
        <radialGradient cx="100.4" cy="100.4" r="100.4" gradientUnits="userSpaceOnUse" id="Radial">
			<stop offset="0%" stop-color="#B2B2B2" stop-opacity="1" />
			<stop offset="100%" stop-color="#131313" stop-opacity="1" />
		</radialGradient>
    </defs>
	
</svg>