<?xml version="1.0" encoding="UTF-8" standalone="no"?>
<!DOCTYPE svg PUBLIC "-//W3C//DTD SVG 1.1//EN" "http://www.w3.org/Graphics/SVG/1.1/DTD/svg11.dtd">
<svg width="204" height="204" viewBox="0 0 204 204" version="1.1" xmlns="http://www.w3.org/2000/svg" xmlns:xlink="http://www.w3.org/1999/xlink" xml:space="preserve" xmlns:serif="http://www.serif.com/" style="fill-rule:evenodd;clip-rule:evenodd;stroke-linecap:round;stroke-linejoin:round;stroke-miterlimit:1.5;">
    <g transform="matrix(1,0,0,1,-128.312,-237.162)">
        <g id="Emperor-Troop" serif:id="Emperor Troop">
            <g transform="matrix(1.00601,0,0,1.00601,-4.80232,2.59186)">
                <circle cx="233.356" cy="334.206" r="99.794" style="fill:url(#_Radial1);stroke:black;stroke-width:2.49px;"/>
            </g>
            <g transform="matrix(0.691174,0,0,0.691174,68.666,107.811)">
                <circle cx="233.356" cy="334.206" r="99.794" style="fill:none;stroke:rgb(255,223,196);stroke-opacity:0.76;stroke-width:9.04px;"/>
            </g>
            <g transform="matrix(10.2083,0,0,10.2083,-4241.96,-2275.79)">
                <path d="M434.965,256.288L434.364,255.967L434.353,255.553L434.208,255.491L434.198,255.325L433.856,255.242L433.784,255.418L433.545,255.439L432.054,254.413L431.816,254.362L431.857,254.03L432.075,254.072L432.116,253.916L432.396,253.978L432.478,253.854L433.286,254.072L433.348,254.258L433.918,254.445L433.97,254.61L434.312,254.683L434.364,254.465L434.498,254.393L435.917,254.786L436.042,254.735L436.425,254.289L436.591,254.206L436.394,253.543L436.062,253.347C435.801,252.805 435.739,252.28 436.114,251.793L436.487,251.637L436.694,251.472L436.694,251.202L436.373,251.182L436.156,250.84L435.928,250.819L435.648,249.897L435.192,249.897L435.151,249.68L435.555,249.431L435.555,249.048L435.948,248.975C436.262,248.515 436.774,248.411 437.305,248.478C437.766,248.536 438.043,248.866 438.134,249.338L438.331,249.431L438.393,250.322L438.196,250.622L438.434,250.757L438.901,250.798C439.232,250.42 439.669,250.254 440.206,250.519C440.593,250.71 440.834,251.064 440.983,251.482L440.993,251.731L440.838,252.031C441.095,252.452 441.277,252.874 441.397,253.295L441.563,253.274C441.821,253.81 441.76,254.24 441.521,254.61L441.335,254.527L441.159,254.703L441.179,254.911L440.48,255.579C440.765,256.181 441.008,256.784 441.21,257.386L441.542,257.428L441.842,257.283C442.793,257.2 443.515,257.306 444.08,257.542L444.142,257.8L444.535,257.832L444.794,258.204L444.753,258.401L444.981,258.94L444.97,259.551C444.98,259.969 444.85,260.297 444.515,260.494C444.297,260.621 444.093,260.563 443.903,260.318L443.81,259.541L443.572,258.971L443.344,259.178C442.725,258.863 442.102,258.672 441.469,258.702L441.356,258.64C441.187,258.837 440.931,259.022 440.578,258.94C440.224,258.857 439.998,258.546 439.833,258.215L440.092,257.904C439.771,257.623 439.514,257.295 439.305,256.931L438.911,257.013L438.621,257.044L438.434,256.92C437.872,257.446 437.298,257.937 436.694,258.339L436.353,259.178L436.249,259.271L436.218,259.593L436.383,259.82C436.297,260.666 436.086,261.44 435.71,262.12L435.462,262.161L435.493,262.389L435.42,262.886L434.913,262.855L434.55,262.69C433.964,262.724 433.49,262.524 433.11,262.13L432.965,261.913L433.235,261.602L433.96,261.571L434.301,261.343L434.395,261.229L434.281,261.012C434.658,260.547 434.891,259.95 434.965,259.209L435.203,259.147L435.203,258.95L435.12,258.785C435.031,258.325 435.161,257.866 435.472,257.407L435.866,257.407C436.067,257.03 436.337,256.683 436.663,256.361L436.518,256.309L436.518,256.091L436.125,255.998L436,256.091L435.69,255.967L435.638,256.154L434.965,256.288Z" style="fill:rgb(255,255,201);"/>
                <path d="M437.037,247.848L437.07,247.848L437.101,247.849L437.132,247.85L437.164,247.851L437.195,247.853L437.226,247.855L437.258,247.858L437.289,247.86L437.32,247.864L437.351,247.867L437.382,247.871L437.398,247.873L437.415,247.875L437.432,247.878L437.449,247.88L437.465,247.883L437.482,247.886L437.498,247.89L437.515,247.893L437.531,247.896L437.547,247.9L437.564,247.904L437.58,247.908L437.596,247.912L437.613,247.917L437.629,247.921L437.645,247.926L437.661,247.931L437.677,247.936L437.693,247.941L437.708,247.946L437.724,247.952L437.74,247.958L437.755,247.963L437.771,247.97L437.786,247.976L437.802,247.982L437.817,247.989L437.832,247.995L437.847,248.002L437.862,248.009L437.877,248.017L437.892,248.024L437.907,248.031L437.921,248.039L437.936,248.047L437.95,248.055L437.965,248.063L437.979,248.071L437.993,248.08L438.007,248.089L438.021,248.097L438.035,248.106L438.048,248.115L438.062,248.125L438.075,248.134L438.089,248.143L438.102,248.153L438.115,248.163L438.128,248.173L438.141,248.183L438.153,248.193L438.166,248.203L438.179,248.214L438.191,248.224L438.203,248.235L438.215,248.246L438.227,248.257L438.239,248.268L438.251,248.279L438.262,248.29L438.273,248.301L438.285,248.313L438.296,248.324L438.307,248.336L438.318,248.348L438.328,248.36L438.339,248.372L438.349,248.384L438.36,248.396L438.37,248.408L438.38,248.421L438.39,248.433L438.399,248.446L438.409,248.458L438.418,248.471L438.428,248.484L438.437,248.497L438.446,248.509L438.455,248.522L438.464,248.536L438.472,248.549L438.481,248.562L438.489,248.575L438.497,248.588L438.505,248.602L438.513,248.615L438.521,248.629L438.529,248.642L438.536,248.656L438.544,248.67L438.551,248.684L438.558,248.697L438.565,248.711L438.572,248.725L438.579,248.739L438.585,248.753L438.592,248.767L438.598,248.781L438.605,248.795L438.611,248.81L438.623,248.838L438.634,248.867L438.645,248.896L438.648,248.904L438.917,249.031L438.981,249.958L438.986,249.955L439.001,249.948L439.016,249.94L439.031,249.932L439.047,249.925L439.062,249.918L439.078,249.911L439.093,249.904L439.109,249.897L439.125,249.89L439.141,249.884L439.158,249.878L439.174,249.871L439.19,249.866L439.207,249.86L439.223,249.854L439.24,249.849L439.257,249.844L439.273,249.838L439.29,249.834L439.307,249.829L439.324,249.824L439.342,249.82L439.359,249.816L439.376,249.812L439.394,249.808L439.411,249.805L439.429,249.802L439.446,249.799L439.464,249.796L439.482,249.793L439.5,249.791L439.517,249.788L439.535,249.786L439.553,249.784L439.571,249.783L439.59,249.781L439.608,249.78L439.626,249.779L439.644,249.778L439.662,249.778L439.68,249.778L439.699,249.777L439.717,249.778L439.735,249.778L439.753,249.778L439.772,249.779L439.79,249.78L439.808,249.781L439.827,249.783L439.845,249.784L439.864,249.786L439.882,249.788L439.9,249.79L439.919,249.793L439.937,249.796L439.955,249.799L439.974,249.802L439.992,249.805L440.01,249.808L440.029,249.812L440.047,249.816L440.065,249.82L440.083,249.825L440.101,249.829L440.12,249.834L440.138,249.839L440.156,249.844L440.174,249.849L440.192,249.855L440.21,249.861L440.228,249.867L440.246,249.873L440.264,249.879L440.282,249.886L440.3,249.892L440.317,249.899L440.335,249.906L440.353,249.913L440.371,249.921L440.388,249.929L440.406,249.936L440.424,249.944L440.441,249.952L440.459,249.961L440.476,249.969L440.503,249.983L440.529,249.996L440.555,250.01L440.58,250.025L440.606,250.039L440.631,250.054L440.655,250.07L440.68,250.086L440.704,250.102L440.728,250.118L440.751,250.135L440.774,250.151L440.797,250.169L440.819,250.186L440.842,250.204L440.863,250.222L440.885,250.24L440.906,250.259L440.927,250.278L440.947,250.297L440.968,250.316L440.987,250.335L441.007,250.355L441.026,250.375L441.045,250.395L441.064,250.416L441.082,250.436L441.1,250.457L441.118,250.478L441.135,250.499L441.152,250.52L441.169,250.541L441.185,250.563L441.201,250.584L441.217,250.606L441.232,250.628L441.247,250.65L441.262,250.672L441.277,250.694L441.291,250.717L441.305,250.739L441.319,250.762L441.333,250.784L441.346,250.807L441.359,250.83L441.371,250.853L441.384,250.876L441.396,250.899L441.408,250.922L441.42,250.946L441.431,250.969L441.442,250.992L441.453,251.016L441.464,251.039L441.475,251.063L441.485,251.086L441.495,251.11L441.505,251.134L441.514,251.158L441.524,251.181L441.533,251.205L441.542,251.229L441.551,251.253L441.591,251.363L441.611,251.868L441.534,252.016L441.548,252.041L441.559,252.063L441.571,252.085L441.582,252.107L441.593,252.129L441.604,252.151L441.615,252.173L441.626,252.195L441.637,252.217L441.648,252.239L441.658,252.262L441.669,252.284L441.679,252.306L441.69,252.328L441.7,252.35L441.71,252.372L441.72,252.394L441.729,252.416L441.739,252.439L441.749,252.461L441.758,252.483L441.767,252.505L441.777,252.527L441.786,252.549L441.795,252.572L441.804,252.594L441.816,252.625L441.925,252.611L442.122,253.024L442.13,253.041L442.137,253.057L442.144,253.073L442.159,253.105L442.165,253.121L442.172,253.137L442.179,253.153L442.185,253.169L442.192,253.185L442.198,253.201L442.204,253.218L442.21,253.234L442.216,253.25L442.222,253.266L442.228,253.282L442.233,253.298L442.238,253.314L442.244,253.33L442.249,253.347L442.254,253.363L442.259,253.379L442.263,253.395L442.268,253.411L442.272,253.427L442.277,253.444L442.281,253.46L442.285,253.476L442.289,253.492L442.293,253.508L442.296,253.525L442.3,253.541L442.303,253.557L442.307,253.573L442.31,253.589L442.313,253.606L442.315,253.622L442.318,253.638L442.321,253.654L442.323,253.67L442.325,253.687L442.327,253.703L442.329,253.719L442.331,253.735L442.333,253.751L442.335,253.767L442.336,253.784L442.337,253.8L442.338,253.816L442.339,253.832L442.34,253.848L442.341,253.864L442.342,253.88L442.342,253.896L442.342,253.912L442.342,253.928L442.342,253.944L442.342,253.96L442.342,253.976L442.342,253.992L442.341,254.008L442.34,254.024L442.339,254.039L442.338,254.055L442.337,254.071L442.336,254.087L442.335,254.102L442.333,254.118L442.331,254.134L442.33,254.149L442.328,254.165L442.326,254.18L442.323,254.196L442.321,254.211L442.319,254.227L442.316,254.242L442.313,254.257L442.31,254.272L442.307,254.287L442.304,254.303L442.301,254.318L442.298,254.333L442.294,254.348L442.29,254.363L442.287,254.377L442.283,254.392L442.279,254.407L442.275,254.422L442.27,254.436L442.266,254.451L442.262,254.465L442.257,254.48L442.252,254.494L442.248,254.508L442.243,254.523L442.238,254.537L442.233,254.551L442.227,254.565L442.222,254.579L442.217,254.593L442.211,254.607L442.205,254.62L442.2,254.634L442.194,254.648L442.188,254.661L442.182,254.675L442.176,254.688L442.17,254.701L442.163,254.715L442.157,254.728L442.15,254.741L442.144,254.754L442.137,254.767L442.13,254.78L442.123,254.794L442.11,254.818L442.096,254.844L442.081,254.869L442.066,254.893L442.051,254.918L441.755,255.384L441.629,255.328L441.218,255.72L441.247,255.785L441.272,255.843L441.297,255.902L441.322,255.961L441.347,256.019L441.372,256.078L441.396,256.136L441.42,256.195L441.444,256.253L441.467,256.312L441.491,256.371L441.514,256.429L441.536,256.488L441.559,256.546L441.581,256.605L441.603,256.663L441.621,256.71L441.678,256.682L441.837,256.669L441.885,256.665L441.932,256.662L441.979,256.658L442.025,256.656L442.072,256.653L442.118,256.651L442.164,256.649L442.209,256.647L442.254,256.646L442.299,256.645L442.344,256.644L442.388,256.643L442.432,256.643L442.476,256.643L442.52,256.643L442.563,256.644L442.606,256.645L442.649,256.646L442.691,256.647L442.733,256.649L442.775,256.651L442.817,256.653L442.859,256.655L442.9,256.658L442.941,256.661L442.981,256.665L443.022,256.668L443.062,256.672L443.102,256.676L443.141,256.681L443.181,256.685L443.22,256.69L443.259,256.696L443.298,256.701L443.336,256.707L443.374,256.713L443.412,256.719L443.45,256.726L443.487,256.733L443.525,256.74L443.562,256.748L443.598,256.755L443.635,256.763L443.671,256.771L443.707,256.78L443.743,256.789L443.778,256.798L443.814,256.807L443.849,256.816L443.884,256.826L443.918,256.836L443.953,256.846L443.987,256.857L444.021,256.868L444.054,256.879L444.088,256.89L444.121,256.902L444.154,256.914L444.187,256.926L444.219,256.938L444.251,256.951L444.283,256.963L444.602,257.094L444.633,257.225L444.873,257.244L445.448,258.072L445.392,258.339L445.595,258.821L445.583,259.551L445.583,259.563L445.583,259.588L445.583,259.614L445.583,259.64L445.582,259.666L445.581,259.692L445.58,259.718L445.578,259.744L445.577,259.77L445.574,259.796L445.572,259.822L445.569,259.848L445.566,259.874L445.562,259.9L445.558,259.926L445.554,259.952L445.549,259.978L445.544,260.004L445.539,260.03L445.533,260.055L445.526,260.081L445.52,260.107L445.513,260.133L445.505,260.159L445.497,260.184L445.489,260.21L445.48,260.235L445.47,260.261L445.46,260.286L445.45,260.312L445.44,260.335L445.434,260.349L445.428,260.362L445.422,260.374L445.416,260.387L445.41,260.399L445.404,260.411L445.398,260.424L445.391,260.436L445.385,260.448L445.378,260.46L445.371,260.472L445.364,260.485L445.357,260.497L445.35,260.509L445.343,260.521L445.335,260.532L445.328,260.544L445.32,260.556L445.312,260.568L445.304,260.579L445.296,260.591L445.288,260.602L445.28,260.614L445.272,260.625L445.263,260.636L445.254,260.648L445.246,260.659L445.237,260.67L445.228,260.681L445.219,260.692L445.209,260.703L445.2,260.713L445.191,260.724L445.181,260.734L445.172,260.745L445.162,260.755L445.152,260.766L445.142,260.776L445.132,260.786L445.122,260.796L445.111,260.806L445.101,260.816L445.091,260.826L445.08,260.835L445.069,260.845L445.059,260.854L445.048,260.864L445.037,260.873L445.026,260.882L445.014,260.891L445.003,260.9L444.992,260.909L444.981,260.918L444.969,260.926L444.957,260.935L444.946,260.943L444.934,260.951L444.922,260.96L444.91,260.968L444.898,260.976L444.886,260.984L444.874,260.991L444.862,260.999L444.85,261.007L444.837,261.014L444.823,261.022L444.804,261.033L444.783,261.045L444.762,261.056L444.741,261.067L444.719,261.077L444.696,261.087L444.674,261.096L444.651,261.105L444.627,261.114L444.603,261.122L444.579,261.13L444.555,261.137L444.53,261.143L444.504,261.149L444.479,261.154L444.453,261.159L444.427,261.163L444.401,261.166L444.374,261.168L444.348,261.17L444.321,261.171L444.294,261.172L444.267,261.171L444.24,261.17L444.213,261.168L444.186,261.165L444.16,261.162L444.133,261.158L444.107,261.153L444.081,261.147L444.055,261.141L444.029,261.134L444.004,261.126L443.979,261.118L443.955,261.109L443.931,261.1L443.907,261.09L443.884,261.079L443.861,261.068L443.838,261.057L443.816,261.045L443.795,261.033L443.774,261.02L443.753,261.007L443.733,260.993L443.713,260.98L443.694,260.966L443.675,260.951L443.656,260.937L443.638,260.922L443.62,260.907L443.603,260.892L443.586,260.876L443.569,260.86L443.553,260.844L443.537,260.828L443.521,260.812L443.506,260.795L443.491,260.779L443.476,260.762L443.462,260.745L443.447,260.728L443.433,260.71L443.316,260.561L443.225,259.804L443.04,259.711L443.014,259.697L442.988,259.685L442.962,259.672L442.936,259.659L442.91,259.647L442.884,259.635L442.858,259.623L442.832,259.611L442.806,259.6L442.781,259.589L442.755,259.578L442.729,259.567L442.704,259.556L442.678,259.546L442.653,259.536L442.628,259.526L442.602,259.516L442.577,259.506L442.552,259.497L442.527,259.488L442.502,259.479L442.477,259.47L442.452,259.462L442.427,259.453L442.402,259.445L442.377,259.438L442.352,259.43L442.328,259.423L442.303,259.416L442.278,259.409L442.254,259.402L442.229,259.396L442.205,259.389L442.181,259.383L442.156,259.378L442.132,259.372L442.108,259.367L442.084,259.362L442.06,259.357L442.036,259.353L442.012,259.348L441.988,259.344L441.965,259.34L441.941,259.337L441.917,259.333L441.893,259.33L441.87,259.327L441.846,259.325L441.823,259.322L441.799,259.32L441.788,259.319L441.776,259.318L441.764,259.317L441.753,259.316L441.741,259.315L441.729,259.315L441.718,259.314L441.706,259.313L441.695,259.313L441.683,259.312L441.671,259.312L441.66,259.312L441.648,259.311L441.637,259.311L441.625,259.311L441.613,259.311L441.602,259.311L441.59,259.311L441.579,259.311L441.567,259.311L441.556,259.311L441.544,259.312L441.533,259.312L441.526,259.312L441.517,259.319L441.499,259.332L441.48,259.344L441.461,259.357L441.442,259.369L441.422,259.381L441.402,259.393L441.382,259.405L441.361,259.416L441.34,259.427L441.319,259.438L441.297,259.449L441.274,259.459L441.252,259.469L441.228,259.478L441.205,259.488L441.181,259.496L441.157,259.505L441.132,259.513L441.107,259.521L441.082,259.528L441.056,259.534L441.032,259.54L441.017,259.543L441.004,259.546L440.991,259.549L440.978,259.551L440.964,259.554L440.951,259.556L440.937,259.558L440.923,259.56L440.91,259.562L440.896,259.564L440.882,259.565L440.868,259.567L440.855,259.568L440.841,259.569L440.827,259.57L440.813,259.571L440.799,259.571L440.784,259.572L440.77,259.572L440.756,259.572L440.742,259.572L440.728,259.572L440.713,259.572L440.699,259.571L440.685,259.571L440.67,259.57L440.656,259.569L440.642,259.568L440.627,259.567L440.613,259.565L440.598,259.564L440.584,259.562L440.569,259.56L440.555,259.558L440.54,259.556L440.526,259.554L440.512,259.551L440.497,259.549L440.483,259.546L440.468,259.543L440.454,259.54L440.439,259.536L440.424,259.533L440.41,259.529L440.395,259.525L440.381,259.521L440.366,259.517L440.352,259.513L440.338,259.508L440.323,259.504L440.309,259.499L440.295,259.494L440.281,259.489L440.267,259.484L440.254,259.479L440.24,259.474L440.226,259.468L440.213,259.463L440.2,259.457L440.186,259.451L440.173,259.445L440.16,259.439L440.147,259.433L440.134,259.426L440.121,259.42L440.109,259.413L440.096,259.407L440.084,259.4L440.071,259.393L440.059,259.386L440.047,259.379L440.035,259.372L440.023,259.365L440.011,259.358L439.999,259.35L439.988,259.343L439.976,259.335L439.965,259.328L439.954,259.32L439.941,259.311L439.92,259.296L439.899,259.28L439.878,259.264L439.857,259.247L439.836,259.23L439.817,259.213L439.797,259.196L439.778,259.179L439.759,259.161L439.741,259.143L439.723,259.126L439.705,259.107L439.688,259.089L439.671,259.071L439.655,259.053L439.638,259.034L439.623,259.016L439.607,258.997L439.592,258.979L439.577,258.96L439.562,258.941L439.548,258.922L439.534,258.903L439.52,258.884L439.507,258.866L439.494,258.847L439.481,258.828L439.468,258.809L439.456,258.79L439.443,258.771L439.431,258.752L439.42,258.733L439.408,258.714L439.397,258.695L439.386,258.676L439.375,258.657L439.364,258.638L439.354,258.619L439.343,258.601L439.333,258.582L439.323,258.563L439.314,258.545L439.304,258.526L439.294,258.507L439.105,258.132L439.267,257.937L439.266,257.937L439.252,257.919L439.237,257.902L439.222,257.884L439.208,257.867L439.193,257.849L439.179,257.831L439.165,257.814L439.151,257.796L439.137,257.778L439.123,257.76L439.109,257.742L439.096,257.724L439.082,257.706L439.069,257.688L439.055,257.67L439.042,257.651L439.029,257.633L439.017,257.617L439.007,257.619L438.522,257.671L438.472,257.716L438.417,257.765L438.362,257.814L438.334,257.838L438.306,257.863L438.278,257.887L438.25,257.911L438.222,257.935L438.195,257.959L438.167,257.983L438.139,258.007L438.111,258.031L438.082,258.054L438.054,258.078L438.026,258.102L437.998,258.125L437.97,258.148L437.941,258.172L437.913,258.195L437.884,258.218L437.856,258.241L437.827,258.264L437.799,258.287L437.77,258.31L437.741,258.333L437.712,258.355L437.684,258.378L437.655,258.4L437.626,258.423L437.597,258.445L437.568,258.467L437.539,258.489L437.509,258.511L437.48,258.533L437.451,258.555L437.421,258.577L437.392,258.598L437.362,258.62L437.333,258.641L437.303,258.662L437.274,258.684L437.244,258.705L437.214,258.726L437.192,258.741L436.892,259.478L437.017,259.65L436.988,259.925L436.984,259.968L436.979,260.01L436.974,260.052L436.968,260.094L436.963,260.137L436.957,260.179L436.951,260.221L436.945,260.262L436.939,260.304L436.932,260.346L436.926,260.388L436.919,260.429L436.912,260.471L436.904,260.512L436.897,260.553L436.889,260.594L436.881,260.636L436.873,260.677L436.864,260.718L436.855,260.758L436.846,260.799L436.837,260.84L436.828,260.88L436.818,260.921L436.808,260.961L436.798,261.002L436.788,261.042L436.777,261.082L436.766,261.122L436.755,261.162L436.744,261.202L436.732,261.241L436.721,261.281L436.709,261.32L436.696,261.36L436.684,261.399L436.671,261.438L436.658,261.477L436.645,261.516L436.631,261.555L436.617,261.594L436.603,261.633L436.589,261.671L436.574,261.709L436.559,261.748L436.544,261.786L436.529,261.824L436.513,261.862L436.497,261.9L436.481,261.938L436.465,261.975L436.448,262.013L436.431,262.05L436.414,262.087L436.396,262.124L436.378,262.161L436.36,262.198L436.342,262.235L436.323,262.271L436.304,262.308L436.285,262.344L436.266,262.38L436.104,262.675L436.069,262.681L435.945,263.532L434.762,263.459L434.425,263.306L434.412,263.306L434.395,263.306L434.378,263.305L434.361,263.305L434.344,263.305L434.326,263.304L434.309,263.303L434.292,263.303L434.275,263.302L434.258,263.301L434.241,263.3L434.224,263.298L434.207,263.297L434.19,263.295L434.173,263.294L434.157,263.292L434.14,263.29L434.123,263.289L434.106,263.287L434.089,263.284L434.073,263.282L434.056,263.28L434.039,263.277L434.023,263.275L434.006,263.272L433.99,263.269L433.973,263.266L433.957,263.263L433.94,263.26L433.924,263.257L433.907,263.254L433.891,263.25L433.875,263.247L433.859,263.243L433.842,263.239L433.826,263.235L433.81,263.231L433.794,263.227L433.778,263.223L433.762,263.218L433.746,263.214L433.73,263.209L433.714,263.205L433.698,263.2L433.682,263.195L433.666,263.19L433.651,263.185L433.635,263.179L433.619,263.174L433.604,263.168L433.588,263.163L433.573,263.157L433.557,263.151L433.542,263.145L433.527,263.139L433.511,263.133L433.496,263.127L433.481,263.121L433.466,263.114L433.451,263.108L433.436,263.101L433.421,263.094L433.406,263.087L433.391,263.08L433.376,263.073L433.362,263.066L433.347,263.059L433.332,263.052L433.318,263.044L433.303,263.037L433.289,263.029L433.274,263.021L433.26,263.013L433.246,263.005L433.232,262.997L433.217,262.989L433.203,262.981L433.189,262.972L433.175,262.964L433.161,262.955L433.148,262.947L433.134,262.938L433.12,262.929L433.106,262.92L433.093,262.911L433.079,262.902L433.066,262.893L433.053,262.884L433.039,262.874L433.026,262.865L433.013,262.855L433,262.846L432.987,262.836L432.974,262.826L432.961,262.816L432.948,262.806L432.935,262.796L432.922,262.786L432.91,262.776L432.897,262.766L432.884,262.755L432.872,262.745L432.859,262.734L432.847,262.724L432.835,262.713L432.823,262.702L432.81,262.691L432.798,262.68L432.786,262.669L432.774,262.658L432.762,262.647L432.751,262.636L432.739,262.625L432.727,262.613L432.715,262.602L432.704,262.59L432.692,262.579L432.681,262.567L432.632,262.516L432.197,261.864L432.945,261.002L433.57,260.975L433.553,260.941L433.819,260.609L433.833,260.592L433.846,260.574L433.859,260.557L433.872,260.539L433.885,260.521L433.898,260.503L433.91,260.485L433.923,260.467L433.935,260.448L433.947,260.43L433.959,260.411L433.971,260.392L433.982,260.373L433.994,260.354L434.005,260.334L434.016,260.314L434.027,260.294L434.038,260.274L434.049,260.254L434.059,260.234L434.069,260.213L434.08,260.192L434.09,260.171L434.1,260.15L434.109,260.128L434.119,260.107L434.128,260.085L434.138,260.063L434.147,260.041L434.156,260.018L434.165,259.995L434.173,259.973L434.182,259.949L434.19,259.926L434.198,259.902L434.206,259.879L434.214,259.855L434.222,259.831L434.229,259.806L434.236,259.781L434.243,259.756L434.25,259.731L434.257,259.706L434.264,259.68L434.27,259.655L434.277,259.629L434.283,259.602L434.289,259.576L434.294,259.549L434.3,259.522L434.305,259.495L434.31,259.467L434.315,259.439L434.32,259.412L434.325,259.383L434.329,259.355L434.334,259.326L434.338,259.297L434.342,259.268L434.345,259.239L434.349,259.209L434.352,259.179L434.399,258.725L434.49,258.701L434.489,258.689L434.487,258.674L434.486,258.659L434.485,258.644L434.484,258.628L434.483,258.613L434.482,258.598L434.482,258.583L434.481,258.568L434.481,258.552L434.48,258.537L434.48,258.522L434.48,258.507L434.48,258.492L434.48,258.477L434.48,258.461L434.481,258.446L434.481,258.431L434.482,258.416L434.482,258.401L434.483,258.386L434.484,258.371L434.485,258.356L434.486,258.341L434.487,258.326L434.489,258.311L434.49,258.296L434.491,258.28L434.493,258.265L434.495,258.25L434.497,258.236L434.498,258.221L434.5,258.206L434.503,258.191L434.505,258.176L434.507,258.161L434.51,258.146L434.512,258.131L434.515,258.115L434.52,258.087L434.526,258.057L434.532,258.028L434.539,257.999L434.546,257.969L434.554,257.94L434.561,257.911L434.57,257.882L434.578,257.854L434.587,257.825L434.596,257.796L434.606,257.768L434.616,257.739L434.626,257.711L434.637,257.683L434.648,257.655L434.659,257.627L434.671,257.599L434.682,257.571L434.695,257.544L434.707,257.516L434.72,257.489L434.733,257.461L434.747,257.434L434.76,257.407L434.775,257.38L434.789,257.353L434.804,257.326L434.818,257.299L434.834,257.273L434.849,257.246L434.865,257.22L434.881,257.194L434.897,257.167L434.914,257.141L434.931,257.115L434.948,257.089L435.082,256.889L434.869,256.932L433.761,256.339L433.753,256.036L433.38,256.068L431.806,254.986L431.138,254.841L431.331,253.307L431.629,253.364L431.675,253.191L432.119,253.29L432.213,253.149L433.764,253.566L433.832,253.772L434.16,253.88L434.425,253.737L435.771,254.11L435.885,253.979L435.875,253.948L435.589,253.778L435.496,253.582L435.482,253.551L435.468,253.52L435.454,253.489L435.441,253.458L435.428,253.427L435.416,253.397L435.409,253.38L435.403,253.365L435.397,253.349L435.391,253.333L435.385,253.317L435.379,253.301L435.374,253.285L435.368,253.269L435.363,253.253L435.357,253.237L435.352,253.221L435.347,253.204L435.342,253.188L435.336,253.172L435.332,253.155L435.327,253.139L435.322,253.123L435.317,253.106L435.313,253.09L435.309,253.073L435.304,253.056L435.3,253.04L435.296,253.023L435.292,253.006L435.288,252.989L435.285,252.972L435.281,252.955L435.278,252.938L435.274,252.921L435.271,252.904L435.268,252.887L435.265,252.87L435.262,252.852L435.26,252.835L435.257,252.818L435.255,252.8L435.253,252.783L435.251,252.765L435.249,252.748L435.247,252.73L435.245,252.713L435.244,252.695L435.242,252.677L435.241,252.659L435.24,252.642L435.239,252.624L435.239,252.606L435.238,252.588L435.238,252.57L435.238,252.552L435.238,252.534L435.238,252.516L435.238,252.498L435.239,252.48L435.239,252.461L435.24,252.443L435.241,252.425L435.243,252.407L435.244,252.389L435.246,252.37L435.248,252.352L435.25,252.334L435.252,252.315L435.254,252.297L435.257,252.279L435.26,252.26L435.263,252.242L435.266,252.224L435.269,252.205L435.273,252.187L435.276,252.169L435.28,252.15L435.285,252.132L435.289,252.114L435.294,252.095L435.298,252.077L435.303,252.059L435.309,252.041L435.314,252.022L435.32,252.004L435.326,251.986L435.332,251.968L435.338,251.95L435.344,251.932L435.351,251.914L435.358,251.896L435.365,251.878L435.372,251.86L435.379,251.843L435.387,251.825L435.395,251.807L435.403,251.79L435.411,251.772L435.42,251.754L435.428,251.737L435.437,251.72L435.446,251.702L435.456,251.685L435.465,251.668L435.475,251.651L435.484,251.634L435.494,251.617L435.505,251.6L435.515,251.583L435.526,251.566L435.536,251.55L435.547,251.533L435.558,251.517L435.57,251.5L435.581,251.484L435.593,251.468L435.605,251.452L435.617,251.435L435.638,251.408L435.461,251.392L435.194,250.51L434.686,250.51L434.471,249.38L434.943,249.089L434.943,248.538L435.615,248.414L435.621,248.408L435.634,248.394L435.647,248.381L435.66,248.368L435.674,248.355L435.687,248.342L435.701,248.329L435.714,248.316L435.728,248.304L435.742,248.292L435.756,248.279L435.77,248.268L435.784,248.256L435.799,248.244L435.813,248.233L435.827,248.222L435.842,248.211L435.857,248.2L435.871,248.189L435.886,248.179L435.901,248.168L435.916,248.158L435.931,248.148L435.946,248.139L435.962,248.129L435.977,248.12L435.992,248.11L436.008,248.101L436.023,248.092L436.039,248.084L436.054,248.075L436.07,248.067L436.085,248.059L436.101,248.051L436.117,248.043L436.133,248.035L436.149,248.028L436.165,248.021L436.181,248.013L436.196,248.007L436.213,248L436.229,247.993L436.245,247.987L436.261,247.98L436.277,247.974L436.293,247.968L436.309,247.963L436.325,247.957L436.341,247.952L436.358,247.946L436.374,247.941L436.39,247.936L436.406,247.931L436.423,247.927L436.439,247.922L436.455,247.918L436.471,247.914L436.488,247.909L436.504,247.905L436.52,247.902L436.537,247.898L436.553,247.895L436.569,247.891L436.586,247.888L436.602,247.885L436.618,247.882L436.634,247.879L436.651,247.876L436.667,247.874L436.683,247.871L436.699,247.869L436.716,247.867L436.732,247.865L436.748,247.863L436.764,247.861L436.78,247.859L436.797,247.858L436.813,247.856L436.829,247.855L436.845,247.854L436.861,247.853L436.877,247.852L436.893,247.851L436.909,247.85L436.925,247.849L436.941,247.849L436.957,247.848L436.973,247.848L436.989,247.848L437.005,247.848L437.021,247.848L437.037,247.848ZM437.01,248.46L436.997,248.46L436.985,248.46L436.973,248.46L436.961,248.461L436.949,248.461L436.937,248.462L436.925,248.462L436.913,248.463L436.901,248.464L436.889,248.465L436.877,248.465L436.866,248.466L436.854,248.467L436.842,248.469L436.83,248.47L436.818,248.471L436.807,248.473L436.795,248.474L436.783,248.476L436.771,248.477L436.76,248.479L436.748,248.481L436.737,248.483L436.725,248.485L436.714,248.487L436.702,248.489L436.691,248.491L436.679,248.494L436.668,248.496L436.657,248.499L436.645,248.501L436.634,248.504L436.623,248.507L436.612,248.51L436.6,248.513L436.589,248.516L436.578,248.519L436.567,248.522L436.556,248.526L436.545,248.529L436.534,248.533L436.523,248.536L436.513,248.54L436.502,248.544L436.491,248.548L436.48,248.552L436.47,248.556L436.459,248.56L436.448,248.565L436.438,248.569L436.427,248.574L436.417,248.578L436.406,248.583L436.396,248.588L436.386,248.593L436.375,248.598L436.365,248.603L436.355,248.609L436.345,248.614L436.335,248.62L436.325,248.625L436.315,248.631L436.305,248.637L436.295,248.643L436.285,248.649L436.276,248.655L436.266,248.661L436.256,248.667L436.247,248.674L436.237,248.681L436.227,248.687L436.218,248.694L436.209,248.701L436.199,248.708L436.19,248.715L436.181,248.723L436.172,248.73L436.163,248.737L436.154,248.745L436.145,248.753L436.136,248.761L436.127,248.769L436.118,248.777L436.109,248.785L436.101,248.793L436.092,248.802L436.083,248.81L436.075,248.819L436.067,248.828L436.058,248.837L436.05,248.846L436.042,248.855L436.034,248.865L436.025,248.874L436.017,248.884L436.01,248.893L436.002,248.903L435.994,248.913L435.986,248.923L435.978,248.933L435.971,248.944L435.963,248.954L435.956,248.965L435.948,248.975L435.555,249.048L435.555,249.431L435.151,249.68L435.192,249.897L435.648,249.897L435.928,250.819L436.156,250.84L436.373,251.182L436.694,251.202L436.694,251.472L436.487,251.637L436.114,251.793L436.105,251.804L436.097,251.816L436.089,251.827L436.08,251.839L436.072,251.85L436.064,251.862L436.057,251.873L436.049,251.885L436.042,251.896L436.034,251.908L436.027,251.919L436.02,251.931L436.013,251.942L436.007,251.954L436,251.966L435.994,251.977L435.987,251.989L435.981,252L435.975,252.012L435.97,252.024L435.964,252.035L435.958,252.047L435.953,252.059L435.948,252.071L435.943,252.082L435.938,252.094L435.933,252.106L435.929,252.118L435.924,252.129L435.92,252.141L435.915,252.153L435.911,252.165L435.907,252.177L435.904,252.188L435.9,252.2L435.896,252.212L435.893,252.224L435.89,252.236L435.887,252.248L435.884,252.26L435.881,252.272L435.878,252.284L435.875,252.296L435.873,252.308L435.871,252.32L435.868,252.332L435.866,252.343L435.864,252.356L435.863,252.368L435.861,252.38L435.859,252.392L435.858,252.404L435.856,252.416L435.855,252.428L435.854,252.44L435.853,252.452L435.852,252.464L435.852,252.476L435.851,252.488L435.851,252.5L435.85,252.513L435.85,252.525L435.85,252.537L435.85,252.561L435.851,252.586L435.852,252.61L435.853,252.635L435.855,252.659L435.857,252.684L435.86,252.708L435.864,252.733L435.867,252.757L435.871,252.782L435.876,252.807L435.881,252.832L435.886,252.856L435.892,252.881L435.898,252.906L435.904,252.931L435.911,252.956L435.918,252.981L435.926,253.006L435.934,253.031L435.942,253.056L435.951,253.081L435.96,253.106L435.969,253.132L435.979,253.157L435.984,253.169L435.994,253.195L436.005,253.22L436.016,253.245L436.027,253.27L436.038,253.296L436.05,253.321L436.062,253.347L436.394,253.544L436.591,254.206L436.425,254.289L436.042,254.735L435.918,254.787L434.498,254.393L434.364,254.465L434.312,254.683L433.97,254.61L433.918,254.445L433.348,254.258L433.286,254.072L432.479,253.854L432.396,253.978L432.116,253.916L432.075,254.072L431.857,254.03L431.816,254.362L432.054,254.413L433.545,255.439L433.784,255.418L433.856,255.242L434.198,255.325L434.208,255.491L434.353,255.553L434.364,255.967L434.965,256.288L435.638,256.154L435.69,255.967L436,256.092L436.125,255.998L436.518,256.092L436.518,256.309L436.663,256.361L436.648,256.376L436.633,256.391L436.618,256.406L436.603,256.421L436.588,256.437L436.573,256.452L436.558,256.467L436.544,256.483L436.529,256.498L436.515,256.514L436.5,256.529L436.486,256.545L436.472,256.56L436.458,256.576L436.443,256.591L436.43,256.607L436.416,256.623L436.402,256.639L436.388,256.654L436.374,256.67L436.361,256.686L436.347,256.702L436.334,256.718L436.321,256.734L436.308,256.75L436.295,256.766L436.282,256.782L436.269,256.798L436.256,256.814L436.243,256.831L436.23,256.847L436.218,256.863L436.205,256.88L436.193,256.896L436.181,256.912L436.169,256.929L436.156,256.945L436.144,256.962L436.133,256.978L436.121,256.995L436.109,257.012L436.097,257.028L436.086,257.045L436.074,257.062L436.063,257.079L436.052,257.096L436.041,257.113L436.03,257.13L436.019,257.147L436.008,257.164L435.997,257.181L435.986,257.198L435.976,257.215L435.965,257.232L435.955,257.25L435.944,257.267L435.934,257.284L435.924,257.302L435.914,257.319L435.904,257.336L435.894,257.354L435.885,257.372L435.875,257.389L435.866,257.407L435.472,257.407L435.457,257.428L435.443,257.45L435.429,257.471L435.416,257.493L435.402,257.514L435.389,257.536L435.376,257.557L435.364,257.579L435.352,257.601L435.34,257.622L435.328,257.644L435.316,257.665L435.305,257.687L435.294,257.708L435.284,257.73L435.273,257.751L435.263,257.773L435.253,257.794L435.244,257.816L435.235,257.837L435.226,257.859L435.217,257.88L435.208,257.902L435.2,257.923L435.193,257.945L435.185,257.967L435.178,257.988L435.171,258.01L435.164,258.031L435.158,258.053L435.152,258.074L435.146,258.096L435.14,258.117L435.135,258.139L435.13,258.16L435.126,258.182L435.121,258.203L435.117,258.225L435.115,258.236L435.114,258.246L435.112,258.257L435.11,258.268L435.108,258.279L435.107,258.29L435.106,258.3L435.104,258.311L435.103,258.322L435.102,258.333L435.1,258.343L435.099,258.354L435.098,258.365L435.097,258.376L435.097,258.386L435.096,258.397L435.095,258.408L435.095,258.419L435.094,258.429L435.094,258.44L435.093,258.451L435.093,258.462L435.093,258.473L435.092,258.483L435.092,258.494L435.092,258.505L435.093,258.526L435.093,258.548L435.094,258.569L435.095,258.591L435.097,258.612L435.098,258.634L435.101,258.656L435.103,258.677L435.106,258.699L435.109,258.72L435.112,258.742L435.116,258.763L435.12,258.785L435.203,258.95L435.203,259.147L434.965,259.209L434.961,259.244L434.957,259.278L434.953,259.313L434.949,259.347L434.944,259.38L434.94,259.414L434.935,259.447L434.929,259.48L434.924,259.513L434.918,259.546L434.912,259.579L434.906,259.611L434.9,259.643L434.893,259.675L434.887,259.707L434.88,259.738L434.872,259.769L434.865,259.8L434.857,259.831L434.849,259.862L434.841,259.892L434.833,259.923L434.824,259.953L434.815,259.983L434.806,260.012L434.797,260.042L434.787,260.071L434.778,260.1L434.768,260.129L434.757,260.157L434.747,260.186L434.736,260.214L434.726,260.242L434.715,260.27L434.703,260.297L434.692,260.325L434.68,260.352L434.668,260.379L434.656,260.406L434.643,260.432L434.631,260.459L434.618,260.485L434.605,260.511L434.592,260.537L434.578,260.562L434.564,260.588L434.551,260.613L434.536,260.638L434.522,260.663L434.507,260.687L434.493,260.712L434.478,260.736L434.462,260.76L434.447,260.784L434.431,260.808L434.415,260.831L434.399,260.854L434.383,260.877L434.367,260.9L434.35,260.923L434.333,260.945L434.316,260.968L434.298,260.99L434.281,261.012L434.395,261.229L434.301,261.343L433.96,261.571L433.235,261.602L432.965,261.913L433.11,262.13L433.128,262.149L433.146,262.167L433.164,262.184L433.183,262.202L433.201,262.219L433.22,262.236L433.238,262.252L433.257,262.269L433.276,262.285L433.295,262.3L433.314,262.316L433.334,262.331L433.353,262.346L433.373,262.36L433.393,262.375L433.413,262.389L433.433,262.402L433.453,262.416L433.474,262.429L433.494,262.441L433.515,262.454L433.536,262.466L433.557,262.478L433.578,262.489L433.599,262.5L433.621,262.511L433.642,262.522L433.664,262.532L433.686,262.542L433.708,262.552L433.73,262.561L433.753,262.57L433.775,262.579L433.798,262.588L433.821,262.596L433.844,262.603L433.867,262.611L433.89,262.618L433.913,262.625L433.937,262.631L433.961,262.638L433.984,262.644L434.009,262.649L434.033,262.654L434.057,262.659L434.082,262.664L434.106,262.668L434.131,262.672L434.156,262.676L434.181,262.679L434.206,262.682L434.232,262.684L434.258,262.687L434.283,262.689L434.309,262.69L434.335,262.692L434.362,262.693L434.388,262.693L434.415,262.693L434.428,262.693L434.441,262.693L434.455,262.693L434.468,262.693L434.482,262.693L434.495,262.692L434.509,262.692L434.523,262.691L434.536,262.69L434.55,262.69L434.913,262.855L435.42,262.886L435.493,262.389L435.462,262.161L435.71,262.12L435.728,262.088L435.745,262.056L435.762,262.024L435.779,261.991L435.795,261.959L435.812,261.926L435.828,261.894L435.844,261.861L435.859,261.828L435.875,261.795L435.89,261.761L435.905,261.728L435.919,261.694L435.934,261.661L435.948,261.627L435.962,261.593L435.976,261.559L435.989,261.524L436.003,261.49L436.016,261.456L436.029,261.421L436.041,261.386L436.054,261.352L436.066,261.317L436.078,261.281L436.09,261.246L436.101,261.211L436.112,261.175L436.124,261.14L436.134,261.104L436.145,261.068L436.156,261.032L436.166,260.996L436.176,260.96L436.186,260.924L436.195,260.887L436.205,260.851L436.214,260.814L436.223,260.777L436.232,260.74L436.24,260.703L436.249,260.666L436.257,260.629L436.265,260.591L436.273,260.554L436.28,260.516L436.288,260.479L436.295,260.441L436.302,260.403L436.309,260.365L436.315,260.327L436.322,260.288L436.328,260.25L436.334,260.211L436.34,260.173L436.345,260.134L436.351,260.095L436.356,260.056L436.361,260.017L436.366,259.978L436.371,259.939L436.375,259.9L436.379,259.86L436.383,259.82L436.218,259.593L436.249,259.271L436.353,259.178L436.694,258.339L436.722,258.32L436.751,258.301L436.779,258.282L436.807,258.263L436.835,258.243L436.863,258.224L436.891,258.204L436.919,258.184L436.947,258.164L436.975,258.144L437.003,258.124L437.031,258.104L437.059,258.084L437.086,258.063L437.114,258.042L437.142,258.022L437.169,258.001L437.197,257.98L437.225,257.959L437.252,257.938L437.28,257.917L437.307,257.895L437.335,257.874L437.362,257.852L437.389,257.831L437.417,257.809L437.444,257.787L437.471,257.765L437.498,257.743L437.526,257.721L437.553,257.699L437.58,257.676L437.607,257.654L437.634,257.631L437.661,257.609L437.688,257.586L437.715,257.563L437.742,257.54L437.769,257.517L437.796,257.494L437.823,257.471L437.85,257.448L437.877,257.425L437.903,257.401L437.93,257.378L437.957,257.355L438.01,257.307L438.064,257.26L438.117,257.212L438.17,257.164L438.223,257.116L438.276,257.067L438.329,257.018L438.382,256.969L438.434,256.92L438.621,257.044L438.911,257.013L439.305,256.931L439.324,256.965L439.344,256.998L439.365,257.032L439.386,257.065L439.406,257.099L439.428,257.132L439.449,257.164L439.471,257.197L439.493,257.229L439.516,257.261L439.538,257.293L439.561,257.324L439.585,257.356L439.608,257.387L439.632,257.418L439.657,257.448L439.681,257.479L439.694,257.494L439.706,257.509L439.719,257.524L439.732,257.539L439.744,257.554L439.757,257.568L439.77,257.583L439.783,257.598L439.796,257.612L439.81,257.627L439.823,257.641L439.836,257.656L439.85,257.67L439.863,257.684L439.877,257.699L439.891,257.713L439.904,257.727L439.918,257.741L439.932,257.755L439.946,257.769L439.96,257.783L439.975,257.796L439.989,257.81L440.003,257.824L440.018,257.837L440.032,257.851L440.047,257.864L440.062,257.878L440.077,257.891L440.092,257.904L439.833,258.215L439.848,258.246L439.864,258.277L439.881,258.307L439.889,258.323L439.898,258.338L439.906,258.353L439.915,258.368L439.924,258.383L439.933,258.398L439.942,258.413L439.951,258.427L439.96,258.442L439.969,258.456L439.979,258.471L439.988,258.485L439.998,258.499L440.008,258.513L440.018,258.527L440.028,258.541L440.038,258.555L440.048,258.568L440.058,258.581L440.069,258.595L440.079,258.608L440.09,258.621L440.101,258.633L440.112,258.646L440.123,258.658L440.135,258.671L440.146,258.683L440.158,258.695L440.169,258.706L440.181,258.718L440.193,258.729L440.206,258.74L440.218,258.751L440.23,258.762L440.243,258.772L440.256,258.782L440.269,258.792L440.282,258.802L440.302,258.816L440.322,258.83L440.342,258.843L440.363,258.855L440.385,258.867L440.407,258.878L440.421,258.885L440.436,258.892L440.451,258.899L440.467,258.905L440.482,258.911L440.498,258.917L440.513,258.922L440.529,258.927L440.546,258.932L440.562,258.936L440.579,258.94L440.595,258.944L440.611,258.947L440.627,258.95L440.643,258.952L440.659,258.955L440.675,258.956L440.698,258.958L440.721,258.96L440.744,258.96L440.752,258.96L440.759,258.96L440.767,258.96L440.774,258.96L440.781,258.959L440.789,258.959L440.796,258.958L440.803,258.958L440.81,258.957L440.818,258.956L440.825,258.956L440.832,258.955L440.839,258.954L440.846,258.953L440.853,258.952L440.86,258.95L440.867,258.949L440.874,258.948L440.881,258.947L440.888,258.945L440.895,258.944L440.908,258.94L440.922,258.937L440.935,258.933L440.948,258.929L440.961,258.925L440.974,258.92L440.986,258.916L440.999,258.911L441.011,258.906L441.024,258.9L441.036,258.895L441.048,258.889L441.06,258.883L441.072,258.877L441.083,258.87L441.095,258.864L441.106,258.857L441.117,258.85L441.129,258.843L441.14,258.836L441.15,258.828L441.161,258.821L441.172,258.813L441.182,258.805L441.192,258.797L441.203,258.789L441.213,258.781L441.223,258.773L441.232,258.765L441.242,258.756L441.251,258.748L441.261,258.739L441.27,258.73L441.279,258.721L441.288,258.712L441.297,258.703L441.306,258.694L441.314,258.685L441.323,258.676L441.331,258.667L441.339,258.658L441.348,258.649L441.356,258.64L441.469,258.702L441.484,258.701L441.499,258.7L441.514,258.7L441.529,258.7L441.543,258.699L441.558,258.699L441.573,258.699L441.588,258.699L441.603,258.699L441.632,258.699L441.662,258.699L441.691,258.7L441.721,258.701L441.75,258.703L441.78,258.704L441.809,258.706L441.839,258.709L441.854,258.71L441.883,258.713L441.913,258.716L441.942,258.719L441.972,258.723L442.001,258.727L442.03,258.731L442.06,258.736L442.089,258.74L442.119,258.745L442.148,258.751L442.177,258.756L442.207,258.762L442.236,258.768L442.265,258.775L442.295,258.781L442.324,258.788L442.353,258.795L442.383,258.803L442.412,258.811L442.441,258.819L442.47,258.827L442.5,258.835L442.529,258.844L442.558,258.853L442.587,258.862L442.617,258.871L442.646,258.881L442.675,258.891L442.704,258.901L442.733,258.911L442.763,258.922L442.792,258.933L442.821,258.944L442.85,258.955L442.879,258.967L442.908,258.978L442.937,258.99L442.967,259.002L442.996,259.015L443.025,259.027L443.054,259.04L443.083,259.053L443.112,259.066L443.141,259.079L443.17,259.093L443.199,259.107L443.228,259.121L443.257,259.135L443.286,259.149L443.315,259.164L443.344,259.178L443.572,258.971L443.81,259.541L443.903,260.318L443.912,260.329L443.921,260.34L443.93,260.351L443.939,260.361L443.948,260.372L443.957,260.382L443.966,260.391L443.975,260.401L443.984,260.41L443.994,260.419L444.003,260.427L444.012,260.436L444.021,260.444L444.03,260.452L444.039,260.459L444.049,260.466L444.058,260.473L444.067,260.48L444.076,260.487L444.086,260.493L444.095,260.499L444.104,260.504L444.114,260.51L444.123,260.515L444.132,260.519L444.142,260.524L444.151,260.528L444.161,260.532L444.17,260.536L444.18,260.539L444.189,260.543L444.199,260.545L444.208,260.548L444.218,260.55L444.228,260.552L444.237,260.554L444.247,260.556L444.256,260.557L444.266,260.558L444.276,260.559L444.286,260.559L444.295,260.559L444.305,260.559L444.315,260.559L444.325,260.558L444.334,260.557L444.344,260.556L444.354,260.554L444.364,260.553L444.374,260.551L444.384,260.548L444.394,260.546L444.404,260.543L444.414,260.54L444.424,260.536L444.434,260.533L444.444,260.529L444.454,260.525L444.464,260.52L444.474,260.515L444.484,260.51L444.494,260.505L444.505,260.5L444.515,260.494L444.523,260.489L444.53,260.484L444.538,260.48L444.546,260.475L444.553,260.47L444.561,260.465L444.568,260.46L444.575,260.455L444.582,260.45L444.59,260.445L444.597,260.44L444.604,260.435L444.611,260.43L444.617,260.424L444.624,260.419L444.631,260.414L444.638,260.408L444.644,260.403L444.651,260.397L444.657,260.392L444.663,260.386L444.67,260.381L444.676,260.375L444.682,260.369L444.688,260.364L444.694,260.358L444.7,260.352L444.706,260.346L444.712,260.34L444.718,260.334L444.723,260.328L444.729,260.322L444.734,260.316L444.74,260.31L444.745,260.304L444.75,260.297L444.756,260.291L444.761,260.285L444.766,260.278L444.771,260.272L444.776,260.265L444.781,260.259L444.786,260.252L444.79,260.246L444.795,260.239L444.8,260.233L444.804,260.226L444.809,260.219L444.813,260.212L444.818,260.205L444.822,260.198L444.826,260.192L444.83,260.185L444.835,260.178L444.839,260.171L444.843,260.163L444.846,260.156L444.85,260.149L444.854,260.142L444.858,260.135L444.861,260.127L444.865,260.12L444.869,260.113L444.872,260.105L444.875,260.098L444.879,260.09L444.885,260.075L444.892,260.06L444.898,260.044L444.903,260.029L444.909,260.013L444.914,259.997L444.919,259.981L444.924,259.965L444.928,259.948L444.933,259.932L444.937,259.915L444.941,259.898L444.944,259.881L444.947,259.864L444.951,259.847L444.954,259.83L444.956,259.812L444.959,259.794L444.961,259.776L444.963,259.758L444.965,259.74L444.966,259.722L444.968,259.704L444.969,259.685L444.97,259.666L444.97,259.647L444.971,259.628L444.971,259.609L444.971,259.59L444.971,259.571L444.971,259.551L444.981,258.94L444.753,258.401L444.795,258.204L444.535,257.832L444.142,257.8L444.08,257.542L444.053,257.531L444.026,257.52L443.999,257.509L443.972,257.499L443.944,257.489L443.917,257.479L443.889,257.469L443.86,257.46L443.832,257.45L443.803,257.441L443.774,257.432L443.745,257.423L443.715,257.415L443.686,257.407L443.656,257.398L443.626,257.39L443.595,257.383L443.564,257.375L443.533,257.368L443.502,257.361L443.471,257.354L443.439,257.347L443.407,257.341L443.374,257.335L443.342,257.329L443.309,257.323L443.276,257.317L443.242,257.312L443.209,257.307L443.175,257.302L443.14,257.298L443.106,257.293L443.071,257.289L443.036,257.285L443.001,257.281L442.965,257.278L442.929,257.275L442.893,257.272L442.856,257.269L442.819,257.266L442.782,257.264L442.745,257.262L442.707,257.26L442.669,257.259L442.631,257.258L442.592,257.257L442.553,257.256L442.514,257.255L442.474,257.255L442.434,257.255L442.394,257.255L442.354,257.256L442.313,257.257L442.272,257.258L442.23,257.259L442.188,257.261L442.146,257.262L442.104,257.264L442.061,257.267L442.018,257.269L441.974,257.272L441.931,257.276L441.887,257.279L441.842,257.283L441.542,257.428L441.21,257.386L441.191,257.33L441.172,257.273L441.152,257.217L441.132,257.16L441.112,257.104L441.092,257.047L441.072,256.991L441.051,256.934L441.03,256.878L441.009,256.821L440.987,256.765L440.965,256.708L440.943,256.652L440.921,256.596L440.899,256.539L440.876,256.483L440.853,256.426L440.83,256.37L440.807,256.313L440.783,256.257L440.759,256.2L440.735,256.144L440.711,256.087L440.686,256.031L440.661,255.974L440.636,255.918L440.61,255.861L440.585,255.805L440.559,255.748L440.533,255.692L440.506,255.635L440.48,255.579L441.179,254.911L441.159,254.703L441.335,254.527L441.521,254.61L441.532,254.593L441.543,254.575L441.554,254.558L441.564,254.54L441.574,254.522L441.584,254.504L441.588,254.495L441.593,254.486L441.598,254.477L441.602,254.468L441.607,254.459L441.611,254.45L441.615,254.441L441.62,254.432L441.624,254.423L441.628,254.414L441.632,254.404L441.636,254.395L441.64,254.386L441.644,254.377L441.647,254.367L441.651,254.358L441.654,254.349L441.658,254.339L441.661,254.33L441.665,254.321L441.668,254.311L441.671,254.302L441.674,254.292L441.677,254.283L441.68,254.273L441.683,254.263L441.686,254.254L441.689,254.244L441.691,254.234L441.694,254.225L441.696,254.215L441.699,254.205L441.701,254.195L441.703,254.186L441.705,254.176L441.707,254.166L441.709,254.156L441.711,254.146L441.713,254.136L441.715,254.126L441.716,254.116L441.718,254.106L441.719,254.096L441.721,254.086L441.722,254.076L441.723,254.066L441.724,254.056L441.725,254.045L441.726,254.035L441.727,254.025L441.728,254.015L441.728,254.004L441.729,253.994L441.729,253.983L441.73,253.973L441.73,253.963L441.73,253.952L441.73,253.942L441.73,253.931L441.73,253.92L441.73,253.91L441.73,253.899L441.729,253.888L441.729,253.878L441.728,253.867L441.727,253.856L441.727,253.845L441.726,253.835L441.725,253.824L441.724,253.813L441.723,253.802L441.721,253.791L441.72,253.78L441.719,253.769L441.717,253.758L441.715,253.747L441.714,253.736L441.712,253.724L441.71,253.713L441.708,253.702L441.706,253.691L441.703,253.679L441.701,253.668L441.699,253.657L441.696,253.645L441.693,253.634L441.691,253.622L441.688,253.611L441.685,253.599L441.682,253.588L441.678,253.576L441.675,253.565L441.672,253.553L441.668,253.541L441.665,253.529L441.661,253.518L441.657,253.506L441.653,253.494L441.649,253.482L441.645,253.47L441.64,253.458L441.636,253.446L441.632,253.434L441.627,253.422L441.622,253.41L441.617,253.398L441.612,253.385L441.607,253.373L441.602,253.361L441.597,253.349L441.591,253.336L441.586,253.324L441.58,253.311L441.575,253.299L441.569,253.286L441.563,253.274L441.397,253.295L441.391,253.275L441.385,253.255L441.38,253.236L441.374,253.216L441.368,253.196L441.362,253.176L441.355,253.157L441.349,253.137L441.343,253.117L441.336,253.097L441.33,253.078L441.323,253.058L441.316,253.038L441.309,253.018L441.302,252.999L441.295,252.979L441.288,252.959L441.281,252.939L441.273,252.92L441.266,252.9L441.258,252.88L441.251,252.86L441.243,252.841L441.235,252.821L441.227,252.801L441.219,252.781L441.211,252.762L441.203,252.742L441.195,252.722L441.186,252.702L441.178,252.683L441.169,252.663L441.16,252.643L441.151,252.623L441.142,252.604L441.133,252.584L441.124,252.564L441.115,252.544L441.106,252.525L441.096,252.505L441.087,252.485L441.077,252.465L441.067,252.446L441.057,252.426L441.047,252.406L441.037,252.386L441.027,252.367L441.017,252.347L441.006,252.327L440.996,252.307L440.985,252.288L440.975,252.268L440.964,252.248L440.953,252.228L440.942,252.209L440.931,252.189L440.919,252.169L440.908,252.149L440.897,252.13L440.885,252.11L440.873,252.09L440.862,252.07L440.85,252.051L440.838,252.031L440.993,251.731L440.983,251.482L440.976,251.463L440.969,251.443L440.961,251.424L440.954,251.405L440.946,251.385L440.938,251.366L440.931,251.347L440.923,251.329L440.914,251.31L440.906,251.291L440.898,251.273L440.889,251.254L440.88,251.236L440.871,251.218L440.862,251.2L440.853,251.182L440.844,251.164L440.834,251.147L440.825,251.129L440.815,251.112L440.805,251.095L440.795,251.078L440.784,251.061L440.774,251.044L440.763,251.027L440.752,251.011L440.741,250.995L440.73,250.978L440.719,250.962L440.707,250.947L440.696,250.931L440.684,250.915L440.672,250.9L440.66,250.885L440.647,250.87L440.635,250.855L440.622,250.84L440.609,250.826L440.596,250.811L440.583,250.797L440.569,250.783L440.556,250.77L440.542,250.756L440.528,250.743L440.514,250.729L440.499,250.716L440.485,250.704L440.47,250.691L440.455,250.679L440.44,250.666L440.424,250.654L440.409,250.643L440.393,250.631L440.377,250.62L440.369,250.614L440.361,250.609L440.353,250.603L440.344,250.598L440.336,250.592L440.328,250.587L440.319,250.582L440.311,250.577L440.302,250.571L440.294,250.566L440.285,250.561L440.277,250.556L440.268,250.551L440.259,250.547L440.25,250.542L440.242,250.537L440.233,250.532L440.224,250.528L440.215,250.523L440.206,250.519L440.193,250.512L440.181,250.507L440.168,250.501L440.156,250.495L440.143,250.49L440.131,250.484L440.119,250.479L440.106,250.474L440.094,250.469L440.082,250.464L440.07,250.46L440.057,250.455L440.045,250.451L440.033,250.447L440.021,250.443L440.009,250.439L439.997,250.436L439.985,250.432L439.973,250.429L439.961,250.425L439.95,250.422L439.938,250.419L439.926,250.417L439.914,250.414L439.903,250.411L439.891,250.409L439.879,250.407L439.868,250.405L439.856,250.403L439.845,250.401L439.833,250.399L439.822,250.398L439.811,250.396L439.799,250.395L439.788,250.394L439.777,250.393L439.765,250.392L439.754,250.391L439.743,250.391L439.732,250.39L439.721,250.39L439.71,250.39L439.699,250.39L439.688,250.39L439.677,250.39L439.666,250.39L439.655,250.391L439.644,250.391L439.634,250.392L439.623,250.393L439.612,250.394L439.601,250.395L439.591,250.396L439.58,250.398L439.57,250.399L439.559,250.401L439.549,250.402L439.538,250.404L439.528,250.406L439.517,250.408L439.507,250.41L439.497,250.413L439.486,250.415L439.476,250.418L439.466,250.42L439.456,250.423L439.446,250.426L439.436,250.429L439.426,250.432L439.416,250.435L439.406,250.439L439.396,250.442L439.386,250.446L439.376,250.45L439.366,250.453L439.356,250.457L439.347,250.461L439.337,250.465L439.327,250.47L439.318,250.474L439.308,250.479L439.299,250.483L439.289,250.488L439.28,250.493L439.27,250.497L439.261,250.502L439.251,250.508L439.242,250.513L439.233,250.518L439.224,250.523L439.214,250.529L439.205,250.535L439.196,250.54L439.187,250.546L439.178,250.552L439.169,250.558L439.16,250.564L439.151,250.57L439.142,250.577L439.133,250.583L439.124,250.59L439.116,250.596L439.107,250.603L439.098,250.61L439.09,250.616L439.081,250.623L439.072,250.63L439.064,250.638L439.055,250.645L439.047,250.652L439.038,250.659L439.03,250.667L439.022,250.675L439.013,250.682L439.005,250.69L438.997,250.698L438.988,250.706L438.98,250.714L438.972,250.722L438.964,250.73L438.956,250.738L438.948,250.747L438.94,250.755L438.932,250.764L438.924,250.772L438.916,250.781L438.908,250.79L438.901,250.798L438.434,250.757L438.196,250.622L438.393,250.322L438.331,249.431L438.134,249.338L438.132,249.327L438.13,249.316L438.127,249.305L438.125,249.294L438.123,249.283L438.12,249.273L438.118,249.262L438.115,249.251L438.112,249.241L438.109,249.23L438.107,249.22L438.104,249.209L438.101,249.199L438.098,249.188L438.094,249.178L438.091,249.168L438.088,249.158L438.085,249.148L438.081,249.138L438.078,249.128L438.074,249.118L438.071,249.108L438.067,249.098L438.063,249.088L438.059,249.079L438.056,249.069L438.052,249.06L438.048,249.05L438.044,249.041L438.039,249.031L438.035,249.022L438.031,249.013L438.027,249.004L438.022,248.995L438.018,248.985L438.013,248.976L438.009,248.968L438.004,248.959L437.999,248.95L437.994,248.941L437.989,248.933L437.984,248.924L437.979,248.915L437.974,248.907L437.969,248.899L437.964,248.89L437.959,248.882L437.953,248.874L437.948,248.866L437.942,248.858L437.937,248.85L437.931,248.842L437.925,248.834L437.92,248.826L437.914,248.819L437.908,248.811L437.902,248.804L437.896,248.796L437.89,248.789L437.884,248.781L437.877,248.774L437.871,248.767L437.865,248.76L437.858,248.753L437.852,248.746L437.845,248.739L437.839,248.732L437.832,248.726L437.825,248.719L437.818,248.712L437.811,248.706L437.804,248.7L437.797,248.693L437.79,248.687L437.783,248.681L437.776,248.675L437.768,248.669L437.761,248.663L437.753,248.657L437.746,248.651L437.738,248.646L437.731,248.64L437.723,248.635L437.715,248.629L437.707,248.624L437.699,248.619L437.691,248.613L437.683,248.608L437.675,248.603L437.667,248.598L437.659,248.594L437.65,248.589L437.642,248.584L437.633,248.58L437.625,248.575L437.616,248.571L437.608,248.566L437.599,248.562L437.59,248.558L437.581,248.554L437.572,248.55L437.563,248.546L437.554,248.542L437.545,248.539L437.536,248.535L437.527,248.532L437.517,248.528L437.508,248.525L437.498,248.522L437.489,248.518L437.479,248.515L437.469,248.512L437.46,248.51L437.45,248.507L437.44,248.504L437.43,248.502L437.42,248.499L437.41,248.497L437.4,248.494L437.39,248.492L437.379,248.49L437.369,248.488L437.358,248.486L437.348,248.484L437.337,248.483L437.327,248.481L437.316,248.48L437.305,248.478L437.28,248.475L437.256,248.472L437.231,248.47L437.206,248.468L437.181,248.466L437.156,248.464L437.132,248.463L437.107,248.461L437.083,248.461L437.058,248.46L437.046,248.46L437.034,248.46L437.022,248.46L437.01,248.46Z" style="fill-opacity:0.71;"/>
            </g>
        </g>
    </g>
    <defs>
        <radialGradient id="_Radial1" cx="0" cy="0" r="1" gradientUnits="userSpaceOnUse" gradientTransform="matrix(99.7942,0,0,99.7942,233.356,334.206)"><stop offset="0" style="stop-color:rgb(255,169,114);stop-opacity:1"/><stop offset="1" style="stop-color:rgb(161,38,7);stop-opacity:1"/></radialGradient>
    </defs>
</svg>
