<?xml version="1.0" encoding="utf-8"?>
<!DOCTYPE svg PUBLIC "-//W3C//DTD SVG 1.1//EN" "http://www.w3.org/Graphics/SVG/1.1/DTD/svg11.dtd">
<svg version="1.1" xmlns="http://www.w3.org/2000/svg" xmlns:xlink="http://www.w3.org/1999/xlink" xmlns:xml="http://www.w3.org/XML/1998/namespace" xmlns:serif="http://www.serif.com/" width="91" height="91" viewBox="0, 0, 91, 91" xml:space="preserve" fill-rule="evenodd" style="clip-rule:evenodd;">
    
	<filter xmlns="http://www.w3.org/2000/svg" x="-0.2" width="300%" height="300%" id="dropshadow">
      <feGaussianBlur stdDeviation="2" in="SourceAlpha" /> 
      <feOffset dx="0" dy="0" result="offsetblur" /> 
      <feMerge> 
        <feMergeNode />
        <feMergeNode in="SourceGraphic" /> 
      </feMerge>
    </filter>
	
	<path d="M7.4 70.4 C5.8 67.9 4.4 65.2 3.3 62.5 C2.2 59.7 1.3 56.8 0.8 53.9 C0.2 51 -0 48 0 45 C0 42.1 0.4 39.1 1 36.2 C1.6 33.3 2.5 30.4 3.6 27.7 C4.8 24.9 6.2 22.3 7.9 19.8 C9.6 17.4 11.5 15.1 13.6 13 C15.8 10.9 18.1 9.1 20.6 7.4 C23.1 5.8 25.7 4.4 28.5 3.3 C31.2 2.2 34.1 1.3 37 0.8 C39.9 0.2 42.9 -0 45.9 0 C48.9 0 51.9 0.4 54.8 1 C57.7 1.6 60.5 2.5 63.3 3.6 C66 4.8 68.6 6.2 71.1 7.9 C73.6 9.6 75.8 11.5 77.9 13.6 C80 15.8 81.9 18.1 83.5 20.6 C85.1 23.1 86.5 25.7 87.6 28.5 C88.8 31.2 89.6 34.1 90.2 37 C90.7 39.9 91 42.9 90.9 45.9 C90.9 48.9 90.6 51.9 90 54.8 C89.4 57.7 88.5 60.5 87.3 63.3 C86.1 66 84.7 68.6 83 71.1 C81.4 73.5 79.4 75.8 77.3 77.9 C75.2 80 72.9 81.9 70.4 83.5 C67.9 85.1 65.2 86.5 62.5 87.6 C59.7 88.8 56.8 89.6 53.9 90.1 C51 90.7 48 91 45 90.9 C42.1 90.9 39.1 90.6 36.2 90 C33.3 89.4 30.4 88.5 27.7 87.3 C24.9 86.1 22.3 84.7 19.8 83 C17.4 81.4 15.1 79.4 13 77.3 C10.9 75.2 9.1 72.9 7.4 70.4 z" fill-rule="nonzero" style="fill:#ABA79D;" />
    
	<g filter="url(#dropshadow)">
        <path d="M58.388 48.922 C58.421 48.488 58.473 47.707 58.592 47.115 C58.711 46.522 58.89 45.934 59.103 45.368 C59.315 44.801 59.57 44.242 59.866 43.716 C60.163 43.188 60.499 42.672 60.88 42.204 C61.261 41.736 61.688 41.288 62.154 40.905 C62.62 40.523 63.139 40.187 63.674 39.907 C64.207 39.626 64.782 39.401 65.359 39.223 C65.937 39.044 66.538 38.915 67.137 38.834 C67.737 38.752 68.35 38.716 68.954 38.732 C69.558 38.749 70.172 38.808 70.763 38.931 C71.354 39.054 71.95 39.224 72.5 39.47 C73.05 39.714 73.587 40.031 74.06 40.401 C74.534 40.77 74.969 41.217 75.342 41.689 C75.716 42.161 76.035 42.692 76.301 43.234 C76.568 43.775 76.778 44.355 76.941 44.937 C77.105 45.519 77.216 46.123 77.281 46.725 C77.347 47.326 77.364 47.94 77.336 48.544 C77.308 49.148 77.229 49.757 77.111 50.35 C76.993 50.944 76.825 51.533 76.627 52.105 C76.429 52.677 76.187 53.239 75.922 53.784 C75.657 54.329 75.357 54.86 75.039 55.377 C74.723 55.894 74.377 56.396 74.019 56.886 C73.661 57.376 73.282 57.851 72.893 58.318 C72.504 58.783 72.098 59.236 71.685 59.681 C71.272 60.126 70.846 60.56 70.414 60.986 C69.983 61.413 69.541 61.831 69.095 62.242 C68.648 62.653 67.963 63.251 67.735 63.455 C67.732 63.459 67.729 63.461 67.725 63.465 C67.722 63.468 67.719 63.472 67.716 63.475 C67.712 63.478 67.71 63.482 67.706 63.486 C67.704 63.49 67.701 63.493 67.698 63.497 C67.696 63.501 67.693 63.505 67.691 63.509 C67.689 63.513 67.687 63.518 67.685 63.522 C67.683 63.526 67.681 63.53 67.679 63.535 C67.677 63.539 67.676 63.543 67.674 63.548 C67.672 63.552 67.671 63.556 67.67 63.561 C67.669 63.566 67.668 63.57 67.667 63.575 C67.666 63.579 67.666 63.584 67.665 63.589 C67.664 63.593 67.664 63.598 67.664 63.603 C67.664 63.608 67.663 63.612 67.664 63.617 C67.664 63.621 67.664 63.626 67.664 63.631 C67.664 63.635 67.665 63.64 67.666 63.645 C67.666 63.65 67.668 63.654 67.668 63.659 C67.67 63.663 67.67 63.667 67.672 63.672 C67.673 63.676 67.675 63.681 67.676 63.686 C67.678 63.69 67.679 63.694 67.681 63.698 C67.683 63.703 67.685 63.707 67.688 63.711 C67.69 63.715 67.692 63.719 67.695 63.723 C67.697 63.727 67.7 63.731 67.702 63.735 C67.705 63.739 67.708 63.742 67.711 63.746 C67.714 63.749 67.717 63.753 67.72 63.756 C67.723 63.76 67.727 63.763 67.73 63.766 C67.734 63.77 67.737 63.773 67.741 63.776 C67.744 63.779 67.748 63.781 67.752 63.784 C67.832 63.85 68.073 64.029 68.218 64.168 C68.362 64.307 68.498 64.46 68.62 64.619 C68.742 64.778 68.853 64.949 68.949 65.125 C69.046 65.301 69.13 65.487 69.198 65.675 C69.267 65.864 69.322 66.06 69.361 66.257 C69.4 66.453 69.425 66.655 69.433 66.856 C69.442 67.057 69.436 67.26 69.414 67.459 C69.393 67.659 69.355 67.86 69.304 68.054 C69.252 68.247 69.185 68.439 69.105 68.624 C69.025 68.807 68.929 68.987 68.821 69.157 C68.714 69.327 68.592 69.49 68.461 69.641 C68.329 69.792 68.184 69.935 68.031 70.065 C67.878 70.195 67.713 70.314 67.542 70.419 C67.371 70.524 67.19 70.617 67.005 70.695 C66.82 70.773 66.626 70.837 66.432 70.886 C66.237 70.935 66.037 70.97 65.837 70.989 C65.637 71.008 65.433 71.011 65.233 70.999 C65.032 70.988 64.831 70.96 64.634 70.918 C64.438 70.876 64.243 70.819 64.055 70.748 C63.868 70.677 63.683 70.59 63.508 70.492 C63.334 70.393 63.165 70.28 63.007 70.156 C62.849 70.032 62.699 69.894 62.562 69.747 C62.425 69.601 62.298 69.442 62.184 69.276 C62.071 69.11 61.969 68.934 61.882 68.753 C61.795 68.572 61.721 68.383 61.663 68.191 C61.604 67.999 61.56 67.8 61.531 67.602 C61.502 67.403 61.497 67.119 61.49 66.999 C61.488 66.96 61.491 66.921 61.493 66.882 C61.494 66.843 61.497 66.804 61.499 66.765 C61.502 66.726 61.505 66.687 61.509 66.647 C61.512 66.609 61.517 66.57 61.522 66.531 C61.527 66.493 61.532 66.454 61.538 66.415 C61.545 66.377 61.551 66.338 61.558 66.299 C61.566 66.261 61.573 66.223 61.581 66.184 C61.59 66.146 61.599 66.108 61.608 66.07 C61.617 66.032 61.628 65.995 61.638 65.957 C61.649 65.919 61.66 65.882 61.672 65.845 C61.684 65.807 61.695 65.77 61.709 65.733 C61.721 65.697 61.735 65.66 61.749 65.623 C61.762 65.586 61.777 65.55 61.792 65.514 C61.806 65.478 61.822 65.442 61.838 65.407 C61.854 65.371 61.871 65.335 61.888 65.3 C61.905 65.265 61.922 65.23 61.94 65.195 C61.958 65.161 61.977 65.127 61.996 65.092 C62.015 65.058 62.035 65.024 62.055 64.991 C62.075 64.957 62.096 64.924 62.117 64.891 C62.137 64.858 62.159 64.826 62.181 64.793 C62.203 64.761 62.225 64.729 62.248 64.698 C62.271 64.666 62.295 64.635 62.319 64.603 C62.343 64.572 62.367 64.542 62.392 64.511 C62.417 64.481 62.442 64.452 62.467 64.422 C62.494 64.393 62.519 64.364 62.546 64.335 C62.572 64.306 62.599 64.278 62.626 64.25 C62.654 64.221 62.681 64.194 62.708 64.165 C62.854 64.01 63.236 63.599 63.501 63.317 C63.767 63.035 64.033 62.754 64.299 62.473 C64.565 62.191 64.831 61.91 65.096 61.628 C65.362 61.346 65.627 61.064 65.89 60.78 C66.153 60.496 66.415 60.212 66.675 59.924 C66.934 59.637 67.193 59.348 67.447 59.057 C67.702 58.765 67.955 58.472 68.203 58.175 C68.45 57.877 68.695 57.578 68.934 57.273 C69.173 56.968 69.408 56.66 69.635 56.347 C69.862 56.034 70.084 55.716 70.297 55.392 C70.51 55.07 70.717 54.742 70.913 54.409 C71.11 54.075 71.3 53.737 71.477 53.393 C71.653 53.049 71.822 52.699 71.975 52.344 C72.127 51.989 72.271 51.628 72.393 51.261 C72.516 50.894 72.626 50.521 72.71 50.144 C72.793 49.766 72.861 49.382 72.893 48.998 C72.926 48.614 72.935 48.222 72.906 47.838 C72.877 47.454 72.818 47.065 72.72 46.693 C72.622 46.321 72.49 45.949 72.319 45.605 C72.147 45.261 71.938 44.924 71.691 44.631 C71.445 44.337 71.156 44.061 70.842 43.845 C70.527 43.628 70.168 43.451 69.805 43.331 C69.442 43.21 69.048 43.144 68.666 43.123 C68.283 43.102 67.887 43.134 67.51 43.206 C67.133 43.278 66.755 43.398 66.405 43.556 C66.056 43.715 65.716 43.92 65.415 44.157 C65.113 44.394 64.735 44.84 64.598 44.979 C64.594 44.982 64.592 44.987 64.589 44.991 C64.586 44.995 64.584 44.998 64.581 45.003 C64.579 45.007 64.577 45.012 64.575 45.016 C64.572 45.02 64.57 45.025 64.568 45.029 C64.567 45.034 64.565 45.038 64.563 45.043 C64.562 45.048 64.56 45.052 64.56 45.057 C64.558 45.062 64.557 45.067 64.556 45.072 C64.556 45.076 64.555 45.081 64.554 45.086 C64.554 45.091 64.553 45.096 64.553 45.101 C64.553 45.106 64.553 45.111 64.553 45.116 C64.553 45.12 64.554 45.125 64.554 45.13 C64.555 45.135 64.556 45.14 64.556 45.145 C64.557 45.149 64.558 45.155 64.56 45.159 C64.561 45.164 64.562 45.168 64.563 45.173 C64.565 45.177 64.567 45.182 64.569 45.187 C64.571 45.191 64.573 45.196 64.575 45.2 C64.577 45.205 64.579 45.209 64.582 45.214 C64.584 45.217 64.586 45.221 64.59 45.226 C64.592 45.23 64.595 45.234 64.598 45.238 C64.601 45.241 64.604 45.245 64.607 45.249 C64.611 45.252 64.614 45.256 64.618 45.259 C64.621 45.263 64.625 45.266 64.629 45.269 C64.632 45.272 64.636 45.275 64.64 45.278 C64.644 45.281 64.649 45.284 64.653 45.286 C64.657 45.288 64.661 45.291 64.666 45.294 C64.67 45.296 64.674 45.298 64.679 45.299 C64.684 45.301 64.688 45.303 64.693 45.305 C64.816 45.36 65.188 45.504 65.419 45.633 C65.65 45.761 65.874 45.911 66.08 46.077 C66.286 46.243 66.482 46.429 66.657 46.627 C66.833 46.825 66.994 47.041 67.134 47.266 C67.273 47.49 67.396 47.73 67.496 47.975 C67.597 48.22 67.677 48.477 67.735 48.735 C67.793 48.994 67.829 49.261 67.843 49.525 C67.856 49.789 67.847 50.058 67.816 50.321 C67.785 50.584 67.731 50.848 67.656 51.102 C67.581 51.356 67.484 51.607 67.367 51.845 C67.251 52.082 67.113 52.314 66.958 52.528 C66.804 52.743 66.629 52.948 66.44 53.134 C66.252 53.32 66.044 53.492 65.827 53.644 C65.61 53.795 65.377 53.931 65.138 54.043 C64.899 54.156 64.646 54.251 64.392 54.322 C64.137 54.393 63.872 54.443 63.609 54.471 C63.346 54.498 63.076 54.503 62.812 54.487 C62.548 54.47 62.282 54.43 62.023 54.371 C61.766 54.311 61.509 54.23 61.265 54.129 C61.02 54.027 60.78 53.904 60.556 53.763 C60.333 53.621 60.118 53.458 59.923 53.28 C59.727 53.102 59.544 52.903 59.383 52.694 C59.221 52.484 59.077 52.257 58.953 52.023 C58.829 51.788 58.726 51.54 58.643 51.289 C58.56 51.037 58.498 50.775 58.456 50.514 C58.414 50.252 58.401 49.985 58.39 49.72 C58.379 49.454 58.367 49.187 58.388 48.922 z" fill-rule="nonzero" stroke-width="0.76px" style="fill:white;stroke:black;" />
        <path d="M34.666 66.245 C34.571 66.184 34.297 66.011 34.114 65.892 C33.931 65.773 33.749 65.653 33.568 65.532 C33.387 65.41 33.207 65.287 33.027 65.163 C32.848 65.038 32.67 64.913 32.493 64.785 C32.316 64.658 32.139 64.528 31.965 64.398 C31.791 64.267 31.617 64.135 31.444 64.001 C31.272 63.867 31.101 63.732 30.932 63.594 C30.763 63.457 30.594 63.317 30.428 63.176 C30.262 63.035 30.097 62.892 29.934 62.747 C29.771 62.602 29.61 62.455 29.45 62.306 C29.291 62.157 29.134 62.006 28.978 61.853 C28.823 61.699 28.67 61.544 28.519 61.386 C28.368 61.229 28.22 61.069 28.074 60.907 C27.928 60.744 27.785 60.58 27.645 60.412 C27.505 60.246 27.367 60.076 27.233 59.904 C27.099 59.732 26.967 59.558 26.84 59.381 C26.713 59.204 26.588 59.024 26.469 58.842 C26.349 58.659 26.232 58.474 26.121 58.287 C26.009 58.1 25.902 57.91 25.799 57.717 C25.696 57.525 25.598 57.33 25.505 57.132 C25.412 56.935 25.324 56.735 25.242 56.533 C25.161 56.331 25.084 56.126 25.014 55.92 C24.943 55.714 24.878 55.505 24.82 55.295 C24.762 55.085 24.71 54.872 24.665 54.659 C24.62 54.446 24.581 54.231 24.549 54.015 C24.518 53.799 24.493 53.582 24.474 53.365 C24.457 53.147 24.447 52.822 24.441 52.711 C24.441 52.707 24.44 52.703 24.44 52.699 C24.44 52.696 24.44 52.691 24.439 52.687 C24.438 52.683 24.438 52.679 24.437 52.675 C24.436 52.671 24.436 52.667 24.434 52.664 C24.434 52.66 24.433 52.656 24.431 52.652 C24.43 52.648 24.429 52.644 24.427 52.641 C24.426 52.637 24.425 52.633 24.423 52.63 C24.421 52.626 24.419 52.623 24.417 52.619 C24.415 52.616 24.413 52.612 24.412 52.608 C24.41 52.605 24.408 52.602 24.405 52.598 C24.403 52.595 24.4 52.592 24.398 52.589 C24.396 52.585 24.393 52.582 24.391 52.579 C24.388 52.576 24.385 52.574 24.383 52.57 C24.38 52.568 24.377 52.564 24.374 52.562 C24.371 52.559 24.368 52.556 24.365 52.554 C24.362 52.551 24.358 52.549 24.356 52.547 C24.352 52.545 24.349 52.542 24.345 52.54 C24.342 52.537 24.339 52.535 24.335 52.534 C24.332 52.532 24.328 52.53 24.325 52.528 C24.321 52.526 24.318 52.524 24.314 52.523 C24.31 52.522 24.307 52.52 24.303 52.518 C24.299 52.517 24.295 52.516 24.292 52.515 C24.288 52.514 24.284 52.513 24.28 52.512 C24.276 52.511 24.272 52.51 24.268 52.509 C24.264 52.509 24.26 52.508 24.256 52.508 C24.252 52.507 24.248 52.507 24.244 52.507 C24.24 52.507 24.236 52.507 24.232 52.507 C24.155 52.506 23.931 52.507 23.781 52.507 L12.493 52.507 C12.342 52.507 12.12 52.506 12.041 52.507 C12.034 52.507 12.026 52.507 12.019 52.507 C12.012 52.508 12.004 52.509 11.998 52.511 C11.99 52.513 11.983 52.515 11.976 52.517 C11.969 52.519 11.962 52.522 11.956 52.525 C11.948 52.528 11.942 52.531 11.936 52.535 C11.929 52.539 11.923 52.543 11.917 52.547 C11.911 52.551 11.906 52.556 11.9 52.561 C11.895 52.566 11.889 52.572 11.885 52.577 C11.879 52.582 11.875 52.588 11.871 52.595 C11.866 52.6 11.862 52.606 11.859 52.613 C11.855 52.619 11.852 52.626 11.849 52.633 C11.846 52.64 11.843 52.646 11.841 52.654 C11.839 52.661 11.838 52.668 11.836 52.675 C11.835 52.682 11.834 52.69 11.833 52.697 C11.832 52.704 11.832 52.711 11.832 52.719 C11.832 52.726 11.833 52.734 11.834 52.741 C11.835 52.748 11.836 52.756 11.838 52.763 C11.839 52.77 11.841 52.777 11.843 52.784 C11.846 52.791 11.849 52.798 11.852 52.804 C11.855 52.811 11.858 52.818 11.862 52.824 C11.866 52.83 11.87 52.837 11.875 52.842 C11.879 52.848 11.884 52.854 11.889 52.859 C11.895 52.864 11.9 52.869 11.906 52.875 C11.911 52.879 11.917 52.884 11.923 52.888 C11.929 52.892 11.935 52.896 11.942 52.899 C11.948 52.903 11.955 52.906 11.962 52.909 C11.969 52.911 11.976 52.913 11.982 52.916 C12.144 52.972 12.623 53.121 12.934 53.247 C13.244 53.373 13.55 53.517 13.847 53.672 C14.144 53.828 14.434 54 14.716 54.182 C14.998 54.363 15.272 54.559 15.54 54.761 C15.807 54.964 16.066 55.178 16.321 55.397 C16.575 55.616 16.823 55.844 17.067 56.075 C17.31 56.306 17.547 56.544 17.783 56.783 C18.019 57.022 18.25 57.267 18.48 57.511 C18.71 57.756 18.936 58.003 19.164 58.251 C19.392 58.497 19.617 58.746 19.845 58.993 C20.072 59.24 20.3 59.488 20.53 59.733 C20.76 59.977 20.99 60.221 21.225 60.462 C21.459 60.703 21.696 60.942 21.936 61.176 C22.177 61.409 22.421 61.641 22.67 61.866 C22.919 62.091 23.172 62.313 23.43 62.527 C23.688 62.742 23.951 62.952 24.219 63.153 C24.488 63.354 24.762 63.551 25.04 63.737 C25.319 63.924 25.604 64.104 25.893 64.274 C26.182 64.444 26.477 64.606 26.776 64.759 C27.075 64.911 27.379 65.054 27.688 65.188 C27.995 65.322 28.308 65.446 28.624 65.56 C28.94 65.674 29.259 65.778 29.581 65.874 C29.903 65.969 30.228 66.054 30.556 66.13 C30.882 66.206 31.212 66.272 31.543 66.331 C31.873 66.389 32.206 66.438 32.54 66.479 C32.873 66.52 33.207 66.552 33.542 66.578 C33.877 66.603 34.377 66.622 34.548 66.63 C34.555 66.631 34.561 66.63 34.568 66.63 C34.575 66.63 34.582 66.629 34.588 66.628 C34.595 66.627 34.602 66.625 34.608 66.623 C34.615 66.622 34.621 66.62 34.627 66.617 C34.634 66.615 34.64 66.613 34.645 66.609 C34.652 66.607 34.658 66.604 34.663 66.6 C34.669 66.596 34.675 66.592 34.68 66.588 C34.685 66.585 34.691 66.58 34.696 66.575 C34.701 66.571 34.705 66.566 34.71 66.561 C34.714 66.556 34.719 66.551 34.723 66.545 C34.727 66.54 34.731 66.535 34.734 66.529 C34.737 66.523 34.741 66.517 34.743 66.511 C34.746 66.505 34.749 66.499 34.751 66.492 C34.754 66.485 34.756 66.48 34.757 66.473 C34.759 66.466 34.76 66.46 34.761 66.453 C34.762 66.446 34.763 66.44 34.763 66.433 C34.764 66.426 34.764 66.419 34.764 66.413 C34.763 66.406 34.762 66.4 34.762 66.392 C34.76 66.386 34.759 66.379 34.758 66.373 C34.756 66.366 34.754 66.36 34.752 66.354 C34.75 66.347 34.747 66.341 34.744 66.335 C34.742 66.329 34.739 66.322 34.735 66.317 C34.732 66.311 34.728 66.305 34.724 66.3 C34.72 66.294 34.716 66.289 34.712 66.284 C34.707 66.279 34.703 66.274 34.698 66.269 C34.693 66.264 34.687 66.261 34.682 66.256 C34.677 66.252 34.671 66.248 34.666 66.245 z" fill-rule="nonzero" stroke-width="0.76px" style="fill:white;stroke:black;" />
        <path d="M39.332 47.547 L39.335 47.542 C39.335 47.542 39.335 47.542 39.335 47.542 C39.335 47.542 39.335 47.541 39.335 47.541 L39.337 47.538 C39.337 47.538 39.338 47.538 39.338 47.537 L39.345 47.527 C39.375 47.489 39.465 47.375 39.527 47.3 C39.589 47.225 39.651 47.151 39.715 47.077 C39.778 47.005 39.843 46.933 39.909 46.861 C39.974 46.79 40.041 46.719 40.109 46.651 C40.176 46.581 40.245 46.513 40.315 46.445 C40.385 46.378 40.455 46.311 40.526 46.246 C40.598 46.18 40.671 46.116 40.744 46.053 C40.818 45.989 40.892 45.927 40.967 45.866 C41.042 45.805 41.118 45.745 41.195 45.686 C41.272 45.627 41.35 45.569 41.428 45.512 C41.507 45.456 41.586 45.4 41.666 45.345 C41.746 45.29 41.828 45.237 41.909 45.185 C41.99 45.133 42.073 45.082 42.156 45.032 C42.24 44.982 42.323 44.934 42.407 44.886 C42.492 44.838 42.577 44.792 42.663 44.747 C42.749 44.702 42.836 44.658 42.922 44.615 C43.01 44.573 43.097 44.531 43.185 44.491 C43.274 44.451 43.362 44.413 43.452 44.375 C43.541 44.337 43.631 44.301 43.722 44.267 C43.812 44.232 43.903 44.198 43.995 44.166 C44.086 44.133 44.178 44.102 44.27 44.072 C44.362 44.042 44.455 44.014 44.548 43.987 C44.641 43.96 44.734 43.934 44.828 43.91 C44.922 43.885 45.016 43.862 45.11 43.84 C45.205 43.819 45.3 43.798 45.395 43.779 C45.49 43.76 45.585 43.742 45.681 43.726 C45.776 43.71 45.918 43.689 45.968 43.681 C45.971 43.681 45.975 43.68 45.979 43.68 C45.983 43.679 45.986 43.678 45.99 43.677 C45.993 43.676 45.997 43.675 46 43.674 C46.004 43.673 46.007 43.672 46.011 43.67 C46.014 43.669 46.018 43.668 46.021 43.666 C46.024 43.665 46.028 43.663 46.031 43.662 C46.034 43.66 46.038 43.659 46.041 43.657 C46.044 43.655 46.047 43.653 46.051 43.651 C46.053 43.649 46.057 43.647 46.06 43.645 C46.063 43.643 46.066 43.64 46.068 43.638 C46.071 43.636 46.074 43.634 46.077 43.631 C46.08 43.628 46.082 43.626 46.085 43.623 C46.087 43.62 46.09 43.618 46.093 43.615 C46.095 43.613 46.098 43.61 46.1 43.607 C46.103 43.604 46.105 43.601 46.106 43.598 C46.109 43.596 46.111 43.592 46.113 43.589 C46.115 43.586 46.117 43.583 46.119 43.58 C46.121 43.577 46.123 43.573 46.124 43.57 C46.126 43.567 46.127 43.563 46.129 43.56 C46.131 43.557 46.132 43.554 46.133 43.55 C46.135 43.546 46.136 43.543 46.137 43.54 C46.138 43.536 46.139 43.533 46.141 43.529 C46.141 43.525 46.142 43.521 46.143 43.518 C46.144 43.515 46.145 43.511 46.145 43.507 C46.146 43.504 46.146 43.5 46.146 43.497 C46.146 43.493 46.147 43.489 46.147 43.485 C46.148 43.481 46.148 43.478 46.148 43.474 L46.148 42.923 C46.148 42.92 46.148 42.917 46.147 42.914 C46.147 42.912 46.147 42.909 46.147 42.906 C46.146 42.903 46.146 42.9 46.146 42.898 C46.146 42.895 46.145 42.892 46.145 42.89 C46.145 42.887 46.144 42.884 46.143 42.881 C46.143 42.879 46.143 42.876 46.142 42.873 C46.141 42.871 46.141 42.868 46.14 42.866 C46.139 42.863 46.138 42.86 46.137 42.858 C46.136 42.855 46.135 42.852 46.135 42.85 C46.133 42.847 46.133 42.845 46.131 42.842 C46.13 42.839 46.129 42.837 46.128 42.834 C46.127 42.832 46.125 42.83 46.124 42.827 C46.123 42.824 46.122 42.822 46.12 42.82 C46.119 42.817 46.118 42.815 46.116 42.812 C46.115 42.81 46.113 42.808 46.112 42.805 C46.11 42.803 46.108 42.801 46.107 42.799 C46.105 42.797 46.104 42.794 46.102 42.792 C46.1 42.79 46.099 42.788 46.097 42.786 C46.095 42.784 46.093 42.782 46.091 42.78 C46.089 42.778 46.087 42.776 46.085 42.774 C46.084 42.772 46.082 42.77 46.08 42.768 C46.077 42.766 46.075 42.765 46.073 42.763 C46.071 42.761 46.069 42.759 46.066 42.757 C46.065 42.755 46.063 42.754 46.06 42.753 C46.058 42.751 46.055 42.75 46.053 42.748 C46.051 42.746 46.049 42.745 46.046 42.744 C46.044 42.742 46.042 42.74 46.039 42.739 C45.999 42.715 45.88 42.647 45.803 42.595 C45.728 42.543 45.654 42.487 45.584 42.428 C45.513 42.369 45.445 42.307 45.381 42.241 C45.317 42.176 45.255 42.106 45.197 42.035 C45.14 41.963 45.085 41.888 45.035 41.812 C44.984 41.735 44.938 41.655 44.895 41.574 C44.852 41.492 44.814 41.408 44.779 41.323 C44.744 41.238 44.714 41.151 44.688 41.063 C44.662 40.975 44.64 40.885 44.623 40.794 C44.605 40.705 44.593 40.613 44.584 40.522 C44.576 40.43 44.572 40.337 44.572 40.245 C44.573 40.154 44.578 40.061 44.588 39.97 C44.597 39.879 44.611 39.787 44.629 39.697 C44.648 39.607 44.671 39.517 44.698 39.43 C44.725 39.342 44.757 39.255 44.792 39.171 C44.828 39.086 44.868 39.002 44.912 38.921 C44.955 38.841 45.003 38.761 45.054 38.685 C45.106 38.609 45.161 38.535 45.22 38.464 C45.278 38.393 45.34 38.325 45.405 38.26 C45.471 38.195 45.539 38.134 45.611 38.075 C45.681 38.018 45.756 37.962 45.833 37.911 C45.909 37.861 45.988 37.814 46.07 37.77 C46.151 37.727 46.234 37.688 46.32 37.653 C46.404 37.617 46.491 37.587 46.579 37.56 C46.667 37.534 46.757 37.511 46.848 37.493 C46.937 37.475 47.029 37.462 47.12 37.453 C47.212 37.444 47.304 37.439 47.396 37.439 C47.488 37.439 47.58 37.444 47.671 37.453 C47.763 37.462 47.854 37.475 47.944 37.493 C48.035 37.511 48.125 37.534 48.212 37.56 C48.3 37.587 48.387 37.617 48.472 37.652 C48.557 37.688 48.641 37.727 48.722 37.77 C48.803 37.813 48.882 37.86 48.959 37.911 C49.035 37.962 49.11 38.017 49.18 38.075 C49.252 38.133 49.321 38.195 49.386 38.26 C49.451 38.324 49.513 38.393 49.572 38.464 C49.63 38.534 49.685 38.608 49.737 38.684 C49.788 38.761 49.836 38.839 49.88 38.92 C49.924 39.001 49.964 39.084 49.999 39.169 C50.034 39.254 50.067 39.34 50.093 39.428 C50.12 39.516 50.143 39.605 50.162 39.695 C50.181 39.785 50.194 39.877 50.204 39.968 C50.214 40.059 50.219 40.152 50.219 40.243 C50.22 40.335 50.216 40.428 50.208 40.519 C50.2 40.611 50.187 40.702 50.169 40.792 C50.152 40.882 50.131 40.972 50.105 41.061 C50.079 41.149 50.048 41.236 50.014 41.321 C49.979 41.406 49.941 41.49 49.898 41.572 C49.856 41.653 49.809 41.732 49.759 41.809 C49.708 41.886 49.654 41.961 49.596 42.033 C49.539 42.104 49.478 42.173 49.413 42.239 C49.349 42.304 49.281 42.367 49.211 42.426 C49.14 42.485 49.067 42.541 48.991 42.593 C48.916 42.645 48.796 42.713 48.756 42.738 C48.754 42.739 48.752 42.74 48.749 42.742 C48.747 42.743 48.744 42.744 48.742 42.746 C48.74 42.748 48.738 42.749 48.736 42.75 C48.733 42.752 48.731 42.753 48.729 42.755 C48.727 42.757 48.725 42.759 48.723 42.76 C48.721 42.762 48.719 42.764 48.717 42.765 C48.715 42.767 48.713 42.769 48.711 42.771 C48.709 42.773 48.707 42.775 48.705 42.777 C48.704 42.778 48.702 42.78 48.7 42.783 C48.698 42.785 48.696 42.787 48.694 42.789 C48.693 42.791 48.691 42.793 48.69 42.795 C48.688 42.797 48.687 42.799 48.685 42.802 C48.683 42.804 48.682 42.806 48.681 42.809 C48.679 42.811 48.677 42.813 48.676 42.815 C48.675 42.818 48.673 42.82 48.672 42.822 C48.671 42.825 48.67 42.827 48.669 42.83 C48.668 42.832 48.666 42.834 48.666 42.837 C48.664 42.839 48.663 42.842 48.662 42.844 C48.661 42.847 48.66 42.849 48.66 42.852 C48.658 42.854 48.658 42.857 48.657 42.86 C48.656 42.862 48.655 42.864 48.654 42.867 C48.654 42.87 48.653 42.872 48.653 42.875 C48.653 42.877 48.652 42.88 48.651 42.883 C48.651 42.885 48.651 42.888 48.65 42.891 C48.649 42.893 48.649 42.896 48.649 42.899 C48.649 42.902 48.649 42.904 48.648 42.907 C48.648 42.91 48.648 42.912 48.648 42.915 L48.648 42.956 C48.648 42.963 48.647 42.97 48.647 42.977 C48.647 42.984 48.647 42.991 48.647 42.997 C48.647 43.005 48.647 43.011 48.647 43.018 C48.647 43.025 48.647 43.032 48.647 43.039 C48.647 43.046 48.647 43.053 48.647 43.06 L48.647 43.101 C48.647 43.108 48.647 43.115 48.647 43.122 C48.647 43.129 48.647 43.136 48.647 43.142 C48.647 43.15 48.647 43.156 48.647 43.163 C48.647 43.17 48.647 43.177 48.647 43.184 C48.647 43.191 48.647 43.197 48.647 43.205 C48.647 43.211 48.647 43.218 48.647 43.225 C48.647 43.232 48.647 43.239 48.647 43.246 L48.646 43.287 C48.646 43.294 48.646 43.301 48.646 43.308 C48.646 43.315 48.646 43.321 48.646 43.329 C48.646 43.335 48.646 43.342 48.646 43.349 C48.646 43.356 48.646 43.363 48.646 43.37 C48.646 43.377 48.646 43.384 48.646 43.39 L48.645 43.432 C48.645 43.439 48.645 43.446 48.645 43.453 C48.645 43.46 48.645 43.468 48.645 43.474 C48.645 43.477 48.645 43.481 48.645 43.485 C48.646 43.488 48.646 43.492 48.647 43.496 C48.647 43.499 48.647 43.503 48.648 43.506 C48.649 43.51 48.649 43.514 48.65 43.518 C48.651 43.521 48.651 43.525 48.653 43.528 C48.653 43.532 48.654 43.535 48.656 43.539 C48.656 43.542 48.658 43.546 48.659 43.55 C48.66 43.553 48.662 43.556 48.664 43.559 C48.665 43.563 48.666 43.566 48.668 43.57 C48.67 43.573 48.672 43.576 48.673 43.579 C48.675 43.582 48.677 43.586 48.679 43.589 C48.681 43.592 48.683 43.595 48.686 43.598 C48.688 43.601 48.691 43.604 48.693 43.607 C48.695 43.609 48.697 43.613 48.7 43.615 C48.702 43.618 48.705 43.62 48.708 43.623 C48.71 43.626 48.713 43.628 48.715 43.631 C48.719 43.633 48.721 43.636 48.724 43.638 C48.727 43.64 48.73 43.642 48.733 43.645 C48.736 43.647 48.739 43.649 48.742 43.651 C48.746 43.653 48.748 43.655 48.752 43.657 C48.755 43.659 48.758 43.66 48.761 43.662 C48.765 43.663 48.769 43.665 48.772 43.666 C48.775 43.668 48.778 43.669 48.782 43.67 C48.786 43.672 48.789 43.673 48.792 43.674 C48.796 43.675 48.799 43.676 48.803 43.677 C48.807 43.678 48.811 43.679 48.814 43.68 C48.818 43.68 48.821 43.681 48.825 43.681 C48.875 43.689 49.016 43.71 49.112 43.726 C49.208 43.742 49.303 43.76 49.398 43.779 C49.493 43.798 49.588 43.819 49.682 43.84 C49.777 43.863 49.871 43.885 49.965 43.91 C50.059 43.934 50.152 43.96 50.245 43.987 C50.338 44.014 50.431 44.043 50.523 44.072 C50.615 44.102 50.707 44.133 50.798 44.166 C50.89 44.198 50.981 44.232 51.071 44.267 C51.161 44.302 51.251 44.338 51.341 44.375 C51.43 44.413 51.519 44.451 51.607 44.492 C51.695 44.532 51.783 44.573 51.87 44.616 C51.957 44.659 52.043 44.702 52.129 44.747 C52.215 44.793 52.3 44.838 52.385 44.886 C52.47 44.934 52.553 44.982 52.636 45.032 C52.719 45.082 52.801 45.133 52.883 45.185 C52.965 45.237 53.046 45.291 53.126 45.345 C53.206 45.4 53.285 45.456 53.364 45.512 C53.442 45.569 53.52 45.627 53.597 45.686 C53.674 45.745 53.75 45.805 53.825 45.866 C53.901 45.928 53.975 45.99 54.048 46.053 C54.122 46.117 54.194 46.181 54.265 46.246 C54.337 46.311 54.408 46.378 54.477 46.445 C54.547 46.513 54.616 46.581 54.683 46.651 C54.751 46.719 54.818 46.79 54.884 46.861 C54.949 46.933 55.014 47.005 55.077 47.077 C55.141 47.151 55.204 47.225 55.265 47.3 C55.326 47.375 55.416 47.489 55.446 47.527 L55.452 47.535 L55.458 47.544 L55.464 47.552 L55.468 47.562 L55.473 47.571 L55.477 47.581 L55.48 47.59 L55.483 47.6 C55.483 47.602 55.484 47.603 55.485 47.605 L55.486 47.615 C55.486 47.616 55.487 47.618 55.487 47.619 L55.489 47.63 C55.489 47.631 55.489 47.633 55.489 47.635 L55.49 47.645 L55.49 47.655 C55.49 47.681 55.49 47.756 55.49 47.806 L55.49 51.731 C55.49 51.732 55.49 51.734 55.49 51.736 L55.491 51.747 L55.492 51.758 L55.494 51.769 C55.494 51.771 55.495 51.773 55.495 51.775 L55.498 51.787 L55.502 51.797 C55.502 51.799 55.502 51.8 55.503 51.802 C55.504 51.804 55.504 51.806 55.505 51.808 L55.509 51.818 L55.515 51.828 C55.515 51.83 55.516 51.832 55.517 51.833 L55.523 51.843 L55.529 51.852 L55.536 51.861 L55.544 51.87 C55.589 51.918 55.722 52.065 55.814 52.158 C55.906 52.253 56.001 52.345 56.097 52.435 C56.193 52.525 56.292 52.613 56.392 52.699 C56.492 52.785 56.594 52.869 56.698 52.951 C56.801 53.033 56.906 53.112 57.013 53.19 C57.12 53.268 57.228 53.344 57.337 53.418 C57.446 53.491 57.557 53.563 57.669 53.633 C57.781 53.703 57.894 53.77 58.008 53.837 C58.122 53.903 58.238 53.967 58.354 54.029 C58.47 54.091 58.587 54.152 58.706 54.211 C58.824 54.269 58.943 54.325 59.064 54.38 C59.184 54.436 59.304 54.488 59.426 54.54 C59.547 54.591 59.67 54.64 59.793 54.688 C59.915 54.736 60.039 54.782 60.163 54.826 C60.288 54.87 60.413 54.913 60.538 54.954 C60.664 54.994 60.79 55.034 60.916 55.071 C61.042 55.108 61.169 55.144 61.297 55.179 C61.425 55.213 61.552 55.245 61.68 55.276 C61.809 55.307 61.937 55.337 62.067 55.364 C62.195 55.392 62.325 55.418 62.454 55.442 C62.584 55.467 62.714 55.489 62.845 55.51 C62.974 55.532 63.105 55.552 63.236 55.569 C63.367 55.588 63.497 55.604 63.628 55.619 C63.759 55.634 63.891 55.648 64.022 55.659 C64.154 55.671 64.285 55.682 64.417 55.69 C64.548 55.699 64.68 55.706 64.812 55.712 C64.944 55.718 65.139 55.722 65.208 55.724 C65.213 55.724 65.217 55.724 65.222 55.725 C65.227 55.726 65.232 55.726 65.237 55.727 C65.242 55.728 65.246 55.729 65.251 55.729 C65.256 55.731 65.261 55.732 65.265 55.733 C65.27 55.735 65.274 55.737 65.279 55.738 C65.284 55.74 65.288 55.742 65.292 55.744 C65.297 55.746 65.301 55.749 65.305 55.75 C65.31 55.753 65.314 55.756 65.318 55.758 C65.322 55.761 65.326 55.764 65.33 55.767 C65.333 55.77 65.337 55.773 65.341 55.776 C65.345 55.779 65.349 55.783 65.352 55.786 C65.355 55.789 65.358 55.793 65.362 55.796 C65.365 55.8 65.368 55.804 65.371 55.808 C65.374 55.812 65.377 55.816 65.379 55.82 C65.382 55.824 65.385 55.829 65.387 55.832 C65.389 55.837 65.391 55.841 65.393 55.846 C65.395 55.85 65.397 55.855 65.399 55.859 C65.401 55.864 65.402 55.869 65.404 55.873 C65.405 55.878 65.406 55.882 65.408 55.887 C65.408 55.892 65.41 55.897 65.41 55.901 C65.411 55.906 65.412 55.911 65.412 55.916 C65.412 55.921 65.412 55.926 65.413 55.931 C65.413 55.935 65.412 55.94 65.412 55.945 C65.412 55.95 65.412 55.955 65.411 55.96 C65.41 55.964 65.41 55.97 65.408 55.974 C65.408 55.979 65.406 55.984 65.405 55.989 C65.404 55.993 65.402 55.998 65.401 56.002 C65.356 56.124 65.228 56.48 65.135 56.717 C65.042 56.953 64.945 57.187 64.843 57.42 C64.741 57.652 64.634 57.883 64.524 58.112 C64.413 58.34 64.299 58.567 64.179 58.791 C64.06 59.015 63.936 59.238 63.809 59.457 C63.681 59.676 63.549 59.894 63.413 60.108 C63.277 60.322 63.137 60.534 62.993 60.743 C62.848 60.953 62.7 61.159 62.548 61.362 C62.396 61.565 62.24 61.766 62.08 61.963 C61.92 62.161 61.756 62.355 61.589 62.546 C61.422 62.737 61.251 62.925 61.076 63.109 C60.901 63.293 60.723 63.474 60.541 63.652 C60.359 63.829 60.174 64.002 59.986 64.173 C59.797 64.343 59.605 64.509 59.41 64.671 C59.214 64.834 59.016 64.993 58.815 65.148 C58.614 65.302 58.409 65.453 58.202 65.599 C57.994 65.746 57.783 65.888 57.57 66.026 C57.358 66.164 57.141 66.299 56.923 66.428 C56.704 66.557 56.483 66.682 56.26 66.803 C56.037 66.924 55.81 67.04 55.582 67.151 C55.354 67.263 55.124 67.37 54.891 67.472 C54.659 67.574 54.424 67.672 54.188 67.764 C53.951 67.857 53.713 67.945 53.473 68.028 C53.233 68.111 52.991 68.189 52.748 68.262 C52.505 68.336 52.26 68.404 52.014 68.467 C51.768 68.53 51.521 68.588 51.273 68.641 C51.024 68.694 50.651 68.761 50.524 68.785 C50.521 68.786 50.517 68.786 50.514 68.787 C50.511 68.788 50.507 68.789 50.503 68.79 C50.5 68.791 50.496 68.791 50.493 68.793 C50.49 68.794 50.486 68.795 50.483 68.797 C50.479 68.798 50.476 68.799 50.472 68.801 C50.469 68.803 50.466 68.804 50.463 68.806 C50.46 68.807 50.457 68.809 50.453 68.811 C50.45 68.812 50.448 68.814 50.444 68.817 C50.441 68.819 50.438 68.821 50.435 68.823 C50.432 68.825 50.43 68.828 50.427 68.83 C50.424 68.832 50.421 68.834 50.419 68.837 C50.416 68.839 50.413 68.841 50.411 68.844 C50.408 68.847 50.406 68.849 50.404 68.852 C50.401 68.855 50.398 68.858 50.396 68.86 C50.394 68.863 50.392 68.866 50.39 68.869 C50.388 68.872 50.386 68.875 50.384 68.878 C50.382 68.881 50.38 68.884 50.378 68.887 C50.376 68.891 50.375 68.894 50.373 68.897 C50.371 68.9 50.37 68.904 50.368 68.907 C50.367 68.91 50.366 68.913 50.364 68.917 C50.363 68.92 50.362 68.923 50.361 68.927 C50.36 68.931 50.358 68.934 50.358 68.937 C50.356 68.941 50.356 68.944 50.355 68.948 C50.354 68.952 50.354 68.955 50.353 68.959 C50.352 68.962 50.352 68.966 50.352 68.969 C50.351 68.973 50.351 68.976 50.351 68.98 C50.351 68.984 50.351 68.988 50.351 68.991 L50.351 69.674 C50.351 69.678 50.351 69.681 50.351 69.685 C50.351 69.689 50.352 69.693 50.352 69.698 C50.352 69.702 50.353 69.706 50.354 69.71 C50.354 69.714 50.355 69.718 50.356 69.721 C50.357 69.725 50.358 69.729 50.36 69.733 C50.36 69.737 50.362 69.741 50.363 69.745 C50.364 69.748 50.366 69.752 50.368 69.756 C50.37 69.76 50.371 69.763 50.373 69.767 C50.375 69.771 50.377 69.774 50.379 69.778 C50.381 69.781 50.383 69.784 50.385 69.788 C50.387 69.792 50.389 69.795 50.392 69.798 C50.394 69.801 50.397 69.805 50.4 69.807 C50.402 69.811 50.405 69.814 50.408 69.817 C50.41 69.82 50.413 69.822 50.416 69.825 C50.419 69.828 50.422 69.831 50.425 69.834 C50.428 69.836 50.431 69.838 50.434 69.841 C50.438 69.843 50.441 69.845 50.444 69.848 C50.448 69.85 50.452 69.852 50.455 69.854 C50.458 69.856 50.462 69.858 50.465 69.86 C50.469 69.862 50.473 69.864 50.476 69.865 C50.48 69.867 50.484 69.868 50.488 69.87 C50.492 69.871 50.495 69.872 50.499 69.874 C50.503 69.875 50.507 69.876 50.511 69.877 C50.515 69.878 50.519 69.878 50.523 69.879 C50.527 69.88 50.531 69.88 50.535 69.881 C50.539 69.882 50.543 69.882 50.547 69.882 C50.551 69.882 50.555 69.882 50.559 69.882 C50.585 69.882 50.655 69.883 50.703 69.883 L51.566 69.885 C51.614 69.885 51.662 69.885 51.71 69.885 C51.758 69.885 51.806 69.885 51.854 69.885 L52.574 69.887 C52.622 69.887 52.67 69.887 52.717 69.887 C52.765 69.887 52.813 69.887 52.862 69.887 L53.581 69.889 C53.629 69.889 53.677 69.889 53.725 69.889 C53.773 69.889 53.821 69.889 53.868 69.89 L54.301 69.891 C54.349 69.891 54.402 69.886 54.444 69.891 C54.482 69.895 54.518 69.908 54.555 69.918 C54.591 69.929 54.627 69.942 54.663 69.958 C54.697 69.972 54.732 69.988 54.766 70.007 C54.799 70.025 54.831 70.045 54.863 70.067 C54.894 70.089 54.924 70.112 54.953 70.137 C54.983 70.161 55.01 70.187 55.037 70.215 C55.063 70.242 55.088 70.271 55.111 70.301 C55.135 70.331 55.157 70.363 55.177 70.395 C55.197 70.427 55.216 70.461 55.232 70.495 C55.249 70.529 55.264 70.564 55.277 70.6 C55.29 70.636 55.302 70.672 55.311 70.709 C55.321 70.746 55.328 70.783 55.334 70.821 C55.34 70.859 55.343 70.897 55.345 70.935 C55.346 70.973 55.346 71.011 55.344 71.049 C55.342 71.087 55.337 71.125 55.331 71.162 C55.324 71.2 55.317 71.237 55.307 71.274 C55.296 71.311 55.284 71.347 55.271 71.383 C55.257 71.418 55.241 71.453 55.223 71.487 C55.206 71.52 55.187 71.554 55.166 71.585 C55.145 71.618 55.122 71.648 55.099 71.678 C55.075 71.707 55.049 71.736 55.022 71.762 C54.995 71.789 54.966 71.815 54.937 71.839 C54.907 71.863 54.877 71.885 54.845 71.906 C54.813 71.927 54.779 71.946 54.746 71.963 C54.712 71.981 54.677 71.997 54.642 72.01 C54.606 72.024 54.57 72.036 54.533 72.046 C54.496 72.056 54.442 72.065 54.421 72.07 C54.418 72.071 54.414 72.071 54.411 72.072 C54.408 72.073 54.404 72.073 54.4 72.074 C54.397 72.075 54.394 72.076 54.391 72.077 C54.387 72.079 54.383 72.079 54.38 72.081 C54.377 72.082 54.374 72.083 54.37 72.085 C54.367 72.086 54.364 72.088 54.361 72.089 C54.358 72.091 54.354 72.092 54.352 72.094 C54.349 72.096 54.345 72.098 54.343 72.1 C54.339 72.102 54.337 72.104 54.333 72.106 C54.331 72.108 54.328 72.11 54.325 72.112 C54.322 72.115 54.32 72.117 54.317 72.119 C54.314 72.121 54.312 72.124 54.309 72.126 C54.307 72.128 54.304 72.131 54.302 72.134 C54.299 72.136 54.297 72.139 54.295 72.142 C54.292 72.144 54.29 72.147 54.288 72.15 C54.286 72.153 54.284 72.156 54.282 72.159 C54.28 72.162 54.278 72.165 54.276 72.168 C54.274 72.17 54.273 72.174 54.271 72.177 C54.269 72.18 54.268 72.183 54.266 72.186 C54.265 72.189 54.263 72.193 54.262 72.196 C54.261 72.199 54.259 72.203 54.258 72.206 C54.257 72.209 54.255 72.212 54.255 72.216 C54.253 72.22 54.253 72.223 54.252 72.226 C54.251 72.229 54.25 72.233 54.25 72.237 C54.249 72.24 54.248 72.244 54.248 72.247 C54.248 72.25 54.247 72.254 54.247 72.258 C54.246 72.261 54.246 72.265 54.246 72.268 C54.246 72.279 54.246 72.305 54.246 72.323 L54.246 72.489 C54.246 72.507 54.246 72.525 54.246 72.544 L54.246 72.709 C54.246 72.727 54.246 72.746 54.246 72.764 L54.245 72.984 C54.245 73.003 54.246 73.021 54.245 73.039 L54.245 73.15 C54.245 73.168 54.245 73.186 54.245 73.205 L54.245 73.37 C54.245 73.388 54.245 73.407 54.245 73.425 L54.245 73.645 C54.245 73.664 54.245 73.682 54.245 73.701 C54.245 73.719 54.244 73.746 54.244 73.756 C54.244 73.758 54.245 73.76 54.245 73.762 L54.245 73.773 L54.247 73.784 L54.248 73.796 L54.251 73.807 L54.254 73.818 L54.258 73.829 C54.259 73.831 54.259 73.832 54.26 73.834 L54.265 73.845 L54.27 73.855 L54.275 73.865 C54.276 73.866 54.277 73.868 54.278 73.87 C54.28 73.872 54.28 73.873 54.282 73.875 L54.288 73.884 C54.29 73.885 54.291 73.887 54.292 73.889 L54.299 73.897 C54.355 73.955 54.517 74.127 54.631 74.238 C54.743 74.349 54.86 74.457 54.979 74.562 C55.098 74.666 55.22 74.768 55.344 74.867 C55.467 74.966 55.593 75.061 55.721 75.155 C55.85 75.248 55.98 75.338 56.112 75.426 C56.243 75.514 56.377 75.599 56.512 75.682 C56.647 75.764 56.784 75.845 56.923 75.922 C57.061 75.999 57.2 76.075 57.341 76.148 C57.482 76.22 57.624 76.29 57.767 76.359 C57.91 76.426 58.054 76.492 58.199 76.556 C58.345 76.619 58.49 76.681 58.637 76.74 C58.784 76.799 58.932 76.856 59.081 76.911 C59.229 76.966 59.379 77.019 59.529 77.07 C59.679 77.121 59.83 77.17 59.981 77.217 C60.133 77.264 60.284 77.308 60.437 77.352 C60.589 77.395 60.742 77.436 60.896 77.475 C61.049 77.514 61.204 77.552 61.358 77.588 C61.512 77.623 61.667 77.657 61.822 77.689 C61.977 77.721 62.133 77.751 62.288 77.779 C62.444 77.807 62.601 77.834 62.757 77.859 C62.913 77.884 63.07 77.907 63.228 77.929 C63.384 77.95 63.542 77.97 63.699 77.989 C63.856 78.006 64.014 78.023 64.172 78.037 C64.329 78.052 64.487 78.065 64.645 78.076 C64.804 78.088 64.962 78.097 65.12 78.105 C65.278 78.114 65.436 78.12 65.595 78.124 C65.753 78.13 65.989 78.132 66.07 78.134 C66.074 78.134 66.078 78.134 66.082 78.134 C66.086 78.135 66.09 78.135 66.094 78.135 C66.098 78.136 66.102 78.137 66.106 78.137 C66.11 78.138 66.114 78.139 66.118 78.14 C66.122 78.141 66.126 78.142 66.13 78.143 C66.134 78.144 66.138 78.145 66.141 78.147 C66.145 78.149 66.149 78.15 66.153 78.152 C66.156 78.153 66.16 78.155 66.163 78.156 C66.167 78.158 66.17 78.16 66.174 78.162 C66.178 78.164 66.181 78.167 66.184 78.169 C66.187 78.171 66.191 78.173 66.194 78.176 C66.197 78.178 66.201 78.181 66.203 78.183 C66.206 78.186 66.21 78.189 66.212 78.192 C66.215 78.194 66.218 78.197 66.221 78.2 C66.223 78.203 66.226 78.206 66.229 78.209 C66.231 78.212 66.234 78.215 66.237 78.219 C66.239 78.222 66.241 78.225 66.243 78.229 C66.245 78.232 66.248 78.235 66.25 78.239 C66.252 78.242 66.254 78.246 66.255 78.25 C66.257 78.253 66.259 78.257 66.26 78.261 C66.262 78.264 66.263 78.268 66.265 78.272 C66.266 78.276 66.267 78.279 66.269 78.283 C66.269 78.287 66.271 78.291 66.271 78.295 C66.273 78.299 66.273 78.303 66.274 78.307 C66.275 78.311 66.275 78.314 66.276 78.318 C66.276 78.323 66.277 78.327 66.277 78.331 C66.277 78.335 66.277 78.339 66.277 78.343 C66.277 78.358 66.277 78.397 66.277 78.425 L66.277 80.466 C66.277 80.494 66.277 80.533 66.277 80.548 C66.277 80.552 66.277 80.556 66.277 80.56 C66.277 80.564 66.277 80.568 66.276 80.573 C66.275 80.576 66.275 80.58 66.274 80.584 C66.273 80.588 66.273 80.592 66.271 80.596 C66.271 80.6 66.269 80.604 66.269 80.608 C66.267 80.612 66.266 80.616 66.265 80.62 C66.263 80.623 66.261 80.627 66.26 80.631 C66.258 80.634 66.257 80.638 66.255 80.642 C66.253 80.645 66.251 80.649 66.249 80.653 C66.247 80.656 66.245 80.66 66.243 80.663 C66.241 80.666 66.239 80.67 66.236 80.673 C66.233 80.676 66.231 80.679 66.228 80.682 C66.225 80.685 66.223 80.689 66.22 80.691 C66.218 80.695 66.214 80.697 66.212 80.7 C66.208 80.703 66.206 80.706 66.202 80.708 C66.199 80.711 66.197 80.714 66.193 80.716 C66.19 80.718 66.187 80.72 66.183 80.723 C66.18 80.725 66.176 80.727 66.173 80.729 C66.169 80.731 66.166 80.733 66.162 80.735 C66.159 80.737 66.155 80.738 66.151 80.74 C66.147 80.742 66.143 80.743 66.14 80.744 C66.136 80.746 66.132 80.747 66.128 80.748 C66.124 80.75 66.12 80.75 66.117 80.752 C66.113 80.752 66.109 80.753 66.105 80.754 C66.101 80.754 66.096 80.755 66.092 80.756 C66.088 80.756 66.084 80.756 66.08 80.757 C66.077 80.757 66.072 80.757 66.068 80.757 C65.951 80.757 65.607 80.757 65.377 80.757 L29.416 80.757 C29.185 80.757 28.841 80.757 28.724 80.757 C28.72 80.757 28.716 80.757 28.712 80.757 C28.707 80.756 28.703 80.756 28.699 80.756 C28.696 80.755 28.692 80.754 28.688 80.754 C28.684 80.753 28.68 80.752 28.676 80.752 C28.672 80.75 28.668 80.75 28.664 80.748 C28.66 80.747 28.656 80.746 28.652 80.744 C28.648 80.743 28.645 80.742 28.641 80.74 C28.637 80.738 28.634 80.737 28.63 80.735 C28.627 80.733 28.623 80.731 28.619 80.729 C28.616 80.727 28.612 80.725 28.609 80.723 C28.606 80.72 28.602 80.718 28.599 80.716 C28.596 80.714 28.593 80.711 28.589 80.708 C28.587 80.706 28.583 80.703 28.58 80.7 C28.578 80.697 28.575 80.695 28.572 80.691 C28.569 80.689 28.566 80.685 28.564 80.682 C28.561 80.679 28.558 80.676 28.556 80.673 C28.554 80.67 28.551 80.666 28.549 80.663 C28.547 80.66 28.545 80.656 28.543 80.653 C28.541 80.649 28.539 80.645 28.537 80.642 C28.536 80.638 28.534 80.634 28.532 80.631 C28.53 80.627 28.529 80.623 28.528 80.62 C28.526 80.616 28.525 80.612 28.524 80.608 C28.522 80.604 28.521 80.6 28.52 80.596 C28.52 80.592 28.518 80.588 28.518 80.584 C28.517 80.58 28.517 80.576 28.517 80.573 C28.516 80.568 28.515 80.564 28.515 80.56 C28.515 80.556 28.515 80.552 28.515 80.548 C28.515 80.533 28.515 80.494 28.515 80.466 L28.515 78.425 C28.515 78.397 28.515 78.358 28.515 78.343 C28.515 78.339 28.515 78.335 28.515 78.331 C28.515 78.327 28.516 78.323 28.517 78.318 C28.517 78.314 28.517 78.311 28.518 78.307 C28.518 78.303 28.52 78.299 28.52 78.295 C28.521 78.291 28.522 78.287 28.524 78.283 C28.524 78.279 28.526 78.276 28.527 78.272 C28.529 78.268 28.53 78.264 28.532 78.261 C28.534 78.257 28.535 78.253 28.537 78.25 C28.539 78.246 28.541 78.242 28.543 78.239 C28.545 78.235 28.547 78.232 28.549 78.229 C28.551 78.225 28.553 78.222 28.556 78.219 C28.558 78.215 28.56 78.212 28.563 78.209 C28.566 78.206 28.568 78.203 28.571 78.2 C28.574 78.197 28.577 78.194 28.579 78.192 C28.583 78.189 28.585 78.186 28.589 78.183 C28.592 78.181 28.595 78.178 28.598 78.176 C28.601 78.173 28.604 78.171 28.608 78.169 C28.612 78.167 28.615 78.164 28.618 78.162 C28.621 78.16 28.625 78.158 28.629 78.156 C28.633 78.155 28.636 78.153 28.64 78.152 C28.644 78.15 28.647 78.149 28.651 78.147 C28.655 78.145 28.659 78.144 28.662 78.143 C28.666 78.142 28.67 78.141 28.674 78.14 C28.678 78.139 28.682 78.138 28.686 78.137 C28.69 78.137 28.694 78.136 28.698 78.135 C28.702 78.135 28.706 78.135 28.71 78.134 C28.714 78.134 28.718 78.134 28.722 78.134 C28.803 78.132 29.039 78.13 29.197 78.124 C29.355 78.12 29.514 78.114 29.672 78.105 C29.83 78.097 29.988 78.088 30.146 78.076 C30.304 78.065 30.462 78.052 30.62 78.037 C30.778 78.023 30.936 78.006 31.093 77.989 C31.251 77.97 31.408 77.95 31.565 77.929 C31.722 77.907 31.878 77.884 32.035 77.859 C32.191 77.834 32.347 77.807 32.503 77.779 C32.66 77.751 32.815 77.721 32.97 77.689 C33.125 77.657 33.28 77.623 33.435 77.588 C33.589 77.552 33.743 77.514 33.896 77.475 C34.05 77.436 34.203 77.395 34.356 77.352 C34.508 77.308 34.66 77.264 34.811 77.217 C34.962 77.17 35.113 77.121 35.263 77.07 C35.413 77.019 35.562 76.966 35.711 76.911 C35.86 76.856 36.008 76.799 36.155 76.74 C36.301 76.681 36.448 76.619 36.593 76.555 C36.738 76.492 36.882 76.426 37.025 76.358 C37.169 76.29 37.31 76.22 37.451 76.148 C37.592 76.075 37.731 75.999 37.87 75.922 C38.007 75.844 38.144 75.764 38.28 75.682 C38.415 75.599 38.548 75.514 38.68 75.426 C38.812 75.338 38.943 75.248 39.07 75.155 C39.198 75.061 39.325 74.966 39.449 74.867 C39.572 74.768 39.694 74.666 39.813 74.562 C39.932 74.457 40.048 74.349 40.162 74.238 C40.275 74.127 40.437 73.955 40.492 73.897 L40.5 73.889 L40.507 73.88 L40.513 73.87 L40.52 73.86 L40.525 73.85 L40.53 73.84 C40.53 73.838 40.532 73.836 40.532 73.834 C40.533 73.832 40.534 73.831 40.534 73.829 C40.535 73.827 40.536 73.825 40.536 73.824 L40.54 73.813 C40.54 73.811 40.541 73.809 40.541 73.807 L40.544 73.796 C40.544 73.794 40.544 73.792 40.545 73.79 L40.546 73.779 L40.547 73.767 C40.547 73.765 40.547 73.763 40.547 73.762 C40.547 73.76 40.547 73.758 40.547 73.756 L40.547 72.276 C40.547 72.273 40.547 72.269 40.547 72.266 C40.547 72.262 40.547 72.258 40.546 72.254 C40.546 72.251 40.546 72.247 40.545 72.244 C40.544 72.24 40.544 72.237 40.543 72.233 C40.542 72.229 40.542 72.226 40.54 72.222 C40.54 72.219 40.538 72.215 40.538 72.212 C40.536 72.208 40.535 72.205 40.534 72.202 C40.532 72.198 40.531 72.195 40.53 72.191 C40.528 72.188 40.526 72.185 40.525 72.182 C40.523 72.178 40.521 72.175 40.52 72.172 C40.518 72.169 40.516 72.166 40.514 72.163 C40.512 72.16 40.51 72.157 40.507 72.154 C40.505 72.151 40.504 72.148 40.501 72.145 C40.499 72.142 40.496 72.14 40.494 72.137 C40.492 72.134 40.489 72.131 40.486 72.129 C40.484 72.126 40.481 72.124 40.479 72.121 C40.476 72.119 40.473 72.117 40.47 72.114 C40.467 72.112 40.465 72.109 40.462 72.107 C40.459 72.105 40.456 72.104 40.453 72.102 C40.45 72.099 40.446 72.098 40.443 72.096 C40.441 72.094 40.437 72.092 40.434 72.09 C40.431 72.088 40.427 72.087 40.424 72.086 C40.421 72.084 40.417 72.083 40.414 72.081 C40.41 72.08 40.407 72.079 40.404 72.078 C40.4 72.077 40.397 72.075 40.393 72.075 C40.389 72.073 40.386 72.073 40.382 72.072 C40.379 72.071 40.376 72.071 40.372 72.07 C40.351 72.065 40.297 72.056 40.26 72.046 C40.223 72.036 40.187 72.024 40.151 72.01 C40.116 71.997 40.081 71.981 40.047 71.964 C40.013 71.947 39.98 71.927 39.948 71.907 C39.916 71.886 39.885 71.863 39.856 71.839 C39.826 71.816 39.797 71.79 39.77 71.763 C39.743 71.736 39.718 71.708 39.694 71.679 C39.67 71.649 39.647 71.618 39.627 71.586 C39.606 71.555 39.586 71.521 39.569 71.488 C39.551 71.454 39.535 71.419 39.522 71.383 C39.508 71.348 39.496 71.311 39.486 71.275 C39.476 71.238 39.467 71.2 39.461 71.163 C39.455 71.126 39.451 71.088 39.448 71.05 C39.446 71.012 39.446 70.973 39.448 70.935 C39.449 70.897 39.453 70.859 39.458 70.821 C39.464 70.784 39.471 70.747 39.481 70.709 C39.49 70.672 39.501 70.636 39.514 70.6 C39.528 70.564 39.543 70.529 39.56 70.495 C39.576 70.461 39.595 70.428 39.616 70.395 C39.635 70.363 39.657 70.331 39.68 70.301 C39.704 70.272 39.729 70.242 39.755 70.215 C39.781 70.187 39.81 70.161 39.838 70.137 C39.867 70.112 39.898 70.089 39.929 70.067 C39.96 70.045 39.993 70.025 40.027 70.007 C40.06 69.988 40.094 69.972 40.129 69.958 C40.164 69.942 40.201 69.929 40.237 69.918 C40.273 69.908 40.31 69.895 40.348 69.891 C40.39 69.886 40.444 69.891 40.492 69.891 L41.068 69.889 C41.115 69.889 41.163 69.889 41.211 69.889 C41.259 69.889 41.307 69.889 41.355 69.889 L42.074 69.887 C42.122 69.887 42.171 69.887 42.219 69.887 C42.266 69.887 42.314 69.887 42.362 69.887 L43.082 69.885 C43.13 69.885 43.177 69.885 43.225 69.885 C43.274 69.885 43.322 69.884 43.37 69.884 L44.089 69.883 C44.137 69.883 44.207 69.882 44.233 69.882 C44.237 69.882 44.241 69.882 44.245 69.882 C44.249 69.882 44.253 69.882 44.257 69.881 C44.261 69.88 44.265 69.88 44.269 69.879 C44.273 69.878 44.277 69.878 44.281 69.877 C44.285 69.876 44.289 69.875 44.292 69.874 C44.296 69.872 44.3 69.871 44.304 69.87 C44.308 69.868 44.312 69.867 44.315 69.865 C44.319 69.864 44.323 69.862 44.326 69.86 C44.33 69.858 44.334 69.856 44.337 69.854 C44.341 69.852 44.344 69.85 44.347 69.848 C44.351 69.845 44.354 69.843 44.357 69.841 C44.361 69.838 44.364 69.836 44.367 69.834 C44.37 69.831 44.373 69.828 44.376 69.825 C44.379 69.822 44.382 69.82 44.385 69.817 C44.387 69.814 44.39 69.811 44.393 69.807 C44.395 69.805 44.398 69.801 44.4 69.798 C44.403 69.795 44.405 69.792 44.407 69.788 C44.409 69.784 44.412 69.781 44.414 69.778 C44.416 69.774 44.418 69.771 44.419 69.767 C44.421 69.763 44.423 69.76 44.424 69.756 C44.426 69.752 44.427 69.748 44.429 69.745 C44.43 69.741 44.431 69.737 44.433 69.733 C44.434 69.729 44.435 69.725 44.436 69.721 C44.437 69.718 44.437 69.714 44.438 69.71 C44.439 69.706 44.439 69.702 44.44 69.698 C44.441 69.693 44.441 69.689 44.441 69.685 C44.441 69.681 44.441 69.678 44.441 69.674 C44.441 69.667 44.441 69.657 44.441 69.648 L44.441 68.991 C44.441 68.988 44.441 68.984 44.441 68.98 C44.441 68.976 44.441 68.973 44.441 68.969 C44.44 68.966 44.439 68.962 44.439 68.959 C44.438 68.955 44.437 68.952 44.437 68.948 C44.436 68.944 44.435 68.941 44.435 68.937 C44.433 68.934 44.432 68.931 44.431 68.927 C44.43 68.923 44.429 68.92 44.427 68.917 C44.426 68.913 44.425 68.91 44.424 68.907 C44.422 68.904 44.42 68.9 44.419 68.897 C44.418 68.894 44.416 68.891 44.414 68.887 C44.412 68.884 44.41 68.881 44.408 68.878 C44.407 68.875 44.405 68.872 44.402 68.869 C44.4 68.866 44.398 68.863 44.395 68.86 C44.393 68.858 44.391 68.855 44.389 68.852 C44.386 68.849 44.384 68.847 44.381 68.844 C44.379 68.841 44.376 68.839 44.374 68.837 C44.37 68.834 44.368 68.832 44.365 68.83 C44.363 68.828 44.359 68.825 44.357 68.823 C44.353 68.821 44.351 68.819 44.347 68.817 C44.345 68.814 44.342 68.812 44.338 68.811 C44.336 68.809 44.332 68.807 44.329 68.806 C44.326 68.804 44.323 68.803 44.319 68.801 C44.316 68.799 44.313 68.798 44.309 68.797 C44.306 68.795 44.303 68.794 44.299 68.793 C44.296 68.791 44.292 68.791 44.289 68.79 C44.285 68.789 44.282 68.788 44.279 68.787 C44.275 68.786 44.271 68.786 44.267 68.785 C44.141 68.761 43.768 68.694 43.519 68.641 C43.271 68.588 43.024 68.53 42.778 68.467 C42.532 68.404 42.287 68.336 42.044 68.262 C41.801 68.189 41.559 68.111 41.319 68.028 C41.079 67.945 40.841 67.857 40.605 67.764 C40.368 67.672 40.133 67.574 39.901 67.472 C39.669 67.37 39.438 67.263 39.21 67.151 C38.981 67.04 38.756 66.924 38.532 66.803 C38.308 66.682 38.087 66.557 37.869 66.428 C37.651 66.299 37.435 66.164 37.222 66.026 C37.008 65.888 36.798 65.746 36.591 65.599 C36.383 65.453 36.179 65.302 35.977 65.148 C35.776 64.993 35.577 64.834 35.382 64.671 C35.187 64.509 34.995 64.343 34.807 64.173 C34.618 64.002 34.432 63.829 34.251 63.652 C34.069 63.474 33.891 63.293 33.716 63.109 C33.541 62.925 33.37 62.737 33.203 62.546 C33.035 62.355 32.871 62.161 32.712 61.963 C32.552 61.766 32.396 61.565 32.244 61.362 C32.092 61.159 31.943 60.953 31.8 60.743 C31.655 60.534 31.515 60.322 31.379 60.108 C31.243 59.894 31.111 59.676 30.983 59.457 C30.856 59.238 30.732 59.015 30.613 58.791 C30.494 58.567 30.378 58.34 30.268 58.112 C30.157 57.883 30.051 57.652 29.95 57.42 C29.847 57.187 29.75 56.953 29.657 56.717 C29.564 56.48 29.436 56.124 29.391 56.002 C29.389 55.998 29.388 55.993 29.387 55.989 C29.386 55.984 29.384 55.979 29.384 55.974 C29.383 55.97 29.382 55.964 29.381 55.96 C29.38 55.955 29.38 55.95 29.38 55.945 C29.38 55.94 29.38 55.935 29.38 55.931 C29.38 55.926 29.38 55.921 29.38 55.916 C29.381 55.911 29.381 55.906 29.382 55.901 C29.383 55.897 29.384 55.892 29.385 55.887 C29.386 55.882 29.387 55.878 29.388 55.873 C29.389 55.869 29.391 55.864 29.393 55.859 C29.395 55.855 29.397 55.85 29.399 55.846 C29.401 55.841 29.403 55.837 29.405 55.832 C29.408 55.829 29.41 55.824 29.413 55.82 C29.416 55.816 29.418 55.812 29.421 55.808 C29.424 55.804 29.427 55.8 29.43 55.796 C29.433 55.793 29.437 55.789 29.44 55.786 C29.444 55.783 29.447 55.779 29.451 55.776 C29.454 55.773 29.458 55.77 29.462 55.767 C29.466 55.764 29.47 55.761 29.474 55.758 C29.478 55.756 29.483 55.753 29.487 55.75 C29.491 55.749 29.495 55.746 29.5 55.744 C29.504 55.742 29.509 55.74 29.513 55.738 C29.517 55.737 29.522 55.735 29.527 55.733 C29.532 55.732 29.536 55.731 29.541 55.729 C29.546 55.729 29.551 55.728 29.555 55.727 C29.56 55.726 29.565 55.726 29.57 55.725 C29.574 55.724 29.58 55.724 29.584 55.724 C29.653 55.722 29.848 55.718 29.98 55.712 C30.112 55.706 30.243 55.699 30.375 55.69 C30.507 55.682 30.638 55.671 30.77 55.659 C30.901 55.648 31.032 55.634 31.164 55.619 C31.295 55.604 31.426 55.588 31.556 55.569 C31.687 55.552 31.817 55.532 31.948 55.51 C32.078 55.489 32.208 55.467 32.338 55.442 C32.467 55.418 32.597 55.392 32.726 55.364 C32.854 55.337 32.984 55.307 33.111 55.276 C33.24 55.245 33.368 55.213 33.495 55.179 C33.622 55.144 33.75 55.108 33.876 55.071 C34.003 55.034 34.129 54.994 34.254 54.954 C34.379 54.913 34.504 54.87 34.628 54.826 C34.753 54.782 34.876 54.736 35 54.688 C35.122 54.64 35.245 54.591 35.366 54.54 C35.488 54.488 35.609 54.436 35.729 54.38 C35.849 54.325 35.968 54.269 36.086 54.211 C36.204 54.152 36.322 54.091 36.438 54.029 C36.555 53.967 36.67 53.903 36.784 53.837 C36.898 53.77 37.011 53.703 37.123 53.633 C37.235 53.563 37.346 53.491 37.455 53.418 C37.565 53.344 37.673 53.268 37.779 53.19 C37.886 53.112 37.991 53.033 38.095 52.951 C38.198 52.869 38.3 52.785 38.4 52.699 C38.5 52.613 38.598 52.525 38.695 52.435 C38.791 52.345 38.886 52.253 38.978 52.158 C39.07 52.065 39.203 51.918 39.248 51.87 L39.256 51.861 L39.263 51.852 L39.269 51.843 L39.274 51.833 C39.276 51.832 39.276 51.83 39.278 51.828 L39.282 51.818 L39.287 51.808 L39.291 51.797 L39.294 51.787 L39.297 51.775 L39.299 51.764 C39.299 51.762 39.299 51.76 39.3 51.758 L39.301 51.747 L39.301 51.736 C39.301 51.734 39.301 51.732 39.302 51.731 C39.302 51.705 39.302 51.63 39.302 51.579 L39.302 47.651 L39.302 47.642 L39.303 47.634 L39.304 47.624 L39.305 47.616 L39.307 47.607 L39.309 47.599 L39.312 47.591 L39.314 47.582 L39.318 47.575 L39.323 47.563 L39.327 47.555 L39.332 47.547 z" fill-rule="nonzero" stroke-width="0.76px" style="fill:white;stroke:black;" />
        <path d="M25.643 22.825 C25.629 22.719 25.587 22.415 25.565 22.21 C25.542 22.004 25.522 21.798 25.505 21.592 C25.488 21.386 25.475 21.18 25.465 20.973 C25.454 20.767 25.447 20.56 25.443 20.353 C25.439 20.147 25.439 19.94 25.441 19.734 C25.443 19.526 25.449 19.32 25.458 19.113 C25.467 18.907 25.479 18.701 25.494 18.494 C25.509 18.288 25.527 18.082 25.549 17.877 C25.57 17.671 25.595 17.466 25.622 17.261 C25.65 17.056 25.681 16.852 25.715 16.648 C25.749 16.444 25.786 16.241 25.827 16.038 C25.867 15.835 25.911 15.633 25.957 15.431 C26.004 15.23 26.053 15.029 26.106 14.829 C26.159 14.63 26.214 14.43 26.273 14.232 C26.333 14.034 26.394 13.837 26.459 13.641 C26.524 13.444 26.592 13.249 26.663 13.055 C26.734 12.861 26.808 12.668 26.885 12.476 C26.961 12.284 27.041 12.093 27.124 11.903 C27.207 11.715 27.293 11.526 27.381 11.339 C27.47 11.152 27.562 10.967 27.655 10.783 C27.75 10.599 27.847 10.417 27.947 10.236 C28.047 10.055 28.149 9.875 28.255 9.697 C28.36 9.519 28.468 9.343 28.579 9.169 C28.69 8.994 28.803 8.822 28.92 8.65 C29.036 8.479 29.155 8.31 29.276 8.143 C29.397 7.976 29.521 7.81 29.648 7.646 C29.774 7.483 29.968 7.245 30.034 7.162 C30.038 7.156 30.043 7.151 30.046 7.146 C30.05 7.141 30.053 7.135 30.056 7.129 C30.059 7.124 30.062 7.118 30.065 7.112 C30.067 7.106 30.07 7.1 30.072 7.094 C30.073 7.088 30.075 7.082 30.077 7.075 C30.078 7.069 30.079 7.063 30.08 7.056 C30.081 7.049 30.081 7.044 30.082 7.037 C30.082 7.03 30.082 7.024 30.082 7.017 C30.081 7.011 30.081 7.004 30.08 6.998 C30.079 6.992 30.077 6.985 30.076 6.979 C30.075 6.973 30.073 6.967 30.07 6.96 C30.068 6.954 30.066 6.948 30.064 6.943 C30.06 6.937 30.058 6.931 30.054 6.925 C30.051 6.92 30.048 6.914 30.044 6.908 C30.041 6.903 30.037 6.899 30.032 6.893 C30.028 6.889 30.024 6.884 30.019 6.879 C30.014 6.875 30.009 6.87 30.005 6.866 C29.999 6.863 29.994 6.859 29.989 6.855 C29.984 6.851 29.978 6.848 29.972 6.845 C29.967 6.842 29.961 6.839 29.955 6.836 C29.949 6.834 29.943 6.832 29.936 6.83 C29.931 6.828 29.924 6.826 29.918 6.825 C29.912 6.823 29.905 6.822 29.898 6.821 C29.892 6.821 29.886 6.82 29.879 6.82 C29.873 6.82 29.866 6.82 29.86 6.82 C29.854 6.821 29.847 6.821 29.841 6.823 C29.834 6.823 29.828 6.825 29.822 6.826 C29.698 6.863 29.338 6.959 29.1 7.04 C28.862 7.12 28.627 7.21 28.396 7.308 C28.166 7.406 27.939 7.514 27.717 7.631 C27.495 7.747 27.276 7.872 27.064 8.004 C26.851 8.138 26.643 8.279 26.442 8.429 C26.24 8.578 26.044 8.735 25.854 8.899 C25.665 9.064 25.482 9.235 25.305 9.414 C25.13 9.593 24.96 9.778 24.798 9.97 C24.636 10.162 24.482 10.36 24.336 10.564 C24.189 10.768 24.051 10.977 23.921 11.192 C23.79 11.406 23.668 11.626 23.556 11.85 C23.443 12.074 23.338 12.303 23.243 12.534 C23.148 12.767 23.061 13.003 22.984 13.241 C22.907 13.479 22.839 13.722 22.78 13.966 C22.723 14.209 22.674 14.457 22.634 14.704 C22.595 14.952 22.566 15.202 22.546 15.452 C22.526 15.701 22.516 15.953 22.515 16.204 C22.515 16.454 22.525 16.706 22.544 16.955 C22.563 17.205 22.592 17.456 22.63 17.703 C22.669 17.951 22.717 18.198 22.775 18.442 C22.832 18.686 22.899 18.928 22.976 19.167 C23.052 19.406 23.138 19.643 23.232 19.875 C23.327 20.107 23.431 20.336 23.544 20.56 C23.656 20.784 23.777 21.005 23.907 21.219 C24.036 21.434 24.175 21.644 24.32 21.848 C24.466 22.052 24.62 22.251 24.781 22.443 C24.942 22.635 25.201 22.905 25.287 23 C25.291 23.006 25.296 23.01 25.301 23.014 C25.306 23.018 25.311 23.022 25.317 23.025 C25.322 23.029 25.327 23.033 25.333 23.036 C25.338 23.039 25.344 23.042 25.35 23.045 C25.356 23.048 25.362 23.05 25.368 23.052 C25.374 23.054 25.381 23.056 25.387 23.058 C25.393 23.059 25.399 23.06 25.406 23.061 C25.412 23.062 25.419 23.063 25.425 23.063 C25.432 23.063 25.438 23.063 25.444 23.063 C25.451 23.063 25.458 23.062 25.464 23.061 C25.471 23.061 25.477 23.06 25.483 23.058 C25.489 23.056 25.496 23.055 25.502 23.053 C25.508 23.051 25.514 23.048 25.52 23.046 C25.526 23.043 25.532 23.04 25.538 23.037 C25.543 23.034 25.549 23.031 25.554 23.027 C25.559 23.023 25.565 23.02 25.569 23.016 C25.574 23.011 25.579 23.007 25.584 23.002 C25.588 22.998 25.593 22.993 25.597 22.988 C25.601 22.983 25.605 22.978 25.608 22.972 C25.612 22.967 25.616 22.962 25.619 22.956 C25.622 22.951 25.625 22.945 25.627 22.939 C25.63 22.933 25.632 22.926 25.634 22.92 C25.637 22.915 25.638 22.908 25.64 22.902 C25.641 22.896 25.643 22.889 25.643 22.882 C25.644 22.877 25.645 22.87 25.645 22.863 C25.645 22.857 25.645 22.85 25.645 22.844 C25.645 22.838 25.644 22.831 25.643 22.825 z" fill-rule="nonzero" stroke-width="0.76px" style="fill:white;stroke:black;" />
        <path d="M16.22 41.041 C16.164 40.899 15.994 40.489 15.892 40.209 C15.79 39.929 15.693 39.646 15.607 39.361 C15.521 39.075 15.441 38.788 15.374 38.498 C15.306 38.207 15.247 37.914 15.201 37.62 C15.156 37.326 15.121 37.029 15.1 36.731 C15.08 36.434 15.072 36.135 15.079 35.837 C15.087 35.54 15.11 35.241 15.147 34.946 C15.184 34.65 15.238 34.356 15.305 34.066 C15.373 33.775 15.456 33.488 15.55 33.206 C15.644 32.924 15.754 32.645 15.871 32.371 C15.988 32.097 16.118 31.828 16.252 31.562 C16.386 31.296 16.529 31.034 16.674 30.774 C16.819 30.513 16.971 30.256 17.12 29.998 C17.27 29.74 17.423 29.484 17.57 29.225 C17.718 28.965 17.866 28.707 18.005 28.443 C18.144 28.179 18.281 27.913 18.404 27.643 C18.528 27.372 18.645 27.096 18.746 26.816 C18.847 26.536 18.938 26.251 19.011 25.962 C19.083 25.674 19.142 25.379 19.182 25.085 C19.222 24.79 19.245 24.491 19.252 24.193 C19.258 23.896 19.247 23.596 19.221 23.3 C19.196 23.003 19.153 22.707 19.099 22.414 C19.045 22.121 18.976 21.83 18.898 21.543 C18.819 21.255 18.728 20.971 18.63 20.689 C18.531 20.408 18.422 20.13 18.307 19.855 C18.192 19.58 18.068 19.309 17.939 19.04 C17.81 18.772 17.602 18.378 17.534 18.243 C17.531 18.238 17.528 18.232 17.526 18.227 C17.524 18.222 17.522 18.217 17.52 18.211 C17.518 18.206 17.517 18.2 17.515 18.195 C17.513 18.189 17.513 18.184 17.511 18.178 C17.511 18.173 17.51 18.167 17.509 18.161 C17.509 18.156 17.509 18.15 17.509 18.144 C17.509 18.138 17.509 18.133 17.509 18.127 C17.51 18.121 17.511 18.116 17.511 18.11 C17.513 18.104 17.514 18.099 17.515 18.093 C17.517 18.087 17.518 18.082 17.52 18.076 C17.522 18.071 17.524 18.066 17.526 18.061 C17.528 18.055 17.531 18.05 17.534 18.046 C17.536 18.04 17.539 18.035 17.542 18.03 C17.545 18.026 17.549 18.021 17.552 18.017 C17.556 18.012 17.559 18.007 17.563 18.004 C17.567 17.999 17.571 17.995 17.575 17.991 C17.58 17.987 17.583 17.984 17.588 17.98 C17.593 17.977 17.597 17.973 17.602 17.97 C17.607 17.967 17.612 17.964 17.617 17.961 C17.621 17.958 17.627 17.956 17.632 17.954 C17.637 17.951 17.642 17.949 17.648 17.947 C17.654 17.945 17.659 17.943 17.664 17.942 C17.67 17.941 17.675 17.939 17.681 17.939 C17.686 17.937 17.692 17.937 17.698 17.936 C17.703 17.935 17.709 17.935 17.715 17.935 C17.721 17.935 17.726 17.935 17.732 17.935 C17.738 17.936 17.743 17.936 17.749 17.937 C17.928 17.979 18.462 18.074 18.805 18.182 C19.149 18.289 19.488 18.425 19.813 18.582 C20.137 18.739 20.453 18.922 20.753 19.122 C21.053 19.322 21.34 19.546 21.612 19.784 C21.885 20.02 22.142 20.277 22.385 20.544 C22.627 20.812 22.855 21.095 23.067 21.387 C23.28 21.679 23.477 21.985 23.658 22.297 C23.839 22.609 24.006 22.932 24.154 23.262 C24.302 23.59 24.436 23.929 24.549 24.272 C24.661 24.615 24.759 24.965 24.829 25.319 C24.898 25.672 24.951 26.034 24.966 26.394 C24.983 26.754 24.972 27.121 24.926 27.477 C24.879 27.833 24.797 28.192 24.686 28.533 C24.575 28.876 24.427 29.21 24.26 29.529 C24.093 29.849 23.894 30.155 23.685 30.449 C23.477 30.743 23.245 31.024 23.009 31.297 C22.774 31.571 22.523 31.832 22.27 32.091 C22.018 32.351 21.757 32.602 21.498 32.853 C21.239 33.105 20.974 33.352 20.714 33.604 C20.454 33.855 20.192 34.105 19.938 34.362 C19.684 34.62 19.431 34.879 19.19 35.148 C18.949 35.417 18.712 35.691 18.491 35.977 C18.271 36.263 18.058 36.558 17.867 36.865 C17.677 37.171 17.499 37.488 17.347 37.816 C17.195 38.143 17.062 38.483 16.956 38.827 C16.851 39.172 16.77 39.527 16.714 39.883 C16.658 40.24 16.637 40.78 16.621 40.964 C16.621 40.971 16.621 40.978 16.62 40.985 C16.619 40.992 16.618 40.998 16.617 41.006 C16.615 41.012 16.613 41.019 16.611 41.026 C16.609 41.032 16.606 41.039 16.603 41.046 C16.6 41.052 16.597 41.058 16.594 41.064 C16.59 41.071 16.586 41.076 16.582 41.082 C16.578 41.088 16.573 41.093 16.569 41.099 C16.564 41.104 16.56 41.109 16.554 41.114 C16.549 41.118 16.544 41.123 16.538 41.127 C16.532 41.131 16.526 41.135 16.52 41.139 C16.514 41.143 16.508 41.146 16.502 41.149 C16.495 41.152 16.489 41.154 16.482 41.156 C16.476 41.159 16.469 41.161 16.463 41.163 C16.455 41.164 16.449 41.166 16.442 41.167 C16.434 41.168 16.428 41.168 16.421 41.169 C16.413 41.169 16.407 41.169 16.4 41.168 C16.392 41.168 16.385 41.167 16.379 41.166 C16.371 41.165 16.365 41.164 16.358 41.162 C16.351 41.16 16.345 41.158 16.338 41.155 C16.331 41.153 16.325 41.15 16.319 41.147 C16.312 41.143 16.306 41.14 16.301 41.136 C16.295 41.132 16.289 41.128 16.283 41.124 C16.278 41.12 16.272 41.115 16.267 41.11 C16.262 41.105 16.257 41.1 16.253 41.095 C16.248 41.09 16.244 41.084 16.24 41.078 C16.236 41.072 16.232 41.066 16.229 41.06 C16.226 41.053 16.223 41.048 16.22 41.041 z" fill-rule="nonzero" stroke-width="0.76px" style="fill:white;stroke:black;" />
        <path d="M27.108 19.553 C27.177 19.767 27.393 20.392 27.518 20.817 C27.644 21.241 27.761 21.669 27.861 22.101 C27.962 22.532 28.052 22.966 28.121 23.403 C28.191 23.84 28.247 24.281 28.279 24.722 C28.311 25.163 28.326 25.607 28.312 26.05 C28.298 26.491 28.263 26.936 28.196 27.372 C28.13 27.809 28.036 28.245 27.913 28.669 C27.789 29.093 27.634 29.512 27.454 29.914 C27.274 30.318 27.061 30.71 26.831 31.087 C26.601 31.464 26.342 31.826 26.072 32.177 C25.803 32.527 25.51 32.862 25.212 33.189 C24.914 33.516 24.6 33.829 24.284 34.14 C23.969 34.45 23.643 34.75 23.318 35.052 C22.994 35.353 22.664 35.649 22.339 35.95 C22.014 36.251 21.687 36.549 21.369 36.857 C21.052 37.166 20.735 37.476 20.432 37.8 C20.13 38.123 19.833 38.453 19.556 38.797 C19.278 39.142 19.01 39.496 18.767 39.866 C18.525 40.236 18.298 40.619 18.099 41.013 C17.901 41.408 17.724 41.818 17.576 42.234 C17.429 42.65 17.308 43.079 17.214 43.511 C17.119 43.943 17.053 44.383 17.009 44.823 C16.966 45.263 16.949 45.707 16.951 46.149 C16.952 46.592 16.978 47.036 17.018 47.476 C17.058 47.917 17.119 48.356 17.192 48.793 C17.265 49.229 17.355 49.664 17.454 50.095 C17.553 50.527 17.732 51.163 17.789 51.381 C17.791 51.388 17.793 51.394 17.795 51.401 C17.798 51.407 17.801 51.414 17.804 51.421 C17.808 51.426 17.812 51.433 17.816 51.439 C17.82 51.445 17.823 51.45 17.828 51.456 C17.833 51.461 17.837 51.466 17.843 51.472 C17.847 51.476 17.853 51.482 17.858 51.486 C17.863 51.49 17.869 51.495 17.875 51.499 C17.881 51.503 17.888 51.506 17.894 51.509 C17.9 51.512 17.907 51.515 17.913 51.518 C17.92 51.52 17.926 51.523 17.934 51.525 C17.94 51.526 17.947 51.528 17.955 51.529 C17.961 51.53 17.968 51.531 17.976 51.531 C17.983 51.532 17.99 51.532 17.997 51.532 C18.004 51.532 18.011 51.531 18.018 51.53 C18.025 51.529 18.032 51.528 18.039 51.526 C18.046 51.524 18.053 51.522 18.06 51.52 C18.066 51.518 18.073 51.515 18.079 51.512 C18.086 51.509 18.092 51.505 18.098 51.502 C18.104 51.498 18.11 51.494 18.115 51.49 C18.121 51.485 18.126 51.481 18.132 51.476 C18.137 51.471 18.142 51.466 18.147 51.461 C18.151 51.455 18.156 51.45 18.16 51.444 C18.164 51.438 18.168 51.432 18.171 51.426 C18.175 51.42 18.178 51.413 18.181 51.407 C18.184 51.4 18.186 51.394 18.188 51.387 C18.191 51.381 18.193 51.373 18.194 51.366 C18.195 51.36 18.196 51.352 18.197 51.345 C18.226 51.167 18.29 50.644 18.365 50.299 C18.44 49.955 18.534 49.612 18.647 49.278 C18.76 48.944 18.893 48.614 19.042 48.295 C19.192 47.976 19.361 47.664 19.544 47.362 C19.727 47.06 19.929 46.769 20.141 46.487 C20.352 46.205 20.58 45.932 20.816 45.67 C21.052 45.407 21.3 45.155 21.555 44.911 C21.81 44.666 22.075 44.431 22.344 44.202 C22.613 43.974 22.89 43.754 23.171 43.54 C23.451 43.325 23.737 43.117 24.026 42.914 C24.315 42.71 24.608 42.513 24.903 42.318 C25.197 42.123 25.495 41.933 25.793 41.744 C26.092 41.555 26.393 41.37 26.694 41.185 C26.995 40.999 27.297 40.817 27.599 40.632 C27.901 40.449 28.203 40.266 28.504 40.081 C28.805 39.896 29.106 39.711 29.405 39.522 C29.703 39.333 30.001 39.143 30.296 38.948 C30.59 38.753 30.883 38.555 31.171 38.35 C31.459 38.145 31.744 37.937 32.022 37.719 C32.301 37.501 32.576 37.278 32.84 37.044 C33.104 36.811 33.364 36.569 33.609 36.316 C33.854 36.062 34.093 35.799 34.313 35.523 C34.532 35.247 34.741 34.96 34.927 34.66 C35.112 34.361 35.282 34.048 35.427 33.726 C35.57 33.405 35.693 33.07 35.789 32.731 C35.886 32.393 35.957 32.043 36.004 31.694 C36.052 31.346 36.063 30.909 36.073 30.637 C36.08 30.447 36.07 30.256 36.063 30.065 C36.056 29.874 36.046 29.684 36.031 29.493 C36.017 29.303 35.999 29.113 35.977 28.924 C35.955 28.735 35.929 28.545 35.899 28.357 C35.869 28.169 35.834 27.98 35.795 27.794 C35.756 27.607 35.713 27.421 35.665 27.237 C35.617 27.052 35.564 26.869 35.507 26.686 C35.449 26.505 35.387 26.324 35.32 26.145 C35.253 25.967 35.181 25.79 35.104 25.615 C35.027 25.441 34.945 25.268 34.859 25.099 C34.772 24.929 34.68 24.761 34.584 24.596 C34.488 24.432 34.386 24.27 34.281 24.111 C34.175 23.952 34.065 23.796 33.95 23.644 C33.835 23.491 33.716 23.342 33.593 23.197 C33.47 23.051 33.342 22.909 33.211 22.77 C33.08 22.632 32.945 22.497 32.806 22.366 C32.668 22.234 32.526 22.107 32.381 21.983 C32.235 21.859 32.087 21.739 31.936 21.623 C31.785 21.506 31.63 21.393 31.474 21.284 C31.318 21.175 31.159 21.069 30.998 20.967 C30.837 20.865 30.673 20.766 30.508 20.671 C30.343 20.576 30.175 20.483 30.007 20.395 C29.837 20.306 29.667 20.22 29.495 20.138 C29.323 20.056 29.149 19.976 28.974 19.9 C28.8 19.824 28.623 19.75 28.446 19.679 C28.269 19.608 28.091 19.54 27.912 19.475 C27.733 19.409 27.464 19.319 27.371 19.286 C27.366 19.284 27.36 19.282 27.355 19.281 C27.349 19.28 27.343 19.279 27.338 19.278 C27.332 19.277 27.326 19.277 27.321 19.276 C27.315 19.275 27.309 19.275 27.303 19.275 C27.298 19.275 27.292 19.276 27.286 19.276 C27.28 19.277 27.275 19.277 27.269 19.279 C27.263 19.279 27.258 19.28 27.252 19.282 C27.247 19.284 27.241 19.285 27.236 19.287 C27.23 19.289 27.225 19.291 27.22 19.294 C27.215 19.296 27.209 19.299 27.204 19.301 C27.199 19.304 27.194 19.307 27.19 19.31 C27.184 19.313 27.18 19.317 27.175 19.32 C27.171 19.324 27.167 19.328 27.162 19.332 C27.158 19.336 27.154 19.34 27.15 19.344 C27.146 19.348 27.142 19.353 27.139 19.357 C27.136 19.362 27.133 19.366 27.129 19.372 C27.126 19.376 27.123 19.381 27.121 19.386 C27.118 19.391 27.116 19.397 27.113 19.402 C27.111 19.407 27.109 19.412 27.107 19.418 C27.105 19.423 27.104 19.429 27.102 19.435 C27.101 19.44 27.1 19.446 27.099 19.452 C27.098 19.457 27.097 19.463 27.097 19.469 C27.097 19.475 27.096 19.48 27.096 19.486 C27.096 19.492 27.097 19.498 27.097 19.503 C27.097 19.509 27.099 19.515 27.099 19.52 C27.101 19.526 27.102 19.532 27.103 19.537 C27.104 19.543 27.106 19.548 27.108 19.553 z" fill-rule="nonzero" stroke-width="0.76px" style="fill:white;stroke:black;" />
    </g>
</svg>