<?xml version="1.0" encoding="utf-8"?>
<!DOCTYPE svg PUBLIC "-//W3C//DTD SVG 1.1//EN" "http://www.w3.org/Graphics/SVG/1.1/DTD/svg11.dtd">
<svg version="1.1" xmlns="http://www.w3.org/2000/svg" xmlns:xlink="http://www.w3.org/1999/xlink" xmlns:xml="http://www.w3.org/XML/1998/namespace" xmlns:serif="http://www.serif.com/" width="91" height="91" viewBox="0, 0, 91, 91" xml:space="preserve" fill-rule="evenodd" stroke-linejoin="round" stroke-miterlimit="2" style="clip-rule:evenodd;">
	<filter xmlns="http://www.w3.org/2000/svg" height="150%" id="dropshadow">
      <feGaussianBlur stdDeviation="2" in="SourceAlpha" /> 
      <feOffset dx="0" dy="0" result="offsetblur" /> 
      <feMerge> 
        <feMergeNode />
        <feMergeNode in="SourceGraphic" /> 
      </feMerge>
    </filter>
	<path d="M20.6 7.4 C23.1 5.8 25.7 4.4 28.5 3.3 C31.2 2.2 34.1 1.3 37 0.8 C39.9 0.2 42.9 -0 45.9 0 C48.9 0 51.9 0.4 54.8 1 C57.7 1.6 60.5 2.5 63.3 3.6 C66 4.8 68.6 6.2 71.1 7.9 C73.6 9.6 75.8 11.5 77.9 13.6 C80 15.8 81.9 18.1 83.5 20.6 C85.1 23.1 86.5 25.7 87.6 28.5 C88.8 31.2 89.6 34.1 90.2 37 C90.7 39.9 91 42.9 90.9 45.9 C90.9 48.9 90.6 51.9 90 54.8 C89.4 57.7 88.5 60.5 87.3 63.3 C86.1 66 84.7 68.6 83 71.1 C81.4 73.6 79.4 75.8 77.3 77.9 C75.2 80 72.9 81.9 70.4 83.5 C67.9 85.1 65.2 86.5 62.5 87.6 C59.7 88.8 56.8 89.6 53.9 90.2 C51 90.7 48 91 45 90.9 C42.1 90.9 39.1 90.6 36.2 90 C33.3 89.4 30.4 88.5 27.7 87.3 C24.9 86.1 22.3 84.7 19.8 83 C17.4 81.4 15.1 79.4 13 77.3 C10.9 75.2 9.1 72.9 7.4 70.4 C5.8 67.9 4.4 65.2 3.3 62.5 C2.2 59.7 1.3 56.8 0.8 53.9 C0.2 51 -0 48 0 45 C0 42.1 0.4 39.1 1 36.2 C1.6 33.3 2.5 30.4 3.6 27.7 C4.8 24.9 6.2 22.3 7.9 19.8 C9.6 17.4 11.5 15.1 13.6 13 C15.8 10.9 18.1 9.1 20.6 7.4 z" fill-rule="nonzero" style="fill:#444444;" />

    <g filter="url(#dropshadow)" stroke-width="0.5" style="stroke:black;">
        <path d="M71.8 57.4 C71.8 57.4 71.7 57.2 71.6 57.2 C71.5 57.1 71.3 56.9 71.1 56.8 C70.9 56.8 70.6 56.8 70.4 56.9 C70.3 56.9 70.1 57 70 57.1 C69.9 57.2 69.9 57.4 69.9 57.5 C69.8 57.7 69.9 57.9 70 58 C70.1 58.2 70.3 58.4 70.5 58.6 C70.7 58.9 71.1 59.2 71.4 59.5 C71.7 59.8 72.1 60.3 72.4 60.7 C72.6 61 72.8 61.3 73 61.7 C73.1 62.2 73.3 63 73.3 63.5 C73.3 63.9 73.2 64.4 73 64.7 C72.8 65.2 72.3 65.9 71.7 66.2 C71.2 66.6 70.5 66.8 69.8 66.9 C68.6 67.1 67.4 67.1 66.2 66.7 C65.3 66.4 64.5 65.9 63.9 65.5 C63.3 65 62.8 64.4 62.4 63.8 C62 63.2 61.5 62.4 61.2 61.6 C60.8 60.7 60.3 59.3 60 58.4 C59.8 57.7 59.6 56.9 59.4 56.3 C59.2 55.8 59.1 55.3 58.9 54.9 C58.7 54.6 58.5 54.2 58.2 53.9 C58 53.5 57.3 52.9 57.3 52.9 C57.3 52.9 57.5 54.2 57.4 54.8 C57.4 55.7 57.3 57 57.1 57.8 C56.9 58.5 56.5 59.1 56.2 59.6 C56 60 55.7 60.4 55.4 60.8 C55.1 61.3 54.6 62.1 54.4 62.3 C54.4 62.4 54.3 62.5 54.3 62.5 C54.3 62.6 54.3 62.7 54.3 62.8 C54.4 62.9 54.4 63 54.5 63 C54.7 63.1 54.9 63.1 55.1 63.1 C55.4 63.1 55.8 63 56 63 C56.2 62.9 56.4 62.8 56.7 62.7 C56.9 62.6 57.3 62.5 57.6 62.4 C57.9 62.4 58.4 62.5 58.8 62.6 C59 62.7 59.3 62.9 59.5 63.1 C59.7 63.4 59.9 63.8 60.1 64.2 C60.2 64.5 60.3 64.9 60.4 65.1 C60.4 65.3 60.5 65.4 60.6 65.5 C60.7 65.6 60.8 65.6 61 65.7 C61.1 65.7 61.4 65.7 61.6 65.7 C61.8 65.7 62.2 65.7 62.2 65.7 C62.2 65.7 62.1 66.1 62 66.2 C61.9 66.4 61.7 66.8 61.5 67 C61.4 67.2 61.2 67.4 61 67.5 C60.7 67.6 60.4 67.7 60.1 67.8 C59.9 67.8 59.6 67.7 59.4 67.7 C59.3 67.7 59.2 67.6 59.2 67.6 C59.2 67.6 59.2 67.8 59.2 67.9 C59.3 68 59.4 68.3 59.5 68.4 C59.5 68.5 59.7 68.5 59.8 68.6 C60 68.6 60.2 68.6 60.4 68.5 C60.6 68.5 61 68.3 61.2 68.2 C61.4 68.2 61.5 68.1 61.7 68 C61.8 68 61.9 68 62 68 C62.1 68 62.2 68 62.2 68 C62.2 68 62.1 68.2 62 68.4 C61.9 68.6 61.7 69 61.5 69.3 C61.4 69.5 61.1 69.9 61 70.1 C60.8 70.2 60.7 70.4 60.5 70.5 C60.3 70.6 60 70.8 59.8 70.8 C59.6 70.8 59.2 70.8 59 70.7 C58.8 70.7 58.6 70.6 58.4 70.5 C58.2 70.4 57.9 70.1 57.9 70.1 C57.9 70.1 57.9 70.3 57.9 70.4 C57.9 70.7 57.9 71.3 57.8 71.7 C57.8 72.1 57.7 72.6 57.7 73 C57.6 73.2 57.5 73.6 57.5 73.8 C57.4 74 57.4 74.2 57.3 74.4 C57.3 74.4 57.3 74.5 57.3 74.6 C57.3 74.6 57.2 74.8 57.3 74.9 C57.3 75 57.4 75.2 57.5 75.3 C57.6 75.4 57.8 75.4 58 75.5 C58.2 75.6 58.4 75.6 58.6 75.8 C58.8 76 59.2 76.3 59.4 76.6 C59.5 76.8 59.6 77.2 59.7 77.4 C59.7 77.6 59.7 77.7 59.6 77.9 C59.5 78 59.2 78.4 59.2 78.4 C59.2 78.4 59.2 78.9 59.1 79.1 C59.1 79.4 59 79.6 59 79.8 C58.9 80 58.8 80.2 58.7 80.3 C58.5 80.4 58.2 80.6 58 80.7 C57.7 80.8 57.3 80.8 57.3 80.8 C57.3 80.8 57.4 80.6 57.4 80.4 C57.4 80.3 57.5 79.9 57.5 79.8 C57.6 79.7 57.6 79.5 57.5 79.4 C57.5 79.3 57.4 79.2 57.4 79.2 C57.4 79.2 57.2 79.2 57.1 79.2 C57 79.2 56.7 79.3 56.5 79.2 C56.3 79.1 55.9 78.8 55.9 78.8 C55.9 78.8 55.9 78.9 55.9 79 C55.8 79.1 55.5 79.5 55.3 79.7 C55.1 79.9 54.7 80 54.5 80.1 C54.4 80.2 54.2 80.2 54.2 80.2 C54.1 80.3 54 80.3 54 80.4 C53.9 80.4 53.7 80.6 53.6 80.7 C53.5 80.8 53.4 81 53.3 81.1 C53.1 81.2 53 81.4 52.8 81.5 C52.6 81.7 52.2 81.9 51.8 81.9 C51.5 82 51.1 81.9 50.9 81.8 C50.6 81.8 50.3 81.7 50.2 81.6 C50.2 81.6 50.1 81.6 50.1 81.6 C50 81.6 49.9 81.5 49.8 81.5 C49.6 81.5 49.3 81.5 49.1 81.6 C48.9 81.7 48.6 81.9 48.5 82.1 C48.3 82.2 48.3 82.4 48.2 82.5 C48 82.6 47.9 82.9 47.8 83 C47.8 83 47.8 83 47.8 83 C47.8 83 47.7 82.8 47.7 82.7 C47.7 82.4 47.6 81.8 47.7 81.5 C47.7 81.3 47.7 81.1 47.8 80.9 C47.9 80.7 48 80.5 48.2 80.4 C48.3 80.2 48.5 80.1 48.7 80 C48.8 79.9 48.9 79.8 49 79.8 C49.1 79.8 49.2 79.7 49.2 79.7 C49.2 79.7 48.9 79.6 48.8 79.5 C48.7 79.4 48.6 79.3 48.5 79.3 C48.5 79.2 48.4 79.2 48.4 79.1 C48.3 79.1 48.1 79 48 79 C47.8 79 47.6 79 47.4 79 C47.2 79.1 46.9 79.3 46.7 79.5 C46.6 79.6 46.4 79.8 46.3 79.9 C46.2 80 46.1 80.1 46.1 80.1 C46.1 80.1 46.1 79.8 46.1 79.6 C46.1 79.4 46.1 78.9 46.2 78.6 C46.2 78.4 46.3 78.2 46.4 78 C46.5 77.8 46.7 77.6 46.9 77.5 C47.1 77.3 47.4 77.3 47.5 77.2 C47.7 77.2 47.9 77.2 48 77.2 C48 77.1 48.1 77.1 48.1 77 C48.1 76.9 48.3 76.8 48.3 76.8 C48.3 76.8 48.1 76.6 48 76.5 C48 76.4 47.9 76.3 47.9 76.1 C47.9 76 47.9 75.7 47.9 75.7 C47.9 75.7 47.6 75.6 47.5 75.7 C47.4 75.7 47.1 75.7 47 75.8 C46.8 75.9 46.7 76 46.6 76.2 C46.5 76.3 46.4 76.4 46.3 76.5 C46.2 76.6 45.9 76.8 45.9 76.8 C45.9 76.8 45.9 76.3 45.9 76.1 C45.9 75.9 45.9 75.6 46 75.4 C46.1 75.1 46.3 74.8 46.5 74.5 C46.7 74.3 47 74.2 47.3 74 C47.6 73.9 48.1 73.8 48.3 73.8 C48.3 73.8 48.4 73.8 48.5 73.7 C48.6 73.7 48.7 73.7 48.8 73.7 C49 73.6 49.1 73.6 49.2 73.6 C49.4 73.6 49.9 73.6 50.3 73.7 C50.6 73.8 50.9 74.1 51.1 74.3 C51.3 74.4 51.5 74.7 51.7 74.9 C51.8 75 52 75.3 52 75.3 C52 75.3 52.1 75.3 52.2 75.3 C52.3 75.3 52.7 75.4 52.9 75.3 C53 75.2 53.2 75.1 53.3 74.9 C53.3 74.7 53.3 74.5 53.3 74.3 C53.3 73.9 53.2 73.5 53.1 73.1 C53 72.7 52.9 72.3 52.9 71.9 C52.8 71.5 52.8 71 52.8 70.7 C52.8 70.5 52.8 70.3 52.8 70.2 C52.8 70.1 52.8 69.9 52.8 69.8 C52.7 69.6 52.6 69.3 52.4 69.1 C52.3 69 52.1 68.8 51.9 68.7 C51.8 68.7 51.6 68.6 51.4 68.6 C51.2 68.5 51 68.4 50.8 68.4 C50.6 68.3 50.3 68.1 50.3 68.1 C50.3 68.1 50.3 68.3 50.3 68.4 C50.3 68.6 50.3 68.9 50.2 69 C50.2 69.3 50.1 69.5 49.9 69.7 C49.7 69.9 49.3 70.1 49 70.2 C48.7 70.2 48.4 70.2 48.2 70.3 C47.9 70.3 47.5 70.2 47.1 70.2 C46.8 70.2 46.2 70.2 46.2 70.2 C46.2 70.2 46.4 70.1 46.5 70 C46.6 69.9 46.9 69.7 47 69.5 C47.2 69.4 47.4 69.3 47.5 69.1 C47.6 69 47.8 68.8 47.8 68.6 C47.8 68.4 47.7 68.1 47.7 67.9 C47.6 67.6 47.3 67.3 47.2 67 C47.1 66.8 46.9 66.5 46.8 66.1 C46.7 65.8 46.6 65.5 46.6 65.2 C46.5 64.8 46.5 64.4 46.6 64 C46.6 63.5 46.8 62.9 46.9 62.4 C47 62 47.2 61.3 47.2 61 C47.3 60.9 47.3 60.7 47.3 60.6 C47.3 60.5 47.3 60.3 47.3 60.3 C47.3 60.3 46.4 60.2 45.9 60.2 C45.2 60.1 43.9 59.8 43.2 59.7 C42.8 59.6 42.2 59.5 41.8 59.5 C41.5 59.5 41.1 59.6 40.9 59.7 C40.8 59.8 40.7 59.9 40.6 60 C40.5 60.1 40.4 60.3 40.4 60.5 C40.5 60.6 40.6 60.8 40.7 60.9 C40.9 61 41.4 61.2 41.7 61.5 C42 61.7 42.4 61.9 42.6 62.3 C42.7 62.6 42.8 63 42.8 63.4 C42.8 63.8 42.7 64.2 42.6 64.5 C42.5 64.8 42.2 65.1 42.1 65.3 C42 65.4 41.9 65.5 41.9 65.7 C41.9 65.8 41.8 66.1 41.9 66.3 C42 66.5 42.2 66.6 42.3 66.8 C42.5 67 42.8 67.2 43 67.4 C43.1 67.5 43.2 67.8 43.2 67.8 C43.2 67.8 42.9 67.8 42.7 67.8 C42.4 67.8 41.7 67.8 41.3 67.8 C41 67.7 40.6 67.7 40.4 67.6 C40.1 67.5 39.8 67.3 39.7 67.1 C39.5 67 39.4 66.7 39.3 66.6 C39.2 66.5 39.1 66.3 39.1 66.3 C39.1 66.3 39.1 66.4 39 66.5 C39 66.6 38.9 66.7 38.9 66.9 C38.9 67 39 67.2 39 67.4 C39.1 67.5 39.2 67.6 39.3 67.6 C39.4 67.7 39.7 67.9 39.9 68 C40 68.1 40.3 68.1 40.4 68.2 C40.5 68.3 40.8 68.5 40.8 68.5 C40.8 68.5 40.6 68.6 40.5 68.6 C40.2 68.8 39.4 69.1 39 69.3 C38.7 69.3 38.3 69.4 38 69.3 C37.8 69.3 37.6 69.2 37.4 69.1 C37.2 68.9 37 68.7 36.9 68.5 C36.8 68.4 36.6 68.1 36.6 68.1 C36.6 68.1 36.5 68.3 36.4 68.3 C36.2 68.5 35.6 69 35.3 69.3 C34.8 69.7 34.2 70.1 33.7 70.5 C33.2 70.9 31.9 71.6 31.9 71.6 C31.9 71.6 32.1 72 32.1 72.2 C32.2 72.4 32.3 72.6 32.4 72.9 C32.4 73.1 32.5 73.3 32.5 73.5 C32.5 73.7 32.5 74 32.4 74.1 C32.4 74.3 32.2 74.5 32.1 74.6 C31.9 74.7 31.5 74.8 31.5 74.8 C31.5 74.8 31.5 74.9 31.5 75 C31.4 75.2 31.3 75.6 31.1 75.8 C30.9 76.1 30.7 76.3 30.5 76.4 C30.2 76.6 29.4 76.8 29.4 76.8 C29.4 76.8 29.5 76.4 29.5 76.2 C29.6 76 29.7 75.7 29.7 75.4 C29.7 75.2 29.6 74.8 29.6 74.8 C29.6 74.8 29.2 74.8 29 74.7 C28.8 74.6 28.6 74.5 28.5 74.3 C28.3 74.2 28.3 73.9 28.3 73.7 C28.2 73.5 28.3 73.3 28.3 73.1 C28.3 73 28.3 72.6 28.3 72.6 C28.3 72.6 27.9 72.6 27.7 72.5 C27.3 72.5 26.7 72.5 26.2 72.5 C25.6 72.4 25 72.4 24.5 72.4 C24 72.3 23.5 72.1 23.1 72 C22.9 71.8 22.7 71.5 22.5 71.3 C22.4 71.2 22.4 70.9 22.3 70.7 C22.3 70.6 22.4 70.3 22.4 70.3 C22.4 70.3 22.2 70.2 22.2 70.2 C22 70.2 21.8 70.1 21.6 70.1 C21.5 70.1 21.2 70.2 21.1 70.3 C20.9 70.3 20.7 70.5 20.6 70.6 C20.5 70.6 20.3 70.8 20.3 70.7 C20.2 70.7 20.2 70.4 20.3 70.3 C20.3 70.1 20.4 69.7 20.6 69.5 C20.7 69.3 20.9 69.1 21.1 69 C21.3 68.8 21.6 68.7 21.9 68.6 C22.1 68.5 22.4 68.6 22.6 68.6 C22.8 68.6 23.1 68.7 23.1 68.7 C23.1 68.7 23.1 68.6 23.2 68.5 C23.2 68.5 23.3 68.5 23.3 68.4 C23.3 68.4 23.2 68.3 23.2 68.2 C23.2 68.1 23.2 67.9 23.2 67.8 C23.2 67.7 23.3 67.5 23.3 67.5 C23.3 67.5 23 67.1 22.8 67 C22.6 66.9 22.2 66.9 21.9 66.9 C21.6 66.9 20.8 66.9 20.8 66.9 C20.8 66.9 21 66.4 21.2 66.3 C21.5 66 22 65.7 22.3 65.5 C22.7 65.4 23.1 65.4 23.5 65.5 C23.8 65.6 24.4 66 24.4 66 C24.4 66 24.7 65.9 24.8 65.8 C24.9 65.7 24.8 65.5 24.9 65.4 C25 65.3 25.1 65.1 25.2 65.1 C25.3 65 25.5 65 25.5 65 C25.5 65 25.5 64.8 25.4 64.7 C25.3 64.6 25.1 64.4 24.9 64.4 C24.8 64.3 24.6 64.3 24.4 64.3 C24.2 64.3 23.9 64.3 23.7 64.3 C23.6 64.3 23.3 64.3 23.3 64.3 C23.3 64.3 23.5 63.9 23.7 63.7 C24 63.5 24.4 63.3 24.8 63.2 C25.2 63.1 25.6 63.1 25.9 63.2 C26.2 63.3 26.6 63.5 26.8 63.7 C27 63.8 27.3 64.2 27.3 64.2 C27.3 64.2 27.5 64.2 27.6 64.2 C27.7 64.3 28 64.3 28.2 64.5 C28.3 64.6 28.5 64.8 28.6 65.1 C28.7 65.4 28.8 66.1 28.8 66.5 C28.8 66.8 28.8 67.1 28.8 67.3 C28.8 67.5 28.8 67.6 28.8 67.8 C28.8 67.9 28.8 68 28.8 68.1 C28.9 68.2 29 68.4 29.2 68.4 C29.4 68.5 29.7 68.4 29.9 68.4 C30.1 68.4 30.2 68.2 30.3 68.1 C30.4 68.1 30.4 67.9 30.4 67.9 C30.5 67.8 30.5 67.7 30.5 67.6 C30.5 67.5 30.6 67.3 30.6 67.1 C30.8 66.8 31 66.3 31.2 66 C31.4 65.5 31.8 65.1 32.1 64.6 C32.4 64.2 32.9 63.7 33.2 63.4 C33.3 63.3 33.6 63.2 33.7 63 C33.9 62.8 34 62.5 34.1 62.3 C34.2 62.1 34.2 61.9 34.2 61.8 C34.1 61.6 34 61.5 33.9 61.4 C33.8 61.3 33.6 61.2 33.5 61.1 C33.3 61 33.2 61 33 60.8 C32.8 60.7 32.6 60.5 32.4 60.3 C32.3 60 32.1 59.7 32 59.4 C32 59.1 31.9 58.4 31.9 58.4 C31.9 58.4 31.5 58.5 31.3 58.5 C31.1 58.5 30.7 58.6 30.4 58.5 C30.1 58.3 29.7 58 29.5 57.8 C29.4 57.6 29.3 57.4 29.3 57.2 C29.2 57 29.2 56.7 29.1 56.4 C29.1 56.1 29 55.5 29 55.5 C29 55.5 29.2 55.6 29.4 55.7 C29.5 55.8 29.8 56 30 56.1 C30.2 56.2 30.3 56.2 30.5 56.2 C30.6 56.2 30.8 56.2 30.9 56.1 C31 56 31.2 55.8 31.3 55.7 C31.4 55.5 31.5 55.2 31.6 54.9 C31.8 54.7 32 54.3 32.3 54 C32.6 53.7 33.1 53.3 33.6 53.2 C34.3 53 35.8 52.8 36.5 52.8 C37 52.8 37.4 53 37.9 53.1 C38.3 53.2 38.6 53.3 39.1 53.4 C39.8 53.4 41.5 53.4 42.2 53.4 C42.5 53.4 42.9 53.3 43.1 53.3 C43.2 53.2 43.5 53.1 43.5 53.1 C43.5 53.1 43.5 52.9 43.4 52.8 C43.3 52.7 43 52.6 42.8 52.5 C42.6 52.4 42.3 52.3 42 52.2 C41.6 52.1 41.1 52 40.6 51.9 C40.1 51.8 39.4 51.6 38.9 51.4 C38.3 51.2 37.6 51 37.1 50.7 C36.5 50.5 35.9 50.1 35.4 49.8 C34.9 49.4 34.2 48.9 33.9 48.6 C33.6 48.4 33.1 47.9 33.1 47.9 C33.1 47.9 33.1 48 33.1 48 C33.1 48.2 32.9 48.4 32.9 48.6 C32.8 48.7 32.7 48.8 32.6 48.9 C32.5 48.9 32.3 49 32.2 48.9 C32 48.9 31.9 48.8 31.7 48.7 C31.6 48.6 31.4 48.3 31.3 48.1 C31.2 47.8 30.9 46.9 30.9 46.9 C30.9 46.9 30.5 47 30.3 47 C30 47.1 29.2 47.1 28.9 47.1 C28.8 47.1 28.6 47 28.5 47 C28.4 46.9 28.3 46.8 28.3 46.7 C28.2 46.6 28.3 46.4 28.3 46.3 C28.3 46.1 28.4 45.9 28.4 45.9 C28.4 45.9 28.2 46 28.1 45.9 C28 45.9 27.7 45.9 27.6 45.8 C27.5 45.7 27.4 45.6 27.4 45.5 C27.3 45.4 27.3 45.2 27.3 45.2 C27.3 45.2 26.6 45.2 26.2 45.3 C25.6 45.3 23.6 45.5 23.6 45.5 C23.6 45.5 23.6 45.9 23.7 46 C23.7 46.2 23.7 46.5 23.8 46.7 C23.8 46.9 23.9 47.3 23.9 47.6 C24 47.9 24.1 48.3 24.1 48.6 C24.1 48.8 24 49 23.9 49.2 C23.9 49.4 23.7 49.5 23.6 49.6 C23.5 49.6 23.2 49.6 23.2 49.6 C23.2 49.6 23.1 49.9 23 50 C22.9 50.1 22.7 50.5 22.5 50.7 C22.2 50.9 21.9 51.1 21.6 51.2 C21.2 51.2 20.9 51.1 20.6 51 C20.2 50.8 19.5 50.2 19.5 50.2 C19.5 50.2 20 50.2 20.3 50.2 C20.5 50.2 20.9 50.1 21.1 50 C21.2 49.9 21.4 49.7 21.4 49.6 C21.5 49.4 21.6 49.2 21.5 49.1 C21.5 49 21.3 48.9 21.2 48.8 C21.2 48.7 21 48.5 21 48.3 C20.9 48.1 21 47.8 21 47.7 C21.1 47.5 21.3 47.4 21.3 47.2 C21.4 47.1 21.3 47 21.3 46.8 C21.3 46.7 21.3 46.5 21.3 46.5 C21.3 46.5 20.8 46.4 20.6 46.3 C20.4 46.2 20.2 46.1 20.1 46 C19.9 45.9 19.8 45.7 19.8 45.5 C19.8 45.3 19.9 44.8 19.9 44.8 C19.9 44.8 19.6 44.5 19.4 44.4 C19.2 44.3 19 44.1 18.8 44 C18.7 43.9 18.5 44 18.3 44 C18.1 44 17.9 44 17.7 43.9 C17.5 43.8 17.4 43.8 17.3 43.6 C17.2 43.5 17.2 43.3 17.2 43.1 C17.2 42.9 17.3 42.5 17.3 42.5 C17.3 42.5 16.9 42.3 16.8 42.3 C16.6 42.2 16.4 42.2 16.3 42.2 C16 42.2 15.3 42.2 15.1 42.2 C15 42.2 14.8 42.2 14.8 42.2 C14.8 42.2 14.8 42.1 14.8 42 C14.9 41.9 15.1 41.5 15.3 41.3 C15.6 41.1 16 40.9 16.3 40.8 C16.7 40.7 17.2 40.8 17.4 40.8 C17.6 40.8 17.8 40.9 17.8 40.9 C17.8 40.9 18 40.8 18.1 40.8 C18.2 40.7 18.3 40.6 18.5 40.6 C18.6 40.7 18.8 40.8 19 40.9 C19.1 41 19.2 41.2 19.3 41.4 C19.4 41.6 19.5 41.8 19.6 42 C19.6 42 19.7 42.1 19.7 42.2 C19.8 42.2 19.9 42.2 19.9 42.3 C19.9 42.3 20 42.3 20 42.3 C20 42.3 19.9 42.1 19.9 42.1 C19.9 41.9 19.7 41.4 19.7 41.3 C19.6 41.2 19.6 41.1 19.6 41 C19.6 40.9 19.6 40.8 19.6 40.8 C19.6 40.8 19.4 40.6 19.3 40.5 C19.1 40.4 18.9 40.2 18.8 40 C18.7 39.8 18.7 39.5 18.7 39.3 C18.7 39.2 18.7 39 18.7 39 C18.7 39 18.6 38.8 18.5 38.7 C18.4 38.5 18.1 38.3 17.8 38.2 C17.6 38.1 17.3 38.1 17.1 38.1 C16.8 38 16.6 38 16.4 38 C16.4 38 16.2 37.9 16.2 37.9 C16.2 37.9 16.4 37.7 16.6 37.6 C16.7 37.4 17 37.2 17.3 37.1 C17.6 37 18 36.9 18.3 36.9 C18.6 36.9 18.9 37 19.1 37.1 C19.4 37.2 19.8 37.6 19.8 37.6 C19.8 37.6 20 37.6 20.1 37.6 C20.3 37.7 20.5 37.8 20.7 37.9 C20.9 38.1 21 38.3 21.1 38.5 C21.2 38.7 21.3 39.1 21.4 39.4 C21.5 39.6 21.6 39.8 21.6 40.1 C21.7 40.3 21.7 40.6 21.8 40.9 C21.8 41.1 22.1 41.8 22.1 41.8 C22.1 41.8 22.1 41.6 22.1 41.4 C22.2 41.3 22.2 41.2 22.3 41.1 C22.4 41 22.6 40.7 22.6 40.7 C22.6 40.7 22.5 40.5 22.4 40.4 C22.4 40.3 22.4 39.9 22.4 39.9 C22.4 39.9 22.2 39.8 22.1 39.7 C22 39.6 21.8 39.4 21.7 39.2 C21.6 39 21.6 38.8 21.6 38.6 C21.5 38.4 21.6 38 21.6 37.9 C21.7 37.7 21.8 37.5 21.9 37.4 C22 37.3 22.3 37.2 22.3 37.2 C22.3 37.2 22.2 36.9 22.1 36.7 C22 36.4 21.7 35.9 21.4 35.6 C21.2 35.3 20.6 34.8 20.6 34.8 C20.6 34.8 21 34.8 21.2 34.8 C21.5 34.8 22.1 34.9 22.5 35.1 C22.8 35.3 23.1 35.6 23.3 35.9 C23.5 36.2 23.8 36.8 23.8 36.8 C23.8 36.8 24 36.8 24.1 36.9 C24.2 37 24.5 37.2 24.6 37.4 C24.7 37.7 24.8 38.1 24.8 38.4 C24.8 38.9 24.8 40.1 24.8 40.7 C24.7 41.1 24.6 41.7 24.5 42 C24.4 42.2 24.1 42.7 24.1 42.7 C24.1 42.7 24.7 42.7 25 42.6 C25.4 42.6 26.5 42.4 26.5 42.4 C26.5 42.4 26.4 42.2 26.3 42.1 C26.3 41.9 26.1 41.7 26.2 41.6 C26.2 41.4 26.4 41.1 26.6 41 C26.8 40.9 27.1 40.9 27.3 40.9 C27.4 40.8 27.7 40.8 27.7 40.8 C27.7 40.8 27.4 40.7 27.4 40.6 C27.3 40.4 27.1 40 27 39.7 C26.9 39.5 26.9 39.1 26.8 38.8 C26.7 38.6 26.6 38.1 26.6 38.1 C26.6 38.1 26.8 38.2 26.8 38.2 C27 38.3 27.3 38.5 27.6 38.6 C27.9 38.7 28.2 38.8 28.5 38.9 C28.7 38.9 29.1 38.8 29.1 38.8 C29.1 38.8 29 38.1 29 37.8 C29 37.6 29.1 37.3 29.1 37.1 C29.1 36.9 29.2 36.7 29.2 36.6 C29.2 36.5 29.3 36.5 29.3 36.4 C29.3 36.2 29.2 35.7 29.2 35.3 C29.3 35 29.4 34.5 29.4 34.2 C29.5 33.8 29.6 33.2 29.6 33.2 C29.6 33.2 28.8 32.4 28.4 32 C27.8 31.6 26.1 30.7 26.1 30.7 C26.1 30.7 26.5 30.4 26.8 30.3 C27.1 30.2 27.6 30.1 27.9 30.1 C28.2 30.1 28.7 30.2 28.7 30.2 C28.7 30.2 28.3 29.7 28.2 29.5 C28 29.2 27.7 28.8 27.6 28.5 C27.5 28.3 27.4 27.7 27.4 27.7 C27.4 27.7 27.6 27.6 27.7 27.6 C27.9 27.5 28.3 27.6 28.3 27.6 C28.3 27.6 28.2 27.4 28.2 27.3 C28 27.1 27.6 26.5 27.3 26 C27.1 25.6 26.5 24.8 26.5 24.8 C26.5 24.8 26.5 25.1 26.5 25.2 C26.4 25.5 26.4 26 26.4 26.4 C26.3 26.7 26.3 27.1 26.2 27.4 C26.1 27.6 26 28 25.7 28.1 C25.4 28.3 24.4 28.2 24.4 28.2 C24.4 28.2 24.1 28.4 23.9 28.5 C23.6 28.5 23.1 28.6 22.7 28.6 C22.4 28.6 22.1 28.4 21.9 28.3 C21.7 28.1 21.4 27.7 21.3 27.5 C21.1 27.2 21 26.7 21 26.7 C21 26.7 21.2 26.7 21.2 26.8 C21.4 26.8 21.8 27 22 27.1 C22.2 27.1 22.4 27.2 22.6 27.2 C22.7 27.2 22.9 27.2 23.1 27.2 C23.1 27.1 23.2 27 23.2 27 C23.2 27 23.2 26.7 23.2 26.6 C23.2 26.4 23.2 26.2 23.3 26 C23.4 25.9 23.6 25.7 23.8 25.5 C24 25.4 24.4 25.3 24.4 25.3 C24.4 25.3 24.3 25 24.3 24.8 C24.2 24.7 24.2 24.5 24.2 24.3 C24.3 24.1 24.4 23.8 24.4 23.8 C24.4 23.8 24.2 23.7 24.1 23.6 C24 23.4 23.8 22.9 23.7 22.7 C23.6 22.6 23.7 22.2 23.7 22.2 C23.7 22.2 23.4 22 23.3 21.9 C23.1 21.8 22.7 21.5 22.5 21.3 C22.3 21.2 22 20.8 22 20.8 C22 20.8 21.6 20.8 21.4 20.7 C21.2 20.6 20.8 20.4 20.6 20.2 C20.4 20 20.3 19.7 20.2 19.5 C20.2 19.4 20.2 19.2 20.3 19 C20.3 18.9 20.5 18.8 20.5 18.8 C20.5 18.8 20.4 18.6 20.3 18.5 C20.2 18.4 20.1 18.2 19.9 18.1 C19.7 18 19.5 18 19.3 17.9 C19.1 17.9 18.8 17.9 18.6 17.9 C18.4 17.9 18.1 17.9 18.1 17.9 C18.1 17.9 18.2 17.6 18.3 17.5 C18.5 17.3 18.8 16.9 19.1 16.7 C19.4 16.6 19.9 16.6 20.2 16.6 C20.4 16.6 20.7 16.7 20.9 16.9 C21.1 17 21.5 17.5 21.5 17.5 C21.5 17.5 21.8 17.4 21.9 17.5 C22.1 17.5 22.4 17.6 22.5 17.8 C22.7 17.9 23 18.3 23.2 18.5 C23.4 18.7 23.5 18.9 23.7 19.1 C23.9 19.3 24.2 19.8 24.2 19.8 C24.2 19.8 24.2 19.5 24.2 19.4 C24.2 19.2 24.3 19 24.2 18.9 C24.2 18.8 24 18.7 24 18.7 C23.8 18.5 23.5 18.2 23.4 18 C23.3 17.9 23.2 17.8 23.2 17.6 C23.1 17.5 23.2 17.2 23.2 17 C23.3 16.9 23.6 16.6 23.6 16.6 C23.6 16.6 23.6 16.5 23.6 16.4 C23.5 16.3 23.4 16 23.2 15.8 C23 15.7 22.7 15.5 22.4 15.3 C22.2 15.1 21.5 14.9 21.5 14.9 C21.5 14.9 22 14.6 22.3 14.5 C22.6 14.5 23.1 14.4 23.4 14.4 C23.7 14.5 23.9 14.6 24.2 14.7 C24.4 14.9 24.7 15.2 24.9 15.5 C25.1 15.7 25.4 16.2 25.4 16.2 C25.4 16.2 25.6 16.2 25.7 16.3 C25.8 16.5 26.1 16.8 26.2 17.1 C26.3 17.4 26.4 17.8 26.4 18.1 C26.5 18.4 26.5 18.9 26.5 18.9 C26.5 18.9 26.6 18.8 26.6 18.8 C26.7 18.8 26.7 18.7 26.7 18.6 C26.8 18.5 26.8 18.4 26.8 18.3 C26.8 18.2 26.8 18.2 26.9 18.1 C26.9 18.1 27 18.1 26.9 18 C26.9 17.9 26.8 17.7 26.8 17.6 C26.8 17.4 26.7 17.1 26.8 16.9 C26.8 16.8 27 16.6 27.1 16.5 C27.2 16.4 27.4 16.4 27.6 16.4 C27.6 16.3 27.8 16.3 27.8 16.3 C27.8 16.3 27.8 16.1 27.7 15.9 C27.7 15.8 27.5 15.4 27.3 15.2 C27.1 15 26.7 14.6 26.5 14.5 C26.4 14.4 26.2 14.2 26.2 14.2 C26.2 14.2 26.6 14.1 26.8 14.1 C27.1 14.2 27.6 14.2 27.9 14.4 C28.3 14.5 28.6 14.7 28.8 14.9 C29.1 15.2 29.3 15.6 29.4 15.9 C29.5 16.2 29.5 16.7 29.5 16.7 C29.5 16.7 29.7 16.9 29.7 17 C29.8 17.1 29.9 17.4 29.9 17.6 C29.8 17.8 29.7 18.3 29.5 18.6 C29.4 18.9 29.1 19.1 29 19.4 C28.7 19.7 28.3 20.2 28.1 20.6 C27.9 20.9 27.5 21.6 27.5 21.6 C27.5 21.6 27.7 22 27.8 22.2 C27.9 22.4 28.1 22.7 28.3 22.9 C28.5 23.2 28.8 23.5 29.1 23.8 C29.4 24.1 29.7 24.4 30 24.7 C30.2 24.9 30.7 25.5 30.7 25.5 C30.7 25.5 30.8 25.2 30.9 25.1 C31 25 31.2 24.8 31.3 24.7 C31.4 24.7 31.5 24.6 31.5 24.5 C31.6 24.4 31.7 24.3 31.7 24.3 C31.7 24.3 31.8 24.5 31.8 24.6 C31.9 24.8 32 25.4 32.1 25.7 C32.2 26 32.5 26.4 32.5 26.4 C32.5 26.4 32.6 26.3 32.6 26.2 C32.7 26.1 32.8 25.9 32.9 25.8 C33.1 25.6 33.3 25.5 33.4 25.4 C33.6 25.4 33.7 25.4 33.8 25.3 C33.9 25.3 34 25.3 34 25.3 C34 25.3 34.1 25.6 34.1 25.7 C34.1 26 34.1 26.6 34.1 26.9 C34.2 27.2 34.2 27.6 34.3 27.9 C34.5 28.2 34.9 28.6 34.9 28.6 C34.9 28.6 35.3 28.5 35.6 28.4 C35.9 28.3 36.6 28.1 37.1 27.9 C37.7 27.7 38.6 27.5 39.2 27.2 C39.8 26.9 40.4 26.5 40.8 26.2 C41.2 25.9 41.5 25.6 41.8 25.3 C42.1 24.9 42.6 24.4 42.9 23.9 C43.1 23.5 43.5 22.5 43.5 22.5 C43.5 22.5 43.1 22.2 42.8 22.1 C42.4 22 41.8 21.9 41.4 21.8 C40.9 21.7 40.3 21.7 39.8 21.8 C39.2 21.8 37.7 22.2 37.7 22.2 C37.7 22.2 37.8 21.9 37.9 21.8 C38 21.6 38.2 21.3 38.4 21.1 C38.6 20.9 39.3 20.5 39.3 20.5 C39.3 20.5 39 20.5 38.8 20.5 C38.7 20.5 38.5 20.6 38.4 20.7 C38.2 20.7 38 20.9 37.8 21 C37.6 21 37.2 21.2 37.2 21.2 C37.2 21.2 37.3 21 37.4 20.8 C37.5 20.7 37.8 20.4 38 20.2 C38.2 20 38.5 19.8 38.7 19.6 C38.9 19.4 39.4 19.2 39.4 19.2 C39.4 19.2 39.2 19 39.1 19 C39 18.9 38.8 18.8 38.6 18.8 C38.4 18.8 38.1 18.8 37.9 18.9 C37.7 19 37.4 19.2 37.2 19.4 C37 19.7 36.8 20.1 36.7 20.4 C36.6 20.6 36.5 21.1 36.5 21.1 C36.5 21.1 36.4 21 36.3 20.9 C36.2 20.7 36 20.5 35.9 20.2 C35.7 19.9 35.5 19.5 35.5 19.2 C35.4 18.9 35.4 18.5 35.4 18.2 C35.5 17.9 35.7 17.4 35.9 17.1 C36 16.8 36.2 16.6 36.4 16.4 C36.6 16.1 36.9 15.8 37.2 15.5 C37.5 15.3 37.8 15.1 38.1 14.9 C38.4 14.8 38.7 14.7 38.9 14.6 C39.2 14.6 39.9 14.6 39.9 14.6 C39.9 14.6 39.9 14.3 40 14.1 C40.1 13.9 40.3 13.6 40.6 13.4 C40.8 13.2 41.4 13 41.7 12.8 C41.9 12.8 42.1 12.8 42.4 12.7 C42.7 12.7 43.2 12.7 43.6 12.8 C44.1 12.9 45 13.1 45.6 13.3 C46.1 13.4 46.6 13.6 46.9 13.8 C47.2 13.9 47.7 14.1 47.7 14.1 C47.7 14.1 47.8 13.9 47.9 13.9 C48 13.8 48.3 13.6 48.5 13.6 C48.7 13.5 49.1 13.4 49.4 13.4 C49.7 13.4 50.2 13.5 50.6 13.6 C51 13.6 51.5 13.7 51.9 13.7 C52.2 13.7 52.6 13.7 52.8 13.6 C53.1 13.5 53.4 13.4 53.6 13.3 C53.7 13.2 53.8 13.1 54 13 C54.1 13 54.2 12.9 54.3 12.9 C54.4 12.8 54.7 12.8 54.7 12.8 C54.7 12.8 54.6 13 54.5 13 C54.4 13.2 54.3 13.4 54.2 13.5 C54.1 13.7 54 14 53.9 14.2 C53.8 14.3 53.7 14.5 53.6 14.7 C53.5 14.8 53.3 15 53.2 15.1 C53.1 15.2 53 15.3 52.9 15.4 C52.8 15.4 52.5 15.6 52.5 15.6 C52.5 15.6 52.6 15.6 52.6 15.6 C52.7 15.7 52.9 15.7 53 15.7 C53.1 15.7 53.2 15.6 53.4 15.6 C53.5 15.6 53.7 15.5 53.9 15.4 C54.1 15.3 54.4 15.1 54.6 15 C54.8 15 55 14.9 55.2 14.9 C55.3 14.8 55.5 14.8 55.7 14.8 C55.8 14.8 55.9 14.8 56 14.8 C56.1 14.8 56.2 14.9 56.2 14.9 C56.2 14.9 56.1 14.9 56.1 14.9 C56 15 55.8 15.1 55.7 15.2 C55.6 15.3 55.5 15.4 55.4 15.5 C55.3 15.7 55.2 15.9 55.1 16.1 C55 16.2 55 16.3 54.9 16.4 C54.9 16.6 54.8 16.8 54.7 16.9 C54.5 17.1 54.3 17.5 54 17.7 C53.7 17.9 53.3 18.1 53 18.2 C52.7 18.3 52.4 18.3 52.1 18.4 C51.8 18.4 51.5 18.4 51.3 18.5 C51.2 18.5 51.1 18.5 51.1 18.5 C51.1 18.5 51.2 18.6 51.3 18.7 C51.3 18.8 51.4 18.9 51.5 19 C51.6 19.1 51.7 19.3 51.7 19.5 C51.8 19.6 51.9 19.8 51.9 19.9 C52 20.1 52.1 20.2 52.2 20.4 C52.2 20.5 52.3 20.5 52.4 20.6 C52.4 20.7 52.5 20.7 52.6 20.8 C52.7 20.8 52.9 20.9 52.9 20.9 C52.9 20.9 52.8 21.1 52.8 21.1 C52.7 21.2 52.6 21.3 52.4 21.4 C52.3 21.5 52.1 21.6 52 21.6 C51.8 21.7 51.5 21.7 51.5 21.7 C51.5 21.7 51.5 21.8 51.6 21.8 C51.6 21.9 51.7 22 51.7 22 C51.7 22.1 51.8 22.3 51.9 22.4 C51.9 22.5 52 22.7 52 22.8 C52.1 22.9 52.3 23.1 52.4 23.3 C52.6 23.4 52.8 23.6 52.9 23.7 C53 23.8 53.1 23.9 53.2 24 C53.3 24 53.3 24.1 53.3 24.1 C53.3 24.1 53.3 24.1 53.3 24.1 C53.3 24.1 53.2 24.1 53.2 24.1 C53.1 24.2 53 24.2 52.9 24.2 C52.8 24.2 52.6 24.2 52.4 24.2 L51.9 24.2 C51.9 24.2 51.9 24.3 51.9 24.3 C52 24.4 52 24.7 52.1 24.8 C52.1 24.9 52.2 24.9 52.3 25 C52.3 25.1 52.5 25.2 52.6 25.3 C52.7 25.3 52.8 25.4 52.9 25.4 C52.9 25.5 53.1 25.6 53.1 25.6 C53.1 25.6 52.9 25.7 52.8 25.8 C52.8 25.9 52.7 25.9 52.7 26 C52.6 26.1 52.4 26.2 52.3 26.2 C52.2 26.3 52.1 26.4 52 26.4 C51.9 26.4 51.8 26.4 51.7 26.4 C51.6 26.4 51.5 26.3 51.5 26.3 C51.5 26.3 51.5 26.5 51.6 26.5 C51.6 26.7 51.7 27 51.7 27.2 C51.7 27.5 51.7 27.8 51.8 28 C51.8 28.3 51.8 28.9 51.8 28.9 C51.8 28.9 51.6 28.9 51.5 28.9 C51.3 28.9 51.1 28.9 51.1 28.9 C51.1 28.9 51.1 29.3 51 29.5 C51 29.7 51 29.9 51 30.1 C50.9 30.4 50.8 30.8 50.7 31.1 C50.6 31.3 50.5 31.5 50.4 31.6 C50.2 31.8 49.8 32.2 49.8 32.2 C49.8 32.2 49.7 32.1 49.7 32.1 C49.6 32 49.5 31.8 49.5 31.8 C49.5 31.8 49.4 32.1 49.4 32.3 C49.4 32.5 49.4 32.8 49.3 33 C49.3 33.1 49.3 33.3 49.2 33.4 C49.1 33.5 49 33.6 48.9 33.7 C48.8 33.7 48.6 33.7 48.5 33.7 C48.4 33.7 48.3 33.7 48.3 33.7 C48.3 33.7 48.3 33.9 48.3 34 C48.3 34.2 48.3 34.4 48.2 34.6 C48.2 34.7 48.1 35.1 48.1 35.1 C48.1 35.1 48.4 35.1 48.6 35.1 C48.8 35.2 49.2 35.3 49.4 35.4 C49.6 35.4 49.7 35.6 49.8 35.7 C49.9 35.8 50 36.1 50 36.1 C50 36.1 50.3 36.1 50.4 36 C50.5 36 50.9 35.9 50.9 35.9 C50.9 35.9 50.9 35.2 50.9 34.8 C50.9 34.5 51 34.2 51.1 33.9 C51.1 33.6 51.2 33.4 51.2 33.1 C51.2 32.9 51.3 32.4 51.3 32.4 C51.3 32.4 51.8 32.4 52 32.4 C52.2 32.5 52.5 32.6 52.7 32.7 C52.9 32.8 53.1 33 53.2 33.2 C53.3 33.4 53.4 33.6 53.5 33.8 C53.5 33.9 53.5 34.1 53.5 34.1 C53.5 34.1 53.7 33.9 53.7 33.8 C53.8 33.6 53.9 33.4 53.9 33.3 C54 33 54 32.6 54 32.3 C54 32 54 31.8 54 31.5 C53.9 31.2 53.9 30.9 53.8 30.6 C53.8 30.4 53.7 30 53.7 29.8 C53.6 29.6 53.6 29.5 53.6 29.3 C53.6 29.2 53.6 29 53.6 29 C53.6 29 54 29 54.2 29 C54.6 29.1 55.1 29.2 55.5 29.4 C55.8 29.6 56.2 29.9 56.5 30.1 C56.7 30.3 56.8 30.6 57 30.8 C57.1 30.9 57.2 31.3 57.2 31.3 C57.2 31.3 57.3 30.9 57.3 30.7 C57.3 30.2 57.4 29.3 57.5 28.6 C57.5 27.8 57.6 27 57.7 26.2 C57.8 25.3 57.9 23.9 58 22.9 C58.1 22.1 58.2 21.3 58.4 20.5 C58.5 19.5 59 17.4 59 17.4 C59 17.4 59.4 17.7 59.5 17.8 C59.7 18 59.9 18.3 60.1 18.6 C60.3 19 60.6 19.7 60.7 20.3 C60.9 20.8 60.9 21.4 61 21.9 C61.1 22.6 61.1 23.5 61.1 24.2 C61.1 25.1 61.1 26.5 61.1 27.4 C61 28.1 61 29.1 60.9 29.5 C60.9 29.7 60.9 30.1 60.9 30.1 C60.9 30.1 61.3 29.7 61.5 29.4 C61.8 29 62.5 28.1 62.9 27.4 C63.4 26.7 63.9 25.7 64.3 24.8 C64.6 23.9 65 22.8 65.2 21.8 C65.4 20.9 65.6 20 65.7 19.1 C65.8 18.1 65.8 17 65.8 16.1 C65.8 15.2 65.8 13.9 65.7 13.4 C65.7 13.2 65.7 12.8 65.7 12.8 C65.7 12.8 66 12.9 66.1 13 C66.4 13.2 67.3 13.5 67.6 14 C68.1 14.6 68.8 15.8 69.1 16.5 C69.3 17.2 69.4 17.9 69.3 18.6 C69.3 19.5 69.1 21.1 68.9 22.2 C68.8 23.3 68.4 24.4 68.1 25.3 C67.9 26 67.5 26.9 67.3 27.5 C67.1 27.9 66.8 28.8 66.8 28.8 C66.8 28.8 67.8 27.6 68.3 27.1 C68.8 26.5 69.4 25.9 69.9 25.4 C70.3 25 70.8 24.5 71.3 24.2 C71.8 23.9 72.4 23.6 72.9 23.5 C73.2 23.3 73.8 23.4 74 23.3 C74.1 23.3 74.2 23.4 74.3 23.4 C74.3 23.4 74.4 23.4 74.4 23.4 C74.4 23.4 74.5 23.5 74.5 23.6 C74.5 23.7 74.5 24 74.4 24.3 C74.3 24.6 74 25.1 73.8 25.5 C73.5 26 72.9 26.7 72.5 27.3 C72 27.9 71.2 28.8 70.6 29.5 C70 30.2 69.3 31.2 68.9 31.7 C68.7 32 68.4 32.6 68.4 32.6 C68.4 32.6 68.9 32 69.2 31.9 C69.7 31.6 70.5 31.1 71.1 30.8 C71.7 30.6 72.5 30.4 73 30.3 C73.4 30.2 73.8 30.3 74.2 30.3 C74.4 30.4 74.7 30.7 74.9 30.8 C75.1 31 75.2 31.4 75.2 31.4 C75.2 31.4 75.2 31.5 75.1 31.5 C75 31.6 74.8 31.8 74.7 31.9 C74.4 32.2 73.9 32.6 73.5 33 C72.9 33.4 72.2 34 71.5 34.5 C70.8 35.1 70 35.7 69.3 36.2 C68.7 36.6 67.8 37.2 67.3 37.5 C66.9 37.8 66.4 38.1 66.2 38.2 C66.1 38.3 66 38.3 66 38.4 C65.9 38.4 65.7 38.5 65.7 38.6 C65.7 38.6 65.6 38.7 65.6 38.7 C65.6 38.7 65.6 38.8 65.6 38.8 C65.6 38.8 65.8 38.7 65.9 38.7 C66.2 38.6 66.7 38.4 67.2 38.3 C67.7 38.2 68.5 38.1 69.2 38.1 C70.1 38.1 71.5 38.3 72.2 38.5 C72.8 38.7 73.4 39 73.8 39.3 C74.1 39.5 74.4 39.9 74.6 40.1 C74.7 40.4 74.8 40.7 74.8 40.9 C74.8 41 74.8 41.4 74.8 41.4 C74.8 41.4 73.7 41.2 73.1 41.2 C72.5 41.2 71.6 41.1 70.9 41.1 C69.8 41.2 68.1 41.3 66.8 41.5 C65.7 41.7 64.4 42 63.4 42.2 C62.6 42.4 61 42.9 61 42.9 C61 42.9 60.8 43.2 60.7 43.3 C60.3 43.5 59.6 44 58.9 44.2 C57.8 44.6 55.4 44.8 55.4 44.8 L55.4 45.5 C55.4 45.5 54.7 45.6 54.3 45.5 C53.7 45.4 52.7 45.2 51.9 45 C51.2 44.7 49.8 44.1 49.8 44.1 C49.8 44.1 49.8 44.3 49.9 44.3 C50 44.5 50.4 45 50.7 45.3 C51.2 45.8 52.3 46.7 52.9 47.2 C53.3 47.5 53.7 47.8 54.1 48 C54.6 48.3 55.4 48.7 55.7 48.9 C55.9 49 56.1 49.1 56.2 49.2 C56.5 49.3 56.9 49.5 57.2 49.7 C57.6 49.9 58.2 50.3 58.6 50.6 C58.9 50.9 59.3 51.2 59.6 51.5 C60 51.9 60.5 52.8 60.9 53.3 C61.1 53.7 61.3 54.2 61.4 54.7 C61.6 55.1 61.6 55.6 61.7 56 C61.8 56.4 61.8 56.8 61.9 57.2 C62.1 57.7 62.2 58.2 62.4 58.7 C62.6 59.3 63.1 60.3 63.4 60.9 C63.7 61.4 64 61.8 64.4 62.3 C64.7 62.7 65.1 63.1 65.6 63.4 C66.1 63.8 66.8 64.1 67.3 64.3 C67.9 64.5 68.6 64.6 69 64.6 C69.2 64.6 69.5 64.5 69.6 64.5 C69.7 64.5 69.8 64.4 69.8 64.3 C69.9 64.3 69.9 64.2 69.9 64.1 C69.8 64.1 69.8 64 69.7 63.9 C69.6 63.9 69.4 63.8 69.3 63.8 C69.2 63.8 69 63.9 68.9 63.9 C68.8 63.9 68.6 64 68.5 64 C68.3 64.1 67.9 64.2 67.9 64.2 C67.9 64.2 67.9 63.9 68 63.8 C68.1 63.6 68.2 63.1 68.3 62.9 C68.5 62.7 68.7 62.5 68.9 62.4 C69.1 62.3 69.5 62.2 69.7 62.2 C69.9 62.2 70.1 62.3 70.2 62.3 C70.4 62.4 70.9 62.6 70.9 62.6 C70.9 62.6 71 62.5 70.9 62.4 C70.9 62.3 70.9 62 70.8 61.8 C70.6 61.7 70.5 61.4 70.3 61.3 C70.1 61.1 69.8 60.9 69.5 60.7 C69.3 60.5 69 60.4 68.7 60.2 C68.4 60 67.8 59.7 67.4 59.4 C66.9 59 66.3 58.5 65.8 57.9 C65.4 57.4 65 56.6 64.8 56 C64.6 55.6 64.6 55 64.5 54.6 C64.5 54.1 64.5 53.6 64.5 53.2 C64.5 52.9 64.5 52.6 64.4 52.2 C64.4 51.9 64.3 51.4 64 51.1 C63.7 50.7 63 50.2 62.6 49.9 C62.3 49.7 61.9 49.6 61.5 49.5 C61.2 49.4 60.5 49.2 60.5 49.2 C60.5 49.2 61 48.8 61.4 48.7 C61.8 48.5 62.6 48.2 63.1 48.1 C63.6 48 64.1 48 64.6 48.1 C64.9 48.2 65.3 48.4 65.6 48.5 C65.8 48.7 66.1 49 66.2 49.2 C66.3 49.3 66.4 49.5 66.4 49.5 C66.4 49.5 66.7 49.2 66.8 49 C67 48.8 67.4 48.4 67.6 48.3 C67.7 48.1 67.8 48 67.9 47.9 C68 47.8 68.2 47.6 68.4 47.5 C68.5 47.3 68.8 46.9 68.9 46.6 C69.1 46.3 69.2 45.9 69.4 45.6 C69.5 45.3 69.5 45.1 69.6 44.8 C69.7 44.6 69.8 44.4 70 44.2 C70.2 44 70.6 43.6 71 43.4 C71.4 43.2 71.9 43.1 72.4 43.1 C72.8 43.2 73.3 43.4 73.6 43.7 C74 44.1 74.2 44.6 74.3 45.1 C74.4 45.7 74.2 46.6 74.2 46.9 C74.1 47.1 74.1 47.2 74 47.3 C73.8 47.5 73.5 47.9 73.3 48.2 C73.2 48.5 73 48.8 72.9 49.1 C72.8 49.3 72.9 49.6 73 49.8 C73 49.9 73.2 50.1 73.3 50.2 C73.6 50.3 74 50.3 74.2 50.3 C74.4 50.3 74.5 50.1 74.6 50 C74.6 49.9 74.6 49.8 74.5 49.7 C74.5 49.6 74.4 49.5 74.3 49.5 C74.2 49.4 74 49.4 73.9 49.4 C73.8 49.4 73.6 49.4 73.6 49.4 C73.6 49.4 73.6 49.3 73.7 49.2 C73.8 49.2 74.1 48.9 74.3 48.9 C74.6 48.8 75 48.8 75.3 48.9 C75.5 49 75.8 49.3 75.9 49.5 C76 49.7 76.1 50.1 76.1 50.3 C76 50.6 76 50.8 75.8 51 C75.6 51.3 75 51.7 74.7 51.9 C74.4 52.1 74.1 52.2 73.8 52.2 C73.4 52.2 72.9 52.2 72.6 52.1 C72.3 52 72 51.8 71.7 51.6 C71.5 51.4 71.2 51 71 50.8 C70.9 50.5 70.8 50.2 70.8 49.9 C70.8 49.6 70.8 49.2 70.9 48.9 C71 48.5 71.1 48.2 71.3 47.9 C71.4 47.5 71.7 47.2 71.9 46.9 C72 46.7 72.1 46.4 72.2 46.2 C72.2 46.1 72.3 45.9 72.3 45.8 C72.3 45.7 72.2 45.6 72.2 45.5 C72.2 45.5 72.1 45.4 72.1 45.4 C72 45.4 72 45.4 71.9 45.4 C71.8 45.5 71.7 45.6 71.6 45.8 C71.5 45.9 71.4 46.1 71.3 46.3 C71.2 46.5 71.2 46.9 71.1 47.1 C71 47.5 70.8 48 70.7 48.3 C70.6 48.4 70.5 48.6 70.4 48.8 C70.2 49.1 69.9 49.6 69.6 49.9 C69.5 50.1 69.3 50.4 69.1 50.5 C69 50.7 68.7 51.1 68.7 51.1 C68.7 51.1 69.1 51 69.3 51 C69.5 51 69.9 51 70.2 51.1 C70.4 51.2 70.7 51.4 71 51.5 C71.1 51.7 71.3 51.8 71.4 52 C71.5 52.2 71.6 52.7 71.7 52.9 C71.8 53 71.8 53.3 71.8 53.3 C71.8 53.3 71.4 53.1 71.2 53 C71 52.9 70.7 52.7 70.3 52.7 C70 52.6 69.6 52.6 69.3 52.6 C69 52.7 68.8 52.8 68.6 52.9 C68.4 53 68.2 53.2 68.1 53.3 C68.1 53.4 68 53.5 68 53.5 C68 53.5 68.2 53.4 68.3 53.3 C68.5 53.2 68.9 53 69.2 52.9 C69.6 52.9 70 52.9 70.3 52.9 C70.6 53 70.9 53.1 71.1 53.2 C71.3 53.4 71.4 53.6 71.6 53.8 C71.7 54 71.7 54.3 71.8 54.5 C71.8 54.6 71.8 54.9 71.8 54.9 C71.8 54.9 71.5 54.7 71.4 54.7 C71.2 54.6 71 54.5 70.8 54.4 C70.5 54.3 70.3 54.3 70 54.3 C69.8 54.4 69.5 54.4 69.3 54.6 C69.2 54.7 68.9 55 68.9 55 C68.9 55 69.1 54.9 69.3 54.9 C69.5 54.8 69.8 54.7 70.1 54.7 C70.3 54.7 70.7 54.7 70.9 54.9 C71.2 55 71.5 55.2 71.6 55.4 C71.7 55.6 71.8 55.8 71.9 56 C71.9 56.2 72 56.5 71.9 56.7 C71.9 57 71.8 57.4 71.8 57.4 z" fill-rule="nonzero" style="fill:white;" />
    </g>
</svg>