<?xml version="1.0" encoding="UTF-8" standalone="no"?>
<!DOCTYPE svg PUBLIC "-//W3C//DTD SVG 1.1//EN" "http://www.w3.org/Graphics/SVG/1.1/DTD/svg11.dtd">
<svg width="205" height="205" viewBox="0 0 205 205" version="1.1" xmlns="http://www.w3.org/2000/svg" xmlns:xlink="http://www.w3.org/1999/xlink" xml:space="preserve" xmlns:serif="http://www.serif.com/" style="fill-rule:evenodd;clip-rule:evenodd;stroke-linecap:round;stroke-linejoin:round;stroke-miterlimit:1.5;">
    <g transform="matrix(1,0,0,1,-1247.48,-238.052)">
        <g id="Atreides-unit" serif:id="Atreides unit" transform="matrix(1,0,0,1,1120,-1343.56)">
            <g transform="matrix(1.00601,0,0,1.00601,-4.80232,1347.88)">
                <circle cx="233.356" cy="334.206" r="99.794" style="fill:url(#_Radial1);stroke:black;stroke-width:4.14px;"/>
            </g>
            <g transform="matrix(0.691174,0,0,0.691174,68.666,1453.09)">
                <circle cx="233.356" cy="334.206" r="99.794" style="fill:none;stroke:white;stroke-opacity:0.5;stroke-width:9.04px;"/>
            </g>
            <g transform="matrix(10.2083,0,0,10.2083,-3380.17,-933.823)">
                <path d="M348.001,262.859L348.063,262.516L348.313,261.955L348.015,261.876C348.455,260.98 348.933,260.097 349.498,259.241L349.966,259.023C350.124,258.808 350.296,258.605 350.496,258.43L351.12,257.214L350.933,257.027L351.806,255.748L352.087,255.841L351.993,255.218L351.775,254.937L350.496,256.216L350.496,256.684L350.247,256.84L349.685,255.779L349.934,255.623L350.153,255.686L350.527,255.249L350.309,255.218L349.841,255.062L349.779,254.469L350.496,253.003L350.652,252.41L351.962,251.911L352.024,251.568L352.087,251.412L351.837,250.788L351.775,250.352L351.276,250.445L351.245,250.258L351.556,249.853L351.837,249.385C352.075,249.206 352.358,249.095 352.68,249.042C353.1,249 353.434,249.144 353.709,249.416L353.989,250.601L353.615,250.975L353.522,251.288L353.646,251.381L354.364,251.381L354.489,251.506L354.52,251.755L354.707,251.818L355.081,251.475L355.05,251.288L355.825,250.727L355.825,250.478L356.182,250.121L356.617,250.09L356.788,249.919L356.99,249.981L357.45,249.612L357.371,249.507L357.65,249.282L357.729,249.388L358.948,248.411L359.104,248.629L357.892,249.604L357.976,249.717L357.705,249.949L357.614,249.828L357.192,250.167L357.285,250.323L356.866,250.68L356.773,251.193L356.804,251.317L356.928,251.395L356.912,252.576L356.602,252.638L356.431,253.586L356.182,253.881L355.825,253.85L354.753,253.477L354.737,254.674L354.644,254.907L354.691,255.513L354.768,255.575L354.877,255.777L355.203,255.637L355.872,256.818L355.514,257.097C355.796,257.604 356.066,258.135 356.307,258.682L356.384,259.024L356.728,258.803L356.882,258.822L357.798,261.666L358.171,261.914L358.093,262.101L358.544,262.381L359.026,262.583L359.104,262.971L358.342,263.018L357.13,263.033L356.711,263.018L356.711,262.645L356.757,262.349L356.493,262.272L356.322,261.681L355.452,260.267L355.67,259.941L355.39,259.366L355.157,258.822C354.698,258.359 354.253,257.882 353.836,257.377L352.655,257.424C352.298,258.013 351.873,258.585 351.35,259.133L350.883,259.646L350.883,259.972C350.37,260.561 349.978,261.273 349.672,262.07L349.438,262.132L349.423,262.831L348.001,262.859ZM355.001,252.304L355.607,252.684L355.763,252.653L355.716,252.514L356.043,251.612L356.221,251.509L356.151,251.317L356.011,251.457L355.561,251.892L355.452,251.845L355.001,252.304Z" style="fill:rgb(255,255,201);"/>
                <path d="M359.003,247.802L359.061,247.81L359.118,247.823L359.173,247.842L359.226,247.866L359.277,247.895L359.325,247.929L359.369,247.967L359.41,248.009L359.446,248.055L359.602,248.273L359.633,248.322L359.66,248.373L359.682,248.427L359.698,248.482L359.709,248.539L359.715,248.597L359.715,248.655L359.71,248.712L359.7,248.769L359.684,248.825L359.663,248.879L359.637,248.93L359.606,248.979L359.57,249.025L359.531,249.068L359.488,249.106L358.576,249.839L358.576,249.842L358.561,249.898L358.542,249.952L358.517,250.004L358.488,250.054L358.454,250.1L358.416,250.143L358.374,250.183L358.103,250.415L358.057,250.451L358.007,250.482L357.955,250.509L357.9,250.53L357.856,250.542L357.85,250.559L357.826,250.611L357.796,250.66L357.762,250.707L357.724,250.749L357.683,250.789L357.429,251.005L357.424,251.036L357.451,251.077L357.479,251.127L357.501,251.179L357.519,251.234L357.531,251.289L357.538,251.346L357.54,251.403L357.525,252.584L357.521,252.643L357.512,252.702L357.497,252.759L357.476,252.815L357.45,252.869L357.419,252.919L357.383,252.967L357.343,253.011L357.299,253.05L357.251,253.086L357.2,253.116L357.146,253.141L357.132,253.147L357.033,253.694L357.022,253.746L357.006,253.797L356.985,253.846L356.96,253.893L356.932,253.938L356.899,253.98L356.651,254.275L356.611,254.318L356.567,254.357L356.52,254.392L356.469,254.422L356.416,254.447L356.361,254.467L356.304,254.481L356.246,254.49L356.188,254.493L356.129,254.491L355.772,254.46L355.722,254.453L355.672,254.443L355.624,254.428L355.354,254.334L355.349,254.682L355.346,254.738L355.338,254.793L355.324,254.848L355.306,254.901L355.265,255.002L355.267,255.028L355.312,255.034L355.37,255.048L355.427,255.067L355.481,255.091L355.533,255.121L355.582,255.155L355.627,255.194L355.668,255.238L355.704,255.285L355.736,255.335L356.404,256.516L356.431,256.568L356.452,256.622L356.468,256.678L356.478,256.735L356.483,256.792L356.483,256.85L356.477,256.908L356.466,256.965L356.449,257.021L356.427,257.074L356.401,257.126L356.369,257.175L356.333,257.22L356.297,257.258L356.317,257.295L356.343,257.346L356.369,257.396L356.396,257.447L356.422,257.498L356.447,257.549L356.473,257.6L356.499,257.651L356.524,257.703L356.55,257.754L356.575,257.806L356.6,257.858L356.625,257.91L356.65,257.962L356.675,258.014L356.699,258.066L356.724,258.118L356.748,258.171L356.757,258.191L356.806,258.195L356.96,258.215L357.017,258.225L357.072,258.241L357.126,258.261L357.178,258.287L357.227,258.317L357.273,258.352L357.316,258.391L357.354,258.433L357.389,258.479L357.419,258.529L357.444,258.581L357.464,258.635L358.315,261.275L358.511,261.405L358.556,261.438L358.598,261.476L358.637,261.517L358.671,261.561L358.702,261.608L358.728,261.658L358.749,261.711L358.765,261.764L358.773,261.802L358.826,261.835L359.262,262.018L359.316,262.044L359.367,262.075L359.415,262.11L359.459,262.15L359.499,262.195L359.535,262.243L359.566,262.294L359.591,262.348L359.611,262.404L359.626,262.462L359.704,262.851L359.713,262.908L359.716,262.966L359.714,263.024L359.706,263.082L359.693,263.138L359.674,263.193L359.651,263.246L359.622,263.297L359.589,263.345L359.551,263.389L359.51,263.429L359.465,263.466L359.416,263.498L359.365,263.525L359.311,263.547L359.256,263.564L359.199,263.576L359.141,263.582L358.365,263.63L357.123,263.646L356.688,263.63L356.63,263.625L356.572,263.614L356.515,263.598L356.461,263.577L356.408,263.55L356.359,263.519L356.312,263.483L356.27,263.443L356.231,263.398L356.197,263.351L356.167,263.3L356.143,263.247L356.124,263.191L356.11,263.134L356.101,263.076L356.098,263.018L356.098,262.739L356.079,262.723L356.04,262.684L356.004,262.641L355.973,262.595L355.946,262.546L355.923,262.495L355.905,262.442L355.757,261.931L354.931,260.588L354.903,260.537L354.879,260.484L354.862,260.429L354.849,260.372L354.842,260.315L354.84,260.256L354.844,260.198L354.853,260.141L354.868,260.085L354.888,260.03L354.913,259.978L354.943,259.928L354.966,259.894L354.833,259.621L354.639,259.17L354.634,259.164L354.59,259.12L354.547,259.075L354.503,259.03L354.46,258.986L354.417,258.941L354.373,258.896L354.33,258.85L354.287,258.805L354.244,258.759L354.201,258.714L354.158,258.668L354.115,258.622L354.073,258.576L354.03,258.53L353.988,258.483L353.945,258.437L353.903,258.39L353.861,258.343L353.819,258.296L353.777,258.249L353.735,258.202L353.693,258.154L353.651,258.106L353.61,258.058L353.568,258.01L353.56,258.001L353.002,258.023L352.996,258.032L352.977,258.061L352.958,258.09L352.939,258.119L352.92,258.148L352.9,258.177L352.881,258.206L352.861,258.235L352.841,258.263L352.822,258.292L352.802,258.321L352.782,258.35L352.761,258.378L352.741,258.407L352.721,258.436L352.7,258.464L352.679,258.493L352.658,258.522L352.638,258.55L352.616,258.579L352.595,258.607L352.574,258.636L352.552,258.664L352.531,258.692L352.509,258.721L352.487,258.749L352.465,258.777L352.443,258.806L352.421,258.834L352.398,258.862L352.376,258.89L352.353,258.918L352.33,258.947L352.307,258.975L352.284,259.003L352.261,259.031L352.238,259.059L352.214,259.087L352.191,259.114L352.167,259.142L352.143,259.17L352.119,259.198L352.095,259.226L352.07,259.253L352.046,259.281L352.021,259.309L351.996,259.336L351.971,259.364L351.946,259.391L351.921,259.419L351.896,259.447L351.87,259.474L351.844,259.501L351.819,259.529L351.798,259.55L351.496,259.883L351.496,259.972L351.493,260.027L351.486,260.081L351.474,260.134L351.457,260.186L351.436,260.236L351.41,260.284L351.38,260.33L351.346,260.373L351.324,260.399L351.303,260.424L351.282,260.449L351.261,260.474L351.24,260.499L351.22,260.524L351.199,260.55L351.179,260.576L351.159,260.602L351.139,260.628L351.119,260.654L351.099,260.681L351.08,260.707L351.06,260.734L351.041,260.761L351.022,260.788L351.003,260.816L350.984,260.843L350.965,260.871L350.946,260.899L350.928,260.927L350.909,260.955L350.891,260.983L350.873,261.012L350.855,261.041L350.837,261.07L350.819,261.099L350.801,261.128L350.784,261.158L350.766,261.187L350.749,261.217L350.732,261.247L350.715,261.277L350.698,261.307L350.681,261.338L350.664,261.368L350.648,261.399L350.631,261.43L350.615,261.461L350.598,261.492L350.582,261.524L350.566,261.555L350.55,261.587L350.535,261.619L350.519,261.651L350.504,261.683L350.488,261.716L350.473,261.748L350.458,261.781L350.443,261.814L350.428,261.847L350.413,261.88L350.398,261.913L350.383,261.947L350.369,261.98L350.354,262.014L350.34,262.048L350.326,262.082L350.312,262.116L350.298,262.151L350.284,262.185L350.27,262.22L350.257,262.255L350.243,262.291L350.219,262.344L350.191,262.394L350.158,262.441L350.121,262.485L350.08,262.526L350.041,262.557L350.035,262.845L350.031,262.903L350.022,262.961L350.006,263.017L349.986,263.072L349.96,263.125L349.93,263.175L349.895,263.221L349.856,263.265L349.812,263.304L349.765,263.339L349.715,263.369L349.663,263.395L349.608,263.415L349.551,263.43L349.494,263.439L349.435,263.443L348.013,263.472L347.956,263.47L347.899,263.463L347.844,263.451L347.789,263.434L347.737,263.412L347.686,263.385L347.639,263.353L347.594,263.318L347.554,263.278L347.517,263.234L347.484,263.188L347.456,263.138L347.432,263.086L347.413,263.032L347.4,262.977L347.392,262.921L347.388,262.864L347.391,262.807L347.398,262.75L347.461,262.407L347.471,262.36L347.486,262.313L347.504,262.268L347.519,262.234L347.498,262.205L347.47,262.156L347.446,262.104L347.428,262.05L347.414,261.995L347.406,261.938L347.402,261.881L347.405,261.824L347.412,261.768L347.425,261.712L347.443,261.658L347.465,261.606L347.507,261.521L347.549,261.436L347.592,261.35L347.635,261.265L347.678,261.18L347.721,261.095L347.743,261.052L347.765,261.009L347.787,260.967L347.809,260.924L347.832,260.882L347.854,260.839L347.876,260.796L347.899,260.754L347.921,260.712L347.944,260.669L347.966,260.627L347.989,260.584L348.012,260.542L348.035,260.499L348.058,260.457L348.081,260.414L348.104,260.372L348.128,260.33L348.151,260.287L348.175,260.245L348.198,260.203L348.222,260.161L348.246,260.118L348.27,260.076L348.294,260.034L348.318,259.992L348.342,259.95L348.367,259.907L348.391,259.865L348.416,259.823L348.441,259.781L348.465,259.739L348.49,259.697L348.515,259.655L348.541,259.613L348.566,259.571L348.591,259.529L348.617,259.487L348.642,259.446L348.668,259.404L348.694,259.362L348.72,259.32L348.746,259.278L348.772,259.237L348.799,259.195L348.825,259.153L348.852,259.112L348.879,259.07L348.905,259.029L348.933,258.987L348.96,258.946L348.986,258.905L349.02,258.859L349.057,258.817L349.098,258.778L349.142,258.743L349.189,258.713L349.239,258.687L349.569,258.532L349.574,258.527L349.591,258.505L349.609,258.482L349.627,258.46L349.644,258.438L349.663,258.416L349.681,258.394L349.699,258.372L349.718,258.35L349.737,258.328L349.756,258.306L349.776,258.285L349.795,258.263L349.815,258.241L349.835,258.22L349.855,258.198L349.875,258.177L349.896,258.155L349.917,258.134L349.938,258.113L349.96,258.092L349.981,258.071L350.002,258.052L350.312,257.448L350.293,257.45L350.234,257.452L350.175,257.448L350.116,257.438L350.059,257.423L350.004,257.402L349.951,257.376L349.901,257.345L349.853,257.309L349.81,257.269L349.771,257.225L349.736,257.177L349.706,257.126L349.144,256.066L349.12,256.014L349.1,255.96L349.086,255.904L349.077,255.848L349.073,255.79L349.074,255.733L349.081,255.676L349.094,255.62L349.111,255.566L349.134,255.513L349.161,255.462L349.193,255.415L349.229,255.37L349.27,255.329L349.285,255.316L349.275,255.295L349.255,255.24L349.241,255.183L349.232,255.126L349.17,254.533L349.166,254.476L349.168,254.419L349.176,254.362L349.188,254.306L349.206,254.252L349.229,254.2L349.919,252.789L350.06,252.255L350.077,252.199L350.1,252.146L350.127,252.095L350.16,252.046L350.196,252.001L350.237,251.96L350.282,251.923L350.33,251.89L350.381,251.862L350.434,251.838L351.421,251.462L351.422,251.459L351.43,251.42L351.286,251.057L351.275,251.058L351.217,251.055L351.161,251.047L351.105,251.033L351.051,251.015L350.999,250.991L350.949,250.963L350.902,250.93L350.858,250.893L350.818,250.852L350.782,250.808L350.75,250.76L350.723,250.709L350.701,250.657L350.684,250.602L350.672,250.546L350.641,250.359L350.634,250.303L350.632,250.247L350.636,250.192L350.645,250.137L350.658,250.082L350.677,250.03L350.7,249.979L350.727,249.931L350.759,249.885L351.05,249.507L351.312,249.07L351.346,249.02L351.383,248.974L351.425,248.932L351.471,248.894L351.484,248.884L351.5,248.873L351.515,248.862L351.531,248.851L351.547,248.84L351.563,248.829L351.578,248.818L351.594,248.808L351.61,248.797L351.627,248.787L351.643,248.777L351.659,248.767L351.675,248.757L351.692,248.748L351.708,248.738L351.725,248.729L351.742,248.72L351.758,248.711L351.775,248.702L351.792,248.693L351.809,248.684L351.826,248.676L351.843,248.667L351.86,248.659L351.877,248.651L351.894,248.643L351.911,248.635L351.929,248.628L351.946,248.62L351.963,248.613L351.981,248.605L351.998,248.598L352.016,248.591L352.033,248.584L352.051,248.578L352.069,248.571L352.086,248.565L352.104,248.558L352.122,248.552L352.14,248.546L352.158,248.54L352.176,248.534L352.194,248.529L352.212,248.523L352.23,248.518L352.248,248.512L352.266,248.507L352.284,248.502L352.302,248.497L352.32,248.493L352.339,248.488L352.357,248.483L352.375,248.479L352.394,248.475L352.412,248.47L352.43,248.466L352.449,248.462L352.467,248.458L352.486,248.455L352.504,248.451L352.523,248.448L352.542,248.444L352.56,248.441L352.6,248.434L352.647,248.43L352.674,248.428L352.702,248.426L352.73,248.424L352.757,248.423L352.784,248.423L352.812,248.422L352.839,248.422L352.866,248.423L352.894,248.424L352.921,248.425L352.948,248.427L352.975,248.429L353.002,248.431L353.029,248.434L353.055,248.437L353.082,248.44L353.109,248.444L353.135,248.449L353.161,248.453L353.188,248.459L353.214,248.464L353.24,248.47L353.265,248.476L353.291,248.483L353.317,248.49L353.342,248.497L353.367,248.505L353.392,248.513L353.417,248.521L353.442,248.53L353.466,248.539L353.491,248.548L353.515,248.558L353.539,248.568L353.562,248.579L353.586,248.59L353.609,248.601L353.632,248.612L353.655,248.624L353.678,248.636L353.701,248.648L353.723,248.661L353.745,248.674L353.767,248.687L353.788,248.7L353.81,248.714L353.831,248.728L353.852,248.742L353.872,248.756L353.893,248.771L353.913,248.786L353.933,248.801L353.953,248.816L353.973,248.832L353.992,248.847L354.011,248.863L354.03,248.879L354.049,248.896L354.067,248.912L354.086,248.929L354.104,248.946L354.121,248.963L354.137,248.978L354.176,249.02L354.211,249.066L354.242,249.115L354.268,249.166L354.289,249.22L354.305,249.275L354.585,250.46L354.596,250.516L354.601,250.572L354.601,250.629L354.596,250.685L354.585,250.741L354.57,250.796L354.567,250.804L354.573,250.806L354.623,250.826L354.639,250.835L354.647,250.827L354.691,250.792L355.217,250.411L355.222,250.372L355.234,250.32L355.25,250.269L355.27,250.219L355.295,250.172L355.323,250.127L355.356,250.084L355.392,250.045L355.749,249.688L355.79,249.651L355.833,249.618L355.879,249.589L355.928,249.564L355.979,249.543L356.031,249.527L356.085,249.516L356.139,249.51L356.346,249.495L356.355,249.486L356.396,249.449L356.44,249.415L356.487,249.386L356.536,249.361L356.588,249.34L356.641,249.325L356.695,249.314L356.75,249.308L356.793,249.307L356.81,249.261L356.836,249.208L356.867,249.158L356.903,249.112L356.943,249.069L356.987,249.029L357.266,248.805L357.313,248.771L357.363,248.741L357.415,248.717L357.47,248.697L357.525,248.683L357.583,248.674L357.64,248.67L357.646,248.67L358.565,247.934L358.613,247.899L358.663,247.869L358.716,247.845L358.771,247.825L358.828,247.811L358.886,247.802L358.944,247.799L359.003,247.802ZM357.729,249.388L357.65,249.282L357.371,249.507L357.451,249.612L356.99,249.981L356.788,249.919L356.617,250.09L356.182,250.121L355.825,250.478L355.825,250.727L355.05,251.288L355.081,251.475L354.707,251.818L354.52,251.755L354.489,251.506L354.364,251.381L353.646,251.381L353.522,251.288L353.615,250.975L353.989,250.601L353.709,249.416L353.696,249.403L353.683,249.391L353.67,249.379L353.657,249.366L353.643,249.355L353.63,249.343L353.616,249.331L353.603,249.32L353.589,249.309L353.575,249.298L353.562,249.287L353.548,249.277L353.534,249.267L353.52,249.257L353.505,249.247L353.491,249.237L353.477,249.228L353.462,249.218L353.448,249.209L353.433,249.2L353.418,249.192L353.403,249.183L353.388,249.175L353.373,249.167L353.358,249.159L353.343,249.152L353.327,249.145L353.312,249.137L353.296,249.131L353.28,249.124L353.265,249.118L353.249,249.111L353.233,249.105L353.217,249.1L353.2,249.094L353.184,249.089L353.167,249.084L353.151,249.079L353.134,249.075L353.117,249.07L353.101,249.066L353.083,249.062L353.066,249.059L353.049,249.055L353.032,249.052L353.014,249.049L352.997,249.047L352.979,249.044L352.961,249.042L352.943,249.04L352.925,249.039L352.907,249.038L352.889,249.036L352.87,249.036L352.852,249.035L352.833,249.035L352.814,249.035L352.795,249.035L352.776,249.035L352.757,249.036L352.738,249.037L352.719,249.038L352.699,249.04L352.68,249.042L352.664,249.044L352.649,249.047L352.635,249.05L352.62,249.052L352.605,249.055L352.59,249.058L352.575,249.061L352.561,249.064L352.546,249.068L352.532,249.071L352.517,249.074L352.503,249.078L352.488,249.081L352.474,249.085L352.46,249.089L352.446,249.093L352.432,249.097L352.418,249.101L352.404,249.105L352.39,249.109L352.376,249.113L352.362,249.118L352.348,249.122L352.334,249.127L352.321,249.131L352.307,249.136L352.294,249.141L352.28,249.146L352.267,249.151L352.253,249.156L352.24,249.161L352.227,249.166L352.214,249.171L352.201,249.177L352.188,249.182L352.175,249.188L352.162,249.194L352.149,249.2L352.136,249.206L352.123,249.212L352.111,249.218L352.098,249.224L352.086,249.23L352.073,249.237L352.061,249.243L352.048,249.25L352.036,249.256L352.024,249.263L352.012,249.27L352,249.277L351.988,249.284L351.976,249.291L351.964,249.298L351.952,249.306L351.94,249.313L351.929,249.321L351.917,249.328L351.905,249.336L351.894,249.344L351.882,249.352L351.871,249.36L351.86,249.368L351.849,249.376L351.837,249.385L351.556,249.853L351.245,250.258L351.276,250.446L351.775,250.352L351.837,250.788L352.087,251.412L352.024,251.568L351.962,251.911L350.652,252.41L350.496,253.003L349.779,254.469L349.841,255.062L350.309,255.218L350.527,255.249L350.153,255.686L349.935,255.623L349.685,255.779L350.247,256.84L350.496,256.684L350.496,256.216L351.775,254.937L351.993,255.218L352.087,255.841L351.806,255.748L350.933,257.027L351.12,257.214L350.496,258.43L350.477,258.447L350.459,258.463L350.44,258.48L350.422,258.497L350.404,258.514L350.386,258.531L350.369,258.549L350.351,258.566L350.334,258.584L350.316,258.602L350.299,258.62L350.282,258.638L350.265,258.656L350.248,258.674L350.232,258.693L350.215,258.711L350.199,258.73L350.183,258.749L350.167,258.768L350.151,258.787L350.135,258.806L350.119,258.825L350.103,258.845L350.087,258.864L350.072,258.884L350.057,258.903L350.041,258.923L350.026,258.943L350.011,258.963L349.996,258.983L349.981,259.003L349.966,259.023L349.498,259.241L349.471,259.282L349.445,259.322L349.419,259.362L349.393,259.402L349.367,259.442L349.341,259.483L349.316,259.523L349.29,259.563L349.265,259.604L349.239,259.644L349.214,259.685L349.189,259.725L349.164,259.766L349.139,259.806L349.114,259.847L349.09,259.888L349.065,259.929L349.041,259.969L349.017,260.01L348.992,260.051L348.968,260.092L348.944,260.133L348.92,260.174L348.896,260.215L348.873,260.256L348.849,260.297L348.826,260.338L348.802,260.379L348.779,260.42L348.756,260.461L348.733,260.502L348.709,260.543L348.687,260.585L348.664,260.626L348.641,260.667L348.618,260.708L348.596,260.75L348.573,260.791L348.551,260.833L348.528,260.874L348.506,260.916L348.484,260.957L348.462,260.999L348.44,261.04L348.418,261.082L348.396,261.123L348.374,261.165L348.353,261.207L348.331,261.248L348.309,261.29L348.288,261.332L348.266,261.373L348.224,261.457L348.181,261.541L348.139,261.624L348.098,261.708L348.056,261.792L348.015,261.876L348.313,261.955L348.063,262.516L348.001,262.859L349.423,262.831L349.438,262.132L349.672,262.07L349.686,262.033L349.701,261.995L349.715,261.958L349.73,261.921L349.745,261.885L349.76,261.848L349.775,261.812L349.791,261.775L349.806,261.739L349.822,261.703L349.838,261.667L349.853,261.631L349.869,261.595L349.886,261.56L349.902,261.524L349.918,261.489L349.935,261.454L349.951,261.419L349.968,261.384L349.985,261.349L350.002,261.315L350.019,261.28L350.037,261.246L350.054,261.212L350.072,261.178L350.09,261.144L350.108,261.11L350.126,261.076L350.144,261.043L350.163,261.01L350.181,260.976L350.2,260.943L350.219,260.911L350.238,260.878L350.257,260.845L350.276,260.813L350.296,260.781L350.315,260.749L350.335,260.717L350.355,260.685L350.375,260.653L350.395,260.622L350.416,260.591L350.437,260.559L350.457,260.528L350.478,260.498L350.499,260.467L350.52,260.437L350.542,260.406L350.563,260.376L350.585,260.346L350.607,260.316L350.629,260.287L350.651,260.257L350.674,260.228L350.696,260.199L350.719,260.17L350.742,260.141L350.765,260.112L350.789,260.084L350.812,260.056L350.836,260.028L350.86,260L350.884,259.972L350.884,259.646L351.35,259.133L351.374,259.107L351.399,259.082L351.423,259.056L351.447,259.03L351.471,259.004L351.494,258.978L351.518,258.953L351.541,258.927L351.565,258.901L351.588,258.875L351.611,258.849L351.634,258.822L351.657,258.796L351.679,258.77L351.702,258.744L351.724,258.718L351.746,258.692L351.768,258.665L351.79,258.639L351.812,258.613L351.834,258.586L351.856,258.56L351.877,258.533L351.898,258.507L351.92,258.48L351.941,258.454L351.962,258.427L351.982,258.401L352.003,258.374L352.024,258.347L352.044,258.321L352.065,258.294L352.085,258.267L352.105,258.241L352.125,258.214L352.145,258.187L352.164,258.16L352.184,258.133L352.204,258.106L352.223,258.079L352.242,258.052L352.261,258.025L352.28,257.998L352.299,257.971L352.318,257.944L352.337,257.917L352.355,257.89L352.374,257.862L352.392,257.835L352.411,257.808L352.429,257.781L352.447,257.753L352.465,257.726L352.483,257.699L352.5,257.671L352.518,257.644L352.535,257.617L352.553,257.589L352.57,257.562L352.587,257.534L352.604,257.507L352.621,257.479L352.638,257.451L352.655,257.424L353.836,257.377L353.875,257.425L353.915,257.472L353.954,257.519L353.994,257.565L354.033,257.612L354.073,257.659L354.114,257.705L354.154,257.751L354.194,257.797L354.235,257.843L354.275,257.889L354.316,257.934L354.357,257.98L354.398,258.025L354.439,258.07L354.481,258.115L354.522,258.16L354.564,258.205L354.606,258.25L354.647,258.295L354.689,258.339L354.731,258.384L354.773,258.428L354.816,258.472L354.858,258.516L354.9,258.56L354.943,258.604L354.985,258.648L355.028,258.692L355.071,258.735L355.114,258.779L355.157,258.822L355.39,259.366L355.67,259.941L355.452,260.267L356.322,261.681L356.493,262.272L356.757,262.349L356.711,262.645L356.711,263.018L357.13,263.033L358.342,263.018L359.104,262.971L359.026,262.583L358.544,262.381L358.093,262.101L358.171,261.914L357.798,261.666L356.882,258.822L356.728,258.803L356.384,259.024L356.307,258.682L356.284,258.631L356.261,258.58L356.238,258.529L356.215,258.478L356.192,258.427L356.168,258.376L356.145,258.326L356.121,258.275L356.097,258.225L356.073,258.174L356.049,258.124L356.024,258.074L356,258.024L355.975,257.974L355.951,257.924L355.926,257.875L355.901,257.825L355.876,257.776L355.851,257.726L355.825,257.677L355.8,257.628L355.775,257.579L355.749,257.53L355.723,257.482L355.697,257.433L355.671,257.385L355.645,257.337L355.619,257.289L355.593,257.241L355.567,257.193L355.541,257.145L355.514,257.097L355.872,256.818L355.203,255.637L354.877,255.777L354.768,255.575L354.691,255.513L354.644,254.907L354.737,254.674L354.753,253.477L355.825,253.85L356.182,253.881L356.431,253.586L356.602,252.638L356.913,252.576L356.928,251.395L356.804,251.317L356.773,251.193L356.866,250.68L357.286,250.323L357.192,250.167L357.614,249.828L357.705,249.949L357.976,249.718L357.892,249.604L359.104,248.629L358.948,248.411L357.729,249.388ZM356.221,251.509L356.043,251.612L355.716,252.514L355.763,252.653L355.607,252.684L355.001,252.304L355.452,251.845L355.561,251.892L356.011,251.457L356.151,251.317L356.221,251.509Z" style="fill-opacity:0.71;"/>
            </g>
        </g>
    </g>
    <defs>
        <radialGradient id="_Radial1" cx="0" cy="0" r="1" gradientUnits="userSpaceOnUse" gradientTransform="matrix(99.7942,0,0,99.7942,233.356,334.206)"><stop offset="0" style="stop-color:rgb(215,235,124);stop-opacity:1"/><stop offset="1" style="stop-color:rgb(80,103,0);stop-opacity:1"/></radialGradient>
    </defs>
</svg>
