<?xml version="1.0" encoding="utf-8"?>
<!DOCTYPE svg PUBLIC "-//W3C//DTD SVG 1.1//EN" "http://www.w3.org/Graphics/SVG/1.1/DTD/svg11.dtd">
<svg version="1.1" xmlns="http://www.w3.org/2000/svg" xmlns:xlink="http://www.w3.org/1999/xlink" xmlns:xml="http://www.w3.org/XML/1998/namespace" xmlns:serif="http://www.serif.com/" width="212" height="212" viewBox="0, 0, 212, 212" xml:space="preserve" fill-rule="evenodd" style="clip-rule:evenodd;">

	<circle cx="102.5" cy="102.5" r="100.4" stroke-width="2.49px" style="fill:url(#Radial);stroke:black;" />
    <circle cx="102.5" cy="102.5" r="69" stroke-width="6px" stroke-linecap="round" stroke-linejoin="round" stroke-miterlimit="1.5" stroke-opacity="0.5" style="fill:none;stroke:white;" />
    <path d="M111.4 116.6 L94.3 132.2 C94.2 135.5 95.4 138.5 96.7 141.8 C96.9 142.3 97.1 142.8 97.5 143.1 L98.4 143.5 C98.9 143.9 99.1 144.6 99 145.3 L98.7 146.2 C98.3 146.8 97.5 147.2 96.7 147.3 L100.3 158.3 L102.7 157.2 L103.9 159.7 L101.1 160.9 L103.5 168.5 L101.7 169 L99.1 161.7 L95.8 163 L94.6 160.8 L98.3 159.2 L94.3 148 L90.8 149.3 L89.2 146.6 L90.7 145 L87.9 137.6 L86.5 138.5 L86.9 140.6 L77.7 148.9 L69.6 160.4 L68.5 170.1 L69.5 174.7 L71.8 176.9 L71.3 177.8 L64.8 177.6 L60.1 173.8 L59.4 162.8 L58.6 160.7 L58.3 158.9 L63.5 154.6 L64.6 154.4 L71 135.1 L76.3 136.4 L82.5 122.3 L79.5 117.4 L67.1 122.6 L65.4 118.9 L78.2 113.5 L76.1 107.1 L64.4 111.8 L62.7 108 L74.8 102.7 L75 101 L74.1 100.5 L74.1 98.5 L76.1 96.6 L75.5 93.6 L74.7 92.5 L73.1 93.4 L72 93.5 L71.2 84.3 L68.6 83 L66.5 79.8 L59.1 63 L57.5 61.5 L57.5 59.1 L68.2 59.1 L69.2 64.3 L75 80.2 L76.5 80.1 L81.2 71.3 L85 64.7 L89.9 58.6 L91.8 61.5 C93.6 59.8 95.6 58.2 97.8 57 C100.2 55.6 102.8 54.6 105.4 54 C105.7 52.5 106 51 106.5 49.6 C107 48.3 107.7 46.9 108.4 45.6 C110.8 45.9 113.2 46.4 115.4 47.2 C119 48.5 122.4 50.5 125.3 53 L128.2 49.7 L130.7 53.2 L132.8 51.7 L130.5 46.3 C129.5 43.8 128.3 41.3 127.4 38.7 C126.3 35.2 125.7 31.6 125.4 27.9 L134.8 32.8 C137.6 34.2 140.4 35.6 143.1 37.4 L145.1 39 C146 40 146.7 41.3 147.3 42.6 C148.5 44.9 149.6 47.2 150.5 49.7 C151.2 51.8 151.8 54 152.2 56.3 L149.6 55.4 L148.7 58.2 L142.8 65.9 L145.7 68.1 L143.5 70.9 L146.3 78.3 L148.5 84.2 C148.6 84.8 148.8 85.3 149.1 85.7 C149.5 86.1 150 86.4 150.6 86.6 C151.8 87.2 153 87.4 154.3 87.8 L155.2 88 C155.8 87.9 156.2 87.3 156.5 86.7 L157.3 85.4 L157.6 85.1 C158.4 84.5 159.7 84.7 160.7 84.8 L162.9 85.1 C163.6 85.3 164.5 85.5 164.7 86 C164.8 86.3 164.7 86.7 164.6 87.1 C164 89.2 163.6 90.9 163.6 92.9 C163.6 93.8 163.6 94.8 163.1 95.6 C162.9 95.9 162.5 96.2 162.1 96.4 C161 97 159.7 97 158.5 97.1 C156.9 97.2 155.2 97.4 153.7 97.9 C151.7 98.5 149.8 99.5 147.9 100.2 L143.9 101.4 C143.4 100.1 143.1 98.7 142.9 97.4 C142.8 95.2 143.1 93 143.9 91 L138.4 84.4 L136 81.2 L134.1 79 L126.3 93.1 C126 94.5 126 95.9 126.2 97.4 C126.2 98.2 126.3 99 126.8 99.6 C127.2 100 127.8 100.3 128.4 100.4 C129.3 100.6 130.2 100.5 131.1 100.5 L133.1 100.6 L133.8 102 C134.3 102.7 135.1 103.2 135.8 103.7 C138.2 105.3 140.8 106.5 143.3 107.8 C145.5 109.1 147.7 110.3 149.8 112 L150.7 112.9 C151.2 113.6 151.3 114.6 151.3 115.5 C151.3 117 151.2 118.5 150.8 119.9 L150.2 121.9 C150 122.7 149.9 123.6 150.3 124 C150.6 124.3 151.1 124.5 151.5 124.7 L153.3 125.6 L149.6 130.8 C146.7 134.8 143.6 138.7 140.8 142.8 L138.1 146.9 L137.9 150.7 C138 152.6 138.2 154.5 138.8 156.4 C139.1 157.4 139.4 158.4 140 159.3 C140.5 159.9 141.2 160.5 141.9 160.9 L141.2 162 L136.4 161.9 L125.9 149.1 C126.4 147.7 127 146.2 128 145 C129 143.6 130.3 142.5 131.6 141.2 L132.7 139.9 C133.5 138.6 133.7 136.9 133.9 135.3 C134.2 132.8 134.7 130.4 135.5 128 C136 126.3 136.7 124.7 137 122.9 L137.1 121.8 C137.1 121.2 137 120.4 136.7 119.7 C136.4 118.8 135.9 118.1 135.2 117.8 C134.3 117.3 133.2 117.3 132.1 117.2 L122.7 116.8 L111.4 116.6 z M94.8 72.3 L94.8 69.9 L101.2 67.6 L101.4 85 L102.3 87 L101.2 90 L98.7 94 L95.1 97.4 L92.5 99.3 L88.9 104.3 L88.8 107.9 L88.1 110.9 L87.2 111 L85.8 108.5 L84.7 103.4 L86.9 102.2 L85.6 97.3 L83 98.1 L81.5 94.1 L79.6 92.2 L79 91.1 L79.2 90 L80.9 84.4 L83.4 81.2 L90.3 75.4 L94.8 72.3 z" style="fill:#FFFFC9;" />
    <path d="M122.6 43.6 C122.2 42.6 121.8 41.6 121.5 40.6 C120.2 36.7 119.5 32.5 119.2 28.4 C119 26.1 120.1 24 122 22.7 C123.9 21.5 126.3 21.4 128.3 22.4 C128.3 22.4 137.7 27.2 137.6 27.2 C140.7 28.7 143.7 30.3 146.6 32.2 C146.7 32.3 146.9 32.4 147 32.5 L149 34.1 C149.2 34.3 149.4 34.5 149.6 34.7 C151 36.1 152 38 152.9 39.8 C154.2 42.4 155.4 44.9 156.3 47.6 C157.2 50 157.9 52.6 158.3 55.2 C158.7 57.3 157.9 59.6 156.3 61 C155.4 61.8 154.4 62.3 153.3 62.4 L151.2 65.2 C151.5 65.8 151.8 66.5 151.9 67.2 C152.1 68.8 151.7 70.5 150.7 71.8 L150.6 71.9 L152.1 76.1 L153.6 80.3 C153.7 80.2 153.8 80.1 153.9 80 C156 78.5 158.9 78.3 161.5 78.6 L163.7 78.9 C163.8 78.9 163.9 79 164 79 C165.5 79.2 167 79.8 168 80.5 C169.3 81.5 170.2 82.7 170.6 84.1 C171.1 85.4 171 87.1 170.6 88.7 C170.2 90.3 169.9 91.5 169.8 93 C169.8 95.2 169.4 97.5 168.2 99.2 C167.4 100.3 166.2 101.3 164.9 102 C163 102.9 161 103.2 159 103.3 C157.8 103.4 156.6 103.5 155.5 103.9 C154.1 104.3 152.8 104.9 151.5 105.5 C152.2 106 153 106.6 153.7 107.2 C153.9 107.3 154 107.4 154.2 107.6 L155.1 108.5 C155.4 108.8 155.7 109.1 155.9 109.4 C157 111.1 157.5 113.2 157.5 115.3 C157.6 117.2 157.4 119 157.1 120.6 C158.2 121.5 159 122.8 159.3 124.2 C159.8 125.9 159.4 127.8 158.4 129.2 C158.4 129.2 154.7 134.4 154.6 134.4 C151.8 138.4 148.7 142.3 146 146.2 L144.2 148.9 L144.2 150.7 C144.2 152 144.4 153.4 144.8 154.8 C144.9 155 144.9 155.3 145 155.5 C145.1 155.6 145.1 155.6 145.2 155.6 C146.6 156.5 147.6 157.9 148 159.5 C148.3 161.1 148.1 162.8 147.2 164.2 L146.6 165.2 C145.4 167.1 143.4 168.2 141.2 168.2 L136.4 168.2 C134.5 168.2 132.8 167.3 131.6 165.9 L121.1 153.1 C119.7 151.4 119.3 149.1 120 147.1 C120.7 145 121.7 143 122.9 141.3 C124.1 139.7 125.6 138.4 127 137 L127.4 136.5 C127.4 136.1 127.6 135.1 127.7 134.5 C128.1 131.6 128.7 128.8 129.5 126.1 C129.8 125.2 130.2 124.3 130.5 123.4 L122.5 123.1 L113.7 122.9 L100.8 134.7 C101.1 136 101.6 137.2 102.1 138.5 C104.2 140 105.4 143 105.2 145.8 C105.2 146.2 105.1 146.6 105 147.1 L104.7 148 C104.6 148.5 104.3 149 104.1 149.5 L104 149.5 L104.6 151.3 C106.2 151.8 107.6 152.9 108.4 154.6 L109.6 157.1 C110.3 158.6 110.4 160.4 109.7 162 C109.5 162.7 109.1 163.3 108.6 163.9 L109.5 166.6 C110 168.2 109.8 170 109 171.5 C108.2 173 106.8 174.1 105.1 174.6 L103.3 175 C100.1 175.8 96.9 174.1 95.8 171.1 L95.2 169.2 C93.2 169 91.3 167.9 90.3 166 L89.1 163.7 C88.3 162.2 88.1 160.4 88.7 158.7 C89.1 157.7 89.7 156.8 90.5 156.1 L90.3 155.5 C88.3 155.4 86.4 154.3 85.4 152.4 L84.6 151.1 L82.4 153 L75.6 162.7 L74.8 169.7 L75.2 171.5 L76.2 172.5 C78.3 174.5 78.7 177.6 77.2 180.1 L76.7 181 C75.6 182.9 73.4 184.1 71.2 184 L64.6 183.9 C63.2 183.8 61.9 183.3 60.9 182.4 L56.2 178.6 C54.8 177.5 54 175.9 53.9 174.2 L53.2 164.1 L52.7 162.8 C52.6 162.5 52.5 162.2 52.5 161.9 L52.1 160.1 C51.7 157.9 52.5 155.6 54.3 154.1 L59.5 149.8 L59.6 149.7 L65 133.2 C66 130.1 69.3 128.3 72.4 129.1 L72.7 129.1 L73.8 126.6 L69.5 128.4 C66.4 129.6 62.8 128.3 61.4 125.2 L59.7 121.6 C59 120.1 58.9 118.3 59.5 116.7 C59.6 116.5 59.7 116.3 59.8 116 C59.3 115.5 58.9 114.9 58.6 114.2 L57 110.5 C55.6 107.4 57.1 103.7 60.2 102.3 L67.8 98.9 L67.8 98.6 C67.8 98.4 67.8 98.3 67.8 98.1 C66.7 97.1 66 95.6 65.8 94 L65.3 88.4 C64.5 87.9 63.8 87.2 63.3 86.3 L61.2 83.1 C61.1 82.8 60.9 82.6 60.8 82.3 L53.9 66.6 L53.2 66 C52 64.9 51.2 63.2 51.2 61.5 L51.2 59.1 C51.2 55.7 54 52.9 57.5 52.9 L68.2 52.9 C71.2 52.9 73.7 55 74.3 57.9 L75.3 62.6 L76.7 66.5 L79.6 61.6 C79.7 61.3 79.9 61 80.1 60.8 L85.1 54.7 C86.3 53.1 88.3 52.2 90.3 52.3 C91.1 52.4 91.8 52.6 92.5 52.9 C93.2 52.4 94 52 94.7 51.5 C96.5 50.5 98.3 49.7 100.2 49 C100.3 48.5 100.5 48 100.7 47.5 C101.3 45.8 102.1 44.1 103 42.5 C104.2 40.4 106.6 39.1 109 39.4 C111.9 39.7 114.8 40.3 117.5 41.3 C119.3 41.9 121 42.7 122.6 43.6 z M111.4 116.6 L94.3 132.2 C94.2 135.5 95.4 138.5 96.7 141.8 C96.9 142.3 97.1 142.8 97.5 143.1 L98.4 143.5 C98.9 143.9 99.1 144.6 99 145.3 L98.7 146.2 C98.3 146.8 97.5 147.2 96.7 147.3 L100.3 158.3 L102.7 157.2 L103.9 159.7 L101.1 160.9 L103.5 168.5 L101.7 169 L99.1 161.7 L95.8 163 L94.6 160.8 L98.3 159.2 L94.3 148 L90.8 149.3 L89.2 146.6 L90.7 145 L87.9 137.6 L86.5 138.5 L86.9 140.6 L77.7 148.9 L69.6 160.4 L68.5 170.1 L69.5 174.7 L71.8 176.9 L71.3 177.8 L64.8 177.6 L60.1 173.8 L59.4 162.8 L58.6 160.7 L58.3 158.9 L63.5 154.6 L64.6 154.4 L71 135.1 L76.3 136.4 L82.5 122.3 L79.5 117.4 L67.1 122.6 L65.4 118.9 L78.2 113.5 L76.1 107.1 L64.4 111.8 L62.7 108 L74.8 102.7 L75 101 L74.1 100.5 L74.1 98.5 L76.1 96.6 L75.5 93.6 L74.7 92.5 L73.1 93.4 L72 93.5 L71.2 84.3 L68.6 83 L66.5 79.8 L59.1 63 L57.5 61.5 L57.5 59.1 L68.2 59.1 L69.2 64.3 L75 80.2 L76.5 80.1 L81.2 71.3 L85 64.7 L89.9 58.6 L91.8 61.5 C93.6 59.8 95.6 58.2 97.8 57 C100.2 55.6 102.8 54.6 105.4 54 C105.7 52.5 106 51 106.5 49.6 C107 48.3 107.7 46.9 108.4 45.6 C110.8 45.9 113.2 46.4 115.4 47.2 C119 48.5 122.4 50.5 125.3 53 L128.2 49.7 L130.7 53.2 L132.8 51.7 L130.5 46.3 C129.5 43.8 128.3 41.3 127.4 38.7 C126.3 35.2 125.7 31.6 125.4 27.9 L134.8 32.8 C137.6 34.2 140.4 35.6 143.1 37.4 L145.1 39 C146 40 146.7 41.3 147.3 42.6 C148.5 44.9 149.6 47.2 150.5 49.7 C151.2 51.8 151.8 54 152.2 56.3 L149.6 55.4 L148.7 58.2 L142.8 65.9 L145.7 68.1 L143.5 70.9 L146.3 78.3 L148.5 84.2 C148.6 84.8 148.8 85.3 149.1 85.7 C149.5 86.1 150 86.4 150.6 86.6 C151.8 87.2 153 87.4 154.3 87.8 L155.2 88 C155.8 87.9 156.2 87.3 156.5 86.7 L157.3 85.4 L157.6 85.1 C158.4 84.5 159.7 84.7 160.7 84.8 L162.9 85.1 C163.6 85.3 164.5 85.5 164.7 86 C164.8 86.3 164.7 86.7 164.6 87.1 C164 89.2 163.6 90.9 163.6 92.9 C163.6 93.8 163.6 94.8 163.1 95.6 C162.9 95.9 162.5 96.2 162.1 96.4 C161 97 159.7 97 158.5 97.1 C156.9 97.2 155.2 97.4 153.7 97.9 C151.7 98.5 149.8 99.5 147.9 100.2 L143.9 101.4 C143.4 100.1 143.1 98.7 142.9 97.4 C142.8 95.2 143.1 93 143.9 91 L138.4 84.4 L136 81.2 L134.1 79 L126.3 93.1 C126 94.5 126 95.9 126.2 97.4 C126.2 98.2 126.3 99 126.8 99.6 C127.2 100 127.8 100.3 128.4 100.4 C129.3 100.6 130.2 100.5 131.1 100.5 L133.1 100.6 L133.8 102 C134.3 102.7 135.1 103.2 135.8 103.7 C138.2 105.3 140.8 106.5 143.3 107.8 C145.5 109.1 147.7 110.3 149.8 112 L150.7 112.9 C151.2 113.6 151.3 114.6 151.3 115.5 C151.3 117 151.2 118.5 150.8 119.9 L150.2 121.9 C150 122.7 149.9 123.6 150.3 124 C150.6 124.3 151.1 124.5 151.5 124.7 L153.3 125.6 L149.6 130.8 C146.7 134.8 143.6 138.7 140.8 142.8 L138.1 146.9 L137.9 150.7 C138 152.6 138.2 154.5 138.8 156.4 C139.1 157.4 139.4 158.4 140 159.3 C140.5 159.9 141.2 160.5 141.9 160.9 L141.2 162 L136.4 161.9 L125.9 149.1 C126.4 147.7 127 146.2 128 145 C129 143.6 130.3 142.5 131.6 141.2 L132.7 139.9 C133.5 138.6 133.7 136.9 133.9 135.3 C134.2 132.8 134.7 130.4 135.5 128 C136 126.3 136.7 124.7 137 122.9 L137.1 121.8 C137.1 121.2 137 120.4 136.7 119.7 C136.4 118.8 135.9 118.1 135.2 117.8 C134.3 117.3 133.2 117.3 132.1 117.2 L122.7 116.8 L111.4 116.6 z M94.8 72.3 L94.8 69.9 L101.2 67.6 L101.4 85 L102.3 87 L101.2 90 L98.7 94 L95.1 97.4 L92.5 99.3 L88.9 104.3 L88.8 107.9 L88.1 110.9 L87.2 111 L85.8 108.5 L84.7 103.4 L86.9 102.2 L85.6 97.3 L83 98.1 L81.5 94.1 L79.6 92.2 L79 91.1 L79.2 90 L80.9 84.4 L83.4 81.2 L90.3 75.4 L94.8 72.3 z M137 92.5 L135.1 90.1 L132.7 94.3 L133.3 94.3 C134.5 94.4 135.7 94.8 136.7 95.4 C136.7 94.5 136.8 93.5 137 92.5 z M95.1 79.7 L94.1 80.4 L87.9 85.6 L86.5 87.3 L85.8 89.6 L86 89.8 C86.4 90.2 86.7 90.7 87 91.2 C87.6 91.3 88.1 91.5 88.6 91.8 C89.3 92.2 89.8 92.6 90.3 93.2 L91 92.6 L93.8 90 L95.6 87.2 L95.6 87.2 C95.3 86.5 95.2 85.8 95.2 85.1 L95.1 79.7 z" fill-opacity="0.71" />
    
	
	
	<defs>
        <radialGradient cx="102.5" cy="105.5" r="100.4" gradientUnits="userSpaceOnUse" id="Radial">
			<stop offset="0%" stop-color="#E5E5E5" stop-opacity="1" />
			<stop offset="100%" stop-color="#B0B079" stop-opacity="1" />
		</radialGradient>
    </defs>
</svg>