<?xml version="1.0" encoding="UTF-8" standalone="no"?>
<!-- Created with Inkscape (http://www.inkscape.org/) -->

<svg
   id="svg2"
   sodipodi:docname="orru-earth2.svg"
   viewBox="0 0 768 768"
   sodipodi:version="0.32"
   version="1.0"
   inkscape:output_extension="org.inkscape.output.svg.inkscape"
   inkscape:version="1.2.2 (732a01da63, 2022-12-09)"
   xmlns:inkscape="http://www.inkscape.org/namespaces/inkscape"
   xmlns:sodipodi="http://sodipodi.sourceforge.net/DTD/sodipodi-0.dtd"
   xmlns="http://www.w3.org/2000/svg"
   xmlns:svg="http://www.w3.org/2000/svg"
   xmlns:rdf="http://www.w3.org/1999/02/22-rdf-syntax-ns#"
   xmlns:cc="http://creativecommons.org/ns#"
   xmlns:dc="http://purl.org/dc/elements/1.1/">
  <defs
     id="defs209" />
  <sodipodi:namedview
     id="base"
     bordercolor="#666666"
     inkscape:pageshadow="2"
     inkscape:window-y="316"
     pagecolor="#ffffff"
     inkscape:window-height="1229"
     inkscape:zoom="0.93303299"
     inkscape:window-x="2023"
     showgrid="false"
     borderopacity="1.0"
     inkscape:current-layer="layer1"
     inkscape:cx="434.06825"
     inkscape:cy="341.35985"
     inkscape:window-width="1649"
     inkscape:pageopacity="0.0"
     inkscape:document-units="px"
     inkscape:showpageshadow="2"
     inkscape:pagecheckerboard="0"
     inkscape:deskcolor="#d1d1d1"
     inkscape:window-maximized="0" />
  <g
     id="layer1"
     inkscape:label="Livello 1"
     inkscape:groupmode="layer"
     transform="translate(2024.8 176.25)">
    <g
       id="g3697">
      <path
         id="path3739"
         style="fill:#d4e2e6"
         d="m -1675.3,586.67 c -190.8274,-11.85186 -350.9183,-191.63715 -345.4984,-381.88229 -0.2078,-165.359231 119.1129,-325.21072 281.649,-363.28909 153.0486,-41.07013 332.3737,19.67658 416.7487,156.817147 90.4651,137.593533 84.6137,338.002163 -32.0049,459.060223 -79.922,88.4456 -201.2011,141.1726 -320.8944,129.29401 z" />
      <path
         id="path3737"
         style="fill:#b2d8e4"
         d="m -1664.3,586.66 c -194.6873,-7.1235 -362.9627,-189.29813 -355.8675,-383.78719 0.941,-169.486919 127.5535,-332.41647 295.9437,-364.5377 153.2818,-34.4894 327.3528,32.92112 407.2027,170.6146387 81.2357,130.9994813 73.4495,312.0829413 -24.8041,432.2226013 -75.2943,96.68839 -199.2328,156.74276 -322.4748,145.48765 z m -55.2,-259.39 c 13.5504,-8.65278 1.4656,-44.14401 21.7821,-18.97327 36.7291,24.00317 -8.5557,-68.20269 -36.6914,-22.59558 -11.1877,13.59924 -4.5419,40.32313 14.9093,41.56885 z m -29.3,-139.53 c 34.4341,-27.80551 79.9347,-46.13803 124.4855,-36.42972 44.0232,0.52357 67.4019,-58.45842 17.159,-73.501285 -33.9469,-17.072474 -72.9205,-45.499572 -109.1992,-44.925411 7.7894,17.80206 -13.3191,54.042637 14.6903,41.894626 28.8978,-7.983744 60.9647,30.47795 20.4408,40.91145 -16.3443,10.75271 -76.1806,58.02515 -61.9722,50.80011 21.811,-2.573 -19.2215,19.32539 -5.6042,21.25023 z m -216,-96.495 c 24.7613,-2.191618 43.9393,-71.776994 17.2372,-54.018204 -7.8575,17.056928 -20.4188,34.157178 -17.2372,54.018204 z m 110.5,-11.708 c 37.1548,-10.327432 85.5999,-58.401664 65.3619,-95.956096 -33.7179,14.6350351 -11.1295,71.112202 -49.9199,79.854175 -10.4688,0.34689 -45.916,22.612823 -15.442,16.101921 z m 228.5,-124.03 c 43.0846,16.970656 8.3634,-24.866185 11.7909,-28.838978 20.8193,10.188183 83.3359,28.585614 66.1233,-15.593494 -44.4684,-17.978868 -96.1911,-21.773008 -142.1359,-27.014678 -33.4971,17.1392 25.7731,20.431947 9.3976,47.876896 1.5821,27.705679 36.9823,0.928848 50.1767,23.992811 z" />
      <path
         id="path3735"
         style="fill:#aecdd3"
         d="m -1664.3,586.66 c -194.6873,-7.1235 -362.9627,-189.29813 -355.8675,-383.78719 0.941,-169.486919 127.5535,-332.41647 295.9437,-364.5377 153.2818,-34.4894 327.3528,32.92112 407.2027,170.6146387 81.2357,130.9994813 73.4495,312.0829413 -24.8041,432.2226013 -75.2943,96.68839 -199.2328,156.74276 -322.4748,145.48765 z m -53,-174.49 c 25.6712,-8.44627 15.2015,-80.78996 2.7568,-60.05896 -0.75,18.556 -28.3778,48.0621 -2.7568,60.05896 z m -3.2,-90.07 c 19.8634,-3.84981 -2.5311,-35.48641 27.1852,-16.13397 33.5763,-11.42894 -37.6465,-59.11426 -41.7242,-14.49495 -7.933,11.89588 -3.4192,33.70128 14.539,30.62892 z m -28.3,-134.36 c 34.6246,-28.41082 80.0732,-45.91664 124.4671,-34.92096 22.1519,-12.12337 80.0745,-28.68787 38.5957,-53.298269 -13.676,-16.9069 15.3692,-34.045216 -15.3544,-27.316663 -22.3384,-4.339683 -63.6812,-22.436062 -64.9224,-38.07797 2.9845,-5.917751 -38.2848,1.708945 -39.8835,-20.508148 -4.4406,6.131599 -1.5195,19.063857 -18.4142,10.802663 -7.8711,10.930018 -36.0346,31.352907 -5.3349,30.068262 42.7794,-27.452728 -22.8596,27.230423 13.7286,29.058219 31.0875,-38.143731 77.4259,37.047356 24.838,38.731186 -13.7544,10.11224 -58.36,10.10505 -53.429,28.93946 16.7982,-13.72148 39.8649,-6.18011 10.2774,3.6762 -15.9131,7.00618 -3.1276,25.82848 -18.5945,34.03323 z m -210.6,-60.56 c 14.6335,-36.942486 25.3241,-75.947099 38.2527,-113.11844 -26.428,-19.5608508 -38.1252,46.562407 -44.5521,67.364211 -2.6013,15.377673 -1.5763,31.963059 6.2994,45.754229 z m 507.6,-39.96 c -13.0209,-25.32054 59.3659,-15.279835 18.246,-31.670537 -24.6193,-28.646483 -52.3279,22.586604 -18.246,31.670537 z m -401.3,-7.86 c 53.3511,-9.374321 62.0377,-71.6828403 94.6825,-104.01533 21.8701,-28.125439 57.7584,0.797969 75.8017,-7.157319 4.0107,-55.808512 57.3349,26.0731417 86.3736,-6.660231 9.6855,4.412384 51.4035,40.2567035 37.2978,17.308464 -18.4968,-9.376706 -43.9804,-51.53662 -3.5749,-31.264863 21.0455,-1.785298 48.2454,-33.702065 57.0222,-34.034847 -44.0092,-33.581874 -103.1683,-29.205554 -152.1957,-51.416934 -28.9096,-7.57358 -64.0406,14.02046 -62.1088,45.872108 -13.864,-12.531288 -11.5518,-46.341068 -36.6669,-22.071178 -44.6054,7.20044 -81.6765,28.696376 -95.1312,74.247748 5.4126,-1.623411 39.5701,-48.670678 67.7267,-31.015674 26.79,3.437283 50.4661,35.036077 11.0629,39.387413 -41.169,11.616733 -36.6594,54.66362 -48.6999,83.428649 -14.0916,18.614968 -63.2357,16.138763 -65.1161,27.440048 10.9496,2.952258 22.5203,2.112006 33.5261,-0.04805 z" />
      <path
         id="path3733"
         style="fill:#92c6d6"
         d="m -1668.3,585.63 c -192.6449,-9.63552 -358.288,-189.36308 -351.9491,-382.25386 1.5403,-182.438696 151.2658,-353.68061 334.3657,-371.42471 178.457,-24.10916 365.7017,97.132677 410.5654,272.82391 45.5962,159.98064 -25.2467,347.98055 -172.4597,429.372 -66.2206,38.50466 -144.0613,56.9818 -220.5223,51.48266 z m -48.4,-169.5 c 33.4702,-28.90628 2.2167,-72.87104 7.3771,-101.06891 34.0861,-14.55523 19.2206,51.35779 28.1196,42.93987 24.8093,11.33686 -23.2957,30.0777 12.5623,30.43013 20.8925,-4.8844 0.5805,-28.02949 19.3912,-15.07716 20.0211,-5.81133 25.7263,-65.05675 6.473,-24.15869 -4.0815,12.30777 -35.834,9.76624 -14.8075,-2.32694 -31.2404,-14.64877 -24.548,-104.22073 -74.6432,-64.94018 -16.3069,12.7004 -14.17,75.27724 6.9871,55.57693 -25.1482,-14.20572 16.687,-11.35127 8.9793,14.52263 -2.3014,20.67507 -27.2386,49.24543 -0.4389,64.10232 z M -1863,368.07 c 7.5052,-15.24962 69.7437,-12.35301 34.0372,-30.84926 -15.2481,-3.57907 -78.261,25.27931 -34.0372,30.84926 z m 113.5,-178.83 c 36.6745,-27.6415 81.2299,-44.20699 126.9978,-36.93939 23.3404,-4.15247 78.2869,-31.16083 39.0499,-51.50063 -16.6518,-19.224205 24.8783,-39.214332 -11.9981,-30.318352 -23.0104,-2.889138 -70.4066,-24.25454 -71.7449,-33.222557 28.6657,-17.85716 -29.4119,-0.24072 -32.8064,-20.837906 -16.5899,-12.3793934 -12.9218,11.396905 -29.2089,9.323103 -8.8404,16.530344 -36.9317,7.644687 -15.6408,29.557239 17.3823,17.243322 41.4212,-23.393834 21.4756,5.017665 -14.6777,21.721583 4.4902,34.772661 21.1885,16.004629 43.8165,-7.808055 31.7231,61.641199 -8.8925,51.957049 -15.2455,0.36025 -63.208,28.96706 -22.5224,20.50354 17.7992,-0.95882 -25.2148,12.74561 -18.407,29.03843 -1.3391,2.37902 -7.6772,22.52018 2.5092,11.41718 z M -1868,158.8 c 12.6598,-1.3477 53.6857,-10.2045 18.2951,-12.46549 9.7579,-37.68419 -74.3578,9.35374 -26.6728,12.59419 2.7921,-0.0254 5.5852,-0.088 8.3777,-0.1287 z m -91.4,-31.62 c 17.3626,-35.005702 24.3872,-74.360496 37.8753,-110.71131 -18.0186,-21.7240764 -46.8007,35.495622 -40.8738,56.943844 -1.641,17.124712 -12.2433,40.122196 2.9985,53.767466 z m 492.6,-37.882 c -15.0268,-22.723824 25.2381,6.912918 16.9929,-16.668871 26.1255,9.155102 45.5679,-15.945086 12.315,-22.380508 -22.1311,-6.036379 -59.3124,19.148915 -29.3079,39.049379 z m -390.3,-8.47 c 28.0036,-4.547806 55.6249,-31.464301 70.8466,-47.894241 4.8732,-34.6105409 32.206,-88.844831 74.3386,-64.668512 23.8249,16.680186 34.3907,-5.60587 35.8837,-18.878712 32.4313,9.277503 63.748,23.659298 96.489,20.432149 9.9472,11.021095 40.1136,29.78974334 15.989,4.881772 -21.0703,-11.305756 -19.1822,-41.741201 9.9069,-27.574749 14.3699,-4.499146 52.8969,-39.453886 47.5681,-35.245187 -47.5156,-33.52819 -109.1124,-29.67277 -160.9091,-53.00442 -37.1982,-11.78868 -54.7023,72.889938 -68.5499,19.35316 -35.8801,12.70446 -86.432,16.24717 -103.3211,58.799263 -5.2519,8.636757 -22.706,39.553392 -2.8206,15.619153 8.618,-41.042376 105.1636,-24.370277 77.8799,11.014665 -45.3206,8.302863 -48.1189,54.290874 -60.5524,86.852015 -14.3092,23.025273 -77.7218,23.284715 -71.044,26.673513 12.0668,4.708888 25.5645,6.677489 38.2953,3.640131 z" />
      <path
         id="path3731"
         style="fill:#88bac9"
         d="m -1668.3,585.63 c -192.6449,-9.63552 -358.288,-189.36308 -351.9491,-382.25386 1.5403,-182.438696 151.2658,-353.68061 334.3657,-371.42471 178.457,-24.10916 365.7017,97.132677 410.5654,272.82391 45.5962,159.98064 -25.2467,347.98055 -172.4597,429.372 -66.2206,38.50466 -144.0613,56.9818 -220.5223,51.48266 z m 220.4,-160.01 c 55.4123,1.68883 -13.0013,-77.5325 -3.2701,-24.10054 2.6967,5.89024 -14.2466,33.84744 3.2701,24.10054 z m -268.8,-9.49 c 40.9852,-25.64766 -12.7047,-82.56277 13.1457,-104.89513 27.8301,2.31539 23.2635,44.39457 18.429,42.41839 10.1813,1.59983 21.4858,31.71601 3.4007,18.06798 -3.4785,32.19241 28.2222,-1.49289 39.3008,-3.90339 14.0872,-10.97927 17.0541,-53.64654 -0.3383,-19.60666 -3.5391,11.68166 -36.4698,11.49757 -14.1712,-0.0571 -30.5691,-15.43183 -26.1508,-106.17247 -75.3589,-64.72549 -14.3771,13.86537 -13.0492,68.75505 4.5335,58.9144 -14.0799,-32.63718 31.0829,16.92268 7.0797,30.19442 -7.4565,13.71458 -17.1836,36.17165 3.979,43.5926 z m -145.4,-48.69 c 8.8026,-14.63619 72.8215,-12.68209 34.5077,-30.29135 -16.1154,-3.46754 -78.2987,22.18982 -34.5077,30.29135 z m 112.6,-178.2 c 36.4156,-26.76569 81.5543,-46.91117 126.9169,-35.40958 25.3643,-7.63629 76.1608,-32.27523 40.0464,-56.227075 -16.4129,-20.362965 30.3504,-34.710826 -9.8415,-29.719824 -30.8184,11.753638 -48.578,-17.962566 -74.2832,-29.129154 13.5875,-3.061473 32.5557,-16.165236 5.4817,-15.371247 -20.6917,4.792199 -43.1393,-2.689366 -22.525,-22.96827878 -19.7116,-8.40286232 -53.8384,53.22571178 -71.8382,19.24188478 -10.3854,-35.632548 -17.1733,29.92425 10.3307,31.452178 13.6598,19.321687 40.5196,-13.886556 21.6765,12.154859 -23.4082,48.892107 61.9733,-17.444316 50.5468,41.601497 -9.0389,36.42782 -75.0273,12.2814 -78.5911,50.41251 16.4923,-12.39767 36.4759,-2.77193 7.4031,0.71761 -20.3405,16.6011 16.8059,12.31163 -5.8328,23.19618 -3.8567,3.71954 -15.251,17.18427 0.5097,10.04844 z M -1868,158.9 c 17.3313,-3.08884 50.6185,-6.12794 23.8366,-17.27917 -6.5339,-48.931522 -84.7807,30.23846 -23.8366,17.27917 z m -95,-22.11 c 23.7092,-38.887851 31.487,-87.79179 41.1863,-130.5571732 -37.2431,-7.7776628 -36.4771,52.5943322 -45.7583,78.6152412 -1.9059,17.382722 -0.449,35.176872 4.572,51.941932 z m 498.2,-46.407 c -16.5841,-18.487666 33.7578,5.101843 13.5605,-17.693084 15.3637,2.129064 56.1907,2.846365 25.1261,-16.448852 -22.0715,-28.698779 -79.1658,11.058252 -38.6866,34.141936 z m -392.3,-9.555 c 27.496,-0.503229 46.74,-33.826653 69.1119,-35.397963 9.606,-36.7482228 22.4669,-90.387476 72.5804,-79.755582 23.6104,5.794757 43.7797,53.663547 68.9313,27.1591641 -35.5864,14.4012456 -44.4932,-66.9232231 -3.3463,-35.1625191 11.1698,20.68403 24.8376,19.973231 41.5667,6.613994 18.2671,-4.088417 62.2522,44.4860159 58.1889,17.728104 -14.5335,-6.696388 -46.8716,-46.647009 -10.5378,-28.064437 16.5673,11.695831 21.1146,10.714458 10.4566,-7.390488 6.5879,-19.431262 44.0437,-10.473237 39.7764,-24.285854 14.9856,8.050088 55.479,20.036113 24.8484,-6.187594 -46.7689,-37.872105 -106.6926,-53.748465 -164.299,-65.665995 -31.0278,-8.25181 -57.7424,21.10291 -78.0548,29.24676 2.1171,-43.97797 -50.7197,7.17663 -72.7516,9.25858 -20.6024,9.21288 -35.918,9.02597 -31.391,31.69606 -7.9712,13.443977 -34.8806,64.184827 -6.6439,27.527977 17.551,-26.768737 93.6868,-22.11906 78.8418,14.371804 -35.0516,5.802038 -55.4209,28.0701324 -52.2657,63.482317 -8.2915,38.848535 -61.1569,47.9939 -86.2044,50.002864 12.6925,3.603538 28.3125,10.276037 41.1921,4.822808 z m -5.3,-69.333 c 19.2411,-3.5988717 51.2325,-58.771368 12.7255,-38.70916 -7.8025,8.152997 -35.7399,31.3371275 -12.7255,38.70916 z" />
      <path
         id="path3729"
         style="fill:#71b2c8"
         d="m -1668.3,585.63 c -29.4563,0.38581 -59.8077,-8.38392 -75.5532,-23.58874 -40.4716,8.87574 -74.7931,-20.564 -107.8911,-39.57826 -118.2585,-79.57397 -186.7832,-228.10617 -163.7319,-369.71685 23.1203,-159.8318905 157.0626,-298.57775 318.7206,-318.79124 148.4973,-22.57939 310.2301,48.14038 383.586,181.567994 85.7244,143.384456 63.328,344.273686 -59.5748,459.724886 -76.9324,76.17166 -186.9831,120.12575 -295.5556,110.38221 z m 221.6,-159.67 c 55.9193,0.58328 -14.3188,-75.5271 -4.7841,-23.87588 4.1743,8.7137 -19.0049,31.0546 4.7841,23.87588 z m -269.8,-9.31 c 28.3253,-25.83295 14.6372,-64.48413 1.3092,-91.14484 16.4088,-33.14317 43.4041,9.65723 26.9833,28.78676 16.6598,1.21058 25.6004,28.99267 4.4465,16.2143 -4.462,24.88182 26.0705,23.89719 26.1888,0.90743 18.4878,21.69379 45.4089,-71.44968 15.5346,-25.68316 -20.0162,12.08984 -14.5833,-29.29206 -29.2996,-11.89595 -2.4151,-32.17456 -31.1215,-91.19936 -64.283,-45.49507 -20.0043,13.67822 -1.2345,70.74632 9.1754,49.24548 -26.9969,-16.03068 21.5287,-6.28195 7.9868,15.34775 -1.1721,19.80922 -24.0862,51.33545 1.958,63.7173 z m -146.7,-47.42 c 8.2832,-4.74588 16.4951,-7.17966 14.2713,-10.46062 21.1339,13.56488 57.2763,-24.66575 16.0068,-22.74992 -16.1363,-4.9449 -74.8109,27.12734 -30.2781,33.21054 z m 439.9,-171.78 c 24.695,-16.00553 66.8605,-79.53446 50.3241,-87.34043 -10.1313,31.8958 -36.5959,62.09164 -50.3241,87.34043 z m -326.2,-8.21 c 36.5181,-27.36811 82.369,-46.34566 127.8582,-35.00466 28.1973,-8.12004 78.5945,-36.17433 38.1568,-62.483113 -8.9163,-15.402514 33.1719,-24.316071 1.0969,-27.695596 -33.6295,20.852505 -53.174,-13.897962 -81.7017,-24.862024 15.7282,0.891924 62.3359,-11.873774 39.241,-31.4558455 -16.5082,7.9137925 -44.8909,30.5608655 -63.5729,7.7647995 20.3436,-9.6673926 1.5684,-33.558623 19.7402,-12.1843192 32.0195,10.1484712 22.6849,-20.5454708 -0.8077,-22.1312028 -22.9042,-30.381137 17.1182,-34.21691 30.7568,-9.433877 12.8674,7.682954 57.3183,40.976842 38.2035,6.963101 19.049,-28.623845 43.9344,38.497325 65.5608,7.333474 -14.176,-0.34845 -52.0418,-28.430871 -34.2214,-36.103764 8.447,12.472438 44.701,23.036863 19.5491,0.910619 -5.3823,-29.574676 53.9024,-1.085304 35.788,-27.256909 15.3294,6.549597 63.6141,23.293221 34.1615,-7.624456 -54.4441,-47.326247 -128.844,-67.067747 -199.5459,-68.168497 -20.3231,12.10066 -42.1145,28.81676 -59.3138,11.08704 -33.062,20.13682 -86.6436,24.76478 -101.4687,62.046536 -2.2267,17.669198 -21.2749,62.490595 3.9795,26.849273 16.337,-25.653989 94.6916,-16.393556 73.2111,15.103245 -36.9515,2.650908 -51.4289,29.544526 -51.3004,63.742045 -9.1218,37.192695 -50.6466,43.936006 -79.3509,48.58054 33.3975,19.996777 70.697,-1.546183 91.5046,-29.218626 8.0431,-0.376956 -3.3424,23.315456 12.1885,5.110696 15.6396,-30.929172 12.0319,-82.238406 58.6998,-85.472788 18.6883,-5.744636 37.6375,16.010474 12.3082,24.297922 17.9533,-11.682009 26.7857,26.087626 3.8022,16.6281422 -3.7599,28.2770048 -61.9125,24.0384928 -28.1219,-2.3975267 22.3734,-43.0984615 -45.522,-0.9186728 -21.1469,23.8197655 0.1749,27.393759 50.7934,29.456866 42.1062,30.620412 -11.4385,12.800608 -13.2626,49.146474 9.2512,23.862315 46.2271,-26.96723 53.4973,50.110019 4.0692,45.676529 -17.0551,3.95003 -66.1141,20.08477 -53.9548,30.63592 17.0066,-6.32827 50.445,-12.97277 15.8042,2.43935 6.3133,15.04056 -7.268,20.99945 -10.1748,31.51185 3.2275,2.05298 6.3702,-0.85581 7.6443,-3.49037 z m -119.2,-29.63 c 9.8803,-0.88123 58.9833,-9.80956 26.1839,-12.65064 3.1022,-56.738607 -84.4865,11.79291 -30.9397,16.2123 l 2.5772,-1.22259 z m -91.1,-27.69 c 24.2372,-32.902247 20.8956,-79.208556 41.4156,-113.262023 -10.5858,-39.095806 -35.5854,-5.084229 -35.8536,17.895196 -15.0754,32.535398 -22.8178,74.710487 -15.7325,100.626247 3.9235,3.16972 10.2655,-0.22529 10.1705,-5.25942 z m 496.6,-40.698 c 17.6931,-5.581381 19.7165,-32.338779 41.8117,-16.698464 20.8088,-1.222154 79.9932,-20.85744 38.5863,-36.627384 -28.079,1.203677 -33.3016,35.872004 -57.3905,10.838072 -32.0131,-28.497964 -51.9807,29.720394 -27.8476,43.567415 z m -436.9,-55.463 c 11.9742,-19.096914 25.0742,-93.172671 -6.2151,-45.775515 -5.7763,14.8888095 -4.6568,33.425492 6.2151,45.775515 z m 36.7,-21.471 c 22.4503,-2.05213 53.195,-67.449616 12.8727,-40.15877 -9.9766,8.899506 -36.9292,30.907982 -12.8727,40.15877 z" />
      <path
         id="path3727"
         style="fill:#92aba5"
         d="m -1668.3,585.63 c -19.3656,-2.64837 -69.5456,-4.66047 -66.837,-17.17199 4.3822,-15.54597 -47.3429,4.65577 -62.6421,-15.48374 -109.7364,-51.52435 -195.7818,-155.46305 -214.0046,-276.78489 -31.5038,-142.53799 36.7043,-297.905463 156.0503,-379.39112 157.7452,-114.00847 402.3515,-77.61241 517.4872,80.293009 99.8348,131.190101 104.2034,329.535041 -0.2525,459.504461 -76.6138,99.37336 -203.7824,160.46364 -329.8013,149.03427 z m 222.8,-160.2 c 57.8127,-4.5662 -22.3913,-75.75439 -5.494,-19.17622 -2.3559,9.38962 -15.6474,27.57434 5.494,19.17622 z m -271,-8.78 c 28.3253,-25.83295 14.6372,-64.48413 1.3092,-91.14484 16.4088,-33.14317 43.4041,9.65723 26.9833,28.78676 16.6598,1.21058 25.6004,28.99267 4.4465,16.2143 -4.462,24.88182 26.0705,23.89719 26.1888,0.90743 18.4777,21.73241 45.3732,-71.41872 15.5189,-25.66653 -20.0116,12.04779 -14.564,-29.30655 -29.2839,-11.91258 -2.4151,-32.17456 -31.1215,-91.19936 -64.283,-45.49507 -20.0043,13.67822 -1.2345,70.74632 9.1754,49.24548 -26.9969,-16.03068 21.5287,-6.28195 7.9868,15.34775 -1.1721,19.80922 -24.0862,51.33545 1.958,63.7173 z m -146.7,-47.42 c 9.8913,-3.9732 16.7554,-7.33065 14.2713,-10.46062 21.1339,13.56488 57.2763,-24.66575 16.0068,-22.74992 -16.1363,-4.9449 -74.8109,27.12734 -30.2781,33.21054 z m -70.5,-103.15 c 45.6451,-9.96047 -31.427,-66.45425 -20.2597,-17.50407 0.1489,10.17453 8.0299,25.42332 20.2597,17.50407 z m 486.8,-48.33 c 36.6062,-33.6013 83.7418,-69.77812 84.6806,-124.093673 -12.1915,-23.563282 -13.9557,36.795953 -23.2475,44.601383 -8.7979,35.61448 -51.2901,51.05075 -65.445,77.69062 z m -302.6,-28.51 c 36.5663,-26.84151 82.0333,-46.38505 127.7723,-35.53328 28.8404,-7.22227 77.1625,-36.53108 38.4497,-61.836161 -7.893,-15.246953 30.6258,-23.195992 1.127,-28.355817 -36.0765,20.432512 -53.4503,-12.909372 -83.2098,-24.062132 28.7493,2.251356 73.6149,-26.770532 25.5213,-42.0543401 -18.2599,-2.0066563 -58.4474,-46.5294739 -21.4632,-39.6023639 20.731,9.986311 61.9098,40.9098738 69.6856,37.202284 -25.7726,-25.935859 19.7433,-29.561315 28.8011,-5.92226 14.0139,20.3480654 52.0098,-8.902254 18.4217,-6.668025 -16.4527,-0.763286 -47.8697,-46.505692 -13.7877,-23.965909 29.9206,16.036523 6.5982,-4.604674 15.1425,-18.555478 21.4164,-30.134765 51.8568,49.091169 45.6438,2.281043 -33.8014,-40.220406 40.1886,28.468651 45.4742,-12.262922 -7.997,-12.537171 -29.3429,-61.097989 -42.6851,-32.651489 -27.4056,-44.77898 -87.4281,-31.39544 -128.8171,-52.12449 -44.7238,-3.5782 -90.9208,2.41003 -134.235,7.45082 -38.0754,30.16711 -82.8035,40.93701 -119.3089,72.246092 -14.4744,6.456138 -50.3042,45.722172 -17.635,21.843678 11.3068,-16.996152 73.3459,-15.465937 38.2438,4.068183 -25.4118,13.386344 -73.0378,47.2443425 -44.3796,77.819877 6.3214,-43.020199 45.4238,-68.267099 78.6659,-89.99363 29.9299,-20.934441 99.0933,21.507104 38.1133,32.662339 -47.5446,11.805359 -12.5312,78.317204 -60.3489,92.061997 -16.0768,10.722261 -77.3744,5.102985 -31.3046,18.959176 32.4167,12.712643 56.3409,-27.590001 77.2189,-32.665408 5.8609,22.738674 23.8077,-30.941321 23.1932,-45.4501347 -1.8757,-32.2902573 59.8388,-54.7028403 64.9173,-23.1012773 -24.396,4.818286 27.224,19.39782105 -2.5684,31.989568 -14.4909,15.334208 -57.4285,20.690301 -31.0087,-7.3759441 26.8817,-23.5454409 -9.9218,-34.0855989 -18.522,-5.96461297 -13.3483,26.46594207 15.5576,79.41489107 45.3724,51.01532707 -15.7658,9.939424 -23.0821,60.91816 4.1287,31.760343 35.5098,-26.807036 61.558,39.747467 14.3613,41.454387 -19.3448,7.78357 -74.7909,20.91214 -65.0232,34.97664 16.3168,-6.1557 51.685,-13.10601 16.4529,2.21193 3.974,13.91434 -3.494,21.34898 -9.7765,30.72562 2.8129,2.30734 6.0069,-0.22438 7.3668,-2.58363 z m 61.7,-160.9 c 2.9769,-14.707479 4.2919,-51.595154 19.8259,-26.8226468 21.9882,1.1156242 39.7002,29.7965838 5.8271,20.3541598 -8.7956,-2.868637 -20.9138,-3.395213 -25.653,6.468487 z m -181,131.32 c 11.4304,-2.08063 61.1758,-8.37887 26.8161,-14.2164 1.0898,-56.48504 -87.2461,19.28509 -33.3777,15.08491 z m -95.4,-16.65 c 29.2636,-33.54015 21.3931,-84.174051 47.3032,-119.874253 9.8826,-36.849925 -37.6035,-44.0517 -35.8626,-4.341154 -0.9111,27.858707 -12.9532,63.309102 -37.8144,56.264996 -9.1499,14.982419 -15.186,63.692641 5.2184,25.206331 28.8832,-12.59294 0,43.3227 4.9256,36.58273 4.5844,4.0272 10.8769,3.89961 16.2298,6.16135 z m 502,-51.679 c 15.7864,-0.624077 22.4805,-37.189225 38.9231,-14.650758 21.4273,-19.589611 69.6226,10.267177 55.3396,-29.228405 -12.9074,-22.710849 -79.7225,11.075049 -57.0724,8.507405 -24.6909,-29.275741 -76.199,-7.319321 -49.1749,30.716596 l 5.2881,3.735461 z m -401,-76.058 c 18.541,-6.8086217 57.8675,-64.460983 14.6546,-44.875535 -10.2057,9.959284 -37.6381,33.4047166 -14.6546,44.875535 z" />
      <path
         id="path3725"
         style="fill:#70a7b4"
         d="m -1677.7,584.09 c -21.7953,-1.70728 -60.1609,-6.54717 -58.3567,-19.8623 -71.664,-0.63533 -130.4048,-48.91712 -178.7112,-96.93288 -57.8914,-59.6153 -93.8774,-139.17045 -99.8512,-222.09776 -14.7543,-81.87076 10.2325,-166.518128 53.156,-236.1760108 73.3966,-118.5328092 214.3627,-192.6033692 354.029,-178.3917992 150.4481,12.42846 287.2779,122.613923 329.2056,268.037015 39.0813,124.433975 7.7681,268.174955 -82.5549,362.937215 -79.1701,86.51258 -199.3915,136.97715 -316.9166,122.48652 z m -83.4,-32.34 c 8.0988,-26.57851 -54.1227,-43.45284 -50.2318,-41.66418 4.0597,25.08643 -17.3243,-19.40145 -28.7507,-0.44957 -23.244,10.66096 35.4924,28.07849 49.1586,32.26436 10.0222,3.02547 20.0831,5.98685 29.8239,9.84939 z m 315.6,-126.32 c 57.4696,-4.52673 -21.5725,-75.92469 -6.4892,-18.70406 -1.0764,8.5713 -14.308,27.50539 6.4892,18.70406 z m -270.1,-7.8 c 29.7119,9.44038 5.8952,-73.477 38.9811,-26.93511 28.5771,25.85581 59.2637,-56.94428 42.3235,-57.46726 -15.2638,28.6692 -24.3742,-6.06586 -35.3267,-4.73817 -5.5929,-20.76969 -25.0299,-79.85698 -68.1683,-61.78759 -1.7163,10.67024 2.3056,44.58522 -17.2809,56.28511 -1.2503,15.43147 33.6507,38.20986 33.0633,11.93743 13.0582,28.12615 -35.7097,65.03171 6.408,82.70559 z m -70.8,-17.04 c 21.8273,-4.73803 39.5216,-45.10716 37.4808,-53.95289 -35.5174,0.74376 -71.2736,-11.48343 -105.5442,-9.41071 -37.6479,12.19823 -9.9232,49.4724 14.457,20.88801 21.1634,-22.45504 97.777,17.77993 42.0531,22.64248 -27.5017,0.52115 -3.3356,26.09483 11.5533,19.83311 z m -147.3,-134.51 c 50.2441,-0.85779 -29.8054,-67.77719 -20.3516,-15.92261 -0.6032,10.19676 9.8526,22.67233 20.3516,15.92261 z m 485.9,-47.33 c 36.2403,-34.25272 84.5875,-69.79911 85.5551,-124.470634 -12.4715,-23.529738 -14.3024,36.479484 -23.4988,44.871724 -9.0313,35.25026 -51.1686,50.50434 -65.1517,76.99452 z m -336.5,-14.09 c 45.9582,-8.93939 80.4146,-55.85596 128.4445,-50.45459 29.3997,3.03825 98.9271,-9.95108 87.7069,-46.34671 -8.0209,-8.029525 -30.4752,-31.78771 -3.7436,-28.234041 8.3831,-38.019804 -53.1749,13.72512 -55.1739,-23.144394 -18.6899,-3.878397 -53.7345,-21.152661 -12.8599,-21.799966 45.4656,-12.275457 7.8377,-36.0651013 -15.6678,-44.3779036 -23.4536,-5.9671734 -27.4002,-53.1574244 1.2896,-28.6231454 19.497,9.302844 63.3029,50.674153 59.0373,10.776468 21.4195,-4.974891 52.4346,47.492652 62.2057,10.626136 -21.2088,9.0785561 -62.9398,-48.885701 -25.1222,-24.64026 22.0323,12.099118 17.345,2.990887 12.3668,-12.965622 13.733,-37.924591 54.1211,28.108628 47.1163,12.716004 16.5979,-10.957452 -28.6039,-42.909592 4.6536,-25.523856 16.5323,19.656381 62.9835,8.328019 32.4247,-17.430363 -8.9828,-36.078597 -41.5466,-14.832126 -57.2259,-41.239937 -43.2479,-14.48693 -88.97,-25.78078 -134.0732,-31.15498 -44.7059,11.47601 -96.0681,-8.35071 -132.2994,27.5062 -38.4877,22.45291 -77.6422,38.579099 -111.6686,69.705463 -38.004,41.887794 44.4713,-34.95383 53.5083,5.188982 -29.5996,11.522274 -87.2884,47.7461705 -57.3576,83.314025 7.2427,-44.224865 47.8697,-72.018336 83.9267,-92.005566 30.4315,-14.979838 87.4848,21.9295 32.4375,35.054435 -47.162,16.342114 -13.5095,87.046217 -67.2061,93.614547 -18.428,4.475622 -69.3661,6.363845 -25.0667,16.770667 41.0365,2.643636 95.4445,-23.284479 98.7082,-68.680112 2.9245,-32.096572 41.1012,-64.909415 69.3845,-36.704719 -6.1447,13.5063316 -16.3185,11.116618 3.875,19.2165496 8.6778,11.4574027 -16.3925,9.92335 -16.0527,23.3761024 -11.4475,2.833372 -42.401,15.193101 -28.2289,-10.8583818 23.9782,-9.24891177 10.3943,-35.8807672 -7.0194,-16.8185539 -34.7043,39.7326447 26.0432,64.0574317 27.0504,97.1612477 20.6169,0.74933 71.4804,-21.691467 48.5715,20.938814 -15.8449,29.68323 -83.7749,20.28869 -82.6579,48.53578 26.85,12.2071 -1.3946,30.85202 -14.6426,20.07563 -5.9837,4.53297 -29.8179,30.72261 -6.6411,26.42605 z m 96.5,-178.09 c 1.9358,-20.963069 7.7736,-43.216502 26.2799,-22.5937168 34.4931,3.3281604 12.6414,31.8520598 -10.8206,17.4066628 -5.681,-1.232146 -11.7009,0.90634 -15.4593,5.187054 z m -180,133.03 c 12.1282,-1.1162 60.5978,-9.78658 25.5494,-14.3067 1.0426,-55.77501 -87.0465,16.97337 -31.8483,16.90151 z m -96.4,-16.6 c 29.2636,-33.54015 21.3931,-84.174051 47.3032,-119.874253 9.8826,-36.849925 -37.6035,-44.0517 -35.8626,-4.341154 -0.9111,27.858707 -12.9532,63.309102 -37.8144,56.264996 -9.1499,14.982419 -15.186,63.692641 5.2184,25.206331 28.8832,-12.59294 0,43.3227 4.9256,36.58273 4.5844,4.0272 10.8769,3.89961 16.2298,6.16135 z m 502,-51.679 c 15.2373,-14.306134 29.8816,-24.839634 48.9367,-15.570208 12.1761,-5.458105 36.7536,-21.911739 40.957,1.196302 32.34,-45.310693 -50.4059,-45.237925 -49.017,-19.066975 -27.4357,-37.505324 -86.7994,1.158556 -46.4274,32.867239 z m -401,-76.058 c 18.543,-6.8082621 57.8673,-64.463954 14.6534,-44.877105 -10.2056,9.960045 -37.6356,33.4057029 -14.6534,44.877105 z" />
      <path
         id="path3723"
         style="fill:#8b8e71"
         d="m -1677.7,584.09 c -19.8796,-2.6996 -61.8218,-4.60232 -52.8828,-20.06635 -32.8511,-8.35795 -47.6442,-61.52322 -83.8611,-52.86551 12.025,28.30355 -17.0851,-24.22984 -27.5259,-1.9694 -45.4587,-4.66147 -48.7348,-61.9761 -82.0678,-84.4252 -13.8145,-14.13761 -41.7378,-11.98131 -14.8443,6.75783 43.6891,33.23211 69.9438,91.44317 127.5628,104.16068 20.0574,0.37571 61.3594,37.1941 20.1578,18.28219 -119.853,-50.75419 -210.1715,-168.65907 -222.5892,-298.99089 -22.6499,-146.88939 54.6314,-301.241154 183.9315,-373.62038 119.3164,-70.84088 277.8527,-69.25418 393.6911,8.25148 130.8856,83.212464 202.9447,251.09527 164.9691,402.68517 -34.0122,150.25081 -166.4664,272.15738 -319.8003,290.7855 -28.7365,3.77593 -57.925,4.15308 -86.7409,1.01488 z m 232.5,-157.4 c 59.3207,-5.62024 -2.5453,-86.5422 -11.8817,-22.79468 2.6769,8.9873 -4.8708,33.84555 11.8817,22.79468 z m -270.6,-7.94 c 22.6501,8.64809 13.3633,-27.66767 21.3937,-30.1743 -4.3094,-37.72457 31.5773,32.62984 45.3064,0.58244 9.858,-27.07509 24.304,-55.90843 55.8051,-53.34625 -14.0882,-42.33684 -48.7668,12.26944 -62.3441,6.42352 12.9103,-24.3019 -31.4101,-18.23416 -9.6845,-4.25495 -7.2379,-31.79326 -39.076,-98.04202 -75.573,-66.8137 12.3709,20.95695 -28.2221,23.96314 1.8231,37.88956 -40.3788,15.32263 10.818,37.84512 19.811,43.25956 -6.8695,19.58461 -27.2241,52.64848 3.4623,66.43412 z m 184,-8.01 c 17.4316,7.58282 87.0645,1.37873 42.23,-17.09117 -15.7654,9.29374 -34.5046,3.60194 -46.7208,10.4436 -2.8699,3.96698 -1.6235,16.44168 4.4908,6.64757 z m -254.8,-9.99 c 22.8313,-6.95284 65.2111,-68.82722 15.7425,-55.34032 -33.6176,3.67225 -74.59,-29.78602 -100.6113,2.92455 -9.8853,48.0462 53.6061,-4.02056 77.3239,5.55391 46.8362,16.69575 -42.1692,22.82489 -6.3735,44.48265 4.1946,3.10227 9.2026,2.00035 13.9184,2.37921 z m 2.1,-79.71 c 5.3488,-26.80902 -54.0511,-68.87104 -41.1341,-20.65308 10.6346,12.59961 32.3548,5.44875 41.1341,20.65308 z m -149.8,-53.75 c 38.9477,-7.42295 1.299,-39.84328 -17.7703,-42.5656 -4.1919,13.12798 -5.4857,49.84469 17.7703,42.5656 z m 105.4,-35.53 c 56.785,-9.13169 -47.4961,-52.47437 -21.6593,-4.14578 5.2154,5.93447 14.6612,8.74093 21.6593,4.14578 z m 376.1,-7.57 c 30.3335,-32.27659 75.7475,-56.9444 83.7796,-104.36816 27.3739,-22.969956 19.7204,-80.890788 -16.6224,-89.58299 -25.4853,5.240178 -38.9135,41.472764 -66.9442,12.622295 -44.8312,-21.765515 -32.3436,76.316925 8.6658,41.807384 13.2743,-40.469031 36.3018,11.156314 42.0347,10.756467 -12.4886,-33.387457 35.7203,-35.007021 27.9074,-0.826409 -4.8754,46.160693 -34.7041,90.337853 -76.8782,111.169983 -5.3842,4.04905 -8.548,13.76765 -1.9427,18.42143 z m -331.5,-19.53 c 46.2068,-8.52574 80.948,-57.56194 129.3082,-49.24648 29.6879,0.36143 99.5681,-11.67839 90.855,-48.14698 -13.3417,-14.334583 -26.3289,-26.968791 -4.0159,-35.703536 -9.1029,-20.920583 -49.7815,7.746384 -67.3468,-17.348025 -26.2495,-13.385903 -19.9752,-12.609943 4.7905,-18.483107 2.5687,-17.844253 -3.0187,-4.830459 13.7259,-7.097812 16.0774,-13.054808 7.8072,-37.9547445 -8.9081,-21.138303 -17.6302,-5.7589063 -60.8665,-41.241719 -38.5374,-50.291164 26.4547,12.225604 46.6469,40.3234689 77.7646,40.616868 -13.693,-7.950744 -16.5468,-46.982192 1.9689,-21.307199 18.7901,15.562544 75.5956,29.8309433 80.226,14.1268377 -15.7434,-11.2552847 -68.0693,-11.4591967 -60.4698,-33.8940757 13.4411,12.733511 40.4095,14.429578 21.8689,-4.331696 19.1508,-13.568456 45.0467,19.326 66.897,10.256154 11.4288,13.279366 60.2816,33.6515946 51.1435,11.607135 -24.5898,4.074408 -51.8821,-34.703651 -16.8044,-41.614839 -15.8396,-55.901038 -79.4465,-72.996538 -129.1884,-85.164068 -64.5899,-15.00124 -135.0341,-17.50651 -196.917,9.47405 -36.5987,32.03925 -90.9578,36.1721 -121.8925,76.334538 -16.7359,10.212935 -39.2359,41.602437 -9.5855,16.138783 14.9651,-15.566468 83.3846,-24.514705 42.5133,3.991713 -20.4971,12.254563 -53.7883,17.928199 -55.48,47.28443848 -24.9948,-41.91945948 -54.8636,25.37576152 -44.7853,46.89580852 -23.6518,19.498524 -62.3817,50.663242 -39.6487,82.668059 -0.6564,-17.95873 26.4102,-47.202172 25.5598,-17.89046 -31.3769,34.25517 31.5158,34.06052 27.9474,-0.4432 -4.4305,-29.42017 16.2043,-74.439246 44.0294,-36.24981 37.0818,14.602863 99.8159,-1.515898 117.1449,-38.419506 3.1678,-19.477797 13.3781,-43.944456 18.6377,-9.523388 14.9819,26.055503 23.5911,88.483264 62.8332,55.415529 47.7534,-18.780206 18.3004,53.479415 -15.1021,46.576245 -23.5577,2.69431 -69.6534,19.05449 -35.3912,41.44304 2.2189,26.19142 -29.9874,-11.7424 -38.6724,18.06959 -7.1205,5.50597 -7.1835,19.34032 5.5313,15.39486 z m -105,-132.86 c -30.8845,0.546529 -41.5163,-59.834062 -21.3723,-51.473104 -2.6533,29.202526 35.1523,2.831461 14.8538,-14.5738782 -4.8087,-22.2737558 54.3111,-43.9550088 23.7563,-12.6163228 -7.734,19.38311 19.345,61.335235 16.4996,19.036286 13.7215,-15.2429618 56.0758,-55.030717 30.6611,-63.385997 -19.4798,6.309649 30.3862,-31.077922 33.7266,-5.284708 31.1382,-5.371014 26.7484,16.812711 2.9428,23.536169 -31.6052,14.072518 -31.9608,46.655433 -30.1427,72.588833 -15.2996,22.648627 -44.8261,31.553136 -70.9252,32.172722 z m 138.8,-52.555 c 16.1819,-8.771957 31.3209,-51.236632 0.1501,-43.476154 12.7338,-15.310678 60.0551,-3.654658 29.4917,14.4766121 C -1679.132,5.3696058 -1740.1147,11.84893 -1750.5,19.245 Z m -131.6,143.34 c 15.0274,-4.55301 83.5871,-5.20115 41.1668,-24.53953 -10.2691,-26.16132 -20.8611,-21.80929 -38.1162,-3.53304 -12.6477,7.43748 -34.2134,29.55596 -3.0506,28.07257 z" />
      <path
         id="path3721"
         style="fill:#518891"
         d="m -1677.3,584.05 c -20.1284,-1.64365 -63.4551,-6.29366 -51.0153,-19.40009 -22.9764,-4.25083 -28.985,-21.85922 -1.0154,-13.70389 43.7257,-10.8859 -1.8816,-79.73259 -36.7859,-57.39055 -32.842,-1.79305 -62.483,-50.19478 -93.4515,-32.56492 2.2773,24.87677 -32.6769,-22.29438 -46.2265,-23.95844 -16.1711,-11.15931 -67.3465,-38.99749 -32.3422,-6.40498 30.734,32.92092 62.2234,66.16367 97.0887,94.36004 21.8751,12.92163 60.2682,11.41599 70.426,36.27931 -133.1237,-45.13354 -232.7938,-173.35187 -244.4044,-313.43724 -9.2341,-69.03529 4.5836,-140.82411 33.5505,-203.744117 72.2693,-151.263713 251.9257,-244.156463 416.8364,-206.871953 152.8732,31.17968 281.6553,163.19405824 298.9025,319.86121 19.7064,146.89774 -52.1769,304.48635 -183.5243,376.69016 -68.3965,39.65016 -149.2117,58.40689 -228.0386,50.28546 z m 232.1,-157.36 c 59.3207,-5.62024 -2.5453,-86.5422 -11.8817,-22.79468 2.6769,8.9873 -4.8708,33.84555 11.8817,22.79468 z m -270.6,-8.03 c 31.1468,8.86337 7.5655,-67.59148 39.9197,-28.8558 38.1337,31.44819 34.3423,-70.8317 79.5746,-48.61951 12.3211,-39.35461 -45.9422,-11.72839 -53.0257,3.26185 -8.5861,-15.6354 -23.6724,-24.7143 -19.4724,-10.65531 -3.9421,-34.71341 -34.4797,-88.77522 -75.8873,-65.14309 25.0193,16.55837 -23.6565,32.74794 2.2208,34.31016 -11.6343,15.47373 -19.4453,50.44604 12.6928,39.2375 29.1924,11.46562 -18.7862,34.24827 -0.8147,52.60615 0.01,9.73472 1.7391,24.02233 14.7922,23.85805 z m 184,-7.92 c 17.4316,7.58282 87.0645,1.37873 42.23,-17.09117 -15.7654,9.29374 -34.5046,3.60194 -46.7208,10.4436 -2.8699,3.96698 -1.6235,16.44168 4.4908,6.64757 z m -254.1,-10.2 c 20.9937,4.61743 48.4429,-75.11883 38.3934,-53.68343 -38.0868,7.58037 -75.3952,-21.33027 -111.3065,-9.66098 -31.8982,13.17795 -10.5513,47.77089 16.8524,26.56989 15.1539,-14.25813 76.5504,-11.79751 56.3858,7.82041 -32.1692,2.75529 -30.6754,31.1475 -0.3251,28.95411 z m 1.4,-79.5 c 8.7569,-31.23047 -61.4932,-66.29896 -37.7237,-16.9655 11.1927,8.81557 30.8445,1.727 37.7237,16.9655 z m -149.8,-53.75 c 38.9477,-7.42295 1.299,-39.84328 -17.7703,-42.5656 -4.1919,13.12798 -5.4857,49.84469 17.7703,42.5656 z m 105.4,-35.53 c 57.721,-7.52076 -45.3098,-54.02769 -21.3366,-3.88539 5.4804,5.23082 14.3738,7.78687 21.3366,3.88539 z m 376.1,-7.57 c 30.3335,-32.27659 75.7475,-56.9444 83.7796,-104.36816 27.3739,-22.969956 19.7204,-80.890788 -16.6224,-89.58299 -25.4853,5.240178 -38.9135,41.472764 -66.9442,12.622295 -44.8312,-21.765497 -32.3436,76.316965 8.6659,41.80737 13.2744,-40.469025 36.3018,11.156324 42.0346,10.756482 -12.4886,-33.387457 35.7203,-35.007022 27.9074,-0.82641 -4.8754,46.160693 -34.7041,90.337853 -76.8782,111.169983 -5.3842,4.04905 -8.548,13.76765 -1.9427,18.42143 z m -271.2,-6.01 c 36.8488,1.86173 -16.6102,-40.00199 15.7585,-49.95661 31.9228,-34.51281 90.9549,7.48671 118.1509,-31.45148 34.1048,-4.61582 33.8463,-26.86775 11.4294,-47.849949 -11.8377,-13.064045 32.0537,-21.348107 -0.9491,-26.407696 -18.2488,14.399798 -77.6384,-11.878025 -67.8638,-23.603495 18.3698,4.202855 61.0392,-37.6154974 30.4458,-33.9101119 -17.7307,10.0881539 -70.7121,-39.3043201 -47.4003,-47.7960651 26.4547,12.225604 46.6469,40.3234689 77.7646,40.616868 -13.693,-7.950744 -16.5468,-46.982192 1.9689,-21.307199 18.7901,15.562544 75.5956,29.8309433 80.2261,14.1268377 -15.7435,-11.2552847 -68.0694,-11.4591967 -60.4699,-33.8940757 13.4428,12.73383 40.4131,14.431164 21.8636,-4.337034 19.1321,-13.605968 44.9814,19.40716 66.8757,10.205999 11.4861,13.186102 60.1941,33.6307811 51.2229,11.681176 -24.5892,4.069724 -51.9679,-34.691697 -16.8572,-41.633387 -15.8396,-55.901038 -79.4465,-72.996538 -129.1884,-85.164078 -64.5899,-15.00124 -135.0341,-17.50649 -196.917,9.47405 -36.5987,32.03926 -90.9578,36.1721 -121.8925,76.334546 -16.7359,10.212935 -39.2359,41.602438 -9.5855,16.138785 14.9651,-15.566468 83.3846,-24.514705 42.5133,3.991713 -20.4971,12.254563 -53.7883,17.928199 -55.48,47.28443848 -24.9948,-41.91945948 -54.8636,25.37576152 -44.7853,46.89580852 -23.6518,19.498524 -62.3817,50.663242 -39.6487,82.668059 -0.6564,-17.95873 26.4102,-47.202172 25.5598,-17.89046 -31.3766,34.20689 31.4544,34.09305 27.9708,-0.36267 -4.392,-29.294922 15.8379,-74.358295 43.8062,-36.36478 37.188,14.557714 100.1431,-1.349993 117.3744,-38.533711 2.7791,-19.743728 14.0383,-43.7043478 19.1765,-9.260258 12.4496,26.434854 23.2283,85.909179 61.4546,54.235921 53.0142,-14.283411 15.6391,50.955578 -16.7568,47.857408 -20.5481,6.42835 -73.8229,20.24284 -38.3138,36.67153 -6.3515,13.63991 -59.1022,27.78003 -18.7631,37.36581 20.1342,3.42158 56.5208,-48.97798 43.2176,-1.87124 -1.6257,6.23778 -2.0383,18.37288 8.0918,16.04535 z M -1889.3,71.8 c -30.8845,0.546529 -41.5163,-59.834062 -21.3723,-51.473104 -2.6533,29.202526 35.1523,2.83146 14.8538,-14.5738788 -4.8087,-22.2737632 54.3111,-43.9550262 23.7564,-12.6162988 -7.734,19.3831086 19.345,61.3352146 16.4995,19.0362586 13.7215,-15.2429622 56.0758,-55.030713 30.6611,-63.385993 -19.4798,6.309649 30.3862,-31.077922 33.7266,-5.284708 31.1382,-5.371014 26.7484,16.812711 2.9428,23.536169 -31.6052,14.072518 -31.9608,46.655433 -30.1427,72.588833 -15.2996,22.648627 -44.8261,31.553136 -70.9252,32.172722 z m 138.8,-52.555 c 16.1819,-8.771957 31.3209,-51.236632 0.1501,-43.476154 12.7338,-15.310678 60.0551,-3.654658 29.4917,14.4766121 C -1679.132,5.3696058 -1740.1147,11.84893 -1750.5,19.245 Z m -131.6,143.34 c 15.0274,-4.55301 83.5871,-5.20115 41.1668,-24.53953 -10.2691,-26.16132 -20.8611,-21.80929 -38.1162,-3.53304 -12.6477,7.43748 -34.2134,29.55596 -3.0506,28.07257 z" />
      <path
         id="path3719"
         style="fill:#6a8476"
         d="m -1677.2,584.1 c -10.6769,-3.72332 -73.142,-3.4225 -41.8555,-17.47518 -12.5354,-4.78735 -46.2013,-19.11673 -12.6093,-17.39187 53.4863,-0.48175 -4.5304,-84.58739 -36.6772,-52.81869 -24.6832,-5.85456 -54.273,-48.40348 -89.6027,-35.83196 -22.6041,13.45625 -48.9888,-40.97748 -79.631,-41.98782 -38.3672,-22.4029 -63.2968,-70.62043 -62.4987,-113.73093 15.5498,8.94185 30.094,53.73054 50.3906,45.13534 -40.1094,-38.12321 -77.4279,-92.26581 -64.835,-150.38387 -6.4464,-26.73455 -0.8333,-90.18287 37.8744,-55.61925 57.9458,11.1261 13.0977,-96.900644 65.7322,-77.820434 31.2347,23.480961 67.0786,22.760094 95.7197,-1.72878 -1.3895,8.925726 -34.8472,41.774944 -6.1421,23.664199 22.8156,-8.862064 33.6401,-67.935951 53.382,-55.349314 5.2894,12.989717 26.6889,30.681255 26.1991,56.185975 7.0662,57.859974 45.9,-47.309312 67.7478,2.802845 -10.1936,36.269009 -60.789,42.574809 -92.514,54.970209 -24.2915,2.39296 -27.1487,8.9993 -0.62,12.4796 33.3721,19.90884 -51.3585,24.63917 -16.9003,46.62364 25.6011,-7.6337 64.3282,-40.99375 53.523,8.53027 24.6099,9.42012 25.3033,-26.67274 11.0215,-30.71435 21.2643,-51.79866 86.1499,-12.10085 119.3214,-37.98294 19.5052,-6.62686 56.4284,-24.82966 31.4394,-45.38797 39.347,3.82822 -38.2465,-17.148631 -1.5975,-23.53972 12.3263,-30.010319 -29.5432,-2.106097 -37.6434,-17.943315 -18.9404,4.955236 -54.7156,-21.920179 -18.1303,-17.503636 14.1722,-8.991845 19.9224,-18.268168 28.8709,-3.458247 24.3517,0.743315 30.383,-21.23519 3.1532,-19.273852 -19.3252,-10.894336 32.617,-11.956298 6.1323,-23.9331124 -12.064,-44.8943276 39.805,19.7360994 56.8303,-0.5728714 15.3108,-3.3576439 48.0696,10.5432101 23.654,-10.2106562 -13.2311,1.246417 -59.0465,-11.778904 -40.9078,-16.491652 37.7646,5.486353 82.875,-14.596177 107.4819,24.9432993 26.191,13.9010239 55.2086,-46.5694803 16.7135,-29.0710993 -31.8754,-4.657404 2.2636,-32.799385 -20.4926,-50.732135 -17.073,-42.083023 -66.5574,-50.291933 -104.323,-64.965493 -60.1064,-16.89851 -124.1076,-16.53851 -185.1068,-4.67623 184.1147,-53.8017 397.1857,63.12536 453.2463,246.065835 54.4847,161.023335 -14.1105,355.124485 -161.857,441.376235 -13.6053,9.50061 -51.572,25.94351 -55.8114,27.95398 22.0156,-19.48907 -30.7838,-33.003 -24.9203,-7.23088 -27.3642,7.46683 -90.6072,5.32863 -92.7152,28.65501 26.0085,4.12576 74.7833,-15.81345 85.0806,-10.75701 -46.8998,15.53689 -97.0965,18.85929 -146.123,15.19683 z m -24,-155.29 c 4.338,-22.70764 0.9813,-71.08404 28.6124,-36.18033 39.9627,20.01253 32.9325,-74.27351 75.1278,-47.72215 29.7782,-24.38901 -35.7575,-34.50157 -43.3171,-8.49539 -18.5123,25.66005 -18.3603,-36.40276 -33.8794,-1.26382 17.6813,-35.22487 -36.5891,-90.83699 -64.9623,-60.83676 8.9963,13.70284 -33.8227,30.70559 -1.598,29.73134 -13.9855,14.86984 -18.978,37.16073 7.7963,43.21829 41.6394,-13.46834 -27.3513,42.31302 6.6988,57.68721 5.8024,10.1203 13.3074,21.23745 25.5215,23.86161 z m 258.4,-2.99 c 49.8185,2.43325 10.593,-80.20144 -16.2928,-35.86964 -31.924,40.02037 -61.0784,-45.11717 -92.8307,-18.61352 13.5556,5.10329 45.8359,24.42159 16.0383,31.70303 13.0286,37.18107 76.7624,-18.73264 79.0607,26.0224 4.3547,2.82362 12.1153,2.29647 14.0245,-3.24227 z m -378.2,-8.97 c -11.5206,-23.33866 -33.6316,-64.31975 10.5612,-65.08592 22.9151,-5.17187 45.2268,34.03495 9.9303,17.10586 -29.2029,2.61058 17.8501,60.3324 32.1965,20.87306 14.6619,-13.1792 43.4043,-53.69562 3.3214,-43.60881 -23.7612,8.05407 -71.5456,-6.37345 -39.0799,-33.87861 18.036,3.84283 21.796,2.86282 12.3279,-18.36071 -20.8625,-27.20386 -40.9674,-16.57797 -33.2964,15.07289 6.1225,43.42515 -74.312,18.74933 -44.2535,66.08116 11.4178,17.64671 27.234,36.19281 48.2925,41.80108 z m 445.3,-42.68 c 8.4693,-32.78209 82.21,-42.0415 49.79,-83.1792 -35.6474,1.53179 -8.2034,70.72941 -53.3467,56.73668 -8.1685,7.22012 -18.5471,33.3268 3.5567,26.44252 z m -535.6,-103.42 c -5.1861,-14.30809 -10.6973,-17.92274 -1.8951,-19.47952 -18.1626,-8.15776 -37.1539,-64.8489 -43.4886,-15.60816 -2.5178,23.95874 23.419,41.29894 45.3837,35.08768 z m 95.5,-31.25 c 44.213,-35.07166 -66.9757,-45.36843 -28.7314,-5.44363 9.1458,1.87816 23.8046,-6.51835 28.7314,5.44363 z m 363.2,-14.05 c 36.8692,-32.06461 74.713,-67.23381 91.1793,-114.60559 31.8898,-26.656618 3.6752,-110.21302921 -40.812,-77.505154 -20.0122,46.544767 -76.3099,-32.157674 -80.3822,22.980025 -5.2518,35.992584 40.5939,52.646619 48.8659,15.436109 24.2402,0.605804 35.8249,56.40421 33.6568,9.467544 17.4709,-30.238739 29.8392,29.980616 20.4026,44.961216 -7.452,44.15225 -64.8642,56.05898 -72.9104,99.26585 z m -420,-61.58 c 16.4693,-3.87469 75.4439,-8.98705 34.1012,-28.28761 -12.8441,-40.700016 -58.5895,5.16489 -59.6254,25.27502 7.6605,4.38981 17.0629,3.16036 25.5242,3.01259 z m 419.9,-18.19 c 29.1681,-26.28739 -7.2261,-50.407628 -29.6539,-56.257993 -11.359,-20.234113 -30.8763,-31.763952 -30.8644,0.521286 -3.5676,25.895117 27.4333,-19.33518 20.5921,13.006497 2.4793,44.5064 41.7147,-12.013768 39.9262,42.73021 z m -527.1,-77.185 c -5.547,-55.893368 46.2543,-92.722046 87.1062,-120.074737 13.1234,-17.853695 69.668,-13.916253 31.6281,5.799725 -25.117,-0.52108 -45.0636,32.765816 -55.6806,31.843797 -54.414,-20.979027 -25.04,76.377162 -63.0537,82.431215 z m 88,0.242 c -32.9936,7.704348 -33.5954,-76.7429003 -12.7561,-32.527871 35.8948,-6.142867 -4.5008,-73.020505 41.3627,-51.071117 -26.5778,11.6683392 -14.4314,63.648476 12.7983,50.20061 -7.7057,-38.0921111 34.6091,-60.21383 50.731,-90.905249 31.951,-13.341477 29.413,31.234925 0.1309,24.887259 -34.7355,7.322424 -18.8128,51.559296 -18.5518,65.781897 -22.6564,14.980145 -41.8988,47.037798 -73.715,33.634471 z m 268,-60.684 c -12.5854,-14.6082526 -58.6334,-39.329384 -42.3755,-51.613355 11.9673,13.568168 53.426,37.8729661 55.6855,35.425008 -10.2061,-2.13989 -1.9818,18.36649 -13.31,16.188347 z" />
      <path
         id="path3717"
         style="fill:#477c85"
         d="m -1660.2,584.65 c -23.7376,-1.42822 -52.7209,-3.77194 -72.4962,-12.42315 36.2218,-0.95542 -37.7717,-27.16292 2.6527,-20.07714 29.6465,13.65347 44.4448,-6.4751 22.9273,-28.68471 -9.4894,-30.83812 -51.6398,-40.02263 -68.5998,-27.06498 -25.7979,-46.65696 -90.0836,-34.86628 -127.4831,-67.52485 -38.7224,-12.65953 -76.0809,-33.88226 -86.2012,-76.47168 -11.3098,-12.44443 -18.9427,-70.02316 1.6892,-32.76789 3.0862,15.65321 54.6233,49.68524 26.8855,19.1844 -35.0689,-36.36436 -65.3441,-86.8223 -53.6932,-139.20498 -7.089,-29.19106 0.2631,-89.98454 40.3605,-55.43267 52.5682,2.50416 16.8882,-72.448319 51.9622,-82.53667 33.8959,14.791054 71.4631,45.6187 96.925,8.853531 22.4945,-14.229533 -31.1493,37.749139 -0.9928,24.193565 20.9034,-15.09724 34.8446,-59.545084 54.2743,-60.151728 9.2749,28.144272 6.5938,-7.861547 18.4344,15.576639 11.6701,17.78405 14.2414,81.327943 39.729,41.279328 17.4441,-21.556761 56.7206,-4.799179 28.2759,19.388895 -21.0312,25.51026 -101.2132,33.81996 -98.7125,43.53538 45.9995,10.60614 -16.6593,35.5431 -19.9169,57.93661 -19.6452,-14.17414 -71.1233,0.40987 -37.6807,24.87054 40.2823,5.54905 62.3162,-39.62782 98.4756,-49.42676 30.1834,-7.97473 -26.0645,35.71455 9.6488,19.65949 7.5222,35.57227 44.6955,-8.44115 19.7439,-26.52822 22.9221,24.44811 15.6348,-49.65401 46.4311,-25.47911 37.7306,7.3362 92.5141,-7.37352 110.4769,-40.01409 -9.46,-7.81494 -17.7116,-18.842441 1.3428,-17.346927 -14.5334,-2.102137 -36.2519,-20.579876 -9.7317,-23.124145 4.6334,-28.933133 -39.7808,0.942796 -44.6749,-15.629372 -13.7929,2.006206 -44.6477,-18.264716 -14.7374,-17.396218 4.2796,-27.043744 62.2651,9.595941 46.1622,-16.903468 -20.6087,1.850851 -26.409,-27.0464622 -2.5357,-18.0029158 -21.1424,-19.8307522 -9.1728,-46.5603692 13.6368,-19.4267422 12.4129,20.0661668 50.4922,2.6961121 43.8262,4.1167 33.9073,21.621654 19.2281,-21.925872 -9.7277,-11.367335 -19.3343,-2.832465 -28.8354,-18.970987 -2.5087,-8.842335 37.7963,-16.101688 74.2381,-1.397744 101.3816,22.6422202 26.8729,3.5204716 41.6796,-49.8478752 6.8807,-28.9549852 -15.7575,-28.789548 -11.7845,-76.318407 -53.1436,-92.285817 -75.8138,-35.33346 -162.4613,-48.64994 -244.8714,-31.25334 145.0965,-36.60043 311.2359,22.30103 393.5862,149.0591517 78.4592,112.9513983 93.164,269.6738383 26.2569,391.5365583 -40.9412,80.3609 -111.1931,147.98915 -197.8842,176.11055 36.5457,-9.02309 -23.9543,-40.83615 -18.4598,-9.19937 -31.4182,15.48281 -79.9666,-1.61396 -100.6719,32.00769 25.4737,7.25801 -34.656,2.74353 -37.2423,3.57035 z m 12.6,-13.88 c 19.7443,-20.45531 84.2518,-13.8929 81.2856,-37.00169 -8.3427,-37.77764 -62.616,-40.89289 -51.3382,5.50788 17.0007,26.58946 -61.8254,15.13288 -29.9474,31.49381 z m -35.2,-134.95 c 38.5997,-4.86804 -47.8968,-42.37066 0.4159,-33.54853 20.88,-8.17246 36.7944,4.76763 46.5689,16.10879 9.2867,-16.26776 14.8907,-32.82944 -6.0197,-40.61625 10.42,-15.33908 13.152,-43.71134 42.8333,-35.19859 35.2666,-20.19092 -40.3658,-34.67419 -42.2812,-3.99344 -38.5709,-0.45885 -29.4868,-46.37921 -50.9778,-66.14428 -23.427,-0.64645 -55.1427,-55.61174 -59.5098,-12.97298 5.2081,14.52535 13.5748,39.27536 -9.0723,43.3941 27.8538,-0.7527 -36.682,28.00005 -12.331,29.39036 21.2839,-12.6675 23.6789,24.94826 0.7544,11.28514 -23.9227,14.77798 -54.611,-34.78782 -28.0415,-28.15948 23.1327,16.2214 13.02,-33.01863 -2.465,-32.56377 -27.285,-28.42633 -28.2937,8.06756 -20.1914,27.8674 -7.6285,32.89164 -80.3015,27.51317 -43.75,71.07735 7.4932,24.66955 63.3585,40.30104 30.2154,6.69272 -15.0254,-41.45114 37.249,-37.41939 31.9093,0.97032 24.8357,46.85758 46.0732,-29.68296 68.9599,-38.66311 21.7986,9.66962 2.4233,19.05458 -4.1604,23.47958 5.6932,26.68694 28.6313,64.21318 57.143,61.59467 z m 240,-10 c 47.5939,0.5716 15.4717,-79.24766 -14.6053,-35.89691 -25.3357,39.84454 -82.0643,-48.40604 -89.6688,-16.23687 19.0368,7.09648 33.0503,20.15058 16.0962,33.16876 23.5358,26.24372 83.5791,-22.3082 74.8736,22.34338 4.1841,3.77531 10.1059,-1.11335 13.3043,-3.37836 z m 67.1,-51.65 c 8.4693,-32.78209 82.21,-42.0415 49.79,-83.1792 -35.6474,1.53179 -8.2034,70.72941 -53.3467,56.73668 -8.1685,7.22012 -18.5471,33.3268 3.5567,26.44252 z m -535.6,-103.42 c -5.1861,-14.30809 -10.6973,-17.92274 -1.8951,-19.47952 -18.1626,-8.15776 -37.1539,-64.8489 -43.4886,-15.60816 -2.5178,23.95874 23.419,41.29894 45.3837,35.08768 z m 458.7,-45.3 c 36.7328,-32.02941 74.5641,-67.01905 91.0381,-114.26046 31.947,-26.647126 4.0436,-110.55826189 -40.6708,-77.850284 -19.9991,46.596885 -74.1477,-31.2189637 -80.4504,21.328941 -5.4024,37.297363 36.9787,52.795543 51.4244,18.13901 22.7879,-1.420924 31.9945,54.159323 30.3876,9.680509 14.7751,-34.834039 31.8307,23.792364 20.9764,39.957654 -9.4652,42.80459 -52.823,63.37267 -76.4394,97.03516 1.2447,1.98982 2.4894,3.97965 3.7341,5.96947 z m -415,-64.65 c 24.3026,5.06543 66.3593,-13.79295 25.2517,-30.66214 -12.9281,-36.493515 -80.0353,30.80457 -38.9089,34.76658 4.9901,0.17372 9.1833,-2.4659 13.6572,-4.10444 z m 414.9,-15.12 c 29.0884,-26.32139 -7.2119,-50.404656 -29.6539,-56.257993 -11.359,-20.234113 -30.8763,-31.763952 -30.8644,0.521286 -3.4678,25.862937 27.5301,-19.443512 20.5434,13.260407 -2.2788,35.75264 50.1483,-1.74979 37.1389,38.46168 l 0.7086,3.09856 z m -527.1,-77.185 c -5.9873,-53.395517 42.1473,-89.917719 81.3034,-116.625282 10.4781,-18.801636 78.4937,-21.351297 38.2884,2.493955 -26.4786,-3.506371 -43.6275,35.9341473 -56.5381,31.700112 -54.414,-20.979027 -25.04,76.377162 -63.0537,82.431215 z m 88,0.242 c -32.9936,7.704348 -33.5954,-76.7429003 -12.7561,-32.527871 35.8948,-6.142867 -4.5008,-73.020505 41.3627,-51.071117 -26.5778,11.6683392 -14.4314,63.648476 12.7983,50.20061 -7.7057,-38.0921111 34.6091,-60.21383 50.731,-90.905249 33.2711,-12.156225 29.5436,31.166823 -1.5698,24.662497 -43.8612,15.998248 5.4111,70.095575 -36.5504,82.330709 -13.9775,14.324586 -33.6694,25.402783 -54.0157,17.310421 z m 268,-60.684 c -12.1093,-15.0753833 -58.7644,-39.181301 -42.3755,-51.613355 11.9673,13.568168 53.426,37.8729661 55.6855,35.425008 -10.2061,-2.13989 -1.9818,18.36649 -13.31,16.188347 z" />
      <path
         id="path3715"
         style="fill:#546f63"
         d="m -1677.2,583.65 c -35.4931,2.99536 -33.6412,-21.47929 -62.1882,-31.01158 21.8085,6.54636 53.0319,3.71313 34.7445,-27.01197 -14.1555,-33.72088 -46.473,-38.10166 -76.9569,-32.67885 -13.7489,-28.93627 -52.7512,-31.24399 -79.722,-44.89834 -36.6587,-13.92338 -72.7683,-31.41011 -103.2859,-55.989 -18.1722,-18.98488 -45.7816,-64.36664 -30.3856,-83.59333 10.9377,13.32982 33.9148,57.15905 45.126,43.47457 -24.4838,-32.93299 -59.5687,-61.61621 -64.6576,-105.1636 1.5533,-36.05456 -10.0734,-76.7528 7.9919,-109.37844 20.1295,-9.37981 52.8202,23.33516 63.3401,-13.41547 2.5224,-32.415726 6.4021,-85.86492 46.6781,-45.763735 8.6721,11.036398 67.1484,0.71113 30.9457,12.951914 -20.1306,-3.724963 -54.686,24.060301 -17.6945,26.665231 26.7769,-5.2169 38.8418,-34.798665 60.5231,-46.688031 -23.991,19.464481 -11.8557,40.069191 7.4174,12.200306 17.813,-15.390848 35.3565,-72.242553 53.5184,-29.797656 21.3953,9.768329 34.0749,61.963061 -0.9891,31.790678 -30.8671,-9.714835 20.6748,38.214503 36.9836,20.769633 14.8601,-12.384707 51.766,-45.000642 45.8945,-3.12739 -16.3802,36.56512 -65.222,29.81321 -98.1317,45.17874 -39.9602,8.95945 43.6174,11.50244 4.7974,28.56587 -20.3698,12.73262 -34.0533,51.60492 -62.7827,26.55317 -41.2443,14.58913 10.6017,55.36094 32.6676,23.57812 16.4647,-11.96029 61.2414,-50.50641 67.9221,-34.81703 -7.5651,10.30005 -20.7365,27.06956 -1.7755,15.25011 16.2498,38.54471 39.8885,-5.98438 28.5917,-21.2483 11.7133,17.19276 12.4982,-53.08208 37.2338,-22.8638 17.1032,-26.21291 70.071,17.02591 79.5152,-26.14525 20.8403,4.73616 56.4225,-20.06456 22.7557,-33.52149 43.7395,4.81973 -32.884,-23.742888 3.2084,-25.562054 9.2243,-37.373077 -42.3764,1.949595 -36.0987,-22.472629 -22.2169,15.053929 -50.9989,-20.231185 -13.8037,-10.782567 26.1294,-1.742724 55.6816,-22.473215 30.3314,-29.231423 22.0615,-7.2788875 -28.2489,-40.801784 7.8253,-31.686317 42.9488,12.8047703 62.697,62.373373 67.2586,101.80446 -4.5302,23.19137 -2.0068,11.820274 12.741,9.254844 6.429,20.702836 7.492,36.399516 30.8018,25.072496 19.4614,5.84161 0.2892,45.1801 20.9797,18.22375 3.7235,-20.72494 -4.9604,-47.856434 8.594,-60.897967 8.6936,-25.431243 45.3396,42.513337 33.7784,26.011327 -0.062,-18.684847 28.6574,-40.440746 22.8317,-7.469282 11.8541,52.759972 -43.4327,81.664852 -69.8653,117.684842 34.1847,-2.0034 58.0508,-47.9861 76.0001,-76.56808 19.9418,-34.91319 56.2572,-97.085875 -5.7839,-111.361816 -28.2971,-8.409082 -37.5887,40.38497 -67.5388,14.845549 -46.9348,-32.4403615 -24.3503,43.462333 -32.2252,48.647274 -31.8858,-14.990833 -37.9789,-60.752849 -39.5553,-82.0047356 -27.5776,-4.1330843 -2.8017,-24.1684404 11.7447,-7.61640275 35.7092,5.46415065 -39.1838,-33.15050865 2.7295,-33.12948965 33.6188,-5.613284 94.6726,59.092447 105.1296,1.268249 -16.8823,-30.134973 -47.2733,-53.367476 -62.6072,-82.773388 -54.7195,-39.68347 -124.1082,-48.86926 -189.8028,-53.05116 195.2425,-13.58138 381.1845,154.999308 388.7964,350.19414 9.4473,140.20408 -63.399,286.30047 -188.7082,353.40769 -19.3966,35.93788 -58.0207,-22.8324 -67.7799,7.07118 2.6664,4.22741 -39.5979,16.35229 -55.8414,18.71012 -41.9758,-13.04219 38.4367,-15.44614 5.8596,-26.4144 3.1039,-48.91938 -66.1756,-32.66663 -49.1803,9.96202 4.1723,15.93744 -44.6403,18.03952 -52.0281,39.15491 -1.9561,-0.0521 -3.9123,-0.10415 -5.8685,-0.15622 z m 262.8,-95.4 c 29.177,-5.14435 35.3731,-81.91308 1.5365,-37.13278 -6.0508,8.99666 -24.5252,36.54398 -1.5365,37.13278 z m -268.4,-52.43 c 38.0665,-5.13316 -47.4703,-41.85631 0.3136,-33.52401 19.098,-7.79037 37.4737,3.87597 45.2082,15.40075 22.4616,-15.02156 -0.557,-35.60414 -2.9557,-44.89919 8.7867,-24.53397 44.3936,-25.07234 54.2742,-42.95308 -17.3494,-21.81414 -57.2449,-4.42633 -56.8289,7.15044 21.3263,-15.27544 -19.9612,-35.33523 -3.7192,-7.62846 -43.1223,-0.77861 -26.0542,-74.1183 -76.37,-72.3734 -11.1694,-25.99848 -41.722,-13.67903 -24.2022,11.11215 6.8509,17.69977 -18.0337,33.18805 -6.6772,40.38967 -18.844,13.15946 -33.4145,22.64338 -33.6581,-9.20284 -2.0313,-22.01388 -55.9134,-37.60774 -38.2614,1.05008 13.5057,37.25566 -89.3136,41.19876 -37.9129,81.1848 11.1991,18.1675 -55.4553,-4.33153 -24.2319,18.56809 22.2428,8.99277 49.7245,6.34416 68.3955,19.00626 23.8974,-12.52547 -49.0098,-43.95513 -5.5452,-53.84547 15.0322,-29.41016 15.8646,32.90314 26.5345,36.81752 32.6744,16.56288 49.1641,-66.66025 64.7937,-13.09698 6.166,22.80196 31.9796,55.67715 50.843,46.84367 z m 240,-9.03 c 32.9848,-2.49473 15.0202,-53.42958 50.9027,-30.51888 12.6968,-7.60416 9.4978,-38.81308 35.5397,-42.68838 27.4653,-3.86581 58.6385,-50.30675 25.8157,-64.48256 -22.9895,18.95109 -20.3146,53.94183 -53.1623,66.9799 -12.9959,37.47486 -60.3164,13.44844 -84.0421,37.05178 -30.2886,22.01145 -71.4607,-56.76546 -81.6594,-21.68473 32.6916,6.08465 -0.3421,54.51674 39.8583,44.36975 22.3996,-7.6626 47.5525,-4.51795 55.066,14.86848 l 6.9606,-0.99679 z m -142.7,-38.55 c 29.8753,1.01549 23.1464,-60.79174 -2.283,-27.9183 -24.4711,7.53234 -21.1095,47.5022 2.283,27.9183 z m 25.5,-53.86 c 35.9316,-20.71244 -26.2954,-67.084 -22.3476,-18.50777 9.7604,3.25502 11.603,17.40237 22.3476,18.50777 z m -348.8,-65.88 c -4.4674,-17.46288 -5.7907,-24.99235 -24.3732,-35.34288 -1.6365,-17.79398 -15.2805,-38.20176 -20.2886,-8.84436 -11.8068,14.65305 -29.6073,23.87257 -1.5187,26.53099 2.6069,27.31569 27.576,16.55318 46.1805,17.65625 z m 35.6,-104.32 c 17.5655,-0.1244 74.9916,-11.54676 34.3437,-29.24989 -0.3765,-53.68768 -85.3852,20.86987 -49.7529,30.21908 l 8.1746,-0.46539 z M -1889,70.225 c -29.1865,1.472798 -33.4334,-56.172671 -23.826,-45.124987 -1.5922,32.620965 52.7147,-0.441663 18.1252,-16.8699485 -2.7473,-20.9895985 41.6496,-35.5712785 17.6329,-6.3211596 -20.8295,28.9820021 43.3854,59.3656111 29.8753,20.3865901 -20.3194,-45.81251 64.937,7.059218 16.135,23.539251 -14.2439,17.417957 -34.1041,26.765339 -57.9424,24.390254 z m -91.3,-2.43 c -2.7175,-57.655814 50.042,-94.821288 93.1169,-122.606229 14.5074,-12.699382 62.7836,-7.116009 24.1984,9.222564 -30.5134,0.04633 -43.6356,37.9996938 -75.5116,31.743138 -27.2108,18.0461779 -8.3443,71.874131 -41.8037,81.640527 z m 146.5,-65.49 c -5.3637,-25.697248 49.368,-78.904672 52.5512,-43.971354 -19.1833,12.314049 -40.5243,23.733206 -52.5512,43.971354 z" />
      <path
         id="path3713"
         style="fill:#22758a"
         d="m -1678.8,583.06 c -10.0361,2.74846 -52.0468,-9.1349 -23.104,-11.56408 -21.9204,-3.98375 -39.392,-25.17763 -6.3175,-13.70718 7.0027,2.26755 64.734,26.37771 29.4215,25.27126 z m 80.6,-21.97 c 14.684,-19.86864 92.448,-19.4879 41.8203,-50.69853 -39.4294,-29.71729 -85.769,-3.15245 -102.5723,34.8827 -28.7275,15.39909 -42.2037,-20.07641 -10.4274,-29.6727 21.8982,-31.31115 92.2322,-16.84567 93.664,-54.57744 -18.1216,-23.74035 -77.9158,-28.31978 -50.1467,-70.37089 -34.0103,-30.66924 22.1903,-42.9345 40.0711,-57.67031 -11.1347,-21.07191 -44.0335,-7.86533 -64.9809,-19.64598 -17.6981,24.32784 -17.5568,-41.33969 -43.6701,-40.10036 -25.8683,-12.85703 -44.9733,-57.39178 -5.6891,-66.62815 -0.9732,-23.93597 8.1563,-54.23878 33.9218,-46.69962 32.1394,-9.48906 72.4273,7.07519 92.1276,-29.99247 24.7103,4.06083 24.7232,-12.98648 8.7683,-25.37389 39.3877,-2.03614 -37.5751,-25.571464 1.7397,-27.170958 9.0196,-32.780886 -41.6822,-4.385289 -39.2913,-19.885467 -22.7645,6.427683 -46.0752,-18.425544 -9.0756,-14.08246 28.0189,1.505064 47.6828,-24.717585 23.3439,-28.520849 31.6373,-4.850433 -23.6062,-42.121776 9.368,-33.661494 22.9962,22.6430003 60.2553,35.474622 61.2099,74.810327 20.7885,8.34305 2.0054,25.902074 5.3996,40.51922 25.0977,-15.739686 17.8062,44.491631 46.9655,25.730281 13.0856,10.60298 10.4813,33.08251 23.7575,5.01827 8.2846,-17.10075 1.0077,-31.388018 -5.6148,-31.749574 12.5654,-40.202166 39.6401,-11.827468 44.6019,11.896244 -1.725,-25.879256 25.9548,-42.899672 23.0841,-6.4382 3.285,45.41881 -34.1669,81.22838 -70.1276,102.81768 -2.0583,34.79671 40.2273,-19.03922 52.114,-27.55034 20.0714,-38.2535 63.5071,-89.928357 49.3895,-129.544745 -20.7913,-28.248394 -58.2739,-26.924236 -76.3591,1.83713 -21.1553,-2.71817 -58.4924,-37.244805 -56.3966,8.125016 3.7545,19.47521 12.4913,47.684389 -12.3812,20.882071 -31.0947,-20.088907 -15.0001,-70.4111012 -38.1742,-81.5963289 13.0887,-5.460653 52.7638,14.9242799 23.1469,-10.8329801 -28.0764,-34.022169 45.1013,-11.707187 60.7231,-0.790559 26.8616,24.3958795 70.9778,-12.454915 34.3286,-34.261108 -26.4966,-32.068191 -45.8063,-74.424726 -88.5051,-87.899526 -48.7175,-21.622 -102.4711,-28.08812 -155.2529,-30.24606 144.6336,-8.28921 290.239,75.35605 352.7886,206.671901 64.5213,124.939449 54.9426,287.774369 -35.6916,397.736149 -38.1241,49.66947 -88.4546,90.33431 -146.1247,115.05924 -1.7569,-31.04363 -43.0638,-15.31567 -37.8247,-0.0707 -24.8749,-0.75901 -51.1469,-1.71814 -74.028,9.74545 z m 183.8,-72.84 c 29.177,-5.14435 35.3731,-81.91308 1.5365,-37.13278 -6.0508,8.99666 -24.5252,36.54398 -1.5365,37.13278 z m -28.3,-61.51 c 33.9667,1.52508 16.6013,-58.74019 47.599,-30.36695 19.5234,-11.57023 23.72,-47.62346 54.9834,-53.36594 34.5069,-4.31541 27.3964,-76.36548 -2.4262,-45.98535 -4.5104,40.04756 -36.5804,54.05054 -61.9564,79.65731 -36.3411,1.76714 -72.2206,33.1313 -108.2527,5.69069 -19.4828,-22.01618 -67.3615,-47.31924 -86.666,-12.66213 -23.6172,29.51645 35.819,23.07832 37.1476,2.03547 45.2723,-8.48201 12.1302,60.86416 58.5706,44.46141 22.8951,-9.98712 42.9185,0.098 53.3465,14.0643 l 4.0927,-1.14912 z m -117.6,-92.08 c 39.8989,-25.46261 -33.5017,-68.28327 -21.3535,-15.76991 6.7105,5.51123 19.0146,5.88545 21.3535,15.76991 z m -107,171.17 c -45.4477,-18.69198 -92.9699,-32.38069 -140.6333,-43.18953 -51.4201,-24.41691 -109.3677,-36.66407 -156.5087,-68.99729 -18.7743,-24.43534 -40.0285,-56.51734 -32.463,-88.541 9.5254,15.22144 38.9343,61.81302 44.4916,41.55257 -31.374,-32.87173 -65.5808,-70.43375 -63.5048,-119.23483 7.2652,-28.22677 -14.2051,-85.06504 19.5916,-93.61092 28.224,16.36358 65.1099,8.58759 55.1585,-31.58058 -5.5035,-27.93759 22.6216,-56.455556 41.8164,-23.82543 16.3631,1.677413 69.4074,9.938058 25.0681,13.926143 -36.3503,-2.904417 -28.055,44.204367 3.7566,21.040647 13.5848,-6.43462 53.5,-58.001349 30.8175,-16.820415 22.0783,8.893215 40.7399,-43.417777 59.7867,-59.544615 10.2973,-18.315131 13.5429,28.511806 31.762,34.199672 19.0489,17.04351 -2.4278,32.361978 -16.3228,12.215726 -27.9283,6.319589 40.2749,43.753632 53.5074,13.70412 12.8826,-37.693413 55.246,6.610372 18.2476,19.153462 -27.9551,17.50534 -84.5982,28.69405 -100.2056,37.70918 50.4258,6.23648 -6.6195,58.85479 -34.7136,54.77579 -24.7524,-5.53662 -41.9589,16.83496 -10.3527,26.63582 22.1931,20.81373 18.4779,78.71654 -10.2612,98.87372 -28.0003,1.55162 -41.8139,27.02276 -16.648,46.21492 10.3294,20.78506 -57.2924,-2.9967 -19.783,21.65902 23.6697,-0.64012 53.4936,18.93324 70.1841,14.23956 -3.3213,-18.41233 -45.2828,-51.68169 -2.6304,-52.42427 -0.9966,44.33478 55.8989,56.776 64.203,8.41686 24.6694,-5.2444 17.207,51.39629 43.4217,61.90972 15.9984,18.05715 41.2162,32.70545 59.8249,18.08818 16.2444,16.18116 -17.8442,17.56873 -1.3765,35.49457 2.5713,10.12568 -6.4608,18.33324 -16.2341,17.9592 z M -1908.8,268.5 c -4.3293,-17.6353 -5.9143,-24.86491 -24.5048,-35.28305 -1.5969,-17.81131 -15.0667,-38.30239 -20.1586,-8.90183 -11.9417,14.68691 -29.5154,23.91703 -1.353,26.50716 2.7614,27.20026 27.3317,16.75572 46.0164,17.67772 z m 35.6,-104.35 c 23.7429,6.14112 73.2392,-21.10138 30.198,-36.93402 -9.7344,-42.532332 -87.4704,42.20793 -34.4789,37.5645 z M -1889,70.225 c -29.1865,1.472798 -33.4334,-56.172671 -23.826,-45.124987 -1.5922,32.620965 52.7147,-0.441663 18.1252,-16.8699485 -2.7473,-20.9895985 41.6496,-35.5712785 17.6329,-6.3211596 -20.8769,29.0589861 43.5455,59.3111581 29.8063,20.3654301 -21.8257,-44.615199 64.8999,4.390212 17.7014,21.552437 -15.017,16.078311 -36.3568,30.52095 -59.4398,26.398228 z m -91.3,-2.43 c -2.7175,-57.655814 50.042,-94.821288 93.1169,-122.606229 14.5074,-12.699382 62.7836,-7.116009 24.1984,9.222564 -30.5134,0.04633 -43.6356,37.9996938 -75.5116,31.743138 -27.2108,18.0461779 -8.3443,71.874131 -41.8037,81.640527 z m 146.5,-65.49 c -1.7764,-23.413699 42.9735,-78.697899 50.2163,-43.487939 -16.7525,14.420958 -38.7722,23.61849 -50.2163,43.487939 z" />
      <path
         id="path3711"
         style="fill:#32696f"
         d="m -1678.8,583.06 c -10.0361,2.74846 -52.0468,-9.1349 -23.104,-11.56408 -21.9204,-3.98375 -39.392,-25.17763 -6.3175,-13.70718 7.0027,2.26755 64.734,26.37771 29.4215,25.27126 z m 80.6,-21.97 c 14.684,-19.86864 92.448,-19.4879 41.8203,-50.69853 -39.4294,-29.71729 -85.769,-3.15245 -102.5723,34.8827 -28.7275,15.39909 -42.2037,-20.07641 -10.4274,-29.6727 21.8982,-31.31115 92.2322,-16.84567 93.664,-54.57744 -18.1216,-23.74035 -77.9158,-28.31978 -50.1467,-70.37089 -34.0103,-30.66924 22.1903,-42.9345 40.0711,-57.67031 -11.1347,-21.07191 -44.0335,-7.86533 -64.9809,-19.64598 -17.6981,24.32784 -17.5568,-41.33969 -43.6701,-40.10036 -25.8683,-12.85703 -44.9733,-57.39178 -5.6891,-66.62815 -0.9732,-23.93597 8.1563,-54.23878 33.9218,-46.69962 32.1394,-9.48906 72.4273,7.07519 92.1276,-29.99247 24.7103,4.06083 24.7232,-12.98648 8.7683,-25.37389 39.3877,-2.03614 -37.5751,-25.571464 1.7397,-27.170958 9.0196,-32.780886 -41.6822,-4.385289 -39.2913,-19.885467 -22.7645,6.427683 -46.0752,-18.425544 -9.0756,-14.08246 28.0189,1.505064 47.6828,-24.717585 23.3439,-28.520849 31.6521,-4.870356 -23.6207,-42.055841 9.3488,-33.69222 33.1802,25.3016184 75.7268,57.468759 64.2752,107.28601 -5.7131,26.694304 31.0949,-13.03707 21.1155,19.832084 9.8234,14.90569 44.9979,21.81533 43.7582,32.70912 25.0469,-19.77564 -16.6366,-65.118443 26.6365,-67.772979 19.2537,6.152799 19.0289,59.146349 24.7772,17.512598 20.0265,-38.2626 26.0209,36.870321 11.0176,49.917651 -7.678,35.7811 -61.5426,47.33137 -62.877,77.89229 27.776,-14.13716 51.9006,-38.31854 68.148,-65.25927 16.6999,-28.6619 26.4453,-60.706596 42.6988,-89.595699 -14.5629,-38.208224 -63.4475,-54.8572543 -84.0486,-14.233569 -22.4233,-5.065268 -61.581,-36.652896 -57.6764,10.545537 5.2508,19.264538 10.8681,42.323991 -12.1631,17.550333 -31.0947,-20.088907 -15.0001,-70.4111012 -38.1742,-81.5963289 13.0553,-5.475664 52.79,14.9317629 23.174,-10.7929231 -30.2613,-30.518945 42.8392,-17.900784 54.2879,-3.088646 35.587,34.730989 82.9606,-20.864103 32.9221,-42.168509 -28.3603,-16.23611 0.095,-41.963565 -34.5246,-53.496885 -60.5697,-38.52868 -133.7847,-54.32182 -204.9628,-54.34311 145.725,-9.60626 293.3224,74.044175 356.3326,206.531742 64.5213,124.939448 54.9426,287.774368 -35.6916,397.736148 -38.1241,49.66947 -88.4546,90.33431 -146.1247,115.05924 -1.7569,-31.04363 -43.0638,-15.31567 -37.8247,-0.0707 -24.8749,-0.75901 -51.1469,-1.71814 -74.028,9.74545 z m 183.9,-72.95 c 29.4102,-3.63661 35.4849,-84.89593 3.1373,-38.21235 -7.6505,8.89669 -28.7419,37.7668 -3.1373,38.21235 z m -28.4,-61.4 c 29.8174,4.99121 19.9149,-57.50991 51.2863,-28.66638 7.1339,-37.72102 55.8364,-46.40613 73.8764,-79.67523 13.5965,-36.184 -36.3227,-37.64 -30.959,-1.40427 -7.4148,28.12998 -35.337,33.89306 -51.9047,57.3354 -35.5058,4.70839 -69.7993,31.96593 -106.5429,11.48716 -22.8186,-19.70181 -63.7019,-51.00637 -90.5497,-20.45423 -28.4941,31.70202 31.4207,30.27998 35.2223,6.38065 45.2723,-8.48201 12.1302,60.86416 58.5706,44.46141 22.8951,-9.98712 42.9185,0.098 53.3465,14.0643 l 4.0927,-1.14912 z m -117.6,-92.08 c 39.8989,-25.46261 -33.5017,-68.28327 -21.3535,-15.76991 6.7105,5.51123 19.0146,5.88545 21.3535,15.76991 z m -107,171.17 c -44.858,-18.34025 -91.623,-32.34702 -138.7582,-42.5167 -51.164,-25.88841 -114.879,-32.00932 -154.5817,-76.80537 -21.6967,-11.44012 -17.7017,-60.88654 8.0642,-30.84549 13.5128,14.81361 37.7894,25.12188 11.9442,1.00146 -23.0971,-9.44268 -57.2218,-64.3967 -20.295,-63.93267 20.9956,26.90621 38.6885,8.59073 14.4113,-12.28705 -34.8616,-13.19171 -82.8559,-36.74556 -44.6309,-77.71503 -34.9377,-29.87775 6.0848,-69.11108 42.4426,-62.52435 21.3,-20.10857 -7.8681,-82.373804 29.62,-78.991846 12.7868,21.349807 57.1286,23.842241 64.9498,26.149496 -16.863,2.547117 -73.2392,18.5176 -32.0165,33.10215 22.8996,-4.4095 39.1905,-32.923551 55.1567,-40.889705 -23.6425,29.148475 10.3676,22.330575 18.2718,0.366936 15.8719,-12.397169 39.4767,-73.4642698 45.0139,-32.270726 9.7902,9.592172 44.4363,50.611175 14.7022,42.938488 -26.2901,-23.672285 -23.6612,9.000957 -0.084,13.987207 33.0142,25.5919 54.6188,-49.011807 75.7605,-10.103552 -13.041,37.582552 -67.6563,39.367702 -101.2849,53.258262 -46.7448,6.97935 30.0548,5.8049 2.6431,31.72277 -14.7307,39.46975 -70.116,14.44768 -87.0429,46.39194 25.9411,3.71365 49.6008,21.17254 35.6081,47.5186 12.2603,38.53085 -18.3685,68.16703 -50.4172,75.60052 -2.7862,19.78942 32.4441,52.99668 -9.9016,38.00419 -24.4093,13.84482 34.6987,23.6229 43.4107,23.3176 13.8946,16.70452 49.5201,6.0606 19.8108,-9.21971 -35.7977,-13.70447 14.7999,-63.5488 12.1039,-16.87632 12.4502,38.93729 60.4581,10.35611 63.6137,-13.56357 20.8611,25.60572 24.8901,63.82352 59.3087,79.89818 11.5082,27.44405 58.201,-15.76928 38.884,17.86974 -17.5355,12.44934 17.5639,34.05627 -16.707,37.41455 z m -243.1,-233.69 c 7.9635,-31.64882 -36.7779,-34.35788 -33.1792,-66.33782 -45.6107,8.12412 -34.7808,68.62947 10.826,62.40602 7.3116,1.97639 14.791,3.39905 22.3532,3.9318 z m 37.2,-107.99 c 17.5036,1.09446 73.4987,-11.77223 35.8529,-30.34886 -5.1439,-42.629573 -70.9194,6.54418 -57.8121,30.14824 6.9312,2.96009 14.867,1.64675 21.9592,0.20062 z m -15.6,-93.854 c -28.1269,7.835784 -37.895,-73.0462928 -14.9376,-27.80652 32.3046,14.723267 18.9697,-23.452684 8.5424,-35.0198455 0.196,-21.7479465 41.4284,-32.1896605 17.4043,-3.5348352 -21.2806,30.4793687 46.4161,53.8398167 35.6401,21.6256357 -36.1179,-28.4892341 39.856,-25.4240739 21.1612,7.469974 -15.001,22.349175 -40.1343,38.829242 -67.8104,37.265591 z m 55,-67.992 c 1.6122,-20.65791 34.0073,-77.245553 52.1593,-44.259449 -18.4303,13.346685 -39.6564,24.463507 -52.1593,44.259449 z m -73.2,-24.81 c -23.6847,-38.716172 93.1797,-47.751597 39.8756,-23.384536 -15.8503,1.950249 -30.4715,10.451158 -39.8756,23.384536 z" />
      <path
         id="path3709"
         style="fill:#2a5050"
         d="m -1692.2,549.6 c 17.0407,-47.11557 70.2694,-57.70493 112.3884,-69.88365 22.5942,-38.92575 -73.8382,-45.24572 -47.5835,-92.46716 -36.4228,-21.6306 31.6694,-37.84967 49.1669,-57.19874 19.9759,8.94187 73.8864,-21.91573 53.0058,-45.69149 -7.3815,16.67837 -33.3679,36.03747 -31.0971,4.33317 -4.0159,-19.35246 -23.2276,-20.60928 -12.9984,1.66872 -13.5797,48.34091 -79.1347,27.5495 -104.8445,-0.87663 -26.2206,-21.85711 -75.7809,-53.37527 -30.0543,-84.30429 9.3603,-37.52014 41.3903,-52.99639 77.804,-43.86552 16.8366,-0.52801 47.7184,-2.59883 41.1475,-20.63495 41.3419,3.43103 47.0205,-37.63212 22.2914,-62.786857 17.7203,-22.165929 -51.3305,-34.567371 -10.0039,-42.031687 22.9582,24.155428 17.7785,-59.716316 41.7169,-16.793259 7.8928,30.100884 26.0611,51.502844 15.5468,84.297353 9.1108,24.17561 70.6628,8.34458 55.321,46.13476 43.153,-4.44097 5.6879,-94.609541 44.946,-68.490232 7.2777,12.344665 12.9406,46.817162 20.6003,13.439991 35.3627,4.93964 3.9076,66.630581 -19.1678,79.357481 -14.9649,11.2403 -50.965,46.49632 -40.321,52.31364 37.1441,-24.87904 68.5658,-59.48058 85.1779,-101.02488 18.7122,-28.129382 63.0921,-79.024554 11.3561,-91.7376 -13.7135,-23.513865 -46.2582,-32.73700868 -51.1109,1.856357 -18.6376,35.913001 -73.4399,-42.8777 -74.6597,7.464729 12.5929,21.667615 -5.8949,47.855073 -19.7176,17.874584 -21.8679,-13.779742 -14.2877,-59.2440017 -10.1034,-53.893829 -32.8842,-28.247005 23.98,19.854426 22.7508,-14.4121186 -4.2966,-48.3110544 54.2403,20.2888476 82.9112,4.0261575 37.7737,-19.9767549 26.5872,-66.0979399 -14.3828,-73.5823189 -13.173,-27.715261 -40.0647,-50.260881 -74.074,-59.577421 -20.3117,-4.11256 -42.3788,-20.83101 -9.1352,-7.56951 194.2979,69.385282 299.8509,318.16071 210.6248,505.16097 -37.3675,82.62739 -104.8357,151.73445 -187.7142,189.00684 -34.498,-30.32074 -85.1573,-37.45658 -125.6565,-54.324 -34.014,11.80413 -41.8051,56.13836 -84.131,54.21139 z m 278.6,-59.86 c 44.7225,3.27922 44.3383,-101.53172 0.8628,-44.53641 -10.7856,11.22927 -26.6632,40.30027 -0.8628,44.53641 z m -29.8,-61.33 c 27.8718,1.46846 23.9246,-52.29493 54.2212,-28.67448 16.7888,-39.18657 66.5862,-55.20768 80.8015,-97.93345 -0.4456,-24.01906 -38.6935,-40.10529 -36.4705,-2.89569 -18.8759,36.92241 -43.1946,81.7069 -88.6131,77.4013 -29.9989,22.07321 -68.5086,26.77643 -90.9219,-7.47204 -27.9181,-28.26213 -86.5875,-16.85105 -84.2873,18.80517 8.1908,22.06579 41.2637,-8.90274 25.0478,17.62697 15.5762,23.63458 35.7325,-14.28577 17.4558,-26.15817 2.7089,-18.19803 25.9178,26.17608 31.5406,-0.81001 -20.1654,58.23864 50.7947,25.0403 70.4215,43.50824 -5.6895,12.24802 16.1396,13.79027 20.8044,6.60216 z m -223.9,77.42 c -48.8266,-21.65654 -101.5588,-31.99763 -152.1926,-47.7571 -55.7261,-22.25595 -113.3486,-46.81106 -154.7083,-91.92136 -7.4206,-52.15224 46.4128,28.39799 50.8265,5.97516 -10.9979,-27.84065 -73.3408,-40.85631 -46.4899,-75.50849 14.2794,-10.00948 45.5337,31.24824 34.1857,-3.15452 -13.1275,-33.98456 -75.4074,-22.03983 -70.1329,-65.95373 33.4155,-20.23665 -23.8686,-73.96074 24.6572,-80.84705 53.4566,11.59206 35.0768,-54.469774 52.5495,-80.800238 25.8939,1.318069 46.135,30.089141 75.2903,20.83062 -16.6527,4.806902 -76.4268,11.205265 -45.1503,35.840548 14.4619,13.48987 55.3922,-34.565049 33.2653,-3.39871 -19.5473,13.05026 -69.0409,63.30392 -13.4869,48.3424 23.4021,-6.92819 84.6692,-6.677 50.4154,-40.30542 -9.8119,-36.52418 44.0012,-80.180827 54.7609,-91.37834 -16.4552,29.71047 52.6133,20.387702 20.1797,47.315648 -18.8241,1.613033 -32.2285,-8.740711 -19.8008,17.962392 28.0084,36.42716 66.3122,-2.090463 87.9514,-19.189409 23.341,40.925049 -53.2706,48.779579 -80.7813,61.191829 -15.7945,5.01802 -45.0309,13.63839 -12.6913,17.20294 13.0289,18.39429 -36.3421,60.91799 -62.3776,43.98608 -20.9718,13.3467 -37.9078,13.88949 -58.5779,-0.0253 -39.2058,16.85343 23.8262,26.62146 40.6053,25.02216 45.8673,4.4875 40.6831,70.23669 18.2546,96.77958 -20.3914,16.18152 -52.112,23.90472 -29.6144,54.30736 7.8552,20.16856 -48.8972,-6.23609 -21.0006,22.23064 30.636,13.82728 60.2385,9.10799 91.7177,26.26133 29.6099,-0.0603 25.933,-55.7507 58.0089,-56.85099 20.3676,23.79643 -1.2727,44.61306 -24.8811,51.40765 20.6869,22.68594 38.4724,-22.3255 55.9509,9.87877 22.2289,28.95068 72.7993,24.45742 55.2677,68.33205 l -4.3795,3.17849 z M -1857,291.63 c -18.2968,-38.83545 -75.9383,-53.07483 -93.7434,-84.34954 -53.7785,16.87282 0.2785,83.10996 39.3598,63.05137 25.3155,-17.51501 32.2949,24.96303 54.3836,21.29817 z" />
      <path
         id="path3707"
         style="fill:#2d463b"
         d="m -1480.8,545.11 c 27.8485,-10.50586 2.851,-28.54304 -13.7948,-14.63686 -41.7336,-5.00178 -80.3556,-23.59283 -117.2287,-42.74259 34.041,11.90915 60.7891,-31.58024 17.6464,-42.62576 -21.1738,-8.31488 -48.2902,-57.27451 -17.3849,-60.14768 12.8032,24.07381 67.6014,44.91449 49.2526,-2.16038 -4.7542,-7.89317 14.0017,12.96273 25.1765,8.66561 -18.3684,47.32844 57.1996,10.44655 77.8095,35.22553 26.8026,20.18683 49.593,-34.30097 72.2769,-31.15692 20.1423,-39.01501 89.7034,-60.04476 77.7847,-110.36037 -30.7968,-22.96734 -42.9519,15.55741 -47.9231,37.78043 -18.8695,14.63388 -40.042,52.49904 -54.754,52.96998 -36.2688,-13.08412 -82.0697,45.61162 -105.9067,-4.40049 -33.7335,-4.15375 -56.374,-45.5527 -12.3057,-57.09581 23.1836,-10.8858 14.4035,-48.25075 -6.6275,-20.01849 -18.8815,33.93424 -23.8797,-45.86376 -36.2523,-19.50567 16.5239,39.91821 -21.5044,10.55783 -22.136,10.66609 -9.8248,16.07732 13.7135,37.40376 -12.9927,30.10898 -32.7905,8.01021 -43.4316,-48.90714 -75.8683,-41.47261 -26.7203,-14.95116 -64.0193,-46.82295 -19.6103,-65.44524 8.9274,-15.78647 21.4205,-49.66919 44.5634,-30.54748 28.9947,-34.20654 93.3172,-4.76833 112.3316,-51.70883 0.3652,-20.60685 -13.1569,-47.425775 -7.0873,-62.392486 -11.464,-6.287356 -31.9487,-26.338729 -5.3571,-19.786517 5.9175,-19.012073 22.2271,-37.2211436 27.3276,-6.164096 -0.2367,20.255681 25.0851,22.707717 13.7062,48.375572 -16.2471,48.938307 73.0835,22.500287 55.9434,71.564527 38.7868,-1.21571 12.6207,-93.791778 51.0645,-66.645729 5.0707,24.895509 11.3379,21.958199 20.6382,5.472959 26.2418,21.90268 -9.2585,71.27585 -34.3415,85.79062 -13.9002,6.78087 -46.9636,42.92736 -25.2711,46.03074 36.8753,-34.95558 76.2981,-71.62304 92.3945,-121.35758 25.9822,-22.954353 40.2792,-70.812473 -2.381,-83.154923 -21.7756,-29.47126 -52.4749,-2.388109 -60.5481,20.470486 -24.0853,-6.148595 -63.8055,-43.95726184 -84.0771,-4.232007 -22.2554,16.065589 -6.3365,-29.092682 10.0029,-33.0824546 13.1983,-20.4024274 21.3601,-38.1492164 47.2137,-19.0370834 32.6011,37.37385 87.377,-16.581256 54.9509,-47.506325 -24.1721,-11.744184 -35.3365,-23.875161 -42.2384,-42.220063 -41.7826,-31.45278 18.3062,2.597788 31.9218,16.095019 140.0346,110.804385 183.8224,328.527811 88.6962,481.629161 -37.9439,65.61544 -95.7856,120.74568 -165.9555,150.46967 l -0.6594,-1.70844 z m 67.8,-53.56 c 43.5711,7.20553 44.9076,-94.60068 3.2938,-52.36556 -12.4726,11.6988 -34.7719,49.77215 -3.2938,52.36556 z m -271.2,11.54 c -38.5868,-32.33325 -93.4474,-24.34713 -134.6598,-51.16043 -46.2808,-22.01367 -94.9906,-39.47071 -139.355,-65.17034 -21.1151,-12.46566 -18.6209,-59.60397 7.7462,-25.60773 31.7197,20.62335 61.3307,52.04555 99.6559,54.64107 38.1818,10.24025 77.1375,26.43467 116.9748,13.86683 26.1105,-8.29106 28.5446,22.51601 23.4525,36.54186 25.5801,-27.64714 46.4072,7.82765 56.2119,28.02571 -7.1497,8.63077 -19.9162,7.79706 -30.0265,8.86303 z m -234.9,-132.06 c -23.0235,-14.06961 -79.5065,-59.41194 -42.9858,-74.80256 14.8312,25.06611 51.4967,8.62351 20.0327,-12.27108 -32.1613,-15.45961 -84.6529,-43.21696 -51.7002,-77.456 -20.3264,-28.9608 -5.8564,-73.39152 35.1935,-60.64067 37.491,-4.87692 7.1263,-101.388613 51.4571,-68.261113 13.2763,12.985436 71.3769,7.155348 28.5492,17.93574 -15.604,-3.217875 -54.3453,-19.315509 -32.7797,11.249363 -5.8319,39.3448 76.0175,-8.291319 32.3944,24.60497 -25.7478,5.33176 -55.4797,49.80363 -7.7092,40.68389 31.6931,0.76375 93.8094,-39.72069 105.7168,2.11568 -15.3458,40.80398 -59.6234,26.91415 -86.608,40.31466 -15.7311,-10.82401 -70.3614,-12.54075 -34.1892,10.8132 29.9919,2.02896 97.8319,3.81751 66.1016,51.42503 -8.7021,19.1301 23.0016,28.80189 -3.059,44.99691 -21.1143,25.32274 -74.3672,19.96116 -74.7357,51.15697 z m 61.7,-76.51 c -9.0836,-45.46026 -74.3708,-50.42704 -89.3267,-88.36772 -54.138,7.31169 -18.7653,87.74971 25.9466,62.87718 25.2792,-4.71121 45.3508,18.48153 63.3801,25.49054 z m 46.3,-145.03 c -36.7777,-30.71718 -1.0457,-99.337626 41.1051,-97.778606 26.5144,6.809211 24.396,45.025796 -4.9753,25.670474 -14.3687,26.469882 20.3165,42.498012 39.3565,44.698302 -1.86,27.10992 -53.2664,26.25577 -75.4863,27.40983 z" />
      <path
         id="path3705"
         style="fill:#134851"
         d="m -1480.8,545.11 c 22.1152,2.3409 11.5112,-36.14261 -3.1773,-13.78939 -45.4452,-0.70914 -84.0696,-27.7876 -125.3419,-43.02057 37.0219,17.49261 54.027,-37.80993 13.8171,-45.41376 -22.5371,-5.81674 -43.1243,-72.81646 -8.378,-49.02501 17.1836,23.6838 51.6262,22.86278 57.8863,-4.14564 17.2144,0.12219 -11.3037,37.95506 18.5689,27.17911 39.2012,-12.70222 93.8882,42.51854 118.6296,-11.38604 12.733,-10.1477 25.6147,1.78584 31.7391,-21.80531 19.6065,-29.35169 94.9147,-65.23529 62.0175,-103.59088 -46.4943,-16.48214 -28.3639,54.39163 -65.0344,68.51176 -28.6391,30.41409 -73.3817,31.4036 -111.7032,42.55119 -17.7757,-18.31156 -82.0953,-33.30089 -53.3804,-68.06106 25.6786,1.48523 41.6619,-55.43185 8.2695,-32.4458 -21.78,35.45462 -23.5226,-60.00849 -56.1998,-33.71582 3.7436,29.95453 -15.5613,78.21167 -48.3866,44.00553 -11.7658,-16.73958 -44.4409,-30.27752 -22.2115,-47.67642 -5.2747,-24.26457 -39.9963,-50.42334 -12.9513,-70.29952 22.4289,-21.89501 71.0041,-11.09047 100.6269,-30.80074 57.3796,-17.6468 15.1796,-73.54608 20.76,-113.455516 2.495,-28.249575 29.2613,-12.475392 24.0382,9.262544 20.2605,17.128011 14.9544,38.473864 12.5575,58.098762 21.3872,16.07368 62.6905,24.41813 63.9026,46.45686 29.5571,-4.62953 12.3968,-80.375054 41.7751,-56.39162 5.2111,34.40098 13.806,1.927301 28.0709,-0.314861 13.2815,40.548121 -21.9383,74.481511 -51.7667,96.126821 -23.2391,8.06157 -28.2711,63.01553 -2.5642,26.36712 35.1803,-29.38519 64.9281,-64.33359 81.3905,-107.40924 15.3441,-25.738055 48.7912,-66.720459 2.078,-80.584843 -16.7116,-25.5948406 -46.5893,-29.2033982 -55.8955,4.093775 -19.3198,22.718039 -49.7351,-21.294228 -73.4927,-12.470592 -10.0887,8.321937 -31.4238,40.830978 -29.7109,7.77165 23.2822,-21.4051546 34.9495,-70.721871 70.5422,-38.5273129 36.1076,31.9500949 83.3855,-21.2559851 50.5416,-52.8839141 -11.0969,-17.004329 -51.1552,-15.156181 -31.9675,-30.06964 -9.0776,-13.443303 -40.8894,-33.082743 -7.4984,-14.308623 159.6687,99.8339509 219.5985,331.10291 122.6349,493.87777 -37.6762,68.71001 -95.6852,129.39108 -170.1861,157.28923 z m 67.8,-53.56 c 43.5711,7.20553 44.9076,-94.60068 3.2938,-52.36556 -12.4726,11.6988 -34.7719,49.77215 -3.2938,52.36556 z m -318,-29.23 c -64.1388,2.62682 -120.2277,-34.24829 -179.9722,-51.61985 -27.0671,-7.90573 -75.223,-37.40945 -58.8821,-62.88127 32.7201,17.47961 58.5786,46.1082 91.9125,62.04917 40.4076,3.49719 74.7561,31.9815 115.9534,23.35213 22.4511,-11.07526 78.002,15.72597 30.9884,29.09982 z m -188.1,-91.29 c -23.214,-16.51694 -77.3169,-56.13714 -47.588,-77.52591 13.9746,23.08299 58.399,14.93432 25.3387,-11.08752 -31.5184,-15.88834 -89.21,-37.29678 -50.0084,-75.95797 -16.1954,-26.00035 -19.7754,-66.76634 23.4489,-60.14842 48.5964,-1.136 16.4258,-59.730955 46.724,-78.645366 1.7662,22.150121 9.9216,66.441396 48.0152,56.123236 11.2538,-8.4807 -26.3922,24.65814 -36.0207,32.54702 -19.6168,28.5685 45.9522,17.71453 60.6715,7.61282 24.9011,-23.21053 93.4636,2.39584 49.7011,31.57962 -37.0984,11.23535 -68.2654,25.87687 -106.2176,8.85618 -31.8108,18.82932 29.4959,23.35362 45.9834,26.29255 37.9589,0.19404 25.3684,34.18442 21.0769,53.26915 27.0113,48.86695 -40.0855,54.193 -67.9287,71.88425 -3.7425,10.65734 5.3444,19.82194 -13.1963,15.20036 z m 61.9,-76.85 c -7.6748,-45.92295 -74.7001,-48.52926 -88.211,-87.15853 -56.4428,5.08672 -15.8604,89.16834 28.1924,60.45831 23.7955,-1.66929 39.4996,20.99904 60.0186,26.70022 z m 46.7,-144.85 c -44.6894,-31.04281 7.9536,-113.282997 52.5189,-83.466783 16.7356,23.467705 -39.7435,-1.298728 -19.5529,32.075885 8.6359,15.400208 52.0347,25.431208 17.355,23.571108 -6.9454,33.61777 -21.9066,24.87484 -50.321,27.81979 z" />
      <path
         id="path3703"
         style="fill:#0e3a44"
         d="m -1465.3,539.99 c 35.8467,-9.50076 -5.609,-36.41426 -21.4248,-12.33382 -41.6085,5.59626 -87.0707,-27.25916 -119.2972,-38.59923 24.6642,2.79021 56.9929,-9.87727 25.3962,-34.0597 -13.6945,-18.0016 -61.8701,-50.77289 -28.841,-70.92505 3.8366,40.62878 48.9232,39.15778 68.4168,10.04443 -18.7073,50.22098 65.1282,1.068 78.7981,37.8072 19.0165,24.77991 45.0402,-34.88216 72.1517,-29.74551 12.7278,-28.32331 25.706,-17.95235 26.3176,0.35886 24.0492,-7.57849 15.752,-30.46099 9.1995,-37.0354 17.6674,-25.15704 82.2364,-64.41222 34.4668,-91.65586 -43.5913,2.16725 -36.6214,58.96929 -68.2237,79.35798 -27.3925,24.42139 -66.4481,26.01908 -100.1914,37.72013 -21.637,-13.43015 -63.3217,-30.44366 -63.1939,-59.13688 23.4018,-12.10238 52.0632,-40.85803 29.0622,-65.1812 -22.1934,19.52105 -37.8077,20.83231 -51.1985,-6.83104 -39.3224,-32.34478 -1.7536,65.10691 -51.1382,50.6774 -19.802,-9.18104 -35.3499,-28.27366 -47.7548,-44.67422 25.921,-12.02093 1.6052,-48.16497 -14.0127,-52.37017 3.9076,-44.16442 58.9374,-40.05889 90.0059,-52.5676 32.1875,-3.88053 60.5676,-25.92506 58.844,-58.80673 16.0769,-8.157552 51.1102,28.39362 17.6174,24.21641 26.1029,24.47507 80.9622,46.93337 85.8175,-7.51041 1.6193,-17.86263 22.0579,-51.593014 25.5977,-13.92511 -1.792,42.68154 22.1122,-31.890998 25.6658,9.67322 0.1104,49.90203 -56.5887,70.87538 -79.6785,109.7426 -12.2824,11.69257 -19.5482,34.84911 2.0906,12.99673 52.2685,-39.29791 96.0384,-92.69731 118.8541,-153.404086 15.7142,14.791205 37.7606,-73.9770988 -4.0874,-47.608616 -21.1062,-15.769789 -67.4254,-63.409933 -16.3892,-71.451093 -5.1737,-25.253802 -53.6692,-46.642766 -52.7767,-58.084228 158.2875,111.795672 200.3876,356.337523 85.5241,513.277623 -34.3675,50.35268 -80.9433,92.74191 -135.618,120.03337 z m 31.9,-40.64 c 35.9572,2.99834 79.1637,-51.97894 74.9178,-68.65268 -15.3055,6.62742 -29.6846,-21.4353 -45.0373,2.07517 -13.946,15.59901 -40.9921,45.80954 -29.8805,66.57751 z M -1731,462.32 c -37.8194,-1.88104 -111.3344,-8.32377 -117.2828,-43.70796 34.6714,4.61966 66.3305,27.55194 102.5845,13.34309 26.5987,-2.47722 50.2849,12.43658 14.6983,30.36487 z m -193.1,-104.34 c -18.391,-0.6749 -21.2425,-42.33454 -21.4004,-46.72753 41.2104,-2.21588 -3.5074,-45.77392 -15.4056,-44.27543 35.1526,4.08591 69.2672,3.16394 99.1257,24.26788 21.0106,-36.83434 -64.0912,-32.89843 -45.2257,-62.92739 27.3169,-1.70883 101.082,3.97917 68.2114,44.71408 -14.1151,10.24468 28.5109,45.50708 -9.716,53.86878 -28.6608,7.18976 -45.8549,26.87233 -72.6849,19.01003 -2.7819,3.32118 -2.8755,7.99656 -2.9045,12.06958 z m 54.6,-30.44 c 30.9367,-26.568 -60.3003,-59.72412 -22.762,-23.53416 -0.5902,13.48475 3.5012,39.15317 22.762,23.53416 z M -1934.3,220 c 18.8156,-48.88412 -73.1143,26.8394 -55.3448,-35.33891 -9.1963,-28.96768 29.7571,-47.95685 28.021,-10.3292 20.2539,27.09974 59.2287,-4.20658 89.3331,-0.83218 23.889,-3.29371 98.4713,-37.8043 84.436,10.54921 -20.7988,33.7372 -55.1658,15.14037 -85.4655,27.55271 -23.5053,-3.08319 -43.2947,-18.37486 -60.9798,8.39837 z m 3.2,-53.38 c 7.2607,-23.24217 -19.2996,-62.63237 6.7888,-75.658899 -12.3686,41.113009 52.9312,38.577749 54.7039,30.974149 -18.1405,18.21726 -49.6157,19.73407 -61.4927,44.68475 z m 120.4,-17.72 c -17.719,-30.91056 -17.9064,-76.073237 20.8968,-89.830118 19.3245,-14.762383 57.0594,30.003593 20.705,12.027794 -33.2688,10.89669 30.179,85.294734 -24.8573,76.829064 -5.5657,-0.32151 -11.349,-0.89969 -16.7445,0.97326 z m 265,-53.54 c -25.8855,-4.055125 14.5372,-38.368886 -12.0124,-44.085294 16.2996,-44.5029106 62.1736,64.467054 12.0124,44.085294 z m 120.2,-46.319 c -4.088,-34.855159 -82.4081,-26.036048 -41.8922,-62.284272 24.2471,-5.286779 87.6548,27.652131 49.9118,54.751619 -2.5128,2.688047 -5.1912,5.180007 -8.0196,7.532653 z" />
      <path
         id="path3701"
         style="fill:#102b31"
         d="m -1503.4,530.25 c -29.1153,-12.71929 -89.386,-29.11937 -100.4588,-40.52502 36.2704,9.19008 50.5914,-33.72738 13.6794,-46.03861 -18.027,-8.59482 -31.1577,-40.68418 1.7816,-28.22634 31.8037,4.27795 92.0315,-2.98582 105.3879,12.02233 -29.4055,19.44757 5.6206,30.63993 16.8072,8.9528 11.9501,38.57183 41.3707,-49.21969 75.2776,-22.97935 0.1822,6.57802 -36.1132,22.43439 -35.614,45.48877 -8.7444,41.12825 -38.0254,61.14055 -76.8609,71.30542 z m 122.6,-52.35 c 33.4859,-38.049 62.2911,-82.24038 76.5962,-130.83624 -1.9154,-21.61281 -30.6386,4.65921 -10.6287,-20.37986 6.2082,-23.17106 57.1292,-66.07284 24.1278,-79.46399 -35.6817,-3.00908 5.8863,38.68648 -32.3063,25.62143 -39.3057,-19.38738 -26.071,69.99218 -64.4578,35.79877 -0.2119,-28.69389 -53.196,-15.46923 -19.0592,-1.21168 36.2165,21.25974 8.057,81.03194 -29.5387,63.58933 -25.5091,21.98197 -62.9643,26.94818 -81.2413,-1.34481 -40.3831,0.12926 -41.2559,-55.19789 -1.7578,-59.41039 16.0847,-12.54732 -1.6872,-49.50778 24.5456,-25.16404 26.6824,7.1224 41.5771,-34.20648 7.319,-13.27083 -30.4094,-22.9485 -73.1204,33.95411 -86.991,-17.66206 0.1977,-11.48705 -7.0901,2.06845 -16.3061,-8.26097 -9.9466,14.77266 -5.1995,87.85313 -40.2042,57.54285 -33.749,-23.25763 38.9015,-36.69699 -0.7115,-50.13446 -29.1749,-6.98323 -2.4102,-53.59118 4.6956,-74.61719 11.5949,-29.85536 36.847,-8.7014 51.7449,-5.18667 0.7128,-34.7422 57.7552,-69.94594 60.0451,-16.7649 7.7018,5.63976 50.0509,-13.03153 31.1061,2.77089 41.496,27.84356 48.3837,-85.489307 73.4318,-45.75352 -1.0687,41.5043 24.0925,-32.20425 25.2488,7.17733 0.038,35.93777 -34.6741,53.44394 -55.9459,77.38193 -15.0032,12.46783 -63.626,65.81428 -22.729,49.93207 31.489,-23.59691 61.6481,-66.99583 90.0368,-100.83159 13.3612,-40.23611 60.5175,-67.186506 54.5229,-113.393696 -4.0062,-35.1803182 -22.2812,24.426709 -30.938,-10.923984 -30.2054,-0.20638 -25.6779,-60.565877 4.5688,-34.537532 2.2057,-19.434518 -45.628,-55.34346 -33.3077,-51.597887 121.6333,113.333273 151.8506,312.201859 65.8811,455.273409 -17.3,32.2076 -39.4009,62.30212 -67.7473,85.65829 z m -30.3,-222.22 c -11.2843,-30.286 46.7925,-44.41771 23.191,-69.16424 -27.5917,1.13052 -42.7503,56.29952 -23.191,69.16424 z m 129.4,-64.04 c 16.5095,-20.78872 2.9215,-89.33022 -24.9304,-70.51595 1.5614,24.31725 5.6803,53.59655 24.9304,70.51595 z m -446.1,272.23 c -32.8725,0.0482 -105.4177,-20.18863 -102.719,-37.55548 35.3474,23.87957 86.0768,-1.95151 117.5409,16.07341 -1.3747,8.93205 -8.603,15.56068 -14.8219,21.48207 z m -173.8,-117.78 c 9.6511,-18.9885 -13.9014,-32.23491 -23.3274,-11.88298 -32.2064,-36.04481 45.8041,-63.76127 32.0127,-9.65996 -1.4347,7.66816 -4.6203,14.92005 -8.6853,21.54294 z m 51.1,-54.11 c 10.938,-35.05553 -82.384,-36.06701 -45.0952,-62.63627 31.92,-4.43332 78.5365,20.89757 47.5946,51.00361 2.0493,3.38797 4.8851,12.47269 -2.4994,11.63266 z m -19,-77.09 c -12.6852,-20.67977 -79.9294,-0.65312 -58.945,-27.42205 40.8704,-6.18046 80.7887,-15.76185 120.2975,-27.36554 38.6352,11.70743 -4.4603,66.21219 -34.3717,41.28704 -11.0789,-2.93548 -23.6155,1.6752 -26.9808,13.50055 z m 58.8,-67.43 c 14.6879,-8.50092 -15.5291,-33.94123 -0.7063,-33.25284 -43.1555,-24.710424 52.9536,-76.497674 29.789,-19.851212 5.408,30.778402 33.2082,62.694602 -29.0827,53.104052 z m 384.6,-99.404 c 2.634,-26.006777 -78.7667,-43.2017234 -29.9561,-61.882345 23.9586,10.177451 73.0823,35.540275 29.9561,61.882345 z" />
      <path
         id="path3699"
         style="fill:#0e1d22"
         d="m -1521.3,523.81 c -10.5431,-17.86641 -69.8761,-16.50226 -58.9148,-31.98725 26.4319,-10.02815 83.1618,-11.24719 58.9148,31.98725 z m 28,-12.07 c 30.7149,-3.09864 20.9624,-67.33542 43.9072,-57.42819 2.4222,26.82526 2.2375,65.3736 -36.4773,56.59679 -2.4766,0.27713 -4.9533,0.55427 -7.4299,0.8314 z m -72.3,-35.24 c -36.7756,-36.23437 55.6361,-50.26716 41.8551,-29.11327 -16.9002,4.64698 -29.4402,17.54157 -41.8551,29.11327 z m 69.6,-88.63 c 11.8347,-34.2601 -82.0888,-31.38447 -33.8301,-66.17481 19.4034,-17.01053 67.741,28.02678 25.8724,11.73762 -6.565,35.19884 44.357,17.62781 51.9306,31.67408 -11.7843,9.43915 -31.6806,19.58016 -43.9729,22.76311 z m 200.8,-35.82 c 8.8726,-44.95916 31.7307,-91.57313 15.0258,-137.54342 -18.2583,-18.22774 28.5652,-41.37139 5.5548,-63.39034 1.1578,-35.18304 -34.4191,-80.37909 -45.5266,-25.65707 5.9222,17.5465 26.0934,32.07457 8.3266,44.24434 23.3979,18.40832 -5.8912,25.50741 2.5893,45.62547 -14.3227,8.16433 -33.4068,-37.62844 -42.081,-2.88925 -31.8692,31.60326 29.9918,23.09169 49.8341,20.77294 -4.3907,34.45181 -58.7953,31.01706 -59.0892,20.24301 2.741,22.14123 -60.045,21.73688 -17.4636,33.79301 25.6934,33.08612 -52.8845,5.64217 -32.8964,-23 6.343,-33.27375 56.6085,-68.90886 19.894,-94.47271 2.0916,-10.56309 26.234,-34.21616 25.7765,-10.27782 8.2355,-35.30314 31.539,-65.15678 48.3074,-96.31179 -1.0724,15.311539 -1.3843,43.94717 14.4175,16.148614 8.7045,-12.722239 -25.5985,-73.6107443 -0.5374,-37.833759 47.2951,95.815515 52.4504,212.747315 8.837,310.847685 z m -172.3,-17.17 c -23.253,-5.20324 -45.131,-66.55364 -5.3549,-36.67286 13.033,9.87618 60.1316,33.23216 5.3549,36.67286 z m 21.2,-29.11 c -8.7714,-8.46077 14.4669,-35.28251 -4.3364,-16.42861 -45.091,-9.52077 30.7344,-68.3898 26.6986,-63.21518 7.9701,26.52627 10.0805,68.85887 -22.3622,79.64379 z M -1558.6,279 c 14.6021,-31.77919 -50.3425,-61.61779 -49.2527,-17.92723 -9.0082,-15.52936 4.0223,-59.68845 24.8863,-37.96432 -19.3548,-29.03153 30.4191,-44.10903 30.0558,-40.2316 -34.5472,-31.81638 28.4557,-27.38788 46.0152,-16.29586 45.4212,17.8465 65.7676,-25.86355 86.5071,-55.73306 20.8819,-16.606536 -9.1305,48.59994 18.4571,18.13585 36.0932,-27.19979 -7.5301,44.10636 -33.3248,35.59816 -41.1866,16.56465 -17.8227,71.65835 -59.3564,85.69849 -20.0938,12.14687 -42.5584,19.40128 -63.9876,28.71957 z m 17.4,-41.37 c 13.3899,3.34017 68.2878,-5.99499 51.2226,-14.39545 -11.0558,0.78109 -99.6115,1.71428 -51.2226,14.39545 z" />
    </g>
  </g>

  <circle cx="383" cy="384" r="379" style="fill:#a85f9c;opacity:0.5" />
	
  <metadata
     id="metadata206">
    <rdf:RDF>
      <cc:Work>
        <dc:format>image/svg+xml</dc:format>
        <dc:type
           rdf:resource="http://purl.org/dc/dcmitype/StillImage" />
        <cc:license
           rdf:resource="http://creativecommons.org/licenses/publicdomain/" />
        <dc:publisher>
          <cc:Agent
             rdf:about="http://openclipart.org/">
            <dc:title>Openclipart</dc:title>
          </cc:Agent>
        </dc:publisher>
        <dc:date>2009-03-17T19:14:10</dc:date>
        <dc:description />
        <dc:source>https://openclipart.org/detail/22544/earth-by-orru</dc:source>
        <dc:creator>
          <cc:Agent>
            <dc:title>orru</dc:title>
          </cc:Agent>
        </dc:creator>
        <dc:subject>
          <rdf:Bag>
            <rdf:li>ball</rdf:li>
            <rdf:li>blue</rdf:li>
            <rdf:li>cartography</rdf:li>
            <rdf:li>color</rdf:li>
            <rdf:li>earth</rdf:li>
            <rdf:li>geography</rdf:li>
            <rdf:li>gif</rdf:li>
            <rdf:li>jpg</rdf:li>
            <rdf:li>map</rdf:li>
            <rdf:li>planet</rdf:li>
            <rdf:li>sphere</rdf:li>
            <rdf:li>world</rdf:li>
          </rdf:Bag>
        </dc:subject>
      </cc:Work>
      <cc:License
         rdf:about="http://creativecommons.org/licenses/publicdomain/">
        <cc:permits
           rdf:resource="http://creativecommons.org/ns#Reproduction" />
        <cc:permits
           rdf:resource="http://creativecommons.org/ns#Distribution" />
        <cc:permits
           rdf:resource="http://creativecommons.org/ns#DerivativeWorks" />
      </cc:License>
    </rdf:RDF>
  </metadata>
</svg>
