<?xml version="1.0" encoding="utf-8"?>
<!DOCTYPE svg PUBLIC "-//W3C//DTD SVG 1.1//EN" "http://www.w3.org/Graphics/SVG/1.1/DTD/svg11.dtd">
<svg version="1.1" xmlns="http://www.w3.org/2000/svg" xmlns:xlink="http://www.w3.org/1999/xlink" xmlns:xml="http://www.w3.org/XML/1998/namespace" xmlns:serif="http://www.serif.com/" width="273" height="273" viewBox="0, 0, 273, 273" xml:space="preserve" fill-rule="evenodd" stroke-linecap="round" stroke-linejoin="round" style="clip-rule:evenodd;">
    
    <clipPath id="clip">
        <path d="M22.149 210.711 C17.36 203.228 13.169 195.147 9.877 187.066 C6.585 178.685 3.891 170.005 2.394 161.325 C0.599 152.646 -0 143.666 -0 134.687 C-0 126.007 1.197 117.028 2.993 108.348 C4.789 99.669 7.483 90.989 10.775 82.907 C14.367 74.527 18.557 66.745 23.645 59.262 C28.733 52.079 34.42 45.195 40.705 38.91 C47.29 32.624 54.174 27.237 61.657 22.149 C69.139 17.36 76.921 13.169 85.302 9.877 C93.383 6.585 102.063 3.891 110.743 2.394 C119.423 0.599 128.402 -0 137.381 0 C146.36 0 155.339 1.197 164.019 2.993 C172.699 4.789 181.08 7.483 189.46 10.775 C197.541 14.367 205.323 18.557 212.806 23.645 C220.288 28.733 226.873 34.42 233.159 40.705 C239.444 47.29 245.131 54.174 249.92 61.657 C254.709 69.139 258.899 76.921 262.191 85.302 C265.783 93.383 268.177 102.063 269.973 110.743 C271.47 119.423 272.368 128.402 272.068 137.381 C272.068 146.36 271.17 155.339 269.374 164.019 C267.579 172.699 264.885 181.08 261.293 189.46 C257.702 197.541 253.511 205.323 248.423 212.806 C243.634 219.989 237.648 226.873 231.363 233.159 C225.077 239.444 218.193 245.131 210.711 249.92 C203.228 254.709 195.147 258.899 187.066 262.191 C178.685 265.783 170.005 268.177 161.325 269.674 C152.646 271.47 143.666 272.368 134.687 272.068 C126.007 272.068 117.028 271.17 108.348 269.374 C99.669 267.579 90.989 264.885 82.907 261.293 C74.527 257.702 66.745 253.511 59.262 248.423 C52.079 243.634 45.195 237.648 38.91 231.363 C32.624 225.077 27.237 218.193 22.149 210.711 z" clip-rule="nonzero" />
    </clipPath>
		
    <g clip-path="url(#clip)">
        <rect x="0" y="0"   width="273" height="176.678" style="fill:#D12026;" />
        <rect x="0" y="136" width="273" height="198.178" style="fill:#171717;" />
    </g>
	
	<circle cx="136.5" cy="136.5" r="134.8" stroke-width="3.4px" style="fill:url(#Radial);stroke:black;" />
	<circle cx="136.5" cy="136.5" r="91.8" stroke-width="7.8px" stroke-linecap="round" stroke-linejoin="round" stroke-miterlimit="1.5" stroke-opacity="0.5" style="fill:none;stroke:white;" />
	    
    <path d="M196.43 129.178 L199.185 129.178 L199.353 128.968 L199.437 128.863 L199.521 128.757 L199.606 128.652 L199.942 128.231 L200.027 128.126 L200.111 128.021 L200.447 127.6 L200.532 127.495 L200.616 127.39 L200.422 126.539 L200.229 125.689 L199.841 123.989 L199.648 123.138 L199.454 122.288 L199.26 121.438 L199.067 120.588 L198.873 119.737 L198.68 118.887 L198.486 118.037 L198.099 116.336 L197.905 115.486 L197.711 114.636 L197.518 113.786 L197.324 112.935 L196.775 112.822 L196.592 112.784 L195.676 112.594 L195.493 112.557 L194.761 112.405 L194.578 112.367 L194.395 112.329 L194.212 112.291 L193.987 112.384 L193.763 112.476 L193.538 112.569 L193.314 112.661 L193.09 112.753 L192.865 112.846 L192.641 112.938 L192.416 113.03 L192.192 113.123 L191.968 113.215 L191.519 113.4 L191.294 113.492 L191.07 113.584 L190.846 113.677 L190.621 113.769 L190.397 113.861 L191.816 117.465 L192.171 118.366 L192.526 119.267 L192.881 120.168 L193.591 121.97 L193.946 122.871 L195.011 125.574 L195.366 126.475 L195.72 127.376 L196.075 128.277 L196.43 129.178 z M113.869 130.947 L114.125 129.859 L114.382 128.772 L114.639 127.685 L114.895 126.598 L115.152 125.51 L115.665 123.336 L115.922 122.248 L116.179 121.161 L116.435 120.074 L116.949 117.899 L117.205 116.812 L117.462 115.725 L117.719 114.637 L117.975 113.55 L118.232 112.463 L117.959 111.512 L117.686 110.561 L117.413 109.61 L116.868 107.708 L116.595 106.757 L116.322 105.806 L116.049 104.855 L115.777 103.904 L115.504 102.953 L115.231 102.002 L114.958 101.051 L114.685 100.1 L114.413 99.149 L114.14 98.198 L113.867 97.247 L113.594 96.296 L112.856 96.84 L111.38 97.926 L110.642 98.469 L109.167 99.555 L108.429 100.098 L107.691 100.641 L106.215 101.727 L105.477 102.27 L103.264 103.899 L102.526 104.442 L101.05 105.528 L101.021 113.159 L101.006 117.321 L100.213 118.353 L98.628 120.416 L97.836 121.447 L97.043 122.479 L96.251 123.51 L95.458 124.542 L94.666 125.573 L93.081 127.636 L92.289 128.668 L91.496 129.699 L90.704 130.731 L89.119 132.794 L88.326 133.825 L87.534 134.857 L87.513 136.019 L87.502 136.6 L87.47 138.344 L87.459 138.925 L87.428 140.668 L87.417 141.249 L87.396 142.412 L87.385 142.993 L87.353 144.736 L86.255 145.607 L86.072 145.753 L85.156 146.479 L84.973 146.624 L84.241 147.205 L84.241 149.53 L84.316 149.615 L84.392 149.699 L84.544 149.867 L84.619 149.951 L84.695 150.036 L84.771 150.12 L84.847 150.204 L84.998 150.372 L85.074 150.456 L85.15 150.541 L85.226 150.625 L85.301 150.709 L85.377 150.793 L85.453 150.877 L85.529 150.962 L94.867 150.962 L94.867 155.648 L87.425 155.648 L87.299 155.775 L87.172 155.901 L87.046 156.027 L86.92 156.153 L86.793 156.28 L86.667 156.406 L86.541 156.532 L86.415 156.659 L86.288 156.785 L86.162 156.911 L86.036 157.037 L85.909 157.164 L85.783 157.29 L85.657 157.416 L85.404 157.669 L85.278 157.795 L85.278 190.41 C85.391 191.526 84.126 192.791 83.01 192.678 L82.579 192.678 C81.395 192.752 80.054 191.71 79.833 190.544 L79.337 188.599 L78.817 186.56 L78.297 184.521 L77.258 180.442 L76.738 178.403 L76.218 176.364 L74.659 170.246 L74.139 168.206 L72.579 162.088 L72.059 160.049 L71.54 158.01 L60.985 158.01 L60.985 154.038 L61.648 153.83 L62.311 153.622 L62.974 153.413 L63.637 153.205 L64.3 152.997 L64.963 152.788 L65.626 152.58 L66.289 152.372 L66.952 152.163 L67.615 151.955 L68.277 151.747 L68.94 151.538 L69.603 151.33 L70.266 151.121 L70.929 150.913 L71.592 150.705 L72.255 150.496 L72.255 148.958 L72.074 148.901 L71.893 148.844 L71.712 148.787 L70.988 148.56 L70.807 148.503 L70.264 148.333 L70.083 148.276 L69.54 148.106 L69.359 148.049 L69.178 147.992 L69.012 147.691 L68.846 147.39 L68.679 147.089 L68.513 146.788 L68.347 146.487 L68.014 145.885 L67.848 145.584 L67.682 145.283 L67.516 144.982 L67.349 144.682 L67.183 144.381 L67.017 144.08 L66.851 143.779 L66.684 143.478 L66.518 143.177 L66.352 142.876 L66.32 142.547 L66.257 141.891 L66.226 141.563 L66.162 140.906 L66.131 140.578 L66.099 140.249 L66.068 139.921 L66.036 139.593 L65.941 138.608 L65.91 138.279 L65.878 137.951 L65.847 137.623 L65.815 137.294 L66.032 137.13 L66.249 136.966 L66.465 136.802 L66.682 136.638 L66.899 136.474 L67.333 136.145 L67.549 135.981 L67.766 135.817 L67.983 135.653 L68.2 135.489 L68.416 135.325 L68.633 135.16 L68.85 134.996 L69.067 134.832 L69.283 134.668 L69.5 134.504 L69.401 134.091 L68.709 131.204 L68.61 130.791 L68.412 129.966 L68.313 129.554 L68.017 128.316 L67.918 127.904 L67.819 127.491 L67.52 127.357 L67.221 127.222 L66.922 127.087 L66.623 126.953 L66.324 126.818 L66.026 126.683 L65.727 126.549 L65.428 126.414 L65.129 126.279 L64.83 126.145 L64.233 125.875 L63.934 125.74 L63.635 125.606 L63.336 125.471 L63.037 125.336 L62.738 125.202 L62.738 121.195 L62.911 121.11 L63.083 121.026 L63.256 120.942 L63.774 120.689 L63.946 120.605 L64.119 120.521 L64.291 120.437 L64.464 120.353 L64.809 120.184 L64.982 120.1 L65.154 120.016 L65.327 119.932 L65.672 119.763 L74.473 119.763 L74.621 119.877 L74.768 119.991 L74.915 120.104 L75.063 120.218 L75.21 120.332 L75.357 120.445 L75.505 120.559 L75.799 120.786 L75.946 120.9 L76.094 121.014 L76.241 121.127 L76.388 121.241 L76.536 121.355 L76.683 121.468 L76.83 121.582 L76.978 121.695 L76.917 122.07 L76.856 122.445 L76.795 122.819 L76.734 123.194 L76.673 123.569 L76.612 123.943 L76.55 124.318 L76.367 125.442 L76.306 125.816 L76.184 126.565 L76.123 126.94 L76.001 127.689 L75.94 128.064 L76.506 126.999 L78.205 123.804 L78.771 122.739 L79.903 120.61 L80.469 119.545 L81.035 118.48 L82.168 116.35 L82.734 115.285 L84.432 112.09 L84.998 111.025 L85.564 109.96 L85.501 109.857 L85.438 109.754 L85.375 109.651 L85.312 109.548 L85.249 109.445 L85.186 109.342 L85.122 109.239 L84.996 109.032 L84.933 108.929 L84.87 108.826 L84.807 108.723 L84.68 108.517 L84.617 108.414 L84.491 108.207 L84.48 107.856 L84.449 106.801 L84.438 106.45 L84.428 106.099 L84.396 105.044 L84.386 104.693 L84.365 103.99 L84.354 103.638 L84.344 103.287 L84.312 102.232 L84.645 101.706 L84.977 101.18 L85.31 100.654 L85.642 100.128 L85.975 99.602 L86.307 99.076 L86.64 98.549 L86.972 98.023 L87.305 97.497 L87.637 96.971 L87.97 96.445 L88.302 95.919 L88.635 95.393 L88.967 94.867 L89.3 94.34 L89.632 93.814 L89.965 93.288 L95.832 93.252 L96.447 92.08 L97.062 90.908 L97.676 89.736 L98.291 88.563 L98.905 87.391 L99.52 86.219 L100.134 85.047 L100.749 83.874 L101.363 82.702 L101.978 81.53 L102.592 80.358 L103.207 79.185 L103.821 78.013 L104.436 76.841 L105.05 75.669 L105.665 74.496 L106.28 73.324 L106.132 72.748 L105.985 72.171 L105.838 71.594 L105.69 71.018 L105.543 70.441 L105.396 69.864 L105.248 69.288 L105.101 68.711 L104.954 68.134 L104.806 67.558 L104.659 66.981 L104.512 66.404 L104.364 65.828 L104.217 65.251 L104.07 64.674 L103.922 64.098 L103.775 63.521 L103.901 63.323 L103.965 63.224 L104.028 63.126 L104.091 63.027 L104.154 62.928 L104.217 62.829 L104.28 62.73 L104.406 62.532 L104.47 62.433 L104.533 62.334 L104.596 62.235 L104.659 62.136 L104.722 62.037 L104.785 61.939 L104.848 61.84 L109.5 61.84 L110.186 62.208 L110.872 62.576 L114.988 64.786 L115.674 65.154 L116.36 65.523 L117.046 65.891 L117.733 66.259 L118.419 66.628 L119.105 66.996 L121.163 68.101 L126.959 68.101 L126.812 65.927 L126.739 64.84 L126.666 63.754 L126.592 62.667 L126.519 61.58 L126.446 60.494 L126.372 59.407 L126.299 58.32 L126.152 56.147 L126.079 55.06 L126.006 53.973 L125.859 51.8 L125.786 50.713 L125.712 49.626 L125.603 49.548 L125.494 49.471 L125.275 49.315 L125.165 49.237 L124.946 49.081 L124.837 49.003 L124.728 48.925 L124.618 48.848 L124.509 48.77 L124.399 48.692 L124.29 48.614 L124.18 48.536 L124.071 48.458 L123.961 48.38 L123.852 48.302 L119.397 48.302 L120.008 47.574 L120.62 46.846 L121.843 45.39 L122.454 44.662 L123.065 43.933 L124.9 41.749 L125.511 41.021 L126.123 40.293 L126.734 39.564 L127.345 38.836 L127.957 38.108 L128.568 37.38 L129.18 36.652 L129.791 35.923 L149.111 35.923 L149.444 36.218 L149.61 36.365 L149.776 36.513 L149.942 36.66 L150.275 36.955 L150.441 37.102 L150.607 37.249 L150.774 37.397 L151.106 37.691 L151.605 38.133 L151.937 38.428 L151.937 52.775 L151.716 53.446 L151.495 54.117 L151.274 54.789 L151.054 55.46 L150.612 56.803 L150.391 57.474 L150.17 58.146 L149.949 58.817 L149.728 59.488 L149.507 60.16 L149.286 60.831 L149.065 61.502 L148.844 62.174 L148.623 62.845 L148.181 64.188 L148.181 66.835 L148.345 66.94 L148.509 67.046 L148.673 67.151 L148.837 67.256 L149.002 67.361 L149.166 67.467 L149.33 67.572 L149.494 67.677 L149.658 67.782 L149.822 67.888 L149.986 67.993 L150.151 68.098 L150.315 68.203 L150.643 68.414 L150.807 68.519 L150.971 68.624 L163.744 68.624 L164.091 68.805 L164.439 68.986 L164.786 69.167 L165.133 69.348 L165.48 69.529 L165.828 69.71 L166.175 69.891 L166.522 70.072 L166.869 70.253 L167.217 70.434 L167.564 70.615 L167.911 70.796 L168.258 70.977 L168.606 71.158 L168.953 71.339 L169.647 71.701 L170.652 73.633 L172.661 77.497 L173.666 79.429 L174.67 81.36 L175.675 83.292 L176.68 85.224 L178.689 89.088 L179.694 91.02 L180.698 92.952 L182.707 96.815 L183.712 98.747 L184.717 100.679 L186.726 104.543 L192.468 104.543 L192.662 104.452 L194.79 103.456 L194.983 103.365 L195.177 103.275 L195.37 103.184 L195.757 103.003 L195.757 99.067 L195.244 98.45 L195.073 98.244 L194.731 97.832 L194.56 97.626 L193.875 96.803 L193.704 96.597 L193.191 95.98 L193.019 95.774 L192.848 95.568 L192.564 95.481 L192.28 95.394 L191.712 95.22 L191.428 95.132 L190.86 94.958 L190.576 94.871 L190.292 94.783 L190.008 94.696 L189.439 94.522 L189.155 94.434 L188.871 94.347 L188.587 94.26 L188.303 94.173 L188.019 94.085 L187.942 93.956 L187.79 93.698 L187.713 93.569 L187.484 93.182 L187.408 93.053 L187.255 92.795 L187.178 92.666 L187.102 92.537 L187.026 92.407 L186.949 92.278 L186.873 92.149 L186.72 91.891 L186.127 87.918 L185.93 86.594 L185.337 82.62 L185.14 81.296 L184.547 77.323 L184.35 75.998 L183.757 72.025 L183.56 70.701 L183.362 69.376 L183.696 69.149 L184.029 68.921 L184.363 68.693 L184.696 68.465 L185.03 68.238 L185.364 68.01 L185.697 67.782 L186.031 67.554 L186.364 67.327 L186.698 67.099 L187.365 66.644 L187.699 66.416 L188.032 66.188 L188.366 65.96 L188.7 65.733 L189.033 65.505 L188.894 64.877 L188.755 64.249 L188.616 63.622 L188.476 62.994 L188.198 61.738 L188.059 61.111 L187.919 60.483 L187.78 59.855 L187.641 59.228 L187.502 58.6 L187.362 57.972 L187.223 57.344 L187.084 56.717 L186.945 56.089 L186.805 55.461 L186.666 54.833 L185.611 54.458 L184.556 54.082 L183.501 53.707 L182.447 53.331 L181.392 52.956 L179.282 52.204 L178.227 51.829 L177.172 51.453 L176.117 51.078 L175.062 50.702 L174.007 50.326 L172.952 49.951 L171.897 49.575 L169.787 48.824 L168.732 48.449 L169.101 48.022 L169.224 47.88 L169.716 47.311 L169.961 47.026 L170.207 46.742 L170.33 46.6 L170.822 46.031 L174.992 45.34 L176.034 45.168 L177.077 44.995 L178.119 44.823 L179.162 44.65 L180.204 44.477 L181.247 44.305 L182.289 44.132 L183.332 43.96 L184.374 43.787 L186.459 43.442 L187.502 43.269 L188.544 43.097 L190.595 42.421 L191.278 42.196 L192.645 41.746 L193.329 41.521 L195.379 40.846 L196.063 40.621 L197.43 40.171 L198.113 39.946 L200.164 39.27 L200.213 38.193 L200.222 38.014 L200.263 37.116 L200.271 36.937 L200.304 36.219 L200.523 36.175 L200.741 36.13 L201.177 36.042 L201.395 35.998 L201.613 35.954 L201.832 35.91 L202.486 35.777 L202.704 35.733 L202.922 35.689 L203.141 35.644 L203.359 35.6 L203.577 35.556 L203.795 35.512 L204.013 35.468 L204.189 35.81 L204.364 36.153 L204.539 36.495 L204.715 36.837 L204.89 37.18 L205.065 37.522 L205.241 37.865 L205.416 38.207 L205.592 38.55 L205.767 38.892 L205.942 39.234 L206.118 39.577 L206.293 39.919 L206.468 40.262 L206.644 40.604 L206.819 40.947 L206.994 41.289 L207.033 41.745 L207.072 42.2 L207.11 42.656 L207.149 43.112 L207.226 44.023 L207.265 44.479 L207.342 45.39 L207.381 45.846 L207.42 46.301 L207.458 46.757 L207.497 47.213 L207.536 47.668 L207.574 48.124 L207.613 48.58 L207.652 49.035 L207.117 49.169 L206.583 49.303 L206.049 49.437 L205.514 49.571 L204.98 49.705 L204.445 49.839 L203.911 49.973 L203.377 50.107 L202.842 50.241 L202.308 50.375 L201.774 50.509 L201.239 50.643 L200.705 50.777 L200.17 50.911 L199.636 51.045 L198.567 51.312 L199.547 60.567 L199.687 61.889 L200.527 69.822 L200.667 71.144 L200.947 73.788 L201.351 73.827 L201.755 73.867 L204.583 74.141 L204.987 74.18 L207.411 74.415 L207.816 74.455 L208.469 77.649 L209.122 80.844 L210.429 87.233 L211.083 90.428 L211.737 93.622 L212.39 96.817 L213.044 100.012 L213.697 103.206 L214.35 106.401 L215.657 112.79 L216.311 115.985 L216.965 119.18 L217.618 122.374 L218.925 128.763 L218.564 130.476 L218.203 132.188 L217.842 133.9 L217.48 135.612 L217.119 137.325 L216.758 139.037 L216.397 140.749 L216.036 142.461 L215.675 144.174 L215.313 145.886 L214.952 147.598 L214.591 149.31 L214.23 151.022 L213.869 152.735 L213.508 154.447 L213.147 156.159 L212.785 157.871 L213.162 160.501 L213.539 163.13 L213.916 165.76 L214.669 171.018 L215.423 176.277 L216.176 181.536 L216.553 184.165 L217.306 189.424 L217.683 192.054 L218.06 194.683 L218.437 197.312 L218.813 199.942 L218.907 200.625 C218.973 201.646 220.132 202.65 221.152 202.571 L223.592 202.571 C224.708 202.458 225.973 203.723 225.86 204.839 L225.86 206.178 C225.973 207.294 224.708 208.559 223.592 208.446 L213.446 208.446 C212.419 208.527 211.253 207.506 211.198 206.478 L211.024 205.173 L210.587 201.901 L210.151 198.628 L209.714 195.355 L209.278 192.083 L208.841 188.81 L208.405 185.537 L207.968 182.265 L207.532 178.992 L207.095 175.72 L206.658 172.447 L205.785 165.902 L205.349 162.629 L204.476 156.084 L204.039 152.811 L203.785 151.912 L203.277 150.114 L203.023 149.215 L202.515 147.418 L202.261 146.519 L201.753 144.721 L201.499 143.822 L200.99 142.024 L200.736 141.125 L200.228 139.328 L199.974 138.429 L199.72 137.53 L199.802 138.172 L199.883 138.813 L200.047 140.097 L200.128 140.739 L200.21 141.381 L200.292 142.023 L200.455 143.307 L200.537 143.948 L200.7 145.232 L200.781 145.874 L200.863 146.516 L200.945 147.158 L201.108 148.442 L200.706 148.747 L200.304 149.052 L199.902 149.358 L199.5 149.663 L199.098 149.968 L198.294 150.579 L197.892 150.884 L197.49 151.19 L197.088 151.495 L196.686 151.801 L196.284 152.106 L195.882 152.411 L195.48 152.717 L194.676 153.327 L194.274 153.633 L193.682 153.252 L193.09 152.87 L192.497 152.489 L191.905 152.108 L190.72 151.346 L190.128 150.965 L188.943 150.203 L188.351 149.822 L187.166 149.059 L186.574 148.678 L185.389 147.916 L184.796 147.535 L184.204 147.154 L184.892 145.663 L185.121 145.166 L185.35 144.668 L185.579 144.171 L186.725 141.686 L186.955 141.189 L187.642 139.698 L187.871 139.201 L188.101 138.703 L187.842 138.476 L187.583 138.248 L187.066 137.793 L186.807 137.565 L186.29 137.11 L186.032 136.883 L185.514 136.427 L185.256 136.2 L184.997 135.972 L184.738 135.744 L184.221 135.289 L183.962 135.062 L183.704 134.834 L183.048 133.445 L182.392 132.056 L179.113 125.11 L178.457 123.721 L175.177 116.776 L174.522 115.387 L173.866 113.998 L173.21 112.609 L172.554 111.22 L172.641 111.07 L172.728 110.921 L172.902 110.623 L172.989 110.474 L173.25 110.027 L173.337 109.877 L173.598 109.43 L173.685 109.281 L173.859 108.983 L173.946 108.833 L174.033 108.684 L173.715 108.718 L173.556 108.734 L173.239 108.767 L173.08 108.784 L172.762 108.817 L172.604 108.833 L172.127 108.883 L171.968 108.9 L171.651 108.933 L171.492 108.949 L171.333 108.966 L170.879 108.495 L170.425 108.024 L169.062 106.612 L168.608 106.141 L168.153 105.67 L167.699 105.199 L167.245 104.728 L166.79 104.258 L166.336 103.787 L165.882 103.316 L164.973 102.374 L164.519 101.903 L164.065 101.432 L163.61 100.962 L163.501 101.359 L163.392 101.757 L163.174 102.552 L163.065 102.95 L162.956 103.348 L162.738 104.143 L162.629 104.541 L162.41 105.336 L162.301 105.734 L161.974 106.927 L161.865 107.324 L161.756 107.722 L161.073 109.06 L160.845 109.506 L160.389 110.398 L160.161 110.844 L159.933 111.29 L159.705 111.736 L159.022 113.074 L158.794 113.52 L158.339 114.412 L158.111 114.858 L157.883 115.304 L158.083 116.402 L158.284 117.5 L158.484 118.599 L158.684 119.697 L158.885 120.795 L159.486 124.09 L159.686 125.188 L160.087 127.384 L160.287 128.483 L160.688 130.679 L160.888 131.777 L161.089 132.876 L161.289 133.974 L164.768 133.974 C165.739 133.909 166.839 134.794 166.983 135.756 L167.36 137.472 L167.743 139.221 L168.127 140.97 L168.51 142.719 L168.894 144.468 L169.277 146.217 L169.661 147.966 L170.428 151.464 L170.812 153.213 L171.195 154.962 L171.579 156.711 L172.346 160.209 L172.729 161.958 L172.907 162.768 C173.042 163.344 172.916 164.02 172.581 164.508 L172.439 164.723 L172.27 164.977 L172.102 165.231 L171.933 165.484 L171.596 165.992 L171.427 166.246 L171.259 166.5 L171.09 166.754 L170.922 167.008 L170.806 167.182 C170.457 167.691 170.336 168.406 170.5 169.002 L170.52 169.083 L170.559 169.234 L170.598 169.385 L170.637 169.536 L170.676 169.688 L170.715 169.839 L170.754 169.99 L170.832 170.293 L170.871 170.444 L170.91 170.595 L171.426 170.619 L171.685 170.631 L172.459 170.666 L172.717 170.678 L173.75 170.725 L173.886 170.731 C174.683 170.739 175.541 171.319 175.846 172.056 L176.048 172.482 L176.297 173.044 L176.546 173.606 L176.796 174.168 L177.045 174.73 L177.295 175.292 L177.544 175.854 L177.794 176.416 L178.043 176.978 L178.292 177.54 L178.542 178.102 L178.791 178.664 L179.041 179.226 L179.29 179.788 L179.388 180.009 L179.574 180.723 L179.586 180.857 L179.632 181.363 L179.77 182.882 L179.816 183.388 L179.908 184.401 L179.954 184.907 L180.046 185.92 L180.092 186.426 L180.138 186.932 L180.184 187.439 L180.22 187.838 C180.293 188.494 180.014 189.237 179.528 189.683 L179.342 189.878 L179.146 190.062 L178.754 190.43 L178.558 190.614 L178.166 190.983 L178.056 191.086 C177.428 191.629 177.162 192.698 177.462 193.472 L177.543 193.71 L178.097 195.333 L178.652 196.956 L179.206 198.579 L180.314 201.825 L180.868 203.447 L181.422 205.07 L181.976 206.693 L182.53 208.316 L183.084 209.939 L184.192 213.185 L184.746 214.807 L186.408 219.676 L187.635 220.441 L188.863 221.207 L191.317 222.738 L192.545 223.503 L197.454 226.565 L198.682 227.33 L201.136 228.861 L202.364 229.626 L203.591 230.392 L204.819 231.157 L205.939 231.856 C206.736 232.322 207.3 233.337 207.273 234.261 L207.273 236.658 L175.464 236.658 L173.721 236.644 C172.432 236.747 170.967 235.455 170.909 234.163 L170.83 233.539 L170.595 231.667 L170.517 231.043 L170.438 230.419 L170.36 229.795 L170.125 227.923 L170.046 227.299 L169.968 226.676 L169.889 226.052 L168.715 223.671 L162.845 211.77 L161.671 209.39 L160.497 207.01 L159.323 204.63 L158.149 202.25 L156.976 199.869 L152.28 190.349 L151.324 188.411 C150.971 187.724 150.936 186.819 151.233 186.107 C151.507 185.386 152.156 184.753 152.884 184.498 L153.103 184.416 L153.808 184.156 L154.161 184.026 L154.865 183.766 L155.218 183.635 L155.923 183.375 L156.061 182.662 L156.095 182.483 L156.13 182.305 L156.164 182.127 L156.302 181.414 L156.337 181.235 L156.371 181.057 L156.474 180.522 L156.509 180.344 L154.867 175.834 L154.045 173.579 L152.403 169.07 L151.582 166.815 L150.76 164.56 L149.939 162.306 L148.297 157.796 L147.476 155.541 L146.654 153.287 L145.833 151.032 L144.191 146.523 L143.369 144.268 L142.75 142.575 C142.616 142.205 142.398 141.857 142.124 141.575 L141.912 141.355 L141.806 141.246 L141.594 141.026 L141.582 141.014 C141.075 140.474 140.284 140.139 139.544 140.149 L137.747 140.149 L137.474 140.155 C136.648 140.14 135.754 140.575 135.255 141.234 L135.197 141.307 L135.096 141.436 L134.994 141.565 L134.893 141.693 L134.791 141.822 L134.69 141.951 L134.685 141.956 L134.229 142.795 L133.569 144.724 L132.753 147.111 L131.937 149.498 L131.12 151.885 L129.487 156.659 L128.671 159.046 L126.222 166.207 L125.406 168.594 L122.956 175.756 L122.14 178.143 L121.324 180.53 L121.164 180.997 C120.752 182.028 121.183 183.493 122.087 184.137 L122.195 184.231 L122.42 184.406 L123.028 184.406 C124.423 184.265 126.004 185.846 125.863 187.241 L125.863 187.924 C125.868 188.557 125.632 189.223 125.229 189.711 L124.972 190.027 L124.675 190.393 L124.378 190.758 L123.785 191.49 L123.488 191.855 L123.191 192.221 L122.894 192.587 L122.597 192.953 L122.3 193.318 L122.003 193.684 L121.707 194.05 L121.41 194.415 L121.113 194.781 L120.816 195.147 L120.174 196.243 L119.532 197.34 L118.891 198.436 L118.249 199.532 L117.607 200.629 L116.965 201.725 L116.324 202.822 L115.682 203.918 L115.04 205.015 L114.398 206.111 L113.757 207.208 L113.115 208.304 L112.473 209.401 L111.831 210.497 L111.19 211.593 L110.548 212.69 L109.906 213.786 L109.119 215.517 L108.856 216.094 L107.807 218.401 L107.544 218.978 L107.019 220.131 L106.757 220.708 L106.495 221.285 L106.232 221.862 L105.445 223.592 L105.445 234.453 L66.587 234.453 L66.587 232.379 C66.552 231.387 67.222 230.286 68.119 229.862 L69.419 229.189 L70.835 228.456 L73.667 226.991 L75.084 226.258 L77.916 224.793 L79.332 224.06 L80.748 223.327 L82.164 222.595 L83.58 221.862 L84.996 221.129 L87.828 219.664 L89.244 218.931 L90.66 218.198 L91.151 216.4 L91.642 214.602 L92.624 211.006 L93.115 209.209 L93.606 207.411 L94.097 205.613 L94.588 203.815 L95.571 200.219 L96.062 198.421 L97.044 194.825 L97.535 193.027 L98.026 191.229 L98.522 189.432 C98.858 188.507 98.287 187.184 97.383 186.794 L96.88 186.534 L96.644 186.412 L96.407 186.29 C95.599 185.922 95.036 184.839 95.201 183.967 L95.269 183.509 L95.339 182.998 L95.409 182.486 L95.48 181.974 L95.55 181.462 L95.62 180.95 L95.69 180.438 L95.76 179.927 L95.83 179.415 L95.9 178.903 L95.971 178.391 L96.041 177.879 L96.111 177.367 L96.125 177.264 L96.378 176.493 L96.432 176.392 L96.683 175.928 L96.934 175.465 L97.185 175.001 L97.436 174.538 L97.687 174.074 L97.938 173.611 L98.189 173.147 L98.44 172.684 L98.691 172.22 L98.942 171.756 L99.193 171.293 L99.444 170.829 L99.695 170.366 L99.946 169.902 C100.232 169.351 100.814 168.907 101.421 168.775 L101.507 168.742 L102.556 168.471 L103.592 168.149 L104.604 167.761 L105.575 167.28 L106.462 166.659 L107.167 165.841 L107.507 164.821 L107.409 163.747 L107.012 162.74 L106.455 161.81 L105.81 160.939 L105.113 160.108 L104.384 159.306 L103.635 158.522 L102.875 157.749 C102.413 157.302 102.155 156.581 102.225 155.943 L102.243 155.482 L102.394 153.985 L102.561 152.489 L102.744 150.995 L102.944 149.503 L103.16 148.014 L103.392 146.527 L103.642 145.042 L103.908 143.561 L104.191 142.083 L104.491 140.608 L104.808 139.136 L105.142 137.669 L105.493 136.205 L105.861 134.746 L106.242 133.312 C106.428 132.477 107.299 131.722 108.151 131.655 L108.349 131.631 L109.198 131.525 L109.623 131.473 L110.896 131.315 L111.321 131.262 L113.869 130.947 z" fill-rule="nonzero" stroke-width="15px" style="fill:transparent;stroke:rgba(0,0,0,0.71);" />
	<path d="M196.43 129.178 L199.185 129.178 L199.353 128.968 L199.437 128.863 L199.521 128.757 L199.606 128.652 L199.942 128.231 L200.027 128.126 L200.111 128.021 L200.447 127.6 L200.532 127.495 L200.616 127.39 L200.422 126.539 L200.229 125.689 L199.841 123.989 L199.648 123.138 L199.454 122.288 L199.26 121.438 L199.067 120.588 L198.873 119.737 L198.68 118.887 L198.486 118.037 L198.099 116.336 L197.905 115.486 L197.711 114.636 L197.518 113.786 L197.324 112.935 L196.775 112.822 L196.592 112.784 L195.676 112.594 L195.493 112.557 L194.761 112.405 L194.578 112.367 L194.395 112.329 L194.212 112.291 L193.987 112.384 L193.763 112.476 L193.538 112.569 L193.314 112.661 L193.09 112.753 L192.865 112.846 L192.641 112.938 L192.416 113.03 L192.192 113.123 L191.968 113.215 L191.519 113.4 L191.294 113.492 L191.07 113.584 L190.846 113.677 L190.621 113.769 L190.397 113.861 L191.816 117.465 L192.171 118.366 L192.526 119.267 L192.881 120.168 L193.591 121.97 L193.946 122.871 L195.011 125.574 L195.366 126.475 L195.72 127.376 L196.075 128.277 L196.43 129.178 z M113.869 130.947 L114.125 129.859 L114.382 128.772 L114.639 127.685 L114.895 126.598 L115.152 125.51 L115.665 123.336 L115.922 122.248 L116.179 121.161 L116.435 120.074 L116.949 117.899 L117.205 116.812 L117.462 115.725 L117.719 114.637 L117.975 113.55 L118.232 112.463 L117.959 111.512 L117.686 110.561 L117.413 109.61 L116.868 107.708 L116.595 106.757 L116.322 105.806 L116.049 104.855 L115.777 103.904 L115.504 102.953 L115.231 102.002 L114.958 101.051 L114.685 100.1 L114.413 99.149 L114.14 98.198 L113.867 97.247 L113.594 96.296 L112.856 96.84 L111.38 97.926 L110.642 98.469 L109.167 99.555 L108.429 100.098 L107.691 100.641 L106.215 101.727 L105.477 102.27 L103.264 103.899 L102.526 104.442 L101.05 105.528 L101.021 113.159 L101.006 117.321 L100.213 118.353 L98.628 120.416 L97.836 121.447 L97.043 122.479 L96.251 123.51 L95.458 124.542 L94.666 125.573 L93.081 127.636 L92.289 128.668 L91.496 129.699 L90.704 130.731 L89.119 132.794 L88.326 133.825 L87.534 134.857 L87.513 136.019 L87.502 136.6 L87.47 138.344 L87.459 138.925 L87.428 140.668 L87.417 141.249 L87.396 142.412 L87.385 142.993 L87.353 144.736 L86.255 145.607 L86.072 145.753 L85.156 146.479 L84.973 146.624 L84.241 147.205 L84.241 149.53 L84.316 149.615 L84.392 149.699 L84.544 149.867 L84.619 149.951 L84.695 150.036 L84.771 150.12 L84.847 150.204 L84.998 150.372 L85.074 150.456 L85.15 150.541 L85.226 150.625 L85.301 150.709 L85.377 150.793 L85.453 150.877 L85.529 150.962 L94.867 150.962 L94.867 155.648 L87.425 155.648 L87.299 155.775 L87.172 155.901 L87.046 156.027 L86.92 156.153 L86.793 156.28 L86.667 156.406 L86.541 156.532 L86.415 156.659 L86.288 156.785 L86.162 156.911 L86.036 157.037 L85.909 157.164 L85.783 157.29 L85.657 157.416 L85.404 157.669 L85.278 157.795 L85.278 190.41 C85.391 191.526 84.126 192.791 83.01 192.678 L82.579 192.678 C81.395 192.752 80.054 191.71 79.833 190.544 L79.337 188.599 L78.817 186.56 L78.297 184.521 L77.258 180.442 L76.738 178.403 L76.218 176.364 L74.659 170.246 L74.139 168.206 L72.579 162.088 L72.059 160.049 L71.54 158.01 L60.985 158.01 L60.985 154.038 L61.648 153.83 L62.311 153.622 L62.974 153.413 L63.637 153.205 L64.3 152.997 L64.963 152.788 L65.626 152.58 L66.289 152.372 L66.952 152.163 L67.615 151.955 L68.277 151.747 L68.94 151.538 L69.603 151.33 L70.266 151.121 L70.929 150.913 L71.592 150.705 L72.255 150.496 L72.255 148.958 L72.074 148.901 L71.893 148.844 L71.712 148.787 L70.988 148.56 L70.807 148.503 L70.264 148.333 L70.083 148.276 L69.54 148.106 L69.359 148.049 L69.178 147.992 L69.012 147.691 L68.846 147.39 L68.679 147.089 L68.513 146.788 L68.347 146.487 L68.014 145.885 L67.848 145.584 L67.682 145.283 L67.516 144.982 L67.349 144.682 L67.183 144.381 L67.017 144.08 L66.851 143.779 L66.684 143.478 L66.518 143.177 L66.352 142.876 L66.32 142.547 L66.257 141.891 L66.226 141.563 L66.162 140.906 L66.131 140.578 L66.099 140.249 L66.068 139.921 L66.036 139.593 L65.941 138.608 L65.91 138.279 L65.878 137.951 L65.847 137.623 L65.815 137.294 L66.032 137.13 L66.249 136.966 L66.465 136.802 L66.682 136.638 L66.899 136.474 L67.333 136.145 L67.549 135.981 L67.766 135.817 L67.983 135.653 L68.2 135.489 L68.416 135.325 L68.633 135.16 L68.85 134.996 L69.067 134.832 L69.283 134.668 L69.5 134.504 L69.401 134.091 L68.709 131.204 L68.61 130.791 L68.412 129.966 L68.313 129.554 L68.017 128.316 L67.918 127.904 L67.819 127.491 L67.52 127.357 L67.221 127.222 L66.922 127.087 L66.623 126.953 L66.324 126.818 L66.026 126.683 L65.727 126.549 L65.428 126.414 L65.129 126.279 L64.83 126.145 L64.233 125.875 L63.934 125.74 L63.635 125.606 L63.336 125.471 L63.037 125.336 L62.738 125.202 L62.738 121.195 L62.911 121.11 L63.083 121.026 L63.256 120.942 L63.774 120.689 L63.946 120.605 L64.119 120.521 L64.291 120.437 L64.464 120.353 L64.809 120.184 L64.982 120.1 L65.154 120.016 L65.327 119.932 L65.672 119.763 L74.473 119.763 L74.621 119.877 L74.768 119.991 L74.915 120.104 L75.063 120.218 L75.21 120.332 L75.357 120.445 L75.505 120.559 L75.799 120.786 L75.946 120.9 L76.094 121.014 L76.241 121.127 L76.388 121.241 L76.536 121.355 L76.683 121.468 L76.83 121.582 L76.978 121.695 L76.917 122.07 L76.856 122.445 L76.795 122.819 L76.734 123.194 L76.673 123.569 L76.612 123.943 L76.55 124.318 L76.367 125.442 L76.306 125.816 L76.184 126.565 L76.123 126.94 L76.001 127.689 L75.94 128.064 L76.506 126.999 L78.205 123.804 L78.771 122.739 L79.903 120.61 L80.469 119.545 L81.035 118.48 L82.168 116.35 L82.734 115.285 L84.432 112.09 L84.998 111.025 L85.564 109.96 L85.501 109.857 L85.438 109.754 L85.375 109.651 L85.312 109.548 L85.249 109.445 L85.186 109.342 L85.122 109.239 L84.996 109.032 L84.933 108.929 L84.87 108.826 L84.807 108.723 L84.68 108.517 L84.617 108.414 L84.491 108.207 L84.48 107.856 L84.449 106.801 L84.438 106.45 L84.428 106.099 L84.396 105.044 L84.386 104.693 L84.365 103.99 L84.354 103.638 L84.344 103.287 L84.312 102.232 L84.645 101.706 L84.977 101.18 L85.31 100.654 L85.642 100.128 L85.975 99.602 L86.307 99.076 L86.64 98.549 L86.972 98.023 L87.305 97.497 L87.637 96.971 L87.97 96.445 L88.302 95.919 L88.635 95.393 L88.967 94.867 L89.3 94.34 L89.632 93.814 L89.965 93.288 L95.832 93.252 L96.447 92.08 L97.062 90.908 L97.676 89.736 L98.291 88.563 L98.905 87.391 L99.52 86.219 L100.134 85.047 L100.749 83.874 L101.363 82.702 L101.978 81.53 L102.592 80.358 L103.207 79.185 L103.821 78.013 L104.436 76.841 L105.05 75.669 L105.665 74.496 L106.28 73.324 L106.132 72.748 L105.985 72.171 L105.838 71.594 L105.69 71.018 L105.543 70.441 L105.396 69.864 L105.248 69.288 L105.101 68.711 L104.954 68.134 L104.806 67.558 L104.659 66.981 L104.512 66.404 L104.364 65.828 L104.217 65.251 L104.07 64.674 L103.922 64.098 L103.775 63.521 L103.901 63.323 L103.965 63.224 L104.028 63.126 L104.091 63.027 L104.154 62.928 L104.217 62.829 L104.28 62.73 L104.406 62.532 L104.47 62.433 L104.533 62.334 L104.596 62.235 L104.659 62.136 L104.722 62.037 L104.785 61.939 L104.848 61.84 L109.5 61.84 L110.186 62.208 L110.872 62.576 L114.988 64.786 L115.674 65.154 L116.36 65.523 L117.046 65.891 L117.733 66.259 L118.419 66.628 L119.105 66.996 L121.163 68.101 L126.959 68.101 L126.812 65.927 L126.739 64.84 L126.666 63.754 L126.592 62.667 L126.519 61.58 L126.446 60.494 L126.372 59.407 L126.299 58.32 L126.152 56.147 L126.079 55.06 L126.006 53.973 L125.859 51.8 L125.786 50.713 L125.712 49.626 L125.603 49.548 L125.494 49.471 L125.275 49.315 L125.165 49.237 L124.946 49.081 L124.837 49.003 L124.728 48.925 L124.618 48.848 L124.509 48.77 L124.399 48.692 L124.29 48.614 L124.18 48.536 L124.071 48.458 L123.961 48.38 L123.852 48.302 L119.397 48.302 L120.008 47.574 L120.62 46.846 L121.843 45.39 L122.454 44.662 L123.065 43.933 L124.9 41.749 L125.511 41.021 L126.123 40.293 L126.734 39.564 L127.345 38.836 L127.957 38.108 L128.568 37.38 L129.18 36.652 L129.791 35.923 L149.111 35.923 L149.444 36.218 L149.61 36.365 L149.776 36.513 L149.942 36.66 L150.275 36.955 L150.441 37.102 L150.607 37.249 L150.774 37.397 L151.106 37.691 L151.605 38.133 L151.937 38.428 L151.937 52.775 L151.716 53.446 L151.495 54.117 L151.274 54.789 L151.054 55.46 L150.612 56.803 L150.391 57.474 L150.17 58.146 L149.949 58.817 L149.728 59.488 L149.507 60.16 L149.286 60.831 L149.065 61.502 L148.844 62.174 L148.623 62.845 L148.181 64.188 L148.181 66.835 L148.345 66.94 L148.509 67.046 L148.673 67.151 L148.837 67.256 L149.002 67.361 L149.166 67.467 L149.33 67.572 L149.494 67.677 L149.658 67.782 L149.822 67.888 L149.986 67.993 L150.151 68.098 L150.315 68.203 L150.643 68.414 L150.807 68.519 L150.971 68.624 L163.744 68.624 L164.091 68.805 L164.439 68.986 L164.786 69.167 L165.133 69.348 L165.48 69.529 L165.828 69.71 L166.175 69.891 L166.522 70.072 L166.869 70.253 L167.217 70.434 L167.564 70.615 L167.911 70.796 L168.258 70.977 L168.606 71.158 L168.953 71.339 L169.647 71.701 L170.652 73.633 L172.661 77.497 L173.666 79.429 L174.67 81.36 L175.675 83.292 L176.68 85.224 L178.689 89.088 L179.694 91.02 L180.698 92.952 L182.707 96.815 L183.712 98.747 L184.717 100.679 L186.726 104.543 L192.468 104.543 L192.662 104.452 L194.79 103.456 L194.983 103.365 L195.177 103.275 L195.37 103.184 L195.757 103.003 L195.757 99.067 L195.244 98.45 L195.073 98.244 L194.731 97.832 L194.56 97.626 L193.875 96.803 L193.704 96.597 L193.191 95.98 L193.019 95.774 L192.848 95.568 L192.564 95.481 L192.28 95.394 L191.712 95.22 L191.428 95.132 L190.86 94.958 L190.576 94.871 L190.292 94.783 L190.008 94.696 L189.439 94.522 L189.155 94.434 L188.871 94.347 L188.587 94.26 L188.303 94.173 L188.019 94.085 L187.942 93.956 L187.79 93.698 L187.713 93.569 L187.484 93.182 L187.408 93.053 L187.255 92.795 L187.178 92.666 L187.102 92.537 L187.026 92.407 L186.949 92.278 L186.873 92.149 L186.72 91.891 L186.127 87.918 L185.93 86.594 L185.337 82.62 L185.14 81.296 L184.547 77.323 L184.35 75.998 L183.757 72.025 L183.56 70.701 L183.362 69.376 L183.696 69.149 L184.029 68.921 L184.363 68.693 L184.696 68.465 L185.03 68.238 L185.364 68.01 L185.697 67.782 L186.031 67.554 L186.364 67.327 L186.698 67.099 L187.365 66.644 L187.699 66.416 L188.032 66.188 L188.366 65.96 L188.7 65.733 L189.033 65.505 L188.894 64.877 L188.755 64.249 L188.616 63.622 L188.476 62.994 L188.198 61.738 L188.059 61.111 L187.919 60.483 L187.78 59.855 L187.641 59.228 L187.502 58.6 L187.362 57.972 L187.223 57.344 L187.084 56.717 L186.945 56.089 L186.805 55.461 L186.666 54.833 L185.611 54.458 L184.556 54.082 L183.501 53.707 L182.447 53.331 L181.392 52.956 L179.282 52.204 L178.227 51.829 L177.172 51.453 L176.117 51.078 L175.062 50.702 L174.007 50.326 L172.952 49.951 L171.897 49.575 L169.787 48.824 L168.732 48.449 L169.101 48.022 L169.224 47.88 L169.716 47.311 L169.961 47.026 L170.207 46.742 L170.33 46.6 L170.822 46.031 L174.992 45.34 L176.034 45.168 L177.077 44.995 L178.119 44.823 L179.162 44.65 L180.204 44.477 L181.247 44.305 L182.289 44.132 L183.332 43.96 L184.374 43.787 L186.459 43.442 L187.502 43.269 L188.544 43.097 L190.595 42.421 L191.278 42.196 L192.645 41.746 L193.329 41.521 L195.379 40.846 L196.063 40.621 L197.43 40.171 L198.113 39.946 L200.164 39.27 L200.213 38.193 L200.222 38.014 L200.263 37.116 L200.271 36.937 L200.304 36.219 L200.523 36.175 L200.741 36.13 L201.177 36.042 L201.395 35.998 L201.613 35.954 L201.832 35.91 L202.486 35.777 L202.704 35.733 L202.922 35.689 L203.141 35.644 L203.359 35.6 L203.577 35.556 L203.795 35.512 L204.013 35.468 L204.189 35.81 L204.364 36.153 L204.539 36.495 L204.715 36.837 L204.89 37.18 L205.065 37.522 L205.241 37.865 L205.416 38.207 L205.592 38.55 L205.767 38.892 L205.942 39.234 L206.118 39.577 L206.293 39.919 L206.468 40.262 L206.644 40.604 L206.819 40.947 L206.994 41.289 L207.033 41.745 L207.072 42.2 L207.11 42.656 L207.149 43.112 L207.226 44.023 L207.265 44.479 L207.342 45.39 L207.381 45.846 L207.42 46.301 L207.458 46.757 L207.497 47.213 L207.536 47.668 L207.574 48.124 L207.613 48.58 L207.652 49.035 L207.117 49.169 L206.583 49.303 L206.049 49.437 L205.514 49.571 L204.98 49.705 L204.445 49.839 L203.911 49.973 L203.377 50.107 L202.842 50.241 L202.308 50.375 L201.774 50.509 L201.239 50.643 L200.705 50.777 L200.17 50.911 L199.636 51.045 L198.567 51.312 L199.547 60.567 L199.687 61.889 L200.527 69.822 L200.667 71.144 L200.947 73.788 L201.351 73.827 L201.755 73.867 L204.583 74.141 L204.987 74.18 L207.411 74.415 L207.816 74.455 L208.469 77.649 L209.122 80.844 L210.429 87.233 L211.083 90.428 L211.737 93.622 L212.39 96.817 L213.044 100.012 L213.697 103.206 L214.35 106.401 L215.657 112.79 L216.311 115.985 L216.965 119.18 L217.618 122.374 L218.925 128.763 L218.564 130.476 L218.203 132.188 L217.842 133.9 L217.48 135.612 L217.119 137.325 L216.758 139.037 L216.397 140.749 L216.036 142.461 L215.675 144.174 L215.313 145.886 L214.952 147.598 L214.591 149.31 L214.23 151.022 L213.869 152.735 L213.508 154.447 L213.147 156.159 L212.785 157.871 L213.162 160.501 L213.539 163.13 L213.916 165.76 L214.669 171.018 L215.423 176.277 L216.176 181.536 L216.553 184.165 L217.306 189.424 L217.683 192.054 L218.06 194.683 L218.437 197.312 L218.813 199.942 L218.907 200.625 C218.973 201.646 220.132 202.65 221.152 202.571 L223.592 202.571 C224.708 202.458 225.973 203.723 225.86 204.839 L225.86 206.178 C225.973 207.294 224.708 208.559 223.592 208.446 L213.446 208.446 C212.419 208.527 211.253 207.506 211.198 206.478 L211.024 205.173 L210.587 201.901 L210.151 198.628 L209.714 195.355 L209.278 192.083 L208.841 188.81 L208.405 185.537 L207.968 182.265 L207.532 178.992 L207.095 175.72 L206.658 172.447 L205.785 165.902 L205.349 162.629 L204.476 156.084 L204.039 152.811 L203.785 151.912 L203.277 150.114 L203.023 149.215 L202.515 147.418 L202.261 146.519 L201.753 144.721 L201.499 143.822 L200.99 142.024 L200.736 141.125 L200.228 139.328 L199.974 138.429 L199.72 137.53 L199.802 138.172 L199.883 138.813 L200.047 140.097 L200.128 140.739 L200.21 141.381 L200.292 142.023 L200.455 143.307 L200.537 143.948 L200.7 145.232 L200.781 145.874 L200.863 146.516 L200.945 147.158 L201.108 148.442 L200.706 148.747 L200.304 149.052 L199.902 149.358 L199.5 149.663 L199.098 149.968 L198.294 150.579 L197.892 150.884 L197.49 151.19 L197.088 151.495 L196.686 151.801 L196.284 152.106 L195.882 152.411 L195.48 152.717 L194.676 153.327 L194.274 153.633 L193.682 153.252 L193.09 152.87 L192.497 152.489 L191.905 152.108 L190.72 151.346 L190.128 150.965 L188.943 150.203 L188.351 149.822 L187.166 149.059 L186.574 148.678 L185.389 147.916 L184.796 147.535 L184.204 147.154 L184.892 145.663 L185.121 145.166 L185.35 144.668 L185.579 144.171 L186.725 141.686 L186.955 141.189 L187.642 139.698 L187.871 139.201 L188.101 138.703 L187.842 138.476 L187.583 138.248 L187.066 137.793 L186.807 137.565 L186.29 137.11 L186.032 136.883 L185.514 136.427 L185.256 136.2 L184.997 135.972 L184.738 135.744 L184.221 135.289 L183.962 135.062 L183.704 134.834 L183.048 133.445 L182.392 132.056 L179.113 125.11 L178.457 123.721 L175.177 116.776 L174.522 115.387 L173.866 113.998 L173.21 112.609 L172.554 111.22 L172.641 111.07 L172.728 110.921 L172.902 110.623 L172.989 110.474 L173.25 110.027 L173.337 109.877 L173.598 109.43 L173.685 109.281 L173.859 108.983 L173.946 108.833 L174.033 108.684 L173.715 108.718 L173.556 108.734 L173.239 108.767 L173.08 108.784 L172.762 108.817 L172.604 108.833 L172.127 108.883 L171.968 108.9 L171.651 108.933 L171.492 108.949 L171.333 108.966 L170.879 108.495 L170.425 108.024 L169.062 106.612 L168.608 106.141 L168.153 105.67 L167.699 105.199 L167.245 104.728 L166.79 104.258 L166.336 103.787 L165.882 103.316 L164.973 102.374 L164.519 101.903 L164.065 101.432 L163.61 100.962 L163.501 101.359 L163.392 101.757 L163.174 102.552 L163.065 102.95 L162.956 103.348 L162.738 104.143 L162.629 104.541 L162.41 105.336 L162.301 105.734 L161.974 106.927 L161.865 107.324 L161.756 107.722 L161.073 109.06 L160.845 109.506 L160.389 110.398 L160.161 110.844 L159.933 111.29 L159.705 111.736 L159.022 113.074 L158.794 113.52 L158.339 114.412 L158.111 114.858 L157.883 115.304 L158.083 116.402 L158.284 117.5 L158.484 118.599 L158.684 119.697 L158.885 120.795 L159.486 124.09 L159.686 125.188 L160.087 127.384 L160.287 128.483 L160.688 130.679 L160.888 131.777 L161.089 132.876 L161.289 133.974 L164.768 133.974 C165.739 133.909 166.839 134.794 166.983 135.756 L167.36 137.472 L167.743 139.221 L168.127 140.97 L168.51 142.719 L168.894 144.468 L169.277 146.217 L169.661 147.966 L170.428 151.464 L170.812 153.213 L171.195 154.962 L171.579 156.711 L172.346 160.209 L172.729 161.958 L172.907 162.768 C173.042 163.344 172.916 164.02 172.581 164.508 L172.439 164.723 L172.27 164.977 L172.102 165.231 L171.933 165.484 L171.596 165.992 L171.427 166.246 L171.259 166.5 L171.09 166.754 L170.922 167.008 L170.806 167.182 C170.457 167.691 170.336 168.406 170.5 169.002 L170.52 169.083 L170.559 169.234 L170.598 169.385 L170.637 169.536 L170.676 169.688 L170.715 169.839 L170.754 169.99 L170.832 170.293 L170.871 170.444 L170.91 170.595 L171.426 170.619 L171.685 170.631 L172.459 170.666 L172.717 170.678 L173.75 170.725 L173.886 170.731 C174.683 170.739 175.541 171.319 175.846 172.056 L176.048 172.482 L176.297 173.044 L176.546 173.606 L176.796 174.168 L177.045 174.73 L177.295 175.292 L177.544 175.854 L177.794 176.416 L178.043 176.978 L178.292 177.54 L178.542 178.102 L178.791 178.664 L179.041 179.226 L179.29 179.788 L179.388 180.009 L179.574 180.723 L179.586 180.857 L179.632 181.363 L179.77 182.882 L179.816 183.388 L179.908 184.401 L179.954 184.907 L180.046 185.92 L180.092 186.426 L180.138 186.932 L180.184 187.439 L180.22 187.838 C180.293 188.494 180.014 189.237 179.528 189.683 L179.342 189.878 L179.146 190.062 L178.754 190.43 L178.558 190.614 L178.166 190.983 L178.056 191.086 C177.428 191.629 177.162 192.698 177.462 193.472 L177.543 193.71 L178.097 195.333 L178.652 196.956 L179.206 198.579 L180.314 201.825 L180.868 203.447 L181.422 205.07 L181.976 206.693 L182.53 208.316 L183.084 209.939 L184.192 213.185 L184.746 214.807 L186.408 219.676 L187.635 220.441 L188.863 221.207 L191.317 222.738 L192.545 223.503 L197.454 226.565 L198.682 227.33 L201.136 228.861 L202.364 229.626 L203.591 230.392 L204.819 231.157 L205.939 231.856 C206.736 232.322 207.3 233.337 207.273 234.261 L207.273 236.658 L175.464 236.658 L173.721 236.644 C172.432 236.747 170.967 235.455 170.909 234.163 L170.83 233.539 L170.595 231.667 L170.517 231.043 L170.438 230.419 L170.36 229.795 L170.125 227.923 L170.046 227.299 L169.968 226.676 L169.889 226.052 L168.715 223.671 L162.845 211.77 L161.671 209.39 L160.497 207.01 L159.323 204.63 L158.149 202.25 L156.976 199.869 L152.28 190.349 L151.324 188.411 C150.971 187.724 150.936 186.819 151.233 186.107 C151.507 185.386 152.156 184.753 152.884 184.498 L153.103 184.416 L153.808 184.156 L154.161 184.026 L154.865 183.766 L155.218 183.635 L155.923 183.375 L156.061 182.662 L156.095 182.483 L156.13 182.305 L156.164 182.127 L156.302 181.414 L156.337 181.235 L156.371 181.057 L156.474 180.522 L156.509 180.344 L154.867 175.834 L154.045 173.579 L152.403 169.07 L151.582 166.815 L150.76 164.56 L149.939 162.306 L148.297 157.796 L147.476 155.541 L146.654 153.287 L145.833 151.032 L144.191 146.523 L143.369 144.268 L142.75 142.575 C142.616 142.205 142.398 141.857 142.124 141.575 L141.912 141.355 L141.806 141.246 L141.594 141.026 L141.582 141.014 C141.075 140.474 140.284 140.139 139.544 140.149 L137.747 140.149 L137.474 140.155 C136.648 140.14 135.754 140.575 135.255 141.234 L135.197 141.307 L135.096 141.436 L134.994 141.565 L134.893 141.693 L134.791 141.822 L134.69 141.951 L134.685 141.956 L134.229 142.795 L133.569 144.724 L132.753 147.111 L131.937 149.498 L131.12 151.885 L129.487 156.659 L128.671 159.046 L126.222 166.207 L125.406 168.594 L122.956 175.756 L122.14 178.143 L121.324 180.53 L121.164 180.997 C120.752 182.028 121.183 183.493 122.087 184.137 L122.195 184.231 L122.42 184.406 L123.028 184.406 C124.423 184.265 126.004 185.846 125.863 187.241 L125.863 187.924 C125.868 188.557 125.632 189.223 125.229 189.711 L124.972 190.027 L124.675 190.393 L124.378 190.758 L123.785 191.49 L123.488 191.855 L123.191 192.221 L122.894 192.587 L122.597 192.953 L122.3 193.318 L122.003 193.684 L121.707 194.05 L121.41 194.415 L121.113 194.781 L120.816 195.147 L120.174 196.243 L119.532 197.34 L118.891 198.436 L118.249 199.532 L117.607 200.629 L116.965 201.725 L116.324 202.822 L115.682 203.918 L115.04 205.015 L114.398 206.111 L113.757 207.208 L113.115 208.304 L112.473 209.401 L111.831 210.497 L111.19 211.593 L110.548 212.69 L109.906 213.786 L109.119 215.517 L108.856 216.094 L107.807 218.401 L107.544 218.978 L107.019 220.131 L106.757 220.708 L106.495 221.285 L106.232 221.862 L105.445 223.592 L105.445 234.453 L66.587 234.453 L66.587 232.379 C66.552 231.387 67.222 230.286 68.119 229.862 L69.419 229.189 L70.835 228.456 L73.667 226.991 L75.084 226.258 L77.916 224.793 L79.332 224.06 L80.748 223.327 L82.164 222.595 L83.58 221.862 L84.996 221.129 L87.828 219.664 L89.244 218.931 L90.66 218.198 L91.151 216.4 L91.642 214.602 L92.624 211.006 L93.115 209.209 L93.606 207.411 L94.097 205.613 L94.588 203.815 L95.571 200.219 L96.062 198.421 L97.044 194.825 L97.535 193.027 L98.026 191.229 L98.522 189.432 C98.858 188.507 98.287 187.184 97.383 186.794 L96.88 186.534 L96.644 186.412 L96.407 186.29 C95.599 185.922 95.036 184.839 95.201 183.967 L95.269 183.509 L95.339 182.998 L95.409 182.486 L95.48 181.974 L95.55 181.462 L95.62 180.95 L95.69 180.438 L95.76 179.927 L95.83 179.415 L95.9 178.903 L95.971 178.391 L96.041 177.879 L96.111 177.367 L96.125 177.264 L96.378 176.493 L96.432 176.392 L96.683 175.928 L96.934 175.465 L97.185 175.001 L97.436 174.538 L97.687 174.074 L97.938 173.611 L98.189 173.147 L98.44 172.684 L98.691 172.22 L98.942 171.756 L99.193 171.293 L99.444 170.829 L99.695 170.366 L99.946 169.902 C100.232 169.351 100.814 168.907 101.421 168.775 L101.507 168.742 L102.556 168.471 L103.592 168.149 L104.604 167.761 L105.575 167.28 L106.462 166.659 L107.167 165.841 L107.507 164.821 L107.409 163.747 L107.012 162.74 L106.455 161.81 L105.81 160.939 L105.113 160.108 L104.384 159.306 L103.635 158.522 L102.875 157.749 C102.413 157.302 102.155 156.581 102.225 155.943 L102.243 155.482 L102.394 153.985 L102.561 152.489 L102.744 150.995 L102.944 149.503 L103.16 148.014 L103.392 146.527 L103.642 145.042 L103.908 143.561 L104.191 142.083 L104.491 140.608 L104.808 139.136 L105.142 137.669 L105.493 136.205 L105.861 134.746 L106.242 133.312 C106.428 132.477 107.299 131.722 108.151 131.655 L108.349 131.631 L109.198 131.525 L109.623 131.473 L110.896 131.315 L111.321 131.262 L113.869 130.947 z" fill-rule="nonzero" stroke-width="0px" style="fill:#FFFFC9;" />
    
	<defs>
        <radialGradient cx="136.5" cy="136.5" r="133.8" gradientUnits="userSpaceOnUse" id="Radial">
			<stop offset="0%" stop-color="#E5E5E5" stop-opacity="1" />
			<stop offset="100%" stop-color="transparent" stop-opacity="1" />
		</radialGradient>
    </defs>
	
</svg>