<?xml version="1.0" encoding="UTF-8" standalone="no"?>
<!DOCTYPE svg PUBLIC "-//W3C//DTD SVG 1.1//EN" "http://www.w3.org/Graphics/SVG/1.1/DTD/svg11.dtd">
<svg width="91" height="91" viewBox="0 0 91 91" version="1.1" xmlns="http://www.w3.org/2000/svg" xmlns:xlink="http://www.w3.org/1999/xlink" xml:space="preserve" xmlns:serif="http://www.serif.com/" style="fill-rule:evenodd;clip-rule:evenodd;stroke-linejoin:round;stroke-miterlimit:2;">
	<filter xmlns="http://www.w3.org/2000/svg" id="dropshadow" height="150%" x="-10%" y="-25%">
      <feGaussianBlur in="SourceAlpha" stdDeviation="2"/> 
      <feOffset dx="0" dy="0" result="offsetblur"/> 
      <feMerge> 
        <feMergeNode/>
        <feMergeNode in="SourceGraphic"/> 
      </feMerge>
    </filter>
    <g transform="matrix(1,0,0,1,-153.134,-218.018)">
        <g transform="matrix(1,0,0,1,9,26)">
			<path d="M164.704,199.443C167.194,197.813 169.844,196.429 172.604,195.316C175.365,194.203 178.234,193.363 181.159,192.81C184.083,192.257 187.062,191.992 190.038,192.021C193.013,192.049 195.987,192.37 198.9,192.979C201.813,193.587 204.666,194.482 207.405,195.647C210.143,196.812 212.767,198.247 215.226,199.924C217.684,201.601 219.978,203.52 222.062,205.644C224.146,207.768 226.021,210.098 227.651,212.588C229.281,215.078 230.665,217.729 231.778,220.489C232.891,223.249 233.731,226.119 234.284,229.043C234.837,231.968 235.102,234.946 235.073,237.922C235.045,240.898 234.724,243.871 234.115,246.784C233.507,249.698 232.612,252.551 231.447,255.289C230.282,258.028 228.847,260.652 227.17,263.11C225.493,265.569 223.574,267.862 221.45,269.947C219.326,272.031 216.996,273.906 214.506,275.536C212.016,277.165 209.365,278.55 206.605,279.663C203.845,280.775 200.975,281.616 198.051,282.169C195.126,282.722 192.148,282.986 189.172,282.958C186.196,282.93 183.223,282.608 180.31,282C177.396,281.392 174.543,280.496 171.805,279.331C169.066,278.166 166.442,276.732 163.984,275.055C161.525,273.378 159.232,271.459 157.147,269.334C155.063,267.21 153.188,264.881 151.558,262.39C149.929,259.9 148.544,257.25 147.431,254.49C146.319,251.729 145.478,248.86 144.925,245.935C144.372,243.011 144.108,240.032 144.136,237.056C144.164,234.081 144.486,231.107 145.094,228.194C145.702,225.281 146.598,222.428 147.763,219.689C148.928,216.951 150.362,214.327 152.039,211.868C153.716,209.41 155.635,207.116 157.76,205.032C159.884,202.948 162.213,201.073 164.704,199.443Z" style="fill:rgb(197,89,40);fill-rule:nonzero;"/>

            <g id="icon_guild" filter="url(#dropshadow)" stroke="black" stroke-width="0.5">
                <path d="M177.983,235.403C177.984,235.398 178.135,234.66 178.236,234.298C178.338,233.934 178.459,233.574 178.595,233.222C178.731,232.87 178.886,232.522 179.055,232.185C179.225,231.848 179.412,231.517 179.613,231.198C179.814,230.878 180.031,230.567 180.262,230.268C180.493,229.969 180.74,229.68 180.998,229.405C181.257,229.13 181.53,228.866 181.813,228.617C182.097,228.368 182.394,228.131 182.701,227.91C183.007,227.689 183.325,227.482 183.651,227.292C183.977,227.102 184.314,226.926 184.657,226.768C185,226.61 185.352,226.467 185.708,226.343C186.065,226.218 186.429,226.11 186.796,226.02C187.162,225.931 187.535,225.858 187.909,225.804C188.282,225.75 188.66,225.713 189.038,225.695C189.415,225.677 189.795,225.677 190.172,225.695C190.549,225.713 190.927,225.75 191.301,225.804C191.674,225.858 192.047,225.931 192.414,226.02C192.78,226.11 193.144,226.218 193.501,226.343C193.857,226.467 194.209,226.61 194.552,226.768C194.895,226.926 195.232,227.102 195.558,227.292C195.884,227.482 196.202,227.689 196.509,227.91C196.815,228.131 197.112,228.368 197.396,228.617C197.68,228.866 197.953,229.13 198.211,229.405C198.47,229.68 198.716,229.969 198.947,230.268C199.178,230.567 199.395,230.878 199.597,231.198C199.798,231.517 199.984,231.848 200.154,232.185C200.324,232.522 200.478,232.87 200.614,233.222C200.751,233.574 200.871,233.934 200.973,234.298C201.075,234.661 201.227,235.403 201.227,235.403L203.648,235.403C203.649,235.395 204.016,233.827 204.313,233.087C204.611,232.346 204.993,231.62 205.435,230.955C205.877,230.289 206.398,229.656 206.966,229.094C207.534,228.532 208.173,228.018 208.843,227.583C209.513,227.149 210.243,226.775 210.988,226.485C211.732,226.195 212.523,225.978 213.31,225.845C214.098,225.713 214.916,225.66 215.715,225.69C216.513,225.72 217.325,225.834 218.101,226.026C218.876,226.217 219.648,226.494 220.369,226.839C221.089,227.184 221.789,227.612 222.425,228.096C223.06,228.58 223.658,229.141 224.182,229.744C224.706,230.347 225.178,231.017 225.569,231.714C225.96,232.411 226.286,233.164 226.527,233.925C226.768,234.687 226.934,235.49 227.016,236.285C227.097,237.079 227.097,237.899 227.016,238.694C226.934,239.489 226.768,240.292 226.527,241.053C226.286,241.815 225.96,242.567 225.569,243.264C225.178,243.961 224.706,244.632 224.182,245.235C223.658,245.838 223.06,246.398 222.425,246.883C221.789,247.367 221.089,247.794 220.369,248.139C219.648,248.484 218.876,248.761 218.101,248.953C217.325,249.144 216.513,249.259 215.715,249.289C214.916,249.319 214.098,249.266 213.31,249.133C212.523,249.001 211.732,248.783 210.988,248.493C210.243,248.204 209.513,247.83 208.843,247.395C208.173,246.96 207.534,246.446 206.966,245.884C206.398,245.322 205.877,244.689 205.435,244.024C204.993,243.358 204.611,242.633 204.313,241.891C204.015,241.15 203.648,239.576 203.648,239.576L201.227,239.576C201.227,239.576 201.075,240.317 200.973,240.681C200.871,241.045 200.751,241.405 200.614,241.757C200.478,242.109 200.324,242.456 200.154,242.793C199.984,243.131 199.798,243.461 199.597,243.781C199.395,244.101 199.178,244.412 198.947,244.711C198.716,245.009 198.47,245.298 198.211,245.573C197.953,245.849 197.68,246.113 197.396,246.362C197.112,246.611 196.815,246.848 196.509,247.068C196.202,247.289 195.884,247.496 195.558,247.686C195.232,247.877 194.895,248.052 194.552,248.211C194.209,248.369 193.857,248.511 193.501,248.636C193.144,248.76 192.78,248.868 192.414,248.958C192.047,249.048 191.674,249.12 191.301,249.175C190.927,249.229 190.549,249.265 190.172,249.284C189.795,249.302 189.415,249.302 189.038,249.284C188.66,249.265 188.282,249.229 187.909,249.175C187.535,249.12 187.162,249.048 186.796,248.958C186.429,248.868 186.065,248.76 185.708,248.636C185.352,248.511 185,248.369 184.657,248.211C184.314,248.052 183.977,247.877 183.651,247.686C183.325,247.496 183.007,247.289 182.701,247.068C182.394,246.848 182.097,246.611 181.813,246.362C181.53,246.113 181.257,245.849 180.998,245.573C180.74,245.298 180.493,245.009 180.262,244.711C180.031,244.412 179.814,244.101 179.613,243.781C179.412,243.461 179.225,243.131 179.055,242.793C178.886,242.456 178.731,242.109 178.595,241.757C178.459,241.405 178.338,241.045 178.236,240.681C178.134,240.317 177.983,239.576 177.983,239.576L175.562,239.576C175.562,239.576 175.194,241.15 174.896,241.891C174.598,242.633 174.217,243.358 173.775,244.024C173.332,244.689 172.811,245.322 172.243,245.884C171.675,246.446 171.037,246.96 170.366,247.395C169.696,247.83 168.966,248.204 168.222,248.493C167.477,248.783 166.687,249.001 165.899,249.133C165.111,249.266 164.293,249.319 163.494,249.289C162.696,249.259 161.884,249.144 161.109,248.953C160.333,248.761 159.561,248.484 158.841,248.139C158.12,247.794 157.42,247.367 156.785,246.883C156.149,246.398 155.551,245.838 155.027,245.235C154.503,244.632 154.031,243.961 153.64,243.264C153.25,242.567 152.924,241.815 152.683,241.053C152.441,240.292 152.275,239.489 152.193,238.694C152.112,237.899 152.112,237.079 152.193,236.285C152.275,235.49 152.441,234.687 152.683,233.925C152.924,233.164 153.25,232.411 153.64,231.714C154.031,231.017 154.503,230.347 155.027,229.744C155.551,229.141 156.149,228.58 156.785,228.096C157.42,227.612 158.12,227.184 158.841,226.839C159.561,226.494 160.333,226.217 161.109,226.026C161.884,225.834 162.696,225.72 163.494,225.69C164.293,225.66 165.111,225.713 165.899,225.845C166.687,225.978 167.477,226.195 168.222,226.485C168.966,226.775 169.696,227.149 170.366,227.583C171.037,228.018 171.675,228.532 172.243,229.094C172.811,229.656 173.332,230.289 173.775,230.955C174.217,231.62 174.598,232.346 174.896,233.087C175.194,233.828 175.562,235.403 175.562,235.403L177.983,235.403ZM157.348,237.489C157.348,237.061 157.391,236.624 157.475,236.203C157.558,235.783 157.686,235.363 157.85,234.967C158.014,234.571 158.221,234.184 158.459,233.827C158.697,233.471 158.976,233.131 159.279,232.828C159.582,232.525 159.921,232.247 160.278,232.009C160.634,231.77 161.021,231.563 161.417,231.399C161.813,231.235 162.233,231.108 162.654,231.024C163.074,230.941 163.511,230.898 163.94,230.898C164.368,230.898 164.805,230.941 165.226,231.024C165.646,231.108 166.066,231.235 166.462,231.399C166.858,231.563 167.245,231.77 167.602,232.009C167.958,232.247 168.297,232.525 168.601,232.828C168.904,233.131 169.182,233.471 169.42,233.827C169.659,234.184 169.865,234.571 170.03,234.967C170.194,235.363 170.321,235.783 170.405,236.203C170.488,236.624 170.531,237.061 170.531,237.489C170.531,237.918 170.488,238.355 170.405,238.775C170.321,239.196 170.194,239.616 170.03,240.012C169.865,240.408 169.659,240.795 169.42,241.151C169.182,241.508 168.904,241.847 168.601,242.15C168.297,242.453 167.958,242.732 167.602,242.97C167.245,243.208 166.858,243.415 166.462,243.579C166.066,243.743 165.646,243.871 165.226,243.954C164.805,244.038 164.368,244.081 163.94,244.081C163.511,244.081 163.074,244.038 162.654,243.954C162.233,243.871 161.813,243.743 161.417,243.579C161.021,243.415 160.634,243.208 160.278,242.97C159.921,242.732 159.582,242.453 159.279,242.15C158.976,241.847 158.697,241.508 158.459,241.151C158.221,240.795 158.014,240.408 157.85,240.012C157.686,239.616 157.558,239.196 157.475,238.775C157.391,238.355 157.348,237.918 157.348,237.489ZM221.861,237.489C221.861,237.061 221.818,236.624 221.735,236.203C221.651,235.783 221.524,235.363 221.36,234.967C221.195,234.571 220.989,234.184 220.75,233.827C220.512,233.471 220.234,233.131 219.931,232.828C219.627,232.525 219.288,232.247 218.932,232.009C218.575,231.77 218.188,231.563 217.792,231.399C217.396,231.235 216.976,231.108 216.556,231.024C216.135,230.941 215.698,230.898 215.27,230.898C214.841,230.898 214.404,230.941 213.984,231.024C213.563,231.108 213.143,231.235 212.747,231.399C212.351,231.563 211.964,231.77 211.607,232.009C211.251,232.247 210.912,232.525 210.609,232.828C210.305,233.131 210.027,233.471 209.789,233.827C209.551,234.184 209.344,234.571 209.18,234.967C209.016,235.363 208.888,235.783 208.805,236.203C208.721,236.624 208.678,237.061 208.678,237.489C208.678,237.918 208.721,238.355 208.805,238.775C208.888,239.196 209.016,239.616 209.18,240.012C209.344,240.408 209.551,240.795 209.789,241.151C210.027,241.508 210.305,241.847 210.609,242.15C210.912,242.453 211.251,242.732 211.607,242.97C211.964,243.208 212.351,243.415 212.747,243.579C213.143,243.743 213.563,243.871 213.984,243.954C214.404,244.038 214.841,244.081 215.27,244.081C215.698,244.081 216.135,244.038 216.556,243.954C216.976,243.871 217.396,243.743 217.792,243.579C218.188,243.415 218.575,243.208 218.932,242.97C219.288,242.732 219.627,242.453 219.931,242.15C220.234,241.847 220.512,241.508 220.75,241.151C220.989,240.795 221.195,240.408 221.36,240.012C221.524,239.616 221.651,239.196 221.735,238.775C221.818,238.355 221.861,237.918 221.861,237.489ZM196.196,237.489C196.196,237.061 196.153,236.624 196.07,236.203C195.986,235.783 195.859,235.363 195.695,234.967C195.53,234.571 195.324,234.184 195.085,233.827C194.847,233.471 194.569,233.131 194.266,232.828C193.963,232.525 193.623,232.247 193.267,232.009C192.91,231.77 192.523,231.563 192.127,231.399C191.731,231.235 191.311,231.108 190.891,231.024C190.47,230.941 190.033,230.898 189.605,230.898C189.176,230.898 188.739,230.941 188.319,231.024C187.898,231.108 187.478,231.235 187.082,231.399C186.686,231.563 186.299,231.77 185.943,232.009C185.586,232.247 185.247,232.525 184.944,232.828C184.641,233.131 184.362,233.471 184.124,233.827C183.886,234.184 183.679,234.571 183.515,234.967C183.351,235.363 183.223,235.783 183.14,236.203C183.056,236.624 183.013,237.061 183.013,237.489C183.013,237.918 183.056,238.355 183.14,238.775C183.223,239.196 183.351,239.616 183.515,240.012C183.679,240.408 183.886,240.795 184.124,241.151C184.362,241.508 184.641,241.847 184.944,242.15C185.247,242.453 185.586,242.732 185.943,242.97C186.299,243.208 186.686,243.415 187.082,243.579C187.478,243.743 187.898,243.871 188.319,243.954C188.739,244.038 189.176,244.081 189.605,244.081C190.033,244.081 190.47,244.038 190.891,243.954C191.311,243.871 191.731,243.743 192.127,243.579C192.523,243.415 192.91,243.208 193.267,242.97C193.623,242.732 193.963,242.453 194.266,242.15C194.569,241.847 194.847,241.508 195.085,241.151C195.324,240.795 195.53,240.408 195.695,240.012C195.859,239.616 195.986,239.196 196.07,238.775C196.153,238.355 196.196,237.918 196.196,237.489Z" style="fill:white;"/>
            </g>
        </g>
    </g>
</svg>
