<?xml version="1.0" encoding="utf-8"?>
<!DOCTYPE svg PUBLIC "-//W3C//DTD SVG 1.1//EN" "http://www.w3.org/Graphics/SVG/1.1/DTD/svg11.dtd">
<svg version="1.1" xmlns="http://www.w3.org/2000/svg" xmlns:xlink="http://www.w3.org/1999/xlink" xmlns:xml="http://www.w3.org/XML/1998/namespace" xmlns:serif="http://www.serif.com/" width="91" height="91" viewBox="0, 0, 91, 91" xml:space="preserve" fill-rule="evenodd" stroke-linejoin="round" stroke-miterlimit="2" style="clip-rule:evenodd;">
	<filter xmlns="http://www.w3.org/2000/svg" x="-10%" y="-25%" height="150%" id="dropshadow">
      <feGaussianBlur stdDeviation="2" in="SourceAlpha" /> 
      <feOffset dx="0" dy="0" result="offsetblur" /> 
      <feMerge> 
        <feMergeNode />
        <feMergeNode in="SourceGraphic" /> 
      </feMerge>
    </filter>
	<path d="M20.6 7.4 C23.1 5.8 25.7 4.4 28.5 3.3 C31.2 2.2 34.1 1.3 37 0.8 C39.9 0.2 42.9 -0 45.9 0 C48.9 0 51.9 0.4 54.8 1 C57.7 1.6 60.5 2.5 63.3 3.6 C66 4.8 68.6 6.2 71.1 7.9 C73.6 9.6 75.8 11.5 77.9 13.6 C80 15.8 81.9 18.1 83.5 20.6 C85.1 23.1 86.5 25.7 87.6 28.5 C88.8 31.2 89.6 34.1 90.1 37 C90.7 39.9 91 42.9 90.9 45.9 C90.9 48.9 90.6 51.9 90 54.8 C89.4 57.7 88.5 60.5 87.3 63.3 C86.1 66 84.7 68.6 83 71.1 C81.4 73.6 79.4 75.8 77.3 77.9 C75.2 80 72.9 81.9 70.4 83.5 C67.9 85.1 65.2 86.5 62.5 87.6 C59.7 88.8 56.8 89.6 53.9 90.2 C51 90.7 48 91 45 90.9 C42.1 90.9 39.1 90.6 36.2 90 C33.3 89.4 30.4 88.5 27.7 87.3 C24.9 86.1 22.3 84.7 19.8 83 C17.4 81.4 15.1 79.4 13 77.3 C10.9 75.2 9.1 72.9 7.4 70.4 C5.8 67.9 4.4 65.2 3.3 62.5 C2.2 59.7 1.3 56.8 0.8 53.9 C0.2 51 -0 48 0 45 C0 42.1 0.4 39.1 1 36.2 C1.6 33.3 2.5 30.4 3.6 27.7 C4.8 24.9 6.2 22.3 7.9 19.8 C9.6 17.4 11.5 15.1 13.6 13 C15.8 10.9 18.1 9.1 20.6 7.4 z" fill-rule="nonzero" style="fill:#C55928;" />

    <path
   style="fill:#fafaee;stroke:#000000;stroke-width:0.291"
   d="m 24.175781,8.4960938 c -1.055847,0.9236941 -2.215955,1.7796172 -3.208984,2.7441402 -0.423996,1.621925 -0.984909,3.248005 -1.326172,4.867188 0.277149,0.763506 0.55375,1.527211 0.830078,2.291016 0.653708,-0.501068 1.553802,-0.769834 1.826943,-1.62239 0.868512,-1.636439 1.867497,-3.24823 2.653526,-4.901048 -0.15192,-1.208765 -0.247895,-2.4254971 -0.4375,-3.6289062 -0.11263,0.083333 -0.225261,0.1666666 -0.337891,0.25 z m 32.328125,0.025391 c -0.184737,0.3845127 -1.141224,0.7578611 -0.632197,1.1503888 1.064157,1.1435208 2.075691,2.3673408 3.173213,3.4609388 1.57865,0.530275 3.208221,0.967467 4.756334,1.55251 1.285408,1.13467 2.70095,2.146772 3.90135,3.36194 1.664542,2.282679 3.427554,4.507817 5.02761,6.828614 1.297311,2.930727 2.650414,5.84378 3.910481,8.786637 0.542683,2.849726 1.190792,5.689046 1.667897,8.5453 -0.02628,2.412141 0.05203,4.834518 -0.03877,7.240346 -0.567084,2.787895 -1.073476,5.595631 -1.679145,8.371047 -1.401413,2.964471 -2.730104,5.977868 -4.172962,8.913699 -2.409763,2.524298 -4.767634,5.116717 -7.211003,7.597406 -2.686398,1.416016 -5.349032,2.893606 -8.049827,4.272043 -2.408986,0.567731 -4.801707,1.266213 -7.220167,1.755068 -3.006329,-0.01627 -6.02066,0.03242 -9.022011,-0.02427 C 38.445114,79.683047 35.9308,79.150988 33.488732,78.428908 31.155392,77.188735 28.776965,76.011297 26.470971,74.733335 24.285075,72.600389 22.039203,70.51379 19.892111,68.350494 18.613109,66.047456 17.251827,63.782017 16.026198,61.454332 15.086616,58.767217 14.054861,56.096311 13.169996,53.4 c 0.0035,-5.214063 0.0081,-10.428126 0.0136,-15.642188 1.036958,-3.007964 1.982633,-6.056193 3.074066,-9.039857 1.288886,-2.242509 2.473452,-4.560886 3.825979,-6.756829 2.252288,-2.41648 4.505033,-4.832535 6.758158,-7.248235 1.71411,-0.487695 3.48856,-0.876782 5.166015,-1.423829 1.140509,-1.262474 2.281926,-2.52413 3.421876,-3.7871089 C 34.919446,9.24787 34.449316,8.7078297 33.916016,8.6152344 32.582004,9.0368198 31.194306,9.372406 29.892578,9.8457031 25.855975,14.233308 21.796931,18.605216 17.771484,23 c -1.211383,2.51555 -2.513693,4.994518 -3.672925,7.530743 -0.798416,2.629598 -1.683445,5.2434 -2.432272,7.881601 -0.181694,3.671057 -0.458253,7.349386 -0.584062,11.015769 0.631138,3.040752 1.19061,6.105008 1.862957,9.131897 1.352633,2.995141 2.672387,6.011904 4.043099,8.994678 2.846232,3.004237 5.668946,6.040456 8.53125,9.023437 2.903464,1.438652 5.778605,2.954699 8.699024,4.34661 2.479865,0.550221 4.950719,1.176173 7.436127,1.679828 2.503988,0.0065 5.01613,0.0918 7.515196,0.04754 2.692301,-0.622708 5.415436,-1.158751 8.088833,-1.83483 2.860265,-1.493293 5.744904,-2.953918 8.588945,-4.469619 2.751027,-2.958656 5.532185,-5.897578 8.261719,-8.871094 1.338275,-3.038345 2.736645,-6.056488 4.038136,-9.107198 0.498037,-2.253079 1.082472,-4.496104 1.531443,-6.754518 C 79.6407,47.363652 79.631115,43.107388 79.572266,38.859375 78.499675,35.572851 77.481114,32.263635 76.372868,28.99184 75.153155,26.754455 74.010365,24.46193 72.742073,22.259152 68.6999,17.956522 64.656874,13.65469 60.615234,9.3515625 59.277541,9.0395329 57.940239,8.7257251 56.601562,8.4179688 l -0.06862,0.072739 z m 9.326172,0.3398437 c 0.384497,1.7447639 0.715459,3.5137729 1.13086,5.2441409 1.070565,1.485677 2.137828,2.973735 3.208984,4.458984 0.336949,-0.73122 0.803004,-1.438555 1.0625,-2.183594 -0.226605,-1.36311 -0.343143,-2.775469 -0.634766,-4.109375 -1.091166,-1.237038 -2.181247,-2.475033 -3.271484,-3.7128902 -0.466659,0.070312 -1.278051,-0.1384423 -1.539723,0.097808 0.01454,0.068309 0.02909,0.1366177 0.04363,0.2049265 z m 7.269531,6.3515629 c 0.160785,2.522089 0.240176,5.069922 0.451172,7.576171 0.819217,1.244645 1.498706,2.59346 2.410157,3.769532 0.551295,-1.213466 0.82522,-2.541595 1.271484,-3.798828 -0.284031,-1.450167 -0.473175,-2.945292 -0.810547,-4.369141 -0.997117,-1.1254 -1.935529,-2.322213 -2.969668,-3.403074 -0.304657,-0.256687 -0.260152,-0.05284 -0.352598,0.22534 z m -56.746093,0.77539 c -0.759202,1.362413 -1.607677,2.701174 -2.308594,4.080078 0.06942,1.426804 -0.187146,2.894687 0.313307,4.267 0.147906,0.588149 0.298122,1.175721 0.444505,1.76425 0.67238,0.150161 1.074957,-0.112027 1.197443,-0.79582 0.645742,-1.542823 1.346071,-3.074602 1.958807,-4.624101 0.0105,-1.605461 0.01788,-3.210941 0.02734,-4.816407 -0.508472,0.0832 -1.251669,-0.16875 -1.632812,0.125 z m 10.144531,1.134766 c -1.412836,0.910734 -2.822719,1.825705 -4.234375,2.738281 0.670341,0.474668 1.340358,0.949798 2.009766,1.425781 1.349324,-0.226563 2.725538,-0.388661 4.058593,-0.654297 1.065756,-0.741821 2.132588,-1.482094 3.199219,-2.222656 -0.681799,-0.420087 -1.326377,-0.958897 -2.027344,-1.3125 -0.996804,0.02522 -2.02815,-0.06441 -3.005859,0.02539 z m 36.582031,-0.03125 c -0.711312,0.05968 -1.521955,-0.206133 -2.070429,0.383243 -0.478806,0.3213 -0.957631,0.642575 -1.437383,0.96246 0.47084,0.554206 0.968539,1.070541 1.690657,1.274619 1.121231,0.468502 2.204709,1.107941 3.348786,1.472835 0.774651,-0.02144 1.586648,0.08384 2.339463,-0.01503 0.647638,-0.434466 1.29443,-0.870198 1.943359,-1.302734 -1.466456,-0.910889 -2.896114,-1.936898 -4.380859,-2.783204 -0.477865,0.0026 -0.955729,0.0052 -1.433594,0.0078 z m -42.134766,6.152344 c -0.961687,1.020703 -1.923786,2.041018 -2.886718,3.060547 0,0.59375 0,1.187499 0,1.78125 1.375624,-0.327347 2.781265,-0.590563 4.138672,-0.957032 1.275352,-1.014204 2.549489,-2.029936 3.824218,-3.044922 0.09106,-0.647046 0.02557,-1.137547 -0.75,-0.917968 -1.417317,0 -2.834635,0 -4.251953,0 l -0.06888,0.0725 z m 43.841797,-0.0039 c 0.873992,1.239306 1.995515,2.297997 2.96875,3.464844 1.315224,0.348586 2.591679,0.900502 3.928037,1.13415 0.433525,-0.09167 1.402461,0.393619 1.405948,-0.163447 -0.03162,-0.570766 0.176558,-1.236646 -0.411359,-1.586457 -0.919019,-0.97491 -1.838219,-1.94965 -2.758563,-2.923308 -1.707071,0.04833 -3.438055,-0.09681 -5.132813,0.07422 z m 14.8125,1.056641 c -0.452685,1.832457 -0.956585,3.661123 -1.376953,5.496094 0.259382,1.627918 0.470238,3.272046 0.75586,4.890625 0.337457,0.540212 0.602737,1.128782 1.005859,1.625 0.888275,-1.858588 1.585182,-3.81014 2.398437,-5.705078 -0.252751,-1.355964 -0.449896,-2.735754 -0.742187,-4.076172 -0.640365,-0.851929 -1.146345,-1.815242 -1.875,-2.59375 -0.05534,0.121093 -0.110677,0.242187 -0.166016,0.363281 z m -17.74414,-0.142578 c -4.129721,4.29474 -8.259921,8.589019 -12.390625,12.882812 -1.255561,0.254494 -2.514723,0.642683 -3.767991,0.814197 -2.409408,-0.69183 -4.818774,-1.383808 -7.228103,-2.075915 -3.287555,-3.702079 -6.575151,-7.404121 -9.861328,-11.107422 -0.568016,0.603188 -1.136722,1.205726 -1.705078,1.808593 3.686233,3.923833 7.371327,7.848741 11.05664,11.773438 1.245475,0.247884 2.490969,0.495677 3.736328,0.744141 0.711431,0.700186 -0.0044,0.812187 -0.676332,0.942862 -0.719205,0.229132 -1.579612,0.22564 -1.989519,0.964242 -1.122714,1.225439 -2.241971,2.454059 -3.365399,3.678833 0.269832,0.736696 0.536502,1.474195 0.800782,2.212891 0.807291,0 1.614583,0 2.421875,0 0.898197,-1.014536 1.79685,-2.028668 2.695312,-3.042969 2.676433,0 5.352865,0 8.029297,0 2.328046,3.16276 4.604816,6.372851 6.965703,9.505509 0.526965,0.533766 1.257226,0.971614 1.663203,1.559335 0,0.607942 0,1.215885 0,1.823828 -0.687264,-0.09709 -1.574597,0.290479 -2.007319,-0.423237 -0.739093,-0.735878 -1.478882,-1.471058 -2.21729,-2.207623 -0.581029,0.379751 -1.162109,0.759424 -1.742187,1.140626 1.077817,1.194224 2.157253,2.386988 3.236328,3.580078 -0.53403,0.564324 -1.067273,1.129391 -1.59961,1.695312 -1.12799,-1.14351 -2.254705,-2.288276 -3.380859,-3.433594 -0.359775,0.613969 -0.717573,1.229094 -1.076172,1.84375 0.865601,0.983663 1.73599,1.963119 2.605469,2.94336 -0.529068,0.561414 -1.058355,1.122621 -1.587891,1.683594 -0.96884,-0.966709 -1.939262,-1.931832 -2.908203,-2.898438 -0.558888,0.595348 -1.120172,1.188444 -1.679688,1.783203 0.905721,1.026351 1.816233,2.048481 2.722657,3.074219 -0.413498,0.217179 -0.826944,1.364747 -1.241,0.88137 -0.68359,-0.724543 -1.366809,-1.449435 -2.050016,-2.174339 -0.02249,-1.381515 -0.04591,-2.763015 -0.06836,-4.144531 -1.022137,0.01557 -2.044287,0.03022 -3.066406,0.04687 0.18521,-0.620739 0.37345,-1.240571 0.558593,-1.861328 -0.696909,-0.738618 -1.393456,-1.47758 -2.091797,-2.214844 -0.610203,0.203896 -1.220109,0.408685 -1.830078,0.613281 0.132331,-0.540769 0.538747,-1.127443 0.506577,-1.641132 -0.506036,-0.645201 -1.009323,-1.292569 -1.516342,-1.936993 -0.681641,0 -1.363282,0 -2.044922,0 0.130908,-0.549506 0.553629,-1.158766 0.511936,-1.672799 -0.660522,-0.702463 -1.322344,-1.403707 -1.984593,-2.104544 -0.799069,0.223462 -1.599226,0.443047 -2.398437,0.666015 -1.268775,-1.305422 -2.537469,-2.610928 -3.808594,-3.914062 -0.965707,0.963329 -1.932859,1.925212 -2.898437,2.888671 -1.532464,-1.541145 -2.983083,-3.184172 -4.568597,-4.659786 -0.470695,-0.06036 -0.176139,1.065604 -0.259528,1.495724 0.08678,0.571391 -0.254299,1.315492 0.348129,1.678406 1.490187,1.543918 2.980769,3.087455 4.472183,4.630188 0.972981,-0.96516 1.943618,-1.932682 2.914063,-2.900391 0.743251,0.788636 1.486759,1.57703 2.230468,2.365235 -0.421302,0.83152 -1.074657,1.599823 -1.355468,2.46914 0.06434,0.577233 -0.123523,1.268165 0.08398,1.78086 0.653677,0.574834 1.307118,1.149936 1.960938,1.724609 0.494767,-0.326526 0.988276,-0.654955 1.482422,-0.982422 -0.309247,0.524736 -0.616076,1.050914 -0.927735,1.574219 0.562889,0.717792 1.123555,1.437339 1.6875,2.154297 0.783854,0 1.567708,0 2.351563,0 0.288757,-0.376723 0.447146,-0.975752 0.81289,-1.216797 0.94974,-0.161258 -0.189189,0.641801 -0.390571,1.011296 -0.233887,0.473418 -1.106752,0.831123 -0.801485,1.401362 0.277327,0.591853 0.37247,1.35753 0.748869,1.854195 0.650676,0.263399 1.300156,0.52975 1.950609,0.793694 0.730716,-0.70357 1.463125,-1.405384 2.195313,-2.107422 0.555354,0.433814 -0.571095,0.790312 -0.812957,1.187622 -0.590806,0.296301 -0.672415,0.823199 -0.583528,1.426831 0.116363,0.568067 -0.287645,1.371427 0.309249,1.722349 0.546832,0.47998 1.091704,0.962203 1.63997,1.440541 1.00008,-0.694545 2.000337,-1.388837 3,-2.083984 0.972994,1.029666 1.944005,2.061205 2.916016,3.091797 0.810571,-0.05709 1.707181,0.212971 2.376333,-0.378771 0.579641,-0.328152 1.157849,-0.65887 1.738901,-0.98451 0.06994,-0.523291 -0.138613,-1.325071 0.1,-1.679688 0.543568,0.05658 1.054907,0.03476 1.365404,-0.486488 2.730833,-2.655141 5.512476,-5.256951 8.28069,-7.872887 0.003,-1.115236 0.0087,-2.230467 0.01172,-3.345703 -0.955643,-0.953864 -1.912142,-1.906871 -2.869141,-2.859375 0.07675,-0.538258 -0.237915,-1.24331 0.360641,-1.559211 0.566576,-0.544127 1.133239,-1.088163 1.699906,-1.632195 1.063346,1.081828 2.128419,2.161961 3.191406,3.244141 2.666531,-2.852903 5.336008,-5.703061 8.003906,-8.554688 -0.477495,-2.296911 -0.878808,-4.61945 -1.412168,-6.898863 -1.091575,-2.238765 -2.108719,-4.524434 -3.245332,-6.734822 -1.382146,-1.667571 -2.759253,-3.339321 -4.141328,-5.00694 -0.06445,0.06706 -0.128906,0.134115 -0.193359,0.201172 z m -51.640625,0.410156 c -0.4336329,1.626151 -0.9685504,3.23854 -1.339844,4.873438 0.04456,0.966322 -0.1826705,1.984339 0.3477688,2.858335 0.4936551,1.251833 0.9873942,2.503636 1.4784032,3.756508 0.433567,-0.354729 1.089377,-0.568413 1.390625,-1.009765 0.240108,-1.665768 0.528889,-3.332391 0.736328,-4.998047 -0.449877,-1.887057 -0.89502,-3.775252 -1.345703,-5.66211 -0.366836,0.100572 -1.133934,-0.209614 -1.267578,0.181641 z m 61.609375,5.800781 c -1.023012,0.158058 -2.045713,0.318115 -3.06836,0.478516 1.219332,1.500241 2.389743,3.063474 3.638672,4.525391 1.220717,0.54489 2.441328,1.09002 3.66211,1.634765 0.571763,-0.402309 0.716145,-0.874661 0.266943,-1.449549 -0.576182,-1.207275 -1.050564,-2.510312 -1.690772,-3.657873 -0.93877,-0.488113 -1.852618,-1.139068 -2.808593,-1.53125 z M 21.177734,30.46875 c -0.907296,0.04927 -1.873036,-0.05922 -2.74414,0.08789 -0.832092,0.772487 -1.806551,1.437782 -2.555164,2.273663 -0.396303,0.931363 -0.981807,1.819702 -1.263196,2.777509 0.105929,0.412144 -0.224313,1.45197 0.187445,1.424003 1.222054,-0.479343 2.505796,-0.87468 3.691462,-1.40291 0.977933,-1.232884 1.955941,-2.46571 2.935547,-3.697265 -0.135589,-0.393401 0.290354,-1.504232 -0.251954,-1.462891 z M 6.1523438,35.541016 c -0.1854274,1.238053 -0.5605595,2.481672 -0.6330115,3.715915 0.3812894,1.413924 0.7163295,2.850419 1.1251989,4.250881 0.8133189,1.094927 1.6252999,2.190852 2.4394532,3.285157 0.5403646,0 1.0807296,0 1.6210936,0 C 10.413008,44.550571 10.164161,42.294722 9.8457031,40.060547 9.011095,38.486314 8.1762668,36.912197 7.3417969,35.337891 7.0342689,35.446455 6.152408,35.100742 6.1523438,35.541016 Z m 77.3925782,-0.06055 c -0.789031,1.715526 -1.70473,3.395855 -2.417397,5.13258 -0.24274,2.153537 -0.481279,4.307546 -0.723228,6.46117 0.692547,-0.28196 1.482494,-0.438774 2.117187,-0.794922 0.859741,-1.396251 1.82642,-2.760481 2.621094,-4.175781 0,-2.255209 0,-4.510417 0,-6.765625 -0.490171,0.09215 -1.264591,-0.187897 -1.597656,0.142578 z m -64.765625,2.728515 c -0.962744,0.495226 -2.001375,0.906009 -2.917969,1.453125 -0.586819,1.02082 -1.31187,1.986949 -1.817358,3.039675 -0.256224,1.363844 -0.516077,2.727011 -0.770532,4.091185 0.50363,-0.05877 1.111514,0.117371 1.552734,-0.08203 1.20989,-1.350368 2.464928,-2.67273 3.648437,-4.039063 0.433049,-1.220896 0.867961,-2.441134 1.300782,-3.662109 -0.323648,-0.204786 -0.617289,-0.952311 -0.996094,-0.800782 z m 53.298828,0.05273 c -0.396704,0.423841 -1.004378,0.805979 -0.502454,1.402771 0.517752,1.275558 0.985562,2.583657 1.533704,3.839416 1.216122,1.145643 2.331288,2.409966 3.611328,3.480469 0.27324,-1.393601 0.295736,-2.83005 0.472656,-4.240234 -0.680979,-1.04703 -1.283834,-2.178437 -2.009765,-3.175782 -0.993269,-0.480274 -1.986758,-0.960093 -2.980469,-1.439453 l -0.06854,0.07282 z m -0.216797,8.798828 c 0.20634,2.049377 0.332092,4.129718 0.587891,6.160156 0.950793,1.415832 1.903524,2.83037 2.851562,4.248047 0.375189,-0.740909 0.98558,-1.417666 1.215408,-2.199608 -0.01581,-1.158878 0.05693,-2.340518 -0.01424,-3.485939 -0.653056,-1.132516 -1.248472,-2.319659 -1.935547,-3.419922 -0.901833,-0.557281 -1.737061,-1.233043 -2.685547,-1.707031 -0.0065,0.134766 -0.01302,0.269531 -0.01953,0.404297 z M 18.759766,46.892578 c -0.781795,0.478699 -1.660899,0.869793 -2.384766,1.402344 -0.578078,1.223811 -1.224546,2.43233 -1.759766,3.666016 0,1.405598 0,2.811197 0,4.216796 0.382964,0.219576 0.687483,1.106532 1.121094,0.886719 0.567555,-0.372274 1.234079,-0.659804 1.395656,-1.388423 0.660195,-1.406129 1.38206,-2.799334 2.000828,-4.215092 10e-7,-1.593099 0,-3.186198 0,-4.779297 -0.124348,0.07031 -0.248697,0.140625 -0.373046,0.210937 z M 5.1835938,47.597656 c -0.1972135,0.673193 -0.5754844,1.341109 -0.2140607,2.029935 0.413277,1.534263 0.7469242,3.112375 1.2062481,4.620456 1.2917671,1.369697 2.58274,2.740145 3.8749998,4.109375 0.729818,0 1.459636,0 2.189453,0 C 11.817871,56.951609 11.552975,55.479667 11.032048,54.114348 10.190381,52.741936 9.4576259,51.277783 8.5521326,49.959361 7.4664785,49.052886 6.3800833,48.147299 5.2949219,47.240234 c -0.037109,0.119141 -0.074219,0.238282 -0.1113281,0.357422 z m 79.1640622,0.605469 c -1.000133,1.174039 -2.092586,2.287469 -3.036519,3.498779 -0.763625,1.734227 -1.754103,3.383276 -2.160478,5.252194 0.02452,0.421816 -0.741121,1.438191 -0.106518,1.403324 0.745982,-0.110328 1.679762,0.297423 2.220587,-0.378976 0.905329,-0.812517 1.950844,-1.515999 2.771292,-2.3945 0.550806,-1.170091 1.172068,-2.32428 1.680777,-3.503868 0,-1.320312 0,-2.640625 0,-3.960937 -0.434438,0.06073 -1.002864,-0.120238 -1.369141,0.08398 z m -64.013672,7.095703 c -0.741878,1.244097 -1.590898,2.457478 -2.267578,3.720703 0.03966,1.358785 -0.08807,2.751062 0.05118,4.089932 0.453036,1.052683 0.90276,2.106813 1.358975,3.158115 0.493397,-0.09123 1.32905,0.29055 1.347729,-0.456827 0.375152,-1.244654 0.879486,-2.468395 1.179615,-3.725204 -0.03469,-1.15302 0.06826,-2.330411 -0.0494,-3.468732 -0.466119,-1.20469 -0.812913,-2.461472 -1.360752,-3.630487 -0.08659,0.104167 -0.173177,0.208333 -0.259766,0.3125 z m 50.126954,0.50586 c -0.426591,0.479456 -1.045885,0.870865 -0.938172,1.596665 -0.157812,1.631134 -0.374505,3.268189 -0.499328,4.895522 0.475583,1.526592 0.950818,3.053293 1.425781,4.580078 0.646855,0.154149 1.012116,-0.1417 1.170016,-0.769842 0.465297,-1.063169 1.120294,-2.08261 1.470609,-3.171955 -0.03423,-1.406906 0.06817,-2.859008 -0.05078,-4.23789 -0.793143,-1.034027 -1.584043,-2.06977 -2.375,-3.105469 -0.06771,0.07096 -0.135416,0.141927 -0.203124,0.212891 z M 7.1523438,60.607422 c 0.047379,0.750923 -0.1504307,1.565266 0.3816051,2.190059 0.7855501,1.398782 1.493358,2.873488 2.3293323,4.224003 1.3786298,0.75131 2.7287478,1.594319 4.1230468,2.289063 0.950521,0 1.901042,0 2.851563,0 -0.08173,-0.575019 0.16945,-1.282378 -0.136963,-1.768069 -1.841599,-1.927366 -3.644285,-3.916677 -5.511475,-5.804197 -1.3471642,-0.498266 -2.6949098,-0.994974 -4.0410155,-1.496093 0.0013,0.121744 0.0026,0.243489 0.00391,0.365234 z M 82.683594,60.333984 c -1.765022,1.197762 -3.557294,2.368027 -5.304688,3.583985 -1.00587,1.454393 -2.140177,2.866398 -3.068359,4.345703 -0.05873,0.657691 -0.106965,1.304882 0.75,1.046875 0.891393,-0.07809 1.876638,0.238603 2.648598,-0.342264 1.033296,-0.550064 2.140325,-1.018961 3.130699,-1.614767 1.038301,-1.747792 2.176702,-3.466941 3.15625,-5.230469 0,-0.610677 0,-1.221354 0,-1.832031 -0.43078,0.03008 -0.905202,-0.05992 -1.3125,0.04297 z m -58.375,2.308594 c -0.31898,0.661514 -0.893259,1.251989 -1.066681,1.953515 -0.0046,1.896358 -0.01127,3.792711 -0.0173,5.689063 1.358379,1.39417 2.624479,2.891476 4.040782,4.221016 0.323054,-0.161725 0.204625,-1.07059 0.320284,-1.517404 0.08932,-1.142248 0.415067,-2.292073 0.0551,-3.419322 -0.22958,-0.968863 -0.242433,-2.016222 -0.607728,-2.936143 -0.836384,-1.451324 -1.66996,-2.904264 -2.505698,-4.355959 -0.07292,0.121745 -0.145834,0.243489 -0.21875,0.365234 z m 42.203125,0.125 c -0.735252,0.921948 -1.439933,1.862065 -1.862795,2.973928 -0.389552,0.923039 -0.968154,1.804245 -1.242206,2.753024 0.02803,1.944365 -0.01952,3.900267 0.0577,5.837539 0.24577,0.623584 0.864134,-0.585912 1.199928,-0.835763 1.086655,-1.238209 2.172047,-2.477533 3.259479,-3.715056 -0.02978,-1.801371 0.03347,-3.628933 -0.05273,-5.414062 -0.378999,-0.632107 -0.756891,-1.264877 -1.136719,-1.896485 -0.07422,0.09896 -0.148437,0.197917 -0.222656,0.296875 z m -52.904297,9.007813 c -0.436331,0.215943 -1.29468,0.330888 -1.461748,0.616705 1.353103,1.454526 2.676335,2.949595 4.049638,4.377435 1.219945,0.520184 2.402215,1.212768 3.646872,1.623825 1.347626,-0.02047 2.732859,0.08163 4.058207,-0.01445 0.646978,-0.432857 1.293074,-0.86703 1.939453,-1.300781 -1.968536,-1.309336 -3.918326,-2.663751 -5.898438,-3.945313 -2.110515,-0.438028 -4.227821,-0.981508 -6.333984,-1.357421 z m 63.251953,0.08594 c -1.920027,0.447496 -3.860738,0.851575 -5.767578,1.328125 -1.9277,1.297242 -3.854554,2.595755 -5.785156,3.888672 0.697896,0.432185 1.36034,0.979088 2.078125,1.34375 1.28919,-0.0098 2.592458,0.04604 3.873046,-0.0039 1.255399,-0.590055 2.539716,-1.121813 3.775391,-1.740235 1.354788,-1.565519 2.832253,-3.040295 4.11138,-4.661544 -0.259331,-0.311771 -1.165574,-0.09794 -1.685208,-0.160721 -0.199419,0.0061 -0.401764,-0.01084 -0.6,0.0059 z" />

</svg>