<?xml version="1.0" encoding="utf-8"?>
<!DOCTYPE svg PUBLIC "-//W3C//DTD SVG 1.1//EN" "http://www.w3.org/Graphics/SVG/1.1/DTD/svg11.dtd">
<svg version="1.1" xmlns="http://www.w3.org/2000/svg" xmlns:xlink="http://www.w3.org/1999/xlink" xmlns:xml="http://www.w3.org/XML/1998/namespace" xmlns:serif="http://www.serif.com/" width="91" height="91" viewBox="0, 0, 91, 91" xml:space="preserve" fill-rule="evenodd" stroke-linejoin="round" stroke-miterlimit="2" style="clip-rule:evenodd;">
	<filter xmlns="http://www.w3.org/2000/svg" height="150%" id="dropshadow">
      <feGaussianBlur stdDeviation="2" in="SourceAlpha" /> 
      <feOffset dx="0" dy="0" result="offsetblur" /> 
      <feMerge> 
        <feMergeNode />
        <feMergeNode in="SourceGraphic" /> 
      </feMerge>
    </filter>

	<path d="M7.4 70.4 C5.8 67.9 4.4 65.2 3.3 62.5 C2.2 59.7 1.3 56.8 0.8 53.9 C0.2 51 -0 48 0 45 C0 42.1 0.4 39.1 1 36.2 C1.6 33.3 2.5 30.4 3.6 27.7 C4.8 24.9 6.2 22.3 7.9 19.8 C9.6 17.4 11.5 15.1 13.6 13 C15.8 10.9 18.1 9.1 20.6 7.4 C23.1 5.8 25.7 4.4 28.5 3.3 C31.2 2.2 34.1 1.3 37 0.8 C39.9 0.2 42.9 -0 45.9 0 C48.9 0 51.9 0.4 54.8 1 C57.7 1.6 60.5 2.5 63.3 3.6 C66 4.8 68.6 6.2 71.1 7.9 C73.6 9.6 75.8 11.5 77.9 13.6 C80 15.8 81.9 18.1 83.5 20.6 C85.1 23.1 86.5 25.7 87.6 28.5 C88.8 31.2 89.6 34.1 90.1 37 C90.7 39.9 91 42.9 90.9 45.9 C90.9 48.9 90.6 51.9 90 54.8 C89.4 57.7 88.5 60.5 87.3 63.3 C86.1 66 84.7 68.6 83 71.1 C81.4 73.5 79.4 75.8 77.3 77.9 C75.2 80 72.9 81.9 70.4 83.5 C67.9 85.1 65.2 86.5 62.5 87.6 C59.7 88.8 56.8 89.6 53.9 90.1 C51 90.7 48 91 45 90.9 C42.1 90.9 39.1 90.6 36.2 90 C33.3 89.4 30.4 88.5 27.7 87.3 C24.9 86.1 22.3 84.7 19.8 83 C17.4 81.4 15.1 79.4 13 77.3 C10.9 75.2 9.1 72.9 7.4 70.4 z" fill-rule="nonzero" style="fill:#A92F23;" />
    <g filter="url(#dropshadow)">
        <path d="M31.8 22.2 C31.6 22.1 31.3 22 31.1 21.8 C30.9 21.6 30.8 21.3 30.8 21.1 C30.7 20.9 30.8 20.7 30.8 20.5 C30.9 20.3 31 20.1 31.2 19.9 C31.5 19.4 32.3 18.4 33 17.9 C33.9 17.2 35.1 16.3 36.2 15.8 C37.1 15.4 38.3 15 39 14.9 C39.4 14.8 40.3 14.7 40.3 14.7 C40.3 14.7 39.6 15.5 39.4 16 C39.2 16.5 38.8 17.6 38.8 17.6 C38.8 17.6 39.4 17.4 39.6 17.3 C40.3 17.1 41.8 16.5 42.9 16.2 C44.1 15.8 45.8 15.3 47.3 15.1 C49.3 14.8 53.5 15.3 53.5 15.3 C53.5 15.3 53.1 16 52.8 16.2 C52.4 16.5 51.3 17.2 51.3 17.2 C51.3 17.2 53 17.2 53.8 17.4 C54.8 17.7 56.3 18 57.4 18.7 C58.7 19.3 59.8 20.6 60.5 21.4 C61 22 61.1 22.9 61.6 23.5 C62.3 24.5 64.9 27.3 64.9 27.3 C64.9 27.3 64 27.6 63.5 27.5 C62.8 27.5 61.3 27.2 60.6 27.2 C60.2 27.1 59.4 27.1 59.4 27.1 C59.4 27.1 60.9 28 61.4 28.7 C62.5 29.8 64.5 31.9 65.6 33.8 C66.8 35.9 67.4 38.4 67.9 40.5 C68.4 42.3 68.2 44.3 68.6 46.2 C69 48.4 69.6 51.3 70.6 53.6 C71.2 55.2 73 58 73 58 C73 58 71.4 58.3 70.7 58.1 C69.6 57.8 67.5 57.2 66 56.3 C64.7 55.5 62.6 53.5 62.6 53.5 C62.6 53.5 62.2 54.9 62.2 55.6 C62.2 57.5 63.5 59.2 64.7 60.8 C66 62.6 68.9 65.6 68.9 65.6 C68.9 65.6 65.7 65.3 64.1 64.9 C62.1 64.3 58.8 63.7 56.5 62.3 C55.1 61.4 53.5 59.2 52.6 58.6 C52.4 58.5 52.2 58.4 52.2 58.4 C52.2 58.4 51.9 60.7 52 61.9 C52.2 64.1 53.2 66.6 53.8 68.3 C54.3 69.6 55.6 72.2 55.6 72.2 C55.6 72.2 52.6 71.5 51.1 71 C48.7 70.1 46.4 68.9 44.7 67.2 C43.7 66.2 42.3 63.9 42.3 63.9 C42.3 63.9 41.5 65.9 41.5 67 C41.5 68.6 42.1 73.8 42.1 73.8 C42.1 73.8 39 71.5 37.7 70.2 C36.7 69.2 35.7 68.2 35 66.9 C34.3 65.7 33.8 62.8 33.8 62.8 C33.8 62.8 32.6 63.6 32.3 64.2 C31.8 65.2 30.9 68 30.6 69 C30.5 69.5 30.5 70.4 30.5 70.4 C30.5 70.4 29.5 69 29.3 68.3 C28.8 67 27.9 64.6 27.9 62.7 C27.9 60.7 28.6 58.7 29.6 56.8 C30.1 56 30.8 55.2 31.4 54.7 C31.9 54.3 32.6 54.2 33.1 53.9 C34.3 53.2 36.8 51.9 38.3 50.5 C39.8 49.1 41.1 47.6 41.8 45.8 C42.3 44.5 42.5 43.1 42.6 41.7 C42.6 40.2 41.9 38.4 41.6 37.5 C41.5 37.1 40.9 36.9 40.7 36.5 C40.6 36.2 40.4 35.8 40.5 35.5 C40.7 35 41.2 34.2 41.6 33.5 C42.5 32.2 42.6 30.5 42.3 28.9 C41.9 27.2 40.9 25.6 39.5 24.5 C37.9 23.2 35.1 22.6 33.8 22.3 C33.2 22.1 32.3 22.2 31.8 22.2 z M43.8 23.3 C45.4 22.1 47.3 21.7 49.4 21.4 C50.5 21.2 51.9 21.1 52.6 21.2 C53 21.2 53.3 21.4 53.5 21.6 C53.7 21.9 53.9 22.4 54 22.9 C54.2 24.1 53.9 25.4 53.4 26.5 C52.9 27.6 52.1 28.7 50.9 29.5 C50.2 30 49.5 30.4 48.9 30.4 C48.3 30.4 47.8 29.9 47.3 29.5 C46.6 29 45.1 27.9 44.4 27.2 C43.8 26.7 43.1 26.2 42.7 25.6 C42.5 25.2 42.4 24.9 42.6 24.5 C42.7 24 43.2 23.6 43.8 23.3 z" style="fill:white;" />
        <path d="M44.9 25 C45.3 24.8 46.3 24.3 47 24 C47.8 23.8 49 23.6 49.7 23.4 C50.2 23.3 50.9 23.2 51.3 23.2 C51.5 23.2 51.9 23.2 51.9 23.2 C51.9 23.2 52 23.4 52 23.6 C52 23.7 52 23.9 51.9 24.1 C51.9 24.4 51.8 24.8 51.7 25.2 C51.5 25.6 51.4 26 51.1 26.3 C50.9 26.6 50.6 27 50.4 27.3 C50.1 27.5 49.7 27.8 49.5 27.9 C49.5 28 49.4 28 49.3 28.1 C49.2 28.1 49 28.2 49 28.2 C49 28.2 48.8 28 48.6 27.9 C48.1 27.5 46.6 26.3 46 25.8 C45.6 25.5 44.9 25 44.9 25 C44.9 25 44.9 25 44.9 25 z" fill-rule="nonzero" style="fill:white;" />
        <path d="M27.3 57.3 C27.3 57.3 26.2 56.2 25.6 55.7 C24.9 54.9 23.8 53.9 23 52.9 C22.2 51.7 21.7 49.7 21.5 48.7 C21.3 48.1 21.6 46.8 21.6 46.8 C21.6 46.8 22.1 47.1 22.4 47.2 C22.9 47.4 23.8 48 24.5 48.1 C25.5 48.1 26.5 47.6 27.4 47.1 C28.2 46.7 29 46.4 29.5 45.8 C30.1 45.3 30.5 44.5 30.4 43.8 C30.4 42.7 29.4 41.7 28.3 41.2 C26.9 40.6 25.6 40.6 24.1 40.7 C23.3 40.7 22.2 41 21.7 41.2 C21.5 41.3 21.2 41.5 21.1 41.7 C20.9 42.1 20.6 42.7 20.5 43.2 C20.3 43.7 20.3 44.8 20.3 44.8 C20.3 44.8 19.4 43.4 18.9 42.8 C18.4 42.2 17.7 41.7 17.2 41 C16.7 40.2 15.9 38.4 15.6 37.8 C15.5 37.6 15.5 37.4 15.4 37.3 C15.3 37.2 15 37.3 14.9 37.1 C14.8 36.9 14.7 36.6 14.7 36.4 C14.6 36.1 14.6 35.6 14.8 35.3 C14.9 35 15.2 34.7 15.4 34.5 C15.9 34.1 17.1 33.1 18 32.5 C19 31.9 20.5 31.1 21.4 30.6 C22 30.2 22.9 29.8 23.3 29.5 C23.5 29.3 23.8 29.1 23.9 28.9 C24 28.6 23.9 28.4 23.9 28.1 C23.9 27.8 23.8 27.4 24 27.1 C24.1 26.7 24.6 26.4 25 26.1 C25.7 25.7 27.2 24.9 28.3 24.6 C29.4 24.2 30.7 24.1 31.8 24.1 C32.9 24.1 34 24.3 35 24.6 C36 24.9 37.2 25.5 37.8 25.8 C38.2 26 38.5 26.4 38.8 26.7 C39.1 27 39.4 27.3 39.5 27.7 C39.8 28.2 40.1 29.2 40.3 29.7 C40.4 30 40.4 30.4 40.3 30.8 C40.3 31.1 40.3 31.4 40.2 31.7 C40.1 32 40 32.2 39.8 32.5 C39.7 32.7 39.5 32.9 39.3 33.2 C39.1 33.5 38.9 33.9 38.8 34.2 C38.7 34.4 38.6 34.6 38.6 34.8 C38.5 35.1 38.4 35.3 38.4 35.6 C38.5 35.9 38.5 36.6 38.7 37.1 C38.8 37.4 39.1 37.8 39.2 38 C39.3 38.2 39.5 38.4 39.6 38.6 C39.8 38.9 40.1 39.4 40.2 39.8 C40.3 40.3 40.5 41.2 40.5 41.9 C40.5 42.7 40.5 43.6 40 44.7 C39.3 46 38.4 47.2 37.4 48.2 C36.6 49.1 35.7 49.8 34.7 50.4 C33.7 51.1 32.3 51.5 31.5 51.7 C31 51.8 30.4 51.5 29.9 51.7 C29.3 51.9 28.3 52.2 27.9 52.9 C27.6 53.4 27.5 54.1 27.4 54.8 C27.3 55.5 27.3 57.3 27.3 57.3 z M26 32.7 C25.8 32.5 25.8 32.2 25.6 32 C25.5 31.8 25.2 31.5 25.1 31.2 C25 30.9 24.8 30.4 24.9 30.1 C25 29.8 25.5 29.7 25.8 29.6 C26.2 29.5 26.5 29.5 26.9 29.5 C27.4 29.5 28.4 29.4 29 29.5 C29.6 29.6 30.3 29.8 30.8 30.3 C31 30.7 31.2 31.3 31 31.7 C30.8 32.1 30.1 32.2 29.7 32.4 C29.1 32.6 28.2 33 27.8 33.2 C27.6 33.2 27.5 33.3 27.3 33.4 C27.1 33.4 26.7 33.4 26.5 33.3 C26.3 33.2 26.1 33 26 32.7 z" style="fill:white;" />
    </g>
</svg>