<?xml version="1.0" encoding="UTF-8" standalone="no"?>
<svg
   version="1.1"
   width="91"
   height="91"
   viewBox="0, 0, 91, 91"
   xml:space="preserve"
   fill-rule="evenodd"
   stroke-linejoin="round"
   stroke-miterlimit="2"
   style="clip-rule:evenodd;"
   xmlns="http://www.w3.org/2000/svg"
   xmlns:svg="http://www.w3.org/2000/svg">

    <defs>
        <radialGradient cx="45" cy="45" r="45" gradientUnits="userSpaceOnUse" id="Radial">
			<stop offset="0%" stop-color="#289caa" stop-opacity="1" />
			<stop offset="100%" stop-color="#0E4E55" stop-opacity="1" />
		</radialGradient>
    </defs>
	
	<circle cx="45" cy="45" r="45" stroke-width="1.1px" style="fill:url(#Radial);" />
	
    <circle cx="45" cy="45" r="31" stroke-width="2.5px" stroke-opacity="0.5" style="fill:none;stroke:white;" />
	
    <g
	   stroke-width="0.5"
	   style="fill:#ffffff;stroke:#000000"
	   filter="url(#dropshadow)"
	   fill-rule="nonzero"
	   transform="matrix(1.0996889,0,0,1.0996889,-3.4941921,-6.1575981)">
	
	   <path
		   style="fill:#ffffc9;stroke:#000000;stroke-width:1.18215252;stroke-linecap:butt;stroke-dasharray:none;stroke-opacity:0.74476987"
		   d="m 41.569555,11.460282 c -0.196818,-0.04054 -0.257276,0.07927 -0.270224,0.254425 -0.32512,1.365004 -0.548508,2.785771 -1.246161,4.025004 -0.06261,0.149883 -0.181235,0.295783 -0.209217,0.448128 0.314092,0.847738 0.541951,1.744307 1.032819,2.512994 0.178639,0.259065 0.42204,0.556251 0.773499,0.517915 0.203814,-0.05655 0.135313,0.154432 0.142754,0.291786 -0.0075,1.180947 -0.01495,2.361893 -0.02245,3.542839 -0.881745,0.341631 -1.757614,0.699053 -2.647902,1.018026 -1.203822,-0.441853 -2.409148,-0.957904 -3.628041,-1.392592 -0.759788,-0.258292 -1.520073,-0.565935 -2.325764,-0.638349 -0.403196,-0.04017 -0.874382,0.11886 -1.020511,0.531028 -0.228867,0.636975 -0.057,1.325482 0.04002,1.971588 0.232944,1.286738 0.500054,2.566764 0.751729,3.850025 -0.442865,0.604856 -0.871234,1.224923 -1.388547,1.769917 -0.07586,0.07507 -0.228878,0.213034 -0.348258,0.297539 -0.193683,0.152609 -0.417324,0.26706 -0.662532,0.296223 -0.62438,0.273335 -1.09038,0.800589 -1.474645,1.348255 -0.255032,0.347663 -0.497297,0.704678 -0.744857,1.057799 0.197104,0.79361 0.394655,1.587109 0.591693,2.380734 -0.631429,0.994942 -1.205429,2.031548 -1.928564,2.964678 -0.182063,0.195881 -0.400228,0.510241 -0.70745,0.42323 -0.428621,-0.203274 -0.725908,-0.596757 -1.075527,-0.905719 -0.11307,-0.107403 -0.21874,-0.283155 -0.361595,-0.110757 -0.380077,0.234746 -0.757394,0.473707 -1.135848,0.711067 0.08131,1.268373 0.216859,2.533142 0.324528,3.799769 0.431028,0.502827 0.933963,0.954365 1.277564,1.525378 0.419696,0.74539 0.543599,1.733034 0.07973,2.486996 -0.230107,0.380386 -0.617118,0.635511 -0.8547,1.006232 -0.194297,0.186285 0.0043,0.205782 0.18023,0.234897 0.481042,0.05182 1.030813,0.018 1.399735,-0.338042 0.227757,-0.177843 0.330903,-0.499288 0.604616,-0.614432 0.34545,0.0011 0.573095,0.323017 0.787201,0.553453 0.810797,1.004075 1.414994,2.143739 2.138871,3.215674 0.893119,1.377397 1.915321,2.670358 3.061861,3.846021 0.129194,0.115091 0.244062,0.234783 0.166047,0.416393 -0.175323,1.310884 -0.350813,2.621743 -0.526417,3.932587 -0.672828,0 -1.345655,0 -2.018483,0 0.12369,1.467159 0.163952,2.940076 0.247743,4.4099 0.09515,1.974239 0.202602,3.949861 0.285231,5.923465 -0.277743,1.513478 -0.610184,3.018317 -0.819261,4.543245 -0.07112,0.54188 -0.07522,1.135309 0.248253,1.60383 0.380368,0.570696 1.095455,0.741686 1.718429,0.906137 1.013913,0.229476 2.041946,0.397166 3.072813,0.528016 0.323739,0.04308 0.715259,0.02461 0.910529,-0.280527 0.406974,-0.540123 0.339222,-1.251715 0.276469,-1.883947 -0.149516,-1.361144 -0.418939,-2.705066 -0.662491,-4.05161 0.266253,-0.425458 0.532318,-0.851035 0.797883,-1.276924 -0.258537,-0.702839 -0.519192,-1.404903 -0.778764,-2.107364 0.379524,-1.580123 0.719508,-3.170258 1.135946,-4.741185 0.08365,-0.260916 0.152461,-0.550997 0.344067,-0.754605 0.324086,0.151178 0.495327,0.497417 0.721204,0.759267 1.391452,1.899915 2.905189,3.709906 4.523716,5.420379 0.399272,0.392755 0.765305,0.831884 1.23117,1.148074 0.208478,0.142553 0.535249,0.02484 0.552939,-0.240813 0.03611,-0.47898 -0.160758,-0.93871 -0.2966,-1.389377 -0.687194,-1.933758 -1.595898,-3.780319 -2.548641,-5.595104 -0.828069,-1.56859 -1.776246,-3.07394 -2.863001,-4.476779 -0.07235,-0.122677 -0.20592,-0.237845 -0.234902,-0.369816 0.855064,-2.462811 1.729036,-4.919126 2.627428,-7.366476 0.445149,-1.159751 0.891411,-2.308612 1.489322,-3.40872 0.292303,-0.503317 0.593944,-1.052118 1.109125,-1.358157 0.334356,-0.141292 0.739709,-0.01418 0.975135,0.253731 0.612349,0.646686 0.986708,1.472205 1.368946,2.26568 0.89204,1.971272 1.58885,4.01747 2.27933,6.077301 1.445109,4.384273 2.802281,8.793988 4.18742,13.19834 -0.0039,2.968612 0.03737,5.937023 0.06925,8.905399 0.501147,0.33115 1.018852,0.689377 1.633175,0.755592 1.066035,0.151683 2.180143,0.09406 3.200432,-0.266055 0.603713,-0.241162 1.098155,-0.679164 1.621297,-1.053327 -0.670499,-1.559491 -1.387588,-3.098686 -2.082043,-4.647777 -2e-6,-3.809931 0,-7.619862 0,-11.429793 -0.564091,-0.01785 -1.137491,0.04603 -1.694471,-0.06304 -0.211688,-0.05489 -0.466423,-0.3063 -0.290422,-0.525034 0.208994,-0.307097 0.588216,-0.436655 0.839911,-0.690298 0.09115,-0.261292 -0.03383,-0.542618 -0.058,-0.807905 -0.200817,-0.9779 -0.358342,-2.008624 -0.928709,-2.853184 -0.280347,-0.409136 -0.699757,-0.687158 -1.088784,-0.982142 -1.069076,-4.594725 -2.25057,-9.164354 -3.608565,-13.682368 0.332391,-2.171195 0.629206,-4.348173 0.9969,-6.513724 0.08253,-0.36502 0.118983,-0.715331 0.296045,-1.051706 0.06886,-0.10564 0.16556,0.0972 0.21763,0.132972 0.625861,0.860867 1.123283,1.807096 1.691629,2.705737 0.957131,1.589511 2.052143,3.089516 3.200144,4.545455 0.104335,0.149643 0.276272,0.27315 0.239194,0.476221 0.08274,1.427072 0.173635,2.853721 0.243308,4.281508 -0.286602,0.0058 -0.617498,0.03335 -0.789697,0.298609 -0.21962,0.216659 -0.239826,0.606459 0.0161,0.804685 0.409649,0.377418 1.010505,0.331227 1.527437,0.370988 0.151416,0.02331 0.347496,-0.01831 0.472093,0.04397 0.650576,1.401035 1.000244,2.912604 1.403051,4.396785 1.388322,5.383514 2.690908,10.788816 4.033417,16.183935 0.09999,0.369644 0.168709,0.755105 0.292232,1.113695 0.110236,0.121488 0.222047,0.334123 0.325983,0.09091 0.177565,-0.178549 0.14692,-0.459121 0.224515,-0.686657 0.217048,-1.002496 0.456644,-2.00384 0.658931,-3.007212 -0.404217,-3.627107 -0.825727,-7.253113 -1.382371,-10.860278 -0.395586,-2.654469 -0.84977,-5.298805 -1.256964,-7.951546 0.363413,-0.501108 0.930355,-0.884529 1.103292,-1.505334 0.09809,-0.389498 -0.263793,-0.717177 -0.624192,-0.764074 -0.462987,-0.09042 -0.938297,-0.05617 -1.407208,-0.0643 0.02149,-0.475367 -0.03275,-0.95662 -0.227679,-1.394894 -0.642221,-1.536153 -1.514732,-2.960129 -2.328754,-4.408371 0,-0.902788 0,-1.805575 0,-2.708363 -0.966179,-1.007943 -1.950654,-2.013378 -2.710572,-3.192335 -0.835268,-1.264457 -1.545346,-2.605095 -2.292741,-3.921958 0.199924,-1.178569 0.456454,-2.350362 0.57304,-3.541046 0.01774,-0.272513 0.02111,-0.6033 -0.24075,-0.767727 -0.306006,-0.23765 -0.725133,-0.150668 -1.081423,-0.11499 -1.530493,0.259342 -3.011991,0.763949 -4.55462,0.961626 -0.608666,0.06553 -1.26951,0.154895 -1.841548,-0.120073 -0.278201,-0.136883 -0.463981,-0.431715 -0.423968,-0.746 0.007,-0.874724 0.464402,-1.653905 0.822346,-2.425743 0.652124,-1.303177 1.03214,-2.719033 1.325843,-4.140264 0.17911,-0.862956 0.349041,-1.727982 0.51957,-2.592815 -0.343479,-0.358333 -0.697264,-0.768258 -1.210653,-0.865613 -1.491946,-0.408389 -3.047368,-0.453631 -4.57906,-0.592958 -0.499006,-0.03638 -0.998201,-0.07924 -1.498213,-0.09586 z m -5.931421,21.200773 c 0.451501,1.942709 0.896313,3.887068 1.342038,5.831168 -0.942912,3.649287 -1.868244,7.30322 -2.835487,10.946104 -1.18541,-1.36265 -2.316866,-2.771013 -3.471106,-4.159954 0.369771,-0.775803 0.781556,-1.534152 1.096574,-2.334226 0.03595,-0.142129 0.0163,-0.297331 -0.160099,-0.306083 -0.815407,-0.286298 -1.645489,-0.528505 -2.467647,-0.794623 2.109274,-3.256756 4.230277,-6.50626 6.362403,-9.748242 0.04444,0.188619 0.08888,0.377237 0.133324,0.565856 z" />
		
	   <path
		   style="fill:none;fill-opacity:0.7613169;stroke-width:0;stroke-dasharray:none;stroke:#000000;stroke-opacity:0.49794239"
		   d="m 40.609375,11.361328 c -0.559603,0.974914 -0.476507,2.141704 -0.480469,3.22461 -0.527472,0.04164 -1.450828,-0.254333 -1.034182,0.592475 0.235415,1.662304 0.513467,3.429368 1.630589,4.752208 0.476767,0.705427 0.476579,1.569337 0.438749,2.385785 -0.660414,0.216946 -1.319158,0.585299 -1.982421,0.703125 -2.487571,-0.91775 -5.014802,-1.901176 -7.710152,-1.701569 -0.336048,0.23146 -0.05967,1.082142 -0.144539,1.559344 0.02924,1.673358 0.462797,3.297557 0.952347,4.886366 -1.524236,1.440089 -3.053085,2.875323 -4.580078,4.3125 0,1.365885 0,2.731771 0,4.097656 -0.903205,0.781417 -2.144652,0.923309 -3.276621,0.682313 -0.681629,-0.207864 -0.794776,0.810228 -1.201122,1.19657 -0.335757,0.519562 -0.793325,1.005977 -0.597883,1.67009 0.04853,1.158245 0.100275,2.31635 0.151798,3.474465 0.66432,0.485973 1.329853,0.970309 1.992187,1.458984 -0.462471,1.274418 -0.922618,2.549682 -1.384766,3.824219 0.441804,0.286495 0.783938,1.250566 1.352497,0.675342 0.789036,-0.362383 1.724023,-1.121523 2.610394,-0.634327 0.641022,0.536128 0.656057,1.482643 1.18607,2.114169 1.003661,1.654281 2.226201,3.11431 3.382289,4.663175 -0.119216,0.84383 -0.239505,1.687512 -0.359374,2.53125 -0.652995,0 -1.30599,0 -1.958985,0 -0.144594,5.738832 -0.123339,11.486809 -0.494372,17.216798 -0.142619,0.667061 -0.177984,1.265045 0.663157,1.29852 0.99147,0.27886 1.94376,0.829227 2.962903,0.919546 1.365668,-0.06496 2.731271,-0.13128 4.096828,-0.198536 -0.07851,-4.578107 -0.155774,-9.156236 -0.232422,-13.734375 0.535063,-0.04608 1.414973,-0.07988 1.470703,0.654297 1.663247,2.40211 3.796193,4.438394 5.725914,6.624056 0.324825,0.671659 1.033712,0.470755 1.64518,0.491178 -0.158,-1.726091 -0.551213,-3.590984 -1.263866,-5.243619 -1.257118,-3.154332 -3.011055,-6.073133 -4.693166,-9.01224 1.082052,-3.438752 2.165822,-6.876987 3.251954,-10.314453 0.631754,-0.130239 1.264475,-0.255765 1.896484,-0.384766 2.031204,6.623927 4.430799,13.131451 6.511719,19.736328 0.12877,3.406931 0.258299,6.813834 0.388672,10.220704 0.485554,0.394422 0.820314,1.158096 1.553095,0.947138 1.627484,-0.01624 3.254968,-0.03247 4.882452,-0.0487 0.636871,-0.637217 1.274192,-1.273985 1.912109,-1.910156 -0.740391,-1.684652 -1.525541,-3.358145 -2.240235,-5.048828 -0.149107,-3.770131 -0.296933,-7.540311 -0.443359,-11.310547 -1.035311,-0.852737 -0.900013,-2.33697 -0.941406,-3.544922 -0.0669,-0.630623 0.242423,-1.417082 -0.424264,-1.799264 -0.454235,-0.538087 -1.122924,-0.955584 -1.447099,-1.567417 -0.78513,-3.215331 -1.56887,-6.431 -2.351293,-9.646991 -0.523335,-0.587331 -1.046208,-1.175075 -1.570313,-1.761719 0.291512,-1.79996 0.316797,-3.660128 0.822194,-5.416304 0.125131,-0.592588 0.863152,-0.55805 1.132884,-0.09346 1.099239,1.429683 1.99038,3.026744 2.916016,4.560547 0.08183,1.319063 0.163326,2.638151 0.248047,3.957031 -0.38095,0.435085 -1.218827,0.704245 -1.175781,1.365234 0.816434,0.944723 2.150732,1.202588 3.237283,1.738489 0.770537,0.05637 0.631065,0.704453 0.628068,1.285024 0.745556,4.130887 1.854034,8.18964 2.842933,12.268021 0.898184,3.417104 1.690079,6.864198 2.793669,10.226044 0.373971,0.593033 0.474409,-0.649269 0.676075,-0.971726 0.600063,-2.211048 0.842075,-4.507678 1.085008,-6.775945 -0.700589,-6.019535 -1.560115,-12.019432 -2.725927,-17.967172 0.502591,-0.34967 1.240388,-0.560549 1.599609,-0.994532 -0.06612,-0.551203 0.129298,-1.30418 -0.09673,-1.732015 -0.555527,-0.196657 -1.240096,-0.223664 -1.717726,-0.5215 -0.938302,-1.710734 -1.956399,-3.400739 -2.847656,-5.123047 0,-0.992188 0,-1.984375 0,-2.976563 -1.231262,-1.392984 -2.7206,-2.625939 -3.582031,-4.298828 -0.139894,-1.029483 -1.023116,-1.717322 -1.652344,-2.46875 0.370992,-1.652726 0.74106,-3.305659 1.109375,-4.958984 -0.419431,-0.433327 -0.794749,-1.003443 -1.459563,-0.644801 -2.303721,0.459006 -4.67204,0.756579 -6.843172,1.701441 -0.07277,-0.908342 -0.02442,-1.935586 0.724991,-2.572626 0.450757,-0.348735 0.920313,-0.6753 0.818045,-1.318305 0.24435,-2.162803 0.489897,-4.326065 0.767511,-6.484069 -1.008765,-0.466177 -1.989835,-1.048756 -3.016011,-1.442335 -1.904804,-0.01832 -3.809624,-0.0349 -5.714457,-0.04985 -0.138672,0.219401 -0.277344,0.438802 -0.416016,0.658203 z m 0.912109,0.06055 c 2.197764,0.226027 4.483482,0.119058 6.591797,0.857422 0.35641,0.270189 0.949391,0.612254 0.693973,1.122469 -0.460907,2.472484 -0.92545,4.999368 -2.180488,7.213551 -0.264757,0.66892 -0.782891,1.670911 -0.09161,2.244058 1.179379,0.506082 2.511648,0.04531 3.709294,-0.181305 1.199554,-0.210164 2.394753,-0.788074 3.625101,-0.64265 0.789174,0.25437 0.457831,1.279398 0.380972,1.883049 -0.112206,0.883307 -0.409862,1.795247 -0.412646,2.659042 1.333663,2.44993 2.71081,4.941341 4.794632,6.845396 0.316588,0.48868 0.06212,1.208539 0.147694,1.790763 -0.05444,0.679726 -4.14e-4,1.330366 0.451702,1.874262 0.782673,1.459185 1.793194,2.870026 2.131376,4.51363 -0.22938,0.778993 0.649881,0.409693 1.121727,0.516015 0.605632,-0.05804 1.185682,0.57232 0.800148,1.138282 -0.222617,0.50309 -0.831502,0.804212 -1.013192,1.268617 1.045958,6.249964 2.022784,12.519314 2.636239,18.825133 -0.305919,1.226446 -0.496079,2.510199 -0.873007,3.701491 -0.494968,0.408186 -0.504772,-0.877706 -0.672739,-1.234111 -1.632529,-6.455863 -3.067995,-12.96573 -4.922879,-19.362532 -0.19485,-0.42684 -0.305355,-1.061965 -0.639187,-1.313832 -0.686837,-0.006 -1.911296,0.148448 -2.069922,-0.765625 -0.0042,-0.497047 0.513522,-0.818364 0.974609,-0.722656 -0.08664,-1.47656 -0.173218,-2.953123 -0.259766,-4.429688 -1.885801,-2.255739 -3.425345,-4.764336 -4.911021,-7.290567 -0.265595,-0.662065 -0.550601,-0.309708 -0.584929,0.210529 -0.441289,2.298286 -0.71897,4.625603 -1.082174,6.93746 1.377234,4.511731 2.530617,9.08186 3.607421,13.673828 1.333502,0.700903 1.75665,2.251285 1.979872,3.626509 0.163048,0.605803 0.367516,1.228362 -0.419325,1.418413 -0.389782,0.136015 -0.567183,0.721014 -0.05273,0.810547 0.561729,0.128603 1.147348,0.03383 1.71875,0.0625 0,3.81901 0,7.638021 0,11.457031 0.699364,1.545507 1.40024,3.090334 2.097656,4.636719 -0.80587,0.704756 -1.744351,1.298027 -2.841388,1.362225 -1.275397,0.169638 -2.695601,0.104781 -3.709393,-0.791912 -0.03572,-2.993801 0.005,-5.999837 -0.07873,-8.986051 -1.939615,-6.030711 -3.66022,-12.146525 -5.936898,-18.051059 -0.572567,-1.255319 -1.025163,-2.682846 -2.113281,-3.595703 -0.779755,-0.446234 -1.342896,0.555383 -1.685692,1.108672 -1.587658,3.000446 -2.506524,6.294357 -3.698098,9.460807 -0.07758,0.548283 -0.653606,1.174372 -0.416877,1.673592 2.283422,2.907861 3.946038,6.254909 5.335835,9.664044 0.197354,0.69349 0.643929,1.437056 0.4453,2.167104 -0.41037,0.522872 -0.925361,-0.28364 -1.261718,-0.527344 -2.001271,-2.020608 -3.784307,-4.243484 -5.476563,-6.523438 -0.366393,-0.519262 -0.4976,0.35097 -0.595773,0.608424 -0.409054,1.531955 -0.741034,3.108991 -1.113211,4.666967 0.260083,0.704549 0.518969,1.409549 0.78125,2.113281 -0.285098,0.619513 -1.026265,1.155402 -0.694443,1.890566 0.251188,1.626582 0.772398,3.289274 0.510849,4.941466 -0.183176,0.582957 -0.813513,0.907178 -1.391276,0.654583 -1.470882,-0.285605 -3.12399,-0.250501 -4.388021,-1.150677 -0.900013,-0.902254 -0.355047,-2.299497 -0.222899,-3.38795 0.219758,-1.455646 0.744761,-2.892053 0.523517,-4.379193 -0.149213,-3.004075 -0.29951,-6.008096 -0.449055,-9.012154 0.664713,0 1.329427,0 1.99414,0 0.184989,-1.366524 0.369877,-2.733061 0.554688,-4.099609 -2.076162,-1.99213 -3.50959,-4.503736 -5.080078,-6.882813 -0.310249,-0.341117 -0.611801,-0.994287 -1.140625,-0.904297 -0.376321,0.497946 -0.883084,1.044782 -1.582813,0.945313 -1.001405,0.192929 -0.607406,-0.49655 -0.05698,-0.881694 1.134497,-1.006241 0.641299,-2.822427 -0.382252,-3.717862 -0.49604,-0.405781 -0.761677,-0.913625 -0.701721,-1.562484 -0.08792,-0.986374 -0.177786,-1.972577 -0.264518,-2.959054 0.466294,-0.209042 0.971843,-0.759257 1.414461,-0.761321 0.469351,0.328192 0.818381,1.145388 1.468352,1.038665 0.988724,-0.831695 1.474632,-2.109892 2.210874,-3.151718 0.270623,-0.509226 -0.196646,-1.133369 -0.23983,-1.691342 -0.192307,-0.537798 -0.333631,-1.065183 0.179503,-1.472818 0.553087,-0.826649 1.199468,-1.779979 2.249843,-1.961466 0.870562,-0.522603 1.359074,-1.453498 1.964844,-2.232422 -0.29044,-1.779236 -0.865771,-3.53296 -0.895116,-5.342149 -0.06691,-0.732434 0.691907,-1.196435 1.352148,-1.009413 2.002953,0.402603 3.851791,1.328154 5.759765,2.029297 0.873588,-0.340127 1.747276,-0.679997 2.621094,-1.019532 0,-1.263021 0,-2.526041 0,-3.789062 -0.848906,0.07371 -1.143997,-0.957317 -1.419922,-1.576172 -0.09892,-0.560947 -0.600417,-1.153571 -0.435237,-1.693637 0.848776,-1.382973 1.094747,-3.009169 1.431331,-4.568082 l 0.09976,0.0069 z" />
		
		<path
		   style="fill:#ffffff;fill-opacity:0;stroke:#000000;stroke-width:1.0002829;stroke-linecap:butt;stroke-dasharray:none;stroke-opacity:0.59414226"
		   d="m 29.678309,41.643622 5.67539,-8.675756 1.265216,5.530794 -2.638877,10.230163 -2.891917,-3.506452 1.337511,-2.711175 z"/>
	
    </g>
	
</svg>
