<?xml version="1.0" encoding="utf-8"?>
<!DOCTYPE svg PUBLIC "-//W3C//DTD SVG 1.1//EN" "http://www.w3.org/Graphics/SVG/1.1/DTD/svg11.dtd">
<svg version="1.1" xmlns="http://www.w3.org/2000/svg" xmlns:xlink="http://www.w3.org/1999/xlink" xmlns:xml="http://www.w3.org/XML/1998/namespace" xmlns:serif="http://www.serif.com/" width="91" height="91" viewBox="0, 0, 91, 91" xml:space="preserve" fill-rule="evenodd" stroke-linejoin="round" stroke-miterlimit="2" style="clip-rule:evenodd;">
	<filter xmlns="http://www.w3.org/2000/svg" x="-10%" y="-25%" height="150%" id="dropshadow">
      <feGaussianBlur stdDeviation="2" in="SourceAlpha" /> 
      <feOffset dx="0" dy="0" result="offsetblur" /> 
      <feMerge> 
        <feMergeNode />
        <feMergeNode in="SourceGraphic" /> 
      </feMerge>
    </filter>
	<path d="M20.6 7.4 C23.1 5.8 25.7 4.4 28.5 3.3 C31.2 2.2 34.1 1.3 37 0.8 C39.9 0.2 42.9 -0 45.9 0 C48.9 0 51.9 0.4 54.8 1 C57.7 1.6 60.5 2.5 63.3 3.6 C66 4.8 68.6 6.2 71.1 7.9 C73.6 9.6 75.8 11.5 77.9 13.6 C80 15.8 81.9 18.1 83.5 20.6 C85.1 23.1 86.5 25.7 87.6 28.5 C88.8 31.2 89.6 34.1 90.1 37 C90.7 39.9 91 42.9 90.9 45.9 C90.9 48.9 90.6 51.9 90 54.8 C89.4 57.7 88.5 60.5 87.3 63.3 C86.1 66 84.7 68.6 83 71.1 C81.4 73.6 79.4 75.8 77.3 77.9 C75.2 80 72.9 81.9 70.4 83.5 C67.9 85.1 65.2 86.5 62.5 87.6 C59.7 88.8 56.8 89.6 53.9 90.2 C51 90.7 48 91 45 90.9 C42.1 90.9 39.1 90.6 36.2 90 C33.3 89.4 30.4 88.5 27.7 87.3 C24.9 86.1 22.3 84.7 19.8 83 C17.4 81.4 15.1 79.4 13 77.3 C10.9 75.2 9.1 72.9 7.4 70.4 C5.8 67.9 4.4 65.2 3.3 62.5 C2.2 59.7 1.3 56.8 0.8 53.9 C0.2 51 -0 48 0 45 C0 42.1 0.4 39.1 1 36.2 C1.6 33.3 2.5 30.4 3.6 27.7 C4.8 24.9 6.2 22.3 7.9 19.8 C9.6 17.4 11.5 15.1 13.6 13 C15.8 10.9 18.1 9.1 20.6 7.4 z" fill-rule="nonzero" style="fill:#C55928;" />

    <g filter="url(#dropshadow)" stroke-width="0.5" style="stroke:black;">
        <path d="M33.8 43.4 C33.8 43.4 34 42.6 34.1 42.3 C34.2 41.9 34.3 41.6 34.5 41.2 C34.6 40.9 34.8 40.5 34.9 40.2 C35.1 39.8 35.3 39.5 35.5 39.2 C35.7 38.9 35.9 38.5 36.1 38.2 C36.4 38 36.6 37.7 36.9 37.4 C37.1 37.1 37.4 36.8 37.7 36.6 C38 36.3 38.3 36.1 38.6 35.9 C38.9 35.7 39.2 35.5 39.5 35.3 C39.8 35.1 40.2 34.9 40.5 34.8 C40.9 34.6 41.2 34.4 41.6 34.3 C41.9 34.2 42.3 34.1 42.7 34 C43 33.9 43.4 33.8 43.8 33.8 C44.1 33.7 44.5 33.7 44.9 33.7 C45.3 33.7 45.7 33.7 46 33.7 C46.4 33.7 46.8 33.7 47.2 33.8 C47.5 33.8 47.9 33.9 48.3 34 C48.6 34.1 49 34.2 49.4 34.3 C49.7 34.4 50.1 34.6 50.4 34.8 C50.8 34.9 51.1 35.1 51.4 35.3 C51.8 35.5 52.1 35.7 52.4 35.9 C52.7 36.1 53 36.3 53.3 36.6 C53.5 36.8 53.8 37.1 54.1 37.4 C54.3 37.7 54.6 38 54.8 38.2 C55 38.5 55.3 38.9 55.5 39.2 C55.7 39.5 55.8 39.8 56 40.2 C56.2 40.5 56.3 40.9 56.5 41.2 C56.6 41.6 56.7 41.9 56.8 42.3 C56.9 42.6 57.1 43.4 57.1 43.4 L59.5 43.4 C59.5 43.4 59.9 41.8 60.2 41.1 C60.5 40.3 60.9 39.6 61.3 38.9 C61.7 38.3 62.3 37.6 62.8 37.1 C63.4 36.5 64 36 64.7 35.6 C65.4 35.1 66.1 34.8 66.9 34.5 C67.6 34.2 68.4 34 69.2 33.8 C70 33.7 70.8 33.6 71.6 33.7 C72.4 33.7 73.2 33.8 74 34 C74.7 34.2 75.5 34.5 76.2 34.8 C77 35.2 77.7 35.6 78.3 36.1 C78.9 36.6 79.5 37.1 80 37.7 C80.6 38.3 81 39 81.4 39.7 C81.8 40.4 82.2 41.1 82.4 41.9 C82.6 42.7 82.8 43.5 82.9 44.3 C83 45.1 83 45.9 82.9 46.7 C82.8 47.5 82.6 48.3 82.4 49 C82.2 49.8 81.8 50.5 81.4 51.2 C81 51.9 80.6 52.6 80 53.2 C79.5 53.8 78.9 54.4 78.3 54.9 C77.7 55.3 77 55.8 76.2 56.1 C75.5 56.5 74.7 56.7 74 56.9 C73.2 57.1 72.4 57.2 71.6 57.3 C70.8 57.3 70 57.2 69.2 57.1 C68.4 57 67.6 56.8 66.9 56.5 C66.1 56.2 65.4 55.8 64.7 55.4 C64 54.9 63.4 54.4 62.8 53.9 C62.3 53.3 61.7 52.7 61.3 52 C60.9 51.3 60.5 50.6 60.2 49.9 C59.9 49.1 59.5 47.6 59.5 47.6 L57.1 47.6 C57.1 47.6 56.9 48.3 56.8 48.7 C56.7 49 56.6 49.4 56.5 49.7 C56.3 50.1 56.2 50.4 56 50.8 C55.8 51.1 55.7 51.4 55.5 51.8 C55.3 52.1 55 52.4 54.8 52.7 C54.6 53 54.3 53.3 54.1 53.6 C53.8 53.8 53.5 54.1 53.3 54.3 C53 54.6 52.7 54.8 52.4 55 C52.1 55.3 51.8 55.5 51.4 55.7 C51.1 55.9 50.8 56 50.4 56.2 C50.1 56.4 49.7 56.5 49.4 56.6 C49 56.7 48.6 56.8 48.3 56.9 C47.9 57 47.5 57.1 47.2 57.2 C46.8 57.2 46.4 57.2 46 57.3 C45.7 57.3 45.3 57.3 44.9 57.3 C44.5 57.2 44.1 57.2 43.8 57.2 C43.4 57.1 43 57 42.7 56.9 C42.3 56.8 41.9 56.7 41.6 56.6 C41.2 56.5 40.9 56.4 40.5 56.2 C40.2 56 39.8 55.9 39.5 55.7 C39.2 55.5 38.9 55.3 38.6 55 C38.3 54.8 38 54.6 37.7 54.3 C37.4 54.1 37.1 53.8 36.9 53.6 C36.6 53.3 36.4 53 36.1 52.7 C35.9 52.4 35.7 52.1 35.5 51.8 C35.3 51.4 35.1 51.1 34.9 50.8 C34.8 50.4 34.6 50.1 34.5 49.7 C34.3 49.4 34.2 49 34.1 48.7 C34 48.3 33.8 47.6 33.8 47.6 L31.4 47.6 C31.4 47.6 31.1 49.1 30.8 49.9 C30.5 50.6 30.1 51.3 29.6 52 C29.2 52.7 28.7 53.3 28.1 53.9 C27.5 54.4 26.9 54.9 26.2 55.4 C25.6 55.8 24.8 56.2 24.1 56.5 C23.3 56.8 22.6 57 21.8 57.1 C21 57.2 20.2 57.3 19.4 57.3 C18.6 57.2 17.8 57.1 17 56.9 C16.2 56.7 15.4 56.5 14.7 56.1 C14 55.8 13.3 55.3 12.7 54.9 C12 54.4 11.4 53.8 10.9 53.2 C10.4 52.6 9.9 51.9 9.5 51.2 C9.1 50.5 8.8 49.8 8.5 49 C8.3 48.3 8.1 47.5 8.1 46.7 C8 45.9 8 45.1 8.1 44.3 C8.1 43.5 8.3 42.7 8.5 41.9 C8.8 41.1 9.1 40.4 9.5 39.7 C9.9 39 10.4 38.3 10.9 37.7 C11.4 37.1 12 36.6 12.7 36.1 C13.3 35.6 14 35.2 14.7 34.8 C15.4 34.5 16.2 34.2 17 34 C17.8 33.8 18.6 33.7 19.4 33.7 C20.2 33.6 21 33.7 21.8 33.8 C22.6 34 23.3 34.2 24.1 34.5 C24.8 34.8 25.6 35.1 26.2 35.6 C26.9 36 27.5 36.5 28.1 37.1 C28.7 37.6 29.2 38.3 29.6 38.9 C30.1 39.6 30.5 40.3 30.8 41.1 C31.1 41.8 31.4 43.4 31.4 43.4 L33.8 43.4 z M13.2 45.5 C13.2 45 13.3 44.6 13.3 44.2 C13.4 43.8 13.6 43.3 13.7 42.9 C13.9 42.6 14.1 42.2 14.3 41.8 C14.6 41.5 14.8 41.1 15.1 40.8 C15.4 40.5 15.8 40.2 16.1 40 C16.5 39.8 16.9 39.5 17.3 39.4 C17.7 39.2 18.1 39.1 18.5 39 C18.9 38.9 19.4 38.9 19.8 38.9 C20.2 38.9 20.7 38.9 21.1 39 C21.5 39.1 21.9 39.2 22.3 39.4 C22.7 39.5 23.1 39.8 23.5 40 C23.8 40.2 24.2 40.5 24.5 40.8 C24.8 41.1 25 41.5 25.3 41.8 C25.5 42.2 25.7 42.6 25.9 42.9 C26.1 43.3 26.2 43.8 26.3 44.2 C26.4 44.6 26.4 45 26.4 45.5 C26.4 45.9 26.4 46.3 26.3 46.8 C26.2 47.2 26.1 47.6 25.9 48 C25.7 48.4 25.5 48.8 25.3 49.1 C25 49.5 24.8 49.8 24.5 50.1 C24.2 50.4 23.8 50.7 23.5 51 C23.1 51.2 22.7 51.4 22.3 51.6 C21.9 51.7 21.5 51.9 21.1 51.9 C20.7 52 20.2 52.1 19.8 52.1 C19.4 52.1 18.9 52 18.5 51.9 C18.1 51.9 17.7 51.7 17.3 51.6 C16.9 51.4 16.5 51.2 16.1 51 C15.8 50.7 15.4 50.4 15.1 50.1 C14.8 49.8 14.6 49.5 14.3 49.1 C14.1 48.8 13.9 48.4 13.7 48 C13.6 47.6 13.4 47.2 13.3 46.8 C13.3 46.3 13.2 45.9 13.2 45.5 z M77.7 45.5 C77.7 45 77.7 44.6 77.6 44.2 C77.5 43.8 77.4 43.3 77.2 42.9 C77.1 42.6 76.9 42.2 76.6 41.8 C76.4 41.5 76.1 41.1 75.8 40.8 C75.5 40.5 75.2 40.2 74.8 40 C74.4 39.8 74.1 39.5 73.7 39.4 C73.3 39.2 72.8 39.1 72.4 39 C72 38.9 71.6 38.9 71.1 38.9 C70.7 38.9 70.3 38.9 69.8 39 C69.4 39.1 69 39.2 68.6 39.4 C68.2 39.5 67.8 39.8 67.5 40 C67.1 40.2 66.8 40.5 66.5 40.8 C66.2 41.1 65.9 41.5 65.7 41.8 C65.4 42.2 65.2 42.6 65 42.9 C64.9 43.3 64.8 43.8 64.7 44.2 C64.6 44.6 64.5 45 64.5 45.5 C64.5 45.9 64.6 46.3 64.7 46.8 C64.8 47.2 64.9 47.6 65 48 C65.2 48.4 65.4 48.8 65.7 49.1 C65.9 49.5 66.2 49.8 66.5 50.1 C66.8 50.4 67.1 50.7 67.5 51 C67.8 51.2 68.2 51.4 68.6 51.6 C69 51.7 69.4 51.9 69.8 51.9 C70.3 52 70.7 52.1 71.1 52.1 C71.6 52.1 72 52 72.4 51.9 C72.8 51.9 73.3 51.7 73.7 51.6 C74.1 51.4 74.4 51.2 74.8 51 C75.2 50.7 75.5 50.4 75.8 50.1 C76.1 49.8 76.4 49.5 76.6 49.1 C76.9 48.8 77.1 48.4 77.2 48 C77.4 47.6 77.5 47.2 77.6 46.8 C77.7 46.3 77.7 45.9 77.7 45.5 z M52.1 45.5 C52.1 45 52 44.6 51.9 44.2 C51.9 43.8 51.7 43.3 51.6 42.9 C51.4 42.6 51.2 42.2 51 41.8 C50.7 41.5 50.4 41.1 50.1 40.8 C49.8 40.5 49.5 40.2 49.1 40 C48.8 39.8 48.4 39.5 48 39.4 C47.6 39.2 47.2 39.1 46.8 39 C46.3 38.9 45.9 38.9 45.5 38.9 C45 38.9 44.6 38.9 44.2 39 C43.8 39.1 43.3 39.2 42.9 39.4 C42.6 39.5 42.2 39.8 41.8 40 C41.5 40.2 41.1 40.5 40.8 40.8 C40.5 41.1 40.2 41.5 40 41.8 C39.8 42.2 39.5 42.6 39.4 42.9 C39.2 43.3 39.1 43.8 39 44.2 C38.9 44.6 38.9 45 38.9 45.5 C38.9 45.9 38.9 46.3 39 46.8 C39.1 47.2 39.2 47.6 39.4 48 C39.5 48.4 39.8 48.8 40 49.1 C40.2 49.5 40.5 49.8 40.8 50.1 C41.1 50.4 41.5 50.7 41.8 51 C42.2 51.2 42.6 51.4 42.9 51.6 C43.3 51.7 43.8 51.9 44.2 51.9 C44.6 52 45 52.1 45.5 52.1 C45.9 52.1 46.3 52 46.8 51.9 C47.2 51.9 47.6 51.7 48 51.6 C48.4 51.4 48.8 51.2 49.1 51 C49.5 50.7 49.8 50.4 50.1 50.1 C50.4 49.8 50.7 49.5 51 49.1 C51.2 48.8 51.4 48.4 51.6 48 C51.7 47.6 51.9 47.2 51.9 46.8 C52 46.3 52.1 45.9 52.1 45.5 z" style="fill:white;" />
    </g>
</svg>