<?xml version="1.0" encoding="UTF-8" standalone="no"?>
<!DOCTYPE svg PUBLIC "-//W3C//DTD SVG 1.1//EN" "http://www.w3.org/Graphics/SVG/1.1/DTD/svg11.dtd">
<svg width="204" height="204" viewBox="0 0 204 204" version="1.1" xmlns="http://www.w3.org/2000/svg" xmlns:xlink="http://www.w3.org/1999/xlink" xml:space="preserve" xmlns:serif="http://www.serif.com/" style="fill-rule:evenodd;clip-rule:evenodd;stroke-linecap:round;stroke-linejoin:round;">
    <g transform="matrix(1,0,0,1,-131.712,-781.477)">
        <g transform="matrix(1,0,0,1,4.34917,745.226)">
            <g id="background" transform="matrix(1.81425,0,0,1.81448,87.6189,-3.40042)">
                <path d="M42.458,35.478C47.445,31.3 53.622,27.688 60.578,25.4C67.534,23.112 75.268,22.15 82.867,22.817C86.666,23.151 90.432,23.892 94.06,25.008C97.688,26.123 101.178,27.613 104.381,29.347C110.788,32.814 116.048,37.255 120.395,42.458C124.742,47.661 128.177,53.625 130.453,60.547C131.591,64.008 132.439,67.709 132.888,71.475C133.337,75.242 133.386,79.074 133.046,82.872C132.706,86.67 131.976,90.433 130.865,94.06C129.754,97.687 128.262,101.178 126.527,104.381C123.058,110.789 118.617,116.048 113.415,120.395C108.212,124.742 102.248,128.177 95.326,130.453C91.865,131.591 88.165,132.439 84.398,132.888C80.632,133.337 76.799,133.386 73.001,133.046C69.203,132.706 65.44,131.976 61.813,130.865C58.186,129.754 54.696,128.262 51.492,126.527C45.085,123.058 39.826,118.617 35.478,113.415C31.131,108.212 27.694,102.247 25.421,95.326C24.284,91.866 23.438,88.166 22.985,84.398C22.532,80.63 22.472,76.792 22.818,72.994C23.512,65.397 25.833,57.957 29.321,51.519C32.808,45.08 37.461,39.643 42.458,35.478Z" style="fill:url(#_Radial1);fill-rule:nonzero;stroke:black;stroke-width:1.38px;"/>
            </g>
            <g transform="matrix(0.691174,0,0,0.691174,68.666,-92.9764)">
                <circle cx="233.356" cy="334.206" r="99.794" style="fill:none;stroke:white;stroke-opacity:0.5;stroke-width:9.04px;stroke-miterlimit:1.5;"/>
            </g>
        </g>
        <g transform="matrix(1.42901,0,0,1.42901,-266.953,297.435)">
            <path d="M307.172,415.345C306.992,414.994 308.68,411.507 309.465,409.94C310.163,408.549 311.154,406.953 311.884,405.946C312.439,405.18 313.517,404.7 313.846,403.895C314.175,403.091 313.561,401.919 313.858,401.119C314.155,400.319 314.976,399.708 315.628,399.094C316.346,398.419 317.52,397.392 318.163,397.069C318.558,396.871 319.049,397.218 319.487,397.158C320.048,397.082 320.939,397 321.525,396.611C322.368,396.05 323.738,394.912 324.543,393.796C325.467,392.516 326.478,390.164 327.065,388.931C327.454,388.113 327.93,386.938 328.062,386.401C328.119,386.167 328.004,385.898 327.855,385.709C327.68,385.489 327.176,385.327 327.016,385.081C326.86,384.84 326.751,384.478 326.895,384.229C327.319,383.494 329.1,381.339 329.565,380.67C329.654,380.541 329.67,380.37 329.679,380.214C329.705,379.752 329.402,378.602 329.721,377.899C330.204,376.833 331.323,374.906 332.576,373.816C333.841,372.715 336.446,371.804 337.309,371.292C337.511,371.173 337.721,370.977 337.75,370.744C337.882,369.687 337.971,366.005 338.099,364.949C338.127,364.721 338.309,364.493 338.522,364.406C339.279,364.097 341.899,363.362 342.646,363.093C342.793,363.04 342.937,362.918 343.003,362.79C343.069,362.662 343.066,362.478 343.039,362.324C342.952,361.824 342.488,360.655 342.48,359.79C342.47,358.578 342.283,356.248 342.976,355.055C343.669,353.862 345.198,352.891 346.638,352.631C348.108,352.366 350.58,352.843 351.796,353.465C352.865,354.011 353.666,355.192 353.935,356.361C354.238,357.686 353.746,360.367 353.618,361.413C353.566,361.844 353.245,362.353 353.17,362.637C353.129,362.791 353.111,362.981 353.169,363.116C353.226,363.252 353.367,363.388 353.515,363.448C354.674,363.913 358.955,365.405 360.122,365.91C360.334,366.002 360.499,366.25 360.517,366.48C360.583,367.289 360.463,369.961 360.517,370.764C360.531,370.974 360.668,371.187 360.843,371.303C361.292,371.6 362.77,372.327 363.212,372.546C363.299,372.589 363.398,372.611 363.494,372.616C363.705,372.628 364.242,372.587 364.477,372.616C364.631,372.635 364.792,372.689 364.906,372.793C365.438,373.28 367.179,375.032 367.667,375.54C367.746,375.623 367.806,375.73 367.832,375.841C368.05,376.758 368.723,380.104 368.971,381.042C369.017,381.219 369.171,381.357 369.317,381.467C369.463,381.578 369.705,381.602 369.85,381.705C369.988,381.803 370.127,381.927 370.185,382.086C370.388,382.64 370.964,384.426 371.068,385.032C371.11,385.272 370.889,385.486 370.814,385.718C370.735,385.962 370.496,386.244 370.594,386.494C371.088,387.758 373.238,392.142 373.775,393.299C373.796,393.344 373.811,393.391 373.821,393.438C373.913,393.886 374.219,395.513 374.326,395.985C374.349,396.086 374.409,396.177 374.464,396.266C374.725,396.692 375.597,397.696 375.892,398.542C376.233,399.525 376.428,401.094 376.515,402.161C376.59,403.086 376.772,404.227 376.413,404.944C376.054,405.661 375.114,406.316 374.358,406.461C373.601,406.605 372.492,406.402 371.874,405.811C371.238,405.202 370.702,403.892 370.543,402.809C370.38,401.695 370.803,399.993 370.894,399.126C370.947,398.619 371.078,397.974 371.09,397.61C371.098,397.384 371.007,397.088 370.969,396.942C370.95,396.867 370.912,396.796 370.865,396.735C369.845,395.404 365.96,390.287 364.846,388.956C364.696,388.777 364.348,388.765 364.179,388.749C364.057,388.738 363.951,388.866 363.829,388.862C363.668,388.856 363.38,388.847 363.216,388.717C362.812,388.396 361.813,387.257 361.408,386.937C361.241,386.805 360.956,386.736 360.785,386.795C360.613,386.854 360.446,387.087 360.379,387.289C360.228,387.741 360.127,388.793 359.878,389.509C359.543,390.474 358.709,391.949 358.369,393.078C358.056,394.116 357.918,395.324 357.834,396.286C357.759,397.137 357.821,398.351 357.863,398.848C357.876,399.006 357.972,399.178 358.086,399.27C358.199,399.362 358.385,399.412 358.544,399.401C359.13,399.359 360.981,399.012 361.6,399.019C361.861,399.022 362.169,399.199 362.257,399.445C362.843,401.078 364.667,407.153 365.118,408.818C365.173,409.022 365.09,409.266 364.959,409.432C364.703,409.756 363.833,410.512 363.583,410.762C363.533,410.813 363.477,410.867 363.458,410.935C363.431,411.035 363.383,411.223 363.419,411.361C364.092,413.9 366.854,423.592 367.491,426.172C367.548,426.403 367.323,426.616 367.243,426.839C367.161,427.066 366.933,427.298 367.002,427.533C367.71,429.944 370.737,438.958 371.488,441.303C371.518,441.4 371.524,441.507 371.506,441.607C371.398,442.235 370.948,444.45 370.838,445.075C370.822,445.167 370.827,445.265 370.85,445.355C371.252,446.943 372.687,452.359 373.249,454.602C373.599,455.998 373.858,457.765 374.221,458.81C374.483,459.562 375.156,460.129 375.428,460.873C375.7,461.617 375.774,462.65 375.851,463.277C375.906,463.725 375.916,464.333 375.892,464.631C375.88,464.787 375.811,464.962 375.708,465.062C375.605,465.163 375.428,465.233 375.272,465.234C374.251,465.242 370.628,465.212 369.583,465.113C369.334,465.089 369.092,464.869 369.002,464.635C368.868,464.286 368.783,463.565 368.777,463.022C368.768,462.297 368.9,461.074 368.952,460.285C368.995,459.619 369.21,458.942 369.087,458.286C368.952,457.561 368.472,456.712 368.136,455.937C367.408,454.258 365.471,449.936 364.72,448.212C364.343,447.344 364.176,446.365 363.633,445.591C362.973,444.65 361.728,443.546 360.76,442.563C359.801,441.588 358.444,440.499 357.829,439.69C357.402,439.128 357.262,438.391 357.072,437.71C356.774,436.643 356.391,434.67 356.043,433.285C355.716,431.982 355.259,430.118 354.984,429.399C354.896,429.17 354.634,428.987 354.39,428.966C353.492,428.886 351.192,428.969 349.594,428.922C347.832,428.87 344.881,428.638 343.82,428.654C343.586,428.657 343.332,428.812 343.222,429.018C342.831,429.753 342.046,431.712 341.469,433.064C340.731,434.792 339.357,437.947 338.796,439.385C338.504,440.132 338.26,441.247 338.102,441.69C338.053,441.825 337.959,441.948 337.848,442.04C337.306,442.489 335.52,443.821 334.849,444.384C334.478,444.697 334.037,445.147 333.828,445.422C333.695,445.596 333.675,445.833 333.592,446.035C333.251,446.866 332.368,448.942 331.784,450.406C331.102,452.112 330.072,454.617 329.504,456.271C329.047,457.598 328.584,459.139 328.372,460.327C328.192,461.335 328.284,462.809 328.232,463.396C328.217,463.558 328.164,463.746 328.06,463.852C327.956,463.959 327.771,464.037 327.608,464.036C325.639,464.016 318.229,463.841 316.246,463.732C316.033,463.721 315.811,463.571 315.712,463.382C315.602,463.174 315.424,462.728 315.589,462.481C315.755,462.234 316.304,462.02 316.705,461.899C317.143,461.768 317.778,461.954 318.215,461.695C318.794,461.352 319.553,460.487 320.18,459.84C320.938,459.059 322.099,458.102 322.759,457.01C323.495,455.791 324.098,454.064 324.598,452.529C325.222,450.616 326.031,447.903 326.501,445.532C326.986,443.084 327.342,439.487 327.507,437.844C327.579,437.124 327.372,436.387 327.491,435.674C327.67,434.61 328.209,432.718 328.576,431.46C328.904,430.335 329.479,428.778 329.693,428.127C329.754,427.939 329.885,427.753 329.859,427.556C329.831,427.341 329.637,427.068 329.523,426.835C329.411,426.607 329.158,426.412 329.175,426.159C329.213,425.591 329.538,424.333 329.75,423.427C330.112,421.886 330.79,418.864 331.343,416.917C331.841,415.168 332.606,413.486 333.073,411.744C333.537,410.008 333.66,407.824 334.142,406.461C334.522,405.386 335.413,404.386 335.966,403.568C336.434,402.876 337.203,402.276 337.46,401.556C337.716,400.835 337.512,400.015 337.507,399.244C337.496,397.808 337.465,394.394 337.397,392.94C337.359,392.127 337.288,391.098 337.098,390.518C336.957,390.09 336.536,389.629 336.254,389.462C336.01,389.318 335.642,389.36 335.406,389.517C335.069,389.74 334.632,390.378 334.236,390.801C333.368,391.731 331.396,393.825 330.196,395.094C329.146,396.203 327.718,397.721 327.035,398.411C326.743,398.707 326.291,399.017 326.098,399.236C325.981,399.369 325.876,399.564 325.882,399.723C325.888,399.883 326.071,400.101 326.133,400.194C326.16,400.235 326.224,400.24 326.253,400.28C326.314,400.366 326.484,400.557 326.501,400.707C326.517,400.856 326.454,401.048 326.351,401.176C326.104,401.485 325.495,402.131 325.018,402.557C324.361,403.141 322.967,404.332 322.413,404.684C322.21,404.813 321.908,404.773 321.693,404.667C321.377,404.513 320.841,403.908 320.518,403.759C320.286,403.652 319.956,403.62 319.754,403.775C318.739,404.554 315.966,407.051 314.431,408.429C313.115,409.611 311.757,410.893 310.547,412.046C309.408,413.131 307.352,415.695 307.172,415.345Z" style="fill:rgb(255,255,201);fill-rule:nonzero;"/>
            <path d="M338.111,359.936L338.107,359.828C338.091,358.033 338.168,354.626 339.194,352.858C340.467,350.668 343.218,348.804 345.862,348.327C348.119,347.92 351.92,348.616 353.787,349.57C355.953,350.678 357.654,353.013 358.198,355.384C358.487,356.648 358.311,358.869 358.132,360.494C359.63,361.039 361.214,361.617 361.86,361.897C363.448,362.585 364.736,364.399 364.877,366.125C364.91,366.53 364.898,367.395 364.884,368.265L365.021,368.276C366.053,368.406 367.095,368.866 367.861,369.569C368.431,370.091 370.299,371.967 370.822,372.511C371.433,373.147 371.885,373.975 372.088,374.833C372.235,375.454 372.595,377.214 372.884,378.543C373.503,379.102 374.009,379.811 374.291,380.582C374.546,381.277 375.246,383.525 375.378,384.285C375.463,384.779 375.352,385.479 375.198,386.112C376.001,387.864 377.34,390.592 377.742,391.456C377.905,391.808 378.028,392.181 378.106,392.56C378.168,392.866 378.334,393.743 378.462,394.39C378.929,395.079 379.701,396.181 380.022,397.105C380.467,398.384 380.761,400.418 380.874,401.806C381.013,403.51 380.984,405.585 380.322,406.905C379.418,408.708 377.081,410.393 375.178,410.757C373.468,411.083 371.082,410.623 369.457,409.468C369.347,410.443 368.972,411.407 368.392,412.141C368.348,412.197 368.29,412.264 368.221,412.338C369.288,416.192 371.217,423.017 371.737,425.123C371.889,425.738 371.738,426.659 371.546,427.432C372.594,430.76 374.998,437.923 375.653,439.97C375.895,440.727 375.951,441.566 375.817,442.349C375.737,442.814 375.47,444.143 375.292,445.061C375.844,447.202 377.001,451.58 377.491,453.539C377.789,454.725 377.993,456.209 378.288,457.175C378.524,457.525 379.284,458.68 379.537,459.374C379.919,460.42 380.083,461.86 380.192,462.74C380.283,463.482 380.292,464.488 380.252,464.98C380.158,466.16 379.538,467.439 378.755,468.2C377.934,468.998 376.549,469.597 375.307,469.608C374.205,469.617 370.295,469.574 369.167,469.466C367.391,469.297 365.563,467.873 364.922,466.209C364.659,465.529 364.416,464.132 364.403,463.073C364.394,462.259 364.529,460.885 364.587,459.999C364.605,459.723 364.664,459.276 364.707,458.973C364.553,458.637 364.276,458.028 364.124,457.677C363.396,455.999 361.46,451.68 360.71,449.957C360.448,449.355 360.428,448.639 360.052,448.102C359.506,447.323 358.442,446.443 357.642,445.63C356.553,444.523 355.045,443.255 354.347,442.337C353.589,441.339 353.196,440.092 352.859,438.885C352.554,437.791 352.158,435.77 351.801,434.35L351.54,433.3C350.829,433.307 350.09,433.312 349.465,433.293C348.548,433.266 347.3,433.187 346.182,433.122C345.946,433.693 345.704,434.283 345.491,434.781C344.768,436.475 343.42,439.566 342.87,440.975C342.594,441.683 342.37,442.741 342.221,443.16C341.913,444.023 341.344,444.823 340.638,445.408C340.101,445.853 338.329,447.172 337.665,447.731L337.599,447.789C337.237,448.667 336.404,450.629 335.845,452.028C335.187,453.676 334.189,456.096 333.64,457.693C333.256,458.808 332.855,460.099 332.677,461.096C332.52,461.978 332.634,463.268 332.588,463.782C332.488,464.918 331.92,466.158 331.191,466.906C330.353,467.764 328.872,468.422 327.564,468.409C325.561,468.389 318.023,468.21 316.006,468.099C314.357,468.009 312.607,466.878 311.839,465.415C311.527,464.82 311.159,463.728 311.149,462.795C311.137,461.764 311.434,460.825 311.956,460.046C312.509,459.221 314.109,458.111 315.451,457.71C315.657,457.648 315.97,457.6 316.286,457.564L317.041,456.795C317.603,456.215 318.525,455.559 319.016,454.748C319.6,453.78 320.042,452.392 320.44,451.173C321.019,449.398 321.775,446.882 322.21,444.682C322.669,442.366 322.999,438.961 323.155,437.406C323.237,436.592 323.043,435.759 323.178,434.951C323.377,433.762 323.967,431.642 324.377,430.236C324.604,429.46 324.941,428.487 325.208,427.721C324.974,427.09 324.777,426.385 324.811,425.867C324.859,425.154 325.225,423.566 325.492,422.428C325.865,420.84 326.566,417.727 327.137,415.72C327.628,413.993 328.387,412.334 328.848,410.613C329.342,408.767 329.506,406.451 330.019,405.002C330.522,403.58 331.611,402.2 332.343,401.118C332.538,400.829 332.89,400.401 333.17,400.071C333.152,399.796 333.135,399.486 333.133,399.276L333.125,398.361L331.618,399.954L330.869,400.739C330.852,401.81 330.451,403.054 329.764,403.912C329.422,404.338 328.586,405.235 327.927,405.823C327.132,406.53 325.428,407.951 324.757,408.377C323.568,409.131 321.89,409.289 320.497,408.874C319.421,409.821 318.194,410.929 317.354,411.683C316.07,412.837 314.745,414.088 313.564,415.213C312.732,416.005 311.415,417.574 310.676,418.259C309.889,418.987 309.159,419.34 308.749,419.486C307.477,419.94 306.425,419.758 305.639,419.457C304.648,419.078 303.83,418.41 303.282,417.343C303.004,416.803 302.611,415.809 302.866,414.381C303.048,413.363 304.693,409.7 305.555,407.98C306.359,406.377 307.502,404.54 308.343,403.379C308.604,403.019 309.096,402.533 309.52,402.14C309.504,401.278 309.538,400.19 309.758,399.596C310.275,398.206 311.497,396.976 312.632,395.909C313.628,394.971 315.308,393.608 316.202,393.16C316.911,392.804 318.197,392.771 319.076,392.798L319.416,392.748C319.929,392.371 320.586,391.806 320.996,391.237C321.787,390.142 322.613,388.108 323.115,387.053C322.344,385.549 322.281,383.473 323.108,382.042C323.442,381.463 324.54,380.063 325.307,379.065C325.327,378.097 325.419,376.795 325.737,376.095C326.4,374.63 327.983,372.016 329.704,370.517C330.663,369.683 332.271,368.903 333.536,368.3C333.61,366.851 333.675,365.097 333.757,364.421C333.964,362.727 335.289,361.002 336.868,360.357C337.124,360.253 337.582,360.101 338.111,359.936ZM307.172,415.345C306.992,414.994 308.68,411.507 309.465,409.94C310.163,408.549 311.154,406.953 311.884,405.946C312.439,405.18 313.517,404.7 313.846,403.895C314.175,403.091 313.561,401.919 313.858,401.119C314.155,400.319 314.976,399.708 315.629,399.094C316.346,398.419 317.52,397.392 318.163,397.069C318.558,396.871 319.049,397.218 319.487,397.158C320.048,397.082 320.939,397 321.525,396.611C322.368,396.05 323.738,394.912 324.543,393.796C325.467,392.516 326.478,390.164 327.065,388.931C327.454,388.113 327.93,386.938 328.062,386.401C328.119,386.167 328.004,385.898 327.855,385.709C327.68,385.489 327.176,385.327 327.016,385.081C326.86,384.84 326.751,384.478 326.895,384.229C327.319,383.494 329.1,381.339 329.565,380.67C329.654,380.541 329.67,380.37 329.679,380.214C329.705,379.752 329.402,378.602 329.721,377.899C330.204,376.833 331.323,374.906 332.576,373.816C333.841,372.715 336.446,371.804 337.309,371.292C337.511,371.173 337.721,370.977 337.75,370.744C337.882,369.687 337.971,366.005 338.099,364.949C338.127,364.721 338.309,364.493 338.522,364.406C339.279,364.097 341.899,363.362 342.646,363.093C342.793,363.04 342.937,362.918 343.003,362.79C343.069,362.662 343.066,362.478 343.039,362.324C342.952,361.824 342.488,360.655 342.48,359.79C342.47,358.578 342.283,356.248 342.976,355.055C343.669,353.862 345.198,352.891 346.638,352.631C348.108,352.366 350.58,352.843 351.796,353.465C352.865,354.011 353.666,355.192 353.935,356.361C354.238,357.686 353.746,360.367 353.618,361.413C353.566,361.844 353.245,362.353 353.17,362.637C353.129,362.791 353.111,362.981 353.169,363.116C353.226,363.252 353.367,363.388 353.515,363.448C354.674,363.913 358.955,365.405 360.122,365.91C360.334,366.002 360.499,366.25 360.517,366.48C360.583,367.289 360.463,369.961 360.517,370.764C360.531,370.974 360.668,371.187 360.843,371.303C361.292,371.6 362.77,372.327 363.212,372.546C363.299,372.589 363.398,372.611 363.494,372.616C363.705,372.628 364.242,372.587 364.477,372.616C364.631,372.635 364.792,372.689 364.906,372.793C365.438,373.28 367.179,375.032 367.667,375.54C367.746,375.623 367.806,375.73 367.832,375.841C368.05,376.758 368.723,380.104 368.971,381.042C369.017,381.219 369.171,381.357 369.317,381.467C369.463,381.578 369.705,381.602 369.85,381.705C369.988,381.803 370.127,381.927 370.185,382.086C370.388,382.64 370.964,384.426 371.068,385.032C371.11,385.272 370.889,385.486 370.814,385.718C370.735,385.962 370.496,386.244 370.594,386.494C371.088,387.758 373.238,392.142 373.775,393.299C373.796,393.344 373.811,393.391 373.821,393.438C373.913,393.886 374.219,395.513 374.326,395.985C374.349,396.086 374.409,396.177 374.464,396.266C374.725,396.692 375.597,397.696 375.892,398.542C376.233,399.525 376.428,401.094 376.515,402.161C376.59,403.086 376.772,404.227 376.413,404.944C376.054,405.661 375.114,406.316 374.358,406.461C373.601,406.605 372.492,406.402 371.874,405.811C371.238,405.202 370.702,403.892 370.543,402.809C370.38,401.695 370.803,399.993 370.894,399.126C370.947,398.619 371.078,397.974 371.09,397.61C371.098,397.384 371.007,397.088 370.969,396.942C370.95,396.867 370.912,396.796 370.865,396.735C369.845,395.404 365.96,390.287 364.846,388.956C364.696,388.777 364.348,388.765 364.179,388.749C364.057,388.738 363.951,388.866 363.829,388.862C363.668,388.856 363.38,388.847 363.216,388.717C362.812,388.396 361.813,387.257 361.408,386.937C361.241,386.805 360.956,386.736 360.785,386.795C360.613,386.854 360.446,387.087 360.379,387.289C360.228,387.741 360.127,388.793 359.878,389.509C359.543,390.474 358.709,391.949 358.369,393.078C358.056,394.116 357.918,395.324 357.834,396.286C357.759,397.137 357.821,398.351 357.863,398.848C357.876,399.006 357.972,399.178 358.086,399.27C358.199,399.362 358.385,399.412 358.544,399.401C359.13,399.359 360.981,399.012 361.6,399.019C361.861,399.022 362.169,399.199 362.257,399.445C362.843,401.078 364.667,407.153 365.118,408.818C365.173,409.022 365.09,409.266 364.959,409.432C364.703,409.756 363.833,410.512 363.583,410.762C363.533,410.813 363.477,410.867 363.458,410.935C363.431,411.035 363.383,411.223 363.419,411.361C364.092,413.9 366.854,423.592 367.491,426.172C367.548,426.403 367.323,426.616 367.243,426.839C367.161,427.066 366.933,427.298 367.002,427.533C367.71,429.944 370.737,438.958 371.488,441.303C371.518,441.4 371.524,441.507 371.506,441.607C371.398,442.235 370.948,444.45 370.838,445.075C370.822,445.167 370.827,445.265 370.85,445.355C371.252,446.943 372.687,452.359 373.249,454.602C373.599,455.998 373.858,457.765 374.221,458.81C374.483,459.562 375.156,460.129 375.428,460.873C375.7,461.617 375.774,462.65 375.851,463.277C375.906,463.725 375.916,464.333 375.892,464.631C375.88,464.787 375.811,464.962 375.708,465.062C375.605,465.163 375.428,465.233 375.272,465.234C374.251,465.242 370.628,465.212 369.583,465.113C369.334,465.089 369.092,464.869 369.002,464.635C368.868,464.286 368.783,463.565 368.777,463.022C368.768,462.297 368.9,461.074 368.952,460.285C368.995,459.619 369.21,458.942 369.087,458.286C368.952,457.561 368.472,456.712 368.136,455.937C367.408,454.258 365.471,449.936 364.72,448.212C364.343,447.344 364.176,446.365 363.633,445.591C362.973,444.65 361.728,443.546 360.76,442.563C359.801,441.588 358.444,440.499 357.829,439.69C357.402,439.128 357.262,438.391 357.072,437.71C356.774,436.643 356.391,434.67 356.043,433.285C355.716,431.982 355.259,430.118 354.984,429.399C354.896,429.17 354.634,428.987 354.39,428.966C353.492,428.886 351.192,428.969 349.594,428.922C347.832,428.87 344.881,428.638 343.82,428.654C343.586,428.657 343.332,428.812 343.222,429.018C342.831,429.753 342.046,431.712 341.469,433.064C340.731,434.792 339.357,437.947 338.796,439.385C338.504,440.132 338.26,441.247 338.102,441.69C338.053,441.825 337.959,441.948 337.848,442.04C337.306,442.489 335.52,443.821 334.85,444.384C334.478,444.697 334.037,445.147 333.828,445.422C333.695,445.596 333.675,445.833 333.592,446.035C333.251,446.866 332.368,448.942 331.784,450.406C331.102,452.112 330.072,454.617 329.504,456.271C329.047,457.598 328.584,459.139 328.372,460.327C328.192,461.335 328.284,462.809 328.232,463.396C328.217,463.558 328.164,463.746 328.06,463.852C327.956,463.959 327.771,464.037 327.608,464.036C325.639,464.016 318.229,463.841 316.246,463.732C316.033,463.721 315.811,463.571 315.712,463.382C315.602,463.174 315.424,462.728 315.589,462.481C315.755,462.234 316.304,462.02 316.706,461.899C317.143,461.768 317.778,461.954 318.215,461.695C318.794,461.352 319.553,460.487 320.18,459.84C320.938,459.059 322.099,458.102 322.759,457.01C323.495,455.791 324.098,454.064 324.598,452.529C325.222,450.616 326.031,447.903 326.501,445.532C326.986,443.084 327.342,439.487 327.507,437.844C327.579,437.124 327.372,436.387 327.491,435.674C327.67,434.61 328.209,432.718 328.576,431.46C328.904,430.335 329.479,428.778 329.693,428.127C329.754,427.939 329.885,427.753 329.859,427.556C329.831,427.341 329.637,427.068 329.523,426.835C329.411,426.607 329.158,426.412 329.175,426.159C329.213,425.591 329.538,424.333 329.75,423.427C330.112,421.886 330.79,418.864 331.343,416.917C331.841,415.168 332.606,413.486 333.073,411.744C333.537,410.008 333.66,407.824 334.142,406.461C334.522,405.386 335.413,404.386 335.966,403.568C336.434,402.876 337.203,402.276 337.46,401.556C337.716,400.835 337.512,400.015 337.507,399.244C337.496,397.808 337.465,394.394 337.397,392.94C337.359,392.127 337.288,391.098 337.098,390.518C336.957,390.09 336.536,389.629 336.254,389.462C336.01,389.318 335.642,389.36 335.406,389.517C335.069,389.74 334.632,390.378 334.236,390.801C333.368,391.731 331.396,393.825 330.196,395.094C329.146,396.203 327.718,397.721 327.035,398.411C326.743,398.707 326.291,399.017 326.098,399.236C325.981,399.369 325.876,399.564 325.882,399.723C325.888,399.883 326.071,400.101 326.133,400.194C326.16,400.235 326.224,400.24 326.253,400.28C326.314,400.366 326.484,400.557 326.501,400.707C326.517,400.856 326.454,401.048 326.351,401.177C326.104,401.485 325.495,402.131 325.018,402.557C324.361,403.141 322.967,404.332 322.413,404.684C322.21,404.813 321.908,404.773 321.693,404.667C321.377,404.513 320.841,403.908 320.518,403.759C320.286,403.652 319.956,403.62 319.754,403.775C318.739,404.554 315.966,407.051 314.431,408.429C313.115,409.611 311.757,410.893 310.547,412.046C309.408,413.131 307.352,415.695 307.172,415.345ZM325.806,429.094L325.829,429.158L325.873,429.229L325.806,429.094ZM371.28,428.507C371.295,428.472 371.31,428.438 371.324,428.406C371.337,428.374 371.349,428.344 371.358,428.319L371.28,428.507ZM324.031,404.007C324.09,404.05 324.139,404.084 324.173,404.107C324.206,404.131 324.225,404.144 324.225,404.144L324.031,404.007ZM323.845,403.871L323.922,403.928L323.832,403.861L323.845,403.871ZM366.589,398.343L366.43,398.135L366.564,398.528L366.589,398.343ZM362.87,393.498C362.745,393.791 362.636,394.076 362.556,394.341C362.517,394.47 362.483,394.602 362.454,394.736C363.189,394.888 363.923,395.225 364.561,395.689L364.478,395.58L362.87,393.498ZM319.57,392.82C319.705,392.828 319.814,392.836 319.89,392.843C319.965,392.849 320.007,392.853 320.007,392.853C320.007,392.853 319.811,392.833 319.57,392.82Z" style="fill-opacity:0.71;"/>
        </g>
    </g>
    <defs>
        <radialGradient id="_Radial1" cx="0" cy="0" r="1" gradientUnits="userSpaceOnUse" gradientTransform="matrix(47.4808,0,0,47.4749,77.9319,77.9388)"><stop offset="0" style="stop-color:rgb(203,123,255);stop-opacity:1"/><stop offset="1" style="stop-color:rgb(96,45,139);stop-opacity:1"/></radialGradient>
    </defs>
</svg>
