<?xml version="1.0" encoding="UTF-8" standalone="no"?>
<!DOCTYPE svg PUBLIC "-//W3C//DTD SVG 1.1//EN" "http://www.w3.org/Graphics/SVG/1.1/DTD/svg11.dtd">
<svg width="91" height="91" viewBox="0 0 91 91" version="1.1" xmlns="http://www.w3.org/2000/svg" xmlns:xlink="http://www.w3.org/1999/xlink" xml:space="preserve" xmlns:serif="http://www.serif.com/" style="fill-rule:evenodd;clip-rule:evenodd;stroke-linecap:round;stroke-linejoin:round;">
<filter xmlns="http://www.w3.org/2000/svg" id="dropshadow" x="-0.2" width="300%" height="300%">
      <feGaussianBlur in="SourceAlpha" stdDeviation="2"/> 
      <feOffset dx="0" dy="0" result="offsetblur"/> 
      <feMerge> 
        <feMergeNode/>
        <feMergeNode in="SourceGraphic"/> 
      </feMerge>
    </filter>
    <g id="background" transform="matrix(0.821716,0,0,0.821716,-18.5673,-18.5778)">
        <path d="M42.458,35.478C47.445,31.3 53.622,27.688 60.578,25.4C67.534,23.112 75.268,22.15 82.867,22.817C86.666,23.151 90.432,23.892 94.06,25.008C97.688,26.123 101.178,27.613 104.381,29.347C110.788,32.814 116.048,37.255 120.395,42.458C124.742,47.661 128.177,53.625 130.453,60.547C131.591,64.008 132.439,67.709 132.888,71.475C133.337,75.242 133.386,79.074 133.046,82.872C132.706,86.67 131.976,90.433 130.865,94.06C129.754,97.687 128.262,101.178 126.527,104.381C123.058,110.789 118.617,116.048 113.415,120.395C108.212,124.742 102.248,128.177 95.326,130.453C91.865,131.591 88.165,132.439 84.398,132.888C80.632,133.337 76.799,133.386 73.001,133.046C69.203,132.706 65.44,131.976 61.813,130.865C58.186,129.754 54.696,128.262 51.492,126.527C45.085,123.058 39.826,118.617 35.478,113.415C31.131,108.212 27.694,102.247 25.421,95.326C24.284,91.866 23.438,88.166 22.985,84.398C22.532,80.63 22.472,76.792 22.818,72.994C23.512,65.397 25.833,57.957 29.321,51.519C32.808,45.08 37.461,39.643 42.458,35.478Z" style="fill:#582d1b;fill-rule:nonzero;"/>
    </g>
</svg>
