<?xml version="1.0" encoding="utf-8"?>
<!DOCTYPE svg PUBLIC "-//W3C//DTD SVG 1.1//EN" "http://www.w3.org/Graphics/SVG/1.1/DTD/svg11.dtd">
<svg version="1.1" xmlns="http://www.w3.org/2000/svg" xmlns:xlink="http://www.w3.org/1999/xlink" xmlns:xml="http://www.w3.org/XML/1998/namespace" xmlns:serif="http://www.serif.com/" width="91" height="91" viewBox="0, 0, 91, 91" xml:space="preserve" fill-rule="evenodd" stroke-linecap="round" stroke-linejoin="round" style="clip-rule:evenodd;">
    <filter xmlns="http://www.w3.org/2000/svg" x="-0.2" width="300%" height="300%" id="dropshadow">
      <feGaussianBlur stdDeviation="2" in="SourceAlpha" /> 
      <feOffset dx="0" dy="0" result="offsetblur" /> 
      <feMerge> 
        <feMergeNode />
        <feMergeNode in="SourceGraphic" /> 
      </feMerge>
    </filter>
    <g id="background">
        <path d="M16.3 10.6 C20.4 7.1 25.5 4.2 31.2 2.3 C36.9 0.4 43.3 -0.4 49.5 0.2 C52.6 0.4 55.7 1.1 58.7 2 C61.7 2.9 64.6 4.1 67.2 5.5 C72.5 8.4 76.8 12 80.4 16.3 C83.9 20.6 86.8 25.5 88.6 31.2 C89.6 34 90.3 37.1 90.6 40.2 C91 43.2 91 46.4 90.8 49.5 C90.5 52.6 89.9 55.7 89 58.7 C88.1 61.7 86.8 64.6 85.4 67.2 C82.6 72.5 78.9 76.8 74.6 80.4 C70.4 83.9 65.5 86.7 59.8 88.6 C56.9 89.6 53.9 90.2 50.8 90.6 C47.7 91 44.5 91 41.4 90.7 C38.3 90.5 35.2 89.9 32.2 89 C29.2 88 26.4 86.8 23.7 85.4 C18.5 82.5 14.2 78.9 10.6 74.6 C7 70.3 4.2 65.4 2.3 59.8 C1.4 56.9 0.7 53.9 0.3 50.8 C-0.1 47.7 -0.1 44.5 0.2 41.4 C0.8 35.2 2.7 29 5.5 23.8 C8.4 18.5 12.2 14 16.3 10.6 z" fill-rule="nonzero" style="fill:#602D8B;" />
    </g>
    <g filter="url(#dropshadow)">
        <path d="M45.5 9.9 C45.5 10.2 45.5 10.6 45.5 10.9 C45.4 11.8 45.2 12.7 44.8 13.6 C44.3 15.2 43.5 16.7 42.7 18.3 C42 19.8 41.3 21.2 40.7 22.8 C40.3 23.9 39.9 25.1 39.8 26.3 C39.7 26.8 39.7 27.3 39.8 27.8 C39.8 28.3 39.9 28.8 40 29.3 C40 29.3 40 29.3 40 29.4 C40.1 29.4 40.1 29.4 40.1 29.4 C40.1 29.4 40.2 29.4 40.2 29.4 C40.2 29.4 40.3 29.4 40.3 29.4 C41.8 28.9 43.5 28.7 45.1 28.6 C46.8 28.6 48.4 28.8 50 29.2 C50 29.2 50.1 29.2 50.1 29.2 C50.1 29.2 50.2 29.2 50.2 29.1 C50.2 29.1 50.3 29.1 50.3 29 C50.3 29 50.2 28.9 50.2 28.9 C49.9 28.4 49.6 27.9 49.4 27.4 C49.1 26.9 48.9 26.4 48.7 25.8 C48.3 24.7 48.1 23.6 47.9 22.5 C47.6 20.8 47.5 19.2 47.3 17.5 C47.2 16.1 47.1 14.6 46.7 13.2 C46.4 12.1 46 11 45.5 9.9 z" fill-rule="nonzero" stroke-width="0.61px" style="fill:white;stroke:black;" />
        <path d="M20.3 20.3 C20.6 20.5 20.8 20.8 21 21 C21.6 21.7 22.1 22.5 22.5 23.4 C23.2 24.9 23.7 26.6 24.3 28.2 C24.8 29.7 25.4 31.3 26.1 32.8 C26.6 33.9 27.1 35 27.9 35.9 C28.2 36.3 28.5 36.7 28.9 37 C29.3 37.3 29.7 37.6 30.1 37.9 C30.2 37.9 30.2 37.9 30.2 37.9 C30.3 37.9 30.3 37.9 30.3 37.9 C30.4 37.9 30.4 37.9 30.4 37.9 C30.4 37.8 30.5 37.8 30.5 37.8 C31.2 36.4 32.2 35 33.3 33.8 C34.4 32.6 35.8 31.6 37.2 30.8 C37.2 30.8 37.2 30.8 37.3 30.7 C37.3 30.7 37.3 30.6 37.3 30.6 C37.3 30.5 37.2 30.5 37.2 30.5 C37.2 30.4 37.1 30.4 37.1 30.4 C36.5 30.3 36 30.1 35.5 29.9 C34.9 29.7 34.4 29.5 33.9 29.3 C32.8 28.8 31.8 28.2 30.9 27.5 C29.6 26.5 28.3 25.4 27 24.4 C25.9 23.4 24.8 22.5 23.6 21.8 C22.6 21.2 21.5 20.7 20.3 20.3 z" fill-rule="nonzero" stroke-width="0.61px" style="fill:white;stroke:black;" />
        <path d="M9.9 45.5 C10.2 45.5 10.6 45.5 10.9 45.5 C11.8 45.5 12.7 45.8 13.6 46.1 C15.2 46.7 16.7 47.5 18.3 48.2 C19.8 48.9 21.2 49.6 22.8 50.2 C23.9 50.7 25.1 51.1 26.3 51.2 C26.8 51.2 27.3 51.2 27.8 51.2 C28.3 51.1 28.8 51.1 29.3 50.9 C29.3 50.9 29.3 50.9 29.4 50.9 C29.4 50.9 29.4 50.9 29.4 50.8 C29.4 50.8 29.4 50.8 29.4 50.7 C29.4 50.7 29.4 50.7 29.4 50.7 C28.9 49.1 28.7 47.5 28.6 45.8 C28.6 44.2 28.8 42.5 29.2 41 C29.2 40.9 29.2 40.9 29.2 40.9 C29.2 40.8 29.2 40.8 29.1 40.7 C29.1 40.7 29.1 40.7 29 40.7 C29 40.7 28.9 40.7 28.9 40.7 C28.4 41 27.9 41.3 27.4 41.6 C26.9 41.8 26.4 42 25.8 42.2 C24.7 42.6 23.6 42.9 22.5 43.1 C20.8 43.3 19.2 43.5 17.5 43.6 C16.1 43.7 14.6 43.9 13.2 44.2 C12.1 44.5 11 45 9.9 45.5 z" fill-rule="nonzero" stroke-width="0.61px" style="fill:white;stroke:black;" />
        <path d="M20.3 70.6 C20.5 70.4 20.8 70.2 21 69.9 C21.7 69.3 22.5 68.9 23.4 68.5 C24.9 67.7 26.6 67.2 28.2 66.6 C29.7 66.1 31.3 65.6 32.8 64.9 C33.9 64.4 35 63.9 35.9 63.1 C36.3 62.8 36.7 62.4 37 62 C37.3 61.7 37.6 61.2 37.9 60.8 C37.9 60.8 37.9 60.7 37.9 60.7 C37.9 60.7 37.9 60.7 37.9 60.6 C37.9 60.6 37.9 60.6 37.9 60.5 C37.8 60.5 37.8 60.5 37.8 60.5 C36.4 59.7 35 58.8 33.8 57.6 C32.6 56.5 31.6 55.2 30.8 53.8 C30.8 53.8 30.8 53.7 30.7 53.7 C30.7 53.7 30.6 53.7 30.6 53.7 C30.5 53.7 30.5 53.7 30.5 53.7 C30.4 53.8 30.4 53.8 30.4 53.9 C30.2 54.4 30.1 55 29.9 55.5 C29.7 56 29.5 56.6 29.3 57.1 C28.8 58.1 28.2 59.1 27.5 60 C26.5 61.4 25.4 62.7 24.4 63.9 C23.4 65 22.5 66.1 21.8 67.4 C21.2 68.4 20.7 69.5 20.3 70.6 z" fill-rule="nonzero" stroke-width="0.61px" style="fill:white;stroke:black;" />
        <path d="M45.5 81 C45.5 80.7 45.5 80.4 45.5 80.1 C45.5 79.1 45.8 78.2 46.1 77.3 C46.7 75.7 47.5 74.2 48.2 72.7 C48.9 71.2 49.6 69.7 50.2 68.2 C50.7 67 51.1 65.9 51.2 64.7 C51.2 64.2 51.2 63.7 51.2 63.2 C51.1 62.7 51.1 62.2 50.9 61.7 C50.9 61.7 50.9 61.6 50.9 61.6 C50.9 61.6 50.9 61.6 50.8 61.5 C50.8 61.5 50.8 61.5 50.7 61.5 C50.7 61.5 50.7 61.5 50.6 61.5 C49.1 62 47.5 62.3 45.8 62.3 C44.2 62.4 42.5 62.1 41 61.7 C40.9 61.7 40.9 61.7 40.9 61.7 C40.8 61.7 40.8 61.8 40.7 61.8 C40.7 61.8 40.7 61.9 40.7 61.9 C40.7 62 40.7 62 40.7 62.1 C41 62.6 41.3 63.1 41.6 63.6 C41.8 64.1 42 64.6 42.2 65.1 C42.6 66.2 42.9 67.4 43.1 68.5 C43.3 70.1 43.5 71.8 43.6 73.5 C43.7 74.9 43.9 76.3 44.2 77.7 C44.5 78.9 44.9 80 45.5 81 z" fill-rule="nonzero" stroke-width="0.61px" style="fill:white;stroke:black;" />
        <path d="M70.6 70.6 C70.4 70.4 70.2 70.2 69.9 69.9 C69.3 69.2 68.9 68.4 68.5 67.6 C67.7 66 67.2 64.4 66.6 62.8 C66.1 61.2 65.6 59.7 64.9 58.2 C64.4 57.1 63.9 56 63.1 55 C62.8 54.7 62.4 54.3 62 54 C61.7 53.6 61.2 53.3 60.8 53.1 C60.8 53.1 60.7 53 60.7 53 C60.7 53 60.7 53 60.6 53 C60.6 53.1 60.6 53.1 60.5 53.1 C60.5 53.1 60.5 53.1 60.5 53.2 C59.7 54.6 58.8 56 57.6 57.1 C56.5 58.3 55.2 59.3 53.8 60.2 C53.8 60.2 53.7 60.2 53.7 60.2 C53.7 60.3 53.7 60.3 53.7 60.4 C53.7 60.4 53.7 60.5 53.7 60.5 C53.8 60.5 53.8 60.5 53.9 60.6 C54.4 60.7 55 60.9 55.5 61 C56 61.2 56.6 61.4 57.1 61.7 C58.1 62.2 59.1 62.8 60 63.5 C61.4 64.4 62.7 65.5 63.9 66.6 C65 67.5 66.1 68.4 67.4 69.2 C68.4 69.8 69.5 70.2 70.6 70.6 z" fill-rule="nonzero" stroke-width="0.61px" style="fill:white;stroke:black;" />
        <path d="M81 45.5 C80.7 45.5 80.4 45.5 80.1 45.5 C79.1 45.4 78.2 45.2 77.3 44.8 C75.7 44.3 74.2 43.5 72.7 42.7 C71.2 42 69.7 41.3 68.2 40.7 C67 40.3 65.9 39.9 64.7 39.8 C64.2 39.7 63.7 39.7 63.2 39.8 C62.7 39.8 62.2 39.9 61.7 40 C61.7 40 61.6 40 61.6 40 C61.6 40.1 61.6 40.1 61.5 40.1 C61.5 40.1 61.5 40.2 61.5 40.2 C61.5 40.2 61.5 40.3 61.5 40.3 C62 41.8 62.3 43.5 62.3 45.1 C62.4 46.8 62.1 48.4 61.7 50 C61.7 50 61.7 50.1 61.7 50.1 C61.7 50.1 61.8 50.2 61.8 50.2 C61.8 50.2 61.9 50.3 61.9 50.3 C62 50.3 62 50.2 62.1 50.2 C62.6 49.9 63.1 49.6 63.6 49.4 C64.1 49.1 64.6 48.9 65.1 48.7 C66.2 48.3 67.4 48.1 68.5 47.9 C70.1 47.6 71.8 47.5 73.5 47.4 C74.9 47.2 76.3 47.1 77.7 46.7 C78.9 46.4 80 46 81 45.5 z" fill-rule="nonzero" stroke-width="0.61px" style="fill:white;stroke:black;" />
        <path d="M70.6 20.3 C70.4 20.6 70.2 20.8 69.9 21 C69.2 21.6 68.4 22.1 67.6 22.5 C66 23.2 64.4 23.7 62.8 24.3 C61.2 24.8 59.7 25.4 58.2 26.1 C57.1 26.6 56 27.1 55 27.9 C54.7 28.2 54.3 28.5 54 28.9 C53.6 29.3 53.3 29.7 53.1 30.2 C53.1 30.2 53 30.2 53 30.2 C53 30.3 53 30.3 53 30.3 C53.1 30.4 53.1 30.4 53.1 30.4 C53.1 30.4 53.1 30.5 53.2 30.5 C54.6 31.2 56 32.2 57.1 33.3 C58.3 34.4 59.3 35.8 60.2 37.2 C60.2 37.2 60.2 37.2 60.2 37.3 C60.3 37.3 60.3 37.3 60.4 37.3 C60.4 37.3 60.5 37.2 60.5 37.2 C60.5 37.2 60.5 37.1 60.5 37.1 C60.7 36.5 60.8 36 61 35.5 C61.2 34.9 61.4 34.4 61.7 33.9 C62.2 32.8 62.8 31.8 63.5 30.9 C64.4 29.6 65.5 28.3 66.6 27 C67.5 25.9 68.4 24.8 69.2 23.6 C69.8 22.6 70.2 21.5 70.6 20.3 z" fill-rule="nonzero" stroke-width="0.61px" style="fill:white;stroke:black;" />
        <path d="M46.4 58.1 C46.5 58 46.7 57.9 46.8 57.9 C48.4 57.1 49.8 55.9 51 54.5 C52.7 52.6 54 50.3 54.7 47.8 C55.4 45.4 55.5 42.6 54.6 40.3 C54 38.5 52.8 36.9 51.4 35.7 C50.8 35.3 50.2 34.9 49.6 34.5 C48.9 34.2 48.2 34 47.5 33.8 C47.3 33.7 47 33.7 46.7 33.7 C46.3 33.6 45.9 33.6 45.5 33.6 C45 33.6 44.6 33.6 44.3 33.7 C43.9 33.7 43.7 33.7 43.4 33.8 C42.7 34 42 34.2 41.4 34.5 C40.7 34.9 40.2 35.3 39.6 35.7 C38.2 36.9 37 38.5 36.3 40.3 C35.5 42.6 35.6 45.4 36.2 47.8 C36.9 50.3 38.2 52.6 39.9 54.5 C41.1 55.9 42.5 57.1 44.1 57.9 C44.3 57.9 44.4 58 44.5 58.1 C45.1 58.3 45.8 58.3 46.4 58.1 z M52.8 44.7 C52.7 44.9 52.5 45.1 52.3 45.3 C52 45.7 51.7 46 51.3 46.2 C50.8 46.4 50.3 46.5 49.8 46.6 C49.3 46.7 48.7 46.7 48.2 46.5 C47.9 46.4 47.6 46.3 47.3 46.3 C47.3 46.3 47.2 46.3 47.2 46.2 C47.1 46.2 47 46.2 47 46.1 C47 46.1 47 46 47 46 C47 45.9 47 45.9 47 45.9 C47.1 45.7 47.3 45.6 47.4 45.4 C47.5 45.3 47.7 45.2 47.8 45 C48.2 44.6 48.7 44.2 49.3 44 C49.8 43.7 50.5 43.7 51.2 43.8 C51.7 43.9 52.2 44.1 52.7 44.4 C52.8 44.4 52.8 44.4 52.8 44.5 C52.8 44.5 52.8 44.6 52.8 44.7 z M38.1 44.7 C38.3 44.9 38.5 45.1 38.7 45.3 C39 45.7 39.3 46 39.7 46.2 C40.1 46.4 40.6 46.5 41.1 46.6 C41.7 46.7 42.2 46.7 42.8 46.5 C43.1 46.4 43.4 46.3 43.6 46.3 C43.7 46.3 43.7 46.3 43.8 46.2 C43.9 46.2 43.9 46.2 44 46.1 C44 46.1 44 46 44 46 C44 45.9 43.9 45.9 43.9 45.9 C43.8 45.7 43.7 45.6 43.6 45.4 C43.4 45.3 43.3 45.2 43.2 45 C42.7 44.6 42.2 44.2 41.7 44 C41.1 43.7 40.4 43.7 39.8 43.8 C39.2 43.9 38.7 44.1 38.2 44.4 C38.2 44.4 38.1 44.4 38.1 44.5 C38.1 44.5 38.1 44.6 38.1 44.7 z" stroke-width="0.5px" style="fill:white;stroke:black;" />
    </g>
</svg>