<?xml version="1.0" encoding="utf-8"?>
<!DOCTYPE svg PUBLIC "-//W3C//DTD SVG 1.1//EN" "http://www.w3.org/Graphics/SVG/1.1/DTD/svg11.dtd">
<svg version="1.1" xmlns="http://www.w3.org/2000/svg" xmlns:xlink="http://www.w3.org/1999/xlink" xmlns:xml="http://www.w3.org/XML/1998/namespace" xmlns:serif="http://www.serif.com/" width="91" height="91" viewBox="0, 0, 91, 91" xml:space="preserve" fill-rule="evenodd" stroke-linecap="round" stroke-linejoin="round" style="clip-rule:evenodd;">
	<filter xmlns="http://www.w3.org/2000/svg" x="-0.2" width="300%" height="300%" id="dropshadow">
      <feGaussianBlur stdDeviation="2" in="SourceAlpha" /> 
      <feOffset dx="0" dy="0" result="offsetblur" /> 
      <feMerge> 
        <feMergeNode />
        <feMergeNode in="SourceGraphic" /> 
      </feMerge>
    </filter>
    
	<path d="M16.3 10.6 C20.4 7.1 25.5 4.2 31.2 2.3 C36.9 0.4 43.3 -0.4 49.5 0.2 C52.6 0.4 55.7 1.1 58.7 2 C61.7 2.9 64.6 4.1 67.2 5.5 C72.5 8.4 76.8 12 80.4 16.3 C83.9 20.6 86.8 25.5 88.6 31.2 C89.6 34 90.3 37.1 90.6 40.2 C91 43.2 91 46.4 90.8 49.5 C90.5 52.6 89.9 55.7 89 58.7 C88.1 61.7 86.8 64.6 85.4 67.2 C82.6 72.5 78.9 76.8 74.6 80.4 C70.4 83.9 65.5 86.7 59.8 88.6 C56.9 89.6 53.9 90.2 50.8 90.6 C47.7 91 44.5 91 41.4 90.7 C38.3 90.5 35.2 89.9 32.2 89 C29.2 88 26.4 86.8 23.7 85.4 C18.5 82.5 14.2 78.9 10.6 74.6 C7 70.3 4.2 65.4 2.3 59.8 C1.4 56.9 0.7 53.9 0.3 50.8 C-0.1 47.7 -0.1 44.5 0.2 41.4 C0.8 35.2 2.7 29 5.5 23.8 C8.4 18.5 12.2 14 16.3 10.6 z" fill-rule="nonzero" style="fill:#B0B079;" />
    <g filter="url(#dropshadow)">
        <path d="M43.8 29.1 C43.4 29.4 43 29.6 42.6 29.8 C40.9 30.7 39.3 31.6 37.7 32.6 C36.9 33.1 36 33.5 35.2 34.1 C35 34.2 34.7 34.3 34.5 34.5 C34.1 34.2 33.6 33.9 33.2 33.6 C32.1 32.8 31 31.9 30.1 30.8 C29.5 30 28.9 29.2 28.6 28.2 C28.2 27.3 28 26.4 28 25.4 C28 24.3 28.3 23.2 28.8 22.3 C29.5 21.1 30.7 20.2 32 19.6 C33 19.1 34 18.8 35.1 18.6 C36.1 18.5 37.2 18.4 38.2 18.4 C37.8 18.8 37.5 19.2 37.2 19.7 C36.8 20.5 36.6 21.3 36.6 22.2 C36.5 23 36.7 23.9 37.1 24.6 C37.6 25.3 38.5 25.9 39.3 26.5 C40.5 27.3 41.7 27.9 42.8 28.6 C43.2 28.8 43.5 28.9 43.8 29.1 z" fill-rule="nonzero" stroke-width="0.61px" style="fill:white;stroke:black;" />
        <path d="M37.8 45 C38.9 44.4 40.2 43.6 41.3 43 C44 41.5 45.9 40.4 47.9 39.3 C49.9 38.2 52 37 54.4 35.7 C55.5 35.1 56.6 34.4 57.7 33.6 C58.9 32.8 60 31.9 60.8 30.8 C61.5 30 62 29.2 62.4 28.2 C62.7 27.3 62.9 26.4 62.9 25.4 C62.9 24.3 62.7 23.2 62.1 22.3 C61.4 21.1 60.3 20.2 59 19.6 C58 19.1 56.9 18.8 55.8 18.6 C54.8 18.5 53.8 18.4 52.8 18.4 C53.2 18.8 53.5 19.2 53.7 19.7 C54.1 20.5 54.4 21.3 54.4 22.2 C54.4 23 54.2 23.9 53.8 24.6 C53.3 25.3 52.5 25.9 51.7 26.5 C50.4 27.3 49.3 27.9 48.1 28.6 C46 29.7 44 30.9 42 32 C40 33.1 38 34.3 36 35.5 C34.6 36.4 33.1 37.3 31.8 38.4 C30.7 39.4 29.8 40.4 29.1 41.6 C28.5 42.6 28.2 43.8 28.1 45 C28 46.1 28.1 47.3 28.4 48.3 C28.8 49.3 29.3 50.2 30 51 C31 52.4 32.3 53.6 34.1 54.7 C34.2 54.7 34.2 54.7 34.2 54.7 C35.6 53.9 37 53.1 38.4 52.4 C39.8 51.6 41.2 50.9 42.7 50.1 C42.9 50 43.2 49.8 43.4 49.7 C42.3 49 41.5 48.6 40.7 48 C40.2 47.7 39.7 47.4 39.2 47 C38.7 46.7 38.2 46.3 37.8 46 C37.7 45.9 37.6 45.8 37.6 45.8 C37.5 45.7 37.5 45.6 37.5 45.5 C37.6 45.3 37.7 45.1 37.8 45 z" fill-rule="nonzero" stroke-width="0.61px" style="fill:white;stroke:black;" />
        <path d="M53.1 45.9 C52.1 46.6 50.8 47.3 49.6 48 C46.9 49.5 45 50.5 43.1 51.6 C41 52.7 38.9 53.9 36.5 55.3 C35.4 55.9 34.3 56.5 33.2 57.3 C32.1 58.1 31 59 30.1 60.1 C29.5 60.9 28.9 61.8 28.6 62.7 C28.2 63.6 28 64.6 28 65.5 C28 66.6 28.3 67.7 28.8 68.6 C29.5 69.8 30.7 70.7 32 71.3 C33 71.8 34 72.1 35.1 72.3 C36.1 72.5 37.2 72.6 38.2 72.5 C37.8 72.1 37.5 71.7 37.2 71.2 C36.8 70.5 36.6 69.6 36.6 68.7 C36.5 67.9 36.7 67.1 37.1 66.4 C37.6 65.6 38.5 65 39.3 64.4 C40.5 63.6 41.7 63 42.8 62.3 C44.9 61.2 46.9 60.1 48.9 58.9 C50.9 57.8 52.9 56.7 55 55.4 C56.4 54.5 57.8 53.6 59.1 52.5 C60.2 51.6 61.2 50.5 61.9 49.3 C62.4 48.3 62.7 47.1 62.8 46 C62.9 44.8 62.9 43.6 62.5 42.6 C62.2 41.6 61.6 40.8 61 40 C59.9 38.5 58.7 37.4 56.8 36.2 C56.8 36.2 56.8 36.2 56.8 36.3 C55.4 37 53.9 37.8 52.5 38.5 C51.1 39.3 49.7 40.1 48.3 40.8 C48 41 47.8 41.1 47.5 41.2 C48.7 41.9 49.5 42.4 50.3 42.9 C50.8 43.2 51.3 43.6 51.8 43.9 C52.2 44.2 52.7 44.6 53.2 45 C53.2 45 53.3 45.1 53.4 45.2 C53.4 45.2 53.4 45.3 53.4 45.4 C53.4 45.6 53.3 45.8 53.1 45.9 z" fill-rule="nonzero" stroke-width="0.61px" style="fill:white;stroke:black;" />
        <path d="M56.4 56.4 C56.9 56.7 57.3 57 57.7 57.3 C58.9 58.1 60 59 60.8 60.1 C61.5 60.9 62 61.8 62.4 62.7 C62.7 63.6 62.9 64.6 62.9 65.5 C62.9 66.6 62.7 67.7 62.1 68.6 C61.4 69.8 60.3 70.7 59 71.3 C58 71.8 56.9 72.1 55.8 72.3 C54.8 72.5 53.8 72.6 52.8 72.5 C53.2 72.1 53.5 71.7 53.7 71.2 C54.1 70.5 54.4 69.6 54.4 68.7 C54.4 67.9 54.2 67.1 53.8 66.4 C53.3 65.6 52.5 65 51.7 64.4 C50.4 63.6 49.3 63 48.1 62.3 C47.8 62.2 47.5 62 47.2 61.8 C47.6 61.6 48 61.3 48.4 61.1 C50 60.2 51.6 59.3 53.3 58.4 C54.1 57.9 54.9 57.4 55.7 56.9 C56 56.7 56.2 56.6 56.4 56.4 z" fill-rule="nonzero" stroke-width="0.61px" style="fill:white;stroke:black;" />
        <path d="M49.9 73.4 C49.9 74.4 49.4 75.6 48.6 76.5 C47.8 77.3 46.6 77.8 45.5 77.8 C44.3 77.8 43.2 77.3 42.4 76.5 C41.5 75.7 41.1 74.5 41.1 73.4 C41.1 72.2 41.5 71.1 42.4 70.3 C43.2 69.5 44.3 69 45.5 69 C46.6 69 47.8 69.4 48.6 70.3 C49.4 71.1 49.9 72.4 49.9 73.4 z" fill-rule="nonzero" stroke-width="0.61px" style="fill:white;stroke:black;" />
        <circle cx="45.5" cy="17.5" r="4.4" stroke-width="0.61px" style="fill:white;stroke:black;" />
    </g>
</svg>