<?xml version="1.0" encoding="utf-8"?>
<!DOCTYPE svg PUBLIC "-//W3C//DTD SVG 1.1//EN" "http://www.w3.org/Graphics/SVG/1.1/DTD/svg11.dtd">
<svg version="1.1" xmlns="http://www.w3.org/2000/svg" xmlns:xlink="http://www.w3.org/1999/xlink" xmlns:xml="http://www.w3.org/XML/1998/namespace" xmlns:serif="http://www.serif.com/" width="91" height="91" viewBox="0, 0, 91, 91" xml:space="preserve" fill-rule="evenodd" stroke-linejoin="round" stroke-miterlimit="2" style="clip-rule:evenodd;">

    <defs>
        <radialGradient cx="45" cy="45" r="45" gradientUnits="userSpaceOnUse" id="Radial">
			<stop offset="0%" stop-color="#289caa" stop-opacity="1" />
			<stop offset="100%" stop-color="#0E4E55" stop-opacity="1" />
		</radialGradient>
    </defs>
	
	<circle cx="45" cy="45" r="45" stroke-width="1.1px" style="fill:url(#Radial);" />
	
    <circle cx="45" cy="45" r="31" stroke-width="2.5px" stroke-opacity="0.5" style="fill:none;stroke:white;" />
	
    <g stroke-width="0.5" style="stroke:black;fill:white;" filter="url(#dropshadow)" fill-rule="nonzero">
	
	   <path
		   style="fill:#FFFFC9;stroke:#000000;stroke-width:0.803302;stroke-linecap:butt;stroke-dasharray:none;stroke-opacity:1"
		   d="m 130.90548,288.45746 c -11.84194,-1.79486 -14.76453,-2.77407 -16.03599,-5.37286 -1.03916,-2.12395 -0.89934,-3.78115 1.27624,-15.12593 l 1.36421,-7.1138 -0.88172,-17.96931 c -0.48495,-9.88312 -0.92582,-18.46927 -0.9797,-19.08032 l -0.098,-1.11101 h 3.7223 3.72229 l 1.12431,-8.40376 1.1243,-8.40376 -2.58767,-2.7546 c -4.4424,-4.72898 -8.11954,-9.6982 -12.91153,-17.44839 -4.63985,-7.50414 -6.75552,-9.94156 -8.62921,-9.94156 -0.74053,0 -1.267659,0.39721 -2.197538,1.65594 -1.048453,1.41924 -2.224636,2.01521 -3.977168,2.01521 h -1.294996 l 1.35265,-1.40084 c 1.637496,-1.69582 2.27277,-2.74532 2.662363,-4.39833 0.539324,-2.28831 0.242454,-4.7584 -0.853321,-7.10002 -0.682478,-1.45842 -1.238899,-2.20475 -3.491921,-4.68369 l -1.668289,-1.83558 -0.610558,-6.74643 c -0.335807,-3.71053 -0.58877,-6.76642 -0.562139,-6.79086 0.02663,-0.0244 0.906251,-0.57818 1.954714,-1.23054 l 1.906296,-1.18611 1.764854,1.7033 c 4.233503,4.08584 4.908803,3.64324 12.011933,-7.87287 l 2.0856,-3.38132 -1.11407,-4.48452 -1.11407,-4.48453 1.6568,-2.37854 c 0.91123,-1.3082 2.09525,-2.87048 2.63114,-3.47174 1.09978,-1.23393 3.11697,-2.66693 3.75413,-2.66693 0.81893,0 2.49105,-1.03779 3.85966,-2.39546 0.76085,-0.75477 2.31901,-2.6572 3.46258,-4.22764 l 2.07922,-2.85533 -1.54425,-7.771679 c -1.74343,-8.774089 -2.03366,-10.683207 -1.90259,-12.515097 0.15759,-2.202621 1.03856,-3.084703 3.07516,-3.079075 2.42327,0.0067 7.38015,1.651533 19.15004,6.354548 1.88756,0.754232 3.54206,1.371333 3.67666,1.371333 0.1346,0 2.63332,-0.935384 5.55272,-2.07863 l 5.30799,-2.078632 0.0505,-7.968726 0.0504,-7.968728 h -1.13685 c -1.09297,0 -1.16656,-0.03224 -1.90697,-0.835488 -1.01784,-1.104232 -1.94876,-3.045045 -3.23664,-6.747836 l -1.05828,-3.042692 1.11973,-2.177104 c 1.41627,-2.753692 2.31828,-5.548374 3.44478,-10.672918 0.49058,-2.231673 0.91508,-4.085663 0.94335,-4.119977 0.11514,-0.139779 14.09795,0.980705 16.6078,1.330832 3.37627,0.470993 6.58465,1.190474 7.56204,1.695795 0.4105,0.212229 1.1542,0.805899 1.65267,1.319266 l 0.90632,0.933394 -1.12826,5.699944 c -2.00991,10.154007 -3.21446,14.097017 -6.08241,19.910424 -1.8717,3.793969 -2.63716,5.965321 -2.76705,7.849211 -0.12758,1.850221 0.0478,2.64304 0.76572,3.460656 2.2073,2.513978 6.96251,2.413787 18.23151,-0.384136 5.72502,-1.421436 7.92211,-1.853392 9.42706,-1.853392 1.05706,0 1.35153,0.07613 1.80523,0.466694 0.51262,0.4413 0.54094,0.549069 0.52039,1.980489 -0.013,0.903876 -0.46389,3.973183 -1.11916,7.617897 l -1.09742,6.104107 2.99207,5.33748 c 5.53837,9.87976 7.96347,13.34388 13.16939,18.81173 l 2.79024,2.93064 v 5.06001 5.06002 l 2.93394,5.1482 c 3.21381,5.6393 5.46533,10.1292 6.23219,12.42796 0.38558,1.15584 0.4948,1.87017 0.4948,3.23641 v 1.7532 l 2.65675,0.001 c 2.86607,0.001 3.95619,0.19487 4.63724,0.824 0.97863,0.90402 0.33877,2.32719 -2.26625,5.04064 -0.85239,0.88788 -1.54981,1.76006 -1.54981,1.93818 0,0.17812 0.6552,4.34238 1.456,9.25392 3.93286,24.1213 5.50293,35.1797 7.51607,52.93736 l 1.03409,9.1216 -1.47281,6.63634 -1.47281,6.63632 -0.34261,-1.31974 c -0.18844,-0.72594 -1.87368,-7.53662 -3.74498,-15.13494 -12.75496,-51.79078 -14.59045,-58.77776 -16.75034,-63.76208 l -1.0466,-2.41523 -2.78028,-0.12022 c -2.9166,-0.12611 -3.89606,-0.36873 -4.75813,-1.1786 -0.58849,-0.55285 -0.5506,-1.1768 0.1168,-1.92376 0.49724,-0.55651 0.68581,-0.62861 1.83557,-0.70182 l 1.2814,-0.0816 v -0.71141 c 0,-0.39128 -0.22096,-4.4426 -0.49102,-9.00295 l -0.49103,-8.29154 -0.8132,-1.03881 c -6.57496,-8.39913 -9.24515,-12.28263 -14.55879,-21.17424 -3.79864,-6.35648 -4.61269,-7.46098 -5.4989,-7.46098 -0.75848,0 -1.20946,0.76489 -1.70399,2.89011 -0.53169,2.28495 -0.81053,4.00203 -2.61963,16.13151 l -1.58346,10.61663 1.90795,6.4832 c 3.47831,11.81923 7.55531,27.416 11.00837,42.11296 l 0.83537,3.5555 1.73896,1.30771 c 2.17779,1.6377 3.07833,2.94651 4.24485,6.16929 0.6326,1.74769 2.10115,8.89893 1.87409,9.126 -0.0887,0.0887 -0.71792,0.52786 -1.39836,0.97601 -2.17571,1.43298 -2.69582,2.87823 -1.4751,4.09895 0.86181,0.86181 1.72947,1.06095 4.62817,1.06221 l 2.46354,0.001 v 21.26278 21.2628 l 3.85915,8.53027 c 2.12254,4.69165 3.83977,8.54485 3.81607,8.56268 -3.92694,2.95509 -4.67634,3.37307 -7.21807,4.02613 -3.55117,0.91242 -8.69629,0.91066 -11.56721,-0.004 -0.53135,-0.16928 -1.58239,-0.70513 -2.33564,-1.19083 l -1.36954,-0.88304 -0.1279,-11.59004 c -0.0703,-6.37458 -0.1279,-13.87118 -0.1279,-16.65917 v -5.06907 l -4.16621,-13.30314 c -8.61605,-27.51197 -12.25817,-38.74199 -15.24944,-47.01977 -5.06879,-14.02688 -8.8497,-21.20368 -11.94428,-22.67215 -0.37198,-0.17651 -1.14785,-0.32084 -1.7248,-0.32084 -0.84745,0 -1.22068,0.11394 -1.94512,0.59378 -2.70544,1.79201 -5.67696,7.35781 -9.86438,18.47646 -1.79708,4.77169 -9.9798,27.7782 -9.9798,28.05917 0,0.11369 0.9425,1.44627 2.09445,2.96128 4.47608,5.8868 8.23155,12.15226 12.76913,21.30352 5.39081,10.87199 8.72756,20.01886 7.47779,20.49843 -0.49301,0.1892 -1.18044,-0.35667 -3.88901,-3.08806 -4.62427,-4.66321 -11.73632,-12.94996 -15.77149,-18.37646 -3.64715,-4.9047 -4.18981,-5.57467 -4.91743,-6.07117 -0.98279,-0.67062 -1.57225,-0.42412 -2.23415,0.93429 -0.67227,1.3797 -1.01639,2.67554 -3.26157,12.28223 l -1.89698,8.11678 1.44315,3.90456 1.44315,3.90455 -1.48519,2.37611 -1.4852,2.3761 0.62457,3.38132 c 1.73293,9.38186 2.29779,13.84273 2.04293,16.13374 -0.13864,1.24636 -0.79049,2.58445 -1.50168,3.08259 -0.50777,0.35566 -1.52584,0.35338 -3.91506,-0.009 z m 4.22701,-121.51674 5.51904,-21.44725 -2.98558,-13.02258 c -1.64208,-7.16242 -3.02228,-13.05927 -3.06713,-13.10412 -0.0448,-0.0448 -0.33888,0.29409 -0.65339,0.75321 -1.53946,2.24727 -25.17321,38.46839 -25.12383,38.50482 0.0313,0.0231 2.36111,0.76133 5.17727,1.64047 2.81616,0.87914 5.18257,1.65533 5.25869,1.72486 0.0761,0.0695 -0.86977,2.18147 -2.10198,4.6932 l -2.24038,4.56677 7.20115,8.7253 c 3.96063,4.79891 7.26774,8.65493 7.34913,8.56893 0.0814,-0.086 2.63154,-9.80763 5.66701,-21.60361 z"
		   transform="scale(0.26458333)" />
		
	   <path
	   style="fill:#000000;stroke-width:0.517902"
	   d="m 30.580173,76.872341 -1.812658,-0.635948 0.16018,-1.806934 c 0.0881,-0.993818 0.224512,-5.186251 0.303141,-9.316521 l 0.142961,-7.509581 h 0.991614 0.991615 l 0.159717,-1.121179 0.159717,-1.12118 -1.804711,-2.3643 c -0.992591,-1.300364 -1.954128,-2.835073 -2.13675,-3.410463 -0.37655,-1.186406 -0.907489,-1.291626 -2.423497,-0.480283 l -1.057358,0.56588 -0.566219,-0.566219 -0.566218,-0.566218 0.687348,-1.900829 0.687348,-1.900827 -0.971856,-0.7101 -0.971857,-0.7101 -0.09479,-2.179329 -0.0948,-2.179329 0.775532,-1.197971 0.775532,-1.197973 1.13192,0.146188 c 0.622556,0.0804 1.42324,-0.03517 1.779297,-0.256823 L 27.47276,36.04929 v -2.036125 -2.036126 l 2.275754,-2.141567 2.275753,-2.141567 -0.463096,-1.614722 C 31.306468,25.191085 31.098075,23.70549 31.098075,22.777859 v -1.686601 l 1.683182,-0.0025 c 0.92575,-0.0014 2.761805,0.384004 4.080124,0.856474 l 2.396942,0.859035 0.839946,-0.322317 0.839946,-0.322342 v -0.881803 c 0,-0.484992 -0.338487,-1.255826 -0.752192,-1.712966 -0.413706,-0.45714 -0.909605,-1.815563 -1.101997,-3.018717 l -0.349804,-2.187554 h 0.584095 0.584094 l 0.0079,-1.16528 c 0.0044,-0.640904 0.22929,-1.514864 0.49984,-1.942133 l 0.49191,-0.776853 2.995999,0.02636 2.995999,0.02636 1.553706,0.768202 1.553707,0.768202 -0.164144,1.277043 c -0.09028,0.702374 -0.286859,2.373606 -0.436844,3.713848 l -0.272701,2.436803 -0.728435,0.604548 c -0.40064,0.332502 -0.728436,0.95053 -0.728436,1.373397 v 0.768848 l 0.906329,-0.352045 c 0.498481,-0.193624 2.159243,-0.585383 3.690582,-0.870576 l 2.784253,-0.518531 0.47339,0.47339 0.47339,0.47339 -0.556347,2.482533 -0.556347,2.482533 0.794543,0.877961 c 0.436999,0.482878 0.794543,1.134335 0.794543,1.447682 0,0.313347 0.815696,1.434611 1.812657,2.491699 l 1.812658,1.921976 v 1.53441 1.53441 l 1.408529,2.505712 1.408531,2.505713 0.922029,0.241116 0.92203,0.241117 v 1.058555 1.058555 l -0.785715,0.439709 -0.785716,0.439708 0.752761,4.11767 c 0.414018,2.264718 1.024032,6.301192 1.355586,8.969941 l 0.602825,4.852271 -0.360152,2.882561 c -0.198085,1.585412 -0.579715,3.460052 -0.848068,4.165875 L 64.205319,70.978532 63.751176,70.50577 C 63.277994,70.013188 58.028984,49.118608 58.028984,47.727609 v -0.794098 l -1.777242,-0.74258 c -2.162261,-0.90345 -2.581992,-1.48797 -1.633647,-2.275026 l 0.720922,-0.598313 -0.1194,-1.920404 -0.119401,-1.920405 -1.513552,-2.443665 c -1.926401,-3.110216 -2.095318,-3.082611 -2.532167,0.413809 l -0.361108,2.890215 0.7695,0.864576 0.769499,0.864576 1.193887,4.89884 1.193886,4.898841 0.927559,0.927558 0.927558,0.927559 v 1.968028 c 0,1.082415 0.210659,2.189431 0.46813,2.460035 l 0.468131,0.492007 0.223633,5.696923 0.223633,5.696923 1.142543,2.553475 1.142542,2.553475 -1.044191,1.044194 -1.044191,1.044189 -2.834834,0.02766 -2.834834,0.02766 -0.541823,-0.540829 -0.541823,-0.54083 -0.19581,-5.156094 -0.19581,-5.156093 -1.186973,-3.625315 c -0.652835,-1.993939 -1.751454,-5.256722 -2.441375,-7.250645 -0.689921,-1.993923 -1.605204,-4.74531 -2.033961,-6.114194 l -0.77956,-2.488879 -0.782631,0.15832 -0.782631,0.158319 -1.590052,5.045099 -1.590051,5.045098 1.415912,2.464483 c 2.471501,4.301801 3.882986,7.576698 4.243029,9.844587 l 0.349437,2.201084 h -0.797163 -0.797164 l -3.153294,-3.441263 c -1.734312,-1.892699 -3.153295,-3.640619 -3.153295,-3.884266 0,-0.243652 -0.227072,-0.443003 -0.504605,-0.443003 h -0.504605 l 0.116179,6.862203 0.116178,6.862203 -2.330559,0.112322 -2.33056,0.112328 z m 5.461849,-1.01788 c 0.137675,-0.358777 0.04727,-1.739193 -0.200903,-3.067596 l -0.451223,-2.415273 0.396125,-0.64094 0.396124,-0.640946 -0.38312,-1.035669 -0.38312,-1.035675 0.654826,-2.816963 c 0.830578,-3.573034 0.83186,-3.573856 2.323236,-1.490051 1.500792,2.096965 5.022751,6.026905 5.401228,6.026905 0.900309,0 -2.672569,-7.728843 -4.967554,-10.745805 l -0.885917,-1.164616 1.886672,-5.30916 C 43.706823,40.604644 44.55103,41.261135 50.31688,59.674966 l 2.108192,6.732727 0.02507,4.402168 0.02507,4.402168 0.575805,0.380498 c 0.916954,0.60593 3.664665,0.456153 4.605191,-0.251022 l 0.860995,-0.647378 -1.020959,-2.257639 -1.020959,-2.257644 v -5.640363 -5.640368 h -1.035804 c -1.082854,0 -1.396054,-0.752028 -0.534866,-1.284271 l 0.500939,-0.309597 -0.329283,-1.663101 c -0.181105,-0.914706 -0.660683,-1.90846 -1.06573,-2.208342 l -0.736448,-0.545241 -0.927742,-3.856927 c -0.510257,-2.12131 -1.329192,-5.223836 -1.819854,-6.894502 l -0.892113,-3.037576 0.583374,-3.92233 c 0.725601,-4.878595 0.685286,-4.848347 2.432921,-1.825451 0.795153,1.375382 2.024536,3.239669 2.731962,4.14286 l 1.286229,1.642167 0.137786,2.371575 0.137787,2.371574 h -0.49353 c -0.271442,0 -0.49353,0.233056 -0.49353,0.517903 0,0.284846 0.471108,0.517902 1.046908,0.517902 h 1.046907 l 0.497673,1.165279 c 0.273721,0.640904 1.408053,4.894175 2.520738,9.451714 1.112685,4.557539 2.199579,8.985602 2.41532,9.84014 l 0.392256,1.553707 0.404089,-1.812658 0.404089,-1.812657 -0.466586,-4.143217 C 63.962154,56.878295 63.3608,52.614306 62.882435,49.681533 l -0.869755,-5.332312 0.597667,-0.597667 c 0.890325,-0.890325 0.72568,-1.426309 -0.438139,-1.426309 h -1.035804 v -0.723989 c 0,-0.398194 -0.579833,-1.738266 -1.288517,-2.977937 l -1.288517,-2.253948 -0.0062,-1.353608 -0.0062,-1.353608 -1.196281,-1.235902 C 56.692651,31.746506 55.568694,30.141598 54.852921,28.85979 l -1.301404,-2.330559 0.37147,-2.071609 c 0.477326,-2.661947 0.582825,-2.612236 -3.413424,-1.608411 -4.513803,1.133832 -5.534306,0.227611 -3.639299,-3.231751 0.414166,-0.756065 0.982412,-2.539943 1.262769,-3.964174 l 0.509742,-2.58951 -0.478207,-0.484298 c -0.263013,-0.266363 -1.868745,-0.584879 -3.568293,-0.707813 l -3.090087,-0.223517 -0.314833,1.484667 c -0.173158,0.816567 -0.501383,1.834251 -0.729387,2.26152 l -0.414555,0.776853 0.496065,1.424231 c 0.272836,0.783327 0.706322,1.424231 0.963303,1.424231 h 0.467238 v 2.084427 2.084427 l -1.424231,0.555637 -1.42423,0.555636 -1.553707,-0.615414 c -5.582167,-2.211064 -5.800167,-2.130874 -5.002662,1.840198 l 0.583263,2.904279 -0.897713,1.235004 c -0.493742,0.679252 -1.175818,1.242328 -1.515724,1.25128 -0.339906,0.0089 -0.974497,0.52523 -1.410202,1.147287 l -0.792191,1.131012 0.297051,1.183546 0.297051,1.183547 -1.130173,1.828658 c -1.216892,1.968973 -1.559136,2.143859 -2.450693,1.252302 l -0.576356,-0.576356 -0.536971,0.331866 -0.53697,0.331866 0.162317,1.808906 0.162317,1.808906 0.847429,0.936399 c 0.998235,1.103037 1.100079,2.725588 0.225947,3.599721 l -0.621482,0.621482 h 0.590917 c 0.325005,0 0.734954,-0.233056 0.910999,-0.517902 0.604528,-0.978147 1.209057,-0.512726 2.858958,2.201084 0.909176,1.495442 2.197356,3.301626 2.862621,4.013742 l 1.209573,1.294755 -0.29688,2.201084 -0.296879,2.201084 h -0.977172 -0.977172 l 0.251805,5.049545 0.251806,5.049546 -0.571692,2.993759 c -0.687741,3.601476 -0.59055,3.690027 4.894049,4.459075 0.222574,0.03123 0.517324,-0.2368 0.655,-0.595577 z"
	   /><path
       style="fill:#ffffff;fill-opacity:0;stroke:#000000;stroke-width:1.0;stroke-linecap:butt;stroke-dasharray:none;stroke-opacity:1"
       d="m 29.678309,41.643622 5.67539,-8.675756 1.265216,5.530794 -2.638877,10.230163 -2.891917,-3.506452 1.337511,-2.711175 z"
       />
		
    </g>
</svg>