<?xml version="1.0" encoding="UTF-8" standalone="no"?>
<!DOCTYPE svg PUBLIC "-//W3C//DTD SVG 1.1//EN" "http://www.w3.org/Graphics/SVG/1.1/DTD/svg11.dtd">
<svg width="204" height="204" viewBox="0 0 204 204" version="1.1" xmlns="http://www.w3.org/2000/svg" xmlns:xlink="http://www.w3.org/1999/xlink" xml:space="preserve" xmlns:serif="http://www.serif.com/" style="fill-rule:evenodd;clip-rule:evenodd;stroke-linecap:round;stroke-linejoin:round;stroke-miterlimit:1.5;">
    <g transform="matrix(1,0,0,1,-800.311,-238.024)">
        <g id="Fremen-unit" serif:id="Fremen unit" transform="matrix(1,0,0,1,671.999,-895.994)">
            <g transform="matrix(1.00601,0,0,1.00601,-4.80232,899.448)">
                <circle cx="233.356" cy="334.206" r="99.794" style="fill:url(#_Radial1);stroke:black;stroke-width:2.49px;"/>
            </g>
            <g transform="matrix(0.691174,0,0,0.691174,68.666,1004.67)">
                <circle cx="233.356" cy="334.206" r="99.794" style="fill:none;stroke:rgb(255,255,199);stroke-opacity:0.5;stroke-width:9.04px;"/>
            </g>
            <g transform="matrix(10.2083,0,0,10.2083,-3510.84,-1376.58)">
                <path d="M362.715,262.305L361.811,262.395L360.847,262.365L360.877,262.003L361.148,261.581L361.028,261.34L361.449,260.527L361.811,260.014L362.022,259.381L362.384,259.14L363.047,258.387L363.258,257.904L363.017,257.693L363.137,257.543L362.836,257.181L362.595,257.302L362.685,257.513L361.841,258.477L361.238,257.874L362.233,256.91L362.324,256.789L362.173,256.367L361.781,256.126L361.751,255.885L361.178,255.252L360.696,255.584L360.214,255.192L361.118,254.077L361.479,254.438L361.329,254.8L361.931,255.403L361.931,254.921L362.022,254.438L362.414,253.504L362.655,253.323L362.836,253.022L363.047,252.751L363.8,252.298L363.83,251.877L364.433,251.455L364.976,251.394L365.548,251.334L365.91,250.882L366.19,250.775L366.04,250.415L365.95,250.039L365.725,250.189L365.71,249.784L365.47,249.979C365.454,249.687 365.533,249.583 365.68,249.499C365.644,249.468 365.608,249.437 365.571,249.406C365.67,249.185 365.876,249.057 366.116,248.958C366.083,248.776 366.088,248.594 366.176,248.411C366.33,248.626 366.503,248.75 366.698,248.783C366.728,248.685 366.748,248.581 366.698,248.442C366.861,248.516 366.962,248.623 367.046,248.738C367.078,248.626 367.108,248.518 367.121,248.426C367.272,248.667 367.476,248.748 367.598,248.988L367.734,248.935L367.802,249.072L367.756,249.352L367.756,249.504C367.935,249.377 368.142,249.43 368.361,249.565C368.52,249.649 368.679,249.692 368.838,249.694L368.52,250.134L368.807,250.499L368.762,251.159C368.35,250.793 368.095,250.313 367.802,250.21L367.711,250.256L367.537,250.635L367.454,250.749L367.65,250.916L367.681,251.212L367.692,251.345L368.427,251.541L368.773,251.781C368.798,251.851 368.823,251.921 368.848,251.991C369.52,252.243 369.973,252.809 370.364,253.462C371.149,253.863 371.694,254.324 372.301,254.769C371.279,254.73 371.249,254.935 370.424,255.73L370.815,256.045L370.875,256.18L371.01,256.03L371.115,256.09L371.175,256.24C371.816,255.964 372.291,255.984 372.872,255.685C372.698,256.153 372.31,256.478 371.776,256.706C371.653,256.608 371.489,256.552 371.265,256.556L371.25,256.796L371.07,256.811L370.95,256.601L370.95,256.811L370.71,257.021L370.214,257.021L370.064,256.901L370.049,257.006L369.824,257.006L369.689,256.706L369.644,256.48L369.839,256.435L369.779,256.09L369.689,255.94L369.508,255.91C368.993,256.035 368.637,256.28 368.442,256.646C368.65,257.007 368.776,257.342 368.864,257.663L369.436,258.628L369.557,259.02L369.738,259.17L369.918,259.743L370.28,260.798L370.582,261.129L370.521,261.37L370.853,261.732L371.305,261.973L371.335,262.244L370.793,262.395L369.828,262.395L369.225,262.275L369.316,261.732L369.165,261.612L368.834,260.768L368.562,259.803L368.592,259.622L368.472,258.899L368.201,258.447C367.688,257.975 367.247,257.503 366.935,257.03L365.488,257.03C365.297,257.342 365.046,257.653 364.735,257.965L365.398,258.748L365.308,258.899L366.211,259.864L365.94,260.165L365.036,259.186L364.704,259.411L364.102,258.688L363.921,258.899L363.65,259.11L363.469,259.532L363.408,259.743L363.529,259.894L363.167,260.346L362.775,260.979L362.775,261.37L362.625,261.642L362.715,261.853L362.715,262.305ZM363.848,257.111L363.443,256.66L363.443,256.541L363.307,256.414L363.217,256.51L362.872,256.195L362.887,255.88L362.781,255.55L362.812,255.324L362.962,255.234L363.277,254.213L363.473,253.913L363.518,253.778L363.713,253.507L364.614,252.997C364.707,253.348 364.83,253.698 365.004,254.048L365.049,254.348C365.024,254.443 364.999,254.538 364.974,254.634C364.453,254.535 364.08,254.773 363.923,255.504C363.957,255.918 364.202,256.038 364.659,255.865C364.319,256.263 364.028,256.673 363.848,257.111L363.848,257.111Z" style="fill:rgb(255,255,201);"/>
                <path d="M366.236,247.802L366.293,247.81L366.349,247.824L366.404,247.843L366.456,247.867L366.469,247.874L366.506,247.86L366.561,247.845L366.618,247.835L366.675,247.83L366.732,247.83L366.79,247.836L366.846,247.848L366.888,247.86L366.937,247.842L366.992,247.828L367.049,247.818L367.106,247.814L367.163,247.815L367.22,247.822L367.276,247.834L367.33,247.851L367.383,247.873L367.434,247.9L367.481,247.931L367.526,247.967L367.567,248.007L367.604,248.05L367.637,248.097L367.647,248.112L367.658,248.127L367.67,248.142L367.685,248.159L367.698,248.173L367.708,248.182L367.72,248.194L367.732,248.206L367.759,248.232L367.791,248.262L367.809,248.279L367.828,248.297L367.848,248.317L367.87,248.338L367.9,248.346L367.954,248.364L368.006,248.386L368.056,248.414L368.102,248.446L368.146,248.482L368.186,248.522L368.222,248.566L368.254,248.613L368.282,248.662L368.35,248.799L368.372,248.849L368.389,248.897L368.399,248.901L368.417,248.908L368.434,248.915L368.451,248.922L368.467,248.929L368.484,248.937L368.5,248.944L368.516,248.952L368.532,248.96L368.548,248.968L368.564,248.976L368.579,248.984L368.594,248.992L368.609,249.001L368.624,249.009L368.639,249.018L368.66,249.03L368.678,249.039L368.693,249.045L368.707,249.051L368.721,249.057L368.734,249.061L368.754,249.067L368.772,249.072L368.789,249.076L368.805,249.079L368.821,249.08L368.836,249.081L368.851,249.082L368.909,249.086L368.966,249.095L369.022,249.11L369.076,249.13L369.128,249.155L369.178,249.185L369.224,249.219L369.267,249.258L369.307,249.301L369.342,249.347L369.372,249.396L369.398,249.447L369.419,249.501L369.434,249.557L369.445,249.614L369.449,249.672L369.449,249.729L369.443,249.787L369.431,249.844L369.415,249.899L369.393,249.953L369.366,250.004L369.334,250.052L369.287,250.118L369.288,250.12L369.321,250.166L369.349,250.214L369.373,250.265L369.392,250.318L369.406,250.373L369.415,250.428L369.419,250.484L369.418,250.541L369.373,251.201L369.366,251.257L369.354,251.313L369.338,251.368L369.316,251.42L369.294,251.461L369.304,251.476L369.328,251.524L369.334,251.537L369.357,251.549L369.376,251.559L369.394,251.569L369.413,251.579L369.431,251.589L369.45,251.599L369.468,251.609L369.486,251.62L369.504,251.631L369.522,251.641L369.54,251.652L369.557,251.663L369.575,251.674L369.592,251.686L369.61,251.697L369.627,251.708L369.644,251.72L369.661,251.732L369.678,251.743L369.695,251.755L369.711,251.767L369.728,251.779L369.744,251.791L369.761,251.804L369.777,251.816L369.793,251.828L369.809,251.841L369.825,251.854L369.841,251.866L369.857,251.879L369.873,251.892L369.888,251.905L369.904,251.918L369.919,251.931L369.934,251.944L369.949,251.958L369.964,251.971L369.979,251.984L369.994,251.998L370.009,252.011L370.024,252.025L370.038,252.039L370.053,252.053L370.067,252.066L370.081,252.08L370.095,252.094L370.11,252.108L370.124,252.122L370.138,252.137L370.151,252.151L370.165,252.165L370.192,252.194L370.206,252.208L370.233,252.238L370.259,252.267L370.285,252.296L370.311,252.326L370.336,252.356L370.361,252.386L370.387,252.417L370.411,252.447L370.435,252.477L370.459,252.508L370.483,252.539L370.506,252.57L370.529,252.601L370.552,252.633L370.575,252.664L370.597,252.696L370.619,252.727L370.641,252.759L370.663,252.791L370.685,252.823L370.706,252.855L370.727,252.887L370.748,252.92L370.769,252.952L370.789,252.984L370.798,252.999L370.838,253.02L370.876,253.041L370.913,253.062L370.95,253.083L370.987,253.104L371.024,253.125L371.06,253.147L371.096,253.168L371.131,253.189L371.167,253.211L371.202,253.232L371.236,253.253L371.271,253.275L371.305,253.297L371.338,253.318L371.372,253.34L371.405,253.361L371.438,253.383L371.471,253.405L371.503,253.426L371.535,253.448L371.567,253.47L371.599,253.492L371.631,253.513L371.662,253.535L371.693,253.557L371.724,253.579L371.754,253.6L371.785,253.622L371.815,253.644L371.845,253.665L371.875,253.687L371.905,253.709L371.934,253.73L371.992,253.773L372.05,253.816L372.108,253.859L372.165,253.902L372.221,253.944L372.388,254.07L372.443,254.112L372.498,254.153L372.553,254.194L372.608,254.235L372.664,254.276L372.709,254.312L372.75,254.352L372.787,254.396L372.82,254.444L372.848,254.494L372.872,254.547L372.89,254.601L372.903,254.658L372.911,254.715L372.913,254.772L372.91,254.83L372.902,254.887L372.888,254.943L372.869,254.997L372.845,255.05L372.831,255.074L372.865,255.072L372.922,255.075L372.978,255.082L373.033,255.094L373.087,255.112L373.139,255.134L373.189,255.161L373.236,255.193L373.28,255.228L373.32,255.268L373.357,255.311L373.389,255.357L373.417,255.407L373.441,255.458L373.459,255.512L373.473,255.567L373.481,255.623L373.484,255.679L373.482,255.736L373.475,255.792L373.462,255.847L373.445,255.901L373.44,255.914L373.434,255.929L373.428,255.945L373.422,255.96L373.415,255.975L373.409,255.99L373.402,256.005L373.396,256.02L373.389,256.035L373.382,256.05L373.375,256.065L373.368,256.079L373.361,256.094L373.354,256.109L373.346,256.123L373.339,256.138L373.331,256.152L373.324,256.166L373.316,256.18L373.308,256.194L373.3,256.209L373.292,256.223L373.284,256.237L373.275,256.25L373.267,256.264L373.258,256.278L373.25,256.291L373.241,256.305L373.232,256.318L373.223,256.332L373.214,256.345L373.205,256.358L373.196,256.372L373.187,256.385L373.178,256.398L373.168,256.41L373.159,256.423L373.149,256.436L373.139,256.449L373.129,256.461L373.119,256.474L373.109,256.486L373.099,256.498L373.089,256.511L373.079,256.523L373.069,256.535L373.058,256.547L373.048,256.559L373.037,256.571L373.027,256.583L373.016,256.594L373.005,256.606L372.994,256.618L372.983,256.629L372.972,256.64L372.961,256.652L372.95,256.663L372.939,256.674L372.927,256.685L372.916,256.696L372.905,256.707L372.893,256.717L372.882,256.728L372.87,256.739L372.858,256.749L372.847,256.76L372.835,256.77L372.823,256.781L372.811,256.791L372.799,256.801L372.787,256.811L372.775,256.821L372.763,256.831L372.749,256.841L372.726,256.86L372.701,256.879L372.676,256.898L372.65,256.917L372.625,256.935L372.599,256.953L372.573,256.97L372.547,256.988L372.52,257.005L372.494,257.022L372.467,257.038L372.44,257.055L372.413,257.071L372.386,257.086L372.358,257.102L372.331,257.117L372.303,257.132L372.275,257.147L372.247,257.161L372.218,257.175L372.19,257.189L372.161,257.203L372.132,257.217L372.103,257.23L372.074,257.243L372.045,257.256L372.018,257.268L371.967,257.287L371.914,257.302L371.86,257.312L371.806,257.317L371.751,257.317L371.697,257.313L371.643,257.303L371.606,257.293L371.574,257.315L371.524,257.343L371.47,257.367L371.415,257.385L371.359,257.398L371.301,257.406L371.189,257.415L371.113,257.482L371.07,257.516L371.024,257.546L370.976,257.572L370.925,257.594L370.873,257.611L370.819,257.623L370.765,257.631L370.71,257.633L370.214,257.633L370.162,257.631L370.111,257.625L370.076,257.617L370.049,257.618L369.824,257.618L369.77,257.616L369.716,257.609L369.663,257.597L369.612,257.58L369.562,257.559L369.514,257.534L369.49,257.518L369.963,258.315L369.986,258.358L370.005,258.402L370.022,258.448L370.088,258.666L370.129,258.7L370.172,258.739L370.211,258.782L370.246,258.829L370.276,258.879L370.301,258.931L370.321,258.986L370.5,259.551L370.818,260.479L371.035,260.717L371.069,260.759L371.101,260.804L371.128,260.852L371.15,260.902L371.168,260.953L371.181,261.006L371.19,261.06L371.194,261.115L371.193,261.17L371.19,261.194L371.233,261.241L371.593,261.433L371.639,261.46L371.683,261.492L371.724,261.527L371.762,261.566L371.796,261.607L371.826,261.652L371.852,261.699L371.874,261.748L371.892,261.799L371.905,261.852L371.913,261.905L371.944,262.176L371.947,262.234L371.946,262.291L371.939,262.349L371.926,262.405L371.908,262.46L371.886,262.512L371.858,262.563L371.826,262.611L371.789,262.655L371.749,262.696L371.704,262.733L371.657,262.765L371.607,262.793L371.554,262.816L371.499,262.834L370.957,262.985L370.903,262.997L370.848,263.005L370.793,263.007L369.828,263.007L369.788,263.006L369.748,263.002L369.708,262.996L369.105,262.875L369.052,262.862L368.999,262.844L368.949,262.821L368.901,262.794L368.855,262.762L368.812,262.727L368.773,262.687L368.738,262.645L368.706,262.599L368.679,262.551L368.656,262.501L368.638,262.448L368.625,262.394L368.617,262.34L368.613,262.284L368.615,262.229L368.621,262.174L368.658,261.954L368.643,261.931L368.617,261.884L368.595,261.835L368.264,260.991L368.253,260.963L368.244,260.933L367.973,259.969L367.961,259.917L367.953,259.863L367.95,259.81L367.952,259.756L367.958,259.703L367.972,259.622L367.887,259.114L367.721,258.837L367.711,258.828L367.687,258.805L367.662,258.782L367.637,258.759L367.613,258.736L367.589,258.712L367.565,258.689L367.54,258.666L367.516,258.643L367.493,258.62L367.469,258.596L367.445,258.573L367.421,258.55L367.398,258.526L367.375,258.503L367.351,258.48L367.328,258.456L367.305,258.433L367.282,258.409L367.26,258.386L367.237,258.362L367.214,258.339L367.192,258.315L367.17,258.291L367.147,258.268L367.125,258.244L367.103,258.22L367.082,258.197L367.06,258.173L367.038,258.149L367.017,258.125L366.996,258.102L366.974,258.078L366.953,258.054L366.932,258.03L366.912,258.006L366.891,257.982L366.87,257.958L366.85,257.934L366.83,257.91L366.81,257.885L366.79,257.861L366.77,257.837L366.751,257.813L366.731,257.788L366.712,257.764L366.693,257.74L366.674,257.715L366.655,257.691L366.636,257.666L366.618,257.643L365.815,257.643L365.809,257.652L365.785,257.685L365.76,257.718L365.736,257.751L365.71,257.784L365.685,257.816L365.659,257.849L365.633,257.882L365.606,257.915L365.58,257.947L365.552,257.98L365.551,257.981L365.865,258.353L365.901,258.399L365.932,258.449L365.958,258.501L365.979,258.556L365.995,258.612L366.005,258.669L366.01,258.728L366.009,258.753L366.658,259.445L366.695,259.488L366.728,259.535L366.756,259.584L366.78,259.636L366.798,259.689L366.812,259.744L366.82,259.801L366.824,259.857L366.821,259.914L366.814,259.971L366.802,260.026L366.784,260.08L366.761,260.132L366.734,260.182L366.702,260.229L366.666,260.273L366.395,260.575L366.355,260.615L366.312,260.651L366.266,260.683L366.216,260.711L366.165,260.734L366.111,260.753L366.056,260.766L366,260.774L365.944,260.777L365.887,260.775L365.831,260.767L365.776,260.755L365.722,260.737L365.671,260.715L365.621,260.687L365.574,260.656L365.53,260.62L365.49,260.58L364.934,259.978L364.898,259.992L364.844,260.008L364.788,260.018L364.732,260.023L364.676,260.023L364.62,260.018L364.564,260.007L364.51,259.992L364.457,259.972L364.407,259.946L364.359,259.917L364.314,259.883L364.272,259.845L364.234,259.803L364.092,259.633L364.087,259.643L364.092,259.652L364.111,259.704L364.126,259.757L364.136,259.811L364.141,259.866L364.141,259.921L364.136,259.976L364.126,260.03L364.111,260.083L364.092,260.135L364.068,260.184L364.04,260.232L364.007,260.276L363.669,260.699L363.388,261.153L363.388,261.37L363.385,261.422L363.379,261.473L363.368,261.524L363.353,261.573L363.334,261.621L363.311,261.667L363.303,261.682L363.31,261.705L363.32,261.754L363.326,261.803L363.328,261.853L363.328,262.305L363.325,262.361L363.317,262.417L363.304,262.471L363.287,262.525L363.264,262.576L363.237,262.626L363.205,262.672L363.169,262.716L363.13,262.755L363.087,262.792L363.04,262.824L362.991,262.851L362.94,262.874L362.887,262.892L362.832,262.906L362.776,262.914L361.872,263.004L361.832,263.007L361.792,263.007L360.828,262.977L360.769,262.972L360.712,262.962L360.656,262.947L360.601,262.926L360.549,262.9L360.499,262.869L360.453,262.834L360.41,262.794L360.371,262.75L360.336,262.703L360.306,262.653L360.281,262.6L360.262,262.545L360.247,262.489L360.238,262.431L360.235,262.373L360.237,262.314L360.267,261.953L360.273,261.903L360.283,261.854L360.297,261.807L360.315,261.76L360.337,261.715L360.362,261.672L360.449,261.537L360.438,261.507L360.425,261.451L360.418,261.393L360.415,261.336L360.419,261.278L360.427,261.221L360.441,261.165L360.46,261.111L360.484,261.059L360.906,260.245L360.926,260.208L360.949,260.174L361.259,259.735L361.441,259.188L361.462,259.134L361.488,259.082L361.518,259.033L361.537,259.008L361.494,258.981L361.449,258.947L361.408,258.91L360.805,258.307L360.767,258.265L360.733,258.219L360.703,258.171L360.677,258.119L360.657,258.066L360.642,258.011L360.632,257.955L360.627,257.898L360.627,257.841L360.633,257.784L360.644,257.728L360.66,257.673L360.681,257.62L360.707,257.569L360.738,257.521L360.773,257.476L360.812,257.435L361.56,256.709L361.46,256.647L361.415,256.617L361.372,256.582L361.333,256.544L361.298,256.502L361.266,256.458L361.239,256.41L361.215,256.361L361.197,256.309L361.183,256.256L361.174,256.202L361.167,256.153L361.084,256.06L361.043,256.088L360.995,256.118L360.945,256.143L360.893,256.164L360.839,256.179L360.783,256.19L360.728,256.195L360.671,256.196L360.615,256.191L360.56,256.181L360.506,256.166L360.453,256.146L360.403,256.121L360.355,256.092L360.31,256.059L359.827,255.667L359.785,255.629L359.747,255.588L359.712,255.543L359.682,255.495L359.656,255.445L359.635,255.393L359.619,255.338L359.608,255.283L359.602,255.227L359.602,255.17L359.606,255.114L359.616,255.058L359.631,255.004L359.651,254.951L359.675,254.9L359.705,254.852L359.738,254.806L360.642,253.691L360.68,253.648L360.722,253.61L360.767,253.575L360.815,253.544L360.866,253.519L360.919,253.498L360.974,253.482L361.03,253.471L361.086,253.465L361.143,253.465L361.2,253.47L361.256,253.48L361.311,253.496L361.364,253.516L361.415,253.541L361.464,253.571L361.509,253.605L361.551,253.644L361.65,253.743L361.849,253.267L361.872,253.218L361.9,253.172L361.931,253.128L361.966,253.086L362.005,253.048L362.046,253.014L362.192,252.905L362.311,252.707L362.331,252.676L362.352,252.646L362.563,252.375L362.6,252.332L362.641,252.292L362.685,252.257L362.732,252.226L363.212,251.937L363.22,251.833L363.226,251.779L363.237,251.725L363.253,251.673L363.273,251.623L363.298,251.575L363.327,251.529L363.36,251.485L363.396,251.445L363.436,251.408L363.479,251.375L364.082,250.953L364.125,250.926L364.17,250.902L364.217,250.882L364.265,250.866L364.315,250.854L364.365,250.846L364.91,250.786L365.23,250.752L365.316,250.644L365.287,250.618L365.25,250.575L365.223,250.539L365.22,250.538L365.17,250.513L365.122,250.483L365.077,250.449L365.036,250.411L364.998,250.369L364.964,250.324L364.935,250.277L364.91,250.226L364.889,250.174L364.874,250.12L364.863,250.064L364.858,250.008L364.857,249.992L364.857,249.973L364.856,249.954L364.856,249.935L364.856,249.916L364.856,249.897L364.856,249.878L364.856,249.859L364.857,249.84L364.858,249.821L364.859,249.802L364.861,249.783L364.862,249.764L364.864,249.744L364.867,249.725L364.869,249.706L364.872,249.686L364.876,249.666L364.879,249.647L364.883,249.627L364.888,249.608L364.893,249.588L364.898,249.568L364.903,249.548L364.909,249.528L364.916,249.508L364.923,249.488L364.93,249.469L364.938,249.449L364.947,249.429L364.956,249.41L364.96,249.401L364.96,249.369L364.966,249.313L364.977,249.257L364.993,249.203L365.015,249.151L365.021,249.136L365.031,249.116L365.041,249.096L365.051,249.077L365.061,249.058L365.072,249.039L365.083,249.021L365.094,249.002L365.106,248.984L365.117,248.966L365.129,248.949L365.142,248.932L365.154,248.915L365.167,248.898L365.179,248.882L365.193,248.866L365.206,248.85L365.219,248.835L365.232,248.82L365.246,248.805L365.26,248.791L365.274,248.777L365.288,248.763L365.302,248.749L365.316,248.736L365.33,248.723L365.345,248.71L365.359,248.698L365.374,248.685L365.388,248.674L365.403,248.662L365.417,248.651L365.432,248.639L365.447,248.629L365.462,248.618L365.476,248.608L365.491,248.597L365.494,248.595L365.495,248.585L365.497,248.57L365.499,248.555L365.502,248.54L365.504,248.525L365.507,248.51L365.51,248.494L365.512,248.479L365.516,248.464L365.519,248.449L365.522,248.434L365.526,248.418L365.53,248.403L365.534,248.388L365.538,248.373L365.543,248.357L365.547,248.342L365.552,248.327L365.557,248.311L365.562,248.296L365.568,248.281L365.573,248.265L365.579,248.25L365.585,248.235L365.591,248.22L365.598,248.205L365.604,248.19L365.611,248.175L365.618,248.16L365.623,248.148L365.651,248.097L365.682,248.049L365.719,248.004L365.759,247.963L365.803,247.926L365.85,247.893L365.901,247.865L365.953,247.841L366.008,247.823L366.064,247.809L366.121,247.802L366.179,247.799L366.236,247.802ZM366.172,248.42L366.168,248.428L366.164,248.437L366.161,248.445L366.157,248.454L366.153,248.463L366.15,248.471L366.147,248.48L366.144,248.488L366.141,248.497L366.138,248.505L366.135,248.514L366.132,248.522L366.13,248.531L366.127,248.539L366.125,248.548L366.123,248.557L366.12,248.565L366.118,248.574L366.116,248.582L366.115,248.591L366.113,248.599L366.111,248.608L366.11,248.616L366.108,248.625L366.107,248.633L366.106,248.642L366.104,248.651L366.103,248.659L366.102,248.668L366.101,248.676L366.101,248.685L366.1,248.693L366.099,248.702L366.099,248.71L366.098,248.719L366.098,248.727L366.098,248.736L366.097,248.744L366.097,248.753L366.097,248.762L366.097,248.787L366.098,248.804L366.099,248.821L366.1,248.838L366.102,248.855L366.103,248.872L366.105,248.89L366.108,248.907L366.11,248.924L366.113,248.941L366.116,248.958L366.093,248.967L366.071,248.977L366.049,248.986L366.038,248.991L366.027,248.996L366.017,249.001L366.006,249.007L365.995,249.012L365.985,249.017L365.974,249.022L365.964,249.028L365.954,249.033L365.943,249.038L365.933,249.044L365.923,249.05L365.913,249.055L365.903,249.061L365.893,249.067L365.883,249.073L365.874,249.079L365.864,249.085L365.854,249.091L365.845,249.097L365.836,249.103L365.826,249.11L365.817,249.116L365.808,249.123L365.799,249.129L365.79,249.136L365.782,249.143L365.773,249.15L365.765,249.157L365.756,249.164L365.748,249.171L365.74,249.178L365.732,249.186L365.724,249.193L365.716,249.201L365.708,249.208L365.7,249.216L365.693,249.224L365.686,249.232L365.678,249.24L365.671,249.248L365.664,249.257L365.657,249.265L365.651,249.274L365.644,249.282L365.638,249.291L365.631,249.3L365.625,249.309L365.619,249.318L365.613,249.327L365.607,249.337L365.602,249.346L365.596,249.356L365.591,249.365L365.586,249.375L365.581,249.385L365.576,249.395L365.571,249.406L365.626,249.452L365.68,249.499L365.673,249.503L365.666,249.507L365.66,249.511L365.653,249.515L365.647,249.519L365.64,249.523L365.634,249.527L365.628,249.532L365.622,249.536L365.616,249.54L365.61,249.545L365.605,249.549L365.599,249.554L365.593,249.559L365.588,249.563L365.583,249.568L365.578,249.573L365.573,249.578L365.568,249.583L365.563,249.589L365.558,249.594L365.554,249.599L365.549,249.605L365.545,249.611L365.54,249.617L365.536,249.623L365.532,249.629L365.528,249.635L365.525,249.641L365.521,249.648L365.517,249.654L365.514,249.661L365.511,249.668L365.507,249.675L365.504,249.682L365.501,249.69L365.499,249.697L365.496,249.705L365.493,249.713L365.491,249.721L365.488,249.729L365.486,249.738L365.484,249.747L365.482,249.755L365.48,249.764L365.478,249.774L365.477,249.783L365.475,249.793L365.474,249.803L365.473,249.813L365.472,249.823L365.471,249.834L365.47,249.844L365.469,249.855L365.469,249.867L365.468,249.878L365.468,249.89L365.468,249.902L365.468,249.914L365.468,249.939L365.469,249.966L365.47,249.979L365.71,249.784L365.725,250.189L365.95,250.039L366.04,250.415L366.19,250.775L365.91,250.882L365.548,251.334L364.976,251.394L364.433,251.455L363.831,251.877L363.8,252.298L363.047,252.751L362.836,253.022L362.655,253.323L362.414,253.504L362.022,254.438L361.931,254.921L361.931,255.403L361.329,254.8L361.479,254.438L361.118,254.077L360.214,255.192L360.696,255.584L361.178,255.252L361.751,255.885L361.781,256.126L362.173,256.367L362.324,256.789L362.233,256.91L361.239,257.874L361.841,258.477L362.685,257.513L362.595,257.302L362.836,257.181L363.137,257.543L363.017,257.693L363.258,257.904L363.047,258.387L362.384,259.14L362.022,259.381L361.811,260.014L361.449,260.527L361.028,261.34L361.148,261.581L360.877,262.003L360.847,262.365L361.811,262.395L362.715,262.305L362.715,261.853L362.625,261.642L362.775,261.37L362.775,260.979L363.167,260.346L363.529,259.894L363.408,259.743L363.469,259.532L363.65,259.11L363.921,258.899L364.102,258.688L364.704,259.411L365.036,259.186L365.94,260.165L366.211,259.864L365.308,258.899L365.398,258.748L364.735,257.965L364.764,257.935L364.792,257.906L364.821,257.877L364.849,257.848L364.876,257.819L364.903,257.79L364.93,257.76L364.957,257.731L364.983,257.702L365.009,257.673L365.034,257.644L365.059,257.614L365.084,257.585L365.109,257.556L365.133,257.527L365.156,257.498L365.18,257.468L365.203,257.439L365.225,257.41L365.248,257.381L365.27,257.352L365.291,257.322L365.313,257.293L365.333,257.264L365.354,257.235L365.374,257.206L365.394,257.176L365.414,257.147L365.433,257.118L365.442,257.103L365.452,257.089L365.461,257.074L365.47,257.06L365.479,257.045L365.488,257.03L366.935,257.03L366.949,257.052L366.964,257.075L366.979,257.097L366.995,257.119L367.01,257.141L367.026,257.163L367.042,257.185L367.058,257.207L367.074,257.23L367.09,257.252L367.107,257.274L367.124,257.296L367.14,257.318L367.158,257.34L367.175,257.362L367.192,257.385L367.21,257.407L367.227,257.429L367.245,257.451L367.263,257.473L367.282,257.495L367.3,257.517L367.319,257.54L367.337,257.562L367.356,257.584L367.375,257.606L367.394,257.628L367.414,257.65L367.433,257.672L367.453,257.694L367.473,257.717L367.493,257.739L367.513,257.761L367.533,257.783L367.553,257.805L367.574,257.827L367.594,257.849L367.615,257.872L367.636,257.894L367.657,257.916L367.678,257.938L367.7,257.96L367.721,257.982L367.743,258.004L367.764,258.026L367.786,258.049L367.808,258.071L367.83,258.093L367.853,258.115L367.875,258.137L367.898,258.159L367.92,258.181L367.943,258.203L367.966,258.226L367.989,258.248L368.012,258.27L368.035,258.292L368.058,258.314L368.082,258.336L368.105,258.358L368.129,258.38L368.153,258.403L368.201,258.447L368.472,258.899L368.592,259.622L368.562,259.803L368.834,260.768L369.165,261.612L369.316,261.732L369.225,262.275L369.828,262.395L370.793,262.395L371.335,262.244L371.305,261.973L370.853,261.732L370.521,261.37L370.582,261.129L370.28,260.798L369.918,259.743L369.738,259.17L369.557,259.02L369.436,258.628L368.864,257.663L368.855,257.633L368.847,257.603L368.838,257.572L368.829,257.542L368.82,257.512L368.81,257.481L368.8,257.45L368.79,257.419L368.78,257.389L368.769,257.358L368.758,257.327L368.747,257.295L368.735,257.264L368.723,257.233L368.711,257.201L368.698,257.169L368.685,257.138L368.672,257.106L368.658,257.074L368.651,257.058L368.644,257.042L368.637,257.026L368.629,257.01L368.622,256.993L368.614,256.977L368.607,256.961L368.599,256.945L368.591,256.928L368.584,256.912L368.576,256.896L368.567,256.879L368.559,256.863L368.551,256.846L368.542,256.83L368.534,256.813L368.525,256.797L368.517,256.78L368.508,256.763L368.499,256.747L368.49,256.73L368.48,256.713L368.471,256.696L368.462,256.679L368.452,256.663L368.442,256.646L368.452,256.629L368.461,256.612L368.471,256.595L368.481,256.579L368.491,256.562L368.501,256.546L368.512,256.53L368.523,256.514L368.534,256.499L368.546,256.483L368.557,256.468L368.569,256.453L368.581,256.438L368.593,256.423L368.606,256.409L368.619,256.394L368.632,256.38L368.645,256.366L368.658,256.352L368.672,256.338L368.686,256.325L368.7,256.311L368.715,256.298L368.729,256.285L368.744,256.272L368.759,256.26L368.775,256.247L368.79,256.235L368.806,256.223L368.822,256.211L368.839,256.199L368.855,256.188L368.872,256.176L368.889,256.165L368.906,256.154L368.924,256.143L368.941,256.132L368.959,256.122L368.978,256.112L368.996,256.101L369.015,256.091L369.034,256.082L369.053,256.072L369.072,256.062L369.092,256.053L369.111,256.044L369.132,256.035L369.152,256.026L369.172,256.018L369.193,256.009L369.214,256.001L369.235,255.993L369.257,255.985L369.279,255.977L369.3,255.97L369.323,255.962L369.345,255.955L369.368,255.948L369.391,255.941L369.414,255.935L369.437,255.928L369.461,255.922L369.484,255.916L369.509,255.91L369.689,255.94L369.779,256.09L369.839,256.435L369.644,256.48L369.689,256.706L369.824,257.006L370.049,257.006L370.064,256.901L370.214,257.021L370.71,257.021L370.95,256.811L370.95,256.601L371.07,256.811L371.25,256.796L371.265,256.556L371.276,256.555L371.286,256.555L371.306,256.556L371.327,256.556L371.346,256.557L371.366,256.558L371.385,256.56L371.404,256.561L371.422,256.564L371.44,256.566L371.458,256.569L371.475,256.572L371.493,256.576L371.509,256.579L371.526,256.583L371.542,256.588L371.558,256.593L371.574,256.597L371.589,256.603L371.604,256.608L371.619,256.614L371.634,256.62L371.648,256.627L371.662,256.633L371.676,256.64L371.689,256.648L371.702,256.655L371.715,256.663L371.734,256.675L371.752,256.688L371.77,256.701L371.776,256.706L371.801,256.695L371.825,256.684L371.85,256.673L371.874,256.662L371.898,256.65L371.922,256.639L371.946,256.627L371.969,256.616L371.992,256.604L372.015,256.592L372.038,256.579L372.06,256.567L372.082,256.554L372.104,256.542L372.126,256.529L372.148,256.516L372.169,256.503L372.19,256.489L372.211,256.476L372.231,256.462L372.252,256.448L372.272,256.434L372.292,256.42L372.311,256.406L372.331,256.391L372.35,256.377L372.368,256.362L372.378,256.355L372.387,256.347L372.396,256.339L372.405,256.332L372.414,256.324L372.423,256.317L372.432,256.309L372.441,256.301L372.45,256.293L372.459,256.285L372.467,256.277L372.476,256.269L372.484,256.261L372.493,256.253L372.501,256.245L372.51,256.237L372.518,256.229L372.526,256.221L372.534,256.213L372.542,256.204L372.55,256.196L372.558,256.187L372.566,256.179L372.574,256.171L372.582,256.162L372.589,256.153L372.597,256.145L372.604,256.136L372.612,256.127L372.619,256.119L372.626,256.11L372.634,256.101L372.641,256.092L372.648,256.083L372.655,256.074L372.662,256.065L372.669,256.056L372.676,256.047L372.682,256.038L372.689,256.028L372.696,256.019L372.702,256.01L372.709,256L372.715,255.991L372.721,255.981L372.727,255.972L372.734,255.962L372.74,255.953L372.746,255.943L372.752,255.933L372.758,255.923L372.763,255.914L372.769,255.904L372.775,255.894L372.78,255.884L372.786,255.874L372.791,255.864L372.797,255.854L372.802,255.843L372.807,255.833L372.812,255.823L372.817,255.813L372.822,255.802L372.827,255.792L372.832,255.781L372.837,255.771L372.841,255.76L372.846,255.75L372.85,255.739L372.855,255.728L372.859,255.717L372.863,255.707L372.868,255.696L372.872,255.685L372.858,255.692L372.845,255.698L372.831,255.705L372.818,255.712L372.804,255.718L372.791,255.725L372.777,255.731L372.764,255.737L372.751,255.743L372.737,255.749L372.724,255.755L372.711,255.761L372.698,255.767L372.685,255.772L372.672,255.778L372.658,255.783L372.632,255.794L372.606,255.804L372.58,255.814L372.554,255.823L372.529,255.833L372.503,255.842L372.477,255.85L372.452,255.859L372.426,255.867L372.401,255.875L372.375,255.883L372.35,255.89L372.325,255.898L372.299,255.905L372.274,255.912L372.249,255.919L372.223,255.926L372.198,255.933L372.173,255.939L372.148,255.946L372.097,255.958L372.046,255.971L371.944,255.996L371.892,256.009L371.841,256.022L371.814,256.028L371.788,256.035L371.762,256.042L371.736,256.049L371.709,256.056L371.683,256.064L371.656,256.071L371.629,256.079L371.602,256.087L371.575,256.095L371.547,256.103L371.52,256.112L371.492,256.121L371.464,256.13L371.436,256.139L371.408,256.149L371.38,256.159L371.351,256.17L371.322,256.18L371.293,256.192L371.264,256.203L371.235,256.215L371.205,256.227L371.19,256.234L371.175,256.24L371.115,256.09L371.01,256.03L370.875,256.18L370.815,256.045L370.424,255.73L370.462,255.693L370.499,255.657L370.535,255.622L370.57,255.587L370.604,255.554L370.637,255.521L370.7,255.458L370.76,255.399L370.816,255.342L370.843,255.315L370.87,255.289L370.896,255.264L370.922,255.239L370.947,255.215L370.971,255.191L370.995,255.169L371.019,255.147L371.031,255.136L371.043,255.126L371.054,255.115L371.066,255.105L371.077,255.095L371.088,255.085L371.1,255.076L371.111,255.066L371.122,255.057L371.133,255.048L371.145,255.039L371.156,255.03L371.167,255.021L371.178,255.013L371.189,255.004L371.2,254.996L371.211,254.988L371.222,254.98L371.233,254.973L371.244,254.965L371.255,254.958L371.266,254.951L371.277,254.944L371.289,254.937L371.3,254.93L371.311,254.923L371.322,254.917L371.334,254.911L371.345,254.904L371.356,254.898L371.368,254.892L371.38,254.887L371.391,254.881L371.403,254.876L371.415,254.871L371.427,254.865L371.439,254.86L371.451,254.856L371.463,254.851L371.475,254.846L371.488,254.842L371.501,254.837L371.513,254.833L371.526,254.829L371.539,254.825L371.552,254.822L371.566,254.818L371.579,254.814L371.593,254.811L371.606,254.808L371.62,254.805L371.634,254.802L371.649,254.799L371.663,254.796L371.678,254.793L371.693,254.791L371.708,254.788L371.723,254.786L371.738,254.784L371.754,254.782L371.77,254.78L371.786,254.778L371.802,254.777L371.819,254.775L371.836,254.773L371.853,254.772L371.87,254.771L371.888,254.77L371.906,254.769L371.924,254.768L371.942,254.767L371.961,254.766L371.98,254.766L371.999,254.765L372.019,254.765L372.038,254.765L372.058,254.764L372.079,254.764L372.1,254.764L372.121,254.764L372.164,254.765L372.208,254.766L372.254,254.767L372.301,254.769L372.244,254.727L372.188,254.685L372.132,254.643L372.076,254.601L372.02,254.559L371.964,254.517L371.853,254.433L371.797,254.391L371.741,254.349L371.685,254.307L371.628,254.266L371.572,254.224L371.543,254.203L371.515,254.182L371.486,254.161L371.457,254.141L371.428,254.12L371.399,254.099L371.37,254.078L371.341,254.058L371.311,254.037L371.282,254.017L371.252,253.996L371.222,253.975L371.192,253.955L371.162,253.935L371.131,253.914L371.101,253.894L371.07,253.874L371.039,253.853L371.008,253.833L370.976,253.813L370.944,253.793L370.913,253.773L370.88,253.753L370.848,253.733L370.815,253.713L370.782,253.694L370.749,253.674L370.716,253.654L370.682,253.635L370.648,253.615L370.614,253.596L370.579,253.577L370.544,253.557L370.509,253.538L370.473,253.519L370.437,253.5L370.401,253.481L370.364,253.462L370.346,253.432L370.327,253.401L370.309,253.371L370.29,253.341L370.271,253.311L370.252,253.281L370.233,253.251L370.214,253.222L370.195,253.193L370.176,253.163L370.156,253.134L370.136,253.106L370.117,253.077L370.097,253.049L370.077,253.02L370.057,252.992L370.036,252.965L370.016,252.937L369.995,252.91L369.974,252.883L369.953,252.856L369.932,252.829L369.911,252.803L369.9,252.789L369.89,252.776L369.879,252.763L369.868,252.75L369.857,252.738L369.846,252.725L369.835,252.712L369.824,252.699L369.813,252.687L369.802,252.674L369.791,252.662L369.78,252.649L369.768,252.637L369.757,252.625L369.746,252.613L369.734,252.6L369.723,252.588L369.711,252.576L369.7,252.565L369.688,252.553L369.676,252.541L369.665,252.529L369.653,252.518L369.641,252.506L369.629,252.495L369.617,252.483L369.605,252.472L369.593,252.461L369.581,252.45L369.569,252.439L369.557,252.428L369.544,252.417L369.532,252.406L369.52,252.395L369.507,252.385L369.495,252.374L369.482,252.364L369.47,252.353L369.457,252.343L369.444,252.333L369.431,252.323L369.418,252.313L369.406,252.303L369.393,252.293L369.379,252.283L369.366,252.273L369.353,252.264L369.34,252.254L369.327,252.245L369.313,252.236L369.3,252.226L369.286,252.217L369.273,252.208L369.259,252.199L369.245,252.191L369.232,252.182L369.218,252.173L369.204,252.165L369.19,252.156L369.176,252.148L369.162,252.14L369.147,252.132L369.133,252.123L369.119,252.116L369.104,252.108L369.09,252.1L369.075,252.092L369.061,252.085L369.046,252.078L369.031,252.07L369.016,252.063L369.001,252.056L368.986,252.049L368.971,252.042L368.956,252.035L368.941,252.029L368.926,252.022L368.91,252.016L368.895,252.009L368.879,252.003L368.864,251.997L368.848,251.991L368.81,251.886L368.792,251.833L368.773,251.781L368.427,251.541L367.692,251.345L367.681,251.212L367.65,250.916L367.454,250.749L367.537,250.635L367.711,250.256L367.802,250.21L367.816,250.215L367.829,250.221L367.843,250.227L367.856,250.234L367.87,250.241L367.883,250.249L367.897,250.257L367.91,250.265L367.924,250.274L367.937,250.284L367.951,250.294L367.964,250.304L367.977,250.315L367.991,250.326L368.004,250.338L368.018,250.35L368.031,250.363L368.044,250.375L368.058,250.388L368.071,250.402L368.085,250.416L368.099,250.43L368.112,250.444L368.126,250.459L368.14,250.474L368.153,250.489L368.167,250.505L368.181,250.52L368.209,250.553L368.237,250.586L368.266,250.62L368.295,250.654L368.354,250.725L368.385,250.761L368.416,250.797L368.447,250.834L368.463,250.852L368.479,250.871L368.496,250.889L368.512,250.907L368.529,250.926L368.545,250.944L368.562,250.963L368.579,250.981L368.597,250.999L368.614,251.017L368.632,251.035L368.65,251.053L368.668,251.071L368.686,251.089L368.705,251.107L368.724,251.124L368.743,251.142L368.762,251.159L368.807,250.499L368.52,250.134L368.838,249.694L368.823,249.694L368.808,249.693L368.793,249.692L368.778,249.691L368.763,249.69L368.748,249.688L368.733,249.687L368.719,249.685L368.704,249.682L368.689,249.68L368.674,249.677L368.659,249.674L368.644,249.671L368.629,249.668L368.614,249.664L368.599,249.66L368.585,249.656L368.57,249.651L368.555,249.647L368.54,249.642L368.525,249.637L368.51,249.632L368.495,249.626L368.48,249.62L368.466,249.614L368.451,249.608L368.436,249.601L368.421,249.594L368.406,249.587L368.391,249.58L368.376,249.573L368.361,249.565L368.351,249.559L368.341,249.553L368.331,249.547L368.32,249.541L368.31,249.535L368.3,249.529L368.29,249.524L368.28,249.518L368.27,249.513L368.259,249.508L368.249,249.503L368.239,249.498L368.229,249.494L368.219,249.489L368.209,249.485L368.199,249.481L368.189,249.477L368.179,249.473L368.17,249.469L368.16,249.465L368.15,249.462L368.14,249.459L368.13,249.456L368.121,249.453L368.111,249.45L368.101,249.448L368.091,249.445L368.082,249.443L368.072,249.441L368.063,249.439L368.053,249.438L368.043,249.436L368.034,249.435L368.025,249.434L368.015,249.433L368.006,249.432L367.996,249.432L367.987,249.432L367.978,249.432L367.968,249.432L367.959,249.432L367.95,249.433L367.941,249.434L367.932,249.435L367.923,249.436L367.913,249.437L367.904,249.439L367.895,249.441L367.886,249.443L367.877,249.446L367.869,249.448L367.86,249.451L367.851,249.454L367.842,249.457L367.833,249.461L367.825,249.465L367.816,249.469L367.807,249.473L367.799,249.478L367.79,249.482L367.782,249.488L367.773,249.493L367.765,249.498L367.756,249.504L367.756,249.352L367.802,249.072L367.734,248.935L367.598,248.988L367.592,248.977L367.586,248.966L367.58,248.955L367.574,248.945L367.568,248.935L367.562,248.924L367.555,248.915L367.549,248.905L367.542,248.895L367.535,248.886L367.529,248.877L367.522,248.868L367.515,248.859L367.508,248.85L367.501,248.841L367.493,248.833L367.486,248.824L367.479,248.816L367.471,248.808L367.464,248.8L367.456,248.792L367.449,248.784L367.441,248.776L367.433,248.768L367.418,248.753L367.402,248.737L367.387,248.722L367.371,248.707L367.339,248.677L367.322,248.662L367.306,248.646L367.29,248.631L367.274,248.615L367.266,248.607L367.258,248.598L367.25,248.59L367.242,248.582L367.234,248.573L367.227,248.565L367.219,248.556L367.211,248.547L367.203,248.538L367.195,248.529L367.188,248.519L367.18,248.51L367.173,248.5L367.165,248.49L367.158,248.48L367.15,248.47L367.143,248.459L367.136,248.448L367.128,248.437L367.121,248.426L367.12,248.435L367.119,248.444L367.117,248.452L367.116,248.461L367.112,248.479L367.109,248.498L367.105,248.517L367.1,248.536L367.096,248.555L367.091,248.574L367.086,248.594L367.081,248.614L367.075,248.635L367.07,248.655L367.064,248.675L367.058,248.696L367.046,248.738L367.038,248.727L367.03,248.716L367.022,248.705L367.014,248.695L367.005,248.684L366.997,248.674L366.988,248.664L366.979,248.653L366.97,248.643L366.961,248.633L366.952,248.623L366.942,248.613L366.932,248.603L366.923,248.594L366.912,248.584L366.902,248.574L366.891,248.565L366.88,248.556L366.869,248.547L366.858,248.538L366.846,248.529L366.834,248.52L366.822,248.512L366.809,248.503L366.803,248.499L366.797,248.495L366.79,248.491L366.784,248.487L366.777,248.483L366.77,248.479L366.763,248.475L366.756,248.471L366.749,248.467L366.742,248.463L366.735,248.46L366.728,248.456L366.72,248.452L366.713,248.449L366.705,248.445L366.698,248.442L366.704,248.461L366.71,248.48L366.715,248.498L366.719,248.516L366.722,248.534L366.725,248.551L366.726,248.563L366.727,248.574L366.728,248.585L366.728,248.596L366.729,248.606L366.729,248.617L366.728,248.628L366.728,248.638L366.727,248.648L366.726,248.658L366.725,248.668L366.723,248.678L366.721,248.688L366.72,248.698L366.718,248.708L366.716,248.717L366.713,248.727L366.711,248.736L366.709,248.746L366.706,248.755L366.703,248.765L366.701,248.774L366.698,248.783L366.689,248.782L366.68,248.78L366.671,248.778L366.662,248.776L366.653,248.774L366.644,248.772L366.635,248.769L366.626,248.767L366.617,248.764L366.608,248.761L366.599,248.758L366.591,248.755L366.582,248.752L366.573,248.749L366.565,248.745L366.556,248.741L366.547,248.738L366.539,248.734L366.53,248.73L366.522,248.726L366.513,248.721L366.505,248.717L366.496,248.712L366.488,248.708L366.479,248.703L366.471,248.698L366.463,248.693L366.455,248.688L366.446,248.682L366.438,248.677L366.43,248.671L366.422,248.666L366.414,248.66L366.405,248.654L366.397,248.648L366.389,248.641L366.381,248.635L366.373,248.628L366.365,248.622L366.357,248.615L366.35,248.608L366.342,248.601L366.334,248.594L366.326,248.586L366.318,248.579L366.311,248.571L366.303,248.563L366.295,248.556L366.287,248.548L366.28,248.539L366.272,248.531L366.265,248.523L366.257,248.514L366.25,248.505L366.242,248.497L366.235,248.488L366.227,248.479L366.22,248.469L366.212,248.46L366.205,248.451L366.198,248.441L366.191,248.431L366.183,248.421L366.176,248.411L366.172,248.42ZM364.623,253.03L364.631,253.063L364.641,253.096L364.65,253.128L364.66,253.161L364.669,253.194L364.679,253.227L364.689,253.26L364.7,253.293L364.71,253.326L364.721,253.358L364.732,253.391L364.744,253.424L364.755,253.457L364.767,253.49L364.779,253.523L364.791,253.555L364.803,253.588L364.816,253.621L364.829,253.654L364.842,253.687L364.855,253.72L364.869,253.753L364.883,253.785L364.897,253.818L364.912,253.851L364.926,253.884L364.941,253.917L364.957,253.95L364.972,253.982L364.988,254.015L365.004,254.048L365.049,254.348L364.974,254.634L364.962,254.631L364.95,254.629L364.938,254.627L364.926,254.625L364.914,254.624L364.902,254.622L364.89,254.62L364.878,254.619L364.867,254.618L364.855,254.617L364.843,254.616L364.832,254.615L364.82,254.614L364.809,254.614L364.797,254.613L364.786,254.613L364.775,254.613L364.763,254.612L364.752,254.612L364.741,254.613L364.73,254.613L364.719,254.613L364.708,254.614L364.697,254.615L364.687,254.616L364.676,254.617L364.665,254.618L364.654,254.619L364.644,254.62L364.633,254.622L364.623,254.623L364.612,254.625L364.602,254.627L364.592,254.629L364.582,254.631L364.571,254.634L364.561,254.636L364.551,254.639L364.541,254.642L364.531,254.645L364.522,254.648L364.512,254.651L364.502,254.654L364.492,254.658L364.483,254.661L364.473,254.665L364.464,254.669L364.454,254.673L364.445,254.677L364.436,254.682L364.426,254.686L364.417,254.691L364.408,254.696L364.399,254.7L364.39,254.706L364.381,254.711L364.372,254.716L364.364,254.722L364.355,254.727L364.346,254.733L364.338,254.739L364.329,254.745L364.321,254.751L364.312,254.758L364.304,254.764L364.296,254.771L364.288,254.778L364.28,254.785L364.272,254.792L364.264,254.8L364.256,254.807L364.248,254.815L364.24,254.823L364.232,254.831L364.225,254.839L364.217,254.847L364.21,254.855L364.202,254.864L364.195,254.873L364.188,254.882L364.18,254.891L364.173,254.9L364.166,254.909L364.159,254.919L364.152,254.929L364.145,254.938L364.138,254.948L364.132,254.959L364.125,254.969L364.119,254.98L364.112,254.99L364.106,255.001L364.099,255.012L364.093,255.023L364.087,255.035L364.081,255.046L364.074,255.058L364.068,255.07L364.062,255.082L364.057,255.094L364.051,255.106L364.045,255.119L364.039,255.131L364.034,255.144L364.028,255.157L364.023,255.17L364.018,255.184L364.012,255.197L364.007,255.211L364.002,255.225L363.997,255.239L363.992,255.253L363.987,255.267L363.982,255.282L363.978,255.297L363.973,255.312L363.968,255.327L363.964,255.342L363.959,255.357L363.955,255.373L363.951,255.389L363.947,255.405L363.943,255.421L363.938,255.437L363.935,255.454L363.931,255.47L363.927,255.487L363.923,255.504L363.925,255.524L363.927,255.542L363.929,255.561L363.932,255.579L363.935,255.596L363.938,255.613L363.942,255.63L363.946,255.646L363.95,255.661L363.954,255.677L363.959,255.692L363.964,255.706L363.97,255.72L363.975,255.734L363.982,255.747L363.988,255.76L363.995,255.772L364.002,255.784L364.009,255.795L364.017,255.806L364.024,255.817L364.033,255.827L364.041,255.837L364.05,255.846L364.059,255.855L364.069,255.863L364.079,255.871L364.089,255.879L364.099,255.886L364.11,255.893L364.121,255.899L364.132,255.905L364.144,255.91L364.156,255.915L364.168,255.92L364.181,255.924L364.193,255.927L364.207,255.931L364.22,255.934L364.234,255.936L364.248,255.938L364.263,255.94L364.277,255.941L364.292,255.941L364.308,255.942L364.316,255.942L364.323,255.941L364.331,255.941L364.339,255.941L364.348,255.94L364.356,255.94L364.364,255.939L364.372,255.938L364.381,255.937L364.389,255.936L364.398,255.935L364.406,255.934L364.415,255.933L364.424,255.931L364.433,255.93L364.442,255.928L364.451,255.926L364.46,255.925L364.469,255.923L364.479,255.92L364.488,255.918L364.497,255.916L364.507,255.914L364.516,255.911L364.526,255.908L364.536,255.906L364.546,255.903L364.555,255.9L364.565,255.897L364.576,255.894L364.586,255.891L364.596,255.887L364.606,255.884L364.616,255.88L364.627,255.876L364.637,255.873L364.648,255.869L364.659,255.865L364.627,255.902L364.596,255.939L364.58,255.958L364.564,255.977L364.549,255.996L364.534,256.015L364.518,256.033L364.503,256.052L364.488,256.071L364.473,256.09L364.458,256.109L364.443,256.128L364.429,256.147L364.414,256.166L364.399,256.185L364.385,256.204L364.37,256.223L364.356,256.242L364.342,256.261L364.328,256.28L364.314,256.299L364.3,256.318L364.286,256.338L364.273,256.357L364.259,256.376L364.246,256.395L364.233,256.415L364.219,256.434L364.206,256.453L364.193,256.473L364.18,256.492L364.168,256.512L364.155,256.531L364.143,256.551L364.13,256.57L364.118,256.59L364.106,256.61L364.094,256.629L364.082,256.649L364.07,256.669L364.059,256.688L364.047,256.708L364.036,256.728L364.025,256.748L364.014,256.768L364.003,256.788L363.992,256.807L363.981,256.827L363.971,256.847L363.961,256.868L363.95,256.888L363.94,256.908L363.93,256.928L363.921,256.948L363.911,256.968L363.901,256.989L363.892,257.009L363.883,257.029L363.874,257.05L363.865,257.07L363.857,257.091L363.848,257.111L363.443,256.66L363.443,256.541L363.307,256.414L363.217,256.51L362.872,256.195L362.887,255.88L362.781,255.55L362.812,255.324L362.962,255.234L363.277,254.213L363.473,253.913L363.518,253.778L363.713,253.507L364.614,252.997L364.623,253.03ZM371.851,255.387L371.841,255.388L371.83,255.389L371.82,255.391L371.81,255.392L371.801,255.394L371.792,255.395L371.783,255.396L371.775,255.398L371.767,255.4L371.759,255.401L371.751,255.403L371.744,255.404L371.737,255.406L371.731,255.408L371.724,255.409L371.718,255.411L371.712,255.413L371.706,255.414L371.701,255.416L371.695,255.418L371.69,255.42L371.685,255.422L371.68,255.423L371.675,255.425L371.67,255.427L371.665,255.429L371.661,255.431L371.656,255.433L371.652,255.435L371.647,255.438L371.642,255.44L371.639,255.441L371.662,255.435L371.69,255.428L371.744,255.415L371.797,255.402L371.861,255.386L371.851,255.387ZM364.131,253.974L364.069,254.06L364.053,254.107L364.035,254.155L364.012,254.202L363.995,254.232L364,254.228L364.017,254.217L364.034,254.206L364.05,254.195L364.067,254.185L364.084,254.175L364.102,254.165L364.119,254.156L364.137,254.147L364.154,254.138L364.172,254.129L364.19,254.121L364.208,254.113L364.226,254.105L364.244,254.097L364.262,254.09L364.281,254.083L364.299,254.077L364.318,254.07L364.336,254.064L364.336,254.064L364.336,254.063L364.32,254.026L364.305,253.99L364.289,253.953L364.274,253.916L364.267,253.897L364.131,253.974ZM368.668,249.035L368.662,249.031L368.661,249.031L368.668,249.035Z" style="fill-opacity:0.71;"/>
            </g>
        </g>
    </g>
    <defs>
        <radialGradient id="_Radial1" cx="0" cy="0" r="1" gradientUnits="userSpaceOnUse" gradientTransform="matrix(99.7942,0,0,99.7942,233.356,334.206)"><stop offset="0" style="stop-color:rgb(255,225,102);stop-opacity:1"/><stop offset="1" style="stop-color:rgb(206,140,19);stop-opacity:1"/></radialGradient>
    </defs>
</svg>
