<?xml version="1.0" encoding="utf-8"?>
<!DOCTYPE svg PUBLIC "-//W3C//DTD SVG 1.1//EN" "http://www.w3.org/Graphics/SVG/1.1/DTD/svg11.dtd">
<svg version="1.1" xmlns="http://www.w3.org/2000/svg" xmlns:xlink="http://www.w3.org/1999/xlink" xmlns:xml="http://www.w3.org/XML/1998/namespace" xmlns:serif="http://www.serif.com/" width="91" height="91" viewBox="0, 0, 91, 91" xml:space="preserve" fill-rule="evenodd" stroke-linejoin="round" stroke-miterlimit="2" style="clip-rule:evenodd;">
	<filter xmlns="http://www.w3.org/2000/svg" height="150%" id="dropshadow">
      <feGaussianBlur stdDeviation="2" in="SourceAlpha" /> 
      <feOffset dx="0" dy="0" result="offsetblur" /> 
      <feMerge> 
        <feMergeNode />
        <feMergeNode in="SourceGraphic" /> 
      </feMerge>
    </filter>
	<path d="M7.4 70.4 C5.8 67.9 4.4 65.2 3.3 62.5 C2.2 59.7 1.3 56.8 0.8 53.9 C0.2 51 -0 48 0 45 C0 42.1 0.4 39.1 1 36.2 C1.6 33.3 2.5 30.4 3.6 27.7 C4.8 24.9 6.2 22.3 7.9 19.8 C9.6 17.4 11.5 15.1 13.6 13 C15.8 10.9 18.1 9.1 20.6 7.4 C23.1 5.8 25.7 4.4 28.5 3.3 C31.2 2.2 34.1 1.3 37 0.8 C39.9 0.2 42.9 -0 45.9 0 C48.9 0 51.9 0.4 54.8 1 C57.7 1.6 60.5 2.5 63.3 3.6 C66 4.8 68.6 6.2 71.1 7.9 C73.6 9.6 75.8 11.5 77.9 13.6 C80 15.8 81.9 18.1 83.5 20.6 C85.1 23.1 86.5 25.7 87.6 28.5 C88.8 31.2 89.6 34.1 90.2 37 C90.7 39.9 91 42.9 90.9 45.9 C90.9 48.9 90.6 51.9 90 54.8 C89.4 57.7 88.5 60.5 87.3 63.3 C86.1 66 84.7 68.6 83 71.1 C81.4 73.5 79.4 75.8 77.3 77.9 C75.2 80 72.9 81.9 70.4 83.5 C67.9 85.1 65.2 86.5 62.5 87.6 C59.7 88.8 56.8 89.6 53.9 90.1 C51 90.7 48 91 45 90.9 C42.1 90.9 39.1 90.6 36.2 90 C33.3 89.4 30.4 88.5 27.7 87.3 C24.9 86.1 22.3 84.7 19.8 83 C17.4 81.4 15.1 79.4 13 77.3 C10.9 75.2 9.1 72.9 7.4 70.4 z" fill-rule="nonzero" style="fill:#4D652E;" />
    <g stroke-width="0.5" style="stroke:black;">
        <path d="M46.3 69 L46.6 68.6 L46.8 68.3 L47.1 67.9 L47.4 67.5 L47.6 67.2 L47.9 66.8 L48.2 66.4 L48.4 66.1 L48.7 65.7 L48.9 65.3 L49.2 65 L49.5 64.6 L49.7 64.3 L50 63.9 L50.3 63.5 L50.5 63.2 L50.8 62.8 L51.1 62.4 L51.3 62.1 L51.6 61.7 L51.8 61.3 L52.1 61 L52.4 60.6 L52.6 60.3 L52.9 59.9 L53.2 59.5 L53.4 59.2 L53.7 58.8 L54 58.4 L54 58.4 L54 58.4 L54 58.3 L54 58.3 L54.1 58.2 L54.1 58.2 L54.1 58.2 L54.1 58.1 L54.1 58.1 L54.1 58 L54.1 58 L54.1 57.9 L54.2 57.9 L54.2 57.8 L54.2 57.8 L54.1 57.7 L54.1 57.7 L54.1 57.6 L54.1 57.6 L54.1 57.6 L54.1 57.5 L54.1 57.5 L54.1 57.4 L54.1 57.4 L54 57.3 L54 57.3 L54 57.3 L54 57.2 L53.9 57.2 L53.8 57 L53.7 56.9 L53.5 56.7 L53.4 56.5 L53.3 56.4 L53.2 56.2 L53 56 L52.9 55.9 L52.8 55.7 L52.6 55.5 L52.5 55.4 L52.4 55.2 L52.3 55 L52.1 54.9 L52 54.7 L51.9 54.5 L51.7 54.4 L51.6 54.2 L51.5 54 L51.3 53.9 L51.2 53.7 L51.1 53.5 L51 53.4 L50.8 53.2 L50.7 53 L50.6 52.9 L50.4 52.7 L50.3 52.5 L50.2 52.4 L50.2 52.3 L50.2 52.3 L50.1 52.3 L50.1 52.3 L50.1 52.3 L50.1 52.2 L50.1 52.2 L50.1 52.2 L50.1 52.2 L50.1 52.2 L50.1 52.1 L50 52.1 L50 52.1 L50 52.1 L50 52 L50 52 L50 52 L50 52 L50 52 L50 51.9 L50 51.9 L50 51.9 L50 51.9 L50 51.8 L50 51.8 L50 51.8 L50 51.8 L50 51.7 L50 51.7 L50 51.6 L50 51.4 L50 51.3 L50 51.1 L50 51 L50 50.8 L50 50.7 L50 50.5 L50 50.4 L50 50.2 L50 50 L50 49.9 L50 49.7 L50 49.6 L50 49.4 L50 49.3 L50 49.1 L50 49 L50 48.8 L50 48.7 L50 48.5 L50 48.4 L50 48.2 L50 48.1 L50 47.9 L50 47.8 L50 47.6 L50 47.5 L50 47.3 L50 47.3 L50 47.2 L50 47.1 L50 47.1 L50 47 L50 47 L50 46.9 L50.1 46.9 L50.1 46.8 L50.1 46.8 L50.2 46.7 L50.2 46.7 L50.2 46.6 L50.3 46.6 L50.3 46.5 L50.3 46.5 L50.4 46.5 L50.4 46.4 L50.5 46.4 L50.5 46.4 L50.6 46.4 L50.6 46.3 L50.7 46.3 L50.8 46.3 L50.8 46.3 L50.9 46.3 L50.9 46.3 L51 46.3 L51 46.3 L51.9 46.3 L52.7 46.4 L53.5 46.7 L54.2 47.1 L54.8 47.7 L55.3 48.3 L55.9 48.9 L56.4 49.5 L56.9 50.1 L57.5 50.7 L58 51.4 L58.6 52 L59.1 52.6 L59.7 53.2 L60.2 53.8 L60.8 54.4 L61.3 55 L61.9 55.6 L62.4 56.2 L63 56.9 L63.5 57.5 L64.1 58.1 L64.6 58.7 L65.2 59.3 L65.7 59.9 L66.3 60.5 L66.8 61.1 L67.4 61.7 L68 62.3 L68 62.3 L68 62.3 L68 62.4 L68 62.4 L68 62.4 L68 62.4 L68 62.4 L68 62.4 L68.1 62.4 L68.1 62.4 L68.1 62.4 L68.1 62.4 L68.1 62.4 L68.1 62.5 L68.1 62.5 L68.1 62.5 L68.2 62.5 L68.2 62.5 L68.2 62.5 L68.2 62.5 L68.2 62.5 L68.2 62.5 L68.2 62.5 L68.2 62.5 L68.3 62.5 L68.3 62.5 L68.3 62.6 L68.3 62.6 L68.3 62.6 L68.6 62.7 L68.8 62.8 L69.5 63.1 L69.8 63.2 L70.7 63.6 L71 63.7 L71.5 63.9 L71.7 64 L72.4 64.3 L72.7 64.4 L73.2 64.6 L73.4 64.7 L73.9 64.9 L74.1 65 L74.9 65.3 L75.1 65.4 L75.4 65.5 L75.4 65.6 L75.5 65.6 L75.6 65.6 L75.7 65.6 L75.8 65.6 L75.8 65.6 L75.9 65.6 L76 65.6 L76.1 65.6 L76.1 65.5 L76.2 65.5 L76.3 65.5 L76.4 65.4 L76.4 65.4 L76.5 65.3 L76.5 65.3 L76.6 65.2 L76.6 65.1 L76.7 65.1 L76.7 65 L76.7 64.9 L76.8 64.8 L76.8 64.8 L76.8 64.7 L76.8 64.6 L76.8 64.5 L76.8 64.4 L76.8 64.4 L76.8 64.3 L76.4 63 L76 61.7 L75.6 60.4 L75.2 59.1 L74.9 57.8 L74.5 56.5 L74.1 55.2 L73.7 53.9 L73.4 52.6 L73 51.3 L72.6 50 L72.2 48.7 L71.8 47.4 L71.5 46.1 L71.1 44.8 L70.7 43.5 L70.3 42.2 L69.9 40.9 L69.6 39.6 L69.2 38.3 L68.8 37 L68.4 35.7 L68 34.4 L67.7 33.1 L67.3 31.8 L66.9 30.5 L66.5 29.2 L66.2 27.9 L65.8 26.6 L65.7 26.4 L65.7 26.2 L65.6 26.1 L65.5 25.9 L65.5 25.7 L65.4 25.5 L65.3 25.4 L65.2 25.2 L65.1 25 L65 24.9 L64.9 24.7 L64.8 24.5 L64.7 24.4 L64.6 24.2 L64.5 24.1 L64.4 24 L64.2 23.8 L64.1 23.7 L64 23.6 L63.8 23.5 L63.6 23.4 L63.5 23.3 L63.3 23.2 L63.1 23.1 L63 23 L62.8 23 L62.6 22.9 L62.4 22.9 L62.2 22.8 L62.2 22.8 L62.1 22.8 L62 22.8 L61.9 22.8 L61.8 22.8 L61.7 22.8 L61.6 22.7 L61.5 22.7 L61.4 22.7 L61.4 22.7 L61.3 22.7 L61.2 22.7 L61.1 22.7 L61 22.6 L60.9 22.6 L60.8 22.6 L60.7 22.6 L60.6 22.6 L60.6 22.6 L60.5 22.6 L60.4 22.5 L60.3 22.5 L60.2 22.5 L60.1 22.5 L60 22.5 L59.9 22.5 L59.8 22.5 L59.8 22.4 L59.7 22.4 L59.6 22.4 L59.6 22.4 L59.5 22.4 L59.5 22.4 L59.4 22.4 L59.4 22.4 L59.3 22.4 L59.3 22.4 L59.3 22.4 L59.2 22.5 L59.2 22.5 L59.1 22.5 L59.1 22.5 L59 22.5 L59 22.5 L59 22.6 L58.9 22.6 L58.9 22.6 L58.8 22.6 L58.8 22.7 L58.8 22.7 L58.7 22.7 L58.7 22.8 L58.7 22.8 L58.7 22.8 L58.6 22.9 L58.6 22.9 L58.6 23 L58.6 23 L58.4 23.4 L58.1 23.8 L57.9 24.3 L57.7 24.7 L57.5 25.1 L57.2 25.5 L57 25.9 L56.7 26.3 L56.5 26.7 L56.2 27.1 L56 27.4 L55.7 27.8 L55.4 28.2 L55.1 28.5 L54.8 28.9 L54.5 29.2 L54.1 29.6 L53.8 29.9 L53.5 30.2 L53.1 30.5 L52.7 30.8 L52.4 31.1 L52 31.4 L51.6 31.6 L51.2 31.9 L50.8 32.1 L50.3 32.3 L49.9 32.5 L49.5 32.6 L49.4 32.3 L49.4 32.1 L49.3 31.8 L49.3 31.5 L49.2 31.3 L49.2 31 L49.2 30.7 L49.1 30.4 L49.1 30.2 L49 29.9 L49 29.6 L48.9 29.4 L48.9 29.1 L48.8 28.8 L48.8 28.5 L48.8 28.3 L48.7 28 L48.7 27.7 L48.6 27.5 L48.6 27.2 L48.5 26.9 L48.5 26.6 L48.4 26.4 L48.4 26.1 L48.4 25.8 L48.3 25.5 L48.3 25.3 L48.2 25 L48.2 24.7 L48.1 24.4 L48 24.2 L47.8 23.9 L47.6 23.7 L47.4 23.5 L47.1 23.3 L46.9 23.2 L46.6 23.1 L46.3 23.1 L46 23 L45.7 23 L45.4 23 L45.1 23 L44.8 23 L44.5 23 L44.2 23 L43.9 23 L43.6 23.1 L43.3 23.1 L43 23.2 L42.7 23.3 L42.4 23.4 L42.1 23.5 L41.9 23.7 L41.6 23.9 L41.4 24 L41.1 24.2 L40.9 24.4 L40.7 24.7 L41.1 24.7 L41.4 24.8 L41.8 24.9 L42.1 25 L42.4 25.1 L42.7 25.3 L43 25.5 L43.3 25.7 L43.5 26 L43.6 26.4 L43.7 26.7 L43.7 27.1 L43.7 27.4 L43.7 27.8 L43.6 28.1 L43.5 28.5 L43.4 28.8 L43.3 29.1 L43.2 29.5 L43.1 29.8 L43.1 30.2 L43 30.5 L42.9 30.9 L42.8 31.2 L42.8 31.6 L42.7 31.9 L42.7 32.3 L42.6 32.6 L42.6 33 L42.1 32.8 L41.7 32.6 L41.2 32.4 L40.7 32.2 L40.3 32 L39.8 31.7 L39.4 31.5 L39 31.2 L38.6 30.9 L38.2 30.6 L37.8 30.3 L37.4 29.9 L37 29.6 L36.7 29.2 L36.3 28.9 L36 28.5 L35.6 28.1 L35.3 27.7 L35 27.3 L34.7 26.9 L34.4 26.5 L34.1 26.1 L33.8 25.7 L33.6 25.2 L33.3 24.8 L33.1 24.4 L32.8 23.9 L32.6 23.5 L32.4 23 L32.4 23 L32.3 22.9 L32.3 22.9 L32.3 22.8 L32.3 22.8 L32.2 22.8 L32.2 22.7 L32.2 22.7 L32.1 22.7 L32.1 22.6 L32.1 22.6 L32 22.6 L32 22.6 L31.9 22.5 L31.9 22.5 L31.9 22.5 L31.8 22.5 L31.8 22.5 L31.7 22.5 L31.7 22.4 L31.6 22.4 L31.6 22.4 L31.6 22.4 L31.5 22.4 L31.5 22.4 L31.4 22.4 L31.4 22.4 L31.3 22.4 L31.3 22.4 L31.2 22.4 L31.1 22.5 L31 22.5 L30.9 22.5 L30.8 22.5 L30.7 22.5 L30.7 22.5 L30.6 22.5 L30.5 22.6 L30.4 22.6 L30.3 22.6 L30.2 22.6 L30.1 22.6 L30 22.6 L29.9 22.6 L29.9 22.7 L29.8 22.7 L29.7 22.7 L29.6 22.7 L29.5 22.7 L29.4 22.7 L29.3 22.7 L29.2 22.8 L29.1 22.8 L29.1 22.8 L29 22.8 L28.9 22.8 L28.8 22.8 L28.7 22.8 L28.5 22.9 L28.3 22.9 L28.1 23 L28 23 L27.8 23.1 L27.6 23.2 L27.5 23.3 L27.3 23.4 L27.1 23.5 L27 23.6 L26.8 23.7 L26.7 23.8 L26.6 24 L26.4 24.1 L26.3 24.2 L26.2 24.4 L26.1 24.5 L26 24.7 L25.9 24.9 L25.8 25 L25.7 25.2 L25.6 25.4 L25.6 25.5 L25.5 25.7 L25.4 25.9 L25.3 26.1 L25.3 26.2 L25.2 26.4 L25.2 26.6 L24.8 27.9 L24.4 29.2 L24 30.5 L23.7 31.8 L23.3 33.1 L22.9 34.4 L22.5 35.7 L22.1 37 L21.8 38.3 L21.4 39.6 L21 40.9 L20.6 42.2 L20.2 43.5 L19.9 44.8 L19.5 46.1 L19.1 47.4 L18.7 48.7 L18.3 50 L18 51.3 L17.6 52.6 L17.2 53.9 L16.8 55.2 L16.5 56.5 L16.1 57.8 L15.7 59.1 L15.3 60.4 L14.9 61.7 L14.6 63 L14.2 64.3 L14.2 64.4 L14.1 64.4 L14.1 64.5 L14.1 64.6 L14.1 64.7 L14.2 64.8 L14.2 64.8 L14.2 64.9 L14.2 65 L14.3 65.1 L14.3 65.1 L14.3 65.2 L14.4 65.3 L14.5 65.3 L14.5 65.4 L14.6 65.4 L14.6 65.5 L14.7 65.5 L14.8 65.5 L14.9 65.6 L14.9 65.6 L15 65.6 L15.1 65.6 L15.2 65.6 L15.3 65.6 L15.4 65.6 L15.4 65.6 L15.5 65.6 L15.6 65.5 L15.8 65.4 L16.1 65.3 L16.3 65.2 L16.6 65.1 L16.8 65 L17 64.9 L17.3 64.8 L17.5 64.7 L17.8 64.6 L18 64.5 L18.3 64.4 L18.5 64.3 L18.7 64.2 L19 64.1 L19.2 64 L19.5 63.9 L19.7 63.8 L20 63.7 L20.2 63.6 L20.4 63.5 L20.7 63.4 L20.9 63.3 L21.2 63.2 L21.4 63.1 L21.7 63 L21.9 62.9 L22.1 62.8 L22.4 62.7 L22.6 62.6 L22.6 62.6 L22.7 62.6 L22.7 62.5 L22.7 62.5 L22.7 62.5 L22.7 62.5 L22.7 62.5 L22.7 62.5 L22.7 62.5 L22.8 62.5 L22.8 62.5 L22.8 62.5 L22.8 62.5 L22.8 62.5 L22.8 62.5 L22.8 62.4 L22.8 62.4 L22.9 62.4 L22.9 62.4 L22.9 62.4 L22.9 62.4 L22.9 62.4 L22.9 62.4 L22.9 62.4 L22.9 62.4 L23 62.4 L23 62.3 L23 62.3 L23 62.3 L23.5 61.7 L24.1 61.1 L24.7 60.5 L25.2 59.9 L25.8 59.3 L26.3 58.7 L26.9 58.1 L27.4 57.5 L28 56.9 L28.5 56.2 L29.1 55.6 L29.6 55 L30.2 54.4 L30.7 53.8 L31.3 53.2 L31.8 52.6 L32.4 52 L32.9 51.4 L33.5 50.7 L34 50.1 L34.5 49.5 L35.1 48.9 L35.6 48.3 L36.2 47.7 L36.8 47.1 L37.5 46.7 L38.3 46.4 L39.1 46.3 L39.9 46.3 L40 46.3 L40 46.3 L40.1 46.3 L40.1 46.3 L40.2 46.3 L40.2 46.3 L40.3 46.3 L40.4 46.4 L40.4 46.4 L40.5 46.4 L40.5 46.4 L40.6 46.5 L40.6 46.5 L40.6 46.5 L40.7 46.6 L40.7 46.6 L40.8 46.7 L40.8 46.7 L40.8 46.8 L40.9 46.8 L40.9 46.9 L40.9 46.9 L40.9 47 L40.9 47 L41 47.1 L41 47.1 L41 47.2 L41 47.3 L41 47.3 L41 51.7 L41 51.7 L41 51.8 L41 51.8 L41 51.8 L41 51.8 L41 51.9 L41 51.9 L41 51.9 L41 51.9 L41 52 L40.9 52 L40.9 52 L40.9 52 L40.9 52 L40.9 52.1 L40.9 52.1 L40.9 52.1 L40.9 52.1 L40.9 52.2 L40.9 52.2 L40.9 52.2 L40.8 52.2 L40.8 52.2 L40.8 52.3 L40.8 52.3 L40.8 52.3 L40.8 52.3 L40.8 52.3 L40.8 52.4 L40.6 52.5 L40.5 52.7 L40.4 52.9 L40.2 53 L40.1 53.2 L40 53.4 L39.9 53.5 L39.7 53.7 L39.6 53.9 L39.5 54 L39.3 54.2 L39.2 54.4 L39.1 54.5 L38.9 54.7 L38.8 54.9 L38.7 55 L38.6 55.2 L38.4 55.4 L38.3 55.5 L38.2 55.7 L38 55.9 L37.9 56 L37.8 56.2 L37.7 56.4 L37.5 56.5 L37.4 56.7 L37.3 56.9 L37.1 57 L37 57.2 L37 57.2 L37 57.3 L36.9 57.3 L36.9 57.3 L36.9 57.4 L36.9 57.4 L36.9 57.5 L36.8 57.5 L36.8 57.6 L36.8 57.6 L36.8 57.6 L36.8 57.7 L36.8 57.7 L36.8 57.8 L36.8 57.8 L36.8 57.9 L36.8 57.9 L36.8 58 L36.8 58 L36.8 58.1 L36.8 58.1 L36.8 58.2 L36.9 58.2 L36.9 58.2 L36.9 58.3 L36.9 58.3 L36.9 58.4 L37 58.4 L37 58.4 L37.8 59.5 L38.3 60.3 L38.6 60.6 L38.8 61 L39.4 61.7 L39.6 62.1 L39.9 62.4 L40.4 63.2 L40.7 63.5 L40.9 63.9 L41.5 64.6 L41.7 65 L42 65.3 L42.3 65.7 L43 66.8 L43.3 67.2 L43.8 67.9 L44.1 68.3 L44.6 69 L44.7 69 L44.7 69.1 L44.8 69.1 L44.8 69.2 L44.9 69.2 L44.9 69.3 L45 69.3 L45 69.3 L45.1 69.3 L45.2 69.4 L45.2 69.4 L45.3 69.4 L45.4 69.4 L45.4 69.4 L45.5 69.4 L45.6 69.4 L45.6 69.4 L45.7 69.4 L45.8 69.4 L45.8 69.3 L45.9 69.3 L46 69.3 L46 69.3 L46.1 69.2 L46.1 69.2 L46.2 69.1 L46.2 69.1 L46.3 69 L46.3 69 z" filter="url(#dropshadow)" fill-rule="nonzero" style="fill:white;" />
    </g>
</svg>