<?xml version="1.0" encoding="UTF-8" standalone="no"?>
<!DOCTYPE svg PUBLIC "-//W3C//DTD SVG 1.1//EN" "http://www.w3.org/Graphics/SVG/1.1/DTD/svg11.dtd">
<svg width="91" height="91" viewBox="0 0 91 91" version="1.1" xmlns="http://www.w3.org/2000/svg" xmlns:xlink="http://www.w3.org/1999/xlink" xml:space="preserve" xmlns:serif="http://www.serif.com/" style="fill-rule:evenodd;clip-rule:evenodd;stroke-linecap:round;stroke-linejoin:round;">
	<filter xmlns="http://www.w3.org/2000/svg" id="dropshadow" x="-0.2" width="300%" height="300%">
      <feGaussianBlur in="SourceAlpha" stdDeviation="2"/> 
      <feOffset dx="0" dy="0" result="offsetblur"/> 
      <feMerge> 
        <feMergeNode/>
        <feMergeNode in="SourceGraphic"/> 
      </feMerge>
    </filter>
    <g id="background" transform="matrix(0.821716,0,0,0.821716,-18.5673,-18.5778)">
        <path d="M42.458,35.478C47.445,31.3 53.622,27.688 60.578,25.4C67.534,23.112 75.268,22.15 82.867,22.817C86.666,23.151 90.432,23.892 94.06,25.008C97.688,26.123 101.178,27.613 104.381,29.347C110.788,32.814 116.048,37.255 120.395,42.458C124.742,47.661 128.177,53.625 130.453,60.547C131.591,64.008 132.439,67.709 132.888,71.475C133.337,75.242 133.386,79.074 133.046,82.872C132.706,86.67 131.976,90.433 130.865,94.06C129.754,97.687 128.262,101.178 126.527,104.381C123.058,110.789 118.617,116.048 113.415,120.395C108.212,124.742 102.248,128.177 95.326,130.453C91.865,131.591 88.165,132.439 84.398,132.888C80.632,133.337 76.799,133.386 73.001,133.046C69.203,132.706 65.44,131.976 61.813,130.865C58.186,129.754 54.696,128.262 51.492,126.527C45.085,123.058 39.826,118.617 35.478,113.415C31.131,108.212 27.694,102.247 25.421,95.326C24.284,91.866 23.438,88.166 22.985,84.398C22.532,80.63 22.472,76.792 22.818,72.994C23.512,65.397 25.833,57.957 29.321,51.519C32.808,45.08 37.461,39.643 42.458,35.478Z" style="fill:rgb(176,176,121);fill-rule:nonzero;"/>
    </g>
    <g id="icon" filter="url(#dropshadow)">
        <g transform="matrix(0.821716,0,0,0.821716,-18.5673,-18.5778)">
            <path d="M75.885,58.05C75.385,58.329 74.885,58.609 74.384,58.889C72.407,59.995 70.428,61.101 68.471,62.242C67.455,62.834 66.446,63.436 65.445,64.053C65.165,64.226 64.885,64.401 64.606,64.578C64.071,64.246 63.539,63.9 63.019,63.532C61.622,62.545 60.315,61.41 59.256,60.116C58.471,59.158 57.823,58.113 57.372,56.952C56.949,55.867 56.698,54.681 56.694,53.512C56.69,52.175 57.008,50.861 57.655,49.753C58.514,48.286 59.951,47.182 61.498,46.452C62.711,45.879 63.992,45.537 65.335,45.303C66.549,45.091 67.814,44.968 69.034,44.994C68.552,45.495 68.176,46.013 67.879,46.57C67.381,47.504 67.107,48.547 67.084,49.619C67.063,50.618 67.259,51.642 67.796,52.495C68.393,53.442 69.411,54.176 70.405,54.832C71.887,55.809 73.316,56.611 74.723,57.399C75.112,57.617 75.5,57.834 75.885,58.05Z" style="fill:white;fill-rule:nonzero;stroke:black;stroke-width:0.61px;" />
        </g>
        <g transform="matrix(0.821716,0,0,0.821716,-18.5673,-18.5778)">
            <path d="M68.616,77.395C69.909,76.598 71.497,75.702 72.904,74.909C76.197,73.054 78.496,71.769 80.841,70.466C83.351,69.072 85.913,67.657 88.807,66.018C90.136,65.265 91.535,64.465 92.854,63.532C94.251,62.545 95.559,61.41 96.618,60.116C97.402,59.158 98.05,58.113 98.502,56.952C98.924,55.867 99.175,54.681 99.179,53.512C99.183,52.175 98.865,50.861 98.218,49.753C97.359,48.286 95.922,47.182 94.375,46.452C93.162,45.879 91.881,45.537 90.538,45.303C89.324,45.091 88.059,44.968 86.839,44.994C87.321,45.495 87.697,46.013 87.994,46.57C88.492,47.504 88.766,48.547 88.789,49.619C88.811,50.618 88.615,51.642 88.077,52.495C87.48,53.442 86.462,54.176 85.468,54.832C83.986,55.809 82.557,56.611 81.15,57.399C78.628,58.812 76.176,60.18 73.726,61.555C71.295,62.919 68.865,64.291 66.368,65.839C64.661,66.898 62.922,68.038 61.354,69.366C60.017,70.498 58.804,71.766 58,73.263C57.332,74.507 56.946,75.909 56.806,77.343C56.671,78.732 56.768,80.15 57.216,81.44C57.619,82.599 58.307,83.654 59.044,84.613C60.381,86.354 61.878,87.778 64.15,89.169C64.163,89.162 64.176,89.155 64.19,89.147C65.899,88.196 67.63,87.282 69.353,86.357C71.077,85.431 72.794,84.494 74.514,83.561C74.818,83.396 75.122,83.231 75.427,83.066C74.052,82.3 73.06,81.7 72.09,81.065C71.486,80.67 70.891,80.261 70.299,79.847C69.706,79.433 69.118,79.014 68.57,78.542C68.483,78.467 68.398,78.391 68.344,78.295C68.291,78.198 68.27,78.081 68.278,77.965C68.293,77.734 68.422,77.509 68.616,77.395Z" style="fill:white;fill-rule:nonzero;stroke:black;stroke-width:0.61px;"/>
        </g>
        <g transform="matrix(0.821716,0,0,0.821716,-18.5673,-18.5778)">
            <path d="M87.257,78.478C85.964,79.275 84.376,80.171 82.969,80.964C79.676,82.819 77.377,84.104 75.032,85.407C72.522,86.801 69.96,88.216 67.067,89.855C65.737,90.608 64.338,91.409 63.019,92.341C61.622,93.328 60.315,94.463 59.256,95.757C58.471,96.715 57.823,97.761 57.372,98.921C56.949,100.006 56.698,101.192 56.694,102.362C56.69,103.698 57.008,105.012 57.655,106.12C58.514,107.587 59.951,108.692 61.498,109.422C62.711,109.994 63.992,110.336 65.335,110.57C66.549,110.782 67.814,110.905 69.034,110.879C68.552,110.378 68.176,109.86 67.879,109.304C67.381,108.369 67.107,107.327 67.084,106.254C67.063,105.256 67.259,104.231 67.796,103.378C68.393,102.431 69.411,101.697 70.405,101.041C71.887,100.065 73.316,99.262 74.723,98.474C77.245,97.062 79.697,95.694 82.147,94.319C84.579,92.954 87.008,91.582 89.505,90.034C91.212,88.976 92.951,87.835 94.519,86.507C95.856,85.375 97.069,84.107 97.873,82.61C98.541,81.366 98.927,79.964 99.067,78.531C99.202,77.142 99.106,75.723 98.657,74.434C98.254,73.274 97.566,72.219 96.83,71.261C95.492,69.519 93.995,68.095 91.724,66.704C91.71,66.711 91.697,66.719 91.683,66.726C89.974,67.677 88.244,68.591 86.52,69.517C84.796,70.442 83.079,71.379 81.359,72.312C81.055,72.478 80.751,72.642 80.447,72.808C81.821,73.573 82.813,74.173 83.783,74.808C84.387,75.203 84.982,75.612 85.575,76.026C86.167,76.44 86.756,76.859 87.303,77.331C87.39,77.406 87.476,77.482 87.529,77.579C87.582,77.675 87.603,77.792 87.595,77.908C87.58,78.139 87.451,78.364 87.257,78.478Z" style="fill:white;fill-rule:nonzero;stroke:black;stroke-width:0.61px;"/>
        </g>
        <g transform="matrix(0.821716,0,0,0.821716,-18.5673,-18.5778)">
            <path d="M91.267,91.296C91.803,91.627 92.334,91.974 92.854,92.341C94.251,93.328 95.559,94.463 96.618,95.757C97.402,96.715 98.05,97.761 98.502,98.921C98.924,100.006 99.175,101.192 99.179,102.362C99.183,103.698 98.865,105.012 98.218,106.12C97.359,107.587 95.922,108.692 94.375,109.422C93.162,109.994 91.881,110.336 90.538,110.57C89.324,110.782 88.059,110.905 86.839,110.879C87.321,110.378 87.697,109.86 87.994,109.304C88.492,108.369 88.766,107.327 88.789,106.254C88.811,105.256 88.615,104.231 88.077,103.378C87.48,102.431 86.462,101.697 85.468,101.041C83.986,100.065 82.557,99.262 81.15,98.474C80.761,98.256 80.374,98.04 79.988,97.824C80.488,97.544 80.988,97.264 81.489,96.984C83.467,95.879 85.445,94.772 87.402,93.631C88.418,93.039 89.428,92.437 90.428,91.82C90.709,91.647 90.989,91.472 91.267,91.296Z" style="fill:white;fill-rule:nonzero;stroke:black;stroke-width:0.61px;"/>
        </g>
        <g transform="matrix(0.821716,0,0,0.821716,-18.5673,-18.5778)">
            <path d="M83.295,111.912C83.345,113.16 82.729,114.671 81.726,115.701C80.723,116.732 79.333,117.282 77.937,117.271C76.54,117.26 75.138,116.688 74.147,115.701C73.157,114.715 72.578,113.314 72.578,111.912C72.578,110.511 73.157,109.11 74.147,108.123C75.138,107.136 76.54,106.564 77.937,106.554C79.333,106.543 80.723,107.092 81.726,108.123C82.729,109.154 83.345,110.665 83.295,111.912Z" style="fill:white;fill-rule:nonzero;stroke:black;stroke-width:0.61px;"/>
        </g>
        <g transform="matrix(0.821716,0,0,0.821716,-18.5673,-18.5778)">
            <circle cx="77.937" cy="43.961" r="5.359" style="fill:white;stroke:black;stroke-width:0.61px;"/>
        </g>
    </g>
</svg>
