<?xml version="1.0" encoding="UTF-8" standalone="no"?>
<!DOCTYPE svg PUBLIC "-//W3C//DTD SVG 1.1//EN" "http://www.w3.org/Graphics/SVG/1.1/DTD/svg11.dtd">
<svg width="91" height="91" viewBox="0 0 91 91" version="1.1" xmlns="http://www.w3.org/2000/svg" xmlns:xlink="http://www.w3.org/1999/xlink" xml:space="preserve" xmlns:serif="http://www.serif.com/" style="fill-rule:evenodd;clip-rule:evenodd;stroke-linejoin:round;stroke-miterlimit:2;">
	<filter xmlns="http://www.w3.org/2000/svg" id="dropshadow" height="150%">
      <feGaussianBlur in="SourceAlpha" stdDeviation="2"/> 
      <feOffset dx="0" dy="0" result="offsetblur"/> 
      <feMerge> 
        <feMergeNode/>
        <feMergeNode in="SourceGraphic"/> 
      </feMerge>
    </filter>
    <g transform="matrix(1,0,0,1,-57.3646,-122.249)">
        <g transform="matrix(1,0,0,1,9,26)">
            <g id="icon_bene">
                <path d="M55.789,166.621C54.159,164.131 52.775,161.48 51.662,158.72C50.549,155.96 49.709,153.09 49.156,150.166C48.603,147.242 48.338,144.263 48.367,141.287C48.395,138.311 48.716,135.338 49.325,132.425C49.933,129.512 50.828,126.659 51.993,123.92C53.158,121.181 54.593,118.558 56.27,116.099C57.947,113.64 59.866,111.347 61.99,109.263C64.115,107.179 66.444,105.303 68.934,103.674C71.424,102.044 74.075,100.659 76.835,99.547C79.595,98.434 82.465,97.593 85.389,97.041C88.314,96.488 91.292,96.223 94.268,96.251C97.244,96.28 100.217,96.601 103.13,97.209C106.044,97.818 108.897,98.713 111.635,99.878C114.374,101.043 116.998,102.478 119.456,104.155C121.915,105.832 124.208,107.751 126.293,109.875C128.377,111.999 130.252,114.329 131.882,116.819C133.512,119.309 134.896,121.96 136.009,124.72C137.121,127.48 137.962,130.35 138.515,133.274C139.068,136.198 139.332,139.177 139.304,142.153C139.276,145.129 138.954,148.102 138.346,151.015C137.738,153.928 136.842,156.782 135.677,159.52C134.512,162.259 133.078,164.882 131.401,167.341C129.724,169.8 127.805,172.093 125.68,174.177C123.556,176.262 121.227,178.137 118.737,179.766C116.246,181.396 113.596,182.781 110.836,183.893C108.075,185.006 105.206,185.847 102.281,186.399C99.357,186.952 96.378,187.217 93.403,187.189C90.427,187.16 87.454,186.839 84.54,186.231C81.627,185.622 78.774,184.727 76.035,183.562C73.297,182.397 70.673,180.962 68.214,179.285C65.756,177.609 63.462,175.69 61.378,173.565C59.294,171.441 57.419,169.111 55.789,166.621Z" style="fill:rgb(51,90,135);fill-rule:nonzero;"/>
				<g id="icon_bene_wit" filter="url(#dropshadow)" stroke="black" stroke-width="0.5">
					<path d="M67.794,141.72C67.794,143.424 67.962,145.129 68.294,146.801C68.627,148.472 69.124,150.111 69.776,151.686C70.428,153.26 71.236,154.771 72.183,156.188C73.13,157.605 74.216,158.929 75.421,160.134C76.626,161.339 77.95,162.426 79.367,163.373C80.785,164.32 82.295,165.127 83.87,165.779C85.444,166.432 87.083,166.929 88.755,167.261C90.427,167.594 92.131,167.762 93.835,167.762C95.54,167.762 97.244,167.594 98.916,167.261C100.588,166.929 102.226,166.432 103.801,165.779C105.376,165.127 106.886,164.32 108.303,163.373C109.721,162.426 111.044,161.339 112.25,160.134C113.455,158.929 114.541,157.605 115.488,156.188C116.435,154.771 117.242,153.26 117.895,151.686C118.547,150.111 119.044,148.472 119.377,146.801C119.709,145.129 119.877,143.424 119.877,141.72C119.877,140.016 119.709,138.311 119.377,136.64C119.044,134.968 118.547,133.329 117.895,131.754C117.242,130.18 116.435,128.669 115.488,127.252C114.541,125.835 113.455,124.511 112.25,123.306C111.044,122.101 109.721,121.014 108.303,120.067C106.886,119.12 105.376,118.313 103.801,117.661C102.226,117.009 100.588,116.511 98.916,116.179C97.244,115.846 95.54,115.678 93.835,115.678C92.131,115.678 90.427,115.846 88.755,116.179C87.083,116.511 85.444,117.009 83.87,117.661C82.295,118.313 80.785,119.12 79.367,120.067C77.95,121.014 76.626,122.101 75.421,123.306C74.216,124.511 73.13,125.835 72.183,127.252C71.236,128.669 70.428,130.18 69.776,131.754C69.124,133.329 68.627,134.968 68.294,136.64C67.962,138.311 67.794,140.016 67.794,141.72ZM93.874,118.019C93.848,118.018 93.823,118.018 93.797,118.019C93.772,118.02 93.746,118.022 93.721,118.025C93.695,118.028 93.67,118.031 93.645,118.036C93.62,118.041 93.595,118.046 93.57,118.053C93.546,118.059 93.521,118.067 93.497,118.075C93.473,118.083 93.449,118.092 93.425,118.102C93.402,118.112 93.379,118.123 93.356,118.135C93.333,118.147 93.311,118.159 93.289,118.173C93.268,118.186 93.246,118.2 93.226,118.215C93.205,118.23 93.185,118.246 93.165,118.262C93.146,118.279 93.127,118.296 93.108,118.313C93.09,118.331 93.072,118.35 93.055,118.369C93.038,118.388 93.022,118.408 93.007,118.428C92.991,118.448 92.976,118.469 92.962,118.49C92.948,118.512 92.934,118.537 92.923,118.556C92.914,118.571 92.906,118.587 92.897,118.603L92.845,118.696L92.794,118.789L92.742,118.883C92.734,118.898 92.725,118.914 92.717,118.93C92.708,118.945 92.7,118.961 92.691,118.976L92.64,119.07L92.589,119.164L92.537,119.257L92.486,119.351L92.435,119.445L92.385,119.538L92.334,119.632C92.325,119.648 92.317,119.663 92.308,119.679L92.258,119.773L92.207,119.867C92.199,119.883 92.182,119.914 92.182,119.914C90.645,120.031 89.121,120.31 87.642,120.747C86.164,121.183 84.732,121.777 83.379,122.513C82.025,123.25 80.749,124.131 79.581,125.136C78.412,126.14 77.349,127.269 76.418,128.497C75.486,129.724 74.684,131.051 74.03,132.447C73.377,133.843 72.871,135.308 72.525,136.81C72.179,138.312 71.992,139.85 71.969,141.392C71.946,142.933 72.086,144.476 72.387,145.988C72.688,147.5 73.149,148.979 73.761,150.394C74.372,151.809 75.133,153.159 76.028,154.414C76.923,155.669 77.951,156.829 79.089,157.869C80.227,158.908 81.475,159.827 82.806,160.604C84.137,161.381 85.551,162.017 87.015,162.498C88.48,162.979 89.995,163.304 91.528,163.467C93.06,163.629 94.61,163.629 96.143,163.467C97.676,163.304 99.191,162.979 100.656,162.498C102.12,162.017 103.533,161.381 104.864,160.604C106.195,159.827 107.444,158.908 108.582,157.869C109.72,156.829 110.748,155.669 111.643,154.414C112.537,153.159 113.299,151.809 113.91,150.394C114.522,148.979 114.983,147.5 115.284,145.988C115.584,144.476 115.725,142.933 115.702,141.392C115.678,139.85 115.492,138.312 115.146,136.81C114.799,135.308 114.294,133.843 113.641,132.447C112.987,131.051 112.185,129.724 111.253,128.497C110.321,127.269 109.259,126.14 108.09,125.136C106.921,124.131 105.646,123.25 104.292,122.513C102.939,121.777 101.507,121.183 100.028,120.747C98.55,120.31 97.026,120.031 95.489,119.914C95.489,119.914 95.472,119.883 95.464,119.867L95.413,119.773L95.362,119.679L95.312,119.585L95.235,119.445L95.184,119.351L95.133,119.257L95.082,119.164L95.031,119.07L94.98,118.976L94.928,118.883L94.877,118.789L94.825,118.696L94.774,118.603C94.765,118.587 94.757,118.571 94.748,118.556C94.737,118.537 94.722,118.512 94.708,118.49C94.694,118.469 94.68,118.448 94.664,118.428C94.649,118.408 94.632,118.388 94.615,118.369C94.598,118.35 94.581,118.331 94.562,118.313C94.544,118.296 94.525,118.279 94.506,118.262C94.486,118.246 94.466,118.23 94.445,118.215C94.424,118.2 94.403,118.186 94.381,118.173C94.36,118.159 94.337,118.147 94.315,118.135C94.292,118.123 94.269,118.112 94.245,118.102C94.222,118.092 94.198,118.083 94.174,118.075C94.15,118.067 94.125,118.059 94.101,118.053C94.076,118.046 94.051,118.041 94.026,118.036C94.001,118.031 93.975,118.028 93.95,118.025C93.925,118.022 93.899,118.02 93.874,118.019Z" style="fill:white;" />
					<path d="M93.835,121.247C93.835,121.247 93.549,121.788 93.407,122.06C93.265,122.332 93.125,122.604 92.986,122.877C92.846,123.149 92.708,123.423 92.572,123.697C92.435,123.971 92.299,124.246 92.165,124.521C92.031,124.796 91.898,125.072 91.766,125.349C91.634,125.625 91.504,125.903 91.375,126.18C91.246,126.458 91.119,126.737 90.992,127.016C90.866,127.295 90.742,127.575 90.618,127.855C90.495,128.135 90.373,128.416 90.253,128.698C90.132,128.98 90.014,129.262 89.896,129.545C89.779,129.828 89.663,130.112 89.55,130.396C89.436,130.68 89.323,130.965 89.213,131.251C89.102,131.537 88.993,131.823 88.886,132.11C88.779,132.397 88.674,132.685 88.571,132.973C88.468,133.261 88.366,133.55 88.267,133.84C88.168,134.13 88.07,134.42 87.975,134.711C87.88,135.003 87.787,135.294 87.695,135.587C87.604,135.879 87.515,136.172 87.428,136.466C87.34,136.759 87.255,137.054 87.171,137.348C87.088,137.643 87.004,137.938 86.925,138.234C86.846,138.529 86.764,138.825 86.697,139.124C86.63,139.422 86.567,139.723 86.522,140.025C86.477,140.328 86.443,140.634 86.426,140.939C86.409,141.244 86.405,141.552 86.417,141.857C86.43,142.163 86.457,142.47 86.499,142.772C86.541,143.075 86.598,143.378 86.67,143.675C86.742,143.972 86.828,144.267 86.931,144.556C87.033,144.844 87.15,145.128 87.283,145.404C87.417,145.679 87.605,146.008 87.73,146.206C87.818,146.344 87.928,146.466 88.033,146.591C88.138,146.716 88.247,146.837 88.36,146.955C88.472,147.073 88.589,147.188 88.709,147.298C88.829,147.408 88.953,147.515 89.08,147.617C89.207,147.72 89.338,147.818 89.471,147.912C89.604,148.006 89.741,148.096 89.88,148.181C90.019,148.266 90.161,148.347 90.305,148.423C90.45,148.499 90.597,148.57 90.746,148.637C90.895,148.704 91.046,148.765 91.199,148.822C91.352,148.879 91.507,148.931 91.663,148.978C91.819,149.024 91.977,149.066 92.136,149.103C92.295,149.139 92.456,149.171 92.617,149.197C92.778,149.223 92.94,149.244 93.102,149.26C93.264,149.276 93.428,149.287 93.591,149.292C93.754,149.297 93.917,149.297 94.08,149.292C94.243,149.287 94.406,149.276 94.569,149.26C94.731,149.244 94.893,149.223 95.054,149.197C95.215,149.171 95.376,149.139 95.534,149.103C95.693,149.066 95.851,149.024 96.008,148.978C96.164,148.931 96.319,148.879 96.472,148.822C96.625,148.765 96.776,148.704 96.925,148.637C97.074,148.57 97.221,148.499 97.365,148.423C97.51,148.347 97.652,148.266 97.791,148.181C97.93,148.096 98.067,148.006 98.2,147.912C98.333,147.818 98.464,147.72 98.591,147.617C98.718,147.515 98.842,147.408 98.962,147.298C99.082,147.188 99.199,147.073 99.311,146.955C99.424,146.837 99.533,146.716 99.638,146.591C99.743,146.466 99.853,146.344 99.94,146.206C100.065,146.008 100.254,145.678 100.387,145.403C100.521,145.128 100.638,144.843 100.74,144.555C100.842,144.267 100.929,143.972 101.001,143.675C101.073,143.378 101.131,143.075 101.173,142.772C101.215,142.47 101.241,142.163 101.253,141.857C101.265,141.552 101.262,141.244 101.244,140.939C101.227,140.634 101.194,140.328 101.149,140.025C101.104,139.723 101.041,139.422 100.974,139.124C100.907,138.825 100.825,138.529 100.746,138.233C100.667,137.938 100.583,137.643 100.499,137.348C100.416,137.054 100.33,136.759 100.243,136.466C100.156,136.172 100.067,135.879 99.975,135.587C99.884,135.294 99.791,135.002 99.696,134.711C99.601,134.42 99.503,134.13 99.404,133.84C99.304,133.55 99.203,133.261 99.1,132.973C98.997,132.685 98.891,132.397 98.784,132.11C98.678,131.823 98.569,131.537 98.458,131.251C98.348,130.965 98.235,130.68 98.121,130.396C98.007,130.112 97.892,129.828 97.774,129.545C97.657,129.262 97.538,128.98 97.418,128.698C97.298,128.416 97.176,128.135 97.052,127.855C96.929,127.575 96.804,127.295 96.678,127.016C96.552,126.737 96.425,126.458 96.296,126.18C96.167,125.903 96.036,125.625 95.905,125.349C95.773,125.072 95.64,124.796 95.506,124.521C95.372,124.246 95.236,123.971 95.099,123.697C94.962,123.423 94.824,123.149 94.685,122.877C94.546,122.604 94.405,122.332 94.264,122.06C94.122,121.788 93.835,121.247 93.835,121.247Z" style="fill:white;fill-rule:nonzero;"/>
					<path d="M87.567,129.733C87.567,129.733 86.133,130.57 85.486,131.078C84.839,131.585 84.228,132.162 83.685,132.779C83.141,133.396 82.646,134.075 82.224,134.781C81.802,135.487 81.439,136.244 81.153,137.015C80.867,137.786 80.648,138.597 80.508,139.407C80.367,140.218 80.3,141.055 80.31,141.877C80.319,142.7 80.406,143.535 80.565,144.342C80.724,145.148 80.962,145.954 81.266,146.718C81.57,147.483 81.95,148.231 82.388,148.927C82.827,149.623 83.337,150.29 83.895,150.894C84.453,151.499 85.077,152.061 85.735,152.554C86.394,153.046 87.11,153.485 87.847,153.849C88.585,154.213 89.369,154.515 90.16,154.738C90.952,154.961 91.777,155.115 92.596,155.19C93.415,155.265 94.255,155.265 95.074,155.19C95.893,155.115 96.719,154.961 97.51,154.738C98.302,154.515 99.086,154.213 99.823,153.849C100.561,153.485 101.277,153.046 101.935,152.554C102.594,152.061 103.218,151.499 103.776,150.894C104.333,150.29 104.844,149.623 105.282,148.927C105.72,148.231 106.101,147.483 106.405,146.718C106.709,145.954 106.946,145.148 107.106,144.342C107.265,143.535 107.352,142.7 107.361,141.877C107.371,141.055 107.304,140.218 107.163,139.407C107.022,138.597 106.804,137.786 106.518,137.015C106.231,136.244 105.868,135.487 105.447,134.781C105.025,134.075 104.53,133.396 103.986,132.779C103.442,132.162 102.832,131.585 102.185,131.078C101.538,130.57 100.104,129.733 100.104,129.733C100.104,129.733 100.184,129.935 100.223,130.036C100.263,130.137 100.303,130.238 100.342,130.339C100.381,130.44 100.421,130.541 100.46,130.642C100.498,130.744 100.537,130.845 100.576,130.946C100.614,131.048 100.652,131.149 100.691,131.251C100.729,131.353 100.766,131.454 100.804,131.556C100.842,131.658 100.879,131.76 100.916,131.862C100.954,131.964 100.991,132.066 101.027,132.168C101.064,132.27 101.101,132.372 101.137,132.474C101.173,132.576 101.209,132.679 101.245,132.781C101.281,132.884 101.317,132.986 101.352,133.089C101.387,133.191 101.422,133.294 101.457,133.397C101.492,133.499 101.527,133.602 101.561,133.705C101.596,133.808 101.63,133.911 101.664,134.014C101.698,134.117 101.731,134.22 101.765,134.323C101.798,134.427 101.831,134.53 101.864,134.633C101.897,134.737 101.93,134.84 101.963,134.944C101.995,135.047 102.027,135.151 102.059,135.255C102.091,135.358 102.123,135.462 102.154,135.566C102.186,135.67 102.217,135.774 102.248,135.878C102.278,135.982 102.309,136.086 102.339,136.19C102.37,136.294 102.4,136.398 102.43,136.503C102.46,136.607 102.489,136.711 102.518,136.816C102.548,136.92 102.577,137.025 102.605,137.13C102.634,137.234 102.663,137.339 102.691,137.444C102.719,137.548 102.747,137.653 102.774,137.758C102.802,137.863 102.829,137.968 102.856,138.073C102.883,138.178 102.91,138.283 102.937,138.389C102.963,138.494 102.99,138.601 103.015,138.705C103.039,138.805 103.063,138.906 103.085,139.008C103.107,139.109 103.128,139.211 103.147,139.313C103.166,139.415 103.184,139.517 103.201,139.62C103.217,139.722 103.232,139.825 103.246,139.928C103.26,140.031 103.272,140.134 103.283,140.237C103.294,140.34 103.303,140.444 103.312,140.547C103.32,140.65 103.327,140.754 103.332,140.858C103.338,140.961 103.342,141.065 103.345,141.169C103.347,141.273 103.348,141.376 103.348,141.48C103.348,141.584 103.347,141.688 103.344,141.792C103.341,141.895 103.337,141.999 103.332,142.103C103.326,142.206 103.319,142.31 103.311,142.413C103.302,142.517 103.292,142.62 103.281,142.723C103.27,142.826 103.258,142.929 103.244,143.032C103.23,143.135 103.214,143.238 103.198,143.34C103.181,143.443 103.163,143.545 103.143,143.647C103.124,143.749 103.103,143.85 103.08,143.952C103.058,144.053 103.034,144.154 103.009,144.255C102.984,144.355 102.957,144.456 102.929,144.556C102.901,144.656 102.872,144.755 102.841,144.854C102.81,144.953 102.778,145.052 102.744,145.15C102.711,145.248 102.675,145.346 102.639,145.443C102.602,145.54 102.564,145.637 102.525,145.733C102.486,145.829 102.445,145.925 102.403,146.019C102.36,146.114 102.317,146.208 102.272,146.302C102.226,146.395 102.18,146.488 102.132,146.58C102.084,146.672 102.035,146.763 101.984,146.854C101.933,146.944 101.881,147.034 101.827,147.123C101.773,147.212 101.722,147.303 101.661,147.387C101.57,147.514 101.41,147.723 101.276,147.884C101.142,148.045 101.003,148.203 100.859,148.355C100.715,148.507 100.566,148.655 100.413,148.798C100.259,148.941 100.101,149.078 99.938,149.211C99.776,149.343 99.609,149.47 99.438,149.592C99.267,149.714 99.092,149.83 98.914,149.94C98.736,150.05 98.553,150.155 98.368,150.253C98.183,150.351 97.995,150.444 97.804,150.53C97.613,150.616 97.418,150.696 97.222,150.769C97.026,150.843 96.827,150.91 96.626,150.97C96.425,151.031 96.222,151.085 96.018,151.132C95.814,151.18 95.608,151.221 95.401,151.255C95.194,151.288 94.986,151.316 94.778,151.336C94.569,151.357 94.359,151.37 94.15,151.377C93.94,151.384 93.73,151.384 93.521,151.377C93.311,151.37 93.102,151.357 92.893,151.336C92.685,151.316 92.476,151.288 92.27,151.255C92.063,151.221 91.857,151.18 91.653,151.132C91.448,151.085 91.245,151.031 91.045,150.97C90.844,150.91 90.645,150.843 90.449,150.769C90.253,150.696 90.058,150.616 89.867,150.53C89.676,150.444 89.487,150.351 89.302,150.253C89.117,150.155 88.935,150.05 88.757,149.94C88.579,149.83 88.403,149.714 88.233,149.592C88.062,149.47 87.895,149.343 87.732,149.211C87.57,149.078 87.412,148.941 87.258,148.798C87.104,148.655 86.955,148.507 86.811,148.355C86.668,148.203 86.528,148.045 86.395,147.884C86.261,147.723 86.101,147.514 86.009,147.387C85.948,147.303 85.898,147.212 85.844,147.123C85.79,147.034 85.738,146.944 85.687,146.854C85.636,146.763 85.587,146.672 85.539,146.58C85.491,146.488 85.444,146.395 85.399,146.302C85.354,146.208 85.31,146.114 85.268,146.019C85.226,145.925 85.185,145.829 85.146,145.733C85.106,145.637 85.068,145.54 85.032,145.443C84.995,145.346 84.96,145.248 84.927,145.15C84.893,145.052 84.861,144.953 84.83,144.854C84.799,144.755 84.769,144.656 84.741,144.556C84.713,144.456 84.687,144.355 84.662,144.255C84.637,144.154 84.613,144.053 84.59,143.952C84.568,143.85 84.547,143.749 84.528,143.647C84.508,143.545 84.49,143.443 84.473,143.34C84.456,143.238 84.441,143.135 84.427,143.032C84.413,142.929 84.401,142.826 84.389,142.723C84.378,142.62 84.369,142.517 84.36,142.413C84.352,142.31 84.345,142.206 84.339,142.103C84.334,141.999 84.329,141.895 84.327,141.792C84.324,141.688 84.322,141.584 84.322,141.48C84.322,141.376 84.324,141.273 84.326,141.169C84.329,141.065 84.333,140.961 84.339,140.858C84.344,140.754 84.351,140.65 84.359,140.547C84.367,140.444 84.377,140.34 84.388,140.237C84.399,140.134 84.411,140.031 84.425,139.928C84.439,139.825 84.454,139.722 84.47,139.62C84.487,139.517 84.505,139.415 84.524,139.313C84.543,139.211 84.564,139.109 84.586,139.008C84.608,138.906 84.632,138.805 84.656,138.705C84.681,138.601 84.708,138.494 84.734,138.389C84.761,138.283 84.787,138.178 84.814,138.073C84.841,137.968 84.869,137.863 84.896,137.758C84.924,137.653 84.952,137.548 84.98,137.444C85.008,137.339 85.037,137.234 85.065,137.13C85.094,137.025 85.123,136.92 85.152,136.816C85.182,136.711 85.211,136.607 85.241,136.503C85.271,136.398 85.301,136.294 85.331,136.19C85.362,136.086 85.392,135.982 85.423,135.878C85.454,135.774 85.485,135.67 85.517,135.566C85.548,135.462 85.58,135.358 85.612,135.255C85.644,135.151 85.676,135.047 85.708,134.944C85.741,134.84 85.773,134.737 85.806,134.633C85.839,134.53 85.872,134.427 85.906,134.323C85.939,134.22 85.973,134.117 86.007,134.014C86.041,133.911 86.075,133.808 86.11,133.705C86.144,133.602 86.179,133.499 86.214,133.397C86.248,133.294 86.284,133.191 86.319,133.089C86.354,132.986 86.39,132.884 86.426,132.781C86.462,132.679 86.498,132.576 86.534,132.474C86.57,132.372 86.607,132.27 86.643,132.168C86.68,132.066 86.717,131.964 86.754,131.862C86.792,131.76 86.829,131.658 86.867,131.556C86.904,131.454 86.942,131.353 86.98,131.251C87.018,131.149 87.057,131.048 87.095,130.946C87.134,130.845 87.172,130.744 87.211,130.642C87.25,130.541 87.289,130.44 87.329,130.339C87.368,130.238 87.408,130.137 87.447,130.036C87.487,129.935 87.567,129.733 87.567,129.733Z" style="fill:white;fill-rule:nonzero;" />
					<path d="M98.942,126.965C98.942,126.965 100.82,127.721 101.686,128.224C102.552,128.728 103.384,129.327 104.137,129.988C104.89,130.649 105.591,131.396 106.203,132.19C106.814,132.983 107.358,133.852 107.806,134.748C108.253,135.645 108.62,136.602 108.886,137.568C109.153,138.533 109.329,139.543 109.404,140.542C109.48,141.541 109.458,142.566 109.34,143.561C109.222,144.556 109.003,145.557 108.696,146.511C108.388,147.464 107.981,148.405 107.496,149.281C107.01,150.158 106.43,151.002 105.785,151.769C105.14,152.536 104.407,153.253 103.627,153.881C102.847,154.509 101.99,155.072 101.103,155.538C100.217,156.005 99.268,156.392 98.308,156.679C97.348,156.966 96.342,157.163 95.345,157.26C94.348,157.357 93.323,157.357 92.326,157.26C91.329,157.163 90.323,156.966 89.363,156.679C88.403,156.392 87.454,156.005 86.567,155.538C85.681,155.072 84.824,154.509 84.044,153.881C83.263,153.253 82.531,152.536 81.886,151.769C81.241,151.002 80.66,150.158 80.175,149.281C79.69,148.405 79.283,147.464 78.975,146.511C78.668,145.557 78.449,144.556 78.331,143.561C78.213,142.566 78.191,141.541 78.267,140.542C78.342,139.543 78.518,138.533 78.784,137.568C79.051,136.602 79.418,135.645 79.865,134.748C80.312,133.852 80.857,132.983 81.468,132.19C82.08,131.396 82.781,130.649 83.534,129.988C84.286,129.327 85.119,128.728 85.984,128.224C86.85,127.721 88.729,126.965 88.729,126.965C88.729,126.965 88.778,126.853 88.803,126.797C88.828,126.741 88.853,126.684 88.878,126.628C88.903,126.572 88.928,126.516 88.953,126.46C88.978,126.404 89.004,126.348 89.029,126.292C89.054,126.236 89.079,126.18 89.105,126.124C89.13,126.068 89.155,126.012 89.181,125.956C89.206,125.9 89.232,125.844 89.257,125.788C89.283,125.732 89.309,125.676 89.334,125.62C89.36,125.564 89.386,125.509 89.412,125.453C89.437,125.397 89.463,125.341 89.489,125.285C89.515,125.23 89.541,125.174 89.567,125.118C89.593,125.063 89.619,125.007 89.645,124.951C89.671,124.896 89.697,124.84 89.724,124.784C89.75,124.729 89.776,124.673 89.802,124.618C89.829,124.562 89.855,124.507 89.882,124.451C89.908,124.396 89.934,124.34 89.961,124.285C89.988,124.229 90.014,124.174 90.041,124.118C90.067,124.063 90.094,124.008 90.121,123.952C90.148,123.897 90.174,123.842 90.201,123.786C90.228,123.731 90.255,123.676 90.282,123.621C90.309,123.565 90.336,123.51 90.363,123.455C90.39,123.4 90.417,123.345 90.444,123.289C90.471,123.234 90.499,123.179 90.526,123.124C90.553,123.069 90.58,123.014 90.608,122.959C90.635,122.904 90.662,122.849 90.69,122.794C90.717,122.739 90.745,122.684 90.772,122.629C90.8,122.574 90.827,122.519 90.855,122.464C90.883,122.409 90.91,122.354 90.938,122.299C90.966,122.245 91.022,122.135 91.022,122.135C91.022,122.135 90.019,122.332 88.947,122.593C88.266,122.758 87.558,122.949 87.06,123.13C85.778,123.597 84.545,124.197 83.387,124.918C82.228,125.638 81.145,126.479 80.159,127.421C79.173,128.364 78.285,129.409 77.514,130.535C76.743,131.66 76.089,132.865 75.565,134.124C75.042,135.384 74.649,136.698 74.395,138.038C74.141,139.378 74.026,140.745 74.053,142.109C74.08,143.472 74.248,144.833 74.554,146.163C74.861,147.492 75.305,148.789 75.878,150.027C76.45,151.265 77.151,152.444 77.966,153.538C78.781,154.632 79.709,155.641 80.731,156.545C81.753,157.448 82.869,158.246 84.055,158.92C85.24,159.594 86.496,160.145 87.795,160.562C89.094,160.978 90.436,161.26 91.793,161.401C93.15,161.541 94.521,161.541 95.878,161.401C97.235,161.26 98.577,160.978 99.876,160.562C101.175,160.145 102.43,159.594 103.616,158.92C104.802,158.246 105.918,157.448 106.94,156.545C107.962,155.641 108.89,154.632 109.705,153.538C110.519,152.444 111.221,151.265 111.793,150.027C112.366,148.789 112.81,147.492 113.116,146.163C113.423,144.833 113.591,143.472 113.618,142.109C113.645,140.745 113.53,139.378 113.276,138.038C113.022,136.698 112.629,135.384 112.106,134.124C111.582,132.865 110.928,131.66 110.156,130.535C109.385,129.409 108.498,128.364 107.512,127.421C106.526,126.479 105.442,125.638 104.284,124.918C103.126,124.197 101.893,123.597 100.611,123.13C99.329,122.663 96.649,122.135 96.649,122.135C96.649,122.135 96.705,122.245 96.733,122.299C96.76,122.354 96.788,122.409 96.816,122.464C96.843,122.519 96.871,122.574 96.898,122.629C96.926,122.684 96.953,122.739 96.981,122.794C97.008,122.849 97.036,122.904 97.063,122.959C97.09,123.014 97.118,123.069 97.145,123.124C97.172,123.179 97.199,123.234 97.227,123.289C97.254,123.345 97.281,123.4 97.308,123.455C97.335,123.51 97.362,123.565 97.389,123.621C97.416,123.676 97.443,123.731 97.47,123.786C97.496,123.842 97.523,123.897 97.55,123.952C97.577,124.008 97.603,124.063 97.63,124.118C97.657,124.174 97.683,124.229 97.71,124.285C97.736,124.34 97.763,124.396 97.789,124.451C97.816,124.507 97.842,124.562 97.868,124.618C97.895,124.673 97.921,124.729 97.947,124.784C97.973,124.84 98,124.896 98.026,124.951C98.052,125.007 98.078,125.063 98.104,125.118C98.13,125.174 98.156,125.23 98.182,125.285C98.208,125.341 98.233,125.397 98.259,125.453C98.285,125.509 98.311,125.564 98.336,125.62C98.362,125.676 98.388,125.732 98.413,125.788C98.439,125.844 98.464,125.9 98.49,125.956C98.515,126.012 98.541,126.068 98.566,126.124C98.591,126.18 98.617,126.236 98.642,126.292C98.667,126.348 98.692,126.404 98.717,126.46C98.743,126.516 98.768,126.572 98.793,126.628C98.818,126.684 98.843,126.741 98.867,126.797C98.892,126.853 98.942,126.965 98.942,126.965Z" style="fill:white;fill-rule:nonzero;"/>
					</g>
            </g>
        </g>
    </g>
</svg>
