<?xml version="1.0" encoding="utf-8"?>
<!DOCTYPE svg PUBLIC "-//W3C//DTD SVG 1.1//EN" "http://www.w3.org/Graphics/SVG/1.1/DTD/svg11.dtd">
<svg version="1.1" xmlns="http://www.w3.org/2000/svg" xmlns:xlink="http://www.w3.org/1999/xlink" xmlns:xml="http://www.w3.org/XML/1998/namespace" xmlns:serif="http://www.serif.com/" width="204" height="204" viewBox="0, 0, 204, 204" xml:space="preserve" fill-rule="evenodd" stroke-linecap="round" stroke-linejoin="round" stroke-miterlimit="1.5" style="clip-rule:evenodd;">

	<circle cx="102.5" cy="102.5" r="100.4" stroke-width="2.49px" style="fill:url(#Radial);stroke:black;" />
    <circle cx="102.5" cy="102.5" r="69" stroke-width="6px" stroke-opacity="0.5" style="fill:none;stroke:white;" />
    <path d="M69.6 168.6 L66.6 168.6 L66.1 166.2 L62.9 167.3 L60.1 169.5 L47.2 169.3 L48.2 165.2 L50.9 163.5 L54.5 163.3 L57.2 160 L60.6 157 L60.6 154.4 L62.5 152.2 L65.6 146.2 L64.4 141.3 L68.2 130.3 L69.8 130.3 L73.1 131.9 L74.2 127.8 L74.1 125.9 L79.1 115.9 L77.5 115.1 L86.7 95.7 L89.1 93.7 L88.8 90.4 L86.3 89.9 L81.7 80.4 L75.6 91.6 L73.3 92.6 L65.8 90.4 L64.5 93.7 L62.8 93.7 L54.7 87.2 L52.8 85.6 L51.7 87.2 L48 86.4 L46.1 84.6 L46.1 79.6 L42.6 77.8 L42.5 75.8 L42.8 72.3 L38.8 70.7 L39 68.3 L37.7 66.2 L36.6 68.3 L30 65 L31.4 60.2 L37.4 62.1 L38.4 64 L39.9 64.5 L41.1 63.4 L57.1 69.6 L57.1 71.8 L58.3 72.6 L58 75.4 L55.6 75.4 L56.8 78.6 L58 79.2 L67.2 81 L67.6 81.8 L71.4 82.6 L71.7 81 L71.4 78.8 L73.6 75.1 L72.8 72.7 L75.5 66.4 L77.4 64.7 L83.4 62.4 L80.7 60.7 L82.8 57.2 L83.3 55.6 L81.8 55.1 C80.5 52.2 79.6 49.4 79 46.7 L79.3 42.9 L78.6 41.5 L78.5 39.3 L77.8 34 C81 31.2 85.7 31.3 90.4 31.3 L92.1 32.1 C95.6 34 98.1 36.7 99.4 40.1 L97.7 42.9 L94.8 45.9 L95.1 47.7 L96.4 48 L97.4 49.1 L102.1 50.2 L103.4 54.3 L108.5 54.3 L112.3 55.6 L116.7 58.3 L119.6 58.8 L122.9 62.9 L126.6 63.5 L127.5 64.5 L129.7 61.6 L128.9 60.5 L131.9 53.5 L133.2 51.8 L132.4 50.2 L130.4 51.2 L128 50.7 L126.4 48.3 L130.5 31 L131.8 31.3 L132.3 29.1 L130.7 28.3 L132.1 23.4 L133.4 23.1 L135.3 19.8 L135.9 23.7 L137.7 24.2 L137.2 29.8 L135.6 29.9 L135.6 32 L137 33.2 L136.9 37.2 L138.6 38.2 L139.1 40.7 L142.9 42.8 L143.1 44.2 L142.4 49.6 L139.1 54.2 L138.9 63.1 C145.9 62.4 153.9 60.5 162.6 57.7 C157.2 62 151.9 66.4 150.4 72.9 C144.6 73.8 139.2 73.5 134.3 70.5 L133.5 72.7 C149.6 78.5 162.7 89.2 177.3 97.5 C171.7 101.8 166 106 159.5 103.5 C134.5 105.3 142 119.4 134.8 130.2 L135.9 131.6 L139.7 131.9 L142.1 138.7 L142.3 141.3 L148 154.1 L151.1 157.8 L153.4 161.6 L156.5 164 L156.9 169 L149.1 169 L144.3 167.9 L141.9 167.6 L141 161.3 L141.6 158.1 L140 157 L138.4 153.2 L133.7 146.3 L131.9 146.8 L127.8 141.3 L128.9 138.3 L128.3 136.5 C115.7 139.2 109.3 145.6 99.1 148.4 L90.4 121.6 L81.3 131.1 L81 136.7 L82.8 138.4 L78 146.3 L74.7 146.2 L71.2 154.1 L71 156.5 L69.4 158.6 L71 160.8 L69.6 168.6 z" style="fill:#FFFFC9;" />
    <path d="M135.8 13.5 L136.4 13.6 L137 13.7 L137.5 13.9 L138.1 14.2 L138.6 14.5 L139.1 14.8 L139.5 15.2 L139.9 15.6 L140.3 16.1 L140.6 16.6 L140.9 17.1 L141.2 17.6 L141.3 18.2 L141.4 18.8 L141.5 19.3 L141.8 19.5 L142.2 20 L142.6 20.4 L142.9 20.9 L143.2 21.4 L143.5 21.9 L143.7 22.4 L143.8 23 L143.9 23.6 L143.9 24.2 L143.9 24.7 L143.4 30.3 L143.3 30.9 L143.2 31.4 L143.1 31.8 L143.1 31.8 L143.2 32.4 L143.3 32.9 L143.3 33.5 L143.2 34 L143.3 34.1 L143.7 34.5 L144 34.9 L144.2 35.4 L144.5 35.9 L144.6 36.5 L144.7 36.6 L145.9 37.3 L146.4 37.6 L146.9 37.9 L147.3 38.3 L147.7 38.8 L148.1 39.3 L148.4 39.8 L148.6 40.3 L148.9 40.9 L149 41.5 L149.1 42.1 L149.3 43.5 L149.3 44 L149.3 44.4 L149.3 44.9 L148.6 50.3 L148.5 50.8 L148.4 51.4 L148.2 51.9 L148 52.3 L147.8 52.8 L147.5 53.2 L145.7 55.7 L145.9 55.7 L146.3 55.6 L146.6 55.5 L147 55.5 L147.3 55.4 L147.7 55.3 L148 55.2 L148.4 55.2 L148.7 55.1 L149.1 55 L149.4 54.9 L149.8 54.8 L150.1 54.7 L150.5 54.7 L150.8 54.6 L151.2 54.5 L151.6 54.4 L151.9 54.3 L152.3 54.2 L152.6 54.1 L153 54 L153.4 53.9 L153.8 53.8 L154.1 53.7 L154.5 53.6 L154.9 53.5 L155.3 53.4 L155.6 53.3 L156 53.2 L156.4 53 L156.8 52.9 L157.1 52.8 L157.5 52.7 L157.9 52.6 L158.3 52.5 L158.7 52.3 L159.1 52.2 L159.5 52.1 L159.9 52 L160.3 51.9 L160.7 51.7 L161.2 51.6 L161.8 51.5 L162.4 51.4 L163 51.4 L163.6 51.5 L164.2 51.6 L164.8 51.8 L165.3 52.1 L165.8 52.3 L166.3 52.7 L166.8 53.1 L167.2 53.5 L167.6 53.9 L167.9 54.4 L168.2 55 L168.4 55.5 L168.6 56.1 L168.7 56.7 L168.8 57.3 L168.8 57.9 L168.8 58.5 L168.7 59.1 L168.5 59.6 L168.3 60.2 L168 60.7 L167.7 61.2 L167.3 61.7 L166.9 62.1 L166.5 62.5 L166 62.9 L165.5 63.3 L165 63.7 L164.8 63.9 L164.5 64.1 L164.3 64.3 L164.1 64.5 L163.8 64.7 L163.6 64.9 L163.4 65.1 L163.2 65.3 L162.9 65.5 L162.7 65.7 L162.5 65.9 L162.3 66 L162.1 66.2 L161.9 66.4 L161.7 66.6 L161.5 66.8 L161.3 67 L161.1 67.2 L160.9 67.4 L160.7 67.5 L160.5 67.7 L160.4 67.9 L160.2 68.1 L160 68.3 L159.9 68.4 L159.8 68.5 L159.8 68.6 L159.7 68.6 L159.6 68.7 L159.5 68.8 L159.4 68.9 L159.4 69 L159.3 69.1 L159.2 69.2 L159.1 69.3 L159.1 69.4 L159 69.5 L158.9 69.5 L158.8 69.6 L158.8 69.7 L158.7 69.8 L158.6 69.9 L158.6 70 L158.5 70.1 L158.4 70.2 L158.4 70.3 L158.3 70.4 L158.3 70.4 L158.2 70.5 L158.1 70.6 L158.1 70.7 L158 70.8 L158 70.9 L157.9 71 L157.8 71.1 L157.8 71.1 L157.7 71.2 L157.7 71.3 L157.6 71.4 L157.6 71.5 L157.5 71.6 L157.5 71.7 L157.4 71.8 L157.4 71.9 L157.3 71.9 L157.3 72 L157.3 72.1 L157.2 72.2 L157.2 72.3 L157.1 72.4 L157.1 72.5 L157 72.6 L157 72.6 L157 72.7 L156.9 72.8 L156.9 72.9 L156.9 73 L156.8 73.1 L156.8 73.2 L156.8 73.3 L156.7 73.4 L156.7 73.4 L156.7 73.5 L156.6 73.6 L156.6 73.7 L156.6 73.8 L156.5 73.9 L156.5 74 L156.5 74.1 L156.5 74.2 L156.5 74.3 L156.4 74.4 L156.3 74.9 L156.1 75.5 L155.8 76 L155.5 76.4 L155.4 76.5 L155.8 76.8 L156.2 77 L156.5 77.2 L157.2 77.6 L157.9 78 L158.6 78.4 L159.3 78.9 L159.9 79.3 L160.6 79.7 L161.3 80.1 L162 80.6 L162.7 81 L163.3 81.4 L164 81.9 L164.7 82.3 L166 83.1 L167.3 84 L168.6 84.8 L169.3 85.3 L169.9 85.7 L170.6 86.1 L171.2 86.5 L171.9 86.9 L172.6 87.3 L173.2 87.7 L173.9 88.2 L174.5 88.6 L175.2 89 L175.8 89.4 L176.1 89.6 L176.5 89.8 L176.8 90 L177.1 90.1 L177.5 90.3 L177.8 90.5 L178.1 90.7 L178.4 90.9 L178.8 91.1 L179.1 91.3 L179.4 91.5 L179.7 91.7 L180.1 91.9 L180.4 92.1 L180.9 92.4 L181.4 92.7 L181.8 93.1 L182.2 93.6 L182.5 94 L182.8 94.5 L183.1 95.1 L183.3 95.6 L183.4 96.2 L183.5 96.8 L183.6 97.3 L183.5 97.9 L183.5 98.5 L183.4 99.1 L183.2 99.6 L183 100.2 L182.7 100.7 L182.4 101.2 L182 101.6 L181.6 102.1 L181.1 102.4 L180.6 102.8 L180.1 103.3 L179.8 103.5 L179.5 103.7 L179.2 103.9 L178.9 104.1 L178.6 104.3 L178.4 104.5 L178.1 104.7 L177.8 105 L177.5 105.2 L177.2 105.4 L176.9 105.6 L176.6 105.8 L176.3 106 L176 106.2 L175.6 106.4 L175.3 106.6 L175.2 106.7 L175 106.8 L174.9 106.9 L174.7 107 L174.5 107.1 L174.4 107.2 L174.2 107.3 L174 107.4 L173.9 107.5 L173.7 107.6 L173.5 107.7 L173.4 107.8 L173.2 107.9 L173 107.9 L172.8 108 L172.7 108.1 L172.5 108.2 L172.3 108.3 L172.1 108.4 L172 108.5 L171.8 108.6 L171.6 108.6 L171.4 108.7 L171.2 108.8 L171.1 108.9 L170.9 108.9 L170.7 109 L170.5 109.1 L170.3 109.2 L170.1 109.3 L169.9 109.3 L169.7 109.4 L169.5 109.5 L169.3 109.5 L169.1 109.6 L168.9 109.7 L168.7 109.7 L168.5 109.8 L168.3 109.8 L168.1 109.9 L167.9 109.9 L167.7 110 L167.5 110 L167.3 110.1 L167.1 110.1 L166.9 110.2 L166.7 110.2 L166.5 110.3 L166.2 110.3 L166 110.3 L165.8 110.3 L165.6 110.4 L165.4 110.4 L165.2 110.4 L164.9 110.5 L164.7 110.5 L164.5 110.5 L164.3 110.5 L164 110.5 L163.8 110.5 L163.6 110.5 L163.3 110.5 L163.1 110.5 L162.9 110.5 L162.7 110.5 L162.4 110.5 L162.2 110.5 L162 110.4 L161.7 110.4 L161.5 110.4 L161.3 110.4 L161 110.3 L160.8 110.3 L160.6 110.3 L160.3 110.2 L160.1 110.2 L159.9 110.1 L159.6 110.1 L159.4 110 L159.2 110 L158.9 109.9 L158.8 109.8 L158.7 109.9 L158.5 109.9 L158.2 109.9 L158 109.9 L157.7 110 L157.5 110 L157.3 110 L157 110 L156.8 110.1 L156.6 110.1 L156.4 110.1 L156.2 110.2 L156 110.2 L155.8 110.2 L155.5 110.3 L155.3 110.3 L155.1 110.3 L155 110.4 L154.8 110.4 L154.6 110.4 L154.4 110.5 L154.2 110.5 L154 110.6 L153.9 110.6 L153.7 110.6 L153.5 110.7 L153.3 110.7 L153.2 110.8 L153 110.8 L152.9 110.9 L152.7 110.9 L152.5 110.9 L152.4 111 L152.2 111 L152.1 111.1 L152 111.1 L151.8 111.2 L151.7 111.2 L151.6 111.3 L151.4 111.3 L151.3 111.4 L151.2 111.4 L151 111.5 L150.9 111.5 L150.8 111.5 L150.7 111.6 L150.6 111.6 L150.5 111.7 L150.4 111.7 L150.3 111.8 L150.2 111.8 L150.1 111.9 L150 111.9 L149.9 112 L149.8 112 L149.7 112.1 L149.6 112.1 L149.5 112.2 L149.4 112.2 L149.3 112.3 L149.2 112.3 L149.2 112.4 L149.1 112.4 L149 112.5 L148.9 112.5 L148.9 112.6 L148.8 112.6 L148.7 112.7 L148.7 112.7 L148.6 112.8 L148.5 112.8 L148.5 112.9 L148.4 112.9 L148.4 113 L148.3 113 L148.2 113.1 L148.2 113.1 L148.1 113.2 L148.1 113.2 L148 113.3 L148 113.3 L147.9 113.3 L147.9 113.4 L147.8 113.5 L147.8 113.5 L147.7 113.6 L147.7 113.6 L147.6 113.7 L147.6 113.7 L147.5 113.7 L147.5 113.8 L147.4 113.9 L147.4 113.9 L147.4 114 L147.3 114 L147.3 114.1 L147.2 114.1 L147.2 114.2 L147.2 114.2 L147.1 114.3 L147.1 114.3 L147 114.4 L147 114.5 L147 114.5 L146.9 114.6 L146.9 114.6 L146.8 114.7 L146.8 114.8 L146.8 114.8 L146.7 114.9 L146.7 115 L146.7 115 L146.6 115.1 L146.6 115.2 L146.6 115.2 L146.5 115.3 L146.5 115.4 L146.5 115.4 L146.4 115.5 L146.4 115.6 L146.3 115.7 L146.3 115.7 L146.3 115.8 L146.2 115.9 L146.2 116 L146.2 116.1 L146.2 116.1 L146.1 116.2 L146.1 116.3 L146.1 116.4 L146 116.5 L146 116.6 L146 116.7 L145.9 116.7 L145.9 116.9 L145.8 117.1 L145.7 117.3 L145.7 117.5 L145.6 117.7 L145.6 117.9 L145.5 118.1 L145.4 118.3 L145.4 118.6 L145.3 118.8 L145.3 119 L145.2 119.3 L145.1 119.5 L145.1 119.7 L145 120 L144.9 120.5 L144.8 121 L144.7 121.5 L144.5 122.1 L144.4 122.6 L144.3 122.9 L144.3 123.2 L144.2 123.5 L144.1 123.8 L144 124.1 L144 124.4 L143.9 124.7 L143.8 125 L143.7 125.3 L143.6 125.6 L143.5 125.9 L143.4 126.3 L143.3 126.6 L143.3 126.8 L143.6 127 L144 127.4 L144.4 127.8 L144.8 128.3 L145.1 128.8 L145.4 129.3 L145.6 129.8 L148 136.7 L148.2 137.2 L148.3 137.8 L148.3 138.3 L148.4 139.8 L153.3 150.7 L155.9 153.7 L156.2 154.1 L156.5 154.6 L158.1 157.3 L160.3 158.9 L160.7 159.3 L161.2 159.8 L161.5 160.2 L161.9 160.7 L162.2 161.2 L162.4 161.8 L162.6 162.4 L162.7 163 L162.8 163.6 L163.1 168.6 L163.1 169.2 L163 169.8 L162.9 170.4 L162.8 171 L162.6 171.6 L162.3 172.1 L162 172.6 L161.6 173.1 L161.2 173.5 L160.7 173.9 L160.3 174.3 L159.7 174.6 L159.2 174.8 L158.6 175 L158 175.2 L157.5 175.3 L156.9 175.3 L149.1 175.3 L148.6 175.3 L148.1 175.2 L147.7 175.1 L143.2 174.1 L141.1 173.8 L140.6 173.7 L140 173.5 L139.5 173.3 L138.9 173.1 L138.4 172.8 L138 172.4 L137.6 172.1 L137.2 171.6 L136.8 171.2 L136.5 170.7 L136.2 170.2 L136 169.6 L135.9 169.1 L135.8 168.5 L134.8 162.2 L134.8 161.6 L134.7 161.1 L134.8 160.6 L134.8 160.4 L134.5 159.9 L134.3 159.4 L132.9 156.2 L130.7 152.9 L130.2 152.8 L129.6 152.6 L129.1 152.4 L128.6 152.1 L128.1 151.8 L127.7 151.4 L127.3 151 L126.9 150.5 L122.8 145 L122.6 144.7 L122.6 144.7 L122.4 144.8 L122.2 144.9 L122 145 L121.8 145.1 L121.6 145.2 L121.4 145.3 L121.2 145.3 L121 145.4 L120.7 145.5 L120.5 145.6 L120.3 145.7 L120.1 145.8 L119.9 145.9 L119.7 146 L119.5 146.1 L119.3 146.2 L118.9 146.4 L118.5 146.5 L118.1 146.7 L117.7 146.9 L117.3 147.1 L116.9 147.3 L116.5 147.5 L116.1 147.8 L115.7 148 L114.8 148.4 L114 148.8 L113.2 149.2 L112.8 149.4 L112.4 149.7 L111.9 149.9 L111.5 150.1 L111.1 150.3 L110.6 150.5 L110.2 150.7 L109.8 151 L109.3 151.2 L108.9 151.4 L108.6 151.5 L108.4 151.6 L108.2 151.7 L107.9 151.8 L107.7 151.9 L107.5 152 L107.2 152.1 L107 152.2 L106.7 152.3 L106.5 152.4 L106.3 152.5 L106 152.6 L105.8 152.7 L105.5 152.8 L105.3 152.9 L105 153 L104.8 153.1 L104.5 153.2 L104.3 153.3 L104 153.4 L103.7 153.5 L103.5 153.6 L103.2 153.7 L103 153.8 L102.7 153.8 L102.4 153.9 L102.2 154 L101.9 154.1 L101.6 154.2 L101.4 154.3 L101.1 154.3 L100.8 154.4 L100.2 154.6 L99.6 154.6 L99 154.7 L98.4 154.6 L97.9 154.5 L97.3 154.4 L96.7 154.2 L96.2 153.9 L95.7 153.6 L95.2 153.3 L94.7 152.9 L94.3 152.4 L94 151.9 L93.6 151.4 L93.4 150.9 L93.2 150.3 L88.9 137.2 L89 137.6 L89 138.2 L89 138.8 L88.9 139.4 L88.8 140 L88.6 140.6 L88.4 141.1 L88.1 141.6 L83.4 149.6 L83.1 150 L82.7 150.5 L82.3 150.9 L81.9 151.2 L81.4 151.6 L81 151.9 L80.5 152.1 L79.9 152.3 L79.4 152.4 L78.8 152.5 L78.7 152.5 L77.4 155.6 L77.3 156.9 L77.2 157.4 L77.1 157.9 L77 158.5 L76.9 158.6 L77.1 159.1 L77.2 159.7 L77.3 160.2 L77.3 160.8 L77.3 161.4 L77.2 161.9 L75.8 169.7 L75.6 170.2 L75.4 170.8 L75.2 171.3 L74.9 171.8 L74.6 172.3 L74.2 172.8 L73.8 173.2 L73.4 173.5 L72.9 173.9 L72.4 174.1 L71.9 174.4 L71.3 174.6 L70.8 174.7 L70.2 174.8 L69.6 174.8 L66.6 174.8 L66 174.8 L65.5 174.7 L64.9 174.6 L64.4 174.4 L64.1 174.3 L63.9 174.4 L63.4 174.8 L62.9 175.1 L62.4 175.3 L61.8 175.5 L61.2 175.7 L60.6 175.7 L60 175.8 L47.2 175.6 L46.6 175.6 L46 175.5 L45.4 175.3 L44.9 175.1 L44.3 174.9 L43.8 174.6 L43.4 174.2 L42.9 173.9 L42.5 173.4 L42.2 173 L41.8 172.5 L41.6 172 L41.3 171.4 L41.2 170.9 L41.1 170.3 L41 169.7 L41 169.1 L41.1 168.5 L41.2 167.9 L42.1 163.8 L42.3 163.2 L42.5 162.7 L42.8 162.1 L43.1 161.6 L43.4 161.2 L43.9 160.7 L44.3 160.3 L44.8 160 L47.5 158.2 L48 157.9 L48.5 157.7 L49 157.5 L49.5 157.4 L50.1 157.3 L50.6 157.2 L51.5 157.2 L52.4 156.1 L52.7 155.7 L53 155.3 L54.3 154.2 L54.3 153.9 L54.4 153.3 L54.5 152.8 L54.7 152.3 L54.9 151.8 L55.2 151.3 L55.5 150.8 L55.8 150.4 L57.3 148.7 L59 145.4 L58.3 142.8 L58.2 142.2 L58.1 141.6 L58.1 141 L58.2 140.4 L58.3 139.8 L58.5 139.2 L62.3 128.3 L62.5 127.7 L62.8 127.2 L63.1 126.7 L63.5 126.2 L63.9 125.8 L64.3 125.4 L64.8 125.1 L65.3 124.8 L65.9 124.5 L66.4 124.3 L67 124.2 L67.6 124.1 L68.1 124.1 L68.2 123.6 L68.5 123 L71.6 116.9 L71.5 116.6 L71.3 116 L71.3 115.4 L71.3 114.7 L71.4 114.1 L71.5 113.6 L71.7 113 L71.9 112.4 L79.4 96.6 L79.4 96.6 L78.9 96.9 L78.5 97.2 L78 97.4 L75.6 98.4 L75 98.6 L74.4 98.7 L73.8 98.8 L73.2 98.8 L72.6 98.8 L72.1 98.7 L71.5 98.6 L69.2 97.9 L68.8 98.3 L68.3 98.7 L67.8 99 L67.3 99.3 L66.8 99.5 L66.3 99.7 L65.7 99.8 L65.1 99.9 L64.5 99.9 L62.8 99.9 L62.2 99.9 L61.6 99.8 L61 99.7 L60.4 99.5 L59.9 99.2 L59.4 98.9 L58.9 98.6 L52.4 93.4 L52.2 93.4 L51.6 93.4 L51 93.4 L50.4 93.3 L46.7 92.5 L46.2 92.4 L45.7 92.2 L45.2 91.9 L44.7 91.7 L44.2 91.4 L43.8 91 L41.9 89.2 L41.5 88.8 L41.1 88.4 L40.8 87.9 L40.5 87.4 L40.3 86.9 L40.1 86.3 L40 85.8 L39.9 85.2 L39.9 84.6 L39.9 83.4 L39.8 83.4 L39.3 83.1 L38.9 82.8 L38.4 82.4 L38 82 L37.6 81.6 L37.3 81.1 L37 80.6 L36.8 80 L36.6 79.4 L36.5 78.9 L36.4 78.3 L36.3 76.4 L36 76.2 L35.4 75.9 L35 75.6 L34.5 75.2 L34.1 74.7 L33.7 74.3 L33.4 73.8 L33.3 73.6 L27.2 70.6 L26.6 70.3 L26.2 69.9 L25.7 69.6 L25.3 69.2 L24.9 68.7 L24.6 68.2 L24.3 67.7 L24.1 67.2 L23.9 66.6 L23.8 66.1 L23.7 65.5 L23.7 64.9 L23.7 64.3 L23.8 63.7 L24 63.2 L25.4 58.4 L25.6 57.9 L25.8 57.3 L26.1 56.8 L26.5 56.4 L26.8 55.9 L27.3 55.5 L27.7 55.2 L28.2 54.8 L28.7 54.6 L29.3 54.3 L29.8 54.2 L30.4 54 L31 54 L31.5 54 L32.1 54 L32.7 54.1 L33.3 54.3 L39.3 56.2 L39.8 56.3 L40.3 56.6 L40.8 56.9 L41.2 57.1 L41.6 57.2 L42.2 57.2 L42.7 57.4 L43.3 57.6 L59.3 63.7 L59.9 64 L60.4 64.2 L60.8 64.6 L61.3 65 L61.7 65.4 L62.1 65.8 L62.4 66.3 L62.7 66.8 L62.9 67.3 L63.1 67.9 L63.2 68.4 L63.3 68.7 L63.4 68.9 L63.7 69.4 L64 69.9 L64.2 70.4 L64.4 71 L64.5 71.5 L64.6 72.1 L64.6 72.7 L64.6 73.3 L64.5 74.1 L66.6 74.5 L66.7 74.3 L66.7 74.2 L66.6 73.6 L66.5 73.1 L66.5 72.5 L66.6 71.9 L66.7 71.4 L66.8 70.8 L67 70.3 L69.7 64 L70 63.5 L70.2 63 L70.5 62.6 L70.9 62.2 L71.3 61.8 L73.2 60 L73.6 59.7 L74.1 59.3 L74.7 59 L74.7 59 L74.8 58.6 L75.1 58 L75.3 57.5 L75.7 56.8 L75.7 56.8 L75.6 56.4 L75.5 56.1 L75.3 55.8 L75.2 55.5 L75.1 55.2 L75 54.9 L74.9 54.6 L74.8 54.3 L74.6 54 L74.5 53.7 L74.4 53.4 L74.3 53.1 L74.2 52.8 L74.1 52.5 L74 52.3 L73.9 52 L73.8 51.7 L73.8 51.4 L73.7 51.1 L73.6 50.8 L73.5 50.5 L73.4 50.2 L73.3 49.9 L73.3 49.6 L73.2 49.3 L73.1 49 L73 48.8 L73 48.5 L72.9 48.2 L72.8 47.7 L72.7 47.2 L72.7 46.7 L72.7 46.2 L72.9 44 L72.7 43.5 L72.6 43 L72.5 42.5 L72.4 41.9 L72.3 39.9 L71.6 34.9 L71.5 34.3 L71.5 33.7 L71.6 33.2 L71.7 32.6 L71.8 32.1 L72 31.6 L72.3 31.1 L72.6 30.6 L72.9 30.1 L73.3 29.7 L73.7 29.3 L73.8 29.2 L73.9 29.1 L74.1 29 L74.2 28.9 L74.3 28.8 L74.5 28.7 L74.6 28.6 L74.7 28.5 L74.9 28.4 L75 28.3 L75.1 28.2 L75.3 28.1 L75.4 28 L75.6 27.9 L75.7 27.8 L75.9 27.7 L76 27.7 L76.1 27.6 L76.3 27.5 L76.4 27.4 L76.6 27.3 L76.7 27.3 L76.8 27.2 L77 27.1 L77.1 27.1 L77.3 27 L77.4 26.9 L77.6 26.9 L77.7 26.8 L77.8 26.7 L78 26.7 L78.1 26.6 L78.3 26.6 L78.4 26.5 L78.6 26.5 L78.7 26.4 L78.9 26.4 L79 26.3 L79.1 26.3 L79.3 26.2 L79.4 26.2 L79.6 26.1 L79.7 26.1 L79.9 26 L80.1 26 L80.4 25.9 L80.7 25.8 L81 25.8 L81.2 25.7 L81.5 25.7 L81.8 25.6 L82.1 25.5 L82.3 25.5 L82.6 25.5 L82.9 25.4 L83.1 25.4 L83.4 25.4 L83.7 25.3 L83.9 25.3 L84.2 25.3 L84.4 25.3 L84.7 25.2 L85 25.2 L85.2 25.2 L85.5 25.2 L85.7 25.2 L86 25.1 L86.2 25.1 L86.5 25.1 L86.7 25.1 L86.9 25.1 L87.2 25.1 L87.4 25.1 L87.7 25.1 L88.1 25.1 L88.6 25.1 L89.1 25.1 L89.5 25.1 L90.4 25.1 L90.9 25.1 L91.4 25.2 L92 25.3 L92.5 25.5 L93 25.7 L94.9 26.5 L95.3 26.8 L95.5 26.9 L95.7 27 L96 27.1 L96.2 27.2 L96.4 27.4 L96.6 27.5 L96.8 27.6 L97 27.8 L97.2 27.9 L97.4 28 L97.6 28.2 L97.8 28.3 L98 28.4 L98.2 28.6 L98.4 28.7 L98.5 28.9 L98.7 29 L98.9 29.2 L99.1 29.3 L99.3 29.5 L99.5 29.7 L99.6 29.8 L99.8 30 L100 30.1 L100.2 30.3 L100.4 30.5 L100.5 30.6 L100.7 30.8 L100.9 31 L101 31.1 L101.2 31.3 L101.3 31.5 L101.5 31.7 L101.7 31.8 L101.8 32 L102 32.2 L102.1 32.4 L102.3 32.6 L102.4 32.8 L102.5 33 L102.7 33.2 L102.8 33.3 L103 33.5 L103.1 33.7 L103.2 33.9 L103.4 34.1 L103.5 34.3 L103.6 34.5 L103.7 34.7 L103.9 34.9 L104 35.2 L104.1 35.4 L104.2 35.6 L104.3 35.8 L104.4 36 L104.5 36.2 L104.6 36.4 L104.8 36.6 L104.9 36.8 L104.9 37.1 L105 37.3 L105.1 37.5 L105.2 37.7 L105.4 38.2 L105.6 38.8 L105.6 39.4 L105.7 40 L105.7 40.6 L105.6 41.1 L105.5 41.7 L105.3 42.3 L105 42.8 L104.8 43.3 L104.2 44.3 L104.7 44.5 L105.2 44.8 L105.7 45.1 L106.2 45.5 L106.6 45.9 L107 46.3 L107.3 46.8 L107.6 47.3 L107.9 47.8 L108 48.1 L108.5 48.1 L109 48.1 L109.5 48.2 L110 48.3 L110.4 48.4 L114.3 49.7 L114.7 49.8 L115.1 50 L115.5 50.3 L118.9 52.3 L120.6 52.6 L121.2 52.7 L121.7 52.9 L122 53 L121.2 51.8 L120.9 51.3 L120.7 50.8 L120.5 50.2 L120.3 49.7 L120.2 49.1 L120.2 48.6 L120.2 48 L120.2 47.4 L120.3 46.9 L124.4 29.6 L124.5 29.3 L124.5 28.9 L124.4 28.3 L124.5 27.7 L124.5 27.2 L124.7 26.6 L126.1 21.7 L126.3 21.1 L126.5 20.6 L126.8 20.1 L127.2 19.6 L127.6 19.1 L128 18.7 L128.5 18.3 L128.9 18 L129.1 17.9 L129.9 16.7 L130.2 16.2 L130.5 15.7 L130.9 15.3 L131.4 14.9 L131.9 14.5 L132.4 14.2 L132.9 14 L133.5 13.8 L134 13.6 L134.6 13.5 L135.2 13.5 L135.8 13.5 z M133.4 23.1 L132.1 23.4 L130.7 28.3 L132.3 29.1 L131.8 31.3 L130.5 31 L126.4 48.3 L128 50.7 L130.4 51.2 L132.4 50.2 L133.2 51.8 L131.9 53.5 L128.9 60.5 L129.7 61.6 L127.5 64.5 L126.6 63.5 L122.9 62.9 L119.6 58.8 L116.7 58.3 L112.3 55.6 L108.5 54.3 L103.4 54.3 L102.1 50.2 L97.4 49.1 L96.4 48 L95.1 47.7 L94.8 45.9 L97.7 42.9 L99.4 40.1 L99.4 39.9 L99.3 39.7 L99.2 39.6 L99.2 39.4 L99.1 39.3 L99 39.1 L98.9 39 L98.9 38.8 L98.8 38.7 L98.7 38.5 L98.6 38.4 L98.5 38.2 L98.5 38.1 L98.4 38 L98.3 37.8 L98.2 37.7 L98.1 37.5 L98 37.4 L97.9 37.2 L97.8 37.1 L97.7 37 L97.6 36.8 L97.5 36.7 L97.4 36.6 L97.3 36.4 L97.2 36.3 L97.1 36.2 L97 36 L96.9 35.9 L96.8 35.8 L96.7 35.7 L96.6 35.5 L96.5 35.4 L96.3 35.3 L96.2 35.2 L96.1 35.1 L96 34.9 L95.9 34.8 L95.7 34.7 L95.6 34.6 L95.5 34.5 L95.4 34.4 L95.2 34.2 L95.1 34.1 L95 34 L94.8 33.9 L94.7 33.8 L94.6 33.7 L94.4 33.6 L94.3 33.5 L94.1 33.4 L94 33.3 L93.8 33.2 L93.7 33.1 L93.5 33 L93.4 32.9 L93.2 32.8 L93.1 32.7 L92.9 32.6 L92.8 32.5 L92.6 32.4 L92.5 32.3 L92.3 32.2 L92.1 32.1 L90.4 31.3 L89.5 31.3 L89.1 31.3 L88.6 31.3 L88.2 31.3 L87.8 31.4 L87.5 31.4 L87.3 31.4 L87.1 31.4 L86.9 31.4 L86.7 31.4 L86.5 31.4 L86.2 31.4 L86 31.4 L85.8 31.4 L85.6 31.4 L85.4 31.4 L85.2 31.5 L85 31.5 L84.8 31.5 L84.5 31.5 L84.3 31.5 L84.1 31.6 L83.9 31.6 L83.7 31.6 L83.5 31.6 L83.3 31.7 L83.1 31.7 L82.9 31.7 L82.7 31.8 L82.5 31.8 L82.3 31.9 L82.1 31.9 L81.9 32 L81.7 32 L81.5 32.1 L81.5 32.1 L81.4 32.1 L81.3 32.1 L81.2 32.2 L81.1 32.2 L81 32.2 L80.9 32.3 L80.8 32.3 L80.7 32.3 L80.6 32.4 L80.5 32.4 L80.4 32.4 L80.3 32.5 L80.2 32.5 L80.2 32.6 L80.1 32.6 L80 32.6 L79.9 32.7 L79.8 32.7 L79.7 32.7 L79.6 32.8 L79.5 32.8 L79.5 32.9 L79.4 32.9 L79.3 33 L79.2 33 L79.1 33.1 L79 33.1 L79 33.2 L78.9 33.2 L78.8 33.3 L78.7 33.3 L78.6 33.4 L78.5 33.4 L78.5 33.5 L78.4 33.5 L78.3 33.6 L78.2 33.7 L78.2 33.7 L78.1 33.8 L78 33.8 L77.9 33.9 L77.9 34 L77.8 34 L78.5 39.3 L78.6 41.5 L79.3 42.9 L79 46.7 L79 47 L79.1 47.2 L79.2 47.5 L79.2 47.8 L79.3 48 L79.4 48.3 L79.4 48.5 L79.5 48.8 L79.6 49 L79.7 49.3 L79.7 49.5 L79.8 49.8 L79.9 50.1 L80 50.3 L80.1 50.6 L80.2 50.9 L80.2 51.1 L80.3 51.4 L80.4 51.6 L80.5 51.9 L80.6 52.2 L80.7 52.4 L80.8 52.7 L80.9 53 L81 53.2 L81.1 53.5 L81.3 53.8 L81.4 54 L81.5 54.3 L81.6 54.6 L81.7 54.9 L81.8 55.1 L83.3 55.6 L82.8 57.2 L80.7 60.7 L83.4 62.4 L77.4 64.7 L75.5 66.4 L72.8 72.7 L73.6 75.1 L71.4 78.8 L71.7 81 L71.4 82.6 L67.6 81.8 L67.2 81 L58 79.2 L56.8 78.6 L55.6 75.4 L58 75.4 L58.3 72.6 L57.1 71.8 L57.1 69.6 L41.1 63.4 L39.9 64.5 L38.4 64 L37.4 62.1 L31.4 60.2 L30 65 L36.6 68.3 L37.7 66.2 L39 68.3 L38.8 70.7 L42.8 72.3 L42.5 75.8 L42.6 77.8 L46.1 79.6 L46.1 84.6 L48 86.4 L51.7 87.2 L52.8 85.6 L54.7 87.2 L62.8 93.7 L64.5 93.7 L65.8 90.4 L73.3 92.6 L75.6 91.6 L81.7 80.4 L86.3 89.9 L88.8 90.4 L89.1 93.7 L86.7 95.7 L77.5 115.1 L79.1 115.9 L74.1 125.9 L74.2 127.8 L73.1 131.9 L69.8 130.3 L68.2 130.3 L64.4 141.3 L65.6 146.2 L62.5 152.2 L60.6 154.4 L60.6 157 L57.2 160 L54.5 163.3 L50.9 163.5 L48.2 165.2 L47.2 169.3 L60.1 169.5 L62.9 167.3 L66.1 166.2 L66.6 168.6 L69.6 168.6 L71 160.8 L69.4 158.6 L71 156.5 L71.2 154.1 L74.7 146.2 L78 146.3 L82.8 138.4 L81 136.7 L81.3 131.1 L90.4 121.6 L99.1 148.4 L99.4 148.3 L99.6 148.3 L99.8 148.2 L100.1 148.1 L100.3 148.1 L100.5 148 L100.8 147.9 L101 147.8 L101.2 147.8 L101.4 147.7 L101.7 147.6 L101.9 147.5 L102.1 147.4 L102.3 147.4 L102.6 147.3 L102.8 147.2 L103 147.1 L103.2 147 L103.4 146.9 L103.7 146.8 L103.9 146.8 L104.1 146.7 L104.3 146.6 L104.5 146.5 L104.7 146.4 L104.9 146.3 L105.2 146.2 L105.4 146.1 L105.6 146 L105.8 145.9 L106 145.8 L106.2 145.7 L106.6 145.5 L107 145.3 L107.5 145.1 L107.9 144.9 L108.3 144.7 L108.7 144.5 L109.1 144.3 L109.5 144.1 L109.9 143.9 L110.3 143.7 L111.2 143.2 L112 142.8 L112.8 142.4 L113.2 142.2 L113.7 142 L114.1 141.8 L114.5 141.5 L114.9 141.3 L115.4 141.1 L115.8 140.9 L116.2 140.7 L116.7 140.5 L116.9 140.4 L117.1 140.3 L117.3 140.2 L117.6 140.1 L117.8 140 L118 139.9 L118.2 139.8 L118.5 139.7 L118.7 139.6 L118.9 139.5 L119.2 139.4 L119.4 139.3 L119.6 139.2 L119.9 139.1 L120.1 139 L120.3 138.9 L120.6 138.8 L120.8 138.7 L121.1 138.6 L121.3 138.5 L121.6 138.5 L121.8 138.4 L122.1 138.3 L122.3 138.2 L122.6 138.1 L122.8 138 L123.1 137.9 L123.3 137.8 L123.6 137.8 L123.8 137.7 L124.1 137.6 L124.4 137.5 L124.6 137.4 L124.9 137.4 L125.2 137.3 L125.5 137.2 L125.7 137.1 L126 137.1 L126.3 137 L126.6 136.9 L126.9 136.8 L127.1 136.8 L127.4 136.7 L127.7 136.6 L128 136.6 L128.3 136.5 L128.9 138.3 L127.8 141.3 L131.9 146.8 L133.7 146.3 L138.4 153.2 L140 157 L141.6 158.1 L141 161.3 L141.9 167.6 L144.3 167.9 L149.1 169 L156.9 169 L156.5 164 L153.4 161.6 L151.1 157.8 L148 154.1 L142.3 141.3 L142.1 138.7 L139.7 131.9 L135.9 131.6 L134.8 130.2 L134.9 130 L135 129.9 L135 129.8 L135.1 129.7 L135.2 129.5 L135.3 129.4 L135.4 129.3 L135.4 129.2 L135.5 129 L135.6 128.9 L135.7 128.8 L135.7 128.6 L135.8 128.5 L135.9 128.4 L135.9 128.2 L136 128.1 L136.1 128 L136.1 127.9 L136.2 127.7 L136.3 127.6 L136.3 127.5 L136.4 127.3 L136.4 127.2 L136.5 127.1 L136.5 126.9 L136.6 126.8 L136.7 126.7 L136.7 126.5 L136.8 126.4 L136.8 126.3 L136.9 126.1 L136.9 126 L137 125.9 L137 125.7 L137.1 125.6 L137.1 125.5 L137.2 125.2 L137.3 124.9 L137.4 124.7 L137.5 124.4 L137.5 124.1 L137.6 123.9 L137.7 123.6 L137.8 123.3 L137.8 123.1 L137.9 122.8 L138 122.5 L138.1 122.3 L138.1 122 L138.2 121.7 L138.3 121.4 L138.3 121.2 L138.4 120.6 L138.6 120.1 L138.7 119.6 L138.8 119 L138.9 118.5 L139 118.3 L139.1 118 L139.1 117.7 L139.2 117.5 L139.3 117.2 L139.3 117 L139.4 116.7 L139.5 116.4 L139.6 116.2 L139.6 115.9 L139.7 115.7 L139.8 115.4 L139.9 115.2 L139.9 114.9 L140 114.7 L140.1 114.6 L140.1 114.4 L140.2 114.3 L140.2 114.2 L140.3 114.1 L140.3 114 L140.3 113.8 L140.4 113.7 L140.4 113.6 L140.5 113.5 L140.5 113.3 L140.6 113.2 L140.7 113.1 L140.7 113 L140.8 112.9 L140.8 112.8 L140.9 112.6 L140.9 112.5 L141 112.4 L141 112.3 L141.1 112.2 L141.2 112.1 L141.2 112 L141.3 111.8 L141.4 111.7 L141.4 111.6 L141.5 111.5 L141.6 111.4 L141.6 111.3 L141.7 111.2 L141.8 111.1 L141.8 111 L141.9 110.8 L142 110.7 L142.1 110.6 L142.1 110.5 L142.2 110.4 L142.3 110.3 L142.4 110.2 L142.4 110.1 L142.5 110 L142.6 109.9 L142.7 109.8 L142.8 109.7 L142.9 109.6 L143 109.5 L143.1 109.4 L143.2 109.3 L143.2 109.2 L143.3 109.1 L143.4 109 L143.5 108.9 L143.6 108.8 L143.7 108.7 L143.8 108.6 L144 108.5 L144.1 108.4 L144.2 108.3 L144.3 108.2 L144.4 108.1 L144.5 108 L144.6 107.9 L144.7 107.8 L144.8 107.8 L145 107.7 L145.1 107.6 L145.2 107.5 L145.3 107.4 L145.5 107.3 L145.6 107.2 L145.7 107.2 L145.9 107.1 L146 107 L146.1 106.9 L146.3 106.8 L146.4 106.7 L146.6 106.7 L146.7 106.6 L146.8 106.5 L147 106.4 L147.1 106.4 L147.3 106.3 L147.5 106.2 L147.6 106.1 L147.8 106.1 L147.9 106 L148.1 105.9 L148.2 105.8 L148.4 105.8 L148.6 105.7 L148.8 105.6 L148.9 105.6 L149.1 105.5 L149.3 105.4 L149.5 105.4 L149.6 105.3 L149.8 105.2 L150 105.2 L150.2 105.1 L150.4 105.1 L150.6 105 L150.8 104.9 L151 104.9 L151.2 104.8 L151.4 104.8 L151.6 104.7 L151.8 104.7 L152 104.6 L152.2 104.6 L152.4 104.5 L152.7 104.5 L152.9 104.4 L153.1 104.4 L153.3 104.3 L153.6 104.3 L153.8 104.2 L154 104.2 L154.3 104.1 L154.5 104.1 L154.7 104.1 L155 104 L155.2 104 L155.5 103.9 L155.7 103.9 L156 103.9 L156.2 103.8 L156.5 103.8 L156.8 103.8 L157 103.7 L157.3 103.7 L157.6 103.7 L157.8 103.7 L158.1 103.6 L158.4 103.6 L158.7 103.6 L159 103.6 L159.3 103.5 L159.5 103.5 L159.7 103.6 L159.9 103.6 L160 103.7 L160.2 103.7 L160.3 103.8 L160.5 103.8 L160.6 103.9 L160.8 103.9 L160.9 103.9 L161 104 L161.2 104 L161.3 104 L161.5 104.1 L161.6 104.1 L161.8 104.1 L161.9 104.1 L162.1 104.2 L162.2 104.2 L162.4 104.2 L162.5 104.2 L162.7 104.2 L162.8 104.2 L163 104.2 L163.1 104.3 L163.3 104.3 L163.4 104.3 L163.5 104.3 L163.7 104.3 L163.8 104.3 L164 104.2 L164.1 104.2 L164.3 104.2 L164.4 104.2 L164.6 104.2 L164.7 104.2 L164.8 104.2 L165 104.2 L165.1 104.1 L165.3 104.1 L165.4 104.1 L165.6 104.1 L165.7 104 L165.8 104 L166 104 L166.1 103.9 L166.3 103.9 L166.4 103.9 L166.5 103.8 L166.7 103.8 L166.8 103.8 L166.9 103.7 L167.1 103.7 L167.2 103.6 L167.4 103.6 L167.5 103.5 L167.6 103.5 L167.8 103.4 L167.9 103.4 L168.1 103.3 L168.2 103.3 L168.3 103.2 L168.5 103.2 L168.6 103.1 L168.7 103.1 L168.9 103 L169 102.9 L169.2 102.9 L169.3 102.8 L169.4 102.8 L169.6 102.7 L169.7 102.6 L169.8 102.5 L170 102.5 L170.1 102.4 L170.2 102.3 L170.4 102.3 L170.5 102.2 L170.7 102.1 L170.8 102 L170.9 102 L171.1 101.9 L171.2 101.8 L171.3 101.7 L171.5 101.7 L171.6 101.6 L171.7 101.5 L171.9 101.4 L172 101.3 L172.3 101.1 L172.5 101 L172.8 100.8 L173.1 100.6 L173.3 100.4 L173.6 100.3 L173.9 100.1 L174.1 99.9 L174.4 99.7 L174.7 99.5 L174.9 99.3 L175.2 99.1 L175.5 98.9 L175.7 98.7 L176 98.5 L176.3 98.3 L176.8 97.9 L177.3 97.5 L177 97.3 L176.6 97.1 L176.3 96.9 L176 96.7 L175.6 96.5 L175.3 96.3 L174.9 96.1 L174.6 95.9 L174.3 95.7 L173.9 95.5 L173.6 95.3 L173.2 95.1 L172.9 94.9 L172.6 94.7 L171.9 94.3 L171.2 93.9 L170.6 93.5 L169.9 93 L169.2 92.6 L168.6 92.2 L167.9 91.8 L167.2 91.4 L166.6 90.9 L165.9 90.5 L165.2 90.1 L163.9 89.2 L162.6 88.4 L161.3 87.5 L160.6 87.1 L159.9 86.7 L159.3 86.3 L158.6 85.8 L158 85.4 L157.3 85 L156.6 84.6 L156 84.2 L155.3 83.7 L154.6 83.3 L154 82.9 L153.3 82.5 L152.9 82.3 L152.6 82.1 L152.3 81.9 L151.9 81.7 L151.6 81.5 L151.3 81.3 L150.9 81.1 L150.6 80.9 L150.2 80.7 L149.9 80.5 L149.6 80.3 L149.2 80.1 L148.9 79.9 L148.5 79.7 L148.2 79.5 L147.8 79.4 L147.5 79.2 L147.2 79 L146.8 78.8 L146.5 78.6 L146.1 78.4 L145.8 78.2 L145.4 78 L145.1 77.9 L144.7 77.7 L144.4 77.5 L144 77.3 L143.7 77.1 L143.3 77 L143 76.8 L142.6 76.6 L142.3 76.4 L141.9 76.3 L141.6 76.1 L141.2 75.9 L140.8 75.8 L140.5 75.6 L140.1 75.4 L139.8 75.3 L139.4 75.1 L139.1 74.9 L138.7 74.8 L138.3 74.6 L138 74.5 L137.6 74.3 L137.2 74.2 L136.9 74 L136.5 73.9 L136.1 73.7 L135.8 73.6 L135.4 73.4 L135 73.3 L134.7 73.1 L134.3 73 L133.9 72.9 L133.5 72.7 L134.3 70.5 L134.6 70.7 L134.8 70.8 L135 70.9 L135.2 71 L135.5 71.2 L135.7 71.3 L135.9 71.4 L136.2 71.5 L136.4 71.6 L136.7 71.7 L136.9 71.8 L137.1 71.9 L137.4 72 L137.6 72.1 L137.8 72.2 L138.1 72.3 L138.3 72.3 L138.6 72.4 L138.8 72.5 L139 72.5 L139.3 72.6 L139.5 72.7 L139.8 72.7 L140 72.8 L140.3 72.9 L140.5 72.9 L140.8 72.9 L141 73 L141.3 73 L141.5 73.1 L141.8 73.1 L142 73.1 L142.3 73.2 L142.5 73.2 L142.8 73.2 L143 73.2 L143.3 73.3 L143.5 73.3 L143.8 73.3 L144.1 73.3 L144.3 73.3 L144.6 73.3 L144.8 73.3 L145.1 73.3 L145.3 73.3 L145.6 73.3 L145.9 73.3 L146.1 73.3 L146.4 73.3 L146.6 73.3 L146.9 73.3 L147.2 73.3 L147.4 73.2 L147.7 73.2 L148 73.2 L148.2 73.2 L148.5 73.1 L148.7 73.1 L149 73.1 L149.3 73.1 L149.5 73 L149.8 73 L150.1 72.9 L150.4 72.9 L150.4 72.8 L150.4 72.6 L150.5 72.5 L150.5 72.3 L150.5 72.1 L150.6 72 L150.6 71.9 L150.7 71.7 L150.7 71.6 L150.8 71.4 L150.8 71.3 L150.9 71.1 L150.9 71 L151 70.9 L151 70.7 L151.1 70.6 L151.2 70.4 L151.2 70.3 L151.3 70.1 L151.3 70 L151.4 69.9 L151.5 69.7 L151.5 69.6 L151.6 69.5 L151.7 69.3 L151.7 69.2 L151.8 69.1 L151.9 68.9 L151.9 68.8 L152 68.7 L152.1 68.5 L152.1 68.4 L152.2 68.3 L152.3 68.1 L152.4 68 L152.5 67.9 L152.5 67.8 L152.6 67.6 L152.7 67.5 L152.8 67.4 L152.9 67.2 L152.9 67.1 L153 67 L153.1 66.9 L153.2 66.7 L153.3 66.6 L153.4 66.5 L153.5 66.4 L153.6 66.3 L153.6 66.1 L153.7 66 L153.8 65.9 L153.9 65.8 L154 65.7 L154.1 65.5 L154.2 65.4 L154.3 65.3 L154.4 65.2 L154.5 65.1 L154.6 65 L154.7 64.8 L154.8 64.7 L154.9 64.6 L155 64.5 L155.1 64.4 L155.2 64.3 L155.3 64.1 L155.4 64 L155.6 63.8 L155.9 63.6 L156.1 63.4 L156.3 63.1 L156.5 62.9 L156.7 62.7 L157 62.5 L157.2 62.3 L157.4 62 L157.6 61.8 L157.9 61.6 L158.1 61.4 L158.4 61.2 L158.6 61 L158.8 60.8 L159.1 60.6 L159.3 60.3 L159.6 60.1 L159.8 59.9 L160.1 59.7 L160.3 59.5 L160.5 59.3 L160.8 59.1 L161 58.9 L161.6 58.5 L162.1 58.1 L162.6 57.7 L162.2 57.8 L161.8 57.9 L161.3 58.1 L160.9 58.2 L160.5 58.3 L160.1 58.4 L159.7 58.6 L159.3 58.7 L158.9 58.8 L158.5 58.9 L158.1 59 L157.8 59.2 L157.4 59.3 L157 59.4 L156.6 59.5 L156.2 59.6 L155.8 59.7 L155.4 59.8 L155 59.9 L154.6 60 L154.3 60.1 L153.9 60.2 L153.5 60.3 L153.1 60.4 L152.7 60.5 L152.4 60.6 L152 60.7 L151.6 60.8 L151.2 60.9 L150.9 61 L150.5 61.1 L150.1 61.2 L149.7 61.2 L149.4 61.3 L149 61.4 L148.6 61.5 L148.3 61.6 L147.9 61.7 L147.5 61.7 L147.2 61.8 L146.8 61.9 L146.5 61.9 L146.1 62 L145.8 62.1 L145.4 62.1 L145 62.2 L144.7 62.3 L144.3 62.3 L144 62.4 L143.6 62.5 L143.3 62.5 L143 62.6 L142.6 62.6 L142.3 62.7 L141.9 62.7 L141.6 62.8 L141.3 62.8 L140.9 62.8 L140.6 62.9 L140.2 62.9 L139.9 63 L139.6 63 L139.3 63 L138.9 63.1 L139.1 54.2 L142.4 49.6 L143.1 44.2 L142.9 42.8 L139.1 40.7 L138.6 38.2 L136.9 37.2 L137 33.2 L135.6 32 L135.6 29.9 L137.2 29.8 L137.7 24.2 L135.9 23.7 L135.3 19.8 L133.4 23.1 z M87.5 133.8 L87.4 134.2 L87.6 134.4 L87.9 134.9 L88.3 135.4 L88.4 135.7 L87.7 133.5 L87.5 133.8 z" fill-opacity="0.71" />

	<defs>
        <radialGradient cx="101.6" cy="101.6" r="100.4" gradientUnits="userSpaceOnUse" id="Radial">
			<stop offset="0%" stop-color="#A9CBFA" stop-opacity="1" />
			<stop offset="100%" stop-color="#002E6B" stop-opacity="1" />
		</radialGradient>
    </defs>
</svg>