<?xml version="1.0" encoding="UTF-8" standalone="no"?>
<!DOCTYPE svg PUBLIC "-//W3C//DTD SVG 1.1//EN" "http://www.w3.org/Graphics/SVG/1.1/DTD/svg11.dtd">
<svg width="205" height="205" viewBox="0 0 205 205" version="1.1" xmlns="http://www.w3.org/2000/svg" xmlns:xlink="http://www.w3.org/1999/xlink" xml:space="preserve" xmlns:serif="http://www.serif.com/" style="fill-rule:evenodd;clip-rule:evenodd;stroke-linecap:round;stroke-linejoin:round;stroke-miterlimit:1.5;">
    <g transform="matrix(1,0,0,1,-1694.53,-238.052)">
        <g id="Bene-Ges-Advisor" serif:id="Bene Ges Advisor">
            <g transform="matrix(1.00601,0,0,1.00601,1562.25,4.31579)">
                <circle cx="233.356" cy="334.206" r="99.794" style="fill:url(#_Radial1);stroke:black;stroke-width:4.14px;"/>
            </g>
            <g transform="matrix(0.691174,0,0,0.691174,1635.71,109.535)">
                <circle cx="233.356" cy="334.206" r="99.794" style="fill:none;stroke:white;stroke-opacity:0.5;stroke-width:9.04px;"/>
            </g>
            <g transform="matrix(1,0,0,1,0,-225.6)">
                <path d="M1766.41,625.275L1764.98,633.048L1761.97,633.048L1761.49,630.669L1758.32,631.78L1755.46,634L1742.62,633.841L1743.56,629.717L1746.26,627.972L1749.91,627.813L1752.19,625L1766.21,625L1766.41,625.275ZM1848.11,625L1848.73,626.068L1851.9,628.447L1852.22,633.525L1844.45,633.525L1839.69,632.414L1837.31,632.095L1836.36,625.753L1836.51,625L1848.11,625ZM1755.94,619L1755.94,618.929L1757.84,616.71L1761.01,610.682L1759.81,606L1776.29,606L1773.39,610.841L1770.06,610.682L1766.57,618.614L1766.54,619L1755.94,619ZM1834.38,619L1833.82,617.662L1829.06,610.841L1827.32,611.316L1823.37,606L1837.73,606L1843.34,618.614L1843.67,619L1834.38,619ZM1809.95,606C1804.81,608.556 1800.26,611.288 1794.49,612.901L1792.24,606L1809.95,606ZM1776.47,600L1761.75,600L1763.55,594.819L1765.14,594.819L1768.47,596.405L1769.58,592.282L1769.42,590.377L1771.14,587L1784.9,587L1776.72,595.612L1776.47,600ZM1836.35,600L1790.29,600L1786.05,587L1833.37,587C1832.69,589.607 1831.81,592.222 1830.17,594.66L1831.28,596.089L1835.09,596.405L1836.35,600ZM1834.83,581L1774.18,581L1774.5,580.385L1772.91,579.593L1778.42,568L1863.01,568C1860.42,568.912 1857.75,569.094 1854.92,568.011C1840.01,569.051 1836.64,574.497 1834.83,581ZM1872.67,562L1781.27,562L1782.11,560.239L1784.49,558.179L1784.17,554.846L1781.64,554.371L1779.04,549L1851.87,549C1858.8,553.344 1865.57,557.966 1872.69,561.984L1872.67,562ZM1759.9,558.179L1758.16,558.179L1750.07,551.674L1748.16,550.089L1747.05,551.674L1743.41,550.881L1741.5,549.136L1741.5,549L1774.82,549L1771.01,556.116L1768.63,557.068L1761.17,554.846L1759.9,558.179ZM1752.09,543L1739.38,543L1738.01,542.316L1737.86,540.253L1738.17,536.763L1734.2,535.177L1734.37,532.799L1733.1,530.735L1731.99,532.799L1726.39,530L1741.92,530L1752.45,534.066L1752.45,536.288L1753.72,537.081L1753.4,539.937L1751.02,539.937L1752.09,543ZM1841.67,543L1766.89,543L1768.94,539.619L1768.15,537.24L1770.85,530.894L1771.83,530L1849.52,530C1847.75,532.188 1846.39,534.601 1845.72,537.4C1840.01,538.273 1834.56,537.955 1829.7,535.018L1828.9,537.24C1833.35,538.824 1837.57,540.798 1841.67,543ZM1815.53,524L1776.78,524L1778.15,521.695L1778.62,520.107L1777.19,519.632C1775.9,516.717 1774.99,513.929 1774.34,511.225L1774.36,511L1790.31,511L1790.52,512.178L1791.79,512.493L1792.74,513.604L1797.5,514.716L1798.77,518.839L1803.84,518.839L1807.65,520.107L1812.09,522.804L1814.95,523.28L1815.53,524ZM1834.36,524L1824.75,524L1827.32,518.047L1828.59,516.301L1827.79,514.716L1825.73,515.667L1823.35,515.19L1821.77,512.812L1822.2,511L1838.15,511L1837.79,514.079L1834.46,518.68L1834.36,524ZM1855.69,524L1851.9,524C1853.87,523.442 1855.88,522.83 1857.93,522.17C1857.18,522.777 1856.43,523.385 1855.69,524ZM1794.53,505L1773.95,505L1773.86,503.768L1773.15,498.522C1776.32,495.744 1781.09,495.839 1785.76,495.837L1787.51,496.633C1791,498.528 1793.43,501.173 1794.8,504.561L1794.53,505ZM1834.42,505L1823.63,505L1825.89,495.522L1827.16,495.837L1827.63,493.617L1826.05,492.825L1827.48,487.909L1828.75,487.59L1830.65,484.259L1831.28,488.224L1833.03,488.701L1832.55,494.251L1830.97,494.41L1830.97,496.473L1832.39,497.741L1832.24,501.708L1833.98,502.661L1834.42,505Z" style="fill:rgb(255,255,201);"/>
                <path d="M1831.18,478.032L1831.77,478.11L1832.35,478.244L1832.91,478.432L1833.45,478.672L1833.97,478.962L1834.45,479.299L1834.9,479.681L1835.32,480.105L1835.69,480.565L1836.02,481.059L1836.3,481.581L1836.53,482.127L1836.7,482.693L1836.82,483.272L1836.91,483.808L1837.2,484.043L1837.61,484.448L1837.98,484.89L1838.31,485.365L1838.6,485.868L1838.84,486.395L1839.03,486.942L1839.16,487.505L1839.25,488.077L1839.28,488.655L1839.26,489.233L1838.78,494.784L1838.7,495.356L1838.58,495.918L1838.46,496.262L1838.49,496.345L1838.59,496.889L1838.64,497.439L1838.64,497.992L1838.62,498.479L1838.69,498.553L1839.04,498.986L1839.34,499.447L1839.6,499.933L1839.82,500.441L1840,500.966L1840.12,501.504L1840.56,503.844L1840.65,504.448L1840.67,505.057L1840.66,505.282L1840.97,505.424L1841.48,505.713L1841.96,506.049L1842.41,506.428L1842.82,506.847L1843.19,507.302L1843.51,507.79L1843.79,508.306L1844.02,508.846L1844.19,509.405L1844.32,509.978L1844.38,510.56L1844.4,511.145L1844.36,511.73L1844,514.808L1843.91,515.332L1843.78,515.847L1843.61,516.349L1843.4,516.835L1843.14,517.3L1842.85,517.743L1840.67,520.754L1840.62,523.75L1845.66,523.75L1845.66,523.674L1845.72,523.081L1845.84,522.495L1846.01,521.924L1846.23,521.372L1846.51,520.843L1846.83,520.343L1847.21,519.877L1847.62,519.448L1848.07,519.06L1848.56,518.718L1849.08,518.423L1849.63,518.18L1850.19,517.989L1850.55,517.886L1850.91,517.783L1851.27,517.68L1851.63,517.575L1851.99,517.469L1852.35,517.361L1852.71,517.252L1853.07,517.143L1853.44,517.031L1853.8,516.919L1854.17,516.806L1854.54,516.691L1854.91,516.575L1855.28,516.458L1855.65,516.34L1856.03,516.218L1856.6,516.063L1857.19,515.964L1857.79,515.921L1858.38,515.936L1858.98,516.008L1859.56,516.135L1860.13,516.318L1860.68,516.555L1861.2,516.843L1861.7,517.179L1862.16,517.561L1862.58,517.985L1862.95,518.448L1863.29,518.944L1863.57,519.47L1863.8,520.021L1863.98,520.591L1864.11,521.175L1864.17,521.769L1864.18,522.367L1864.13,522.962L1864.03,523.551L1863.87,524.126L1863.66,524.684L1863.39,525.219L1863.07,525.726L1862.71,526.201L1862.3,526.638L1861.86,527.035L1861.3,527.485L1860.75,527.931L1860.48,528.15L1860.21,528.369L1859.95,528.587L1859.68,528.811L1859.25,529.138L1858.79,529.426L1858.31,529.674L1857.81,529.879L1857.29,530.041L1856.77,530.157L1856.23,530.227L1855.76,530.247L1855.75,530.555L1855.66,531.159L1855.52,531.752L1855.32,532.328L1855.07,532.883L1854.76,533.409L1854.4,533.904L1854.26,534.085L1854.13,534.241L1854.02,534.396L1853.9,534.549L1853.78,534.712L1853.73,534.781L1853.68,534.857L1853.62,534.936L1853.57,535.013L1853.52,535.087L1853.47,535.165L1853.41,535.242L1853.37,535.317L1853.32,535.393L1853.27,535.471L1853.22,535.548L1853.17,535.623L1853.13,535.698L1853.08,535.776L1853.03,535.852L1852.99,535.926L1852.95,536.002L1852.9,536.079L1852.86,536.153L1852.82,536.23L1852.78,536.307L1852.74,536.383L1852.7,536.458L1852.66,536.534L1852.62,536.607L1852.59,536.683L1852.55,536.762L1852.51,536.836L1852.48,536.911L1852.44,536.989L1852.41,537.064L1852.37,537.14L1852.34,537.216L1852.31,537.292L1852.28,537.369L1852.25,537.446L1852.22,537.521L1852.19,537.597L1852.16,537.675L1852.13,537.751L1852.1,537.828L1852.08,537.905L1852.05,537.983L1852.02,538.061L1852,538.139L1851.97,538.216L1851.95,538.294L1851.93,538.374L1851.9,538.452L1851.88,538.531L1851.86,538.61L1851.84,538.69L1851.82,538.771L1851.79,538.876L1851.63,539.422L1851.43,539.951L1851.17,540.459L1850.87,540.942L1850.53,541.396L1850.14,541.816L1849.72,542.2L1849.27,542.544L1848.94,542.75L1851.87,542.75L1852.46,542.777L1853.04,542.859L1853.6,542.994L1854.16,543.182L1854.69,543.421L1855.2,543.708L1855.86,544.12L1856.51,544.537L1857.17,544.953L1857.83,545.371L1858.48,545.788L1859.13,546.206L1860.43,547.04L1863.01,548.701L1864.3,549.527L1864.93,549.937L1865.57,550.346L1866.21,550.752L1866.85,551.157L1867.49,551.561L1868.12,551.961L1868.76,552.36L1869.4,552.756L1870.03,553.149L1870.67,553.539L1871.31,553.926L1871.94,554.312L1872.26,554.502L1872.58,554.692L1872.89,554.881L1873.21,555.07L1873.53,555.257L1873.85,555.444L1874.17,555.629L1874.49,555.814L1874.81,555.998L1875.12,556.18L1875.44,556.362L1875.77,556.547L1876.26,556.859L1876.73,557.217L1877.16,557.616L1877.55,558.053L1877.89,558.526L1878.19,559.028L1878.45,559.557L1878.65,560.106L1878.8,560.673L1878.89,561.251L1878.93,561.835L1878.92,562.42L1878.85,563.002L1878.73,563.575L1878.56,564.134L1878.33,564.674L1878.05,565.19L1877.73,565.678L1877.36,566.134L1876.95,566.553L1876.5,566.933L1876.48,566.948L1876,567.284L1875.49,567.574L1874.96,567.814L1874.4,568.004L1873.83,568.14L1873.25,568.222L1872.67,568.25L1869.25,568.25L1869.24,568.465L1869.17,569.065L1869.03,569.655L1868.85,570.229L1868.6,570.783L1868.31,571.311L1867.96,571.808L1867.57,572.269L1867.14,572.69L1866.67,573.067L1866.16,573.397L1865.62,573.676L1865.06,573.902L1864.92,573.953L1864.75,574.011L1864.57,574.068L1864.4,574.123L1864.23,574.177L1864.05,574.23L1863.88,574.281L1863.7,574.331L1863.52,574.379L1863.34,574.426L1863.16,574.471L1862.98,574.515L1862.8,574.557L1862.62,574.597L1862.43,574.636L1862.25,574.673L1862.06,574.708L1861.88,574.742L1861.69,574.774L1861.5,574.803L1861.31,574.831L1861.12,574.857L1860.93,574.881L1860.74,574.903L1860.54,574.923L1860.35,574.941L1860.15,574.957L1859.96,574.97L1859.76,574.982L1859.56,574.991L1859.37,574.998L1859.17,575.003L1858.97,575.005L1858.77,575.005L1858.57,575.003L1858.37,574.998L1858.17,574.991L1857.97,574.982L1857.76,574.97L1857.56,574.956L1857.36,574.939L1857.16,574.919L1856.95,574.898L1856.75,574.873L1856.55,574.846L1856.34,574.817L1856.14,574.785L1855.93,574.751L1855.73,574.713L1855.53,574.674L1855.32,574.632L1855.12,574.587L1854.91,574.539L1854.71,574.489L1854.51,574.437L1854.3,574.382L1854.16,574.342L1854.13,574.345L1853.84,574.373L1853.55,574.402L1853.26,574.433L1852.98,574.465L1852.7,574.498L1852.43,574.532L1852.17,574.568L1851.91,574.604L1851.65,574.642L1851.4,574.681L1851.15,574.72L1850.91,574.761L1850.67,574.803L1850.43,574.846L1850.2,574.89L1849.98,574.935L1849.75,574.98L1849.54,575.027L1849.32,575.074L1849.12,575.122L1848.91,575.171L1848.71,575.221L1848.52,575.272L1848.32,575.323L1848.14,575.375L1847.95,575.427L1847.77,575.48L1847.6,575.533L1847.43,575.587L1847.26,575.642L1847.1,575.697L1846.94,575.753L1846.78,575.808L1846.63,575.865L1846.48,575.921L1846.34,575.978L1846.2,576.035L1846.06,576.093L1845.93,576.15L1845.8,576.208L1845.67,576.266L1845.55,576.324L1845.43,576.382L1845.31,576.44L1845.19,576.499L1845.08,576.557L1844.98,576.615L1844.87,576.674L1844.77,576.732L1844.67,576.79L1844.58,576.848L1844.48,576.907L1844.39,576.965L1844.31,577.023L1844.22,577.081L1844.13,577.139L1844.05,577.197L1843.98,577.256L1843.9,577.313L1843.83,577.37L1843.75,577.429L1843.68,577.487L1843.61,577.545L1843.54,577.603L1843.48,577.66L1843.41,577.719L1843.35,577.778L1843.29,577.836L1843.23,577.895L1843.17,577.954L1843.12,578.015L1843.06,578.073L1843.01,578.132L1842.95,578.195L1842.9,578.256L1842.85,578.317L1842.79,578.379L1842.74,578.441L1842.69,578.506L1842.64,578.569L1842.6,578.635L1842.55,578.701L1842.5,578.767L1842.45,578.835L1842.41,578.904L1842.36,578.974L1842.32,579.045L1842.27,579.115L1842.23,579.19L1842.18,579.265L1842.14,579.339L1842.1,579.415L1842.05,579.494L1842.01,579.572L1841.97,579.653L1841.93,579.737L1841.88,579.821L1841.84,579.906L1841.8,579.991L1841.76,580.08L1841.72,580.17L1841.68,580.261L1841.64,580.354L1841.6,580.448L1841.56,580.542L1841.52,580.642L1841.48,580.741L1841.44,580.84L1841.4,580.943L1841.37,581.049L1841.33,581.155L1841.29,581.26L1841.25,581.37L1841.22,581.48L1841.18,581.591L1841.14,581.707L1841.1,581.823L1841.07,581.94L1841.03,582.058L1841,582.178L1840.96,582.299L1840.93,582.416L1840.85,582.701L1840.66,583.249L1840.43,583.778L1840.15,584.284L1839.82,584.761L1839.45,585.206L1839.37,585.29L1839.46,585.603L1839.56,586.194L1839.61,586.793L1839.6,587.393L1839.54,587.99L1839.41,588.578L1839.35,588.838L1839.27,589.114L1839.2,589.391L1839.12,589.671L1839.04,589.955L1838.95,590.24L1838.87,590.526L1838.78,590.815L1838.69,591.108L1838.64,591.266L1838.92,591.463L1839.37,591.853L1839.79,592.285L1840.16,592.754L1840.49,593.258L1840.77,593.79L1840.99,594.347L1842.25,597.942L1842.42,598.513L1842.53,599.097L1842.59,599.69L1842.59,600.286L1842.53,600.878L1842.42,601.463L1842.33,601.776L1842.49,601.943L1842.86,602.418L1843.17,602.926L1843.44,603.462L1848.7,615.294L1848.76,615.365L1849.08,615.865L1849.36,616.393L1849.58,616.946L1849.75,617.517L1849.86,618.101L1849.92,618.693L1849.92,619.02L1850.42,619.194L1850.96,619.439L1851.48,619.734L1851.96,620.077L1852.41,620.463L1852.82,620.891L1853.19,621.355L1853.49,621.825L1855.65,623.447L1856.12,623.829L1856.54,624.255L1856.92,624.719L1857.26,625.217L1857.54,625.745L1857.77,626.298L1857.95,626.871L1858.08,627.459L1858.14,628.055L1858.46,633.134L1858.47,633.734L1858.42,634.333L1858.31,634.923L1858.15,635.501L1857.93,636.061L1857.67,636.597L1857.35,637.105L1856.98,637.58L1856.57,638.018L1856.12,638.414L1855.63,638.765L1855.11,639.068L1854.57,639.319L1854,639.517L1853.42,639.66L1852.82,639.746L1852.22,639.775L1844.45,639.775L1843.97,639.757L1843.5,639.702L1843.03,639.611L1838.57,638.568L1836.48,638.29L1835.92,638.188L1835.36,638.034L1834.83,637.829L1834.31,637.577L1833.82,637.277L1833.36,636.934L1832.93,636.55L1832.54,636.128L1832.19,635.672L1831.88,635.186L1831.62,634.673L1831.4,634.139L1831.24,633.588L1831.13,633.023L1830.18,626.681L1830.12,626.142L1830.11,625.6L1830.15,625.059L1830.23,624.523L1830.38,623.794L1830.24,623.684L1829.84,623.291L1829.47,622.863L1829.14,622.404L1828.85,621.917L1828.61,621.406L1828.31,620.687L1826.04,617.431L1825.55,617.31L1825.01,617.122L1824.48,616.885L1823.98,616.6L1823.51,616.271L1823.07,615.9L1822.67,615.489L1822.3,615.044L1818.35,609.728L1818.02,609.229L1817.73,608.701L1817.5,608.148L1817.32,607.575L1817.2,606.987L1817.13,606.391L1817.13,606.25L1816.19,606.25L1816.19,606.345L1816.13,606.94L1816.02,607.525L1815.84,608.097L1815.62,608.65L1815.34,609.178L1815.01,609.678L1814.63,610.144L1814.22,610.572L1813.76,610.958L1813.27,611.298L1812.75,611.591L1812.28,611.826L1811.82,612.056L1811.36,612.289L1810.9,612.525L1810.44,612.762L1809.98,613.001L1809.05,613.483L1808.58,613.726L1808.1,613.97L1807.62,614.215L1807.14,614.459L1806.65,614.704L1806.16,614.949L1805.67,615.191L1805.41,615.315L1805.16,615.436L1804.91,615.558L1804.66,615.678L1804.4,615.799L1804.14,615.919L1803.88,616.039L1803.62,616.158L1803.36,616.277L1803.1,616.395L1802.83,616.512L1802.56,616.629L1802.29,616.745L1802.02,616.86L1801.75,616.974L1801.47,617.088L1801.19,617.2L1800.92,617.312L1800.64,617.422L1800.35,617.532L1800.07,617.64L1799.78,617.747L1799.49,617.853L1799.2,617.957L1798.91,618.06L1798.61,618.162L1798.31,618.263L1798.01,618.361L1797.71,618.459L1797.41,618.555L1797.1,618.649L1796.79,618.741L1796.48,618.832L1796.19,618.914L1795.61,619.05L1795.01,619.129L1794.41,619.151L1793.82,619.116L1793.23,619.024L1792.65,618.875L1792.08,618.672L1791.54,618.416L1791.03,618.11L1790.55,617.755L1790.1,617.357L1789.69,616.917L1789.33,616.441L1789.02,615.932L1788.75,615.395L1788.54,614.836L1786.3,607.934L1786.14,607.366L1786.04,606.786L1785.99,606.199L1786,605.61L1786.07,605.025L1786.14,604.667L1785.92,604.474L1785.51,604.032L1785.14,603.552L1784.82,603.04L1784.56,602.499L1784.34,601.934L1783.06,598.006L1782.83,598.255L1782.71,600.354L1782.65,600.942L1782.53,601.522L1782.36,602.088L1782.13,602.635L1781.86,603.159L1781.86,603.168L1782,603.456L1782.22,604.015L1782.38,604.592L1782.49,605.182L1782.54,605.779L1782.53,606.379L1782.47,606.975L1782.34,607.562L1782.16,608.135L1781.93,608.688L1781.65,609.216L1778.75,614.057L1778.43,614.525L1778.08,614.963L1777.69,615.368L1777.27,615.737L1776.82,616.066L1776.33,616.352L1775.83,616.595L1775.3,616.79L1774.76,616.938L1774.21,617.037L1774.08,617.048L1772.64,620.326L1772.59,620.576L1772.41,621.136L1772.19,621.678L1771.91,622.196L1771.87,622.254L1772.06,622.601L1772.27,623.114L1772.44,623.644L1772.56,624.187L1772.63,624.739L1772.66,625.296L1772.63,625.852L1772.55,626.403L1771.13,634.176L1771,634.739L1770.82,635.288L1770.58,635.818L1770.3,636.325L1769.98,636.803L1769.61,637.249L1769.2,637.659L1768.76,638.029L1768.28,638.357L1767.77,638.639L1767.24,638.874L1766.69,639.058L1766.13,639.191L1765.56,639.271L1764.98,639.298L1761.97,639.298L1761.39,639.271L1760.83,639.193L1760.27,639.063L1759.73,638.883L1759.5,638.782L1759.3,638.933L1758.81,639.279L1758.29,639.576L1757.74,639.821L1757.17,640.013L1756.58,640.149L1755.99,640.228L1755.39,640.25L1742.54,640.09L1741.95,640.055L1741.37,639.966L1740.8,639.822L1740.25,639.626L1739.72,639.379L1739.21,639.082L1738.73,638.74L1738.29,638.354L1737.89,637.929L1737.53,637.468L1737.21,636.974L1736.94,636.453L1736.72,635.909L1736.55,635.347L1736.43,634.771L1736.38,634.188L1736.37,633.601L1736.42,633.016L1736.52,632.439L1737.47,628.315L1737.64,627.735L1737.86,627.175L1738.13,626.637L1738.45,626.129L1738.82,625.653L1739.23,625.216L1739.68,624.819L1740.17,624.469L1742.87,622.724L1743.34,622.445L1743.84,622.209L1744.36,622.018L1744.89,621.873L1745.44,621.776L1745.99,621.728L1746.82,621.691L1747.33,621.067L1747.7,620.651L1748.1,620.269L1748.54,619.925L1749.01,619.62L1749.5,619.359L1749.7,619.272L1749.69,619L1749.69,618.929L1749.71,618.376L1749.79,617.827L1749.91,617.287L1750.08,616.76L1750.29,616.25L1750.55,615.76L1750.85,615.296L1751.19,614.86L1752.64,613.176L1754.36,609.907L1753.75,607.561L1753.63,606.974L1753.57,606.378L1753.56,605.778L1753.61,605.181L1753.72,604.591L1753.88,604.014L1754.1,603.455L1754.37,602.92L1754.69,602.413L1755.06,601.939L1755.47,601.503L1755.65,601.341L1755.56,600.883L1755.51,600.29L1755.51,599.695L1755.57,599.103L1755.68,598.518L1755.85,597.948L1757.65,592.767L1757.87,592.216L1758.14,591.688L1758.46,591.189L1758.83,590.722L1759.24,590.292L1759.69,589.904L1760.18,589.559L1760.69,589.263L1761.23,589.016L1761.79,588.822L1762.37,588.682L1762.96,588.598L1763.44,588.575L1763.61,588.07L1763.85,587.546L1765.57,584.17L1765.85,583.671L1766.17,583.2L1766.54,582.762L1766.95,582.359L1767.21,582.146L1767,581.629L1766.83,581.047L1766.72,580.452L1766.67,579.849L1766.67,579.243L1766.74,578.641L1766.86,578.048L1767.03,577.469L1767.27,576.91L1772.78,565.317L1773.05,564.799L1773.38,564.31L1773.75,563.853L1774.15,563.433L1774.6,563.053L1775.07,562.726L1775.03,562.225L1775.04,561.625L1775.1,561.03L1775.15,560.795L1774.75,561.118L1774.3,561.426L1773.83,561.693L1773.33,561.918L1770.95,562.87L1770.39,563.066L1769.81,563.206L1769.21,563.291L1768.62,563.318L1768.02,563.288L1767.42,563.201L1766.84,563.058L1764.54,562.371L1764.13,562.781L1763.69,563.153L1763.21,563.483L1762.7,563.767L1762.17,564.002L1761.62,564.188L1761.06,564.321L1760.48,564.402L1759.9,564.429L1758.16,564.429L1757.56,564.399L1756.96,564.312L1756.37,564.167L1755.8,563.967L1755.25,563.712L1754.73,563.405L1754.24,563.05L1747.8,557.871L1747.55,557.904L1746.94,557.923L1746.33,557.882L1745.73,557.781L1742.08,556.988L1741.55,556.848L1741.03,556.661L1740.53,556.431L1740.06,556.157L1739.61,555.842L1739.19,555.49L1737.28,553.745L1736.88,553.337L1736.51,552.894L1736.18,552.418L1735.9,551.915L1735.67,551.388L1735.49,550.842L1735.36,550.281L1735.28,549.711L1735.25,549.136L1735.25,549L1735.28,548.423L1735.34,547.968L1735.22,547.906L1734.71,547.62L1734.23,547.288L1733.78,546.912L1733.37,546.496L1733,546.043L1732.67,545.557L1732.39,545.044L1732.16,544.506L1731.98,543.949L1731.86,543.377L1731.78,542.797L1731.63,540.866L1731.34,540.73L1730.81,540.427L1730.32,540.075L1729.87,539.677L1729.45,539.237L1729.08,538.759L1728.76,538.248L1728.71,538.15L1723.59,535.591L1723.07,535.298L1722.58,534.957L1722.13,534.571L1721.71,534.143L1721.33,533.677L1721.01,533.178L1720.73,532.649L1720.5,532.097L1720.33,531.525L1720.21,530.939L1720.15,530.345L1720.14,529.747L1720.19,529.152L1720.3,528.564L1720.47,527.99L1720.69,527.434L1720.96,526.902L1721.28,526.397L1721.65,525.926L1722.06,525.492L1722.51,525.099L1722.99,524.751L1723.51,524.451L1724.05,524.202L1724.62,524.006L1725.2,523.864L1725.79,523.779L1726.39,523.75L1741.92,523.75L1742.49,523.776L1743.06,523.856L1743.62,523.987L1744.17,524.169L1754.7,528.235L1755.23,528.468L1755.73,528.748L1756.21,529.074L1756.65,529.443L1757.06,529.852L1757.43,530.296L1757.76,530.772L1758.04,531.277L1758.28,531.806L1758.46,532.353L1758.59,532.916L1758.63,533.233L1758.74,533.358L1759.06,533.844L1759.34,534.358L1759.57,534.895L1759.75,535.452L1759.88,536.023L1759.95,536.603L1759.97,537.188L1759.93,537.772L1759.61,540.628L1759.52,541.228L1759.36,541.816L1759.15,542.387L1758.97,542.75L1760.65,542.75L1760.65,542.592L1760.72,541.995L1760.84,541.407L1761.03,540.833L1761.26,540.28L1761.55,539.752L1762.11,538.825L1762.07,538.672L1761.96,538.117L1761.91,537.554L1761.91,536.989L1761.95,536.426L1762.05,535.87L1762.2,535.325L1762.4,534.796L1765.1,528.449L1765.33,527.967L1765.6,527.507L1765.9,527.071L1766.25,526.663L1766.63,526.286L1767.6,525.392L1768.05,525.021L1768.52,524.693L1769.03,524.41L1769.56,524.175L1770.11,523.99L1770.54,523.888L1770.54,523.653L1770.61,523.059L1770.72,522.473L1770.9,521.901L1771.12,521.348L1771.13,521.346L1771.08,521.25L1770.96,520.946L1770.83,520.642L1770.71,520.338L1770.59,520.037L1770.47,519.734L1770.35,519.433L1770.24,519.133L1770.13,518.832L1770.02,518.534L1769.91,518.235L1769.81,517.936L1769.7,517.639L1769.6,517.343L1769.5,517.047L1769.41,516.753L1769.31,516.457L1769.22,516.163L1769.13,515.87L1769.04,515.578L1768.95,515.285L1768.87,514.993L1768.79,514.704L1768.71,514.413L1768.63,514.124L1768.55,513.837L1768.48,513.548L1768.4,513.262L1768.33,512.975L1768.27,512.704L1768.17,512.211L1768.11,511.711L1768.09,511.208L1768.11,510.705L1768.13,510.48L1768.2,509.904L1768.33,509.337L1768.51,508.785L1768.69,508.37L1768.59,508.214L1768.31,507.698L1768.08,507.159L1767.91,506.601L1767.78,506.028L1767.72,505.447L1767.64,504.414L1766.95,499.366L1766.9,498.804L1766.9,498.24L1766.95,497.678L1767.06,497.124L1767.2,496.58L1767.4,496.053L1767.65,495.545L1767.94,495.062L1768.28,494.607L1768.65,494.184L1769.06,493.796L1769.16,493.705L1769.29,493.594L1769.42,493.486L1769.56,493.378L1769.69,493.272L1769.83,493.167L1769.97,493.066L1770.1,492.966L1770.24,492.869L1770.38,492.773L1770.52,492.678L1770.65,492.586L1770.8,492.495L1770.94,492.406L1771.08,492.32L1771.22,492.236L1771.36,492.153L1771.5,492.071L1771.64,491.992L1771.78,491.915L1771.93,491.839L1772.07,491.764L1772.21,491.693L1772.36,491.623L1772.5,491.553L1772.64,491.487L1772.78,491.421L1772.93,491.357L1773.07,491.295L1773.22,491.235L1773.36,491.176L1773.5,491.118L1773.65,491.062L1773.79,491.008L1773.93,490.955L1774.07,490.904L1774.22,490.854L1774.36,490.805L1774.5,490.758L1774.64,490.713L1774.79,490.668L1774.93,490.625L1775.07,490.583L1775.22,490.539L1775.49,490.465L1775.77,490.392L1776.05,490.324L1776.33,490.26L1776.61,490.2L1776.88,490.144L1777.16,490.092L1777.43,490.044L1777.7,489.999L1777.97,489.957L1778.24,489.919L1778.5,489.883L1778.77,489.85L1779.03,489.82L1779.3,489.793L1779.56,489.767L1779.81,489.745L1780.07,489.724L1780.33,489.705L1780.58,489.688L1780.83,489.673L1781.09,489.659L1781.34,489.648L1781.58,489.637L1781.83,489.628L1782.08,489.62L1782.32,489.613L1782.56,489.607L1782.8,489.603L1783.04,489.598L1783.51,489.593L1783.97,489.589L1784.43,489.588L1784.88,489.587L1785.76,489.587L1786.29,489.61L1786.82,489.679L1787.35,489.792L1787.86,489.949L1788.35,490.15L1790.31,491.041L1790.7,491.255L1790.91,491.374L1791.12,491.495L1791.33,491.618L1791.54,491.742L1791.75,491.868L1791.95,491.997L1792.15,492.126L1792.36,492.258L1792.56,492.392L1792.76,492.527L1792.95,492.665L1793.15,492.804L1793.34,492.945L1793.54,493.089L1793.73,493.233L1793.92,493.38L1794.11,493.529L1794.29,493.679L1794.48,493.832L1794.66,493.987L1794.84,494.142L1795.02,494.3L1795.2,494.461L1795.37,494.622L1795.55,494.785L1795.72,494.951L1795.89,495.119L1796.06,495.288L1796.22,495.46L1796.39,495.632L1796.55,495.806L1796.71,495.983L1796.87,496.161L1797.03,496.34L1797.18,496.522L1797.33,496.706L1797.48,496.89L1797.63,497.077L1797.78,497.266L1797.92,497.455L1798.06,497.647L1798.2,497.839L1798.34,498.035L1798.47,498.231L1798.6,498.428L1798.74,498.628L1798.86,498.828L1798.99,499.031L1799.11,499.235L1799.23,499.439L1799.35,499.646L1799.47,499.853L1799.58,500.062L1799.69,500.274L1799.8,500.484L1799.91,500.697L1800.02,500.911L1800.12,501.127L1800.22,501.344L1800.32,501.56L1800.41,501.78L1800.5,501.998L1800.58,502.185L1800.78,502.737L1800.92,503.306L1801.01,503.885L1801.05,504.47L1801.03,505.056L1800.96,505.637L1800.83,506.209L1800.65,506.767L1800.42,507.305L1800.13,507.819L1799.87,508.258L1799.54,508.739L1799.5,508.794L1800.04,509.007L1800.57,509.273L1801.07,509.588L1801.54,509.949L1801.97,510.353L1802.37,510.796L1802.71,511.274L1803.02,511.784L1803.27,512.319L1803.37,512.589L1803.84,512.589L1804.34,512.609L1804.84,512.669L1805.33,512.769L1805.82,512.909L1809.63,514.177L1810.06,514.341L1810.49,514.538L1810.9,514.765L1814.31,516.837L1815.98,517.116L1816.53,517.234L1817.07,517.403L1817.41,517.542L1816.57,516.278L1816.27,515.789L1816.02,515.276L1815.82,514.742L1815.67,514.191L1815.57,513.63L1815.52,513.061L1815.53,512.49L1815.58,511.922L1815.69,511.362L1816.12,509.55L1816.29,508.977L1816.51,508.422L1816.78,507.891L1817.1,507.389L1817.47,506.919L1817.63,506.741L1817.56,506.491L1817.45,505.908L1817.39,505.318L1817.38,504.724L1817.44,504.133L1817.55,503.55L1819.81,494.072L1819.88,493.819L1819.82,493.373L1819.8,492.794L1819.83,492.216L1819.91,491.642L1820.05,491.079L1821.48,486.163L1821.67,485.603L1821.91,485.064L1822.21,484.551L1822.55,484.068L1822.93,483.619L1823.36,483.208L1823.82,482.84L1824.32,482.517L1824.5,482.421L1825.22,481.158L1825.54,480.658L1825.9,480.191L1826.31,479.76L1826.76,479.37L1827.24,479.023L1827.75,478.724L1828.28,478.474L1828.84,478.276L1829.42,478.132L1830,478.043L1830.59,478.009L1831.18,478.032ZM1752.19,625L1749.91,627.813L1746.26,627.972L1743.56,629.717L1742.62,633.841L1755.46,634L1758.32,631.78L1761.49,630.669L1761.97,633.048L1764.98,633.048L1766.41,625.275L1766.21,625L1752.19,625ZM1836.51,625L1836.36,625.753L1837.31,632.095L1839.69,632.414L1844.45,633.525L1852.22,633.525L1851.9,628.447L1848.73,626.068L1848.11,625L1836.51,625ZM1823.37,606L1827.32,611.316L1829.06,610.841L1833.82,617.662L1834.38,619L1843.67,619L1843.34,618.614L1837.73,606L1823.37,606ZM1759.81,606L1761.01,610.682L1757.84,616.71L1755.94,618.929L1755.94,619L1766.54,619L1766.57,618.614L1770.06,610.682L1773.39,610.841L1776.29,606L1759.81,606ZM1792.24,606L1794.49,612.901L1794.75,612.825L1795.02,612.747L1795.29,612.667L1795.55,612.586L1795.82,612.503L1796.08,612.419L1796.34,612.333L1796.6,612.246L1796.85,612.158L1797.11,612.068L1797.36,611.977L1797.61,611.884L1797.87,611.79L1798.12,611.695L1798.37,611.599L1798.61,611.502L1798.86,611.403L1799.11,611.303L1799.35,611.202L1799.59,611.1L1799.84,610.997L1800.08,610.893L1800.32,610.789L1800.56,610.683L1800.8,610.576L1801.04,610.468L1801.28,610.359L1801.51,610.25L1801.75,610.14L1801.98,610.028L1802.22,609.917L1802.45,609.804L1802.69,609.691L1802.92,609.577L1803.39,609.347L1803.86,609.115L1804.32,608.881L1804.79,608.646L1805.25,608.408L1805.71,608.17L1806.18,607.93L1807.11,607.448L1807.58,607.206L1808.05,606.964L1808.52,606.723L1809,606.481L1809.47,606.24L1809.95,606L1792.24,606ZM1786.05,587L1790.29,600L1836.35,600L1835.09,596.405L1831.28,596.089L1830.17,594.66L1830.25,594.546L1830.33,594.431L1830.4,594.316L1830.47,594.201L1830.55,594.086L1830.62,593.97L1830.69,593.854L1830.76,593.738L1830.82,593.622L1830.89,593.505L1830.95,593.388L1831.02,593.271L1831.08,593.154L1831.15,593.037L1831.21,592.919L1831.27,592.801L1831.33,592.683L1831.39,592.565L1831.45,592.447L1831.51,592.328L1831.56,592.21L1831.62,592.091L1831.67,591.972L1831.73,591.852L1831.78,591.733L1831.83,591.613L1831.88,591.494L1831.94,591.374L1832.04,591.134L1832.13,590.893L1832.23,590.652L1832.32,590.411L1832.41,590.169L1832.49,589.926L1832.58,589.684L1832.66,589.441L1832.74,589.197L1832.81,588.954L1832.89,588.71L1832.96,588.466L1833.03,588.222L1833.1,587.978L1833.17,587.733L1833.24,587.489L1833.3,587.244L1833.37,587L1786.05,587ZM1771.14,587L1769.42,590.377L1769.58,592.282L1768.47,596.405L1765.14,594.819L1763.55,594.819L1761.75,600L1776.47,600L1776.72,595.612L1784.9,587L1771.14,587ZM1778.42,568L1772.91,579.593L1774.5,580.385L1774.18,581L1834.83,581L1834.92,580.696L1834.96,580.545L1835.01,580.394L1835.05,580.243L1835.1,580.093L1835.14,579.943L1835.19,579.794L1835.24,579.645L1835.29,579.497L1835.34,579.349L1835.39,579.202L1835.44,579.055L1835.49,578.909L1835.55,578.763L1835.6,578.618L1835.66,578.473L1835.72,578.329L1835.77,578.185L1835.83,578.042L1835.89,577.9L1835.95,577.758L1836.02,577.616L1836.08,577.476L1836.14,577.336L1836.21,577.196L1836.28,577.057L1836.35,576.919L1836.42,576.782L1836.49,576.645L1836.56,576.509L1836.64,576.373L1836.71,576.239L1836.79,576.105L1836.87,575.971L1836.95,575.839L1837.03,575.707L1837.12,575.575L1837.2,575.445L1837.29,575.315L1837.38,575.187L1837.47,575.058L1837.56,574.931L1837.65,574.805L1837.75,574.679L1837.85,574.554L1837.95,574.43L1838.05,574.307L1838.15,574.184L1838.26,574.063L1838.37,573.942L1838.48,573.822L1838.59,573.704L1838.7,573.586L1838.82,573.468L1838.94,573.352L1839.06,573.237L1839.18,573.123L1839.3,573.009L1839.43,572.897L1839.56,572.785L1839.69,572.675L1839.83,572.565L1839.96,572.457L1840.1,572.349L1840.24,572.243L1840.38,572.137L1840.53,572.033L1840.68,571.93L1840.83,571.827L1840.99,571.726L1841.14,571.626L1841.3,571.526L1841.46,571.428L1841.63,571.331L1841.79,571.236L1841.96,571.141L1842.13,571.047L1842.31,570.955L1842.49,570.863L1842.67,570.773L1842.85,570.684L1843.04,570.596L1843.23,570.509L1843.42,570.424L1843.62,570.34L1843.82,570.257L1844.02,570.175L1844.22,570.094L1844.43,570.015L1844.64,569.937L1844.86,569.86L1845.07,569.784L1845.29,569.71L1845.52,569.637L1845.74,569.565L1845.98,569.494L1846.21,569.425L1846.45,569.358L1846.69,569.291L1846.93,569.226L1847.18,569.162L1847.43,569.1L1847.68,569.039L1847.94,568.979L1848.2,568.921L1848.47,568.864L1848.74,568.809L1849.01,568.755L1849.29,568.702L1849.57,568.651L1849.85,568.601L1850.14,568.553L1850.43,568.506L1850.72,568.461L1851.02,568.417L1851.32,568.375L1851.63,568.334L1851.94,568.295L1852.26,568.257L1852.58,568.221L1852.9,568.186L1853.22,568.153L1853.56,568.122L1853.89,568.092L1854.23,568.063L1854.57,568.036L1854.92,568.011L1855.05,568.061L1855.18,568.109L1855.32,568.155L1855.45,568.2L1855.58,568.242L1855.71,568.283L1855.84,568.322L1855.97,568.359L1856.1,568.394L1856.24,568.428L1856.37,568.46L1856.5,568.49L1856.63,568.519L1856.76,568.546L1856.88,568.571L1857.01,568.594L1857.14,568.616L1857.27,568.636L1857.4,568.655L1857.53,568.672L1857.66,568.687L1857.79,568.701L1857.91,568.713L1858.04,568.724L1858.17,568.733L1858.3,568.74L1858.42,568.746L1858.55,568.751L1858.68,568.754L1858.8,568.755L1858.93,568.755L1859.06,568.753L1859.18,568.75L1859.31,568.746L1859.43,568.74L1859.56,568.733L1859.68,568.724L1859.81,568.714L1859.93,568.703L1860.06,568.69L1860.18,568.675L1860.31,568.66L1860.43,568.643L1860.56,568.625L1860.68,568.605L1860.81,568.584L1860.93,568.562L1861.05,568.539L1861.17,568.514L1861.3,568.488L1861.42,568.461L1861.54,568.432L1861.67,568.403L1861.79,568.372L1861.91,568.34L1862.03,568.307L1862.16,568.272L1862.28,568.237L1862.4,568.2L1862.52,568.162L1862.64,568.123L1862.77,568.083L1862.89,568.042L1863.01,568L1778.42,568ZM1779.04,549L1781.64,554.371L1784.17,554.846L1784.49,558.179L1782.11,560.239L1781.27,562L1872.67,562L1872.69,561.984L1872.35,561.795L1872.02,561.606L1871.69,561.415L1871.36,561.224L1871.03,561.032L1870.69,560.839L1870.36,560.645L1870.03,560.451L1869.7,560.256L1869.38,560.06L1869.05,559.863L1868.72,559.666L1868.06,559.27L1867.41,558.871L1866.76,558.47L1866.1,558.067L1865.45,557.662L1864.8,557.255L1864.15,556.847L1863.51,556.437L1862.86,556.026L1862.21,555.614L1861.57,555.201L1860.92,554.787L1859.63,553.958L1857.05,552.296L1855.76,551.467L1855.11,551.053L1854.47,550.64L1853.82,550.228L1853.17,549.817L1852.52,549.408L1851.87,549L1779.04,549ZM1741.5,549L1741.5,549.136L1743.41,550.881L1747.05,551.674L1748.16,550.089L1750.07,551.674L1758.16,558.179L1759.9,558.179L1761.17,554.846L1768.63,557.068L1771.01,556.116L1774.82,549L1741.5,549ZM1726.39,530L1731.99,532.799L1733.1,530.735L1734.37,532.799L1734.2,535.177L1738.17,536.763L1737.86,540.253L1738.01,542.316L1739.38,543L1752.09,543L1751.02,539.937L1753.4,539.937L1753.72,537.081L1752.45,536.288L1752.45,534.066L1741.92,530L1726.39,530ZM1771.83,530L1770.85,530.894L1768.15,537.24L1768.94,539.619L1766.89,543L1841.67,543L1841.28,542.794L1840.9,542.59L1840.51,542.387L1840.13,542.185L1839.74,541.985L1839.35,541.786L1838.96,541.589L1838.57,541.394L1838.18,541.2L1837.79,541.007L1837.4,540.816L1837,540.627L1836.61,540.44L1836.21,540.254L1835.82,540.07L1835.42,539.888L1835.02,539.708L1834.62,539.529L1834.22,539.353L1833.82,539.178L1833.41,539.005L1833.01,538.834L1832.6,538.665L1832.2,538.499L1831.79,538.334L1831.38,538.171L1830.97,538.01L1830.56,537.852L1830.15,537.696L1829.74,537.542L1829.32,537.39L1828.9,537.24L1829.7,535.018L1829.81,535.086L1829.93,535.154L1830.04,535.22L1830.16,535.286L1830.27,535.35L1830.39,535.414L1830.5,535.477L1830.62,535.538L1830.73,535.599L1830.85,535.659L1830.96,535.718L1831.08,535.776L1831.2,535.833L1831.31,535.89L1831.43,535.945L1831.55,535.999L1831.66,536.053L1831.78,536.106L1831.9,536.157L1832.02,536.208L1832.14,536.258L1832.26,536.308L1832.37,536.356L1832.49,536.403L1832.61,536.45L1832.73,536.495L1832.85,536.54L1832.97,536.584L1833.09,536.628L1833.21,536.67L1833.33,536.711L1833.45,536.752L1833.57,536.792L1833.69,536.831L1833.81,536.869L1833.93,536.906L1834.05,536.943L1834.17,536.979L1834.3,537.014L1834.42,537.048L1834.54,537.081L1834.66,537.114L1834.78,537.145L1834.91,537.176L1835.03,537.207L1835.15,537.236L1835.28,537.265L1835.4,537.293L1835.52,537.32L1835.64,537.346L1835.77,537.372L1835.89,537.397L1836.02,537.421L1836.14,537.444L1836.26,537.467L1836.39,537.489L1836.64,537.53L1836.89,537.569L1837.14,537.605L1837.39,537.638L1837.64,537.668L1837.89,537.696L1838.15,537.72L1838.4,537.742L1838.66,537.762L1838.91,537.779L1839.17,537.793L1839.42,537.804L1839.68,537.814L1839.94,537.82L1840.19,537.824L1840.45,537.826L1840.71,537.825L1840.97,537.822L1841.23,537.817L1841.49,537.809L1841.75,537.799L1842.01,537.787L1842.28,537.773L1842.54,537.756L1842.8,537.737L1843.06,537.716L1843.33,537.694L1843.59,537.669L1843.86,537.642L1844.12,537.613L1844.39,537.582L1844.65,537.549L1844.92,537.514L1845.18,537.478L1845.45,537.44L1845.72,537.4L1845.75,537.269L1845.79,537.138L1845.82,537.009L1845.85,536.879L1845.89,536.751L1845.93,536.623L1845.96,536.495L1846,536.368L1846.04,536.241L1846.08,536.115L1846.13,535.99L1846.17,535.865L1846.21,535.741L1846.26,535.617L1846.3,535.493L1846.35,535.37L1846.39,535.248L1846.44,535.126L1846.49,535.005L1846.54,534.884L1846.59,534.764L1846.64,534.644L1846.7,534.524L1846.75,534.405L1846.8,534.287L1846.86,534.169L1846.91,534.052L1846.97,533.934L1847.03,533.818L1847.09,533.702L1847.15,533.586L1847.21,533.471L1847.27,533.356L1847.33,533.242L1847.39,533.128L1847.46,533.015L1847.52,532.901L1847.59,532.789L1847.65,532.677L1847.72,532.565L1847.78,532.454L1847.85,532.343L1847.92,532.232L1847.99,532.122L1848.06,532.012L1848.13,531.903L1848.2,531.794L1848.28,531.686L1848.35,531.578L1848.42,531.47L1848.5,531.363L1848.57,531.256L1848.65,531.149L1848.72,531.043L1848.88,530.831L1849.03,530.622L1849.19,530.413L1849.36,530.206L1849.52,530L1771.83,530ZM1774.36,511L1774.34,511.225L1774.4,511.479L1774.46,511.733L1774.53,511.988L1774.6,512.243L1774.66,512.499L1774.73,512.755L1774.8,513.012L1774.88,513.269L1774.95,513.527L1775.03,513.786L1775.11,514.045L1775.19,514.305L1775.27,514.565L1775.35,514.826L1775.44,515.087L1775.53,515.349L1775.62,515.612L1775.71,515.875L1775.8,516.139L1775.89,516.404L1775.99,516.669L1776.09,516.935L1776.19,517.202L1776.29,517.469L1776.4,517.737L1776.51,518.006L1776.62,518.275L1776.73,518.545L1776.84,518.816L1776.96,519.087L1777.08,519.359L1777.19,519.632L1778.62,520.107L1778.15,521.695L1776.78,524L1815.53,524L1814.95,523.28L1812.09,522.804L1807.65,520.107L1803.84,518.839L1798.77,518.839L1797.5,514.716L1792.74,513.604L1791.79,512.493L1790.52,512.178L1790.31,511L1774.36,511ZM1822.2,511L1821.77,512.812L1823.35,515.19L1825.73,515.667L1827.79,514.716L1828.59,516.301L1827.32,518.047L1824.75,524L1834.36,524L1834.46,518.68L1837.79,514.079L1838.15,511L1822.2,511ZM1857.55,522.293L1857.17,522.415L1856.79,522.536L1856.4,522.656L1856.02,522.774L1855.64,522.892L1855.27,523.008L1854.89,523.123L1854.51,523.237L1854.14,523.35L1853.76,523.461L1853.39,523.571L1853.02,523.68L1852.64,523.788L1852.27,523.895L1851.9,524L1855.69,524L1855.97,523.77L1856.25,523.54L1856.53,523.311L1856.81,523.082L1857.37,522.625L1857.93,522.17L1857.55,522.293ZM1784.44,495.838L1784.01,495.839L1783.57,495.843L1783.13,495.848L1782.91,495.851L1782.7,495.856L1782.48,495.861L1782.26,495.867L1782.05,495.874L1781.83,495.882L1781.62,495.891L1781.4,495.901L1781.19,495.913L1780.98,495.926L1780.76,495.94L1780.55,495.955L1780.34,495.972L1780.13,495.991L1779.92,496.011L1779.71,496.033L1779.51,496.057L1779.3,496.082L1779.1,496.11L1778.89,496.139L1778.69,496.17L1778.49,496.204L1778.29,496.239L1778.09,496.277L1777.89,496.317L1777.69,496.36L1777.49,496.405L1777.3,496.453L1777.11,496.503L1776.92,496.555L1776.82,496.583L1776.73,496.611L1776.63,496.64L1776.54,496.669L1776.44,496.699L1776.35,496.73L1776.26,496.762L1776.16,496.794L1776.07,496.827L1775.98,496.861L1775.89,496.896L1775.8,496.931L1775.71,496.967L1775.62,497.004L1775.53,497.042L1775.44,497.081L1775.35,497.12L1775.26,497.16L1775.18,497.201L1775.09,497.243L1775,497.286L1774.91,497.329L1774.83,497.374L1774.74,497.419L1774.66,497.465L1774.58,497.512L1774.49,497.56L1774.41,497.609L1774.33,497.659L1774.24,497.71L1774.16,497.762L1774.08,497.814L1774,497.868L1773.92,497.922L1773.84,497.978L1773.76,498.034L1773.68,498.092L1773.6,498.15L1773.53,498.21L1773.45,498.27L1773.37,498.332L1773.3,498.394L1773.22,498.458L1773.15,498.522L1773.86,503.768L1773.95,505L1794.53,505L1794.8,504.561L1794.74,504.403L1794.67,504.246L1794.6,504.09L1794.53,503.935L1794.46,503.781L1794.39,503.628L1794.31,503.476L1794.24,503.326L1794.16,503.176L1794.08,503.028L1794,502.88L1793.92,502.734L1793.83,502.589L1793.75,502.445L1793.66,502.302L1793.57,502.16L1793.48,502.019L1793.39,501.879L1793.3,501.74L1793.2,501.603L1793.11,501.466L1793.01,501.331L1792.91,501.197L1792.81,501.064L1792.71,500.931L1792.61,500.8L1792.5,500.671L1792.39,500.542L1792.29,500.414L1792.17,500.287L1792.06,500.162L1791.95,500.037L1791.84,499.914L1791.72,499.792L1791.6,499.671L1791.48,499.55L1791.36,499.431L1791.24,499.314L1791.11,499.197L1790.99,499.081L1790.86,498.966L1790.73,498.853L1790.6,498.74L1790.47,498.629L1790.34,498.519L1790.2,498.41L1790.07,498.302L1789.93,498.195L1789.79,498.089L1789.65,497.984L1789.5,497.88L1789.36,497.778L1789.21,497.676L1789.07,497.576L1788.92,497.477L1788.77,497.379L1788.61,497.281L1788.46,497.185L1788.31,497.091L1788.15,496.997L1787.99,496.904L1787.83,496.812L1787.67,496.722L1787.51,496.633L1785.76,495.837L1784.88,495.837L1784.44,495.838ZM1828.75,487.59L1827.48,487.909L1826.05,492.825L1827.63,493.617L1827.16,495.837L1825.89,495.522L1823.63,505L1834.42,505L1833.98,502.661L1832.24,501.708L1832.39,497.741L1830.97,496.473L1830.97,494.41L1832.55,494.251L1833.03,488.701L1831.28,488.224L1830.65,484.259L1828.75,487.59Z" style="fill-opacity:0.71;"/>
            </g>
        </g>
    </g>
    <defs>
        <radialGradient id="_Radial1" cx="0" cy="0" r="1" gradientUnits="userSpaceOnUse" gradientTransform="matrix(99.7942,0,0,99.7942,233.356,334.206)"><stop offset="0" style="stop-color:#fffdd0;stop-opacity:1"/><stop offset="1" style="stop-color:#eedbb0;stop-opacity:1"/></radialGradient>
    </defs>
</svg>
