<?xml version="1.0" encoding="utf-8"?>
<!DOCTYPE svg PUBLIC "-//W3C//DTD SVG 1.1//EN" "http://www.w3.org/Graphics/SVG/1.1/DTD/svg11.dtd">
<svg version="1.1" xmlns="http://www.w3.org/2000/svg" xmlns:xlink="http://www.w3.org/1999/xlink" xmlns:xml="http://www.w3.org/XML/1998/namespace" xmlns:serif="http://www.serif.com/" width="91" height="91" viewBox="0, 0, 91, 91" xml:space="preserve" fill-rule="evenodd" stroke-linejoin="round" stroke-miterlimit="2" style="clip-rule:evenodd;">
	<filter xmlns="http://www.w3.org/2000/svg" height="150%" id="dropshadow">
      <feGaussianBlur stdDeviation="2" in="SourceAlpha" /> 
      <feOffset dx="0" dy="0" result="offsetblur" /> 
      <feMerge> 
        <feMergeNode />
        <feMergeNode in="SourceGraphic" /> 
      </feMerge>
    </filter>
	
	<path d="M7.4 70.4 C5.8 67.9 4.4 65.2 3.3 62.5 C2.2 59.7 1.3 56.8 0.8 53.9 C0.2 51 -0 48 0 45 C0 42.1 0.4 39.1 1 36.2 C1.6 33.3 2.5 30.4 3.6 27.7 C4.8 24.9 6.2 22.3 7.9 19.8 C9.6 17.4 11.5 15.1 13.6 13 C15.8 10.9 18.1 9.1 20.6 7.4 C23.1 5.8 25.7 4.4 28.5 3.3 C31.2 2.2 34.1 1.3 37 0.8 C39.9 0.2 42.9 -0 45.9 0 C48.9 0 51.9 0.4 54.8 1 C57.7 1.6 60.5 2.5 63.3 3.6 C66 4.8 68.6 6.2 71.1 7.9 C73.6 9.6 75.8 11.5 77.9 13.6 C80 15.8 81.9 18.1 83.5 20.6 C85.1 23.1 86.5 25.7 87.6 28.5 C88.8 31.2 89.6 34.1 90.2 37 C90.7 39.9 91 42.9 90.9 45.9 C90.9 48.9 90.6 51.9 90 54.8 C89.4 57.7 88.5 60.5 87.3 63.3 C86.1 66 84.7 68.6 83 71.1 C81.4 73.5 79.4 75.8 77.3 77.9 C75.2 80 72.9 81.9 70.4 83.5 C67.9 85.1 65.2 86.5 62.5 87.6 C59.7 88.8 56.8 89.6 53.9 90.1 C51 90.7 48 91 45 90.9 C42.1 90.9 39.1 90.6 36.2 90 C33.3 89.4 30.4 88.5 27.7 87.3 C24.9 86.1 22.3 84.7 19.8 83 C17.4 81.4 15.1 79.4 13 77.3 C10.9 75.2 9.1 72.9 7.4 70.4 z" fill-rule="nonzero" style="fill:#289caa;" />
	
	<path
       style="fill:#ffffff;fill-opacity:1;stroke:#black;stroke-width:1" filter="url(#dropshadow)" fill-rule="nonzero"
       d="m 32.882549,10.849594 0.832135,2.732484 0.832135,2.732484 0.249056,0.883203 0.249472,0.8832 -5.150196,5.117549 -5.150198,5.117548 -1.7618,2.143125 -1.762218,2.143125 -1.769333,2.357438 -1.769753,2.357437 -2.071129,3.084929 -2.070711,3.084928 v 2.657558 2.657558 l 0.344072,1.370847 0.344491,1.371265 0.352025,0.297192 0.352443,0.297609 3.000375,0.605684 3.000375,0.605265 0.53913,0.09083 0.539548,0.09083 0.411882,-1.249039 0.411883,-1.249459 0.484715,-1.127233 0.484713,-1.127234 0.707399,-0.664703 0.707399,-0.664703 1.376288,-0.656751 1.376706,-0.656332 1.67348,-0.09711 1.673898,-0.09669 1.947648,0.378395 1.948067,0.378396 1.733755,-0.118876 1.733755,-0.118877 1.768077,-0.876086 1.768079,-0.876086 0.929664,-1.034309 0.930083,-1.034309 0.582244,-1.070306 0.582243,-1.070307 0.328585,-1.261179 0.328584,-1.261597 v -0.919201 -0.919618 h 0.197569 0.197569 l 0.258683,0.783999 0.258681,0.783998 -0.115109,1.841331 -0.115109,1.841329 -0.876924,2.707788 -0.876923,2.707788 v 0.175385 0.175384 l 0.884458,-0.847203 0.884876,-0.847205 1.004171,-1.51986 1.004172,-1.519861 0.280029,-0.676842 0.280449,-0.676843 h 0.18836 0.18836 v 0.609032 0.608615 l -0.421927,1.649202 -0.421927,1.64962 -0.909573,1.760124 -0.909572,1.760126 -1.09333,1.077004 -1.093747,1.077422 -2.23605,1.097934 -2.236467,1.097933 -1.821657,0.578057 -1.821656,0.577639 -1.756357,0.708236 -1.75594,0.707818 -1.887373,1.129326 -1.886955,1.129327 -1.719523,1.73208 -1.719104,1.731661 -0.776883,1.607345 -0.776464,1.607343 -0.287564,1.178718 -0.287145,1.178719 0.01423,2.250281 0.01423,2.250282 0.506062,2.035968 0.506481,2.035969 0.147757,-0.642937 0.148178,-0.642938 0.02763,-1.178719 0.02804,-1.178718 0.28589,-1.071563 0.286307,-1.071562 0.446205,-0.871901 0.445787,-0.872318 0.849717,-1.074493 0.849296,-1.074911 1.324384,-0.995381 1.324803,-0.9958 1.926301,-0.964406 1.926301,-0.964407 2.505196,-0.770603 2.504778,-0.771023 2.893637,-0.934688 2.8928,-0.934686 2.107964,-0.979056 2.107965,-0.979476 1.535348,-0.98994 1.535767,-0.990358 0.85725,-0.763907 0.856831,-0.763907 0.964825,-1.193369 0.963988,-1.193369 0.700282,-1.424844 0.700283,-1.424423 0.424858,-1.661341 0.425277,-1.66134 V 42.976377 41.095701 L 58.451454,39.635278 58.142961,38.174437 57.808516,37.377881 57.47449,36.580906 v -0.264123 -0.263705 l 0.197151,0.20343 0.197151,0.203429 0.748837,1.500188 0.748838,1.500187 0.472576,1.821656 0.472576,1.821657 0.103389,1.928812 0.10339,1.928813 -0.345329,1.469631 -0.345745,1.469213 -0.694423,1.424006 -0.694423,1.423587 -1.821656,1.845934 -1.821238,1.845515 -1.7145,0.997892 -1.714919,0.997893 -1.714081,0.665959 -1.7145,0.665542 -3.643731,0.91878 -3.642894,0.918363 -1.500606,0.569686 -1.499769,0.569268 -1.575531,0.84553 -1.575532,0.84553 -1.254901,0.985754 -1.254482,0.985754 -0.752605,1.100862 -0.752605,1.100863 -0.328585,1.277504 -0.328165,1.277504 0.0038,1.508558 0.0041,1.508559 0.20343,1.393032 0.203848,1.393031 0.373791,1.178719 0.373791,1.178718 0.140224,-2.035969 0.140223,-2.035968 0.1712,-0.428625 0.171617,-0.428625 0.83381,-1.009194 0.834228,-1.009613 1.326477,-1.003753 1.326896,-1.003753 1.500187,-0.712421 1.500188,-0.712422 1.285875,-0.341979 1.285875,-0.341561 6.298359,-0.296773 6.298779,-0.296353 1.710314,-1.029705 1.710314,-1.029286 1.417728,-1.186254 1.417309,-1.186253 1.345313,-1.599808 1.344894,-1.59981 1.176627,-2.357437 1.176625,-2.357438 0.535363,-1.899093 0.535781,-1.899094 v -0.619077 -0.61908 h 0.244869 0.245287 l -0.143153,1.53786 -0.142737,1.537441 -0.43281,1.694408 -0.432392,1.694826 -0.803254,1.857654 -0.802835,1.857655 -1.152348,1.704036 -1.152348,1.703616 -1.625343,1.635808 -1.625342,1.635807 -1.27876,0.93385 -1.27834,0.934269 -1.396798,0.816229 -1.397218,0.816229 h 0.21515 0.21515 l 1.603158,-0.438671 1.603158,-0.439089 1.071562,-0.397232 1.071563,-0.397232 1.642085,-0.750512 1.642087,-0.750094 1.265364,-0.859762 1.265783,-0.859342 1.207601,-1.036401 1.20802,-1.036821 1.093328,-1.368335 1.093747,-1.368754 0.736699,-1.462515 0.7367,-1.462934 0.546664,-1.883607 0.547083,-1.883605 0.125154,-2.357438 0.125156,-2.357437 -0.236916,-2.143125 -0.236915,-2.143125 -0.14148,-1.017985 -0.141062,-1.017984 h 0.21222 0.21222 l 0.460437,1.553765 0.460856,1.553766 0.364582,1.607345 0.364164,1.607343 -0.0084,3.750468 -0.0084,3.750469 -0.578476,2.786063 -0.578895,2.786062 -1.153186,3.429 -1.152767,3.429 0.06613,0.06697 0.06655,0.06697 1.303874,-1.949322 1.303874,-1.949324 0.740885,-1.546649 0.740886,-1.54665 0.570104,-1.70571 0.569686,-1.706128 0.408534,-2.105871 0.408114,-2.105454 V 51.86323 48.743141 L 75.892807,46.58118 75.452462,44.419219 74.806595,42.475756 74.161146,40.531875 72.984101,38.128393 71.806639,35.724912 70.718332,34.056456 69.630446,32.388 68.651807,31.102125 67.673588,29.81625 l -1.403077,-1.471724 -1.402658,-1.471724 -1.500188,-1.223089 -1.500187,-1.223088 -1.330245,-0.896178 -1.329826,-0.896596 -2.335671,-1.174115 -2.335672,-1.174114 -2.549565,-0.847204 -2.549146,-0.847204 -3.429,-0.675587 -3.429,-0.675587 -0.924641,-0.403091 -0.924641,-0.403092 -3.706937,-2.791922 -3.706937,-2.792341 h -0.216824 z m 0.169525,15.880054 0.227707,0.103807 -0.269146,0.227707 -0.06195,0.248217 -1.118025,1.118025 h -0.248636 l -0.372535,0.372955 -0.227708,0.04144 -0.186267,0.206777 -0.310587,0.02092 -0.124317,0.206779 h -1.179975 l -0.559221,-0.662192 -0.641682,0.04102 0.02051,-0.1239 1.780635,-1.780635 0.207197,0.02051 v 0.248636 l 1.532,-0.08288 -0.04144,-0.186268 z"
	   />

</svg>