<?xml version="1.0" encoding="UTF-8" standalone="no"?>
<!DOCTYPE svg PUBLIC "-//W3C//DTD SVG 1.1//EN" "http://www.w3.org/Graphics/SVG/1.1/DTD/svg11.dtd">
<svg width="91" height="91" viewBox="0 0 91 91" version="1.1" xmlns="http://www.w3.org/2000/svg" xmlns:xlink="http://www.w3.org/1999/xlink" xml:space="preserve" xmlns:serif="http://www.serif.com/" style="fill-rule:evenodd;clip-rule:evenodd;stroke-linejoin:round;stroke-miterlimit:2;">
	<filter xmlns="http://www.w3.org/2000/svg" id="dropshadow" height="150%">
      <feGaussianBlur in="SourceAlpha" stdDeviation="2"/> 
      <feOffset dx="0" dy="0" result="offsetblur"/> 
      <feMerge> 
        <feMergeNode/>
        <feMergeNode in="SourceGraphic"/> 
      </feMerge>
    </filter>
    <g transform="matrix(1,0,0,1,-153.134,-122.249)">
        <g transform="matrix(1,0,0,1,9,26)">
			<path d="M151.558,166.621C149.929,164.131 148.544,161.48 147.431,158.72C146.319,155.96 145.478,153.09 144.925,150.166C144.372,147.242 144.108,144.263 144.136,141.287C144.164,138.311 144.486,135.338 145.094,132.425C145.702,129.512 146.598,126.659 147.763,123.92C148.928,121.181 150.362,118.558 152.039,116.099C153.716,113.64 155.635,111.347 157.76,109.263C159.884,107.179 162.213,105.303 164.704,103.674C167.194,102.044 169.844,100.659 172.604,99.547C175.365,98.434 178.234,97.593 181.159,97.041C184.083,96.488 187.062,96.223 190.038,96.251C193.013,96.28 195.987,96.601 198.9,97.209C201.813,97.818 204.666,98.713 207.405,99.878C210.143,101.043 212.767,102.478 215.226,104.155C217.684,105.832 219.978,107.751 222.062,109.875C224.146,111.999 226.021,114.329 227.651,116.819C229.281,119.309 230.665,121.96 231.778,124.72C232.891,127.48 233.731,130.35 234.284,133.274C234.837,136.198 235.102,139.177 235.073,142.153C235.045,145.129 234.724,148.102 234.115,151.015C233.507,153.928 232.612,156.782 231.447,159.52C230.282,162.259 228.847,164.882 227.17,167.341C225.493,169.8 223.574,172.093 221.45,174.177C219.326,176.262 216.996,178.137 214.506,179.766C212.016,181.396 209.365,182.781 206.605,183.893C203.845,185.006 200.975,185.847 198.051,186.399C195.126,186.952 192.148,187.217 189.172,187.189C186.196,187.16 183.223,186.839 180.31,186.231C177.396,185.622 174.543,184.727 171.805,183.562C169.066,182.397 166.442,180.962 163.984,179.285C161.525,177.609 159.232,175.69 157.147,173.565C155.063,171.441 153.188,169.111 151.558,166.621Z" style="fill:rgb(227,166,49);fill-rule:nonzero;"/>

            <g id="icon_fremen" filter="url(#dropshadow)">
                <path d="M181.437,139.025L181.285,139.2L180.601,138.673L176.662,140.609L176.662,143.414L174.159,145.37C172.956,146.366 171.749,147.39 170.847,148.654C170.106,149.694 169.57,150.897 169.268,152.148C169.018,153.183 168.929,154.251 168.988,155.306L167.107,155.306L167.107,159.93L170.262,162.223L174.748,164.837C176.59,165.752 178.514,166.51 180.478,167.115L180.478,161.54L179.201,159.452C178.744,158.795 178.21,158.178 177.924,157.433C177.58,156.541 177.591,155.466 177.924,154.57C178.372,153.361 179.405,152.477 180.305,151.533L182.202,149.445L184.965,149.398L187.886,146.966L186.81,145.205L188.112,143.779L185.68,141.771L181.437,139.025Z" style="fill:white;fill-rule:nonzero;"/>
                <path d="M198.19,136.39C200.31,135.218 202.474,134.085 204.148,132.412C205.737,130.824 206.886,128.749 207.613,126.557C208.597,123.597 208.813,120.423 208.339,117.397L204.051,122.207C202.577,123.712 201.043,125.17 199.361,126.415C196.961,128.193 194.26,129.538 191.637,131.014L193.871,132.559C195.376,133.684 196.787,134.934 198.19,136.39Z" style="fill:white;fill-rule:nonzero;"/>
                <path d="M170.87,117.397L175.159,122.207C176.632,123.712 178.166,125.17 179.848,126.415C182.448,128.34 185.4,129.758 188.225,131.385C190.249,132.551 192.207,133.824 193.996,135.313C195.412,136.491 196.722,137.805 197.924,139.2L198.608,138.673L202.548,140.609L202.548,143.414L205.05,145.37C206.254,146.366 207.46,147.39 208.362,148.654C209.104,149.694 209.64,150.897 209.941,152.148C210.191,153.183 210.28,154.251 210.221,155.306L212.102,155.306L212.102,159.93L208.947,162.223L204.461,164.837C202.619,165.752 200.696,166.51 198.731,167.115L198.731,161.54L200.009,159.452C200.466,158.795 200.999,158.178 201.285,157.433C201.629,156.541 201.618,155.466 201.285,154.57C200.837,153.361 199.804,152.477 198.905,151.533L197.007,149.445L194.244,149.398L191.323,146.966L192.399,145.205C191.232,143.863 189.971,142.589 188.617,141.44C186.414,139.571 183.965,138.033 181.406,136.605C179.164,135.354 176.838,134.187 175.062,132.412C173.472,130.824 172.324,128.749 171.596,126.557C170.613,123.597 170.397,120.423 170.87,117.397Z" style="fill:white;fill-rule:nonzero;"/>
            </g>
        </g>
    </g>
</svg>
