<?xml version="1.0" encoding="utf-8"?>
<!DOCTYPE svg PUBLIC "-//W3C//DTD SVG 1.1//EN" "http://www.w3.org/Graphics/SVG/1.1/DTD/svg11.dtd">
<svg version="1.1" xmlns="http://www.w3.org/2000/svg" xmlns:xlink="http://www.w3.org/1999/xlink" xmlns:xml="http://www.w3.org/XML/1998/namespace" xmlns:serif="http://www.serif.com/" width="91" height="91" viewBox="0, 0, 91, 91" xml:space="preserve" fill-rule="evenodd" stroke-linejoin="round" stroke-miterlimit="2" style="clip-rule:evenodd;">
	<filter xmlns="http://www.w3.org/2000/svg" height="150%" id="dropshadow">
      <feGaussianBlur stdDeviation="2" in="SourceAlpha" /> 
      <feOffset dx="0" dy="0" result="offsetblur" /> 
      <feMerge> 
        <feMergeNode />
        <feMergeNode in="SourceGraphic" /> 
      </feMerge>
    </filter>
	
	<path d="M7.4 70.4 C5.8 67.9 4.4 65.2 3.3 62.5 C2.2 59.7 1.3 56.8 0.8 53.9 C0.2 51 -0 48 0 45 C0 42.1 0.4 39.1 1 36.2 C1.6 33.3 2.5 30.4 3.6 27.7 C4.8 24.9 6.2 22.3 7.9 19.8 C9.6 17.4 11.5 15.1 13.6 13 C15.8 10.9 18.1 9.1 20.6 7.4 C23.1 5.8 25.7 4.4 28.5 3.3 C31.2 2.2 34.1 1.3 37 0.8 C39.9 0.2 42.9 -0 45.9 0 C48.9 0 51.9 0.4 54.8 1 C57.7 1.6 60.5 2.5 63.3 3.6 C66 4.8 68.6 6.2 71.1 7.9 C73.6 9.6 75.8 11.5 77.9 13.6 C80 15.8 81.9 18.1 83.5 20.6 C85.1 23.1 86.5 25.7 87.6 28.5 C88.8 31.2 89.6 34.1 90.2 37 C90.7 39.9 91 42.9 90.9 45.9 C90.9 48.9 90.6 51.9 90 54.8 C89.4 57.7 88.5 60.5 87.3 63.3 C86.1 66 84.7 68.6 83 71.1 C81.4 73.5 79.4 75.8 77.3 77.9 C75.2 80 72.9 81.9 70.4 83.5 C67.9 85.1 65.2 86.5 62.5 87.6 C59.7 88.8 56.8 89.6 53.9 90.1 C51 90.7 48 91 45 90.9 C42.1 90.9 39.1 90.6 36.2 90 C33.3 89.4 30.4 88.5 27.7 87.3 C24.9 86.1 22.3 84.7 19.8 83 C17.4 81.4 15.1 79.4 13 77.3 C10.9 75.2 9.1 72.9 7.4 70.4 z" fill-rule="nonzero" style="fill:#a85f9c;" />
	
    <path
        style="fill:#fafaee;fill-opacity:1;stroke:#000000;stroke-width:0.478576;stroke-opacity:1"
        d="m 41.696436,87.496313 -1.252204,-0.01928 -1.605457,-0.738442 -1.605457,-0.738437 -0.148379,-0.157324 -0.148376,-0.157318 0.290487,-0.802639 0.290489,-0.802637 0.985795,0.732105 0.985797,0.732106 h 1.755673 1.755673 V 84.863756 84.183073 L 40.798991,83.595308 38.597507,83.007552 38.01036,82.49089 37.423215,81.974224 v -1.095263 -1.095257 l 0.849946,-0.815564 0.849948,-0.815563 h 1.729379 1.729379 l 1.371234,0.75184 1.371235,0.751841 v 0.451051 0.451057 l -0.451644,0.295957 -0.451645,0.295958 -1.145017,-0.795472 -1.145015,-0.795473 -1.272321,0.159004 -1.272321,0.159005 -0.190685,0.615728 -0.190684,0.61573 0.619613,0.222325 0.619615,0.222325 1.99594,0.542011 1.995943,0.542017 0.543596,1.264989 0.543596,1.264988 -1.287333,1.174069 -1.287332,1.174075 -1.252206,-0.01927 z m 8.60233,-0.481049 -1.953414,-0.0075 -0.517528,-0.362044 -0.517527,-0.362048 0.321161,-0.95287 0.321157,-0.952877 0.339992,0.583283 0.339988,0.583277 h 1.397444 1.397438 l 0.898991,-0.51008 0.898989,-0.510132 V 84.048776 83.573322 H 50.702411 48.179364 L 47.449007,82.798935 46.718651,82.024538 V 80.90414 79.783739 l 0.813351,-0.760721 0.81335,-0.760715 1.394316,-0.302575 1.394316,-0.302571 1.394316,0.406377 1.394314,0.406382 v 0.681317 0.681313 l -2.358155,-0.132708 -2.358149,-0.132705 -0.599016,0.765281 -0.599018,0.765278 0.633313,0.238732 0.633308,0.238733 2.508377,0.136696 2.508373,0.13669 0.464889,0.78611 0.464888,0.786115 -0.289683,1.223762 -0.289683,1.223767 -1.194942,0.577274 -1.194941,0.577276 -1.953409,-0.0075 z m -16.003906,-0.518599 -0.357434,-0.03335 -0.973842,-0.500728 -0.97384,-0.500732 0.201861,-1.119625 0.20186,-1.119629 -1.931093,-0.819251 -1.931096,-0.819256 -0.434133,0.284489 -0.434136,0.284483 v 0.710106 0.710102 h -0.262942 -0.26294 l -0.906259,-0.514253 -0.906259,-0.514256 3.023284,-2.812081 3.023286,-2.812085 0.005,-0.590353 0.005,-0.590354 1.278122,0.477902 1.278121,0.477909 0.09824,3.808376 0.09824,3.808381 0.259188,1.108779 0.25919,1.10878 -0.357436,-0.03337 z m -2.645595,-4.9021 0.500469,0.0075 -0.211108,-1.52514 -0.21111,-1.525093 -0.986518,1.048526 -0.986518,1.048526 0.697158,0.469023 0.697157,0.469018 0.50047,0.0075 z m 26.645175,3.949871 h -0.432252 l 0.220418,-1.847966 0.220417,-1.847966 0.26026,-2.542405 0.260257,-2.542407 -0.578897,-0.204597 -0.578896,-0.2046 1.498029,-0.553696 1.498031,-0.5537 v 0.40299 0.402984 l 3.258195,2.877663 3.258194,2.877656 -1.05053,0.618579 -1.050527,0.618587 -0.37601,0.01743 -0.376005,0.01743 0.254695,-0.436952 0.254699,-0.436958 -0.642714,-0.565562 -0.64272,-0.565562 -1.949782,0.827181 -1.949779,0.827178 0.204852,1.136232 0.204854,1.136228 -0.666268,0.271083 -0.666265,0.271085 H 58.29444 Z m 2.018788,-4.442662 0.580963,-0.0075 0.678678,-0.455156 0.678676,-0.455161 -0.894343,-1.047817 -0.894345,-1.047816 -0.332629,0.894532 -0.332632,0.894535 -0.03268,0.615988 -0.03267,0.615979 0.580966,-0.0075 z M 22.847309,80.616529 h -1.044814 l -2.802535,-2.094363 -2.802535,-2.09436 2.045237,-2.956746 2.045235,-2.956745 0.37591,-0.690778 0.37591,-0.690778 2.814192,2.09305 2.814191,2.093044 0.263399,0.727793 0.263402,0.727789 -0.479458,0.949882 -0.479458,0.949883 h -0.735011 -0.735012 l 0.235218,0.953705 0.235218,0.953702 -0.672137,1.017459 -0.67214,1.017463 z m -0.672802,-1.988886 0.785923,0.01774 0.261322,-0.448321 0.261324,-0.448321 -0.244097,-0.660458 -0.244098,-0.660458 -1.535279,-1.05686 -1.53528,-1.056858 -0.589783,1.001322 -0.58978,1.001326 1.321914,1.146591 1.321913,1.146592 0.785921,0.01774 z m 2.028627,-3.431814 h 0.671241 v -0.646513 -0.646511 l -1.439758,-1.128634 -1.439758,-1.12863 -0.535523,0.577448 -0.535522,0.577448 1.30404,1.197695 1.304042,1.197697 z m 47.497004,3.670837 -2.207667,1.868585 -0.01181,-0.67535 -0.01181,-0.675349 -2.330078,-2.956746 -2.330083,-2.956746 1.760919,-1.594619 1.760919,-1.594628 1.471536,-0.749644 1.471538,-0.749646 1.139867,0.459502 1.139863,0.459503 0.990582,1.335236 0.990577,1.335237 -0.01027,1.288715 -0.01027,1.288718 -0.803018,1.024325 -0.803014,1.024324 -2.207666,1.868583 z m -0.915921,-1.206882 h 0.284092 l 1.303554,-1.324174 1.303554,-1.324172 v -0.984824 -0.984821 l -1.010558,-1.140541 -1.010561,-1.140539 h -0.785852 -0.785844 l -1.22461,1.021348 -1.224608,1.02135 v 0.509306 0.509305 l 1.433368,1.918883 1.433372,1.918879 z m -56.510935,-5.549811 -1.378416,1.102867 -0.615569,-0.786432 -0.61557,-0.786434 1.144255,-0.897475 1.144255,-0.897475 0.929543,-0.805083 0.929546,-0.805082 -2.904826,0.301814 -2.904823,0.301814 v -0.230008 -0.230011 l 0.941224,-2.328162 0.941224,-2.32816 -0.220154,-0.233424 -0.220153,-0.233426 -1.7530549,1.532132 -1.7530557,1.53213 -0.6832444,-0.724437 -0.6832446,-0.724432 0.2047212,-0.171111 0.2047208,-0.171107 2.9048249,-2.33338 2.9048227,-2.333379 v -0.49147 -0.491469 l 1.120252,1.380883 1.12025,1.380883 -0.393802,0.258055 -0.393802,0.258055 -0.968536,2.395722 -0.968537,2.395718 2.441027,-0.343336 2.44103,-0.343334 0.291489,-0.500074 0.29149,-0.500076 0.93116,1.355338 0.931159,1.355338 -1.990895,1.517583 -1.990897,1.51758 z m 63.842821,-1.34926 H 76.421795 L 75.280996,69.551132 74.14019,68.341559 v -2.042846 -2.04284 l 1.580223,-1.675486 1.580224,-1.67549 h 1.694303 1.694308 l 1.140801,1.209578 1.140804,1.209574 v 2.042846 2.042839 l -1.580223,1.675488 -1.580224,1.675491 z m 0.184547,-1.971165 h 1.350404 l 0.699909,-0.742103 0.69991,-0.742104 0.301376,-1.00679 0.301377,-1.006795 -0.746415,-1.207847 -0.746419,-1.20785 H 78.810393 77.45999 l -0.69991,0.742104 -0.699909,0.742105 -0.301378,1.00679 -0.301376,1.006795 0.746415,1.207846 0.746419,1.207849 z m -33.905858,0.937851 -3.021018,-0.03063 -2.987545,-0.686952 -2.987548,-0.686948 -3.45937,-1.741889 -3.459368,-1.741885 -3.425655,-3.632174 -3.425655,-3.632171 -1.634718,-3.649768 -1.634718,-3.64977 -0.739164,-3.678593 -0.739163,-3.678594 0.249244,-4.435118 0.249245,-4.435117 1.001381,-3.20314 1.001384,-3.20314 1.457795,-2.956744 1.457792,-2.956745 4.890314,-5.301517 4.890313,-5.301517 1.583085,-0.470299 1.583084,-0.4703 0.430305,0.281976 0.430307,0.281978 -1.306191,1.445562 -1.306192,1.445559 -2.070569,0.552808 -2.070569,0.552806 -2.819577,3.024801 -2.819577,3.024799 -1.543316,2.765579 -1.543317,2.765577 -1.214079,3.614584 -1.214079,3.614582 -0.0053,6.406281 -0.0053,6.40628 1.193028,3.322174 1.193028,3.322174 1.56962,2.771963 1.569618,2.771962 2.691516,2.595209 2.691515,2.59521 2.910328,1.519121 2.910327,1.519127 2.996437,0.748839 2.996436,0.748845 h 3.718173 3.718175 l 2.906485,-0.726595 2.906482,-0.726592 3.280852,-1.751816 3.280852,-1.751813 2.9333,-3.110136 2.933303,-3.110137 1.691336,-3.643999 1.691332,-3.644002 0.683063,-3.449534 0.683059,-3.449535 v -2.95674 -2.956744 l -0.686251,-3.435397 -0.686333,-3.4354 -1.618666,-3.613925 -1.618661,-3.613926 -2.088335,-2.806492 -2.088336,-2.806491 -1.563429,-1.31087 -1.563427,-1.310868 -1.913187,-0.60776 -1.913186,-0.607761 -1.267345,-1.402568 -1.267344,-1.402568 0.281465,-0.298431 0.281462,-0.298429 1.537701,0.358097 1.537704,0.358097 4.917156,5.232694 4.91715,5.232694 1.445306,2.710347 1.445311,2.710349 1.269318,3.942328 1.269325,3.942326 0.03875,5.174303 0.03877,5.174304 -0.627511,2.710348 -0.627517,2.71035 -1.618836,3.628817 -1.618839,3.628818 -3.326687,3.564523 -3.32669,3.564525 -3.485787,1.806481 -3.485789,1.80648 -3.253403,0.724238 -3.253404,0.724239 -3.021016,-0.03061 z m -19.055644,-3.428637 -1.626704,-0.01174 -1.394314,-0.647739 -1.394316,-0.647735 -1.531124,-1.666446 -1.531129,-1.666445 0.474705,-0.167771 0.474706,-0.167775 2.508898,0.552244 2.508899,0.552243 2.228564,1.498516 2.228564,1.498518 -0.660025,0.442936 -0.660022,0.44292 z m 38.474797,0.01926 -1.525438,-0.0075 -0.660021,-0.442937 -0.660028,-0.442935 2.216265,-1.490244 2.216259,-1.490244 2.301005,-0.523229 2.301008,-0.523228 h 0.765456 0.765451 l -1.601679,1.783529 -1.601681,1.783529 -1.495581,0.680426 -1.495578,0.680426 -1.525438,-0.0075 z m -33.905319,-4.661076 -0.154146,1.400508 -1.510511,-1.606981 -1.510507,-1.606981 0.0071,-2.302848 0.0071,-2.302849 0.417074,-0.698651 0.417073,-0.698651 0.968772,1.684234 0.968771,1.684232 0.271694,1.523742 0.271692,1.523739 z m 30.998142,-0.375224 -1.614124,1.840727 -0.0126,-2.36523 -0.0126,-2.365228 0.755243,-1.577097 0.755246,-1.577099 0.481851,-0.639314 0.481853,-0.639315 0.382489,0.639315 0.382485,0.639314 0.0071,2.101597 0.0071,2.101599 -1.614124,1.840731 z M 7.6001122,58.960806 4.9661619,62.381722 4.5434556,61.037152 4.1207482,59.692581 l 0.8620002,-0.749018 0.862,-0.749016 -0.7806673,-2.09436 -0.7806684,-2.094361 H 3.4631014 2.6427901 l -0.1616296,0.514118 -0.1616285,0.514118 -0.5001643,-1.40497 -0.5001634,-1.404969 3.0631138,0.436369 3.0631137,0.436368 1.4800483,-0.18198 1.4800479,-0.181978 0.495233,1.152438 0.495231,1.152441 v 0.223208 0.223208 l -0.580964,0.02785 -0.580965,0.02785 z m -0.9680306,-2.013721 0.3485788,-0.01549 0.8350484,-1.216493 0.8350484,-1.21649 H 7.1850191 5.7192797 l 0.2821121,0.77949 0.2821109,0.779491 v 0.452488 0.452486 l 0.3485789,-0.01547 z m 79.4217764,3.918871 -0.526759,-0.03892 -3.192062,-1.43257 -3.192061,-1.432571 -0.359614,0.235651 -0.359613,0.235651 1.277102,-3.480309 1.277104,-3.48031 0.756758,-0.802382 0.756761,-0.802383 1.285425,0.476516 1.285428,0.476515 0.151084,1.390245 0.151079,1.390242 1.243237,-0.313935 1.243232,-0.313936 0.813349,-0.256201 0.813354,-0.256201 -0.01644,0.402801 -0.01644,0.4028 -0.564499,0.985583 -0.564494,0.985581 -0.580964,0.04929 -0.580966,0.04929 -0.896345,0.07392 -0.896345,0.07392 -0.730356,0.774386 -0.730356,0.774385 v 0.425695 0.425692 l 1.564641,0.599892 1.564644,0.599889 -0.224537,0.910379 -0.22453,0.910381 -0.526758,-0.03892 z m -3.561385,-3.648073 0.314218,-0.205906 0.632974,-2.033549 0.632972,-2.033545 -0.644894,-0.422595 -0.644894,-0.422594 -0.377814,0.247577 -0.377807,0.247578 -0.711133,1.804584 -0.711134,1.804585 0.786646,0.609885 0.786645,0.609886 z m -62.38926,1.715849 h -1.052989 l -1.619449,-0.913684 -1.619449,-0.913684 -1.038093,-1.919861 -1.03809,-1.919864 -0.0076,-0.590352 -0.0076,-0.590356 1.498091,0.553719 1.498087,0.55372 2.220087,2.353926 2.220084,2.353923 v 0.516258 0.516255 z m 48.970437,0 h -0.975495 v -0.323076 -0.32308 l 1.222866,-1.699912 1.222865,-1.699911 2.121532,-1.426546 2.121529,-1.426546 h 0.37378 0.373779 v 0.640546 0.640545 l -1.262335,2.064174 -1.262335,2.064171 -1.480344,0.744818 -1.480346,0.744817 z M 46.157676,58.440942 H 45.535595 L 44.32538,57.157766 43.115162,55.874592 41.893565,56.723269 40.671964,57.571945 39.977133,56.960523 39.282302,56.3491 v -0.864903 -0.864902 l 0.70839,-0.623353 0.708388,-0.623352 -0.240768,-0.255284 -0.240767,-0.255284 -0.915084,0.878063 -0.915081,0.878063 -0.725011,-0.294984 -0.725008,-0.294985 -0.278215,-0.768718 -0.278212,-0.768717 0.82556,-0.967228 0.82556,-0.967226 h -0.509375 -0.509377 l -0.287244,0.49279 -0.287245,0.492791 h -0.845206 -0.845206 l -0.609911,-0.7792 -0.609911,-0.779202 0.563492,-0.956689 0.56349,-0.956686 -0.902292,0.597461 -0.902292,0.597461 -0.734898,-0.646681 -0.734899,-0.646678 v -0.685534 -0.685532 l 0.573297,-0.973336 0.573298,-0.973338 -1.026588,-1.088475 -1.026589,-1.088478 -1.180355,1.175737 -1.180357,1.175736 -1.852142,-1.917596 -1.852142,-1.917598 V 40.007662 39.02208 l 1.852142,1.917597 1.852142,1.917598 1.174197,-1.169601 1.174196,-1.169602 1.511948,1.553781 1.511946,1.553782 0.969691,-0.268869 0.96969,-0.268865 0.746697,0.79171 0.746696,0.791711 -0.262362,0.724926 -0.262365,0.724925 h 0.92236 0.922361 l 0.573677,0.73291 0.573677,0.73291 -0.281458,0.777687 -0.281459,0.777685 0.877648,-0.295347 0.877644,-0.295346 0.761906,0.80784 0.761909,0.807842 -0.248425,0.829904 -0.248425,0.829904 1.278386,-0.01944 1.278386,-0.01944 0.02692,1.616405 0.02692,1.616407 1.013668,1.074779 1.01367,1.074776 0.556734,-0.590298 0.556734,-0.590296 -1.103145,-1.24503 -1.103141,-1.245031 0.545416,-0.578296 0.545415,-0.578297 1.177664,1.173058 1.177662,1.173054 0.777596,-0.824471 0.777592,-0.824472 -1.068251,-1.205654 -1.068254,-1.205653 0.332066,-0.569679 0.332061,-0.569679 1.349786,1.371139 1.34979,1.371139 0.783842,-0.831095 0.783838,-0.831096 -1.293176,-1.431161 -1.293177,-1.43116 0.537285,-0.352079 0.537291,-0.352082 1.041283,1.037209 1.041285,1.037211 h 0.783396 0.783396 V 48.152671 47.22743 l -0.73732,-0.648811 -0.737319,-0.648809 -2.806541,-3.846647 -2.806544,-3.846648 h -3.346699 -3.3467 l -1.091577,1.231979 -1.091576,1.231976 h -0.863123 -0.863113 l -0.279281,-0.771668 -0.27928,-0.771666 1.511744,-1.653753 1.511745,-1.653752 1.124989,-0.299376 1.124989,-0.299378 -0.24626,-0.422479 -0.24626,-0.42248 -1.526026,-0.303543 -1.526027,-0.303543 -4.388752,-4.672761 -4.388755,-4.672758 0.548844,-0.581931 0.548842,-0.581932 3.937952,4.435458 3.937953,4.435459 3.019606,0.866645 3.019606,0.866644 1.540456,-0.352702 1.540454,-0.352704 5.03743,-5.237323 5.037428,-5.23732 1.629816,1.971162 1.629814,1.971162 1.291854,2.710351 1.291851,2.710348 0.537388,2.682599 0.537389,2.682596 -3.132823,3.347339 -3.132827,3.347337 -1.288897,-1.309286 -1.288901,-1.309286 -0.937551,0.899624 -0.937551,0.899625 v 0.576909 0.576908 l 1.161929,1.157384 1.161929,1.157381 -0.0053,1.269275 -0.0053,1.269275 -2.08915,1.971162 -2.089148,1.971164 -1.407419,1.355174 -1.407421,1.355174 h -0.448765 -0.448746 v 0.721848 0.721849 l -0.898896,0.510126 -0.898973,0.510129 z m 18.94357,-1.478372 h -0.184407 l -0.555045,-1.783204 -0.555048,-1.7832 0.232112,-2.183467 0.232114,-2.183467 0.3269,-0.34525 0.326896,-0.345252 0.889535,1.163374 0.889536,1.163372 v 1.694647 1.694645 l -0.709092,1.453901 -0.709095,1.453901 z M 23.973968,56.46978 h -0.344703 l -0.539374,-1.255165 -0.539375,-1.255165 0.0031,-1.578384 0.0031,-1.57838 0.903066,-1.452556 0.903066,-1.452556 0.488187,1.361439 0.488188,1.361436 v 1.372758 1.372754 l -0.510239,1.551909 -0.510249,1.55191 z m -7.31202,-6.406281 h -0.711192 l -1.538582,-1.631336 -1.538581,-1.631336 -0.53363,-2.101223 -0.533631,-2.101222 0.154526,-0.491524 0.154525,-0.491524 1.23381,1.029022 1.233808,1.029023 0.990455,1.6992 0.990454,1.699202 0.404614,1.495859 0.404615,1.495859 z m 55.75754,0 h -0.6658 l 0.322587,-1.108778 0.322585,-1.10878 0.69134,-1.478373 0.691334,-1.478372 1.195825,-1.355175 1.195826,-1.355176 h 0.377818 0.377817 v 1.502846 1.502844 l -0.687871,1.410388 -0.687872,1.410389 -1.233895,1.029093 -1.233895,1.029094 z m -51.656591,-1.27881 -0.406587,0.266433 -0.297211,-0.315129 -0.297215,-0.315131 v -1.667107 -1.667108 l 0.701969,-1.439292 0.701969,-1.439292 0.924731,-0.524737 0.924734,-0.52474 v 1.76174 1.761739 l -0.922902,1.918096 -0.922902,1.918096 z m 48.31991,-0.277232 -0.395434,0.66152 -1.065697,-1.586861 -1.0657,-1.586863 -0.221765,-2.447091 -0.221765,-2.447092 0.938718,0.621579 0.938712,0.621578 0.751296,1.348518 0.751299,1.348519 -0.0071,1.402338 -0.0071,1.402339 -0.395427,0.661516 z M 15.672549,40.700474 H 15.181634 L 14.225352,39.411469 13.26907,38.122463 12.819779,36.397169 12.370487,34.671874 12.638494,33.251056 12.9065,31.83024 h 0.321091 0.321093 l 0.984986,1.858198 0.984986,1.858199 0.322405,2.576919 0.322403,2.576918 z m 3.475295,0 h -0.431696 l 0.297242,-1.57581 0.297243,-1.575811 0.71498,-1.156978 0.71498,-1.15698 1.139312,-0.550401 1.13931,-0.550398 0.243426,0.258099 0.243425,0.2581 -0.506282,1.423519 -0.50628,1.423519 -1.456982,1.601571 -1.456983,1.60157 z m 50.725109,-1.502599 -0.148096,1.5239 -1.329666,-1.313246 -1.32967,-1.313247 -0.672837,-1.707412 -0.67284,-1.707413 0.257646,-0.273182 0.25765,-0.273179 1.13931,0.550398 1.139314,0.550401 0.753641,1.219539 0.753636,1.219541 z m 3.846483,1.407985 -0.653141,0.227764 0.278898,-2.496827 0.278901,-2.496825 0.964651,-2.004867 0.964653,-2.004865 h 0.455322 0.455328 v 2.637475 2.637473 l -1.045737,1.636455 -1.045737,1.636454 z M 21.151873,32.250787 19.761884,32.764552 V 32.265 31.765446 l 0.519169,-1.076383 0.51917,-1.076381 0.991339,-0.851428 0.991341,-0.851426 1.045735,-0.011 1.045737,-0.011 v 0.454981 0.454981 l -1.166256,1.469575 -1.166257,1.469572 z m 48.264121,0.317013 -0.155909,0.164729 -1.417359,-0.632224 -1.417355,-0.632222 -1.326658,-1.666887 -1.326658,-1.666886 1.070486,-0.16711 1.070481,-0.167109 1.07154,0.608041 1.071537,0.608041 0.757902,1.693449 0.757904,1.693449 z M 16.902465,31.630231 16.489002,31.901169 15.801585,30.156765 15.114168,28.41236 v -0.82104 -0.821037 l 0.538337,-1.905138 0.53834,-1.905139 h 0.336031 0.336027 l 0.525905,2.214468 0.525906,2.214471 -0.299392,1.985173 -0.299395,1.985173 z m 56.440982,-1.719543 -0.879657,2.138849 -0.306746,-0.526245 -0.306748,-0.526245 -0.293313,-1.944863 -0.293312,-1.944863 0.554762,-2.184418 0.554754,-2.18442 0.645206,0.935562 0.6452,0.935561 0.279755,1.581115 0.279752,1.581117 z m -49.282423,-4.747933 -1.510508,0.339514 v -0.554346 -0.554345 l 1.140803,-1.209577 1.140804,-1.209577 h 1.880212 1.880215 v 0.221317 0.221316 l -1.510509,1.203091 -1.510508,1.203094 z m 42.061852,0.21676 -0.580966,-0.04444 -1.419924,-0.437549 -1.419926,-0.437549 -1.101146,-1.242775 -1.10114,-1.242775 h 1.876724 1.876725 l 1.22531,1.299176 1.225306,1.299176 v 0.425591 0.425592 z M 20.071202,23.945586 h -0.200903 l -0.280246,-1.108778 -0.280247,-1.10878 -0.0047,-1.231976 -0.0047,-1.231976 0.920977,-1.601571 0.920972,-1.601571 h 0.471605 0.471604 l -0.01018,1.847966 -0.01018,1.847965 -0.896613,2.09436 -0.896611,2.094361 h -0.200903 z m 49.548942,-1.145292 -0.431192,1.371555 -0.868428,-1.405284 -0.868424,-1.405287 -0.16774,-3.019765 -0.167743,-3.019766 1.16721,1.357119 1.16721,1.357119 0.30015,1.696377 0.300149,1.696377 z m -40.629856,-3.003038 -1.559669,0.241739 -0.658926,-0.46763 -0.658926,-0.467633 1.588472,-1.026766 1.588469,-1.026766 1.16193,0.0056 1.161929,0.0056 0.642262,0.431297 0.642265,0.431299 -1.174069,0.815657 -1.174069,0.815656 z m 31.903903,0.179171 -0.929541,-0.01174 -1.605458,-0.738438 -1.605457,-0.738438 -0.240171,-0.254649 -0.240171,-0.25465 0.683699,-0.458449 0.683697,-0.458452 1.161931,-0.0056 1.16193,-0.0056 1.588468,1.026766 1.588475,1.026766 -0.658931,0.442218 -0.658927,0.442218 -0.929544,-0.01175 z m -36.028613,-2.677752 -0.462541,0.3031 -0.292217,-0.807414 -0.292216,-0.807414 0.539071,-1.907732 0.539072,-1.907733 1.266936,-1.061642 1.266936,-1.061645 0.148944,1.302251 0.148944,1.30225 -1.200194,2.171441 -1.200195,2.17144 z m 39.991518,-0.315972 -0.344367,0.675375 -1.201951,-1.670835 -1.201947,-1.670836 -0.441724,-2.084481 -0.441724,-2.084481 h 0.461287 0.461282 l 1.294374,1.469167 1.294377,1.469165 0.232381,1.610777 0.232381,1.610776 z"
        id="path21291" />
	
</svg>