<?xml version="1.0" encoding="utf-8"?>
<!DOCTYPE svg PUBLIC "-//W3C//DTD SVG 1.1//EN" "http://www.w3.org/Graphics/SVG/1.1/DTD/svg11.dtd">
<svg version="1.1" xmlns="http://www.w3.org/2000/svg" xmlns:xlink="http://www.w3.org/1999/xlink" xmlns:xml="http://www.w3.org/XML/1998/namespace" xmlns:serif="http://www.serif.com/" width="205" height="205" viewBox="0, 0, 205, 205" xml:space="preserve" fill-rule="evenodd" stroke-linecap="round" stroke-linejoin="round" stroke-miterlimit="1.5" style="clip-rule:evenodd;">

	<circle cx="102.5" cy="102.5" r="100.4" stroke-width="2.49px" style="fill:url(#Radial);stroke:black;" />
    <circle cx="102.5" cy="102.5" r="69" stroke-width="6px" stroke-opacity="0.5" style="fill:none;stroke:white;" />
    <path transform="translate(-1 -1)" d="M71.9 161.6 L70.4 169.4 L67.4 169.4 L67 167 L63.8 168.1 L60.9 170.3 L48.1 170.2 L49 166.1 L51.7 164.3 L55.4 164.2 L57.7 161.3 L71.7 161.3 L71.9 161.6 z M153.6 161.3 L154.2 162.4 L157.4 164.8 L157.7 169.9 L149.9 169.9 L145.2 168.8 L142.8 168.4 L141.8 162.1 L142 161.3 L153.6 161.3 z M61.4 155.3 L61.4 155.3 L63.3 153.1 L66.5 147 L65.3 142.3 L81.8 142.3 L78.9 147.2 L75.5 147 L72 155 L72 155.3 L61.4 155.3 z M139.8 155.3 L139.3 154 L134.5 147.2 L132.8 147.7 L128.8 142.3 L143.2 142.3 L148.8 155 L149.1 155.3 L139.8 155.3 z M115.4 142.3 C110.3 144.9 105.7 147.6 100 149.2 L97.7 142.3 L115.4 142.3 z M81.9 136.3 L67.2 136.3 L69 131.2 L70.6 131.2 L73.9 132.8 L75 128.6 L74.9 126.7 L76.6 123.3 L90.4 123.3 L82.2 132 L81.9 136.3 z M141.8 136.3 L95.8 136.3 L91.5 123.3 L138.8 123.3 C138.2 126 137.3 128.6 135.6 131 L136.8 132.4 L140.6 132.8 L141.8 136.3 z M140.3 117.3 L79.7 117.3 L80 116.7 L78.4 115.9 L83.9 104.3 L168.5 104.3 C165.9 105.3 163.2 105.4 160.4 104.4 C145.5 105.4 142.1 110.8 140.3 117.3 z M178.1 98.3 L86.7 98.3 L87.6 96.6 L90 94.5 L89.6 91.2 L87.1 90.7 L84.5 85.3 L157.3 85.3 C164.3 89.7 171 94.3 178.2 98.3 L178.1 98.3 z M65.4 94.5 L63.6 94.5 L55.5 88 L53.6 86.4 L52.5 88 L48.9 87.2 L47 85.5 L47 85.3 L80.3 85.3 L76.5 92.5 L74.1 93.4 L66.6 91.2 L65.4 94.5 z M57.6 79.3 L44.8 79.3 L43.5 78.7 L43.3 76.6 L43.6 73.1 L39.7 71.5 L39.8 69.1 L38.6 67.1 L37.5 69.1 L31.9 66.3 L47.4 66.3 L57.9 70.4 L57.9 72.6 L59.2 73.4 L58.9 76.3 L56.5 76.3 L57.6 79.3 z M147.1 79.3 L72.4 79.3 L74.4 76 L73.6 73.6 L76.3 67.2 L77.3 66.3 L155 66.3 C153.2 68.5 151.9 70.9 151.2 73.7 C145.5 74.6 140 74.3 135.2 71.4 L134.4 73.6 C138.8 75.2 143 77.1 147.1 79.3 z M121 60.3 L82.2 60.3 L83.6 58 L84.1 56.5 L82.7 56 C81.4 53.1 80.5 50.3 79.8 47.6 L79.8 47.3 L95.8 47.3 L96 48.5 L97.3 48.8 L98.2 50 L103 51.1 L104.2 55.2 L109.3 55.2 L113.1 56.5 L117.6 59.2 L120.4 59.6 L121 60.3 z M139.8 60.3 L130.2 60.3 L132.8 54.4 L134.1 52.6 L133.3 51.1 L131.2 52 L128.8 51.5 L127.2 49.2 L127.7 47.3 L143.6 47.3 L143.3 50.4 L139.9 55 L139.8 60.3 z M161.2 60.3 L157.4 60.3 C159.3 59.8 161.3 59.2 163.4 58.5 C162.7 59.1 161.9 59.7 161.2 60.3 z M100 41.3 L79.4 41.3 L79.3 40.1 L78.6 34.9 C81.8 32.1 86.6 32.2 91.2 32.2 L93 33 C96.5 34.9 98.9 37.5 100.3 40.9 L100 41.3 z M139.9 41.3 L129.1 41.3 L131.4 31.9 L132.6 32.2 L133.1 30 L131.5 29.2 L132.9 24.3 L134.2 23.9 L136.1 20.6 L136.8 24.6 L138.5 25 L138 30.6 L136.4 30.8 L136.4 32.8 L137.9 34.1 L137.7 38.1 L139.4 39 L139.9 41.3 z" style="fill:#FFFFC9;" />
    <path transform="translate(-1 -1)" d="M136.7 14.4 L137.2 14.5 L137.8 14.6 L138.4 14.8 L138.9 15 L139.4 15.3 L139.9 15.6 L140.4 16 L140.8 16.5 L141.2 16.9 L141.5 17.4 L141.8 17.9 L142 18.5 L142.2 19 L142.3 19.6 L142.4 20.2 L142.7 20.4 L143.1 20.8 L143.4 21.2 L143.8 21.7 L144.1 22.2 L144.3 22.7 L144.5 23.3 L144.6 23.9 L144.7 24.4 L144.8 25 L144.7 25.6 L144.2 31.1 L144.2 31.7 L144 32.3 L143.9 32.6 L144 32.7 L144.1 33.2 L144.1 33.8 L144.1 34.3 L144.1 34.8 L144.2 34.9 L144.5 35.3 L144.8 35.8 L145.1 36.3 L145.3 36.8 L145.5 37.3 L145.6 37.9 L146 40.2 L146.1 40.8 L146.1 41.4 L146.1 41.6 L146.4 41.8 L146.9 42.1 L147.4 42.4 L147.9 42.8 L148.3 43.2 L148.7 43.6 L149 44.1 L149.3 44.7 L149.5 45.2 L149.7 45.8 L149.8 46.3 L149.8 46.9 L149.9 47.5 L149.8 48.1 L149.5 51.2 L149.4 51.7 L149.2 52.2 L149.1 52.7 L148.9 53.2 L148.6 53.6 L148.3 54.1 L146.1 57.1 L146.1 60.1 L151.1 60.1 L151.1 60 L151.2 59.4 L151.3 58.8 L151.5 58.3 L151.7 57.7 L152 57.2 L152.3 56.7 L152.7 56.2 L153.1 55.8 L153.5 55.4 L154 55.1 L154.5 54.8 L155.1 54.5 L155.7 54.3 L156 54.2 L156.4 54.1 L156.7 54 L157.1 53.9 L157.5 53.8 L157.8 53.7 L158.2 53.6 L158.5 53.5 L158.9 53.4 L159.3 53.3 L159.6 53.2 L160 53 L160.4 52.9 L160.8 52.8 L161.1 52.7 L161.5 52.6 L162.1 52.4 L162.7 52.3 L163.3 52.3 L163.8 52.3 L164.4 52.4 L165 52.5 L165.6 52.7 L166.2 52.9 L166.7 53.2 L167.2 53.5 L167.6 53.9 L168 54.3 L168.4 54.8 L168.8 55.3 L169 55.8 L169.3 56.4 L169.4 56.9 L169.6 57.5 L169.6 58.1 L169.7 58.7 L169.6 59.3 L169.5 59.9 L169.3 60.5 L169.1 61 L168.9 61.6 L168.5 62.1 L168.2 62.5 L167.8 63 L167.3 63.4 L166.8 63.8 L166.2 64.3 L165.9 64.5 L165.7 64.7 L165.4 64.9 L165.2 65.2 L164.7 65.5 L164.3 65.8 L163.8 66 L163.3 66.2 L162.8 66.4 L162.2 66.5 L161.7 66.6 L161.2 66.6 L161.2 66.9 L161.1 67.5 L161 68.1 L160.8 68.7 L160.5 69.2 L160.2 69.8 L159.9 70.3 L159.7 70.4 L159.6 70.6 L159.5 70.7 L159.4 70.9 L159.2 71.1 L159.2 71.1 L159.2 71.2 L159.1 71.3 L159 71.4 L159 71.4 L158.9 71.5 L158.9 71.6 L158.8 71.7 L158.8 71.7 L158.7 71.8 L158.7 71.9 L158.6 72 L158.6 72 L158.5 72.1 L158.5 72.2 L158.5 72.3 L158.4 72.4 L158.4 72.4 L158.3 72.5 L158.3 72.6 L158.2 72.7 L158.2 72.7 L158.2 72.8 L158.1 72.9 L158.1 73 L158.1 73 L158 73.1 L158 73.2 L157.9 73.3 L157.9 73.3 L157.9 73.4 L157.8 73.5 L157.8 73.6 L157.8 73.6 L157.8 73.7 L157.7 73.8 L157.7 73.9 L157.7 73.9 L157.6 74 L157.6 74.1 L157.6 74.2 L157.5 74.3 L157.5 74.3 L157.5 74.4 L157.5 74.5 L157.4 74.6 L157.4 74.6 L157.4 74.7 L157.4 74.8 L157.3 74.9 L157.3 75 L157.3 75 L157.3 75.1 L157.3 75.2 L157.1 75.8 L156.9 76.3 L156.6 76.8 L156.3 77.3 L156 77.7 L155.6 78.2 L155.2 78.5 L154.7 78.9 L154.4 79.1 L157.3 79.1 L157.9 79.1 L158.5 79.2 L159.1 79.3 L159.6 79.5 L160.2 79.8 L160.7 80.1 L161.3 80.5 L162 80.9 L162.6 81.3 L163.3 81.7 L163.9 82.1 L164.6 82.6 L165.9 83.4 L168.5 85 L169.8 85.9 L170.4 86.3 L171 86.7 L171.7 87.1 L172.3 87.5 L173 87.9 L173.6 88.3 L174.2 88.7 L174.9 89.1 L175.5 89.5 L176.1 89.9 L176.8 90.3 L177.4 90.7 L177.7 90.9 L178 91 L178.4 91.2 L178.7 91.4 L179 91.6 L179.3 91.8 L179.6 92 L180 92.2 L180.3 92.3 L180.6 92.5 L180.9 92.7 L181.2 92.9 L181.7 93.2 L182.2 93.6 L182.6 94 L183 94.4 L183.4 94.9 L183.7 95.4 L183.9 95.9 L184.1 96.5 L184.3 97 L184.4 97.6 L184.4 98.2 L184.4 98.8 L184.3 99.4 L184.2 99.9 L184 100.5 L183.8 101 L183.5 101.5 L183.2 102 L182.8 102.5 L182.4 102.9 L182 103.3 L181.9 103.3 L181.5 103.6 L181 103.9 L180.4 104.2 L179.9 104.4 L179.3 104.5 L178.7 104.6 L178.1 104.6 L174.7 104.6 L174.7 104.8 L174.6 105.4 L174.5 106 L174.3 106.6 L174.1 107.1 L173.8 107.7 L173.4 108.2 L173 108.6 L172.6 109 L172.1 109.4 L171.6 109.7 L171.1 110 L170.5 110.2 L170.4 110.3 L170.2 110.4 L170 110.4 L169.9 110.5 L169.7 110.5 L169.5 110.6 L169.3 110.6 L169.2 110.7 L169 110.7 L168.8 110.8 L168.6 110.8 L168.4 110.9 L168.3 110.9 L168.1 110.9 L167.9 111 L167.7 111 L167.5 111.1 L167.3 111.1 L167.2 111.1 L167 111.2 L166.8 111.2 L166.6 111.2 L166.4 111.2 L166.2 111.3 L166 111.3 L165.8 111.3 L165.6 111.3 L165.4 111.3 L165.2 111.3 L165 111.3 L164.8 111.3 L164.6 111.4 L164.4 111.4 L164.2 111.4 L164 111.4 L163.8 111.3 L163.6 111.3 L163.4 111.3 L163.2 111.3 L163 111.3 L162.8 111.3 L162.6 111.3 L162.4 111.2 L162.2 111.2 L162 111.2 L161.8 111.2 L161.6 111.1 L161.4 111.1 L161.2 111.1 L161 111 L160.8 111 L160.6 110.9 L160.4 110.9 L160.2 110.8 L160 110.8 L159.8 110.7 L159.6 110.7 L159.6 110.7 L159.3 110.7 L159 110.7 L158.7 110.8 L158.4 110.8 L158.2 110.8 L157.9 110.9 L157.6 110.9 L157.4 111 L157.1 111 L156.9 111 L156.6 111.1 L156.4 111.1 L156.1 111.2 L155.9 111.2 L155.7 111.2 L155.4 111.3 L155.2 111.3 L155 111.4 L154.8 111.4 L154.6 111.5 L154.4 111.5 L154.2 111.6 L154 111.6 L153.8 111.7 L153.6 111.7 L153.4 111.8 L153.2 111.8 L153.1 111.9 L152.9 111.9 L152.7 112 L152.6 112 L152.4 112.1 L152.2 112.2 L152.1 112.2 L151.9 112.3 L151.8 112.3 L151.7 112.4 L151.5 112.4 L151.4 112.5 L151.3 112.6 L151.1 112.6 L151 112.7 L150.9 112.7 L150.8 112.8 L150.7 112.8 L150.5 112.9 L150.4 113 L150.3 113 L150.2 113.1 L150.1 113.1 L150 113.2 L149.9 113.3 L149.9 113.3 L149.8 113.4 L149.7 113.4 L149.6 113.5 L149.5 113.5 L149.4 113.6 L149.4 113.7 L149.3 113.7 L149.2 113.8 L149.2 113.8 L149.1 113.9 L149 114 L148.9 114 L148.9 114.1 L148.8 114.1 L148.8 114.2 L148.7 114.2 L148.6 114.3 L148.6 114.4 L148.5 114.4 L148.5 114.5 L148.4 114.5 L148.4 114.6 L148.3 114.7 L148.3 114.7 L148.2 114.8 L148.2 114.9 L148.1 114.9 L148.1 115 L148 115 L148 115.1 L147.9 115.2 L147.9 115.3 L147.8 115.3 L147.8 115.4 L147.7 115.5 L147.7 115.5 L147.7 115.6 L147.6 115.7 L147.6 115.8 L147.5 115.8 L147.5 115.9 L147.4 116 L147.4 116.1 L147.3 116.2 L147.3 116.3 L147.3 116.3 L147.2 116.4 L147.2 116.5 L147.2 116.6 L147.1 116.7 L147.1 116.8 L147 116.9 L147 117 L146.9 117.1 L146.9 117.2 L146.9 117.3 L146.8 117.4 L146.8 117.5 L146.8 117.6 L146.7 117.7 L146.7 117.8 L146.7 117.9 L146.6 118.1 L146.6 118.2 L146.5 118.3 L146.5 118.4 L146.5 118.5 L146.4 118.6 L146.4 118.8 L146.3 119 L146.1 119.6 L145.9 120.1 L145.6 120.6 L145.3 121.1 L144.9 121.6 L144.8 121.6 L144.9 122 L145 122.5 L145.1 123.1 L145.1 123.7 L145 124.3 L144.9 124.9 L144.8 125.2 L144.7 125.5 L144.7 125.7 L144.6 126 L144.5 126.3 L144.4 126.6 L144.3 126.9 L144.2 127.2 L144.2 127.5 L144.1 127.6 L144.4 127.8 L144.8 128.2 L145.3 128.6 L145.6 129.1 L146 129.6 L146.2 130.1 L146.5 130.7 L147.7 134.3 L147.9 134.9 L148 135.4 L148.1 136 L148.1 136.6 L148 137.2 L147.9 137.8 L147.8 138.1 L148 138.3 L148.3 138.8 L148.6 139.3 L148.9 139.8 L154.2 151.6 L154.2 151.7 L154.5 152.2 L154.8 152.7 L155 153.3 L155.2 153.9 L155.3 154.4 L155.4 155 L155.4 155.4 L155.9 155.5 L156.4 155.8 L156.9 156.1 L157.4 156.4 L157.9 156.8 L158.3 157.2 L158.7 157.7 L159 158.2 L161.1 159.8 L161.6 160.2 L162 160.6 L162.4 161.1 L162.7 161.6 L163 162.1 L163.2 162.6 L163.4 163.2 L163.5 163.8 L163.6 164.4 L163.9 169.5 L163.9 170.1 L163.9 170.7 L163.8 171.3 L163.6 171.8 L163.4 172.4 L163.1 172.9 L162.8 173.5 L162.4 173.9 L162 174.4 L161.6 174.8 L161.1 175.1 L160.6 175.4 L160 175.7 L159.5 175.9 L158.9 176 L158.3 176.1 L157.7 176.1 L149.9 176.1 L149.4 176.1 L149 176.1 L148.5 176 L144 174.9 L141.9 174.6 L141.4 174.5 L140.8 174.4 L140.3 174.2 L139.8 173.9 L139.3 173.6 L138.8 173.3 L138.4 172.9 L138 172.5 L137.7 172 L137.3 171.5 L137.1 171 L136.9 170.5 L136.7 169.9 L136.6 169.4 L135.7 163 L135.6 162.5 L135.6 161.9 L135.6 161.4 L135.7 160.9 L135.8 160.1 L135.7 160 L135.3 159.6 L134.9 159.2 L134.6 158.8 L134.3 158.3 L134.1 157.8 L133.8 157 L131.5 153.8 L131 153.7 L130.5 153.5 L129.9 153.2 L129.4 152.9 L129 152.6 L128.5 152.2 L128.1 151.8 L127.8 151.4 L123.8 146.1 L123.5 145.6 L123.2 145 L123 144.5 L122.8 143.9 L122.7 143.3 L122.6 142.7 L122.6 142.6 L121.7 142.6 L121.7 142.7 L121.6 143.3 L121.5 143.9 L121.3 144.4 L121.1 145 L120.8 145.5 L120.5 146 L120.1 146.5 L119.7 146.9 L119.2 147.3 L118.7 147.6 L118.2 147.9 L117.8 148.2 L117.3 148.4 L116.8 148.6 L116.4 148.9 L115.9 149.1 L115.4 149.3 L114.5 149.8 L114 150.1 L113.6 150.3 L113.1 150.6 L112.6 150.8 L112.1 151.1 L111.6 151.3 L111.1 151.5 L110.9 151.7 L110.6 151.8 L110.4 151.9 L110.1 152 L109.9 152.1 L109.6 152.3 L109.3 152.4 L109.1 152.5 L108.8 152.6 L108.6 152.7 L108.3 152.9 L108 153 L107.8 153.1 L107.5 153.2 L107.2 153.3 L106.9 153.4 L106.7 153.5 L106.4 153.7 L106.1 153.8 L105.8 153.9 L105.5 154 L105.2 154.1 L105 154.2 L104.7 154.3 L104.4 154.4 L104.1 154.5 L103.8 154.6 L103.5 154.7 L103.2 154.8 L102.9 154.9 L102.6 155 L102.3 155.1 L101.9 155.2 L101.7 155.3 L101.1 155.4 L100.5 155.5 L99.9 155.5 L99.3 155.5 L98.7 155.4 L98.1 155.2 L97.5 155 L97 154.8 L96.5 154.5 L96 154.1 L95.6 153.7 L95.2 153.3 L94.8 152.8 L94.5 152.3 L94.2 151.7 L94 151.2 L91.8 144.3 L91.6 143.7 L91.5 143.1 L91.5 142.5 L91.5 142 L91.5 141.4 L91.6 141 L91.4 140.8 L91 140.4 L90.6 139.9 L90.3 139.4 L90 138.8 L89.8 138.3 L88.5 134.4 L88.3 134.6 L88.2 136.7 L88.1 137.3 L88 137.9 L87.8 138.4 L87.6 139 L87.3 139.5 L87.3 139.5 L87.5 139.8 L87.7 140.4 L87.8 140.9 L88 141.5 L88 142.1 L88 142.7 L87.9 143.3 L87.8 143.9 L87.6 144.5 L87.4 145 L87.1 145.6 L84.2 150.4 L83.9 150.9 L83.5 151.3 L83.2 151.7 L82.7 152.1 L82.3 152.4 L81.8 152.7 L81.3 152.9 L80.8 153.1 L80.2 153.3 L79.7 153.4 L79.5 153.4 L78.1 156.7 L78.1 156.9 L77.9 157.5 L77.7 158 L77.4 158.5 L77.3 158.6 L77.5 158.9 L77.7 159.5 L77.9 160 L78 160.5 L78.1 161.1 L78.1 161.6 L78.1 162.2 L78 162.8 L76.6 170.5 L76.5 171.1 L76.3 171.6 L76 172.2 L75.8 172.7 L75.4 173.2 L75.1 173.6 L74.7 174 L74.2 174.4 L73.8 174.7 L73.2 175 L72.7 175.2 L72.2 175.4 L71.6 175.5 L71 175.6 L70.4 175.6 L67.4 175.6 L66.9 175.6 L66.3 175.5 L65.7 175.4 L65.2 175.2 L65 175.1 L64.8 175.3 L64.3 175.6 L63.8 175.9 L63.2 176.2 L62.6 176.4 L62 176.5 L61.5 176.6 L60.9 176.6 L48 176.4 L47.4 176.4 L46.8 176.3 L46.3 176.2 L45.7 176 L45.2 175.7 L44.7 175.4 L44.2 175.1 L43.8 174.7 L43.4 174.3 L43 173.8 L42.7 173.3 L42.4 172.8 L42.2 172.3 L42 171.7 L41.9 171.1 L41.8 170.5 L41.8 169.9 L41.9 169.4 L42 168.8 L42.9 164.7 L43.1 164.1 L43.3 163.5 L43.6 163 L43.9 162.5 L44.3 162 L44.7 161.6 L45.2 161.2 L45.6 160.8 L48.3 159.1 L48.8 158.8 L49.3 158.6 L49.8 158.4 L50.4 158.2 L50.9 158.1 L51.5 158.1 L52.3 158 L52.8 157.4 L53.2 157 L53.6 156.6 L54 156.3 L54.5 156 L55 155.7 L55.2 155.6 L55.2 155.3 L55.2 155.3 L55.2 154.7 L55.3 154.2 L55.4 153.6 L55.5 153.1 L55.8 152.6 L56 152.1 L56.3 151.6 L56.7 151.2 L58.1 149.5 L59.8 146.3 L59.2 143.9 L59.1 143.3 L59 142.7 L59 142.1 L59.1 141.5 L59.2 140.9 L59.3 140.4 L59.6 139.8 L59.8 139.3 L60.2 138.8 L60.5 138.3 L60.9 137.9 L61.1 137.7 L61 137.2 L61 136.6 L61 136 L61 135.5 L61.2 134.9 L61.3 134.3 L63.1 129.1 L63.3 128.6 L63.6 128 L63.9 127.5 L64.3 127.1 L64.7 126.6 L65.2 126.3 L65.7 125.9 L66.2 125.6 L66.7 125.4 L67.3 125.2 L67.8 125 L68.4 124.9 L68.9 124.9 L69.1 124.4 L69.3 123.9 L71 120.5 L71.3 120 L71.6 119.5 L72 119.1 L72.4 118.7 L72.7 118.5 L72.5 118 L72.3 117.4 L72.2 116.8 L72.1 116.2 L72.1 115.6 L72.2 115 L72.3 114.4 L72.5 113.8 L72.7 113.3 L78.2 101.7 L78.5 101.1 L78.8 100.7 L79.2 100.2 L79.6 99.8 L80.1 99.4 L80.5 99.1 L80.5 98.6 L80.5 98 L80.6 97.4 L80.6 97.1 L80.2 97.5 L79.8 97.8 L79.3 98 L78.8 98.3 L76.4 99.2 L75.9 99.4 L75.3 99.6 L74.7 99.6 L74.1 99.7 L73.5 99.6 L72.9 99.5 L72.3 99.4 L70 98.7 L69.6 99.1 L69.2 99.5 L68.7 99.8 L68.2 100.1 L67.6 100.4 L67.1 100.5 L66.5 100.7 L65.9 100.7 L65.4 100.8 L63.6 100.8 L63 100.7 L62.4 100.7 L61.8 100.5 L61.3 100.3 L60.7 100.1 L60.2 99.8 L59.7 99.4 L53.3 94.2 L53 94.3 L52.4 94.3 L51.8 94.2 L51.2 94.1 L47.5 93.3 L47 93.2 L46.5 93 L46 92.8 L45.5 92.5 L45.1 92.2 L44.7 91.8 L42.8 90.1 L42.3 89.7 L42 89.2 L41.7 88.8 L41.4 88.3 L41.1 87.7 L41 87.2 L40.8 86.6 L40.8 86.1 L40.7 85.5 L40.7 85.3 L40.8 84.8 L40.8 84.3 L40.7 84.3 L40.2 84 L39.7 83.6 L39.2 83.3 L38.8 82.8 L38.5 82.4 L38.1 81.9 L37.9 81.4 L37.6 80.9 L37.4 80.3 L37.3 79.7 L37.2 79.1 L37.1 77.2 L36.8 77.1 L36.3 76.8 L35.8 76.4 L35.3 76 L34.9 75.6 L34.5 75.1 L34.2 74.6 L34.2 74.5 L29.1 71.9 L28.5 71.6 L28 71.3 L27.6 70.9 L27.2 70.5 L26.8 70 L26.5 69.5 L26.2 69 L26 68.4 L25.8 67.9 L25.7 67.3 L25.6 66.7 L25.6 66.1 L25.7 65.5 L25.8 64.9 L25.9 64.3 L26.2 63.8 L26.4 63.2 L26.8 62.7 L27.1 62.3 L27.5 61.8 L28 61.4 L28.5 61.1 L29 60.8 L29.5 60.6 L30.1 60.4 L30.7 60.2 L31.3 60.1 L31.9 60.1 L47.4 60.1 L48 60.1 L48.5 60.2 L49.1 60.3 L49.6 60.5 L60.2 64.6 L60.7 64.8 L61.2 65.1 L61.7 65.4 L62.1 65.8 L62.5 66.2 L62.9 66.6 L63.2 67.1 L63.5 67.6 L63.8 68.2 L63.9 68.7 L64.1 69.3 L64.1 69.6 L64.2 69.7 L64.5 70.2 L64.8 70.7 L65 71.2 L65.2 71.8 L65.3 72.4 L65.4 73 L65.4 73.5 L65.4 74.1 L65.1 77 L65 77.6 L64.8 78.2 L64.6 78.7 L64.4 79.1 L66.1 79.1 L66.1 78.9 L66.2 78.3 L66.3 77.8 L66.5 77.2 L66.7 76.6 L67 76.1 L67.6 75.2 L67.5 75 L67.4 74.5 L67.4 73.9 L67.4 73.3 L67.4 72.8 L67.5 72.2 L67.7 71.7 L67.9 71.1 L70.6 64.8 L70.8 64.3 L71.1 63.9 L71.4 63.4 L71.7 63 L72.1 62.6 L73.1 61.7 L73.5 61.4 L74 61 L74.5 60.8 L75 60.5 L75.6 60.3 L76 60.2 L76 60 L76.1 59.4 L76.2 58.8 L76.4 58.2 L76.6 57.7 L76.6 57.7 L76.5 57.6 L76.4 57.3 L76.3 57 L76.2 56.7 L76.1 56.4 L75.9 56.1 L75.8 55.8 L75.7 55.5 L75.6 55.2 L75.5 54.9 L75.4 54.6 L75.3 54.3 L75.2 54 L75.1 53.7 L75 53.4 L74.9 53.1 L74.8 52.8 L74.7 52.5 L74.6 52.2 L74.5 51.9 L74.4 51.6 L74.3 51.3 L74.3 51.1 L74.2 50.8 L74.1 50.5 L74 50.2 L73.9 49.9 L73.9 49.6 L73.8 49.3 L73.7 49.1 L73.6 48.6 L73.6 48.1 L73.6 47.6 L73.6 47.1 L73.6 46.8 L73.7 46.3 L73.8 45.7 L74 45.1 L74.2 44.7 L74.1 44.6 L73.8 44 L73.5 43.5 L73.4 42.9 L73.2 42.4 L73.2 41.8 L73.1 40.8 L72.4 35.7 L72.4 35.2 L72.4 34.6 L72.4 34 L72.5 33.5 L72.7 32.9 L72.9 32.4 L73.1 31.9 L73.4 31.4 L73.8 31 L74.1 30.5 L74.5 30.1 L74.6 30.1 L74.8 29.9 L74.9 29.8 L75 29.7 L75.2 29.6 L75.3 29.5 L75.4 29.4 L75.6 29.3 L75.7 29.2 L75.8 29.1 L76 29 L76.1 28.9 L76.3 28.8 L76.4 28.8 L76.5 28.7 L76.7 28.6 L76.8 28.5 L77 28.4 L77.1 28.3 L77.2 28.3 L77.4 28.2 L77.5 28.1 L77.7 28 L77.8 28 L78 27.9 L78.1 27.8 L78.2 27.8 L78.4 27.7 L78.5 27.6 L78.7 27.6 L78.8 27.5 L79 27.5 L79.1 27.4 L79.3 27.4 L79.4 27.3 L79.5 27.3 L79.7 27.2 L79.8 27.2 L80 27.1 L80.1 27.1 L80.3 27 L80.4 27 L80.5 26.9 L80.7 26.9 L81 26.8 L81.2 26.7 L81.5 26.7 L81.8 26.6 L82.1 26.5 L82.3 26.5 L82.6 26.4 L82.9 26.4 L83.2 26.3 L83.4 26.3 L83.7 26.3 L84 26.2 L84.2 26.2 L84.5 26.2 L84.8 26.1 L85 26.1 L85.3 26.1 L85.5 26.1 L85.8 26.1 L86 26 L86.3 26 L86.6 26 L86.8 26 L87 26 L87.3 26 L87.5 26 L87.8 26 L88 26 L88.3 26 L88.5 25.9 L89 25.9 L89.4 25.9 L89.9 25.9 L90.3 25.9 L91.2 25.9 L91.8 26 L92.3 26 L92.8 26.1 L93.3 26.3 L93.8 26.5 L95.8 27.4 L96.2 27.6 L96.4 27.7 L96.6 27.8 L96.8 28 L97 28.1 L97.2 28.2 L97.4 28.3 L97.6 28.5 L97.8 28.6 L98 28.7 L98.2 28.9 L98.4 29 L98.6 29.2 L98.8 29.3 L99 29.4 L99.2 29.6 L99.4 29.7 L99.6 29.9 L99.8 30 L99.9 30.2 L100.1 30.3 L100.3 30.5 L100.5 30.6 L100.7 30.8 L100.8 31 L101 31.1 L101.2 31.3 L101.4 31.5 L101.5 31.6 L101.7 31.8 L101.9 32 L102 32.2 L102.2 32.3 L102.3 32.5 L102.5 32.7 L102.7 32.9 L102.8 33.1 L102.9 33.2 L103.1 33.4 L103.2 33.6 L103.4 33.8 L103.5 34 L103.7 34.2 L103.8 34.4 L103.9 34.6 L104.1 34.8 L104.2 35 L104.3 35.2 L104.5 35.4 L104.6 35.6 L104.7 35.8 L104.8 36 L104.9 36.2 L105 36.4 L105.2 36.6 L105.3 36.8 L105.4 37 L105.5 37.3 L105.6 37.5 L105.7 37.7 L105.8 37.9 L105.9 38.1 L106 38.3 L106 38.5 L106.2 39.1 L106.4 39.7 L106.5 40.2 L106.5 40.8 L106.5 41.4 L106.4 42 L106.3 42.6 L106.1 43.1 L105.9 43.7 L105.6 44.2 L105.3 44.6 L105 45.1 L105 45.1 L105.5 45.4 L106 45.6 L106.5 45.9 L107 46.3 L107.4 46.7 L107.8 47.1 L108.2 47.6 L108.5 48.1 L108.7 48.7 L108.8 48.9 L109.3 48.9 L109.8 49 L110.3 49 L110.8 49.1 L111.3 49.3 L115.1 50.5 L115.5 50.7 L116 50.9 L116.4 51.1 L119.8 53.2 L121.4 53.5 L122 53.6 L122.5 53.8 L122.9 53.9 L122 52.6 L121.7 52.1 L121.5 51.6 L121.3 51.1 L121.1 50.5 L121 50 L121 49.4 L121 48.8 L121 48.3 L121.2 47.7 L121.6 45.9 L121.8 45.3 L122 44.8 L122.2 44.2 L122.6 43.7 L122.9 43.3 L123.1 43.1 L123 42.8 L122.9 42.3 L122.9 41.7 L122.8 41.1 L122.9 40.5 L123 39.9 L125.3 30.4 L125.3 30.2 L125.3 29.7 L125.3 29.1 L125.3 28.6 L125.4 28 L125.5 27.4 L126.9 22.5 L127.1 22 L127.4 21.4 L127.7 20.9 L128 20.4 L128.4 20 L128.8 19.6 L129.3 19.2 L129.8 18.9 L130 18.8 L130.7 17.5 L131 17 L131.4 16.5 L131.8 16.1 L132.2 15.7 L132.7 15.4 L133.2 15.1 L133.8 14.8 L134.3 14.6 L134.9 14.5 L135.5 14.4 L136.1 14.4 L136.7 14.4 z M57.7 161.3 L55.4 164.2 L51.7 164.3 L49 166.1 L48.1 170.2 L60.9 170.3 L63.8 168.1 L67 167 L67.4 169.4 L70.4 169.4 L71.9 161.6 L71.7 161.3 L57.7 161.3 z M142 161.3 L141.8 162.1 L142.8 168.4 L145.2 168.8 L149.9 169.9 L157.7 169.9 L157.4 164.8 L154.2 162.4 L153.6 161.3 L142 161.3 z M128.8 142.3 L132.8 147.7 L134.5 147.2 L139.3 154 L139.8 155.3 L149.1 155.3 L148.8 155 L143.2 142.3 L128.8 142.3 z M65.3 142.3 L66.5 147 L63.3 153.1 L61.4 155.3 L61.4 155.3 L72 155.3 L72 155 L75.5 147 L78.9 147.2 L81.8 142.3 L65.3 142.3 z M97.7 142.3 L100 149.2 L100.2 149.2 L100.5 149.1 L100.8 149 L101 148.9 L101.3 148.9 L101.5 148.8 L101.8 148.7 L102.1 148.6 L102.3 148.5 L102.6 148.4 L102.8 148.3 L103.1 148.2 L103.3 148.1 L103.6 148 L103.8 147.9 L104.1 147.9 L104.3 147.8 L104.6 147.7 L104.8 147.6 L105.1 147.4 L105.3 147.3 L105.5 147.2 L105.8 147.1 L106 147 L106.3 146.9 L106.5 146.8 L106.8 146.7 L107 146.6 L107.2 146.5 L107.4 146.4 L107.7 146.3 L107.9 146.2 L108.2 146 L108.4 145.9 L108.9 145.7 L109.3 145.5 L109.8 145.2 L110.3 145 L110.7 144.8 L111.2 144.5 L111.7 144.3 L112.6 143.8 L113 143.6 L113.5 143.3 L114 143.1 L114.5 142.8 L114.9 142.6 L115.4 142.3 L97.7 142.3 z M91.5 123.3 L95.8 136.3 L141.8 136.3 L140.6 132.8 L136.8 132.4 L135.6 131 L135.7 130.9 L135.8 130.8 L135.9 130.7 L135.9 130.5 L136 130.4 L136.1 130.3 L136.2 130.2 L136.2 130.1 L136.3 130 L136.4 129.9 L136.4 129.7 L136.5 129.6 L136.5 129.5 L136.6 129.4 L136.7 129.3 L136.7 129.1 L136.8 129 L136.9 128.9 L136.9 128.8 L137 128.7 L137 128.6 L137.1 128.4 L137.1 128.3 L137.2 128.2 L137.2 128.1 L137.3 128 L137.3 127.8 L137.4 127.7 L137.5 127.5 L137.6 127.2 L137.7 127 L137.8 126.8 L137.9 126.5 L138 126.3 L138 126 L138.1 125.8 L138.2 125.5 L138.3 125.3 L138.4 125.1 L138.4 124.8 L138.5 124.6 L138.6 124.3 L138.6 124.1 L138.7 123.8 L138.8 123.6 L138.8 123.3 L91.5 123.3 z M76.6 123.3 L74.9 126.7 L75 128.6 L73.9 132.8 L70.6 131.2 L69 131.2 L67.2 136.3 L81.9 136.3 L82.2 132 L90.4 123.3 L76.6 123.3 z M83.9 104.3 L78.4 115.9 L80 116.7 L79.7 117.3 L140.3 117.3 L140.4 117 L140.4 116.9 L140.5 116.7 L140.5 116.6 L140.6 116.4 L140.6 116.3 L140.7 116.1 L140.7 116 L140.8 115.8 L140.8 115.7 L140.9 115.6 L140.9 115.4 L141 115.3 L141 115.1 L141.1 115 L141.1 114.8 L141.2 114.7 L141.2 114.5 L141.3 114.4 L141.4 114.2 L141.4 114.1 L141.5 114 L141.5 113.8 L141.6 113.7 L141.7 113.5 L141.8 113.4 L141.8 113.3 L141.9 113.1 L142 113 L142 112.9 L142.1 112.7 L142.2 112.6 L142.3 112.5 L142.3 112.3 L142.4 112.2 L142.5 112.1 L142.6 111.9 L142.7 111.8 L142.8 111.7 L142.8 111.5 L142.9 111.4 L143 111.3 L143.1 111.2 L143.2 111 L143.3 110.9 L143.4 110.8 L143.5 110.7 L143.6 110.5 L143.7 110.4 L143.8 110.3 L143.9 110.2 L144.1 110.1 L144.2 109.9 L144.3 109.8 L144.4 109.7 L144.5 109.6 L144.7 109.5 L144.8 109.4 L144.9 109.2 L145 109.1 L145.2 109 L145.3 108.9 L145.4 108.8 L145.6 108.7 L145.7 108.6 L145.8 108.5 L146 108.4 L146.2 108.3 L146.3 108.2 L146.5 108.1 L146.6 108 L146.8 107.9 L146.9 107.8 L147.1 107.7 L147.3 107.6 L147.4 107.5 L147.6 107.4 L147.8 107.3 L148 107.2 L148.1 107.1 L148.3 107 L148.5 106.9 L148.7 106.9 L148.9 106.8 L149.1 106.7 L149.3 106.6 L149.5 106.5 L149.7 106.4 L149.9 106.4 L150.1 106.3 L150.3 106.2 L150.5 106.1 L150.8 106.1 L151 106 L151.2 105.9 L151.4 105.8 L151.7 105.8 L151.9 105.7 L152.2 105.6 L152.4 105.6 L152.7 105.5 L152.9 105.4 L153.2 105.4 L153.4 105.3 L153.7 105.3 L153.9 105.2 L154.2 105.2 L154.5 105.1 L154.8 105.1 L155 105 L155.3 104.9 L155.6 104.9 L155.9 104.9 L156.2 104.8 L156.5 104.8 L156.8 104.7 L157.1 104.7 L157.4 104.6 L157.7 104.6 L158 104.6 L158.4 104.5 L158.7 104.5 L159 104.5 L159.4 104.4 L159.7 104.4 L160 104.4 L160.4 104.4 L160.5 104.4 L160.7 104.5 L160.8 104.5 L160.9 104.5 L161 104.6 L161.2 104.6 L161.3 104.7 L161.4 104.7 L161.6 104.7 L161.7 104.8 L161.8 104.8 L162 104.8 L162.1 104.9 L162.2 104.9 L162.3 104.9 L162.5 104.9 L162.6 105 L162.7 105 L162.9 105 L163 105 L163.1 105 L163.3 105 L163.4 105.1 L163.5 105.1 L163.6 105.1 L163.8 105.1 L163.9 105.1 L164 105.1 L164.2 105.1 L164.3 105.1 L164.4 105.1 L164.5 105.1 L164.7 105.1 L164.8 105.1 L164.9 105.1 L165 105.1 L165.2 105.1 L165.3 105.1 L165.4 105.1 L165.5 105 L165.7 105 L165.8 105 L165.9 105 L166 105 L166.2 105 L166.3 104.9 L166.4 104.9 L166.5 104.9 L166.6 104.9 L166.8 104.8 L166.9 104.8 L167 104.8 L167.1 104.8 L167.3 104.7 L167.4 104.7 L167.5 104.7 L167.6 104.6 L167.8 104.6 L167.9 104.5 L168 104.5 L168.1 104.5 L168.2 104.4 L168.4 104.4 L168.5 104.3 L83.9 104.3 z M84.5 85.3 L87.1 90.7 L89.6 91.2 L90 94.5 L87.6 96.6 L86.7 98.3 L178.1 98.3 L178.2 98.3 L177.8 98.1 L177.5 98 L177.2 97.8 L176.8 97.6 L176.5 97.4 L176.2 97.2 L175.8 97 L175.5 96.8 L175.2 96.6 L174.8 96.4 L174.5 96.2 L174.2 96 L173.5 95.6 L172.9 95.2 L172.2 94.8 L171.6 94.4 L170.9 94 L170.3 93.6 L169.6 93.2 L169 92.8 L168.3 92.4 L167.7 92 L167 91.5 L166.4 91.1 L165.1 90.3 L162.5 88.6 L161.2 87.8 L160.6 87.4 L159.9 87 L159.3 86.6 L158.6 86.2 L158 85.8 L157.3 85.3 L84.5 85.3 z M47 85.3 L47 85.5 L48.9 87.2 L52.5 88 L53.6 86.4 L55.5 88 L63.6 94.5 L65.4 94.5 L66.6 91.2 L74.1 93.4 L76.5 92.5 L80.3 85.3 L47 85.3 z M31.9 66.3 L37.5 69.1 L38.6 67.1 L39.8 69.1 L39.7 71.5 L43.6 73.1 L43.3 76.6 L43.5 78.7 L44.8 79.3 L57.6 79.3 L56.5 76.3 L58.9 76.3 L59.2 73.4 L57.9 72.6 L57.9 70.4 L47.4 66.3 L31.9 66.3 z M77.3 66.3 L76.3 67.2 L73.6 73.6 L74.4 76 L72.4 79.3 L147.1 79.3 L146.8 79.1 L146.4 78.9 L146 78.7 L145.6 78.5 L145.2 78.3 L144.8 78.1 L144.4 77.9 L144 77.7 L143.7 77.5 L143.3 77.4 L142.9 77.2 L142.5 77 L142.1 76.8 L141.7 76.6 L141.3 76.4 L140.9 76.2 L140.5 76.1 L140.1 75.9 L139.7 75.7 L139.3 75.5 L138.9 75.4 L138.5 75.2 L138.1 75 L137.7 74.8 L137.3 74.7 L136.8 74.5 L136.4 74.4 L136 74.2 L135.6 74 L135.2 73.9 L134.8 73.7 L134.4 73.6 L135.2 71.4 L135.3 71.4 L135.4 71.5 L135.5 71.6 L135.6 71.6 L135.7 71.7 L135.9 71.8 L136 71.8 L136.1 71.9 L136.2 71.9 L136.3 72 L136.4 72.1 L136.5 72.1 L136.7 72.2 L136.8 72.2 L136.9 72.3 L137 72.3 L137.1 72.4 L137.2 72.5 L137.4 72.5 L137.5 72.6 L137.6 72.6 L137.7 72.7 L137.8 72.7 L138 72.8 L138.1 72.8 L138.2 72.8 L138.3 72.9 L138.4 72.9 L138.6 73 L138.7 73 L138.8 73.1 L138.9 73.1 L139 73.1 L139.2 73.2 L139.3 73.2 L139.4 73.3 L139.5 73.3 L139.6 73.3 L139.8 73.4 L139.9 73.4 L140 73.4 L140.1 73.5 L140.2 73.5 L140.4 73.5 L140.5 73.6 L140.6 73.6 L140.8 73.6 L140.9 73.6 L141 73.7 L141.1 73.7 L141.2 73.7 L141.4 73.7 L141.5 73.8 L141.6 73.8 L141.7 73.8 L141.9 73.8 L142.1 73.9 L142.4 73.9 L142.6 74 L142.9 74 L143.1 74 L143.4 74 L143.6 74.1 L143.9 74.1 L144.1 74.1 L144.4 74.1 L144.6 74.1 L144.9 74.2 L145.2 74.2 L145.4 74.2 L145.7 74.2 L145.9 74.2 L146.2 74.2 L146.4 74.2 L146.7 74.2 L147 74.2 L147.2 74.1 L147.5 74.1 L147.8 74.1 L148 74.1 L148.3 74.1 L148.5 74.1 L148.8 74 L149.1 74 L149.3 74 L149.6 74 L149.9 73.9 L150.1 73.9 L150.4 73.9 L150.7 73.8 L150.9 73.8 L151.2 73.7 L151.2 73.6 L151.3 73.5 L151.3 73.4 L151.3 73.2 L151.4 73.1 L151.4 73 L151.4 72.8 L151.5 72.7 L151.5 72.6 L151.5 72.5 L151.6 72.3 L151.6 72.2 L151.7 72.1 L151.7 72 L151.8 71.8 L151.8 71.7 L151.9 71.6 L151.9 71.5 L152 71.4 L152 71.2 L152.1 71.1 L152.1 71 L152.2 70.9 L152.2 70.8 L152.3 70.6 L152.3 70.5 L152.4 70.4 L152.4 70.3 L152.5 70.2 L152.6 70.1 L152.6 69.9 L152.7 69.8 L152.7 69.7 L152.8 69.6 L152.9 69.5 L152.9 69.4 L153 69.2 L153.1 69.1 L153.1 69 L153.2 68.9 L153.2 68.8 L153.3 68.7 L153.4 68.6 L153.5 68.5 L153.5 68.4 L153.6 68.3 L153.7 68.1 L153.8 68 L153.8 67.9 L153.9 67.8 L154 67.7 L154 67.6 L154.1 67.5 L154.2 67.4 L154.3 67.2 L154.5 67 L154.7 66.8 L154.8 66.6 L155 66.3 L77.3 66.3 z M79.8 47.3 L79.8 47.6 L79.9 47.8 L79.9 48.1 L80 48.3 L80.1 48.6 L80.1 48.8 L80.2 49.1 L80.3 49.4 L80.3 49.6 L80.4 49.9 L80.5 50.1 L80.6 50.4 L80.7 50.7 L80.7 50.9 L80.8 51.2 L80.9 51.4 L81 51.7 L81.1 52 L81.2 52.2 L81.3 52.5 L81.4 52.8 L81.5 53 L81.6 53.3 L81.7 53.6 L81.8 53.8 L81.9 54.1 L82 54.4 L82.1 54.6 L82.2 54.9 L82.3 55.2 L82.4 55.4 L82.5 55.7 L82.7 56 L84.1 56.5 L83.6 58 L82.2 60.3 L121 60.3 L120.4 59.6 L117.6 59.2 L113.1 56.5 L109.3 55.2 L104.2 55.2 L103 51.1 L98.2 50 L97.3 48.8 L96 48.5 L95.8 47.3 L79.8 47.3 z M127.7 47.3 L127.2 49.2 L128.8 51.5 L131.2 52 L133.3 51.1 L134.1 52.6 L132.8 54.4 L130.2 60.3 L139.8 60.3 L139.9 55 L143.3 50.4 L143.6 47.3 L127.7 47.3 z M163 58.6 L162.6 58.8 L162.3 58.9 L161.9 59 L161.5 59.1 L161.1 59.2 L160.7 59.4 L160.4 59.5 L160 59.6 L159.6 59.7 L159.2 59.8 L158.9 59.9 L158.5 60 L158.1 60.1 L157.7 60.2 L157.4 60.3 L161.2 60.3 L161.4 60.1 L161.7 59.9 L162 59.7 L162.3 59.4 L162.8 59 L163.4 58.5 L163 58.6 z M89.9 32.2 L89.5 32.2 L89 32.2 L88.6 32.2 L88.4 32.2 L88.2 32.2 L87.9 32.2 L87.7 32.2 L87.5 32.2 L87.3 32.2 L87.1 32.2 L86.9 32.2 L86.7 32.3 L86.4 32.3 L86.2 32.3 L86 32.3 L85.8 32.3 L85.6 32.3 L85.4 32.4 L85.2 32.4 L85 32.4 L84.8 32.4 L84.6 32.5 L84.4 32.5 L84.2 32.5 L84 32.6 L83.8 32.6 L83.6 32.6 L83.4 32.7 L83.2 32.7 L83 32.8 L82.8 32.8 L82.6 32.9 L82.4 32.9 L82.3 32.9 L82.2 33 L82.1 33 L82 33 L81.9 33 L81.8 33.1 L81.7 33.1 L81.6 33.1 L81.5 33.2 L81.4 33.2 L81.4 33.2 L81.3 33.3 L81.2 33.3 L81.1 33.4 L81 33.4 L80.9 33.4 L80.8 33.5 L80.7 33.5 L80.7 33.5 L80.6 33.6 L80.5 33.6 L80.4 33.7 L80.3 33.7 L80.2 33.8 L80.1 33.8 L80 33.9 L80 33.9 L79.9 34 L79.8 34 L79.7 34.1 L79.6 34.1 L79.5 34.2 L79.5 34.2 L79.4 34.3 L79.3 34.3 L79.2 34.4 L79.2 34.4 L79.1 34.5 L79 34.6 L78.9 34.6 L78.8 34.7 L78.8 34.7 L78.7 34.8 L78.6 34.9 L79.3 40.1 L79.4 41.3 L100 41.3 L100.3 40.9 L100.2 40.8 L100.1 40.6 L100.1 40.4 L100 40.3 L99.9 40.1 L99.9 40 L99.8 39.8 L99.7 39.7 L99.6 39.5 L99.5 39.4 L99.5 39.2 L99.4 39.1 L99.3 38.9 L99.2 38.8 L99.1 38.6 L99 38.5 L98.9 38.4 L98.9 38.2 L98.8 38.1 L98.7 38 L98.6 37.8 L98.5 37.7 L98.4 37.5 L98.3 37.4 L98.2 37.3 L98.1 37.1 L98 37 L97.9 36.9 L97.8 36.8 L97.6 36.6 L97.5 36.5 L97.4 36.4 L97.3 36.3 L97.2 36.1 L97.1 36 L96.9 35.9 L96.8 35.8 L96.7 35.7 L96.6 35.5 L96.5 35.4 L96.3 35.3 L96.2 35.2 L96.1 35.1 L95.9 35 L95.8 34.9 L95.7 34.8 L95.5 34.6 L95.4 34.5 L95.3 34.4 L95.1 34.3 L95 34.2 L94.8 34.1 L94.7 34 L94.5 33.9 L94.4 33.8 L94.2 33.7 L94.1 33.6 L93.9 33.5 L93.8 33.4 L93.6 33.3 L93.5 33.3 L93.3 33.2 L93.1 33.1 L93 33 L91.2 32.2 L90.3 32.2 L89.9 32.2 z M134.2 23.9 L132.9 24.3 L131.5 29.2 L133.1 30 L132.6 32.2 L131.4 31.9 L129.1 41.3 L139.9 41.3 L139.4 39 L137.7 38.1 L137.9 34.1 L136.4 32.8 L136.4 30.8 L138 30.6 L138.5 25 L136.8 24.6 L136.1 20.6 L134.2 23.9 z" fill-opacity="0.71" />

	<defs>
        <radialGradient cx="102.5" cy="102.5" r="100.4" gradientUnits="userSpaceOnUse" id="Radial">
			<stop offset="0%" stop-color="#A9CBFA" stop-opacity="1" />
			<stop offset="100%" stop-color="#002E6B" stop-opacity="1" />
		</radialGradient>
    </defs>
</svg>