<?xml version="1.0" encoding="utf-8"?>
<!DOCTYPE svg PUBLIC "-//W3C//DTD SVG 1.1//EN" "http://www.w3.org/Graphics/SVG/1.1/DTD/svg11.dtd">
<svg version="1.1" xmlns="http://www.w3.org/2000/svg" xmlns:xlink="http://www.w3.org/1999/xlink" xmlns:xml="http://www.w3.org/XML/1998/namespace" xmlns:serif="http://www.serif.com/" width="205" height="205" viewBox="0, 0, 205, 205" xml:space="preserve" fill-rule="evenodd" stroke-linecap="round" stroke-linejoin="round" stroke-miterlimit="1.5" style="clip-rule:evenodd;">
    
	<circle cx="102.5" cy="102.5" r="100.4" stroke-width="2.49px" style="fill:url(#Radial);stroke:black;" />
    <circle cx="102.5" cy="102.5" r="69" stroke-width="6px" stroke-opacity="0.5" style="fill:none;stroke:white;" />
    <path d="M44.8 167.9 L45.5 164.4 L48 158.7 L45 157.9 C49.5 148.7 54.4 139.7 60.1 131 L64.9 128.7 C66.5 126.6 68.3 124.5 70.3 122.7 L76.7 110.3 L74.8 108.4 L83.7 95.3 L86.6 96.3 L85.6 89.9 L83.4 87 L70.3 100.1 L70.3 104.9 L67.8 106.5 L62 95.6 L64.6 94 L66.8 94.7 L70.6 90.2 L68.4 89.9 L63.6 88.3 L63 82.3 L70.3 67.3 L71.9 61.2 L85.3 56.1 L85.9 52.6 L86.6 51.1 L84 44.7 L83.4 40.2 L78.3 41.2 L78 39.3 L81.1 35.1 L84 30.4 C86.4 28.5 89.3 27.4 92.6 26.9 C96.9 26.4 100.3 27.9 103.1 30.7 L106 42.8 L102.2 46.6 L101.2 49.8 L102.5 50.7 L109.8 50.7 L111.1 52 L111.4 54.6 L113.3 55.2 L117.1 51.7 L116.8 49.8 L124.7 44.1 L124.7 41.5 L128.4 37.9 L132.8 37.6 L134.5 35.8 L136.6 36.4 L141.3 32.7 L140.5 31.6 L143.3 29.3 L144.2 30.4 L156.6 20.4 L158.2 22.6 L145.8 32.6 L146.7 33.8 L143.9 36.1 L143 34.9 L138.7 38.3 L139.6 39.9 L135.3 43.6 L134.4 48.8 L134.7 50.1 L136 50.9 L135.8 62.9 L132.6 63.6 L130.9 73.2 L128.4 76.3 L124.7 75.9 L113.8 72.1 L113.6 84.4 L112.7 86.7 L113.1 92.9 L113.9 93.6 L115 95.6 L118.4 94.2 L125.2 106.2 L121.5 109.1 C124.4 114.3 127.2 119.7 129.6 125.3 L130.4 128.8 L133.9 126.5 L135.5 126.7 L144.9 155.7 L148.7 158.3 L147.9 160.2 L152.5 163 L157.4 165.1 L158.2 169.1 L150.4 169.5 L138 169.7 L133.8 169.5 L133.8 165.7 L134.2 162.7 L131.5 161.9 L129.8 155.9 L120.9 141.4 L123.1 138.1 L120.3 132.3 L117.9 126.7 C113.2 122 108.7 117.1 104.4 111.9 L92.4 112.4 C88.7 118.4 84.4 124.3 79 129.9 L74.3 135.1 L74.3 138.4 C69 144.4 65 151.7 61.9 159.9 L59.5 160.5 L59.4 167.6 L44.8 167.9 z M116.3 60.2 L122.5 64 L124.1 63.7 L123.6 62.3 L126.9 53.1 L128.8 52 L128 50.1 L126.6 51.5 L122 56 L120.9 55.5 L116.3 60.2 z" style="fill:#FFFFC9;" />
    <path d="M157.2 14.2 L157.8 14.3 L158.3 14.4 L158.9 14.6 L159.4 14.9 L160 15.2 L160.4 15.5 L160.9 15.9 L161.3 16.3 L161.7 16.8 L163.3 19 L163.6 19.5 L163.9 20 L164.1 20.6 L164.3 21.1 L164.4 21.7 L164.4 22.3 L164.4 22.9 L164.4 23.5 L164.3 24.1 L164.1 24.6 L163.9 25.2 L163.6 25.7 L163.3 26.2 L162.9 26.7 L162.6 27.1 L162.1 27.5 L152.8 35 L152.8 35 L152.6 35.6 L152.5 36.1 L152.2 36.7 L151.9 37.2 L151.6 37.7 L151.2 38.1 L150.7 38.5 L148 40.9 L147.5 41.2 L147 41.6 L146.5 41.8 L145.9 42.1 L145.5 42.2 L145.4 42.3 L145.1 42.9 L144.8 43.4 L144.5 43.9 L144.1 44.3 L143.7 44.7 L141.1 46.9 L141 47.2 L141.3 47.6 L141.6 48.1 L141.8 48.7 L142 49.2 L142.1 49.8 L142.2 50.4 L142.2 51 L142.1 63 L142 63.6 L141.9 64.2 L141.8 64.8 L141.6 65.4 L141.3 65.9 L141 66.4 L140.6 66.9 L140.2 67.4 L139.8 67.8 L139.3 68.1 L138.8 68.4 L138.2 68.7 L138.1 68.8 L137 74.3 L136.9 74.9 L136.8 75.4 L136.6 75.9 L136.3 76.4 L136 76.8 L135.7 77.3 L133.2 80.3 L132.7 80.7 L132.3 81.1 L131.8 81.5 L131.3 81.8 L130.8 82 L130.2 82.2 L129.6 82.4 L129 82.5 L128.4 82.5 L127.8 82.5 L124.2 82.2 L123.7 82.1 L123.2 82 L122.7 81.8 L119.9 80.9 L119.9 84.4 L119.8 85 L119.7 85.6 L119.6 86.1 L119.4 86.7 L119 87.7 L119 88 L119.5 88 L120.1 88.2 L120.7 88.4 L121.2 88.6 L121.7 88.9 L122.2 89.3 L122.7 89.7 L123.1 90.1 L123.5 90.6 L123.8 91.1 L130.6 103.2 L130.9 103.7 L131.1 104.2 L131.3 104.8 L131.4 105.4 L131.4 106 L131.4 106.6 L131.4 107.2 L131.3 107.7 L131.1 108.3 L130.9 108.9 L130.6 109.4 L130.3 109.9 L129.9 110.3 L129.5 110.7 L129.7 111.1 L130 111.6 L130.3 112.1 L130.5 112.7 L130.8 113.2 L131.1 113.7 L131.3 114.2 L131.6 114.7 L131.9 115.3 L132.1 115.8 L132.4 116.3 L132.6 116.9 L132.9 117.4 L133.1 117.9 L133.4 118.4 L133.6 119 L133.9 119.5 L134.1 120.1 L134.2 120.3 L134.7 120.3 L136.3 120.5 L136.9 120.6 L137.4 120.8 L138 121 L138.5 121.2 L139 121.5 L139.5 121.9 L139.9 122.3 L140.3 122.7 L140.7 123.2 L141 123.7 L141.2 124.2 L141.4 124.8 L150.1 151.7 L152.1 153.1 L152.6 153.4 L153 153.8 L153.4 154.2 L153.8 154.7 L154.1 155.1 L154.4 155.6 L154.6 156.2 L154.7 156.7 L154.8 157.1 L155.4 157.5 L159.8 159.3 L160.4 159.6 L160.9 159.9 L161.4 160.3 L161.8 160.7 L162.2 161.1 L162.6 161.6 L162.9 162.1 L163.2 162.7 L163.4 163.3 L163.5 163.9 L164.3 167.8 L164.4 168.4 L164.4 169 L164.4 169.6 L164.3 170.2 L164.2 170.8 L164 171.3 L163.8 171.9 L163.5 172.4 L163.1 172.9 L162.8 173.3 L162.3 173.7 L161.9 174.1 L161.4 174.4 L160.9 174.7 L160.3 174.9 L159.7 175.1 L159.2 175.2 L158.6 175.3 L150.6 175.8 L138 175.9 L133.5 175.8 L132.9 175.7 L132.3 175.6 L131.8 175.5 L131.2 175.2 L130.7 175 L130.2 174.6 L129.7 174.3 L129.3 173.9 L128.9 173.4 L128.5 172.9 L128.2 172.4 L128 171.9 L127.8 171.3 L127.6 170.7 L127.5 170.1 L127.5 169.5 L127.5 166.7 L127.3 166.5 L126.9 166.1 L126.5 165.7 L126.2 165.2 L126 164.7 L125.7 164.2 L125.5 163.7 L124 158.4 L115.6 144.7 L115.3 144.2 L115.1 143.7 L114.9 143.1 L114.8 142.5 L114.7 141.9 L114.7 141.3 L114.7 140.7 L114.8 140.2 L114.9 139.6 L115.2 139 L115.4 138.5 L115.7 138 L115.9 137.6 L114.6 134.9 L112.6 130.2 L112.6 130.2 L112.1 129.7 L111.7 129.3 L111.2 128.8 L110.8 128.4 L110.3 127.9 L109.9 127.5 L109.5 127 L109 126.5 L108.6 126.1 L108.1 125.6 L107.7 125.1 L107.3 124.7 L106.8 124.2 L106.4 123.7 L106 123.2 L105.5 122.8 L105.1 122.3 L104.7 121.8 L104.2 121.3 L103.8 120.8 L103.4 120.4 L103 119.9 L102.5 119.4 L102.1 118.9 L101.7 118.4 L101.6 118.3 L95.9 118.5 L95.8 118.6 L95.6 118.9 L95.5 119.2 L95.3 119.5 L95.1 119.8 L94.9 120.1 L94.7 120.4 L94.5 120.7 L94.3 121 L94.1 121.3 L93.9 121.6 L93.7 121.9 L93.4 122.2 L93.2 122.5 L93 122.8 L92.8 123 L92.6 123.3 L92.4 123.6 L92.2 123.9 L92 124.2 L91.7 124.5 L91.5 124.8 L91.3 125.1 L91.1 125.4 L90.9 125.7 L90.6 126 L90.4 126.2 L90.2 126.5 L90 126.8 L89.7 127.1 L89.5 127.4 L89.3 127.7 L89 128 L88.8 128.3 L88.6 128.5 L88.3 128.8 L88.1 129.1 L87.9 129.4 L87.6 129.7 L87.4 130 L87.1 130.2 L86.9 130.5 L86.6 130.8 L86.4 131.1 L86.1 131.4 L85.9 131.7 L85.6 131.9 L85.4 132.2 L85.1 132.5 L84.9 132.8 L84.6 133.1 L84.3 133.4 L84.1 133.6 L83.8 133.9 L83.6 134.1 L80.5 137.5 L80.5 138.4 L80.5 139 L80.4 139.5 L80.3 140.1 L80.1 140.6 L79.9 141.1 L79.6 141.6 L79.3 142.1 L79 142.5 L78.8 142.8 L78.6 143.1 L78.3 143.3 L78.1 143.6 L77.9 143.8 L77.7 144.1 L77.5 144.3 L77.3 144.6 L77.1 144.9 L76.9 145.1 L76.7 145.4 L76.5 145.7 L76.3 145.9 L76.1 146.2 L75.9 146.5 L75.7 146.8 L75.5 147.1 L75.3 147.3 L75.1 147.6 L74.9 147.9 L74.7 148.2 L74.5 148.5 L74.4 148.8 L74.2 149.1 L74 149.3 L73.8 149.6 L73.6 149.9 L73.4 150.2 L73.3 150.5 L73.1 150.8 L72.9 151.1 L72.7 151.5 L72.6 151.8 L72.4 152.1 L72.2 152.4 L72 152.7 L71.9 153 L71.7 153.3 L71.5 153.6 L71.4 154 L71.2 154.3 L71 154.6 L70.9 154.9 L70.7 155.2 L70.6 155.6 L70.4 155.9 L70.2 156.2 L70.1 156.6 L69.9 156.9 L69.8 157.2 L69.6 157.6 L69.5 157.9 L69.3 158.3 L69.2 158.6 L69 158.9 L68.9 159.3 L68.7 159.6 L68.6 160 L68.4 160.3 L68.3 160.7 L68.2 161 L68 161.4 L67.9 161.7 L67.7 162.1 L67.5 162.7 L67.2 163.2 L66.9 163.6 L66.5 164.1 L66.1 164.5 L65.7 164.8 L65.6 167.8 L65.6 168.4 L65.5 168.9 L65.3 169.5 L65.1 170.1 L64.8 170.6 L64.5 171.1 L64.2 171.6 L63.8 172.1 L63.3 172.5 L62.9 172.8 L62.3 173.1 L61.8 173.4 L61.3 173.6 L60.7 173.7 L60.1 173.8 L59.5 173.9 L45 174.2 L44.4 174.1 L43.8 174.1 L43.2 174 L42.7 173.8 L42.2 173.6 L41.6 173.3 L41.2 173 L40.7 172.6 L40.3 172.2 L39.9 171.7 L39.6 171.3 L39.3 170.8 L39 170.2 L38.8 169.7 L38.7 169.1 L38.6 168.5 L38.6 168 L38.6 167.4 L38.7 166.8 L39.3 163.3 L39.4 162.8 L39.6 162.3 L39.8 161.9 L39.9 161.5 L39.7 161.2 L39.4 160.7 L39.2 160.2 L39 159.6 L38.9 159.1 L38.8 158.5 L38.7 157.9 L38.8 157.3 L38.8 156.8 L39 156.2 L39.2 155.6 L39.4 155.1 L39.8 154.2 L40.2 153.4 L40.7 152.5 L41.1 151.6 L41.6 150.8 L42 149.9 L42.2 149.5 L42.4 149 L42.7 148.6 L42.9 148.2 L43.1 147.7 L43.3 147.3 L43.6 146.8 L43.8 146.4 L44 146 L44.3 145.6 L44.5 145.1 L44.7 144.7 L45 144.3 L45.2 143.8 L45.4 143.4 L45.7 142.9 L45.9 142.5 L46.1 142.1 L46.4 141.7 L46.6 141.2 L46.9 140.8 L47.1 140.4 L47.3 139.9 L47.6 139.5 L47.8 139.1 L48.1 138.6 L48.3 138.2 L48.6 137.8 L48.8 137.3 L49.1 136.9 L49.3 136.5 L49.6 136.1 L49.8 135.6 L50.1 135.2 L50.4 134.8 L50.6 134.3 L50.9 133.9 L51.1 133.5 L51.4 133.1 L51.7 132.6 L51.9 132.2 L52.2 131.8 L52.5 131.4 L52.7 130.9 L53 130.5 L53.3 130.1 L53.5 129.7 L53.8 129.2 L54.1 128.8 L54.4 128.4 L54.6 128 L54.9 127.5 L55.3 127.1 L55.6 126.6 L56 126.2 L56.5 125.9 L57 125.6 L57.5 125.3 L60.9 123.7 L60.9 123.7 L61.1 123.5 L61.3 123.2 L61.4 123 L61.6 122.8 L61.8 122.6 L62 122.3 L62.2 122.1 L62.4 121.9 L62.6 121.7 L62.8 121.4 L63 121.2 L63.2 121 L63.4 120.8 L63.6 120.6 L63.8 120.3 L64 120.1 L64.2 119.9 L64.4 119.7 L64.6 119.5 L64.8 119.2 L65.1 119 L65.3 118.8 L68.4 112.7 L68.2 112.7 L67.6 112.7 L67 112.7 L66.4 112.6 L65.9 112.4 L65.3 112.2 L64.8 111.9 L64.2 111.6 L63.8 111.3 L63.3 110.8 L62.9 110.4 L62.6 109.9 L62.3 109.4 L56.5 98.6 L56.3 98 L56.1 97.5 L55.9 96.9 L55.8 96.3 L55.8 95.7 L55.8 95.2 L55.9 94.6 L56 94 L56.2 93.5 L56.4 92.9 L56.7 92.4 L57 91.9 L57.4 91.5 L57.8 91 L58 90.9 L57.9 90.7 L57.6 90.1 L57.5 89.5 L57.4 89 L56.8 82.9 L56.7 82.3 L56.8 81.8 L56.8 81.2 L57 80.6 L57.1 80 L57.4 79.5 L64.4 65.1 L65.9 59.7 L66 59.1 L66.3 58.5 L66.6 58 L66.9 57.5 L67.3 57.1 L67.7 56.6 L68.1 56.3 L68.6 55.9 L69.1 55.6 L69.7 55.4 L79.8 51.6 L79.8 51.5 L79.9 51.1 L78.4 47.4 L78.3 47.4 L77.7 47.4 L77.1 47.3 L76.5 47.2 L76 47 L75.5 46.8 L74.9 46.5 L74.5 46.1 L74 45.8 L73.6 45.3 L73.2 44.9 L72.9 44.4 L72.6 43.9 L72.4 43.3 L72.2 42.8 L72.1 42.2 L71.8 40.3 L71.7 39.7 L71.7 39.2 L71.7 38.6 L71.8 38 L72 37.5 L72.2 36.9 L72.4 36.4 L72.7 35.9 L73 35.5 L76 31.6 L78.6 27.1 L79 26.6 L79.4 26.2 L79.8 25.7 L80.3 25.3 L80.4 25.2 L80.6 25.1 L80.7 25 L80.9 24.9 L81 24.8 L81.2 24.7 L81.4 24.6 L81.5 24.5 L81.7 24.4 L81.9 24.3 L82 24.2 L82.2 24.1 L82.4 24 L82.5 23.9 L82.7 23.8 L82.9 23.7 L83 23.6 L83.2 23.5 L83.4 23.4 L83.5 23.3 L83.7 23.2 L83.9 23.1 L84.1 23 L84.2 23 L84.4 22.9 L84.6 22.8 L84.8 22.7 L84.9 22.6 L85.1 22.6 L85.3 22.5 L85.5 22.4 L85.7 22.3 L85.8 22.3 L86 22.2 L86.2 22.1 L86.4 22.1 L86.5 22 L86.7 21.9 L86.9 21.9 L87.1 21.8 L87.3 21.7 L87.5 21.7 L87.7 21.6 L87.8 21.6 L88 21.5 L88.2 21.4 L88.4 21.4 L88.6 21.3 L88.8 21.3 L88.9 21.3 L89.1 21.2 L89.3 21.2 L89.5 21.1 L89.7 21.1 L89.9 21 L90.1 21 L90.3 20.9 L90.4 20.9 L90.6 20.9 L90.8 20.8 L91 20.8 L91.2 20.8 L91.4 20.7 L91.8 20.7 L92.3 20.6 L92.6 20.6 L92.8 20.6 L93.1 20.6 L93.4 20.5 L93.7 20.5 L94 20.5 L94.2 20.5 L94.5 20.5 L94.8 20.6 L95.1 20.6 L95.3 20.6 L95.6 20.6 L95.9 20.6 L96.2 20.7 L96.4 20.7 L96.7 20.7 L97 20.8 L97.3 20.8 L97.5 20.8 L97.8 20.9 L98.1 21 L98.3 21 L98.6 21.1 L98.9 21.2 L99.1 21.2 L99.4 21.3 L99.6 21.4 L99.9 21.5 L100.1 21.5 L100.4 21.6 L100.6 21.7 L100.9 21.8 L101.1 21.9 L101.4 22 L101.6 22.1 L101.9 22.2 L102.1 22.4 L102.3 22.5 L102.6 22.6 L102.8 22.7 L103 22.8 L103.3 23 L103.5 23.1 L103.7 23.2 L103.9 23.4 L104.1 23.5 L104.4 23.7 L104.6 23.8 L104.8 23.9 L105 24.1 L105.2 24.2 L105.4 24.4 L105.6 24.6 L105.8 24.7 L106 24.9 L106.2 25 L106.4 25.2 L106.6 25.4 L106.8 25.5 L107 25.7 L107.1 25.9 L107.3 26.1 L107.5 26.2 L107.9 26.6 L108.2 27.1 L108.6 27.6 L108.8 28.1 L109 28.7 L109.2 29.2 L112.1 41.3 L112.2 41.9 L112.2 42.5 L112.2 43.1 L112.2 43.6 L112.1 44.2 L111.9 44.8 L111.9 44.8 L111.9 44.9 L112.4 45.1 L112.6 45.2 L112.7 45.1 L113.1 44.7 L118.5 40.8 L118.6 40.4 L118.7 39.9 L118.8 39.4 L119.1 38.9 L119.3 38.4 L119.6 37.9 L119.9 37.5 L120.3 37.1 L123.9 33.5 L124.4 33.1 L124.8 32.7 L125.3 32.4 L125.8 32.2 L126.3 32 L126.8 31.8 L127.4 31.7 L127.9 31.6 L130 31.5 L130.1 31.4 L130.5 31 L131 30.7 L131.5 30.4 L132 30.1 L132.5 29.9 L133 29.7 L133.6 29.6 L134.2 29.6 L134.6 29.6 L134.8 29.1 L135 28.6 L135.4 28 L135.7 27.6 L136.1 27.1 L136.6 26.7 L139.4 24.4 L139.9 24.1 L140.4 23.8 L140.9 23.5 L141.5 23.3 L142.1 23.2 L142.7 23.1 L143.2 23.1 L143.3 23.1 L152.7 15.5 L153.2 15.2 L153.7 14.9 L154.2 14.6 L154.8 14.4 L155.4 14.3 L156 14.2 L156.6 14.2 L157.2 14.2 z M144.2 30.4 L143.3 29.3 L140.5 31.6 L141.3 32.7 L136.6 36.4 L134.5 35.8 L132.8 37.6 L128.4 37.9 L124.7 41.5 L124.7 44.1 L116.8 49.8 L117.1 51.7 L113.3 55.2 L111.4 54.6 L111.1 52 L109.8 50.7 L102.5 50.7 L101.2 49.8 L102.2 46.6 L106 42.8 L103.1 30.7 L103 30.5 L102.9 30.4 L102.7 30.3 L102.6 30.2 L102.4 30.1 L102.3 29.9 L102.2 29.8 L102 29.7 L101.9 29.6 L101.7 29.5 L101.6 29.4 L101.5 29.3 L101.3 29.2 L101.2 29.1 L101 29 L100.9 28.9 L100.7 28.8 L100.6 28.7 L100.5 28.6 L100.3 28.5 L100.1 28.4 L100 28.3 L99.8 28.2 L99.7 28.1 L99.5 28.1 L99.4 28 L99.2 27.9 L99.1 27.8 L98.9 27.8 L98.7 27.7 L98.6 27.6 L98.4 27.6 L98.3 27.5 L98.1 27.5 L97.9 27.4 L97.8 27.3 L97.6 27.3 L97.4 27.2 L97.2 27.2 L97.1 27.1 L96.9 27.1 L96.7 27.1 L96.6 27 L96.4 27 L96.2 27 L96 26.9 L95.8 26.9 L95.7 26.9 L95.5 26.9 L95.3 26.8 L95.1 26.8 L94.9 26.8 L94.7 26.8 L94.6 26.8 L94.4 26.8 L94.2 26.8 L94 26.8 L93.8 26.8 L93.6 26.8 L93.4 26.8 L93.2 26.8 L93 26.8 L92.8 26.8 L92.6 26.9 L92.4 26.9 L92.3 26.9 L92.2 26.9 L92 27 L91.8 27 L91.7 27 L91.5 27.1 L91.4 27.1 L91.2 27.1 L91.1 27.2 L90.9 27.2 L90.8 27.2 L90.7 27.3 L90.5 27.3 L90.4 27.3 L90.2 27.4 L90.1 27.4 L89.9 27.5 L89.8 27.5 L89.7 27.5 L89.5 27.6 L89.4 27.6 L89.2 27.7 L89.1 27.7 L88.9 27.8 L88.8 27.8 L88.7 27.9 L88.5 27.9 L88.4 28 L88.3 28 L88.1 28.1 L88 28.1 L87.9 28.2 L87.7 28.2 L87.6 28.3 L87.5 28.4 L87.3 28.4 L87.2 28.5 L87.1 28.5 L86.9 28.6 L86.8 28.7 L86.7 28.7 L86.5 28.8 L86.4 28.9 L86.3 28.9 L86.2 29 L86 29 L85.9 29.1 L85.8 29.2 L85.7 29.3 L85.5 29.3 L85.4 29.4 L85.3 29.5 L85.2 29.6 L85.1 29.6 L84.9 29.7 L84.8 29.8 L84.7 29.9 L84.6 29.9 L84.5 30 L84.4 30.1 L84.2 30.2 L84.1 30.3 L84 30.4 L81.1 35.1 L78 39.3 L78.3 41.2 L83.4 40.2 L84 44.7 L86.6 51.1 L85.9 52.6 L85.3 56.1 L71.9 61.2 L70.3 67.3 L63 82.3 L63.6 88.3 L68.4 89.9 L70.6 90.2 L66.8 94.7 L64.6 94 L62 95.6 L67.8 106.5 L70.3 104.9 L70.3 100.1 L83.4 87 L85.6 89.9 L86.6 96.3 L83.7 95.3 L74.8 108.4 L76.7 110.3 L70.3 122.7 L70.1 122.9 L69.9 123 L69.7 123.2 L69.6 123.4 L69.4 123.6 L69.2 123.7 L69 123.9 L68.8 124.1 L68.7 124.3 L68.5 124.5 L68.3 124.6 L68.1 124.8 L68 125 L67.8 125.2 L67.6 125.4 L67.4 125.6 L67.3 125.8 L67.1 126 L67 126.1 L66.8 126.3 L66.6 126.5 L66.5 126.7 L66.3 126.9 L66.1 127.1 L66 127.3 L65.8 127.5 L65.7 127.7 L65.5 127.9 L65.4 128.1 L65.2 128.3 L65.1 128.5 L64.9 128.7 L60.1 131 L59.9 131.4 L59.6 131.8 L59.3 132.2 L59.1 132.6 L58.8 133 L58.5 133.4 L58.3 133.9 L58 134.3 L57.8 134.7 L57.5 135.1 L57.2 135.5 L57 135.9 L56.7 136.3 L56.5 136.7 L56.2 137.2 L56 137.6 L55.7 138 L55.5 138.4 L55.2 138.8 L55 139.2 L54.7 139.7 L54.5 140.1 L54.2 140.5 L54 140.9 L53.8 141.3 L53.5 141.8 L53.3 142.2 L53 142.6 L52.8 143 L52.6 143.4 L52.3 143.8 L52.1 144.3 L51.9 144.7 L51.6 145.1 L51.4 145.5 L51.1 146 L50.9 146.4 L50.7 146.8 L50.5 147.2 L50.2 147.6 L50 148.1 L49.8 148.5 L49.6 148.9 L49.3 149.3 L49.1 149.8 L48.9 150.2 L48.7 150.6 L48.4 151 L48.2 151.5 L48 151.9 L47.8 152.3 L47.6 152.7 L47.1 153.6 L46.7 154.5 L46.3 155.3 L45.8 156.2 L45.4 157 L45 157.9 L48 158.7 L45.5 164.4 L44.8 167.9 L59.4 167.6 L59.5 160.5 L61.9 159.9 L62 159.5 L62.2 159.1 L62.3 158.7 L62.5 158.3 L62.7 158 L62.8 157.6 L63 157.2 L63.1 156.8 L63.3 156.5 L63.4 156.1 L63.6 155.7 L63.8 155.4 L63.9 155 L64.1 154.6 L64.3 154.3 L64.4 153.9 L64.6 153.6 L64.8 153.2 L64.9 152.9 L65.1 152.5 L65.3 152.1 L65.4 151.8 L65.6 151.4 L65.8 151.1 L66 150.7 L66.2 150.4 L66.4 150.1 L66.5 149.7 L66.7 149.4 L66.9 149 L67.1 148.7 L67.3 148.3 L67.5 148 L67.7 147.7 L67.9 147.3 L68.1 147 L68.3 146.7 L68.5 146.4 L68.7 146 L68.9 145.7 L69.1 145.4 L69.3 145.1 L69.5 144.8 L69.7 144.4 L69.9 144.1 L70.1 143.8 L70.3 143.5 L70.6 143.2 L70.8 142.9 L71 142.6 L71.2 142.3 L71.5 141.9 L71.7 141.7 L71.9 141.3 L72.1 141.1 L72.4 140.8 L72.6 140.5 L72.8 140.2 L73.1 139.9 L73.3 139.6 L73.5 139.3 L73.8 139 L74 138.7 L74.3 138.4 L74.3 135.1 L79 129.9 L79.3 129.6 L79.5 129.4 L79.8 129.1 L80 128.8 L80.3 128.6 L80.5 128.3 L80.8 128 L81 127.8 L81.2 127.5 L81.5 127.2 L81.7 127 L81.9 126.7 L82.2 126.4 L82.4 126.2 L82.6 125.9 L82.9 125.6 L83.1 125.4 L83.3 125.1 L83.5 124.8 L83.8 124.6 L84 124.3 L84.2 124 L84.4 123.7 L84.6 123.5 L84.9 123.2 L85.1 122.9 L85.3 122.7 L85.5 122.4 L85.7 122.1 L85.9 121.8 L86.1 121.6 L86.3 121.3 L86.5 121 L86.7 120.8 L86.9 120.5 L87.2 120.2 L87.3 119.9 L87.5 119.7 L87.8 119.4 L87.9 119.1 L88.1 118.8 L88.3 118.6 L88.5 118.3 L88.7 118 L88.9 117.7 L89.1 117.5 L89.3 117.2 L89.5 116.9 L89.7 116.6 L89.9 116.3 L90.1 116.1 L90.2 115.8 L90.4 115.5 L90.6 115.2 L90.8 114.9 L91 114.7 L91.1 114.4 L91.3 114.1 L91.5 113.8 L91.7 113.5 L91.8 113.3 L92 113 L92.2 112.7 L92.4 112.4 L104.4 111.9 L104.8 112.4 L105.2 112.9 L105.6 113.4 L106 113.9 L106.4 114.3 L106.8 114.8 L107.3 115.3 L107.7 115.8 L108.1 116.2 L108.5 116.7 L108.9 117.2 L109.3 117.6 L109.7 118.1 L110.2 118.6 L110.6 119 L111 119.5 L111.4 119.9 L111.8 120.4 L112.3 120.9 L112.7 121.3 L113.1 121.8 L113.6 122.2 L114 122.7 L114.4 123.1 L114.8 123.6 L115.3 124 L115.7 124.5 L116.1 124.9 L116.6 125.4 L117 125.8 L117.5 126.3 L117.9 126.7 L120.3 132.3 L123.1 138.1 L120.9 141.4 L129.8 155.9 L131.5 161.9 L134.2 162.7 L133.8 165.7 L133.8 169.5 L138 169.7 L150.4 169.5 L158.2 169.1 L157.4 165.1 L152.5 163 L147.9 160.2 L148.7 158.3 L144.9 155.7 L135.5 126.7 L133.9 126.5 L130.4 128.8 L129.6 125.3 L129.4 124.7 L129.2 124.2 L128.9 123.7 L128.7 123.2 L128.5 122.7 L128.2 122.1 L128 121.6 L127.7 121.1 L127.5 120.6 L127.2 120.1 L127 119.6 L126.7 119.1 L126.5 118.6 L126.2 118 L126 117.5 L125.7 117 L125.5 116.5 L125.2 116 L125 115.5 L124.7 115 L124.5 114.5 L124.2 114 L123.9 113.5 L123.7 113 L123.4 112.5 L123.1 112 L122.9 111.5 L122.6 111 L122.3 110.6 L122.1 110.1 L121.8 109.6 L121.5 109.1 L125.2 106.2 L118.4 94.2 L115 95.6 L113.9 93.6 L113.1 92.9 L112.7 86.7 L113.6 84.4 L113.8 72.1 L124.7 75.9 L128.4 76.3 L130.9 73.2 L132.6 63.6 L135.8 62.9 L136 50.9 L134.7 50.1 L134.4 48.8 L135.3 43.6 L139.6 39.9 L138.7 38.3 L143 34.9 L143.9 36.1 L146.7 33.8 L145.8 32.6 L158.2 22.6 L156.6 20.4 L144.2 30.4 z M128.8 52 L126.9 53.1 L123.6 62.3 L124.1 63.7 L122.5 64 L116.3 60.2 L120.9 55.5 L122 56 L126.6 51.5 L128 50.1 L128.8 52 z" fill-opacity="0.71" />
    <defs>
        <radialGradient cx="102.5" cy="102.5" r="100.4" gradientUnits="userSpaceOnUse" id="Radial">
			<stop offset="0%" stop-color="#D7EB7C" stop-opacity="1" />
			<stop offset="100%" stop-color="#506700" stop-opacity="1" />
		</radialGradient>
    </defs>
</svg>