<?xml version="1.0" encoding="UTF-8" standalone="no"?>
<!DOCTYPE svg PUBLIC "-//W3C//DTD SVG 1.1//EN" "http://www.w3.org/Graphics/SVG/1.1/DTD/svg11.dtd">
<svg width="91" height="91" viewBox="0 0 91 91" version="1.1" xmlns="http://www.w3.org/2000/svg" xmlns:xlink="http://www.w3.org/1999/xlink" xml:space="preserve" xmlns:serif="http://www.serif.com/" style="fill-rule:evenodd;clip-rule:evenodd;stroke-linecap:round;stroke-linejoin:round;">
<filter xmlns="http://www.w3.org/2000/svg" id="dropshadow" x="-0.2" width="300%" height="300%">
      <feGaussianBlur in="SourceAlpha" stdDeviation="2"/> 
      <feOffset dx="0" dy="0" result="offsetblur"/> 
      <feMerge> 
        <feMergeNode/>
        <feMergeNode in="SourceGraphic"/> 
      </feMerge>
    </filter>
    <g id="background" transform="matrix(0.821716,0,0,0.821716,-18.5673,-18.5778)">
        <path d="M42.458,35.478C47.445,31.3 53.622,27.688 60.578,25.4C67.534,23.112 75.268,22.15 82.867,22.817C86.666,23.151 90.432,23.892 94.06,25.008C97.688,26.123 101.178,27.613 104.381,29.347C110.788,32.814 116.048,37.255 120.395,42.458C124.742,47.661 128.177,53.625 130.453,60.547C131.591,64.008 132.439,67.709 132.888,71.475C133.337,75.242 133.386,79.074 133.046,82.872C132.706,86.67 131.976,90.433 130.865,94.06C129.754,97.687 128.262,101.178 126.527,104.381C123.058,110.789 118.617,116.048 113.415,120.395C108.212,124.742 102.248,128.177 95.326,130.453C91.865,131.591 88.165,132.439 84.398,132.888C80.632,133.337 76.799,133.386 73.001,133.046C69.203,132.706 65.44,131.976 61.813,130.865C58.186,129.754 54.696,128.262 51.492,126.527C45.085,123.058 39.826,118.617 35.478,113.415C31.131,108.212 27.694,102.247 25.421,95.326C24.284,91.866 23.438,88.166 22.985,84.398C22.532,80.63 22.472,76.792 22.818,72.994C23.512,65.397 25.833,57.957 29.321,51.519C32.808,45.08 37.461,39.643 42.458,35.478Z" style="fill:rgb(96,45,139);fill-rule:nonzero;"/>
    </g>
    <g id="Icon" filter="url(#dropshadow)">
        <g transform="matrix(0.821716,0,0,0.821716,-120.839,-18.5778)">
            <path d="M202.398,34.68C202.42,35.068 202.423,35.458 202.398,35.845C202.324,36.979 202.01,38.09 201.624,39.166C200.915,41.138 199.963,42.992 199.051,44.862C198.175,46.655 197.337,48.463 196.609,50.338C196.078,51.706 195.606,53.109 195.466,54.56C195.408,55.166 195.407,55.78 195.454,56.395C195.502,57.009 195.596,57.624 195.751,58.223C195.761,58.261 195.771,58.299 195.792,58.331C195.812,58.363 195.844,58.388 195.879,58.408C195.914,58.428 195.952,58.442 195.99,58.443C196.027,58.445 196.064,58.433 196.101,58.422C197.971,57.836 199.964,57.488 201.962,57.447C203.961,57.406 205.964,57.672 207.864,58.161C207.918,58.175 207.972,58.189 208.023,58.177C208.075,58.164 208.123,58.126 208.159,58.078C208.194,58.03 208.217,57.973 208.215,57.92C208.212,57.867 208.184,57.817 208.156,57.767C207.814,57.164 207.467,56.562 207.159,55.941C206.851,55.321 206.582,54.683 206.351,54.033C205.88,52.705 205.568,51.328 205.34,49.942C205.011,47.94 204.856,45.92 204.68,43.894C204.529,42.155 204.363,40.412 203.933,38.726C203.576,37.329 203.038,35.973 202.398,34.68Z" style="fill:white;fill-rule:nonzero;stroke:black;stroke-width:0.61px;"/>
        </g>
        <g transform="matrix(0.821716,0,0,0.821716,-120.839,-18.5778)">
            <path d="M171.8,47.354C172.09,47.613 172.368,47.886 172.624,48.178C173.373,49.032 173.937,50.04 174.424,51.074C175.318,52.969 175.956,54.954 176.632,56.921C177.282,58.808 177.967,60.679 178.778,62.519C179.37,63.862 180.029,65.188 180.956,66.313C181.343,66.783 181.777,67.217 182.244,67.618C182.712,68.02 183.214,68.387 183.747,68.702C183.781,68.722 183.815,68.742 183.852,68.749C183.89,68.757 183.93,68.753 183.969,68.742C184.007,68.731 184.044,68.714 184.072,68.689C184.099,68.663 184.117,68.629 184.135,68.595C185.043,66.858 186.206,65.202 187.59,63.761C188.974,62.319 190.579,61.091 192.268,60.093C192.316,60.064 192.365,60.036 192.392,59.991C192.42,59.946 192.427,59.884 192.418,59.825C192.409,59.766 192.385,59.71 192.346,59.674C192.306,59.638 192.251,59.623 192.196,59.608C191.528,59.423 190.857,59.242 190.2,59.022C189.544,58.801 188.902,58.54 188.279,58.243C187.008,57.638 185.813,56.884 184.672,56.065C183.024,54.883 181.486,53.564 179.929,52.256C178.593,51.133 177.242,50.017 175.746,49.13C174.506,48.395 173.166,47.816 171.8,47.354Z" style="fill:white;fill-rule:nonzero;stroke:black;stroke-width:0.61px;"/>
        </g>
        <g transform="matrix(0.821716,0,0,0.821716,-120.839,-18.5778)">
            <path d="M159.125,77.952C159.513,77.93 159.904,77.927 160.291,77.952C161.425,78.026 162.536,78.34 163.612,78.727C165.584,79.435 167.438,80.387 169.307,81.3C171.101,82.175 172.908,83.013 174.783,83.741C176.151,84.272 177.555,84.744 179.005,84.884C179.611,84.942 180.226,84.943 180.84,84.896C181.455,84.849 182.069,84.754 182.668,84.599C182.707,84.59 182.745,84.579 182.777,84.559C182.809,84.538 182.834,84.506 182.854,84.471C182.874,84.436 182.888,84.398 182.889,84.36C182.89,84.323 182.879,84.286 182.867,84.249C182.281,82.379 181.933,80.386 181.892,78.388C181.852,76.39 182.118,74.386 182.606,72.486C182.62,72.432 182.635,72.378 182.622,72.327C182.61,72.276 182.571,72.227 182.523,72.192C182.476,72.156 182.419,72.133 182.365,72.136C182.312,72.138 182.262,72.166 182.213,72.195C181.609,72.537 181.007,72.883 180.387,73.191C179.767,73.499 179.129,73.768 178.478,73.999C177.151,74.471 175.774,74.782 174.387,75.01C172.386,75.339 170.366,75.494 168.34,75.67C166.601,75.821 164.857,75.987 163.172,76.418C161.775,76.774 160.418,77.312 159.125,77.952Z" style="fill:white;fill-rule:nonzero;stroke:black;stroke-width:0.61px;"/>
        </g>
        <g transform="matrix(0.821716,0,0,0.821716,-120.839,-18.5778)">
            <path d="M171.8,108.551C172.058,108.26 172.332,107.983 172.624,107.726C173.478,106.977 174.485,106.413 175.52,105.926C177.415,105.032 179.399,104.395 181.366,103.718C183.253,103.068 185.124,102.383 186.965,101.572C188.307,100.98 189.634,100.321 190.758,99.395C191.228,99.007 191.663,98.574 192.064,98.106C192.465,97.638 192.833,97.136 193.147,96.603C193.167,96.569 193.187,96.535 193.195,96.498C193.203,96.461 193.198,96.42 193.188,96.382C193.177,96.343 193.16,96.306 193.134,96.278C193.109,96.251 193.075,96.233 193.04,96.215C191.304,95.307 189.648,94.144 188.206,92.76C186.764,91.376 185.536,89.771 184.538,88.082C184.51,88.034 184.482,87.986 184.437,87.958C184.392,87.931 184.33,87.924 184.271,87.932C184.212,87.941 184.156,87.965 184.12,88.004C184.084,88.044 184.069,88.099 184.054,88.154C183.869,88.823 183.688,89.494 183.467,90.15C183.247,90.806 182.986,91.448 182.689,92.071C182.084,93.343 181.33,94.537 180.511,95.678C179.329,97.326 178.01,98.864 176.701,100.421C175.578,101.758 174.463,103.108 173.576,104.604C172.84,105.844 172.261,107.184 171.8,108.551Z" style="fill:white;fill-rule:nonzero;stroke:black;stroke-width:0.61px;"/>
        </g>
        <g transform="matrix(0.821716,0,0,0.821716,-120.839,-18.5778)">
            <path d="M202.398,121.225C202.376,120.837 202.373,120.447 202.398,120.059C202.472,118.926 202.786,117.814 203.172,116.739C203.881,114.766 204.833,112.912 205.745,111.043C206.62,109.249 207.459,107.442 208.186,105.567C208.717,104.199 209.189,102.795 209.329,101.345C209.388,100.739 209.389,100.125 209.341,99.51C209.294,98.896 209.199,98.281 209.045,97.682C209.035,97.643 209.025,97.605 209.004,97.573C208.983,97.541 208.952,97.516 208.917,97.496C208.882,97.477 208.844,97.462 208.806,97.461C208.768,97.46 208.732,97.471 208.695,97.483C206.825,98.069 204.832,98.417 202.833,98.458C200.835,98.499 198.832,98.232 196.932,97.744C196.878,97.73 196.824,97.716 196.773,97.728C196.721,97.74 196.673,97.779 196.637,97.827C196.602,97.875 196.579,97.931 196.581,97.985C196.584,98.038 196.612,98.088 196.64,98.137C196.982,98.741 197.329,99.343 197.637,99.963C197.945,100.583 198.214,101.222 198.445,101.872C198.916,103.199 199.228,104.577 199.456,105.963C199.785,107.964 199.94,109.984 200.116,112.01C200.267,113.749 200.433,115.493 200.863,117.178C201.22,118.575 201.758,119.932 202.398,121.225Z" style="fill:white;fill-rule:nonzero;stroke:black;stroke-width:0.61px;"/>
        </g>
        <g transform="matrix(0.821716,0,0,0.821716,-120.839,-18.5778)">
            <path d="M232.996,108.551C232.706,108.292 232.428,108.018 232.172,107.726C231.423,106.873 230.859,105.865 230.372,104.831C229.478,102.935 228.84,100.951 228.163,98.984C227.514,97.097 226.829,95.226 226.018,93.386C225.426,92.043 224.767,90.717 223.84,89.592C223.453,89.122 223.019,88.687 222.551,88.286C222.084,87.885 221.582,87.517 221.049,87.203C221.015,87.183 220.981,87.163 220.943,87.155C220.906,87.147 220.866,87.152 220.827,87.162C220.789,87.173 220.751,87.19 220.724,87.216C220.697,87.242 220.679,87.276 220.661,87.31C219.753,89.047 218.589,90.702 217.205,92.144C215.821,93.586 214.216,94.814 212.528,95.812C212.48,95.84 212.431,95.869 212.404,95.914C212.376,95.959 212.369,96.02 212.378,96.079C212.386,96.138 212.411,96.195 212.45,96.23C212.49,96.266 212.545,96.281 212.6,96.297C213.268,96.481 213.939,96.662 214.595,96.883C215.252,97.104 215.893,97.365 216.517,97.661C217.788,98.267 218.983,99.02 220.124,99.839C221.772,101.022 223.31,102.341 224.867,103.649C226.203,104.772 227.554,105.887 229.05,106.774C230.29,107.51 231.63,108.089 232.996,108.551Z" style="fill:white;fill-rule:nonzero;stroke:black;stroke-width:0.61px;"/>
        </g>
        <g transform="matrix(0.821716,0,0,0.821716,-120.839,-18.5778)">
            <path d="M245.67,77.952C245.283,77.975 244.892,77.977 244.505,77.952C243.371,77.879 242.26,77.564 241.184,77.178C239.212,76.469 237.358,75.517 235.488,74.605C233.695,73.73 231.887,72.891 230.013,72.164C228.645,71.633 227.241,71.161 225.79,71.021C225.184,70.962 224.57,70.962 223.956,71.009C223.341,71.056 222.726,71.151 222.128,71.305C222.089,71.315 222.051,71.325 222.019,71.346C221.987,71.367 221.962,71.398 221.942,71.433C221.922,71.468 221.908,71.507 221.907,71.544C221.905,71.582 221.917,71.618 221.929,71.655C222.514,73.526 222.863,75.519 222.903,77.517C222.944,79.515 222.678,81.518 222.189,83.418C222.175,83.472 222.161,83.526 222.174,83.578C222.186,83.629 222.225,83.677 222.272,83.713C222.32,83.749 222.377,83.772 222.43,83.769C222.484,83.766 222.533,83.738 222.583,83.71C223.187,83.368 223.789,83.021 224.409,82.713C225.029,82.405 225.667,82.136 226.318,81.905C227.645,81.434 229.022,81.122 230.409,80.894C232.41,80.565 234.43,80.41 236.456,80.235C238.195,80.084 239.939,79.917 241.624,79.487C243.021,79.13 244.377,78.592 245.67,77.952Z" style="fill:white;fill-rule:nonzero;stroke:black;stroke-width:0.61px;"/>
        </g>
        <g transform="matrix(0.821716,0,0,0.821716,-120.839,-18.5778)">
            <path d="M232.996,47.354C232.738,47.644 232.464,47.922 232.172,48.178C231.318,48.928 230.311,49.491 229.276,49.979C227.381,50.872 225.396,51.51 223.429,52.187C221.543,52.836 219.672,53.522 217.831,54.333C216.489,54.925 215.162,55.583 214.038,56.51C213.568,56.897 213.133,57.331 212.732,57.799C212.331,58.267 211.963,58.768 211.649,59.301C211.628,59.335 211.608,59.37 211.601,59.407C211.593,59.444 211.597,59.484 211.608,59.523C211.619,59.562 211.636,59.599 211.662,59.626C211.687,59.654 211.721,59.671 211.756,59.689C213.492,60.598 215.148,61.761 216.59,63.145C218.031,64.529 219.26,66.134 220.258,67.822C220.286,67.871 220.314,67.919 220.359,67.946C220.404,67.974 220.466,67.981 220.525,67.972C220.584,67.964 220.64,67.94 220.676,67.9C220.712,67.861 220.727,67.806 220.742,67.75C220.927,67.082 221.108,66.411 221.329,65.755C221.549,65.098 221.81,64.457 222.107,63.834C222.712,62.562 223.466,61.368 224.285,60.226C225.467,58.578 226.786,57.04 228.095,55.483C229.218,54.147 230.333,52.796 231.22,51.3C231.956,50.061 232.534,48.721 232.996,47.354Z" style="fill:white;fill-rule:nonzero;stroke:black;stroke-width:0.61px;"/>
        </g>
        <path d="M46.396,58.053C46.539,57.991 46.68,57.927 46.819,57.859C48.425,57.08 49.812,55.877 51.005,54.522C52.706,52.59 54.015,50.345 54.708,47.848C55.398,45.361 55.48,42.624 54.606,40.251C53.951,38.473 52.76,36.899 51.36,35.729C50.797,35.259 50.201,34.854 49.564,34.528C48.927,34.202 48.25,33.954 47.549,33.799C47.288,33.742 47.025,33.697 46.679,33.667C46.333,33.636 45.904,33.62 45.474,33.62C45.045,33.62 44.616,33.636 44.27,33.667C43.924,33.697 43.66,33.742 43.4,33.799C42.699,33.954 42.021,34.202 41.385,34.528C40.748,34.854 40.152,35.259 39.589,35.729C38.189,36.899 36.998,38.473 36.343,40.251C35.469,42.624 35.551,45.361 36.241,47.847C36.933,50.346 38.24,52.592 39.945,54.521C41.14,55.874 42.532,57.07 44.117,57.874C44.255,57.944 44.394,58.01 44.539,58.065C45.131,58.289 45.827,58.312 46.396,58.053ZM52.8,44.663C52.651,44.895 52.483,45.116 52.298,45.323C51.998,45.658 51.651,45.957 51.26,46.17C50.824,46.409 50.333,46.542 49.834,46.604C49.274,46.675 48.704,46.656 48.164,46.521C47.876,46.449 47.597,46.344 47.307,46.285C47.259,46.275 47.211,46.267 47.164,46.249C47.09,46.221 47.02,46.17 46.992,46.096C46.978,46.06 46.974,46.017 46.983,45.979C46.992,45.942 47.013,45.909 47.036,45.876C47.142,45.723 47.267,45.584 47.395,45.446C47.523,45.309 47.654,45.173 47.788,45.039C48.224,44.605 48.7,44.191 49.258,43.965C49.848,43.726 50.529,43.7 51.179,43.801C51.725,43.886 52.25,44.06 52.704,44.354C52.757,44.389 52.809,44.425 52.828,44.481C52.847,44.537 52.832,44.612 52.8,44.663ZM38.149,44.663C38.298,44.895 38.466,45.116 38.651,45.323C38.951,45.658 39.298,45.957 39.689,46.17C40.125,46.409 40.616,46.542 41.115,46.604C41.675,46.675 42.245,46.656 42.785,46.521C43.073,46.449 43.352,46.344 43.642,46.285C43.69,46.275 43.738,46.267 43.784,46.249C43.859,46.221 43.929,46.17 43.957,46.096C43.971,46.06 43.975,46.017 43.966,45.979C43.957,45.942 43.936,45.909 43.913,45.876C43.807,45.723 43.682,45.584 43.554,45.446C43.426,45.309 43.295,45.173 43.161,45.039C42.725,44.605 42.248,44.191 41.691,43.965C41.101,43.726 40.42,43.7 39.769,43.801C39.223,43.886 38.699,44.06 38.245,44.354C38.192,44.389 38.139,44.425 38.121,44.481C38.102,44.537 38.117,44.612 38.149,44.663Z" style="fill:white;stroke:black;stroke-width:0.5px;"/>
    </g>
</svg>
