<?xml version="1.0" encoding="utf-8"?>
<!DOCTYPE svg PUBLIC "-//W3C//DTD SVG 1.1//EN" "http://www.w3.org/Graphics/SVG/1.1/DTD/svg11.dtd">
<svg version="1.1" xmlns="http://www.w3.org/2000/svg" xmlns:xlink="http://www.w3.org/1999/xlink" xmlns:xml="http://www.w3.org/XML/1998/namespace" xmlns:serif="http://www.serif.com/" width="91" height="91" viewBox="0, 0, 91, 91" xml:space="preserve" fill-rule="evenodd" stroke-linejoin="round" stroke-miterlimit="2" style="clip-rule:evenodd;">
	<filter xmlns="http://www.w3.org/2000/svg" height="150%" id="dropshadow">
      <feGaussianBlur stdDeviation="2" in="SourceAlpha" /> 
      <feOffset dx="0" dy="0" result="offsetblur" /> 
      <feMerge> 
        <feMergeNode />
        <feMergeNode in="SourceGraphic" /> 
      </feMerge>
    </filter>
	<path d="M7.4 70.4 C5.8 67.9 4.4 65.2 3.3 62.5 C2.2 59.7 1.3 56.8 0.8 53.9 C0.2 51 -0 48 0 45 C0 42.1 0.4 39.1 1 36.2 C1.6 33.3 2.5 30.4 3.6 27.7 C4.8 24.9 6.2 22.3 7.9 19.8 C9.6 17.4 11.5 15.1 13.6 13 C15.8 10.9 18.1 9.1 20.6 7.4 C23.1 5.8 25.7 4.4 28.5 3.3 C31.2 2.2 34.1 1.3 37 0.8 C39.9 0.2 42.9 -0 45.9 0 C48.9 0 51.9 0.4 54.8 1 C57.7 1.6 60.5 2.5 63.3 3.6 C66 4.8 68.6 6.2 71.1 7.9 C73.6 9.6 75.8 11.5 77.9 13.6 C80 15.7 81.9 18.1 83.5 20.6 C85.1 23.1 86.5 25.7 87.6 28.5 C88.8 31.2 89.6 34.1 90.1 37 C90.7 39.9 91 42.9 90.9 45.9 C90.9 48.9 90.6 51.9 90 54.8 C89.4 57.7 88.5 60.5 87.3 63.3 C86.1 66 84.7 68.6 83 71.1 C81.4 73.6 79.4 75.8 77.3 77.9 C75.2 80 72.9 81.9 70.4 83.5 C67.9 85.1 65.2 86.5 62.5 87.6 C59.7 88.8 56.8 89.6 53.9 90.2 C51 90.7 48 91 45 90.9 C42.1 90.9 39.1 90.6 36.2 90 C33.3 89.4 30.4 88.5 27.7 87.3 C24.9 86.1 22.3 84.7 19.8 83 C17.4 81.4 15.1 79.4 13 77.3 C10.9 75.2 9.1 72.9 7.4 70.4 z" fill-rule="nonzero" style="fill:#E3A631;" />

    <g filter="url(#dropshadow)">
        <path d="M37.3 42.8 L37.2 43 L36.5 42.4 L32.5 44.4 L32.5 47.2 L30 49.1 C28.8 50.1 27.6 51.1 26.7 52.4 C26 53.4 25.4 54.6 25.1 55.9 C24.9 56.9 24.8 58 24.9 59.1 L23 59.1 L23 63.7 L26.1 66 L30.6 68.6 C32.5 69.5 34.4 70.3 36.3 70.9 L36.3 65.3 L35.1 63.2 C34.6 62.5 34.1 61.9 33.8 61.2 C33.4 60.3 33.5 59.2 33.8 58.3 C34.2 57.1 35.3 56.2 36.2 55.3 L38.1 53.2 L40.8 53.1 L43.8 50.7 L42.7 49 L44 47.5 L41.5 45.5 L37.3 42.8 z" fill-rule="nonzero" style="fill:white;" />
        <path d="M54.1 40.1 C56.2 39 58.3 37.8 60 36.2 C61.6 34.6 62.8 32.5 63.5 30.3 C64.5 27.3 64.7 24.2 64.2 21.1 L59.9 26 C58.4 27.5 56.9 28.9 55.2 30.2 C52.8 31.9 50.1 33.3 47.5 34.8 L49.7 36.3 C51.2 37.4 52.7 38.7 54.1 40.1 z" fill-rule="nonzero" style="fill:white;" />
        <path d="M26.7 21.1 L31 26 C32.5 27.5 34 28.9 35.7 30.2 C38.3 32.1 41.3 33.5 44.1 35.1 C46.1 36.3 48.1 37.6 49.9 39.1 C51.3 40.2 52.6 41.6 53.8 43 L54.5 42.4 L58.4 44.4 L58.4 47.2 L60.9 49.1 C62.1 50.1 63.3 51.1 64.2 52.4 C65 53.4 65.5 54.6 65.8 55.9 C66.1 56.9 66.1 58 66.1 59.1 L68 59.1 L68 63.7 L64.8 66 L60.3 68.6 C58.5 69.5 56.6 70.3 54.6 70.9 L54.6 65.3 L55.9 63.2 C56.3 62.5 56.9 61.9 57.2 61.2 C57.5 60.3 57.5 59.2 57.2 58.3 C56.7 57.1 55.7 56.2 54.8 55.3 L52.9 53.2 L50.1 53.1 L47.2 50.7 L48.3 49 C47.1 47.6 45.8 46.3 44.5 45.2 C42.3 43.3 39.8 41.8 37.3 40.4 C35 39.1 32.7 37.9 30.9 36.2 C29.3 34.6 28.2 32.5 27.5 30.3 C26.5 27.3 26.3 24.2 26.7 21.1 z" fill-rule="nonzero" style="fill:white;" />
    </g>
</svg>