<?xml version="1.0" encoding="UTF-8" standalone="no"?>
<!DOCTYPE svg PUBLIC "-//W3C//DTD SVG 1.1//EN" "http://www.w3.org/Graphics/SVG/1.1/DTD/svg11.dtd">
<svg width="91" height="91" viewBox="0 0 91 91" version="1.1" xmlns="http://www.w3.org/2000/svg" xmlns:xlink="http://www.w3.org/1999/xlink" xml:space="preserve" xmlns:serif="http://www.serif.com/" style="fill-rule:evenodd;clip-rule:evenodd;stroke-linejoin:round;stroke-miterlimit:2;">
	<filter xmlns="http://www.w3.org/2000/svg" id="dropshadow" height="150%">
      <feGaussianBlur in="SourceAlpha" stdDeviation="2"/> 
      <feOffset dx="0" dy="0" result="offsetblur"/> 
      <feMerge> 
        <feMergeNode/>
        <feMergeNode in="SourceGraphic"/> 
      </feMerge>
    </filter>
    <g transform="matrix(1,0,0,1,-57.3646,-218.018)">
        <g transform="matrix(1,0,0,1,9,26)">
			<path d="M68.934,199.443C71.424,197.813 74.075,196.429 76.835,195.316C79.595,194.203 82.465,193.363 85.389,192.81C88.314,192.257 91.292,191.992 94.268,192.021C97.244,192.049 100.217,192.37 103.13,192.979C106.044,193.587 108.897,194.482 111.635,195.647C114.374,196.812 116.998,198.247 119.456,199.924C121.915,201.601 124.208,203.52 126.293,205.644C128.377,207.768 130.252,210.098 131.882,212.588C133.512,215.078 134.896,217.729 136.009,220.489C137.121,223.249 137.962,226.119 138.515,229.043C139.068,231.968 139.332,234.946 139.304,237.922C139.276,240.898 138.954,243.871 138.346,246.784C137.738,249.698 136.842,252.551 135.677,255.289C134.512,258.028 133.078,260.652 131.401,263.11C129.724,265.569 127.805,267.862 125.68,269.947C123.556,272.031 121.227,273.906 118.737,275.536C116.246,277.165 113.596,278.55 110.836,279.663C108.075,280.775 105.206,281.616 102.281,282.169C99.357,282.722 96.378,282.986 93.403,282.958C90.427,282.93 87.454,282.608 84.54,282C81.627,281.392 78.774,280.496 76.035,279.331C73.297,278.166 70.673,276.732 68.214,275.055C65.756,273.378 63.462,271.459 61.378,269.334C59.294,267.21 57.419,264.881 55.789,262.39C54.159,259.9 52.775,257.25 51.662,254.49C50.549,251.729 49.709,248.86 49.156,245.935C48.603,243.011 48.338,240.032 48.367,237.056C48.395,234.081 48.716,231.107 49.325,228.194C49.933,225.281 50.828,222.428 51.993,219.689C53.158,216.951 54.593,214.327 56.27,211.868C57.947,209.41 59.866,207.116 61.99,205.032C64.115,202.948 66.444,201.073 68.934,199.443Z" style="fill:rgb(68,68,68);fill-rule:nonzero;"/>

            <g id="icon_harkonnen" filter="url(#dropshadow)"  stroke="black" stroke-width="0.5">
                <path d="M120.128,249.396C120.128,249.396 120.047,249.234 119.978,249.182C119.86,249.093 119.618,248.914 119.42,248.864C119.221,248.814 118.957,248.837 118.786,248.884C118.634,248.926 118.487,249.037 118.394,249.147C118.3,249.257 118.238,249.402 118.225,249.546C118.212,249.693 118.236,249.886 118.317,250.029C118.418,250.209 118.651,250.437 118.834,250.627C119.07,250.872 119.45,251.197 119.736,251.504C120.055,251.848 120.485,252.314 120.751,252.689C120.984,253.018 121.207,253.368 121.33,253.752C121.478,254.218 121.633,254.982 121.642,255.483C121.649,255.918 121.593,256.382 121.381,256.762C121.126,257.22 120.66,257.876 120.112,258.229C119.543,258.597 118.884,258.788 118.213,258.903C116.99,259.114 115.725,259.076 114.547,258.718C113.704,258.462 112.859,257.958 112.233,257.481C111.658,257.043 111.208,256.451 110.794,255.859C110.347,255.221 109.902,254.421 109.555,253.652C109.148,252.75 108.649,251.331 108.35,250.446C108.118,249.756 107.952,248.926 107.765,248.342C107.613,247.865 107.424,247.345 107.23,246.939C107.058,246.576 106.845,246.231 106.606,245.908C106.352,245.564 105.708,244.876 105.708,244.876C105.708,244.876 105.818,246.203 105.779,246.865C105.73,247.694 105.619,249.063 105.417,249.851C105.257,250.478 104.845,251.095 104.569,251.597C104.328,252.034 104.034,252.439 103.763,252.858C103.466,253.319 102.966,254.078 102.787,254.359C102.749,254.419 102.704,254.48 102.69,254.549C102.674,254.624 102.661,254.732 102.694,254.81C102.727,254.887 102.802,254.978 102.888,255.015C103.024,255.073 103.297,255.162 103.51,255.158C103.757,255.153 104.12,255.063 104.376,254.986C104.608,254.916 104.814,254.772 105.044,254.695C105.305,254.607 105.631,254.473 105.939,254.461C106.286,254.447 106.807,254.495 107.125,254.612C107.409,254.717 107.654,254.929 107.847,255.162C108.065,255.426 108.286,255.862 108.434,256.192C108.57,256.496 108.646,256.925 108.733,257.144C108.786,257.276 108.862,257.414 108.959,257.505C109.056,257.597 109.185,257.663 109.316,257.694C109.485,257.735 109.765,257.745 109.973,257.748C110.17,257.75 110.564,257.711 110.564,257.711C110.564,257.711 110.447,258.073 110.36,258.242C110.25,258.456 110.076,258.779 109.904,258.994C109.741,259.199 109.559,259.404 109.331,259.533C109.096,259.665 108.752,259.76 108.493,259.788C108.255,259.814 107.938,259.73 107.78,259.703C107.7,259.69 107.547,259.629 107.547,259.629C107.547,259.629 107.552,259.811 107.582,259.895C107.627,260.023 107.717,260.283 107.815,260.397C107.903,260.498 108.04,260.559 108.173,260.578C108.328,260.599 108.558,260.573 108.744,260.527C108.974,260.472 109.336,260.32 109.553,260.242C109.718,260.183 109.914,260.101 110.046,260.06C110.145,260.03 110.262,260.008 110.348,259.996C110.419,259.986 110.563,259.986 110.563,259.986C110.563,259.986 110.424,260.265 110.353,260.404C110.241,260.62 110.067,260.999 109.896,261.281C109.724,261.564 109.496,261.891 109.32,262.101C109.18,262.266 109.023,262.424 108.839,262.538C108.647,262.657 108.407,262.778 108.168,262.813C107.923,262.849 107.601,262.804 107.369,262.752C107.161,262.705 106.963,262.601 106.778,262.501C106.596,262.402 106.263,262.152 106.263,262.152C106.263,262.152 106.261,262.363 106.256,262.468C106.243,262.735 106.225,263.333 106.185,263.753C106.146,264.166 106.072,264.641 106.016,264.986C105.97,265.267 105.902,265.592 105.849,265.823C105.807,266.007 105.733,266.244 105.698,266.37C105.679,266.438 105.65,266.504 105.642,266.574C105.631,266.665 105.596,266.808 105.634,266.916C105.674,267.033 105.773,267.183 105.887,267.277C106.005,267.375 106.19,267.428 106.342,267.503C106.52,267.591 106.777,267.662 106.955,267.805C107.186,267.989 107.548,268.343 107.728,268.612C107.888,268.852 107.998,269.208 108.035,269.423C108.063,269.582 108.026,269.758 107.952,269.902C107.866,270.066 107.524,270.408 107.524,270.408C107.524,270.408 107.546,270.896 107.513,271.132C107.48,271.368 107.404,271.628 107.324,271.824C107.253,271.998 107.173,272.18 107.034,272.306C106.867,272.456 106.559,272.631 106.328,272.723C106.113,272.809 105.647,272.858 105.647,272.858C105.647,272.858 105.719,272.595 105.752,272.462C105.796,272.284 105.887,271.958 105.914,271.789C105.931,271.676 105.929,271.55 105.911,271.447C105.894,271.351 105.806,271.173 105.806,271.173C105.806,271.173 105.609,271.248 105.505,271.253C105.351,271.262 105.079,271.293 104.883,271.223C104.682,271.152 104.299,270.826 104.299,270.826C104.299,270.826 104.264,270.94 104.23,270.987C104.123,271.134 103.878,271.522 103.657,271.709C103.442,271.893 103.099,272.019 102.909,272.112C102.782,272.173 102.614,272.22 102.516,272.264C102.449,272.294 102.379,272.325 102.322,272.373C102.237,272.444 102.109,272.582 102.006,272.691C101.89,272.815 101.761,272.979 101.627,273.112C101.485,273.253 101.339,273.431 101.156,273.536C100.919,273.674 100.524,273.882 100.203,273.935C99.882,273.988 99.504,273.906 99.23,273.855C98.998,273.812 98.689,273.674 98.56,273.63C98.525,273.618 98.491,273.598 98.455,273.591C98.383,273.577 98.239,273.542 98.13,273.548C97.96,273.558 97.652,273.56 97.437,273.649C97.222,273.737 96.993,273.936 96.84,274.08C96.708,274.204 96.623,274.368 96.517,274.515C96.408,274.663 96.253,274.888 96.191,274.973C96.177,274.993 96.144,275.028 96.144,275.028C96.144,275.028 96.101,274.802 96.091,274.688C96.07,274.444 96.004,273.858 96.02,273.562C96.032,273.339 96.103,273.107 96.187,272.913C96.269,272.725 96.384,272.548 96.523,272.398C96.667,272.244 96.903,272.085 97.049,271.989C97.157,271.917 97.313,271.859 97.399,271.818C97.454,271.792 97.564,271.741 97.564,271.741C97.564,271.741 97.271,271.585 97.157,271.506C97.058,271.438 96.949,271.327 96.883,271.27C96.842,271.235 96.809,271.187 96.761,271.163C96.669,271.118 96.483,271.013 96.33,270.998C96.159,270.982 95.92,270.993 95.734,271.066C95.524,271.147 95.247,271.351 95.071,271.489C94.923,271.605 94.785,271.781 94.676,271.893C94.591,271.98 94.42,272.156 94.42,272.156C94.42,272.156 94.432,271.806 94.446,271.632C94.466,271.381 94.484,270.918 94.539,270.646C94.584,270.423 94.65,270.195 94.774,270.004C94.899,269.81 95.101,269.611 95.29,269.485C95.475,269.361 95.736,269.294 95.911,269.244C96.05,269.205 96.251,269.223 96.342,269.187C96.403,269.163 96.418,269.08 96.456,269.027C96.504,268.959 96.629,268.782 96.629,268.782C96.629,268.782 96.454,268.643 96.403,268.547C96.347,268.44 96.313,268.271 96.29,268.138C96.268,268.012 96.265,267.753 96.265,267.753C96.265,267.753 96.011,267.664 95.881,267.672C95.729,267.681 95.507,267.726 95.352,267.811C95.196,267.895 95.069,268.053 94.947,268.178C94.829,268.298 94.725,268.457 94.618,268.559C94.524,268.648 94.304,268.789 94.304,268.789C94.304,268.789 94.231,268.358 94.24,268.141C94.249,267.904 94.267,267.611 94.362,267.368C94.464,267.105 94.645,266.778 94.855,266.561C95.065,266.345 95.342,266.189 95.621,266.068C95.918,265.939 96.432,265.839 96.637,265.789C96.706,265.772 96.78,265.781 96.85,265.767C96.944,265.748 97.085,265.702 97.205,265.674C97.325,265.647 97.446,265.595 97.571,265.601C97.807,265.613 98.298,265.627 98.62,265.743C98.941,265.859 99.265,266.109 99.501,266.3C99.707,266.465 99.886,266.713 100.036,266.884C100.162,267.029 100.4,267.329 100.4,267.329C100.4,267.329 100.508,267.366 100.564,267.364C100.704,267.359 101.066,267.373 101.242,267.299C101.408,267.229 101.55,267.082 101.622,266.917C101.696,266.746 101.71,266.485 101.689,266.269C101.66,265.968 101.521,265.498 101.447,265.11C101.37,264.711 101.276,264.276 101.231,263.88C101.188,263.499 101.184,263.01 101.176,262.732C101.172,262.559 101.192,262.362 101.187,262.213C101.182,262.087 101.184,261.957 101.143,261.838C101.08,261.661 100.952,261.326 100.812,261.148C100.683,260.981 100.485,260.862 100.307,260.766C100.134,260.672 99.936,260.632 99.749,260.57C99.557,260.506 99.34,260.456 99.152,260.383C98.97,260.312 98.624,260.13 98.624,260.13C98.624,260.13 98.655,260.352 98.65,260.464C98.643,260.62 98.643,260.875 98.581,261.068C98.516,261.271 98.432,261.528 98.26,261.683C98.054,261.868 97.629,262.082 97.343,262.181C97.089,262.268 96.811,262.263 96.543,262.275C96.238,262.288 95.843,262.267 95.511,262.262C95.193,262.257 94.556,262.245 94.556,262.245C94.556,262.245 94.746,262.08 94.844,262.001C94.985,261.886 95.228,261.703 95.402,261.557C95.567,261.419 95.76,261.287 95.884,261.126C96.005,260.97 96.124,260.791 96.146,260.595C96.169,260.386 96.108,260.101 96.022,259.872C95.926,259.616 95.711,259.335 95.568,259.06C95.42,258.774 95.239,258.471 95.132,258.161C95.024,257.85 94.949,257.525 94.921,257.198C94.891,256.834 94.898,256.381 94.948,255.977C95.005,255.519 95.155,254.935 95.264,254.448C95.369,253.981 95.535,253.358 95.605,253.054C95.638,252.912 95.669,252.749 95.686,252.625C95.701,252.519 95.711,252.305 95.711,252.305C95.711,252.305 94.745,252.268 94.268,252.2C93.582,252.102 92.278,251.827 91.596,251.718C91.125,251.642 90.566,251.54 90.176,251.542C89.863,251.542 89.459,251.65 89.256,251.724C89.13,251.771 89.023,251.876 88.953,251.99C88.877,252.115 88.776,252.322 88.797,252.472C88.817,252.622 88.945,252.787 89.076,252.891C89.291,253.061 89.776,253.258 90.083,253.489C90.39,253.72 90.738,253.956 90.921,254.277C91.104,254.598 91.176,255.043 91.18,255.417C91.185,255.792 91.065,256.209 90.947,256.524C90.84,256.809 90.588,257.114 90.472,257.305C90.398,257.427 90.278,257.531 90.249,257.671C90.216,257.838 90.198,258.114 90.269,258.306C90.34,258.497 90.525,258.659 90.675,258.818C90.851,259.003 91.18,259.251 91.323,259.419C91.422,259.535 91.532,259.825 91.532,259.825C91.532,259.825 91.238,259.789 91.091,259.785C90.786,259.776 90.099,259.808 89.704,259.775C89.373,259.746 89.003,259.689 88.724,259.583C88.468,259.485 88.214,259.301 88.032,259.138C87.865,258.989 87.719,258.743 87.628,258.603C87.568,258.509 87.488,258.3 87.488,258.3C87.488,258.3 87.425,258.433 87.401,258.503C87.368,258.597 87.295,258.741 87.292,258.868C87.288,259.014 87.321,259.247 87.379,259.38C87.432,259.499 87.538,259.59 87.644,259.666C87.785,259.767 88.037,259.889 88.226,259.985C88.407,260.077 88.622,260.162 88.777,260.243C88.907,260.311 89.155,260.47 89.155,260.47C89.155,260.47 88.945,260.611 88.83,260.663C88.536,260.797 87.8,261.16 87.393,261.273C87.071,261.362 86.662,261.368 86.39,261.337C86.167,261.311 85.948,261.215 85.764,261.085C85.568,260.948 85.345,260.669 85.216,260.513C85.125,260.402 84.99,260.147 84.99,260.147C84.99,260.147 84.84,260.271 84.767,260.334C84.538,260.532 84.011,261.012 83.617,261.332C83.169,261.695 82.611,262.148 82.078,262.514C81.516,262.899 80.247,263.644 80.247,263.644C80.247,263.644 80.428,264.052 80.511,264.258C80.594,264.463 80.686,264.665 80.746,264.877C80.808,265.095 80.872,265.351 80.88,265.564C80.888,265.763 80.87,265.988 80.797,266.156C80.725,266.323 80.594,266.469 80.446,266.573C80.298,266.676 79.911,266.776 79.911,266.776C79.911,266.776 79.871,266.945 79.838,267.025C79.765,267.205 79.639,267.62 79.473,267.857C79.307,268.093 79.092,268.306 78.84,268.445C78.552,268.605 77.741,268.813 77.741,268.813C77.741,268.813 77.857,268.43 77.9,268.235C77.95,268.01 78.034,267.699 78.04,267.461C78.046,267.241 77.938,266.808 77.938,266.808C77.938,266.808 77.551,266.794 77.376,266.721C77.189,266.643 76.943,266.513 76.819,266.342C76.695,266.17 76.664,265.897 76.632,265.695C76.603,265.509 76.618,265.304 76.629,265.131C76.638,264.974 76.694,264.662 76.694,264.662C76.694,264.662 76.271,264.583 76.056,264.566C75.697,264.538 75.042,264.522 74.535,264.492C73.999,264.461 73.347,264.465 72.84,264.379C72.377,264.3 71.817,264.142 71.492,263.973C71.238,263.841 71.016,263.567 70.886,263.365C70.772,263.189 70.737,262.935 70.709,262.763C70.687,262.621 70.722,262.332 70.722,262.332C70.722,262.332 70.588,262.252 70.515,262.227C70.395,262.188 70.18,262.087 70.004,262.095C69.824,262.103 69.606,262.191 69.43,262.275C69.257,262.358 69.085,262.518 68.953,262.598C68.853,262.66 68.689,262.808 68.639,262.757C68.589,262.707 68.614,262.444 68.651,262.295C68.702,262.09 68.81,261.744 68.945,261.53C69.074,261.323 69.257,261.148 69.457,261.009C69.675,260.857 70.002,260.687 70.255,260.618C70.488,260.555 70.781,260.581 70.978,260.597C71.135,260.61 71.435,260.714 71.435,260.714C71.435,260.714 71.512,260.6 71.547,260.553C71.577,260.511 71.637,260.481 71.64,260.431C71.643,260.381 71.573,260.317 71.565,260.254C71.551,260.155 71.542,259.952 71.56,259.836C71.577,259.736 71.678,259.557 71.678,259.557C71.678,259.557 71.414,259.164 71.21,259.066C70.978,258.954 70.598,258.905 70.284,258.887C69.946,258.868 69.181,258.95 69.181,258.95C69.181,258.95 69.397,258.46 69.589,258.284C69.842,258.05 70.33,257.675 70.703,257.547C71.057,257.425 71.48,257.428 71.826,257.514C72.172,257.6 72.777,258.063 72.777,258.063C72.777,258.063 73.106,257.913 73.189,257.806C73.269,257.703 73.213,257.538 73.276,257.424C73.343,257.303 73.496,257.148 73.592,257.08C73.666,257.028 73.854,257.019 73.854,257.019C73.854,257.019 73.82,256.78 73.745,256.694C73.655,256.589 73.47,256.445 73.311,256.389C73.152,256.332 72.965,256.358 72.792,256.354C72.589,256.349 72.29,256.365 72.094,256.36C71.935,256.357 71.619,256.327 71.619,256.327C71.619,256.327 71.862,255.875 72.064,255.731C72.32,255.548 72.796,255.311 73.16,255.228C73.515,255.146 73.915,255.155 74.252,255.229C74.588,255.303 74.952,255.501 75.185,255.672C75.388,255.821 75.655,256.26 75.655,256.26C75.655,256.26 75.841,256.213 75.93,256.237C76.074,256.275 76.357,256.349 76.519,256.488C76.685,256.632 76.856,256.865 76.93,257.099C77.036,257.435 77.119,258.133 77.156,258.504C77.183,258.776 77.157,259.113 77.153,259.325C77.151,259.477 77.129,259.647 77.134,259.781C77.138,259.897 77.12,260.029 77.183,260.127C77.253,260.234 77.4,260.381 77.552,260.422C77.733,260.471 78.081,260.467 78.27,260.419C78.433,260.378 78.595,260.227 78.686,260.137C78.754,260.069 78.783,259.966 78.812,259.877C78.841,259.79 78.839,259.694 78.862,259.605C78.895,259.479 78.942,259.279 79.008,259.126C79.126,258.854 79.349,258.338 79.567,257.969C79.808,257.559 80.132,257.078 80.457,256.663C80.786,256.245 81.264,255.74 81.538,255.46C81.709,255.285 81.945,255.175 82.099,254.985C82.256,254.791 82.408,254.498 82.478,254.297C82.535,254.133 82.548,253.921 82.518,253.778C82.491,253.647 82.4,253.531 82.302,253.439C82.19,253.334 81.997,253.243 81.843,253.147C81.689,253.049 81.516,252.972 81.375,252.854C81.2,252.708 80.946,252.5 80.793,252.272C80.632,252.034 80.49,251.724 80.411,251.425C80.33,251.117 80.308,250.428 80.308,250.428C80.308,250.428 79.914,250.543 79.71,250.55C79.45,250.558 79.042,250.601 78.742,250.48C78.44,250.357 78.082,250.024 77.898,249.815C77.756,249.653 77.703,249.428 77.641,249.222C77.572,248.993 77.521,248.705 77.484,248.443C77.444,248.159 77.399,247.518 77.399,247.518C77.399,247.518 77.611,247.645 77.717,247.708C77.883,247.807 78.204,248.023 78.393,248.109C78.537,248.175 78.706,248.227 78.851,248.225C78.996,248.223 79.146,248.177 79.266,248.096C79.398,248.006 79.546,247.842 79.647,247.684C79.77,247.493 79.857,247.18 80.001,246.949C80.169,246.678 80.38,246.303 80.657,246.059C80.99,245.766 81.489,245.339 82,245.187C82.698,244.98 84.141,244.822 84.844,244.814C85.315,244.809 85.792,245.045 86.22,245.139C86.617,245.226 87.01,245.354 87.415,245.379C88.133,245.423 89.855,245.422 90.527,245.405C90.837,245.397 91.216,245.325 91.447,245.279C91.608,245.246 91.914,245.126 91.914,245.126C91.914,245.126 91.827,244.923 91.746,244.853C91.626,244.75 91.393,244.591 91.192,244.505C90.959,244.403 90.632,244.321 90.346,244.247C89.981,244.153 89.447,244.05 89.001,243.938C88.481,243.806 87.81,243.653 87.23,243.46C86.633,243.261 86.001,243.019 85.422,242.745C84.847,242.472 84.286,242.165 83.756,241.813C83.224,241.461 82.609,240.948 82.234,240.629C81.972,240.406 81.505,239.899 81.505,239.899C81.505,239.899 81.488,240.014 81.466,240.067C81.418,240.182 81.302,240.454 81.215,240.592C81.143,240.707 81.058,240.834 80.943,240.895C80.827,240.957 80.661,240.992 80.522,240.963C80.382,240.934 80.22,240.835 80.105,240.723C79.963,240.584 79.778,240.35 79.671,240.13C79.524,239.827 79.224,238.906 79.224,238.906C79.224,238.906 78.846,239.022 78.651,239.042C78.326,239.075 77.567,239.113 77.273,239.106C77.141,239.103 76.996,239.063 76.89,238.997C76.784,238.932 76.678,238.834 76.638,238.714C76.598,238.593 76.624,238.398 76.651,238.273C76.675,238.162 76.801,237.967 76.801,237.967C76.801,237.967 76.592,237.979 76.489,237.961C76.35,237.937 76.094,237.895 75.967,237.821C75.855,237.756 75.77,237.624 75.725,237.516C75.681,237.411 75.698,237.176 75.698,237.176C75.698,237.176 74.962,237.25 74.594,237.281C73.976,237.333 71.992,237.486 71.992,237.486C71.992,237.486 72.009,237.869 72.031,238.06C72.053,238.26 72.093,238.479 72.129,238.688C72.174,238.942 72.25,239.282 72.295,239.582C72.343,239.899 72.418,240.317 72.419,240.592C72.42,240.808 72.383,241.062 72.303,241.23C72.229,241.385 72.07,241.525 71.94,241.596C71.815,241.663 71.52,241.653 71.52,241.653C71.52,241.653 71.461,241.876 71.401,241.973C71.286,242.158 71.078,242.563 70.83,242.764C70.583,242.966 70.234,243.14 69.918,243.182C69.601,243.224 69.233,243.161 68.932,243.017C68.595,242.856 67.893,242.212 67.893,242.212C67.893,242.212 68.388,242.25 68.631,242.212C68.889,242.172 69.247,242.08 69.444,241.973C69.603,241.886 69.734,241.712 69.81,241.569C69.883,241.433 69.934,241.242 69.902,241.117C69.869,240.992 69.693,240.931 69.614,240.818C69.518,240.682 69.359,240.492 69.325,240.301C69.292,240.11 69.352,239.847 69.412,239.671C69.466,239.511 69.644,239.377 69.684,239.243C69.719,239.122 69.657,238.992 69.649,238.867C69.64,238.74 69.634,238.479 69.634,238.479C69.634,238.479 69.21,238.4 69.01,238.322C68.81,238.243 68.568,238.142 68.429,238.01C68.298,237.885 68.197,237.709 68.178,237.529C68.155,237.328 68.296,236.802 68.296,236.802C68.296,236.802 67.953,236.564 67.781,236.445C67.597,236.316 67.381,236.101 67.192,236.031C67.021,235.968 66.827,236.043 66.645,236.025C66.455,236.006 66.217,235.983 66.053,235.918C65.903,235.859 65.75,235.769 65.662,235.635C65.573,235.499 65.523,235.281 65.519,235.101C65.515,234.921 65.638,234.553 65.638,234.553C65.638,234.553 65.296,234.349 65.13,234.29C64.974,234.234 64.807,234.207 64.642,234.2C64.359,234.187 63.683,234.208 63.43,234.214C63.329,234.216 63.127,234.234 63.127,234.234C63.127,234.234 63.163,234.094 63.2,234.032C63.293,233.877 63.46,233.489 63.683,233.301C63.929,233.094 64.322,232.871 64.675,232.789C65.028,232.707 65.557,232.789 65.801,232.807C65.917,232.816 66.137,232.902 66.137,232.902C66.137,232.902 66.328,232.805 66.429,232.77C66.544,232.731 66.69,232.646 66.826,232.666C66.979,232.688 67.214,232.777 67.352,232.903C67.491,233.03 67.562,233.247 67.657,233.424C67.752,233.603 67.852,233.852 67.926,233.978C67.97,234.054 68.04,234.13 68.098,234.181C68.149,234.226 68.227,234.266 68.274,234.285C68.306,234.299 68.379,234.3 68.379,234.3C68.379,234.3 68.313,234.149 68.286,234.071C68.227,233.901 68.076,233.451 68.026,233.278C68.003,233.199 67.991,233.115 67.989,233.035C67.986,232.955 68.012,232.797 68.012,232.797C68.012,232.797 67.747,232.65 67.638,232.547C67.499,232.414 67.275,232.208 67.178,232.002C67.08,231.796 67.065,231.478 67.052,231.309C67.044,231.2 67.103,230.986 67.103,230.986C67.103,230.986 66.988,230.771 66.898,230.694C66.744,230.561 66.427,230.292 66.18,230.19C65.942,230.091 65.643,230.11 65.415,230.079C65.214,230.051 64.95,230.025 64.811,230.002C64.731,229.989 64.577,229.941 64.577,229.941C64.577,229.941 64.788,229.689 64.918,229.59C65.103,229.45 65.404,229.209 65.687,229.1C65.974,228.989 66.333,228.917 66.636,228.925C66.935,228.933 67.249,229.039 67.504,229.15C67.747,229.255 68.165,229.59 68.165,229.59C68.165,229.59 68.393,229.618 68.499,229.66C68.648,229.72 68.899,229.811 69.057,229.948C69.22,230.09 69.371,230.301 69.478,230.508C69.6,230.745 69.706,231.107 69.789,231.372C69.863,231.611 69.917,231.856 69.972,232.1C70.029,232.351 70.063,232.624 70.131,232.881C70.207,233.168 70.428,233.824 70.428,233.824C70.428,233.824 70.453,233.575 70.492,233.456C70.531,233.335 70.588,233.205 70.665,233.096C70.746,232.981 70.979,232.766 70.979,232.766C70.979,232.766 70.827,232.566 70.795,232.447C70.755,232.299 70.738,231.876 70.738,231.876C70.738,231.876 70.545,231.785 70.472,231.71C70.365,231.598 70.189,231.386 70.097,231.208C70.005,231.032 69.933,230.838 69.917,230.64C69.9,230.417 69.938,230.068 69.994,229.869C70.038,229.71 70.144,229.552 70.249,229.444C70.35,229.341 70.623,229.225 70.623,229.225C70.623,229.225 70.565,228.882 70.486,228.73C70.348,228.463 70.04,227.945 69.793,227.626C69.561,227.327 68.999,226.813 68.999,226.813C68.999,226.813 69.398,226.771 69.594,226.805C69.901,226.858 70.492,226.946 70.845,227.135C71.191,227.32 71.497,227.652 71.71,227.935C71.909,228.199 72.123,228.834 72.123,228.834C72.123,228.834 72.372,228.846 72.468,228.916C72.612,229.02 72.881,229.233 72.988,229.46C73.107,229.711 73.168,230.095 73.18,230.422C73.202,230.963 73.175,232.107 73.116,232.706C73.072,233.151 72.939,233.684 72.827,234.017C72.743,234.265 72.442,234.704 72.442,234.704C72.442,234.704 73.057,234.69 73.362,234.649C73.773,234.594 74.906,234.372 74.906,234.372C74.906,234.372 74.753,234.191 74.706,234.084C74.647,233.95 74.508,233.744 74.552,233.571C74.598,233.395 74.8,233.138 74.978,233.024C75.157,232.909 75.449,232.911 75.623,232.884C75.755,232.864 76.024,232.863 76.024,232.863C76.024,232.863 75.814,232.686 75.747,232.57C75.639,232.386 75.476,232.04 75.381,231.759C75.283,231.47 75.221,231.104 75.16,230.837C75.108,230.611 75.014,230.157 75.014,230.157C75.014,230.157 75.119,230.219 75.173,230.246C75.334,230.326 75.702,230.526 75.98,230.634C76.258,230.742 76.592,230.861 76.844,230.894C77.057,230.922 77.487,230.833 77.487,230.833C77.487,230.833 77.408,230.153 77.402,229.864C77.396,229.607 77.42,229.3 77.45,229.094C77.473,228.934 77.54,228.737 77.583,228.629C77.609,228.562 77.704,228.521 77.705,228.448C77.708,228.236 77.589,227.72 77.604,227.353C77.62,226.976 77.731,226.539 77.797,226.183C77.856,225.861 77.999,225.221 77.999,225.221C77.999,225.221 77.208,224.372 76.738,224.04C76.157,223.63 74.514,222.759 74.514,222.759C74.514,222.759 74.907,222.394 75.152,222.308C75.444,222.205 75.948,222.157 76.267,222.14C76.534,222.126 77.067,222.206 77.067,222.206C77.067,222.206 76.689,221.726 76.518,221.474C76.331,221.198 76.074,220.841 75.944,220.553C75.83,220.299 75.74,219.742 75.74,219.742C75.74,219.742 75.972,219.597 76.103,219.578C76.265,219.555 76.712,219.602 76.712,219.602C76.712,219.602 76.593,219.421 76.534,219.331C76.367,219.073 75.986,218.479 75.713,218.057C75.442,217.637 74.897,216.799 74.897,216.799C74.897,216.799 74.845,217.069 74.832,217.206C74.806,217.469 74.783,218.016 74.743,218.377C74.707,218.711 74.711,219.082 74.596,219.374C74.481,219.664 74.332,220.001 74.05,220.134C73.741,220.279 72.741,220.245 72.741,220.245C72.741,220.245 72.427,220.44 72.251,220.482C71.975,220.546 71.418,220.665 71.087,220.632C70.792,220.603 70.504,220.464 70.269,220.282C70.026,220.094 69.777,219.762 69.628,219.502C69.492,219.263 69.375,218.718 69.375,218.718C69.375,218.718 69.528,218.752 69.601,218.78C69.762,218.842 70.116,219.014 70.339,219.092C70.535,219.161 70.762,219.233 70.942,219.248C71.102,219.262 71.308,219.222 71.419,219.187C71.494,219.163 71.604,219.038 71.604,219.038C71.604,219.038 71.564,218.74 71.577,218.592C71.592,218.427 71.604,218.213 71.693,218.053C71.79,217.88 71.975,217.682 72.156,217.555C72.337,217.427 72.778,217.288 72.778,217.288C72.778,217.288 72.667,216.995 72.638,216.842C72.608,216.679 72.576,216.482 72.598,216.314C72.62,216.146 72.77,215.832 72.77,215.832C72.77,215.832 72.573,215.677 72.506,215.573C72.388,215.391 72.137,214.954 72.059,214.736C72.006,214.588 72.038,214.265 72.038,214.265C72.038,214.265 71.802,214.044 71.677,213.942C71.484,213.785 71.096,213.507 70.88,213.323C70.704,213.171 70.385,212.833 70.385,212.833C70.385,212.833 69.968,212.818 69.782,212.736C69.542,212.63 69.146,212.396 68.947,212.2C68.772,212.028 68.637,211.748 68.586,211.559C68.543,211.399 68.598,211.195 68.643,211.067C68.682,210.956 68.858,210.789 68.858,210.789C68.858,210.789 68.784,210.58 68.713,210.498C68.611,210.382 68.422,210.178 68.247,210.089C68.073,210.001 67.863,209.988 67.666,209.968C67.453,209.946 67.169,209.965 66.974,209.96C66.814,209.955 66.494,209.936 66.494,209.936C66.494,209.936 66.577,209.634 66.675,209.518C66.843,209.32 67.197,208.894 67.504,208.743C67.809,208.593 68.221,208.586 68.516,208.614C68.787,208.639 69.045,208.767 69.276,208.91C69.508,209.053 69.908,209.475 69.908,209.475C69.908,209.475 70.178,209.456 70.304,209.497C70.468,209.551 70.721,209.661 70.894,209.798C71.102,209.964 71.364,210.27 71.556,210.493C71.732,210.698 71.874,210.929 72.043,211.139C72.218,211.355 72.606,211.791 72.606,211.791C72.606,211.791 72.591,211.513 72.59,211.373C72.588,211.222 72.638,210.998 72.595,210.883C72.557,210.781 72.41,210.763 72.331,210.687C72.189,210.55 71.873,210.236 71.739,210.062C71.644,209.939 71.55,209.799 71.529,209.645C71.507,209.479 71.526,209.235 71.604,209.066C71.682,208.897 71.997,208.633 71.997,208.633C71.997,208.633 72.008,208.492 71.976,208.433C71.906,208.303 71.746,208.017 71.577,207.855C71.381,207.669 71.077,207.471 70.805,207.316C70.52,207.155 69.871,206.887 69.871,206.887C69.871,206.887 70.356,206.616 70.624,206.555C70.938,206.484 71.438,206.424 71.755,206.457C72.03,206.485 72.3,206.598 72.53,206.752C72.783,206.921 73.076,207.236 73.275,207.473C73.455,207.687 73.729,208.176 73.729,208.176C73.729,208.176 73.983,208.268 74.069,208.365C74.213,208.526 74.47,208.854 74.59,209.142C74.714,209.436 74.76,209.843 74.813,210.134C74.858,210.383 74.909,210.889 74.909,210.889C74.909,210.889 74.974,210.85 74.998,210.821C75.031,210.781 75.082,210.714 75.105,210.651C75.135,210.568 75.156,210.41 75.177,210.324C75.193,210.26 75.211,210.184 75.234,210.134C75.253,210.093 75.319,210.07 75.314,210.025C75.306,209.932 75.205,209.729 75.181,209.574C75.155,209.396 75.105,209.137 75.155,208.961C75.205,208.785 75.353,208.615 75.48,208.518C75.601,208.425 75.797,208.405 75.916,208.378C76.007,208.358 76.193,208.359 76.193,208.359C76.193,208.359 76.16,208.088 76.104,207.966C76.018,207.779 75.858,207.456 75.681,207.238C75.479,206.988 75.072,206.647 74.891,206.47C74.793,206.374 74.597,206.178 74.597,206.178C74.597,206.178 74.964,206.122 75.147,206.143C75.428,206.175 75.941,206.234 76.285,206.37C76.626,206.505 76.961,206.698 77.212,206.961C77.463,207.224 77.686,207.648 77.792,207.949C77.883,208.206 77.849,208.764 77.849,208.764C77.849,208.764 78.016,208.901 78.06,208.996C78.123,209.133 78.25,209.386 78.228,209.591C78.199,209.864 78.033,210.335 77.883,210.636C77.744,210.915 77.514,211.139 77.332,211.392C77.094,211.723 76.704,212.242 76.459,212.62C76.242,212.955 75.864,213.66 75.864,213.66C75.864,213.66 76.034,214.015 76.139,214.181C76.275,214.399 76.482,214.717 76.682,214.964C76.902,215.236 77.195,215.533 77.458,215.811C77.733,216.101 78.068,216.427 78.333,216.705C78.574,216.957 79.044,217.474 79.044,217.474C79.044,217.474 79.202,217.214 79.299,217.097C79.398,216.978 79.535,216.854 79.637,216.759C79.724,216.678 79.83,216.601 79.909,216.53C79.98,216.467 80.114,216.332 80.114,216.332C80.114,216.332 80.136,216.499 80.158,216.58C80.22,216.811 80.366,217.402 80.489,217.717C80.593,217.981 80.897,218.467 80.897,218.467C80.897,218.467 80.949,218.299 80.991,218.222C81.055,218.107 81.15,217.896 81.281,217.775C81.417,217.65 81.657,217.538 81.809,217.468C81.93,217.412 82.093,217.38 82.193,217.357C82.263,217.34 82.409,217.328 82.409,217.328C82.409,217.328 82.439,217.612 82.447,217.755C82.463,218.022 82.463,218.575 82.505,218.932C82.543,219.258 82.575,219.616 82.698,219.897C82.819,220.172 83.243,220.615 83.243,220.615C83.243,220.615 83.707,220.487 83.937,220.418C84.314,220.304 84.986,220.108 85.504,219.934C86.104,219.733 86.915,219.499 87.532,219.211C88.12,218.936 88.761,218.519 89.202,218.206C89.557,217.954 89.889,217.663 90.178,217.336C90.514,216.956 90.934,216.393 91.217,215.929C91.481,215.494 91.873,214.55 91.873,214.55C91.873,214.55 91.418,214.251 91.163,214.164C90.805,214.042 90.213,213.88 89.723,213.815C89.229,213.75 88.705,213.721 88.2,213.774C87.584,213.839 86.022,214.205 86.022,214.205C86.022,214.205 86.163,213.909 86.255,213.774C86.381,213.592 86.569,213.303 86.772,213.109C87.001,212.893 87.626,212.473 87.626,212.473C87.626,212.473 87.342,212.479 87.204,212.509C87.054,212.542 86.88,212.605 86.725,212.672C86.547,212.748 86.324,212.88 86.137,212.969C85.96,213.052 85.6,213.202 85.6,213.202C85.6,213.202 85.702,212.97 85.776,212.868C85.898,212.702 86.124,212.406 86.329,212.204C86.543,211.992 86.823,211.772 87.061,211.6C87.281,211.44 87.755,211.17 87.755,211.17C87.755,211.17 87.572,211.029 87.467,210.983C87.335,210.925 87.139,210.829 86.962,210.819C86.769,210.808 86.511,210.826 86.313,210.92C86.087,211.026 85.796,211.233 85.603,211.46C85.396,211.704 85.186,212.114 85.072,212.386C84.978,212.607 84.914,213.09 84.914,213.09C84.914,213.09 84.766,212.973 84.708,212.9C84.595,212.758 84.363,212.478 84.238,212.239C84.089,211.955 83.886,211.525 83.816,211.195C83.75,210.891 83.752,210.567 83.814,210.262C83.884,209.92 84.071,209.458 84.234,209.143C84.381,208.86 84.591,208.614 84.794,208.369C85.014,208.104 85.275,207.796 85.554,207.556C85.833,207.316 86.176,207.08 86.469,206.929C86.732,206.794 87.02,206.7 87.311,206.652C87.605,206.604 88.23,206.639 88.23,206.639C88.23,206.639 88.304,206.29 88.393,206.138C88.509,205.937 88.695,205.615 88.928,205.435C89.202,205.222 89.742,204.976 90.041,204.864C90.254,204.784 90.489,204.77 90.717,204.765C91.038,204.758 91.557,204.755 91.97,204.822C92.51,204.91 93.405,205.132 93.96,205.293C94.417,205.425 94.948,205.65 95.299,205.787C95.558,205.888 96.066,206.114 96.066,206.114C96.066,206.114 96.199,205.955 96.283,205.896C96.408,205.806 96.62,205.637 96.819,205.575C97.061,205.501 97.426,205.449 97.733,205.449C98.092,205.448 98.559,205.534 98.972,205.573C99.394,205.613 99.893,205.681 100.265,205.689C100.578,205.695 100.924,205.683 101.203,205.617C101.464,205.554 101.754,205.384 101.94,205.29C102.073,205.222 102.196,205.118 102.319,205.05C102.435,204.986 102.551,204.921 102.677,204.882C102.803,204.843 103.076,204.816 103.076,204.816C103.076,204.816 102.948,204.972 102.893,205.056C102.812,205.178 102.687,205.381 102.594,205.549C102.489,205.738 102.369,205.998 102.263,206.19C102.165,206.365 102.067,206.549 101.953,206.705C101.842,206.857 101.7,207.014 101.58,207.128C101.475,207.227 101.349,207.312 101.233,207.387C101.123,207.46 100.889,207.584 100.889,207.584C100.889,207.584 100.952,207.639 100.991,207.65C101.065,207.671 101.216,207.713 101.331,207.709C101.455,207.704 101.604,207.664 101.735,207.621C101.89,207.571 102.089,207.482 102.263,207.405C102.474,207.313 102.786,207.154 103.001,207.066C103.181,206.993 103.38,206.923 103.552,206.877C103.709,206.836 103.892,206.803 104.033,206.794C104.153,206.787 104.304,206.81 104.393,206.823C104.454,206.832 104.571,206.872 104.571,206.872C104.571,206.872 104.499,206.928 104.463,206.956C104.379,207.021 104.178,207.16 104.064,207.261C103.961,207.352 103.862,207.451 103.781,207.563C103.682,207.7 103.549,207.933 103.469,208.083C103.404,208.206 103.364,208.342 103.302,208.466C103.23,208.607 103.148,208.79 103.04,208.931C102.885,209.131 102.641,209.471 102.376,209.669C102.094,209.879 101.67,210.072 101.351,210.194C101.068,210.302 100.745,210.351 100.466,210.4C100.205,210.446 99.844,210.468 99.677,210.49C99.607,210.5 99.468,210.533 99.468,210.533C99.468,210.533 99.583,210.644 99.634,210.705C99.696,210.779 99.781,210.879 99.841,210.975C99.921,211.105 100.035,211.319 100.112,211.481C100.184,211.631 100.229,211.792 100.302,211.942C100.374,212.092 100.472,212.267 100.546,212.383C100.605,212.474 100.678,212.568 100.748,212.639C100.812,212.703 100.885,212.762 100.965,212.805C101.055,212.852 101.287,212.925 101.287,212.925C101.287,212.925 101.181,213.086 101.115,213.155C101.036,213.238 100.928,213.351 100.814,213.421C100.681,213.502 100.484,213.589 100.322,213.642C100.168,213.691 99.846,213.734 99.846,213.734C99.846,213.734 99.907,213.803 99.934,213.842C99.97,213.894 100.027,213.977 100.064,214.051C100.114,214.152 100.181,214.328 100.238,214.449C100.29,214.559 100.338,214.673 100.405,214.774C100.499,214.915 100.657,215.135 100.799,215.294C100.939,215.45 101.127,215.612 101.257,215.727C101.359,215.819 101.502,215.93 101.577,215.988C101.619,216.021 101.707,216.079 101.707,216.079C101.707,216.079 101.675,216.112 101.655,216.122C101.625,216.136 101.57,216.154 101.526,216.162C101.462,216.175 101.359,216.191 101.275,216.195C101.147,216.2 100.927,216.195 100.756,216.195L100.248,216.195C100.248,216.195 100.268,216.306 100.286,216.359C100.319,216.459 100.395,216.684 100.451,216.794C100.494,216.879 100.554,216.955 100.623,217.022C100.707,217.103 100.859,217.213 100.958,217.286C101.042,217.348 101.141,217.412 101.218,217.461C101.283,217.502 101.418,217.579 101.418,217.579C101.418,217.579 101.273,217.767 101.208,217.84C101.153,217.904 101.096,217.967 101.032,218.021C100.947,218.092 100.812,218.205 100.702,218.268C100.599,218.326 100.479,218.373 100.371,218.394C100.268,218.414 100.138,218.4 100.056,218.392C99.996,218.386 99.879,218.347 99.879,218.347C99.879,218.347 99.914,218.483 99.927,218.553C99.957,218.706 100.027,219.027 100.058,219.267C100.09,219.518 100.104,219.794 100.119,220.059C100.136,220.341 100.156,220.964 100.156,220.964C100.156,220.964 99.939,220.942 99.83,220.928C99.707,220.913 99.421,220.873 99.421,220.873C99.421,220.873 99.425,221.275 99.414,221.475C99.402,221.683 99.394,221.909 99.35,222.121C99.295,222.388 99.188,222.822 99.085,223.079C99,223.291 98.876,223.489 98.73,223.665C98.572,223.855 98.136,224.222 98.136,224.222C98.136,224.222 98.073,224.126 98.037,224.082C97.986,224.017 97.824,223.832 97.824,223.832C97.824,223.832 97.803,224.152 97.787,224.311C97.766,224.51 97.735,224.842 97.7,225.022C97.675,225.149 97.645,225.282 97.574,225.391C97.502,225.501 97.385,225.625 97.271,225.681C97.156,225.738 96.983,225.727 96.884,225.73C96.814,225.732 96.675,225.702 96.675,225.702C96.675,225.702 96.674,225.925 96.664,226.036C96.651,226.186 96.624,226.427 96.595,226.6C96.568,226.759 96.489,227.072 96.489,227.072C96.489,227.072 96.802,227.09 96.953,227.127C97.162,227.178 97.533,227.273 97.741,227.378C97.918,227.468 98.089,227.632 98.201,227.756C98.295,227.861 98.411,228.124 98.411,228.124C98.411,228.124 98.615,228.082 98.717,228.061C98.851,228.033 99.215,227.959 99.215,227.959C99.215,227.959 99.23,227.201 99.264,226.856C99.297,226.531 99.373,226.171 99.423,225.89C99.465,225.649 99.516,225.406 99.562,225.168C99.608,224.934 99.7,224.466 99.7,224.466C99.7,224.466 100.124,224.426 100.33,224.466C100.564,224.512 100.896,224.616 101.102,224.742C101.291,224.857 101.443,225.045 101.564,225.22C101.683,225.391 101.768,225.643 101.826,225.788C101.864,225.884 101.913,226.085 101.913,226.085C101.913,226.085 102.021,225.883 102.066,225.778C102.125,225.642 102.227,225.448 102.266,225.27C102.319,225.031 102.371,224.636 102.382,224.343C102.393,224.064 102.37,223.784 102.337,223.507C102.302,223.226 102.229,222.935 102.178,222.654C102.127,222.377 102.066,222.038 102.029,221.821C102.003,221.666 101.971,221.494 101.957,221.354C101.946,221.229 101.95,220.977 101.95,220.977C101.95,220.977 102.395,221.01 102.611,221.059C102.926,221.13 103.465,221.227 103.838,221.407C104.21,221.586 104.6,221.906 104.848,222.136C105.045,222.32 105.202,222.591 105.326,222.789C105.43,222.957 105.587,223.324 105.587,223.324C105.587,223.324 105.616,222.913 105.635,222.707C105.676,222.255 105.77,221.309 105.834,220.609C105.902,219.865 105.966,219.032 106.041,218.245C106.131,217.304 106.261,215.926 106.375,214.966C106.474,214.135 106.581,213.305 106.725,212.481C106.885,211.564 107.336,209.468 107.336,209.468C107.336,209.468 107.716,209.684 107.868,209.838C108.053,210.025 108.307,210.306 108.446,210.59C108.648,211.001 108.928,211.747 109.079,212.304C109.223,212.836 109.294,213.387 109.351,213.935C109.419,214.591 109.478,215.471 109.487,216.24C109.497,217.155 109.445,218.542 109.415,219.422C109.39,220.122 109.326,221.077 109.303,221.52C109.294,221.707 109.277,222.081 109.277,222.081C109.277,222.081 109.661,221.676 109.829,221.455C110.16,221.018 110.838,220.16 111.262,219.459C111.726,218.689 112.244,217.746 112.618,216.836C113.003,215.898 113.337,214.788 113.573,213.833C113.795,212.937 113.937,212.02 114.038,211.103C114.143,210.147 114.193,209.045 114.204,208.1C114.213,207.208 114.127,205.968 114.101,205.428C114.092,205.239 114.049,204.861 114.049,204.861C114.049,204.861 114.347,204.938 114.478,205.014C114.805,205.202 115.619,205.528 116.011,205.99C116.51,206.577 117.189,207.769 117.471,208.537C117.71,209.185 117.725,209.905 117.705,210.595C117.678,211.547 117.514,213.131 117.307,214.244C117.116,215.274 116.742,216.391 116.466,217.272C116.227,218.035 115.872,218.94 115.653,219.529C115.494,219.957 115.153,220.805 115.153,220.805C115.153,220.805 116.151,219.666 116.658,219.104C117.17,218.538 117.724,217.891 118.224,217.407C118.672,216.973 119.157,216.523 119.657,216.201C120.141,215.89 120.769,215.618 121.223,215.477C121.592,215.362 122.144,215.371 122.377,215.355C122.457,215.349 122.55,215.374 122.617,215.379C122.67,215.383 122.776,215.383 122.776,215.383C122.776,215.383 122.852,215.505 122.852,215.573C122.852,215.723 122.857,216.058 122.777,216.282C122.658,216.612 122.397,217.154 122.14,217.553C121.818,218.052 121.293,218.718 120.844,219.281C120.316,219.943 119.562,220.794 118.973,221.528C118.403,222.236 117.679,223.176 117.304,223.685C117.092,223.972 116.722,224.582 116.722,224.582C116.722,224.582 117.248,224.068 117.557,223.871C118.017,223.577 118.851,223.077 119.488,222.817C120.092,222.572 120.873,222.391 121.379,222.315C121.756,222.259 122.205,222.278 122.522,222.365C122.809,222.444 123.103,222.669 123.28,222.837C123.429,222.979 123.583,223.376 123.583,223.376C123.583,223.376 123.522,223.474 123.483,223.515C123.392,223.613 123.191,223.82 123.034,223.961C122.758,224.208 122.236,224.665 121.824,225.001C121.298,225.431 120.534,226.038 119.876,226.54C119.185,227.069 118.376,227.672 117.676,228.172C117.019,228.642 116.202,229.193 115.675,229.542C115.295,229.793 114.739,230.125 114.515,230.263C114.455,230.3 114.389,230.327 114.332,230.369C114.255,230.427 114.111,230.552 114.053,230.612C114.022,230.644 113.99,230.689 113.983,230.728C113.977,230.767 114.013,230.845 114.013,230.845C114.013,230.845 114.199,230.763 114.296,230.732C114.547,230.652 115.101,230.44 115.52,230.363C116.067,230.264 116.887,230.112 117.577,230.136C118.423,230.164 119.829,230.34 120.6,230.537C121.175,230.683 121.81,231.046 122.202,231.315C122.511,231.527 122.794,231.886 122.953,232.152C123.088,232.378 123.126,232.709 123.156,232.914C123.178,233.067 123.133,233.379 123.133,233.379C123.133,233.379 122.051,233.256 121.507,233.226C120.855,233.189 119.98,233.124 119.217,233.16C118.164,233.208 116.431,233.344 115.189,233.518C114.036,233.68 112.728,233.98 111.765,234.207C110.97,234.394 109.409,234.878 109.409,234.878C109.409,234.878 109.186,235.177 109.032,235.274C108.677,235.497 107.92,235.995 107.284,236.218C106.136,236.619 103.746,236.788 103.746,236.788L103.774,237.535C103.774,237.535 103.034,237.581 102.671,237.523C102.086,237.43 101.021,237.206 100.264,236.976C99.532,236.753 98.128,236.142 98.128,236.142C98.128,236.142 98.194,236.284 98.243,236.345C98.4,236.54 98.764,237.022 99.073,237.315C99.577,237.792 100.697,238.75 101.268,239.209C101.659,239.522 102.076,239.804 102.502,240.068C102.969,240.357 103.716,240.757 104.067,240.946C104.243,241.04 104.43,241.112 104.608,241.202C104.861,241.331 105.271,241.528 105.587,241.72C105.975,241.955 106.544,242.313 106.936,242.612C107.292,242.883 107.646,243.169 107.936,243.511C108.316,243.959 108.908,244.769 109.215,245.299C109.466,245.732 109.631,246.233 109.777,246.691C109.917,247.134 109.998,247.623 110.086,248.051C110.168,248.451 110.205,248.861 110.305,249.257C110.417,249.702 110.571,250.246 110.76,250.72C111.001,251.324 111.424,252.289 111.751,252.884C112.025,253.382 112.355,253.856 112.722,254.286C113.088,254.716 113.483,255.14 113.948,255.463C114.444,255.808 115.128,256.168 115.7,256.357C116.236,256.535 116.997,256.572 117.378,256.597C117.583,256.61 117.848,256.549 117.986,256.503C118.076,256.474 118.166,256.383 118.206,256.324C118.238,256.275 118.243,256.203 118.222,256.148C118.198,256.082 118.139,255.974 118.06,255.928C117.968,255.876 117.806,255.836 117.674,255.832C117.541,255.828 117.398,255.873 117.262,255.905C117.125,255.937 116.99,255.989 116.853,256.025C116.679,256.07 116.218,256.178 116.218,256.178C116.218,256.178 116.286,255.919 116.335,255.795C116.416,255.587 116.557,255.154 116.71,254.925C116.847,254.719 117.031,254.531 117.252,254.419C117.475,254.307 117.823,254.264 118.046,254.25C118.231,254.238 118.416,254.284 118.595,254.333C118.805,254.391 119.309,254.599 119.309,254.599C119.309,254.599 119.319,254.477 119.304,254.42C119.272,254.297 119.216,254.033 119.117,253.865C119.005,253.675 118.817,253.45 118.63,253.278C118.425,253.089 118.141,252.905 117.886,252.733C117.631,252.56 117.359,252.408 117.097,252.243C116.743,252.018 116.176,251.716 115.763,251.386C115.282,251.003 114.647,250.497 114.214,249.942C113.78,249.387 113.386,248.612 113.162,248.055C112.977,247.595 112.92,247.068 112.869,246.598C112.821,246.145 112.868,245.621 112.859,245.232C112.851,244.909 112.886,244.579 112.813,244.264C112.729,243.904 112.62,243.405 112.354,243.073C112.044,242.686 111.367,242.201 110.956,241.941C110.632,241.736 110.245,241.638 109.888,241.512C109.536,241.387 108.817,241.184 108.817,241.184C108.817,241.184 109.409,240.835 109.728,240.708C110.17,240.533 110.936,240.23 111.468,240.13C111.942,240.041 112.503,240.039 112.916,240.109C113.285,240.172 113.669,240.373 113.946,240.553C114.197,240.715 114.44,241.018 114.582,241.184C114.674,241.292 114.8,241.55 114.8,241.55C114.8,241.55 115.042,241.21 115.179,241.054C115.365,240.841 115.733,240.459 115.916,240.272C116.032,240.154 116.16,240.048 116.278,239.933C116.411,239.802 116.588,239.651 116.717,239.488C116.889,239.27 117.145,238.935 117.309,238.629C117.478,238.313 117.614,237.892 117.731,237.595C117.829,237.346 117.906,237.072 118.013,236.845C118.113,236.631 118.212,236.407 118.372,236.233C118.594,235.992 118.958,235.58 119.345,235.399C119.739,235.215 120.264,235.069 120.734,235.128C121.199,235.187 121.641,235.411 121.971,235.746C122.321,236.101 122.545,236.579 122.657,237.081C122.798,237.711 122.582,238.581 122.53,238.955C122.511,239.091 122.423,239.21 122.348,239.325C122.211,239.534 121.89,239.912 121.709,240.204C121.537,240.481 121.326,240.813 121.264,241.076C121.209,241.305 121.263,241.593 121.338,241.78C121.406,241.952 121.538,242.121 121.709,242.193C121.916,242.28 122.379,242.33 122.58,242.302C122.724,242.282 122.864,242.121 122.915,242.027C122.962,241.941 122.937,241.821 122.89,241.735C122.844,241.648 122.736,241.556 122.634,241.505C122.528,241.451 122.367,241.426 122.253,241.412C122.152,241.4 121.949,241.42 121.949,241.42C121.949,241.42 122.011,241.301 122.063,241.263C122.182,241.177 122.433,240.948 122.661,240.904C122.924,240.855 123.369,240.86 123.639,240.965C123.906,241.068 124.151,241.307 124.283,241.534C124.414,241.76 124.449,242.073 124.427,242.324C124.406,242.575 124.318,242.845 124.153,243.041C123.927,243.31 123.408,243.744 123.071,243.937C122.79,244.099 122.457,244.178 122.134,244.201C121.784,244.227 121.313,244.188 120.971,244.091C120.648,243.998 120.34,243.83 120.082,243.614C119.819,243.395 119.55,243.051 119.394,242.776C119.254,242.53 119.167,242.248 119.146,241.966C119.123,241.65 119.17,241.225 119.254,240.876C119.338,240.527 119.493,240.195 119.651,239.871C119.812,239.542 120.068,239.174 120.219,238.9C120.34,238.679 120.486,238.4 120.556,238.223C120.605,238.101 120.637,237.95 120.64,237.839C120.643,237.744 120.613,237.625 120.578,237.56C120.549,237.505 120.483,237.464 120.432,237.447C120.382,237.43 120.317,237.426 120.273,237.457C120.195,237.51 120.046,237.647 119.964,237.768C119.867,237.909 119.767,238.119 119.694,238.306C119.604,238.538 119.519,238.878 119.424,239.161C119.315,239.489 119.148,239.997 119.039,240.275C118.964,240.465 118.876,240.651 118.769,240.825C118.597,241.104 118.219,241.663 118.01,241.952C117.857,242.163 117.672,242.371 117.514,242.557C117.366,242.731 117.062,243.072 117.062,243.072C117.062,243.072 117.433,243.02 117.619,243.031C117.861,243.045 118.232,243.067 118.515,243.156C118.798,243.244 119.114,243.416 119.315,243.561C119.483,243.683 119.623,243.848 119.724,244.029C119.851,244.255 120.005,244.69 120.074,244.913C120.118,245.059 120.134,245.367 120.134,245.367C120.134,245.367 119.8,245.107 119.611,245.016C119.372,244.902 119.019,244.737 118.7,244.679C118.37,244.618 117.929,244.618 117.634,244.653C117.388,244.682 117.124,244.779 116.93,244.891C116.747,244.995 116.559,245.22 116.468,245.321C116.425,245.37 116.386,245.499 116.386,245.499C116.386,245.499 116.551,245.37 116.645,245.327C116.847,245.234 117.259,245.004 117.595,244.939C117.938,244.873 118.397,244.876 118.704,244.929C118.968,244.975 119.235,245.112 119.437,245.261C119.635,245.407 119.802,245.612 119.918,245.822C120.033,246.032 120.092,246.339 120.128,246.519C120.153,246.644 120.134,246.902 120.134,246.902C120.134,246.902 119.902,246.747 119.777,246.686C119.611,246.605 119.359,246.471 119.134,246.414C118.906,246.357 118.651,246.317 118.411,246.344C118.171,246.372 117.883,246.463 117.696,246.579C117.521,246.687 117.288,247.038 117.288,247.038C117.288,247.038 117.508,246.905 117.63,246.869C117.821,246.813 118.161,246.697 118.435,246.701C118.714,246.704 119.044,246.766 119.301,246.888C119.558,247.01 119.823,247.247 119.979,247.43C120.111,247.586 120.187,247.788 120.235,247.987C120.289,248.209 120.319,248.526 120.301,248.761C120.284,248.98 120.128,249.396 120.128,249.396Z" style="fill:white;fill-rule:nonzero;"/>
            </g>
        </g>
    </g>
</svg>
