<?xml version="1.0" encoding="UTF-8" standalone="no"?>
<!DOCTYPE svg PUBLIC "-//W3C//DTD SVG 1.1//EN" "http://www.w3.org/Graphics/SVG/1.1/DTD/svg11.dtd">
<svg width="204" height="204" viewBox="0 0 204 204" version="1.1" xmlns="http://www.w3.org/2000/svg" xmlns:xlink="http://www.w3.org/1999/xlink" xml:space="preserve" xmlns:serif="http://www.serif.com/" style="fill-rule:evenodd;clip-rule:evenodd;stroke-linecap:round;stroke-linejoin:round;stroke-miterlimit:1.5;">
    <g transform="matrix(1,0,0,1,-576.311,-237.592)">
        <g id="Guild-unit" serif:id="Guild unit" transform="matrix(1,0,0,1,447.999,-447.997)">
            <g transform="matrix(1.00601,0,0,1.00601,-4.80232,451.02)">
                <circle cx="233.356" cy="334.206" r="99.794" style="fill:url(#_Radial1);stroke:black;stroke-width:2.49px;"/>
            </g>
            <g transform="matrix(0.691174,0,0,0.691174,68.666,556.239)">
                <circle cx="233.356" cy="334.206" r="99.794" style="fill:none;stroke:rgb(255,255,199);stroke-opacity:0.5;stroke-width:9.04px;"/>
            </g>
            <g transform="matrix(10.2083,0,0,10.2083,-3648.48,-1827.42)">
                <path d="M375.899,263.003L376.18,262.348L376.46,261.849L376.334,261.709L376.398,261.381L373.622,259.915C375.098,257.326 377.323,256.484 378.8,254.394L379.112,254.269L379.159,253.427L378.893,253.365L378.862,252.959C378.708,253.386 378.486,253.79 378.207,254.176C377.76,254.362 377.313,254.466 376.866,254.488L376.748,254.425L376.919,255.171L377.167,255.108L377.214,255.419L376.452,255.59L376.359,255.326L376.608,255.202L376.468,254.502L376.281,254.549L376.188,254.223L376.017,254.207L375.769,253.461L375.753,253.197L375.893,253.042L375.706,252.094L375.847,251.939L375.691,251.286L375.427,251.317L375.365,251.037L375.66,250.96L375.536,250.478L375.256,250.525L375.194,250.229L375.473,250.152L375.396,249.903L375.753,249.872L375.8,250.136L376.095,250.121L376.126,250.385L375.847,250.416L375.939,250.804L376.313,250.804L376.344,251.037L375.986,251.161L376.157,251.861L376.359,251.954L376.515,252.7L376.716,252.886L376.887,253.244L377.431,253.213L377.602,252.933L377.82,252.653L378.255,251.97L378.27,251.799L378.503,251.286L378.644,251.177L379.545,251.099L379.28,250.322C379.352,250.177 379.487,250.053 379.684,249.95C379.653,249.81 379.622,249.67 379.591,249.53C379.491,249.256 379.564,248.981 379.715,248.706C379.953,248.464 380.264,248.423 380.586,248.411C380.902,248.469 381.151,248.621 381.3,248.909C381.391,249.054 381.413,249.223 381.44,249.39L381.549,249.445C381.538,249.58 381.518,249.704 381.487,249.818C381.798,249.988 382.067,250.182 382.295,250.416C382.114,250.592 381.974,250.83 381.876,251.131L382.497,251.146L382.746,251.239L383.119,251.706L383.771,252.109L384.128,252.591L384.47,252.824L384.75,253.306L384.874,253.399L385.107,254.534L384.952,254.735L385.154,255.435L384.983,255.761L384.765,255.948L384.735,256.212L384.595,256.351L384.719,256.725L384.673,256.849L384.735,257.082L384.812,257.486L384.673,257.548L384.47,257.237L384.346,257.299L384.377,257.641L384.222,257.719L384.035,257.439L383.958,257.455L383.849,257.144L383.756,257.144L383.165,255.637L383.305,255.481L383.165,255.466L383.087,255.186L383.818,254.86L383.911,255.139L384.02,255.264L384.16,255.202L384.175,254.938L384.004,254.938L383.756,254.145L383.693,253.788L383.662,253.555L383.429,253.477L383.274,253.197L382.699,252.793L382.419,252.56L382.171,253.337L381.906,253.57L381.829,254.549L382.047,254.844C382.23,255.965 382.599,257.059 383.072,258.138C383.734,259.194 384.233,260.346 384.688,261.526L384.564,261.65L384.765,262.07L385.03,262.955L384.237,263.064L383.305,263.049L383.289,262.707L383.445,262.35L383.321,262.116L383.274,261.868C382.72,261.982 382.383,262.313 381.922,262.303C380.4,262.332 378.962,262.254 377.649,261.992L377.633,262.987L375.899,263.003Z" style="fill:rgb(255,255,201);"/>
                <path d="M380.653,247.803L380.699,247.81L380.717,247.813L380.738,247.817L380.759,247.821L380.78,247.826L380.8,247.831L380.821,247.836L380.842,247.841L380.863,247.847L380.884,247.853L380.905,247.859L380.925,247.865L380.946,247.872L380.967,247.879L380.987,247.886L381.008,247.893L381.029,247.901L381.049,247.909L381.07,247.917L381.09,247.926L381.11,247.935L381.131,247.944L381.151,247.953L381.171,247.963L381.191,247.973L381.211,247.984L381.231,247.995L381.251,248.006L381.27,248.017L381.29,248.029L381.309,248.041L381.328,248.053L381.348,248.066L381.367,248.079L381.385,248.092L381.404,248.106L381.422,248.12L381.441,248.134L381.459,248.149L381.477,248.163L381.495,248.179L381.512,248.194L381.529,248.21L381.546,248.226L381.563,248.243L381.58,248.259L381.596,248.276L381.612,248.294L381.628,248.311L381.644,248.329L381.659,248.347L381.674,248.366L381.689,248.384L381.703,248.403L381.718,248.422L381.732,248.442L381.745,248.461L381.759,248.481L381.772,248.501L381.784,248.522L381.797,248.542L381.809,248.563L381.821,248.584L381.833,248.605L381.829,248.599L381.837,248.613L381.845,248.626L381.852,248.64L381.859,248.653L381.867,248.666L381.874,248.68L381.88,248.693L381.887,248.706L381.893,248.72L381.899,248.733L381.905,248.746L381.916,248.772L381.927,248.798L381.932,248.811L381.937,248.825L381.945,248.849L381.954,248.874L381.962,248.898L381.969,248.923L381.976,248.946L381.982,248.97L381.988,248.992L381.994,249.015L381.996,249.027L382.001,249.031L382.037,249.074L382.069,249.121L382.096,249.169L382.119,249.22L382.137,249.273L382.15,249.328L382.158,249.383L382.161,249.439L382.159,249.495L382.158,249.51L382.164,249.514L382.194,249.535L382.225,249.556L382.255,249.578L382.284,249.599L382.315,249.622L382.344,249.644L382.373,249.667L382.403,249.69L382.431,249.713L382.46,249.737L382.488,249.76L382.517,249.784L382.545,249.809L382.572,249.833L382.6,249.858L382.627,249.884L382.654,249.909L382.681,249.935L382.707,249.962L382.732,249.987L382.77,250.029L382.803,250.074L382.833,250.123L382.857,250.174L382.877,250.227L382.892,250.281L382.902,250.337L382.907,250.393L382.906,250.45L382.901,250.506L382.89,250.562L382.874,250.616L382.868,250.631L382.961,250.666L383.011,250.688L383.059,250.713L383.105,250.744L383.148,250.778L383.188,250.816L383.224,250.857L383.531,251.241L384.093,251.589L384.141,251.622L384.185,251.659L384.226,251.7L384.263,251.745L384.559,252.143L384.815,252.319L384.859,252.351L384.9,252.388L384.937,252.428L384.97,252.471L385,252.517L385.217,252.891L385.242,252.91L385.285,252.945L385.324,252.984L385.36,253.026L385.392,253.072L385.419,253.12L385.442,253.17L385.46,253.222L385.474,253.276L385.707,254.41L385.716,254.468L385.72,254.526L385.717,254.585L385.71,254.643L385.697,254.699L385.678,254.755L385.655,254.808L385.626,254.859L385.625,254.86L385.742,255.265L385.756,255.322L385.764,255.379L385.766,255.438L385.763,255.496L385.755,255.554L385.74,255.611L385.721,255.666L385.696,255.719L385.525,256.045L385.496,256.095L385.462,256.142L385.424,256.186L385.381,256.226L385.346,256.256L385.343,256.283L385.333,256.34L385.318,256.397L385.298,256.452L385.283,256.482L385.3,256.531L385.316,256.588L385.326,256.647L385.331,256.706L385.33,256.765L385.323,256.824L385.313,256.873L385.332,256.945L385.413,257.37L385.422,257.429L385.424,257.487L385.422,257.546L385.413,257.604L385.399,257.661L385.379,257.716L385.355,257.77L385.325,257.82L385.291,257.868L385.252,257.912L385.209,257.952L385.163,257.988L385.113,258.019L385.061,258.046L384.921,258.108L384.867,258.128L384.812,258.144L384.755,258.155L384.703,258.159L384.7,258.161L384.651,258.189L384.496,258.266L384.442,258.29L384.386,258.309L384.328,258.322L384.27,258.329L384.211,258.331L384.152,258.327L384.093,258.318L384.036,258.302L383.981,258.282L383.928,258.256L383.878,258.225L383.831,258.19L383.804,258.165L383.812,258.179L383.843,258.232L383.873,258.285L383.903,258.338L383.933,258.391L383.963,258.444L383.992,258.498L384.022,258.551L384.051,258.605L384.079,258.658L384.108,258.712L384.136,258.766L384.165,258.82L384.192,258.874L384.22,258.928L384.248,258.982L384.275,259.036L384.302,259.09L384.329,259.144L384.356,259.199L384.382,259.253L384.409,259.308L384.435,259.363L384.461,259.417L384.487,259.472L384.512,259.527L384.538,259.582L384.563,259.637L384.588,259.692L384.613,259.747L384.638,259.802L384.663,259.857L384.687,259.912L384.712,259.968L384.736,260.023L384.76,260.078L384.784,260.134L384.808,260.189L384.832,260.245L384.855,260.3L384.878,260.356L384.902,260.412L384.925,260.467L384.948,260.523L384.971,260.579L384.994,260.635L385.016,260.69L385.039,260.746L385.061,260.802L385.084,260.858L385.106,260.914L385.128,260.97L385.15,261.026L385.172,261.082L385.194,261.138L385.216,261.194L385.237,261.25L385.259,261.305L385.277,261.361L385.291,261.418L385.298,261.477L385.3,261.536L385.296,261.594L385.287,261.652L385.272,261.709L385.272,261.71L385.317,261.804L385.336,261.849L385.352,261.895L385.616,262.78L385.63,262.837L385.639,262.895L385.642,262.954L385.639,263.012L385.631,263.07L385.617,263.127L385.598,263.183L385.574,263.236L385.544,263.287L385.51,263.334L385.472,263.379L385.429,263.419L385.383,263.455L385.334,263.487L385.281,263.513L385.227,263.535L385.171,263.551L385.113,263.562L384.321,263.671L384.274,263.675L384.227,263.676L383.295,263.661L383.237,263.657L383.18,263.648L383.124,263.634L383.07,263.614L383.018,263.589L382.968,263.56L382.922,263.526L382.878,263.488L382.839,263.446L382.804,263.4L382.773,263.351L382.747,263.3L382.725,263.246L382.709,263.191L382.699,263.134L382.693,263.077L382.678,262.75L382.659,262.758L382.635,262.768L382.61,262.778L382.585,262.787L382.56,262.797L382.534,262.806L382.507,262.815L382.48,262.824L382.454,262.833L382.439,262.838L382.425,262.842L382.411,262.846L382.397,262.85L382.382,262.854L382.367,262.858L382.353,262.862L382.338,262.866L382.323,262.869L382.308,262.873L382.292,262.876L382.277,262.88L382.262,262.883L382.246,262.886L382.23,262.889L382.214,262.892L382.198,262.895L382.182,262.897L382.166,262.899L382.149,262.902L382.133,262.904L382.116,262.906L382.099,262.908L382.082,262.909L382.065,262.911L382.048,262.912L382.031,262.913L382.014,262.914L381.996,262.914L381.979,262.915L381.961,262.915L381.944,262.915L381.926,262.915L381.922,262.915L381.861,262.916L381.789,262.917L381.716,262.918L381.644,262.919L381.572,262.92L381.5,262.92L381.428,262.921L381.356,262.921L381.284,262.921L381.212,262.92L381.141,262.92L381.069,262.919L380.998,262.919L380.927,262.918L380.856,262.917L380.785,262.915L380.714,262.914L380.643,262.912L380.573,262.91L380.502,262.908L380.432,262.906L380.362,262.903L380.292,262.901L380.221,262.898L380.152,262.895L380.082,262.891L380.012,262.888L379.943,262.884L379.873,262.88L379.804,262.876L379.735,262.872L379.666,262.867L379.597,262.862L379.528,262.857L379.46,262.852L379.391,262.847L379.323,262.841L379.254,262.835L379.186,262.829L379.118,262.822L379.05,262.816L378.983,262.809L378.915,262.802L378.848,262.794L378.781,262.787L378.713,262.779L378.646,262.771L378.579,262.762L378.513,262.754L378.446,262.745L378.38,262.736L378.313,262.726L378.25,262.717L378.245,262.996L378.242,263.055L378.232,263.113L378.217,263.171L378.197,263.226L378.171,263.279L378.14,263.33L378.105,263.377L378.065,263.421L378.021,263.46L377.973,263.496L377.923,263.526L377.869,263.551L377.814,263.572L377.756,263.586L377.698,263.595L377.639,263.599L375.905,263.615L375.847,263.613L375.79,263.605L375.733,263.592L375.678,263.574L375.625,263.551L375.575,263.522L375.527,263.489L375.483,263.452L375.443,263.411L375.406,263.366L375.374,263.318L375.347,263.267L375.324,263.214L375.307,263.158L375.295,263.102L375.288,263.044L375.287,262.987L375.291,262.929L375.301,262.872L375.316,262.816L375.336,262.762L375.617,262.107L375.631,262.077L375.646,262.048L375.744,261.873L375.732,261.818L375.724,261.761L375.723,261.717L373.336,260.456L373.286,260.427L373.239,260.393L373.196,260.355L373.156,260.313L373.121,260.267L373.09,260.218L373.064,260.167L373.043,260.113L373.026,260.058L373.016,260.001L373.01,259.943L373.01,259.885L373.016,259.828L373.027,259.771L373.043,259.716L373.064,259.662L373.091,259.611L373.109,259.579L373.127,259.547L373.146,259.515L373.165,259.483L373.184,259.451L373.202,259.42L373.221,259.388L373.241,259.357L373.26,259.326L373.279,259.295L373.298,259.265L373.317,259.234L373.337,259.204L373.356,259.173L373.376,259.143L373.395,259.113L373.415,259.083L373.435,259.054L373.455,259.024L373.474,258.995L373.494,258.966L373.514,258.937L373.534,258.908L373.554,258.879L373.575,258.85L373.595,258.822L373.615,258.794L373.635,258.765L373.656,258.737L373.676,258.709L373.696,258.682L373.717,258.654L373.738,258.627L373.758,258.599L373.779,258.572L373.8,258.545L373.82,258.518L373.841,258.491L373.862,258.465L373.883,258.438L373.904,258.412L373.925,258.385L373.946,258.359L373.967,258.333L373.988,258.307L374.009,258.282L374.031,258.256L374.052,258.23L374.073,258.205L374.094,258.18L374.116,258.155L374.137,258.13L374.159,258.105L374.18,258.08L374.202,258.055L374.223,258.031L374.245,258.006L374.266,257.982L374.288,257.958L374.31,257.934L374.331,257.91L374.353,257.886L374.375,257.862L374.396,257.839L374.418,257.815L374.44,257.792L374.462,257.768L374.484,257.745L374.506,257.722L374.528,257.699L374.55,257.676L374.572,257.653L374.593,257.631L374.616,257.608L374.638,257.585L374.66,257.563L374.682,257.541L374.704,257.518L374.748,257.474L374.792,257.43L374.836,257.387L374.881,257.344L374.925,257.301L374.969,257.259L375.014,257.216L375.058,257.175L375.103,257.133L375.147,257.092L375.192,257.051L375.236,257.01L375.281,256.97L375.325,256.93L375.37,256.89L375.414,256.85L375.458,256.811L375.503,256.772L375.547,256.733L375.591,256.694L375.636,256.655L375.68,256.617L375.724,256.579L375.768,256.541L375.812,256.503L375.899,256.428L375.987,256.353L376.074,256.279L376.16,256.205L376.219,256.155L376.182,256.14L376.13,256.111L376.082,256.077L376.036,256.039L375.995,255.997L375.958,255.951L375.925,255.901L375.897,255.849L375.875,255.794L375.782,255.53L375.765,255.473L375.753,255.415L375.748,255.356L375.747,255.297L375.753,255.239L375.764,255.181L375.781,255.124L375.803,255.069L375.83,255.017L375.852,254.984L375.837,254.97L375.799,254.926L375.765,254.878L375.736,254.826L375.712,254.773L375.696,254.728L375.685,254.721L375.637,254.687L375.593,254.648L375.552,254.605L375.516,254.558L375.484,254.508L375.458,254.456L375.436,254.401L375.188,253.655L375.173,253.603L375.163,253.55L375.157,253.497L375.142,253.232L375.141,253.179L375.145,253.125L375.154,253.072L375.167,253.02L375.185,252.969L375.207,252.92L375.234,252.873L375.235,252.871L375.106,252.212L375.097,252.156L375.094,252.099L375.096,252.042L375.104,251.986L375.116,251.931L375.134,251.877L375.142,251.858L375.119,251.846L375.072,251.816L375.028,251.781L374.987,251.743L374.95,251.701L374.917,251.655L374.888,251.607L374.863,251.556L374.844,251.504L374.829,251.45L374.767,251.17L374.757,251.112L374.753,251.054L374.754,250.995L374.761,250.937L374.77,250.896L374.747,250.865L374.717,250.815L374.692,250.762L374.671,250.707L374.657,250.651L374.595,250.355L374.585,250.298L374.582,250.241L374.583,250.183L374.59,250.126L374.603,250.07L374.62,250.015L374.643,249.962L374.671,249.911L374.703,249.863L374.739,249.819L374.78,249.778L374.801,249.76L374.804,249.745L374.822,249.69L374.844,249.637L374.872,249.586L374.904,249.539L374.94,249.494L374.981,249.453L375.025,249.416L375.072,249.383L375.122,249.355L375.175,249.332L375.229,249.314L375.286,249.301L375.343,249.293L375.7,249.262L375.757,249.259L375.813,249.262L375.87,249.271L375.925,249.284L375.979,249.302L376.03,249.326L376.08,249.354L376.126,249.386L376.17,249.423L376.209,249.463L376.245,249.507L376.262,249.532L376.29,249.54L376.344,249.561L376.396,249.587L376.444,249.618L376.49,249.653L376.532,249.692L376.571,249.735L376.605,249.781L376.634,249.831L376.659,249.883L376.679,249.937L376.694,249.993L376.703,250.049L376.734,250.313L376.738,250.363L376.778,250.406L376.814,250.452L376.845,250.502L376.871,250.554L376.893,250.609L376.909,250.665L376.919,250.723L376.951,250.956L376.955,251.012L376.955,251.068L376.95,251.123L376.94,251.178L376.924,251.232L376.904,251.284L376.879,251.334L376.85,251.382L376.816,251.426L376.779,251.468L376.756,251.489L376.759,251.491L376.801,251.53L376.838,251.573L376.872,251.619L376.901,251.668L376.925,251.72L376.944,251.774L376.958,251.829L377.074,252.383L377.132,252.437L377.173,252.478L377.177,252.483L377.319,252.3L377.659,251.766L377.661,251.743L377.667,251.692L377.679,251.642L377.694,251.593L377.713,251.545L377.946,251.033L377.973,250.98L378.005,250.93L378.042,250.884L378.083,250.841L378.128,250.802L378.268,250.694L378.316,250.66L378.367,250.631L378.42,250.607L378.476,250.588L378.533,250.575L378.591,250.567L378.713,250.557L378.701,250.519L378.686,250.468L378.675,250.415L378.669,250.361L378.668,250.307L378.672,250.253L378.681,250.199L378.694,250.147L378.712,250.096L378.734,250.047L378.739,250.036L378.746,250.023L378.753,250.01L378.761,249.996L378.768,249.983L378.776,249.97L378.784,249.957L378.792,249.944L378.8,249.931L378.808,249.918L378.816,249.906L378.825,249.893L378.834,249.881L378.843,249.869L378.852,249.857L378.861,249.845L378.87,249.833L378.879,249.821L378.888,249.81L378.898,249.798L378.908,249.787L378.917,249.776L378.927,249.764L378.937,249.754L378.947,249.743L378.957,249.732L378.968,249.721L378.978,249.711L378.989,249.701L378.999,249.69L378.993,249.67L378.986,249.647L378.979,249.624L378.973,249.601L378.968,249.577L378.963,249.554L378.958,249.531L378.954,249.507L378.95,249.484L378.946,249.46L378.943,249.437L378.94,249.414L378.938,249.391L378.936,249.367L378.935,249.344L378.934,249.321L378.933,249.298L378.933,249.275L378.933,249.252L378.934,249.23L378.934,249.207L378.936,249.185L378.937,249.162L378.939,249.14L378.941,249.118L378.944,249.096L378.946,249.075L378.949,249.053L378.953,249.032L378.957,249.01L378.96,248.989L378.965,248.968L378.969,248.947L378.974,248.927L378.979,248.906L378.984,248.886L378.989,248.866L378.995,248.846L379.001,248.826L379.007,248.806L379.013,248.787L379.02,248.767L379.026,248.748L379.033,248.729L379.04,248.71L379.047,248.692L379.054,248.673L379.062,248.655L379.069,248.637L379.077,248.618L379.085,248.6L379.093,248.583L379.101,248.565L379.109,248.547L379.118,248.53L379.126,248.513L379.135,248.495L379.143,248.478L379.152,248.461L379.161,248.445L379.17,248.428L379.178,248.413L379.208,248.364L379.243,248.317L379.282,248.274L379.297,248.259L379.316,248.24L379.336,248.222L379.355,248.205L379.375,248.187L379.395,248.17L379.416,248.154L379.436,248.138L379.457,248.123L379.478,248.107L379.499,248.093L379.52,248.079L379.541,248.065L379.563,248.052L379.584,248.039L379.606,248.026L379.627,248.014L379.649,248.003L379.671,247.992L379.693,247.981L379.714,247.971L379.736,247.961L379.758,247.951L379.78,247.942L379.801,247.934L379.823,247.926L379.845,247.918L379.866,247.91L379.888,247.903L379.909,247.896L379.93,247.89L379.952,247.883L379.973,247.878L379.994,247.872L380.015,247.867L380.036,247.862L380.056,247.857L380.077,247.853L380.097,247.848L380.118,247.844L380.138,247.841L380.158,247.837L380.178,247.834L380.198,247.831L380.217,247.828L380.237,247.825L380.256,247.823L380.275,247.82L380.294,247.818L380.313,247.816L380.332,247.814L380.351,247.812L380.369,247.811L380.388,247.809L380.406,247.808L380.425,247.807L380.46,247.804L380.495,247.802L380.529,247.801L380.561,247.8L380.607,247.799L380.653,247.803ZM380.556,248.413L380.526,248.414L380.496,248.416L380.466,248.417L380.451,248.419L380.436,248.42L380.421,248.421L380.406,248.422L380.392,248.424L380.377,248.425L380.362,248.427L380.347,248.428L380.333,248.43L380.318,248.432L380.304,248.434L380.289,248.436L380.275,248.438L380.26,248.441L380.246,248.443L380.232,248.446L380.217,248.449L380.203,248.452L380.189,248.455L380.175,248.458L380.161,248.461L380.147,248.465L380.133,248.468L380.119,248.472L380.105,248.476L380.092,248.481L380.078,248.485L380.064,248.489L380.051,248.494L380.037,248.499L380.024,248.504L380.01,248.51L379.997,248.515L379.984,248.521L379.971,248.527L379.958,248.533L379.945,248.539L379.932,248.546L379.919,248.553L379.906,248.56L379.894,248.567L379.881,248.574L379.869,248.582L379.856,248.59L379.844,248.598L379.832,248.607L379.82,248.616L379.808,248.625L379.796,248.634L379.784,248.643L379.772,248.653L379.761,248.663L379.749,248.674L379.738,248.684L379.727,248.695L379.716,248.706L379.708,248.719L379.702,248.732L379.695,248.745L379.688,248.758L379.682,248.771L379.675,248.784L379.669,248.797L379.663,248.809L379.657,248.822L379.651,248.835L379.645,248.848L379.639,248.861L379.634,248.874L379.628,248.887L379.623,248.9L379.618,248.913L379.613,248.925L379.609,248.938L379.604,248.951L379.6,248.964L379.595,248.977L379.591,248.99L379.587,249.003L379.583,249.016L379.58,249.028L379.576,249.041L379.573,249.054L379.57,249.067L379.567,249.08L379.564,249.093L379.562,249.106L379.559,249.118L379.557,249.131L379.555,249.144L379.553,249.157L379.551,249.17L379.55,249.183L379.549,249.196L379.548,249.209L379.547,249.221L379.546,249.234L379.546,249.247L379.545,249.26L379.545,249.273L379.545,249.286L379.546,249.299L379.546,249.311L379.547,249.324L379.548,249.337L379.549,249.35L379.551,249.363L379.553,249.376L379.554,249.389L379.557,249.401L379.559,249.414L379.562,249.427L379.564,249.44L379.568,249.453L379.571,249.466L379.574,249.479L379.578,249.491L379.582,249.504L379.587,249.517L379.591,249.53L379.638,249.74L379.661,249.845L379.684,249.95L379.666,249.959L379.648,249.969L379.63,249.979L379.613,249.99L379.596,250L379.588,250.005L379.58,250.01L379.572,250.015L379.564,250.021L379.556,250.026L379.548,250.031L379.54,250.037L379.533,250.042L379.525,250.047L379.518,250.053L379.51,250.058L379.503,250.064L379.496,250.069L379.489,250.075L379.482,250.081L379.475,250.086L379.468,250.092L379.461,250.097L379.455,250.103L379.448,250.109L379.442,250.115L379.435,250.121L379.429,250.126L379.423,250.132L379.417,250.138L379.411,250.144L379.405,250.15L379.399,250.156L379.393,250.162L379.388,250.168L379.382,250.174L379.377,250.18L379.372,250.186L379.366,250.193L379.361,250.199L379.356,250.205L379.351,250.211L379.346,250.218L379.341,250.224L379.337,250.23L379.332,250.237L379.328,250.243L379.323,250.249L379.319,250.256L379.314,250.262L379.31,250.269L379.306,250.276L379.302,250.282L379.298,250.289L379.295,250.295L379.291,250.302L379.287,250.309L379.284,250.316L379.28,250.322L379.545,251.099L378.644,251.177L378.503,251.286L378.27,251.799L378.255,251.97L377.82,252.653L377.602,252.933L377.431,253.213L376.887,253.244L376.717,252.886L376.515,252.7L376.359,251.954L376.157,251.861L375.986,251.162L376.344,251.037L376.313,250.804L375.94,250.804L375.847,250.416L376.126,250.385L376.095,250.121L375.8,250.136L375.753,249.872L375.396,249.903L375.474,250.152L375.194,250.229L375.256,250.525L375.536,250.478L375.66,250.96L375.365,251.037L375.427,251.317L375.691,251.286L375.847,251.939L375.707,252.094L375.893,253.042L375.753,253.197L375.769,253.461L376.017,254.207L376.188,254.223L376.281,254.549L376.468,254.502L376.608,255.202L376.359,255.326L376.452,255.59L377.214,255.419L377.167,255.108L376.919,255.171L376.748,254.425L376.866,254.488L376.887,254.487L376.908,254.485L376.929,254.484L376.95,254.483L376.971,254.481L376.992,254.48L377.013,254.478L377.034,254.476L377.054,254.474L377.075,254.472L377.096,254.469L377.117,254.467L377.138,254.464L377.159,254.462L377.18,254.459L377.201,254.456L377.222,254.453L377.243,254.45L377.264,254.447L377.285,254.443L377.306,254.44L377.327,254.436L377.348,254.433L377.369,254.429L377.39,254.425L377.411,254.421L377.432,254.417L377.453,254.412L377.474,254.408L377.495,254.403L377.515,254.399L377.536,254.394L377.557,254.389L377.578,254.384L377.599,254.379L377.62,254.373L377.641,254.368L377.662,254.362L377.683,254.357L377.704,254.351L377.725,254.345L377.746,254.339L377.767,254.333L377.788,254.326L377.809,254.32L377.83,254.314L377.851,254.307L377.872,254.3L377.893,254.293L377.914,254.286L377.935,254.279L377.956,254.272L377.977,254.265L377.998,254.257L378.019,254.249L378.039,254.242L378.06,254.234L378.081,254.226L378.102,254.218L378.123,254.21L378.144,254.201L378.165,254.193L378.186,254.184L378.207,254.176L378.22,254.158L378.233,254.139L378.246,254.121L378.259,254.103L378.271,254.085L378.284,254.067L378.297,254.048L378.309,254.03L378.321,254.012L378.334,253.994L378.346,253.975L378.358,253.957L378.37,253.938L378.382,253.92L378.394,253.902L378.405,253.883L378.417,253.864L378.429,253.846L378.44,253.827L378.451,253.809L378.463,253.79L378.474,253.771L378.485,253.753L378.496,253.734L378.507,253.715L378.518,253.696L378.529,253.678L378.539,253.659L378.55,253.64L378.56,253.621L378.571,253.602L378.581,253.583L378.591,253.564L378.602,253.545L378.612,253.526L378.622,253.507L378.631,253.488L378.641,253.468L378.651,253.449L378.66,253.43L378.67,253.411L378.679,253.392L378.689,253.372L378.698,253.353L378.707,253.334L378.716,253.314L378.725,253.295L378.734,253.275L378.743,253.256L378.751,253.236L378.76,253.217L378.768,253.197L378.777,253.177L378.785,253.158L378.793,253.138L378.801,253.118L378.809,253.098L378.817,253.079L378.825,253.059L378.832,253.039L378.84,253.019L378.847,252.999L378.855,252.979L378.862,252.959L378.893,253.365L379.159,253.427L379.112,254.269L378.8,254.394L378.782,254.418L378.765,254.443L378.747,254.467L378.73,254.491L378.712,254.515L378.695,254.539L378.677,254.563L378.659,254.586L378.641,254.61L378.623,254.633L378.605,254.657L378.587,254.68L378.569,254.703L378.551,254.726L378.533,254.749L378.514,254.772L378.496,254.795L378.478,254.817L378.459,254.84L378.441,254.862L378.422,254.885L378.403,254.907L378.385,254.929L378.366,254.951L378.347,254.973L378.328,254.995L378.309,255.017L378.29,255.039L378.271,255.06L378.252,255.082L378.233,255.103L378.214,255.125L378.195,255.146L378.175,255.168L378.156,255.189L378.137,255.21L378.117,255.231L378.098,255.252L378.078,255.273L378.059,255.294L378.039,255.314L378.019,255.335L378,255.356L377.98,255.376L377.96,255.397L377.94,255.417L377.92,255.437L377.9,255.458L377.88,255.478L377.86,255.498L377.82,255.538L377.78,255.578L377.739,255.618L377.698,255.657L377.658,255.696L377.617,255.735L377.576,255.774L377.534,255.813L377.493,255.851L377.451,255.89L377.41,255.928L377.368,255.966L377.326,256.004L377.284,256.041L377.242,256.079L377.2,256.116L377.158,256.154L377.115,256.191L377.073,256.228L377.03,256.266L376.987,256.303L376.945,256.34L376.902,256.377L376.816,256.45L376.73,256.524L376.644,256.598L376.558,256.671L376.471,256.745L376.384,256.819L376.298,256.893L376.211,256.967L376.168,257.005L376.124,257.042L376.081,257.08L376.037,257.117L375.994,257.155L375.951,257.193L375.908,257.231L375.864,257.269L375.821,257.308L375.778,257.346L375.735,257.385L375.692,257.424L375.649,257.463L375.606,257.502L375.563,257.542L375.52,257.581L375.477,257.621L375.434,257.662L375.392,257.702L375.349,257.743L375.307,257.784L375.264,257.825L375.222,257.866L375.18,257.908L375.138,257.95L375.117,257.971L375.096,257.993L375.075,258.014L375.054,258.035L375.033,258.057L375.012,258.078L374.991,258.1L374.97,258.122L374.95,258.144L374.929,258.165L374.908,258.187L374.888,258.21L374.867,258.232L374.846,258.254L374.826,258.276L374.805,258.299L374.785,258.321L374.764,258.344L374.744,258.367L374.723,258.389L374.703,258.412L374.683,258.435L374.662,258.458L374.642,258.482L374.622,258.505L374.602,258.528L374.582,258.552L374.562,258.576L374.542,258.599L374.522,258.623L374.502,258.647L374.482,258.671L374.462,258.695L374.442,258.72L374.422,258.744L374.402,258.768L374.383,258.793L374.363,258.818L374.344,258.843L374.324,258.868L374.305,258.893L374.285,258.918L374.266,258.943L374.246,258.969L374.227,258.994L374.208,259.02L374.189,259.046L374.169,259.072L374.15,259.098L374.131,259.124L374.112,259.151L374.093,259.177L374.075,259.204L374.056,259.23L374.037,259.257L374.018,259.284L374,259.311L373.981,259.339L373.962,259.366L373.944,259.394L373.926,259.421L373.907,259.449L373.889,259.477L373.871,259.505L373.852,259.534L373.834,259.562L373.816,259.591L373.798,259.619L373.78,259.648L373.762,259.677L373.745,259.706L373.727,259.736L373.709,259.765L373.692,259.795L373.674,259.825L373.657,259.855L373.639,259.885L373.622,259.915L376.398,261.381L376.334,261.709L376.461,261.849L376.18,262.348L375.899,263.003L377.633,262.987L377.649,261.992L377.68,261.998L377.71,262.004L377.741,262.01L377.772,262.016L377.834,262.028L377.897,262.039L377.959,262.05L378.021,262.061L378.084,262.071L378.147,262.082L378.21,262.092L378.274,262.102L378.337,262.111L378.401,262.12L378.464,262.129L378.528,262.138L378.592,262.147L378.657,262.155L378.721,262.163L378.786,262.171L378.851,262.179L378.916,262.186L378.981,262.193L379.046,262.2L379.111,262.207L379.177,262.213L379.243,262.219L379.309,262.225L379.375,262.231L379.441,262.236L379.507,262.242L379.574,262.247L379.641,262.252L379.707,262.256L379.774,262.261L379.842,262.265L379.909,262.269L379.976,262.273L380.044,262.277L380.112,262.28L380.18,262.283L380.248,262.286L380.316,262.289L380.384,262.292L380.453,262.294L380.521,262.296L380.59,262.298L380.659,262.3L380.728,262.302L380.797,262.303L380.866,262.305L380.936,262.306L381.005,262.307L381.075,262.307L381.145,262.308L381.215,262.308L381.285,262.308L381.355,262.308L381.426,262.308L381.496,262.308L381.567,262.308L381.638,262.307L381.709,262.306L381.78,262.305L381.851,262.304L381.922,262.303L381.944,262.303L381.954,262.303L381.965,262.303L381.975,262.302L381.986,262.302L381.997,262.302L382.007,262.301L382.017,262.3L382.028,262.299L382.038,262.298L382.049,262.297L382.059,262.296L382.069,262.295L382.079,262.293L382.09,262.292L382.1,262.29L382.11,262.288L382.12,262.287L382.13,262.285L382.14,262.283L382.15,262.281L382.16,262.279L382.17,262.276L382.18,262.274L382.19,262.272L382.2,262.269L382.21,262.266L382.22,262.264L382.23,262.261L382.24,262.258L382.25,262.255L382.26,262.252L382.269,262.249L382.289,262.243L382.309,262.236L382.328,262.229L382.348,262.222L382.367,262.215L382.387,262.208L382.406,262.2L382.426,262.192L382.445,262.184L382.465,262.175L382.484,262.167L382.504,262.158L382.524,262.15L382.543,262.141L382.563,262.132L382.603,262.114L382.643,262.095L382.683,262.077L382.724,262.058L382.745,262.049L382.766,262.04L382.787,262.03L382.808,262.021L382.829,262.012L382.85,262.003L382.872,261.994L382.894,261.985L382.916,261.976L382.938,261.968L382.96,261.959L382.983,261.951L383.006,261.943L383.029,261.935L383.052,261.927L383.076,261.92L383.099,261.912L383.111,261.909L383.123,261.905L383.136,261.902L383.148,261.898L383.16,261.895L383.172,261.891L383.185,261.888L383.197,261.885L383.21,261.882L383.223,261.879L383.235,261.876L383.248,261.873L383.261,261.87L383.274,261.868L383.321,262.116L383.445,262.35L383.289,262.707L383.305,263.049L384.237,263.064L385.03,262.955L384.765,262.07L384.564,261.65L384.688,261.526L384.666,261.471L384.645,261.415L384.624,261.36L384.602,261.305L384.58,261.25L384.559,261.195L384.537,261.14L384.515,261.085L384.493,261.03L384.471,260.975L384.449,260.92L384.427,260.866L384.404,260.811L384.382,260.756L384.359,260.702L384.337,260.647L384.314,260.593L384.291,260.539L384.268,260.484L384.245,260.43L384.222,260.376L384.198,260.322L384.175,260.268L384.151,260.214L384.128,260.16L384.104,260.106L384.08,260.053L384.056,259.999L384.031,259.946L384.007,259.892L383.982,259.839L383.958,259.786L383.933,259.732L383.908,259.679L383.882,259.626L383.857,259.573L383.832,259.521L383.806,259.468L383.78,259.415L383.754,259.363L383.728,259.311L383.702,259.258L383.675,259.206L383.648,259.154L383.621,259.102L383.594,259.05L383.567,258.999L383.54,258.947L383.512,258.896L383.484,258.844L383.456,258.793L383.428,258.742L383.399,258.691L383.371,258.64L383.342,258.589L383.313,258.539L383.283,258.488L383.254,258.438L383.224,258.387L383.194,258.337L383.164,258.287L383.133,258.238L383.103,258.188L383.072,258.138L383.05,258.088L383.028,258.037L383.006,257.987L382.984,257.936L382.963,257.885L382.941,257.834L382.92,257.784L382.899,257.733L382.879,257.682L382.858,257.631L382.837,257.581L382.817,257.53L382.797,257.479L382.777,257.428L382.757,257.377L382.738,257.326L382.718,257.275L382.699,257.224L382.68,257.173L382.661,257.122L382.643,257.071L382.624,257.02L382.606,256.969L382.588,256.917L382.57,256.866L382.552,256.815L382.535,256.764L382.517,256.712L382.5,256.661L382.483,256.61L382.467,256.558L382.45,256.507L382.434,256.456L382.418,256.404L382.402,256.353L382.387,256.301L382.371,256.249L382.356,256.198L382.341,256.146L382.327,256.095L382.312,256.043L382.298,255.991L382.284,255.939L382.27,255.888L382.257,255.836L382.243,255.784L382.23,255.732L382.217,255.68L382.205,255.628L382.192,255.576L382.18,255.524L382.169,255.472L382.157,255.42L382.146,255.368L382.135,255.316L382.124,255.263L382.113,255.211L382.103,255.159L382.093,255.107L382.083,255.054L382.073,255.002L382.064,254.949L382.055,254.897L382.047,254.844L381.829,254.549L381.906,253.57L382.171,253.337L382.419,252.56L382.699,252.793L383.274,253.197L383.429,253.477L383.662,253.555L383.693,253.788L383.756,254.145L384.004,254.938L384.175,254.938L384.16,255.202L384.02,255.264L383.911,255.139L383.818,254.86L383.087,255.186L383.165,255.466L383.305,255.481L383.165,255.637L383.756,257.144L383.849,257.144L383.958,257.455L384.035,257.439L384.222,257.719L384.377,257.641L384.346,257.299L384.47,257.237L384.673,257.548L384.812,257.486L384.735,257.082L384.673,256.849L384.719,256.725L384.595,256.351L384.735,256.212L384.765,255.948L384.983,255.761L385.154,255.435L384.952,254.735L385.107,254.534L384.874,253.399L384.75,253.306L384.47,252.824L384.129,252.591L383.771,252.109L383.119,251.706L382.746,251.239L382.497,251.146L381.876,251.131L381.88,251.117L381.885,251.103L381.89,251.089L381.894,251.075L381.899,251.061L381.904,251.048L381.909,251.034L381.914,251.021L381.919,251.008L381.925,250.994L381.93,250.981L381.935,250.968L381.94,250.955L381.946,250.942L381.951,250.93L381.957,250.917L381.963,250.904L381.968,250.892L381.974,250.88L381.98,250.867L381.986,250.855L381.992,250.843L381.997,250.831L382.004,250.819L382.01,250.807L382.016,250.795L382.022,250.784L382.028,250.772L382.035,250.761L382.041,250.749L382.047,250.738L382.054,250.727L382.061,250.716L382.067,250.705L382.074,250.694L382.081,250.683L382.088,250.672L382.094,250.661L382.101,250.651L382.108,250.64L382.116,250.63L382.123,250.62L382.13,250.609L382.137,250.599L382.144,250.589L382.152,250.579L382.159,250.569L382.167,250.56L382.174,250.55L382.182,250.54L382.19,250.531L382.197,250.521L382.205,250.512L382.213,250.503L382.221,250.494L382.229,250.485L382.237,250.476L382.245,250.467L382.253,250.458L382.262,250.449L382.27,250.441L382.278,250.432L382.287,250.424L382.295,250.416L382.284,250.405L382.274,250.394L382.263,250.383L382.252,250.372L382.241,250.362L382.23,250.351L382.219,250.34L382.208,250.33L382.196,250.319L382.185,250.309L382.174,250.299L382.163,250.288L382.151,250.278L382.14,250.268L382.128,250.258L382.116,250.248L382.105,250.238L382.093,250.228L382.081,250.218L382.069,250.208L382.057,250.198L382.045,250.188L382.033,250.178L382.021,250.169L382.009,250.159L381.997,250.149L381.984,250.14L381.972,250.13L381.96,250.121L381.947,250.112L381.935,250.102L381.922,250.093L381.897,250.074L381.871,250.056L381.845,250.038L381.819,250.02L381.793,250.002L381.766,249.985L381.739,249.967L381.712,249.95L381.685,249.933L381.657,249.916L381.63,249.899L381.602,249.883L381.573,249.866L381.545,249.85L381.516,249.834L381.487,249.818L381.49,249.807L381.493,249.796L381.498,249.774L381.503,249.753L381.508,249.73L381.513,249.708L381.517,249.685L381.522,249.662L381.526,249.639L381.529,249.616L381.533,249.592L381.536,249.568L381.539,249.544L381.542,249.519L381.545,249.495L381.547,249.47L381.549,249.445L381.44,249.39L381.43,249.327L381.425,249.296L381.423,249.28L381.42,249.265L381.417,249.249L381.414,249.234L381.411,249.218L381.408,249.203L381.405,249.187L381.401,249.172L381.398,249.157L381.394,249.141L381.39,249.126L381.386,249.111L381.382,249.096L381.377,249.081L381.373,249.066L381.368,249.051L381.362,249.036L381.359,249.029L381.357,249.022L381.354,249.014L381.351,249.007L381.348,249L381.345,248.993L381.341,248.986L381.338,248.978L381.335,248.971L381.331,248.964L381.328,248.957L381.324,248.95L381.32,248.943L381.317,248.936L381.313,248.929L381.309,248.922L381.305,248.915L381.3,248.909L381.293,248.895L381.286,248.882L381.279,248.869L381.271,248.856L381.264,248.843L381.256,248.831L381.248,248.819L381.24,248.807L381.231,248.795L381.223,248.783L381.215,248.772L381.206,248.761L381.197,248.75L381.188,248.739L381.179,248.728L381.17,248.717L381.161,248.707L381.151,248.697L381.142,248.687L381.132,248.677L381.122,248.668L381.112,248.658L381.102,248.649L381.092,248.64L381.082,248.631L381.071,248.622L381.06,248.614L381.05,248.605L381.039,248.597L381.028,248.589L381.017,248.581L381.006,248.574L380.994,248.566L380.983,248.559L380.971,248.552L380.959,248.545L380.948,248.538L380.936,248.531L380.924,248.524L380.911,248.518L380.899,248.512L380.887,248.506L380.874,248.5L380.862,248.494L380.849,248.489L380.836,248.483L380.823,248.478L380.81,248.473L380.797,248.468L380.783,248.463L380.77,248.458L380.756,248.454L380.743,248.45L380.729,248.445L380.715,248.441L380.701,248.437L380.687,248.434L380.673,248.43L380.659,248.427L380.644,248.423L380.63,248.42L380.615,248.417L380.601,248.414L380.586,248.411L380.556,248.413ZM382.735,253.575L382.711,253.625L382.683,253.672L382.651,253.717L382.615,253.758L382.576,253.796L382.497,253.865L382.457,254.37L382.539,254.481L382.571,254.529L382.599,254.58L382.621,254.633L382.638,254.688L382.65,254.744L382.652,254.756L382.691,254.72L382.737,254.684L382.786,254.653L382.838,254.627L383.213,254.46L383.171,254.328L383.161,254.289L383.152,254.25L383.108,253.998L383.083,253.982L383.038,253.948L382.996,253.91L382.958,253.868L382.924,253.822L382.894,253.774L382.807,253.617L382.737,253.568L382.735,253.575Z" style="fill-opacity:0.71;"/>
            </g>
        </g>
    </g>
    <defs>
        <radialGradient id="_Radial1" cx="0" cy="0" r="1" gradientUnits="userSpaceOnUse" gradientTransform="matrix(99.7942,0,0,99.7942,233.356,334.206)"><stop offset="0" style="stop-color:rgb(255,211,89);stop-opacity:1"/><stop offset="1" style="stop-color:rgb(190,80,5);stop-opacity:1"/></radialGradient>
    </defs>
</svg>
