<?xml version="1.0" encoding="utf-8"?>
<!DOCTYPE svg PUBLIC "-//W3C//DTD SVG 1.1//EN" "http://www.w3.org/Graphics/SVG/1.1/DTD/svg11.dtd">
<svg version="1.1" xmlns="http://www.w3.org/2000/svg" xmlns:xlink="http://www.w3.org/1999/xlink" xmlns:xml="http://www.w3.org/XML/1998/namespace" xmlns:serif="http://www.serif.com/" width="273" height="273" viewBox="0, 0, 273, 273" xml:space="preserve" fill-rule="evenodd" stroke-linecap="round" stroke-linejoin="round" style="clip-rule:evenodd;">
    
	<circle cx="136.5" cy="136.5" r="133.8" stroke-width="3.4px" style="fill:url(#Radial);stroke:black;" />
	<circle cx="136.5" cy="136.5" r="91.8" stroke-width="7.8px" stroke-linecap="round" stroke-linejoin="round" stroke-miterlimit="1.5" stroke-opacity="0.5" style="fill:none;stroke:white;" />

	<path d="M165.723 142.836 L166.136 142.567 L166.554 142.306 L166.977 142.053 L167.405 141.808 L167.837 141.571 L168.274 141.343 L168.715 141.124 L169.161 140.913 L169.61 140.711 L170.063 140.518 L170.521 140.334 L170.981 140.159 L171.445 139.993 L171.912 139.836 L172.382 139.687 L172.855 139.548 L173.33 139.418 L173.151 138.285 L172.98 137.151 L172.817 136.016 L172.663 134.879 L172.517 133.742 L172.38 132.603 L172.251 131.464 L172.131 130.323 L172.019 129.182 L171.916 128.04 L171.821 126.897 L171.735 125.753 L171.657 124.609 L171.588 123.464 L171.527 122.319 L171.475 121.173 L171.431 120.027 L170.839 120.26 L170.236 120.463 L169.624 120.634 L169.003 120.774 L168.376 120.882 L167.744 120.956 L167.11 120.996 L166.474 120.997 L165.839 120.96 L165.208 120.88 L164.584 120.754 L163.972 120.581 L163.377 120.358 L162.803 120.083 L162.254 119.762 L161.729 119.403 L161.228 119.011 L162.657 113.984 L162.943 112.978 L164.657 106.945 L164.943 105.94 L166.086 101.917 L166.91 102.546 L167.75 103.152 L168.607 103.733 L169.481 104.29 L170.37 104.821 L171.274 105.326 L172.194 105.804 L173.127 106.254 L174.072 106.677 L175.03 107.072 L175.998 107.44 L176.976 107.781 L177.963 108.094 L178.959 108.38 L179.962 108.639 L180.972 108.87 L181.988 109.073 L182.084 110.299 L182.188 111.524 L182.301 112.749 L182.421 113.973 L182.55 115.196 L182.687 116.418 L182.832 117.64 L182.985 118.86 L183.146 120.079 L183.316 121.297 L183.493 122.514 L183.679 123.73 L183.872 124.944 L184.074 126.157 L184.283 127.369 L184.501 128.58 L184.726 129.789 L182.875 131.686 L181.527 133.967 L180.656 136.474 L180.128 139.074 C180.021 139.953 179.994 140.844 180.138 141.722 C180.282 142.601 180.596 143.466 181.125 144.158 C181.654 144.85 182.398 145.37 183.055 145.977 C183.711 146.584 184.279 147.278 184.728 148.026 C185.177 148.774 185.508 149.577 185.766 150.464 C186.025 151.351 186.212 152.323 186.792 152.893 C187.372 153.464 188.345 153.633 189.251 153.568 C190.156 153.502 190.993 153.2 191.769 152.77 C192.545 152.339 193.26 151.779 193.818 151.106 C194.376 150.433 194.776 149.649 195.186 148.839 C195.597 148.029 196.017 147.194 196.754 146.746 C197.492 146.299 198.546 146.239 199.141 145.661 C199.737 145.084 199.872 143.988 199.921 143.172 L199.921 127.889 L199.454 126.763 L199.059 125.611 L198.757 124.431 L198.553 123.229 L198.43 122.017 L198.369 120.8 L198.352 119.581 L198.358 118.362 L198.372 117.144 L198.375 115.925 L198.363 114.706 L198.343 113.488 L198.318 112.269 L198.295 111.051 L198.278 109.832 L198.274 108.613 L198.286 107.395 L198.497 107.208 L198.707 107.02 L198.918 106.833 L199.128 106.646 L199.339 106.459 L199.549 106.272 L199.759 106.085 L200.18 105.711 L200.391 105.524 L200.601 105.337 L200.812 105.15 L201.022 104.963 L201.233 104.776 L201.443 104.589 L201.654 104.401 L201.864 104.214 L201.647 102.559 L201.334 100.919 L200.931 99.299 L200.447 97.701 L199.89 96.127 L199.267 94.578 L198.583 93.055 L197.821 91.569 L196.961 90.139 L195.979 88.789 L194.858 87.553 L193.586 86.474 L192.177 85.579 L190.671 84.861 L189.097 84.305 L187.478 83.898 L185.83 83.631 L185.763 83.821 L185.695 84.011 L185.628 84.2 L185.56 84.39 L185.493 84.58 L185.425 84.769 L185.358 84.959 L185.29 85.149 L185.222 85.338 L185.087 85.718 L185.02 85.907 L184.952 86.097 L184.885 86.287 L184.817 86.476 L184.75 86.666 L184.682 86.856 L183.999 86.715 L183.321 86.55 L182.649 86.362 L181.985 86.15 L181.328 85.914 L180.681 85.654 L180.044 85.37 L179.418 85.062 L178.805 84.73 L178.205 84.373 L177.62 83.994 L177.049 83.592 L176.494 83.17 L175.954 82.728 L175.431 82.266 L174.924 81.787 L174.435 81.29 L174.622 81.025 L174.809 80.76 L174.996 80.495 L175.183 80.23 L175.557 79.7 L175.744 79.435 L175.931 79.17 L176.305 78.64 L176.492 78.375 L176.679 78.11 L176.866 77.845 L177.054 77.58 L177.241 77.315 L177.615 76.785 L176.705 75.387 L175.67 74.079 L174.499 72.892 L173.182 71.871 L171.724 71.064 L170.169 70.461 L168.559 70.026 L166.92 69.718 L165.266 69.495 L163.607 69.322 L161.946 69.166 L160.284 69.021 L158.62 68.9 L156.954 68.814 L155.286 68.774 L153.618 68.792 L151.952 68.879 L151.952 66.272 L154.088 63.169 L155.776 59.801 C156.252 58.637 156.633 57.434 156.882 56.202 C157.131 54.971 157.247 53.712 157.241 52.455 L156.867 48.709 C156.629 47.475 156.282 46.262 155.809 45.096 C155.335 43.931 154.736 42.813 153.984 41.808 C153.231 40.803 152.327 39.911 151.318 39.162 C150.309 38.412 149.197 37.804 148.03 37.336 C146.863 36.868 145.642 36.541 144.401 36.344 L140.643 36.079 L136.876 36.207 L133.109 36.374 L129.339 36.373 L125.57 36.46 L121.842 36.998 L118.25 38.136 L118.574 38.528 L118.909 38.909 L119.256 39.281 L119.614 39.641 L119.983 39.991 L120.362 40.328 L120.752 40.654 L121.153 40.966 L121.563 41.265 L121.983 41.551 L122.412 41.823 L122.849 42.082 L123.294 42.328 L123.746 42.559 L124.205 42.777 L124.67 42.981 L125.141 43.172 L124.842 43.237 L124.543 43.302 L123.946 43.432 L123.647 43.496 L123.348 43.561 L123.049 43.626 L122.751 43.691 L122.452 43.756 L122.153 43.821 L121.854 43.886 L121.257 44.016 L120.958 44.081 L120.659 44.146 L120.36 44.211 L120.062 44.276 L120.084 44.808 L120.142 45.337 L120.242 45.859 L120.389 46.371 L120.591 46.863 L120.852 47.326 L121.168 47.754 L121.53 48.145 L121.928 48.498 L122.355 48.815 L122.806 49.097 L123.276 49.347 L123.761 49.567 L124.258 49.756 L124.766 49.917 L125.281 50.049 L125.804 50.151 L125.848 51.33 L125.892 52.51 L125.936 53.689 L125.98 54.869 L126.069 57.228 L126.113 58.408 L126.245 61.946 L126.289 63.126 L126.378 65.485 L126.422 66.665 L126.51 69.024 L126.554 70.204 L126.948 70.189 L128.127 70.145 L128.52 70.13 L128.913 70.115 L130.093 70.071 L130.486 70.056 L130.879 70.042 L132.059 69.998 L132.452 69.983 L133.238 69.953 L133.243 70.085 L133.248 70.217 L133.258 70.481 L133.263 70.613 L133.268 70.745 L133.273 70.877 L133.277 71.009 L133.282 71.141 L133.287 71.273 L133.292 71.405 L133.302 71.669 L133.307 71.801 L133.312 71.933 L133.317 72.065 L133.322 72.198 L131.31 72.033 L129.293 71.952 L127.274 71.937 L125.256 71.97 L123.238 72.031 L121.22 72.102 L119.202 72.165 L117.184 72.204 L115.167 72.284 L113.183 72.638 L111.355 73.478 L109.859 74.82 C109.441 75.351 109.119 75.965 108.981 76.618 C108.843 77.271 108.889 77.962 109.048 78.619 L109.833 80.471 L111.123 82.014 L112.794 83.137 L110.856 85.283 L109.034 87.528 L107.38 89.899 L105.962 92.418 L104.816 95.072 L103.84 97.794 L102.89 100.525 L101.822 103.212 L100.5 105.782 L98.895 108.186 L97.076 110.433 L95.102 112.546 L93.023 114.555 L90.878 116.494 L88.688 118.383 L86.438 120.2 L84.111 121.916 L83.999 121.847 L83.775 121.708 L83.663 121.639 L83.551 121.57 L83.44 121.501 L83.328 121.432 L83.216 121.363 L83.104 121.294 L82.992 121.225 L82.88 121.156 L82.768 121.087 L82.657 121.018 L82.545 120.949 L82.433 120.88 L82.321 120.811 L82.209 120.742 L83.912 119.404 L84.479 118.958 L89.019 115.39 L89.587 114.944 L91.857 113.16 L91.092 113.239 L90.327 113.317 L88.797 113.475 L88.032 113.553 L86.502 113.711 L85.737 113.79 L84.207 113.947 L83.442 114.026 L82.677 114.104 L81.912 114.183 L79.617 114.419 L78.853 114.498 L76.778 110.465 L75.226 106.204 L74.171 101.793 L73.501 97.306 L73.104 92.786 L72.892 88.254 L72.839 83.717 L72.928 79.181 L73.14 74.648 L73.458 70.122 L73.862 65.602 L74.337 61.09 L74.882 56.585 L75.504 52.09 L76.209 47.608 L77.004 43.141 L77.894 38.691 L74.669 42.575 L71.719 46.672 L69.071 50.969 L66.746 55.45 L64.747 60.085 L63.075 64.848 L61.729 69.714 L60.711 74.658 L60.021 79.659 L59.655 84.694 L59.604 89.742 L59.861 94.784 L60.418 99.801 L61.268 104.778 L62.405 109.697 L63.822 114.542 L65.515 119.298 L64.649 119.505 L63.792 119.744 L62.945 120.017 L62.109 120.323 L61.286 120.662 L60.478 121.035 L59.686 121.442 L58.914 121.884 L58.161 122.359 L57.43 122.866 L56.72 123.404 L56.034 123.97 L55.371 124.564 L54.731 125.183 L54.117 125.827 L53.527 126.493 L52.963 127.182 L53.808 127.38 L54.659 127.551 L55.515 127.694 L56.375 127.809 L57.239 127.895 L58.105 127.951 L58.973 127.977 L59.841 127.972 L60.708 127.938 L61.574 127.875 L62.437 127.784 L63.297 127.665 L64.153 127.518 L65.003 127.345 L65.848 127.144 L66.686 126.918 L67.516 126.665 C67.271 127.754 67.112 128.847 67.115 129.969 C67.119 131.091 67.284 132.243 67.83 133.193 C68.376 134.142 69.303 134.89 69.827 135.858 C70.351 136.826 70.473 138.014 70.845 138.997 C71.217 139.981 71.839 140.76 72.857 141.323 C73.874 141.887 75.289 142.234 75.357 142.85 C75.424 143.466 74.146 144.351 73.293 145.383 C72.44 146.414 72.013 147.592 72.459 148.359 C72.905 149.125 74.224 149.482 75.39 149.792 L78.61 150.655 C79.652 150.947 80.724 151.267 81.857 151.394 C82.989 151.521 84.182 151.455 85.118 150.94 C86.054 150.424 86.733 149.459 87.371 148.532 L89.285 145.803 C89.965 144.889 90.729 143.948 90.816 142.886 C90.903 141.824 90.312 140.643 89.261 140.208 C88.21 139.774 86.698 140.087 86.916 138.485 L89.188 137.477 L91.39 136.324 L93.491 134.996 L95.475 133.499 L97.361 131.88 L99.181 130.186 L100.971 128.461 L102.765 126.739 L104.57 125.03 L106.376 123.321 L108.173 121.604 L109.951 119.866 L111.699 118.097 L113.404 116.288 L115.055 114.43 L116.647 112.52 L118.193 110.573 L118.362 111.34 L118.541 112.104 L118.729 112.866 L118.928 113.626 L119.135 114.383 L119.353 115.137 L119.58 115.888 L119.817 116.637 L120.064 117.382 L120.32 118.124 L120.585 118.862 L120.861 119.598 L121.145 120.329 L121.439 121.057 L121.742 121.781 L122.055 122.501 L122.376 123.217 L121.442 124.282 L120.522 125.359 L119.618 126.449 L118.73 127.553 L117.857 128.668 L117.001 129.796 L116.16 130.936 L115.337 132.088 L114.53 133.252 L113.739 134.428 L112.966 135.614 L112.21 136.812 L111.471 138.02 L110.749 139.239 L110.045 140.468 L109.358 141.707 L108.689 142.955 L108.311 142.97 L106.799 143.032 L106.42 143.047 L105.286 143.093 L104.908 143.109 L103.774 143.155 L103.395 143.17 L103.017 143.185 L102.261 143.216 L101.633 144.699 L101.048 146.199 L100.507 147.715 L100.012 149.247 L99.562 150.793 L99.159 152.352 L98.804 153.922 L98.498 155.503 L98.241 157.092 L98.035 158.689 L97.877 160.291 L97.768 161.898 L97.707 163.506 L97.693 165.116 L97.726 166.726 L97.806 168.334 L97.932 169.939 L98.53 170.048 L98.829 170.103 L99.128 170.157 L99.426 170.212 L100.024 170.321 L100.323 170.376 L100.622 170.43 L100.92 170.485 L101.518 170.594 L101.817 170.648 L102.116 170.703 L102.414 170.758 L102.713 170.812 L103.012 170.867 L103.454 172.368 L103.9 173.869 L104.35 175.368 L104.805 176.866 L105.263 178.363 L105.726 179.859 L106.193 181.353 L106.665 182.846 L107.14 184.337 L107.62 185.827 L108.104 187.316 L108.592 188.804 L109.084 190.29 L109.581 191.775 L110.081 193.258 L110.586 194.74 L111.095 196.22 L110.086 197.153 L109.085 198.095 L108.093 199.046 L107.108 200.005 L106.132 200.972 L105.165 201.948 L104.206 202.933 L103.256 203.926 L102.315 204.927 L101.382 205.937 L100.458 206.954 L99.543 207.98 L98.638 209.013 L97.741 210.055 L96.853 211.104 L95.975 212.161 L95.106 213.225 L97.255 213.931 L99.456 214.451 L101.698 214.743 L103.959 214.768 L106.21 214.553 L108.439 214.165 L110.646 213.668 L112.841 213.121 L115.036 212.574 L117.239 212.057 L119.453 211.591 L121.681 211.199 L123.923 210.9 L126.176 210.694 L128.435 210.575 L130.697 210.537 L132.959 210.575 L133.213 210.051 L133.433 209.511 L133.618 208.959 L133.765 208.395 L133.87 207.822 L133.932 207.243 L133.948 206.66 L133.919 206.078 L133.848 205.5 L133.738 204.928 L133.592 204.364 L133.41 203.81 L133.196 203.269 L132.95 202.74 L132.673 202.227 L132.367 201.732 L132.032 201.255 L131.695 199.279 L131.38 197.3 L131.089 195.317 L130.821 193.33 L130.576 191.341 L130.353 189.349 L130.154 187.354 L129.978 185.357 L129.825 183.359 L129.695 181.358 L129.588 179.357 L129.503 177.354 L129.442 175.35 L129.404 173.346 L129.388 171.342 L129.395 169.337 L129.426 167.333 L128.033 167.304 L127.754 167.298 L126.082 167.264 L125.804 167.258 L124.689 167.235 L123.634 165.994 C123.373 165.516 123.241 164.962 123.285 164.426 C123.33 163.891 123.552 163.373 123.809 162.886 L124.653 161.485 L125.549 160.116 L126.454 158.753 L127.366 157.395 L128.288 156.043 L129.218 154.697 L130.156 153.356 L131.102 152.021 L132.054 150.691 L133.013 149.365 L133.979 148.045 L134.953 146.73 L135.933 145.42 L136.922 144.116 L137.392 146.013 L137.888 147.903 L138.41 149.786 L138.959 151.662 L139.532 153.53 L140.131 155.39 L140.756 157.241 L141.405 159.085 L142.079 160.919 L142.777 162.744 L143.499 164.56 L144.245 166.366 L145.015 168.162 L145.809 169.947 L146.626 171.722 L147.467 173.487 L148.33 175.239 L147.917 175.723 L147.779 175.884 L147.642 176.045 L147.504 176.206 L146.265 177.656 L146.127 177.817 L145.989 177.978 L145.971 179.222 L146.051 180.464 L146.253 181.692 L146.603 182.886 L147.085 184.033 L147.652 185.141 L148.261 186.227 L148.873 187.311 L149.45 188.414 L149.98 189.54 L150.467 190.685 L150.918 191.846 L151.338 193.018 L151.733 194.198 L152.11 195.384 L152.475 196.574 L152.836 197.766 L153.233 197.622 L153.634 197.485 L154.037 197.355 L154.442 197.233 L154.849 197.119 L155.259 197.012 L155.67 196.913 L156.083 196.822 L156.498 196.739 L156.915 196.663 L157.332 196.596 L157.751 196.536 L158.171 196.484 L158.592 196.439 L159.014 196.403 L159.436 196.374 L159.859 196.353 L160.232 197.766 L160.615 199.176 L161.006 200.585 L161.406 201.991 L161.814 203.394 L162.23 204.795 L162.655 206.194 L163.089 207.59 L163.53 208.983 L163.981 210.374 L164.44 211.761 L164.907 213.146 L165.382 214.529 L165.866 215.908 L166.358 217.284 L166.859 218.657 L167.367 220.028 L166.358 220.99 L165.349 221.953 L164.342 222.918 L163.336 223.883 L162.331 224.85 L161.327 225.818 L160.324 226.788 L159.323 227.758 L158.323 228.73 L157.323 229.703 L156.325 230.677 L155.329 231.652 L154.333 232.629 L153.338 233.607 L152.345 234.586 L151.353 235.566 L150.362 236.547 L152.687 237.162 L155.049 237.613 L157.443 237.827 L159.846 237.76 L162.239 237.521 L164.63 237.259 L167.031 237.12 L169.435 237.161 L171.84 237.142 L174.21 236.757 L176.481 235.971 L178.672 234.98 L180.843 233.945 L183.025 232.932 L185.205 231.916 L187.368 230.864 L189.497 229.745 L189.308 227.457 L189.116 225.168 L188.921 222.88 L188.723 220.593 L188.522 218.305 L188.318 216.018 L188.11 213.731 L187.899 211.445 L187.686 209.158 L187.469 206.872 L187.249 204.587 L187.026 202.301 L186.8 200.016 L186.571 197.731 L186.338 195.447 L186.102 193.163 L185.863 190.879 L185.435 190.837 L185.007 190.796 L184.579 190.754 L184.151 190.712 L183.723 190.67 L183.295 190.628 L182.867 190.587 L182.439 190.545 L182.011 190.503 L181.583 190.461 L181.155 190.42 L180.727 190.378 L180.299 190.336 L179.871 190.294 L179.443 190.252 L179.015 190.211 L178.587 190.169 L177.968 187.349 L177.332 184.534 L176.678 181.722 L176.007 178.915 L175.317 176.112 L174.61 173.314 L173.883 170.52 L173.138 167.731 L172.375 164.948 L171.596 162.168 L170.8 159.394 L169.989 156.623 L169.164 153.857 L168.325 151.096 L167.472 148.338 L166.605 145.585 L165.723 142.836 z" fill-rule="nonzero" stroke-width="15px" style="fill:transparent;stroke:rgba(0,0,0,0.71);" />
	<path d="M165.723 142.836 L166.136 142.567 L166.554 142.306 L166.977 142.053 L167.405 141.808 L167.837 141.571 L168.274 141.343 L168.715 141.124 L169.161 140.913 L169.61 140.711 L170.063 140.518 L170.521 140.334 L170.981 140.159 L171.445 139.993 L171.912 139.836 L172.382 139.687 L172.855 139.548 L173.33 139.418 L173.151 138.285 L172.98 137.151 L172.817 136.016 L172.663 134.879 L172.517 133.742 L172.38 132.603 L172.251 131.464 L172.131 130.323 L172.019 129.182 L171.916 128.04 L171.821 126.897 L171.735 125.753 L171.657 124.609 L171.588 123.464 L171.527 122.319 L171.475 121.173 L171.431 120.027 L170.839 120.26 L170.236 120.463 L169.624 120.634 L169.003 120.774 L168.376 120.882 L167.744 120.956 L167.11 120.996 L166.474 120.997 L165.839 120.96 L165.208 120.88 L164.584 120.754 L163.972 120.581 L163.377 120.358 L162.803 120.083 L162.254 119.762 L161.729 119.403 L161.228 119.011 L162.657 113.984 L162.943 112.978 L164.657 106.945 L164.943 105.94 L166.086 101.917 L166.91 102.546 L167.75 103.152 L168.607 103.733 L169.481 104.29 L170.37 104.821 L171.274 105.326 L172.194 105.804 L173.127 106.254 L174.072 106.677 L175.03 107.072 L175.998 107.44 L176.976 107.781 L177.963 108.094 L178.959 108.38 L179.962 108.639 L180.972 108.87 L181.988 109.073 L182.084 110.299 L182.188 111.524 L182.301 112.749 L182.421 113.973 L182.55 115.196 L182.687 116.418 L182.832 117.64 L182.985 118.86 L183.146 120.079 L183.316 121.297 L183.493 122.514 L183.679 123.73 L183.872 124.944 L184.074 126.157 L184.283 127.369 L184.501 128.58 L184.726 129.789 L182.875 131.686 L181.527 133.967 L180.656 136.474 L180.128 139.074 C180.021 139.953 179.994 140.844 180.138 141.722 C180.282 142.601 180.596 143.466 181.125 144.158 C181.654 144.85 182.398 145.37 183.055 145.977 C183.711 146.584 184.279 147.278 184.728 148.026 C185.177 148.774 185.508 149.577 185.766 150.464 C186.025 151.351 186.212 152.323 186.792 152.893 C187.372 153.464 188.345 153.633 189.251 153.568 C190.156 153.502 190.993 153.2 191.769 152.77 C192.545 152.339 193.26 151.779 193.818 151.106 C194.376 150.433 194.776 149.649 195.186 148.839 C195.597 148.029 196.017 147.194 196.754 146.746 C197.492 146.299 198.546 146.239 199.141 145.661 C199.737 145.084 199.872 143.988 199.921 143.172 L199.921 127.889 L199.454 126.763 L199.059 125.611 L198.757 124.431 L198.553 123.229 L198.43 122.017 L198.369 120.8 L198.352 119.581 L198.358 118.362 L198.372 117.144 L198.375 115.925 L198.363 114.706 L198.343 113.488 L198.318 112.269 L198.295 111.051 L198.278 109.832 L198.274 108.613 L198.286 107.395 L198.497 107.208 L198.707 107.02 L198.918 106.833 L199.128 106.646 L199.339 106.459 L199.549 106.272 L199.759 106.085 L200.18 105.711 L200.391 105.524 L200.601 105.337 L200.812 105.15 L201.022 104.963 L201.233 104.776 L201.443 104.589 L201.654 104.401 L201.864 104.214 L201.647 102.559 L201.334 100.919 L200.931 99.299 L200.447 97.701 L199.89 96.127 L199.267 94.578 L198.583 93.055 L197.821 91.569 L196.961 90.139 L195.979 88.789 L194.858 87.553 L193.586 86.474 L192.177 85.579 L190.671 84.861 L189.097 84.305 L187.478 83.898 L185.83 83.631 L185.763 83.821 L185.695 84.011 L185.628 84.2 L185.56 84.39 L185.493 84.58 L185.425 84.769 L185.358 84.959 L185.29 85.149 L185.222 85.338 L185.087 85.718 L185.02 85.907 L184.952 86.097 L184.885 86.287 L184.817 86.476 L184.75 86.666 L184.682 86.856 L183.999 86.715 L183.321 86.55 L182.649 86.362 L181.985 86.15 L181.328 85.914 L180.681 85.654 L180.044 85.37 L179.418 85.062 L178.805 84.73 L178.205 84.373 L177.62 83.994 L177.049 83.592 L176.494 83.17 L175.954 82.728 L175.431 82.266 L174.924 81.787 L174.435 81.29 L174.622 81.025 L174.809 80.76 L174.996 80.495 L175.183 80.23 L175.557 79.7 L175.744 79.435 L175.931 79.17 L176.305 78.64 L176.492 78.375 L176.679 78.11 L176.866 77.845 L177.054 77.58 L177.241 77.315 L177.615 76.785 L176.705 75.387 L175.67 74.079 L174.499 72.892 L173.182 71.871 L171.724 71.064 L170.169 70.461 L168.559 70.026 L166.92 69.718 L165.266 69.495 L163.607 69.322 L161.946 69.166 L160.284 69.021 L158.62 68.9 L156.954 68.814 L155.286 68.774 L153.618 68.792 L151.952 68.879 L151.952 66.272 L154.088 63.169 L155.776 59.801 C156.252 58.637 156.633 57.434 156.882 56.202 C157.131 54.971 157.247 53.712 157.241 52.455 L156.867 48.709 C156.629 47.475 156.282 46.262 155.809 45.096 C155.335 43.931 154.736 42.813 153.984 41.808 C153.231 40.803 152.327 39.911 151.318 39.162 C150.309 38.412 149.197 37.804 148.03 37.336 C146.863 36.868 145.642 36.541 144.401 36.344 L140.643 36.079 L136.876 36.207 L133.109 36.374 L129.339 36.373 L125.57 36.46 L121.842 36.998 L118.25 38.136 L118.574 38.528 L118.909 38.909 L119.256 39.281 L119.614 39.641 L119.983 39.991 L120.362 40.328 L120.752 40.654 L121.153 40.966 L121.563 41.265 L121.983 41.551 L122.412 41.823 L122.849 42.082 L123.294 42.328 L123.746 42.559 L124.205 42.777 L124.67 42.981 L125.141 43.172 L124.842 43.237 L124.543 43.302 L123.946 43.432 L123.647 43.496 L123.348 43.561 L123.049 43.626 L122.751 43.691 L122.452 43.756 L122.153 43.821 L121.854 43.886 L121.257 44.016 L120.958 44.081 L120.659 44.146 L120.36 44.211 L120.062 44.276 L120.084 44.808 L120.142 45.337 L120.242 45.859 L120.389 46.371 L120.591 46.863 L120.852 47.326 L121.168 47.754 L121.53 48.145 L121.928 48.498 L122.355 48.815 L122.806 49.097 L123.276 49.347 L123.761 49.567 L124.258 49.756 L124.766 49.917 L125.281 50.049 L125.804 50.151 L125.848 51.33 L125.892 52.51 L125.936 53.689 L125.98 54.869 L126.069 57.228 L126.113 58.408 L126.245 61.946 L126.289 63.126 L126.378 65.485 L126.422 66.665 L126.51 69.024 L126.554 70.204 L126.948 70.189 L128.127 70.145 L128.52 70.13 L128.913 70.115 L130.093 70.071 L130.486 70.056 L130.879 70.042 L132.059 69.998 L132.452 69.983 L133.238 69.953 L133.243 70.085 L133.248 70.217 L133.258 70.481 L133.263 70.613 L133.268 70.745 L133.273 70.877 L133.277 71.009 L133.282 71.141 L133.287 71.273 L133.292 71.405 L133.302 71.669 L133.307 71.801 L133.312 71.933 L133.317 72.065 L133.322 72.198 L131.31 72.033 L129.293 71.952 L127.274 71.937 L125.256 71.97 L123.238 72.031 L121.22 72.102 L119.202 72.165 L117.184 72.204 L115.167 72.284 L113.183 72.638 L111.355 73.478 L109.859 74.82 C109.441 75.351 109.119 75.965 108.981 76.618 C108.843 77.271 108.889 77.962 109.048 78.619 L109.833 80.471 L111.123 82.014 L112.794 83.137 L110.856 85.283 L109.034 87.528 L107.38 89.899 L105.962 92.418 L104.816 95.072 L103.84 97.794 L102.89 100.525 L101.822 103.212 L100.5 105.782 L98.895 108.186 L97.076 110.433 L95.102 112.546 L93.023 114.555 L90.878 116.494 L88.688 118.383 L86.438 120.2 L84.111 121.916 L83.999 121.847 L83.775 121.708 L83.663 121.639 L83.551 121.57 L83.44 121.501 L83.328 121.432 L83.216 121.363 L83.104 121.294 L82.992 121.225 L82.88 121.156 L82.768 121.087 L82.657 121.018 L82.545 120.949 L82.433 120.88 L82.321 120.811 L82.209 120.742 L83.912 119.404 L84.479 118.958 L89.019 115.39 L89.587 114.944 L91.857 113.16 L91.092 113.239 L90.327 113.317 L88.797 113.475 L88.032 113.553 L86.502 113.711 L85.737 113.79 L84.207 113.947 L83.442 114.026 L82.677 114.104 L81.912 114.183 L79.617 114.419 L78.853 114.498 L76.778 110.465 L75.226 106.204 L74.171 101.793 L73.501 97.306 L73.104 92.786 L72.892 88.254 L72.839 83.717 L72.928 79.181 L73.14 74.648 L73.458 70.122 L73.862 65.602 L74.337 61.09 L74.882 56.585 L75.504 52.09 L76.209 47.608 L77.004 43.141 L77.894 38.691 L74.669 42.575 L71.719 46.672 L69.071 50.969 L66.746 55.45 L64.747 60.085 L63.075 64.848 L61.729 69.714 L60.711 74.658 L60.021 79.659 L59.655 84.694 L59.604 89.742 L59.861 94.784 L60.418 99.801 L61.268 104.778 L62.405 109.697 L63.822 114.542 L65.515 119.298 L64.649 119.505 L63.792 119.744 L62.945 120.017 L62.109 120.323 L61.286 120.662 L60.478 121.035 L59.686 121.442 L58.914 121.884 L58.161 122.359 L57.43 122.866 L56.72 123.404 L56.034 123.97 L55.371 124.564 L54.731 125.183 L54.117 125.827 L53.527 126.493 L52.963 127.182 L53.808 127.38 L54.659 127.551 L55.515 127.694 L56.375 127.809 L57.239 127.895 L58.105 127.951 L58.973 127.977 L59.841 127.972 L60.708 127.938 L61.574 127.875 L62.437 127.784 L63.297 127.665 L64.153 127.518 L65.003 127.345 L65.848 127.144 L66.686 126.918 L67.516 126.665 C67.271 127.754 67.112 128.847 67.115 129.969 C67.119 131.091 67.284 132.243 67.83 133.193 C68.376 134.142 69.303 134.89 69.827 135.858 C70.351 136.826 70.473 138.014 70.845 138.997 C71.217 139.981 71.839 140.76 72.857 141.323 C73.874 141.887 75.289 142.234 75.357 142.85 C75.424 143.466 74.146 144.351 73.293 145.383 C72.44 146.414 72.013 147.592 72.459 148.359 C72.905 149.125 74.224 149.482 75.39 149.792 L78.61 150.655 C79.652 150.947 80.724 151.267 81.857 151.394 C82.989 151.521 84.182 151.455 85.118 150.94 C86.054 150.424 86.733 149.459 87.371 148.532 L89.285 145.803 C89.965 144.889 90.729 143.948 90.816 142.886 C90.903 141.824 90.312 140.643 89.261 140.208 C88.21 139.774 86.698 140.087 86.916 138.485 L89.188 137.477 L91.39 136.324 L93.491 134.996 L95.475 133.499 L97.361 131.88 L99.181 130.186 L100.971 128.461 L102.765 126.739 L104.57 125.03 L106.376 123.321 L108.173 121.604 L109.951 119.866 L111.699 118.097 L113.404 116.288 L115.055 114.43 L116.647 112.52 L118.193 110.573 L118.362 111.34 L118.541 112.104 L118.729 112.866 L118.928 113.626 L119.135 114.383 L119.353 115.137 L119.58 115.888 L119.817 116.637 L120.064 117.382 L120.32 118.124 L120.585 118.862 L120.861 119.598 L121.145 120.329 L121.439 121.057 L121.742 121.781 L122.055 122.501 L122.376 123.217 L121.442 124.282 L120.522 125.359 L119.618 126.449 L118.73 127.553 L117.857 128.668 L117.001 129.796 L116.16 130.936 L115.337 132.088 L114.53 133.252 L113.739 134.428 L112.966 135.614 L112.21 136.812 L111.471 138.02 L110.749 139.239 L110.045 140.468 L109.358 141.707 L108.689 142.955 L108.311 142.97 L106.799 143.032 L106.42 143.047 L105.286 143.093 L104.908 143.109 L103.774 143.155 L103.395 143.17 L103.017 143.185 L102.261 143.216 L101.633 144.699 L101.048 146.199 L100.507 147.715 L100.012 149.247 L99.562 150.793 L99.159 152.352 L98.804 153.922 L98.498 155.503 L98.241 157.092 L98.035 158.689 L97.877 160.291 L97.768 161.898 L97.707 163.506 L97.693 165.116 L97.726 166.726 L97.806 168.334 L97.932 169.939 L98.53 170.048 L98.829 170.103 L99.128 170.157 L99.426 170.212 L100.024 170.321 L100.323 170.376 L100.622 170.43 L100.92 170.485 L101.518 170.594 L101.817 170.648 L102.116 170.703 L102.414 170.758 L102.713 170.812 L103.012 170.867 L103.454 172.368 L103.9 173.869 L104.35 175.368 L104.805 176.866 L105.263 178.363 L105.726 179.859 L106.193 181.353 L106.665 182.846 L107.14 184.337 L107.62 185.827 L108.104 187.316 L108.592 188.804 L109.084 190.29 L109.581 191.775 L110.081 193.258 L110.586 194.74 L111.095 196.22 L110.086 197.153 L109.085 198.095 L108.093 199.046 L107.108 200.005 L106.132 200.972 L105.165 201.948 L104.206 202.933 L103.256 203.926 L102.315 204.927 L101.382 205.937 L100.458 206.954 L99.543 207.98 L98.638 209.013 L97.741 210.055 L96.853 211.104 L95.975 212.161 L95.106 213.225 L97.255 213.931 L99.456 214.451 L101.698 214.743 L103.959 214.768 L106.21 214.553 L108.439 214.165 L110.646 213.668 L112.841 213.121 L115.036 212.574 L117.239 212.057 L119.453 211.591 L121.681 211.199 L123.923 210.9 L126.176 210.694 L128.435 210.575 L130.697 210.537 L132.959 210.575 L133.213 210.051 L133.433 209.511 L133.618 208.959 L133.765 208.395 L133.87 207.822 L133.932 207.243 L133.948 206.66 L133.919 206.078 L133.848 205.5 L133.738 204.928 L133.592 204.364 L133.41 203.81 L133.196 203.269 L132.95 202.74 L132.673 202.227 L132.367 201.732 L132.032 201.255 L131.695 199.279 L131.38 197.3 L131.089 195.317 L130.821 193.33 L130.576 191.341 L130.353 189.349 L130.154 187.354 L129.978 185.357 L129.825 183.359 L129.695 181.358 L129.588 179.357 L129.503 177.354 L129.442 175.35 L129.404 173.346 L129.388 171.342 L129.395 169.337 L129.426 167.333 L128.033 167.304 L127.754 167.298 L126.082 167.264 L125.804 167.258 L124.689 167.235 L123.634 165.994 C123.373 165.516 123.241 164.962 123.285 164.426 C123.33 163.891 123.552 163.373 123.809 162.886 L124.653 161.485 L125.549 160.116 L126.454 158.753 L127.366 157.395 L128.288 156.043 L129.218 154.697 L130.156 153.356 L131.102 152.021 L132.054 150.691 L133.013 149.365 L133.979 148.045 L134.953 146.73 L135.933 145.42 L136.922 144.116 L137.392 146.013 L137.888 147.903 L138.41 149.786 L138.959 151.662 L139.532 153.53 L140.131 155.39 L140.756 157.241 L141.405 159.085 L142.079 160.919 L142.777 162.744 L143.499 164.56 L144.245 166.366 L145.015 168.162 L145.809 169.947 L146.626 171.722 L147.467 173.487 L148.33 175.239 L147.917 175.723 L147.779 175.884 L147.642 176.045 L147.504 176.206 L146.265 177.656 L146.127 177.817 L145.989 177.978 L145.971 179.222 L146.051 180.464 L146.253 181.692 L146.603 182.886 L147.085 184.033 L147.652 185.141 L148.261 186.227 L148.873 187.311 L149.45 188.414 L149.98 189.54 L150.467 190.685 L150.918 191.846 L151.338 193.018 L151.733 194.198 L152.11 195.384 L152.475 196.574 L152.836 197.766 L153.233 197.622 L153.634 197.485 L154.037 197.355 L154.442 197.233 L154.849 197.119 L155.259 197.012 L155.67 196.913 L156.083 196.822 L156.498 196.739 L156.915 196.663 L157.332 196.596 L157.751 196.536 L158.171 196.484 L158.592 196.439 L159.014 196.403 L159.436 196.374 L159.859 196.353 L160.232 197.766 L160.615 199.176 L161.006 200.585 L161.406 201.991 L161.814 203.394 L162.23 204.795 L162.655 206.194 L163.089 207.59 L163.53 208.983 L163.981 210.374 L164.44 211.761 L164.907 213.146 L165.382 214.529 L165.866 215.908 L166.358 217.284 L166.859 218.657 L167.367 220.028 L166.358 220.99 L165.349 221.953 L164.342 222.918 L163.336 223.883 L162.331 224.85 L161.327 225.818 L160.324 226.788 L159.323 227.758 L158.323 228.73 L157.323 229.703 L156.325 230.677 L155.329 231.652 L154.333 232.629 L153.338 233.607 L152.345 234.586 L151.353 235.566 L150.362 236.547 L152.687 237.162 L155.049 237.613 L157.443 237.827 L159.846 237.76 L162.239 237.521 L164.63 237.259 L167.031 237.12 L169.435 237.161 L171.84 237.142 L174.21 236.757 L176.481 235.971 L178.672 234.98 L180.843 233.945 L183.025 232.932 L185.205 231.916 L187.368 230.864 L189.497 229.745 L189.308 227.457 L189.116 225.168 L188.921 222.88 L188.723 220.593 L188.522 218.305 L188.318 216.018 L188.11 213.731 L187.899 211.445 L187.686 209.158 L187.469 206.872 L187.249 204.587 L187.026 202.301 L186.8 200.016 L186.571 197.731 L186.338 195.447 L186.102 193.163 L185.863 190.879 L185.435 190.837 L185.007 190.796 L184.579 190.754 L184.151 190.712 L183.723 190.67 L183.295 190.628 L182.867 190.587 L182.439 190.545 L182.011 190.503 L181.583 190.461 L181.155 190.42 L180.727 190.378 L180.299 190.336 L179.871 190.294 L179.443 190.252 L179.015 190.211 L178.587 190.169 L177.968 187.349 L177.332 184.534 L176.678 181.722 L176.007 178.915 L175.317 176.112 L174.61 173.314 L173.883 170.52 L173.138 167.731 L172.375 164.948 L171.596 162.168 L170.8 159.394 L169.989 156.623 L169.164 153.857 L168.325 151.096 L167.472 148.338 L166.605 145.585 L165.723 142.836 z" fill-rule="nonzero" stroke-width="0px" style="fill:#FFFFC9;" />
	
	<defs>
        <radialGradient cx="136.5" cy="136.5" r="136.5" gradientUnits="userSpaceOnUse" id="Radial">
			<stop offset="0%" stop-color="#E5E5E5" stop-opacity="1" />
			<stop offset="100%" stop-color="rgb(171,167,157)" stop-opacity="1" />
		</radialGradient>
    </defs>
	
    
</svg>