<?xml version="1.0" encoding="utf-8"?>
<!DOCTYPE svg PUBLIC "-//W3C//DTD SVG 1.1//EN" "http://www.w3.org/Graphics/SVG/1.1/DTD/svg11.dtd">
<svg version="1.1" xmlns="http://www.w3.org/2000/svg" xmlns:xlink="http://www.w3.org/1999/xlink" xmlns:xml="http://www.w3.org/XML/1998/namespace" xmlns:serif="http://www.serif.com/" width="204" height="204" viewBox="0, 0, 204, 204" xml:space="preserve" fill-rule="evenodd" stroke-linecap="round" stroke-linejoin="round" stroke-miterlimit="1.5" style="clip-rule:evenodd;">

	<circle cx="101.6" cy="101.6" r="100.4" stroke-width="2.49px" style="fill:url(#Radial);stroke:black;" />
    <circle cx="101.6" cy="101.6" r="69" stroke-width="6px" stroke-opacity="0.5" style="fill:none;stroke:#FFFFC7;" />
    <path d="M62.6 167.5 L53.3 168.4 L43.5 168.1 L43.8 164.4 L46.6 160.1 L45.3 157.7 L49.6 149.4 L53.3 144.1 L55.5 137.7 L59.2 135.2 L65.9 127.5 L68.1 122.6 L65.6 120.4 L66.9 118.9 L63.8 115.2 L61.3 116.4 L62.2 118.6 L53.6 128.4 L47.5 122.3 L57.6 112.4 L58.6 111.2 L57 106.9 L53 104.4 L52.7 102 L46.9 95.5 L41.9 98.9 L37 94.9 L46.3 83.5 L49.9 87.2 L48.4 90.9 L54.6 97.1 L54.6 92.1 L55.5 87.2 L59.5 77.7 L61.9 75.8 L63.8 72.8 L65.9 70 L73.6 65.4 L73.9 61.1 L80.1 56.8 L85.6 56.1 L91.5 55.5 L95.2 50.9 L98 49.8 L96.5 46.1 L95.6 42.3 L93.3 43.8 L93.1 39.7 L90.7 41.7 C90.5 38.7 91.3 37.7 92.8 36.8 C92.5 36.5 92.1 36.2 91.7 35.8 C92.7 33.6 94.8 32.3 97.3 31.3 C96.9 29.4 97 27.6 97.9 25.7 C99.5 27.9 101.2 29.1 103.2 29.5 C103.5 28.5 103.7 27.4 103.2 26 C104.9 26.8 105.9 27.9 106.8 29 C107.1 27.9 107.4 26.8 107.5 25.8 C109.1 28.3 111.2 29.1 112.4 31.6 L113.8 31 L114.5 32.4 L114 35.3 L114 36.8 C115.8 35.5 118 36.1 120.2 37.5 C121.8 38.3 123.4 38.8 125.1 38.8 L121.8 43.3 L124.7 47 L124.3 53.7 C120.1 50 117.5 45.1 114.5 44.1 L113.6 44.5 L111.8 48.4 L110.9 49.6 L112.9 51.3 L113.3 54.3 L113.4 55.6 L120.9 57.6 L124.4 60.1 C124.7 60.8 124.9 61.5 125.2 62.2 C132 64.8 136.6 70.6 140.6 77.2 C148.7 81.3 154.2 86 160.4 90.6 C150 90.2 149.7 92.3 141.3 100.4 L145.2 103.6 L145.9 105 L147.2 103.5 L148.3 104.1 L148.9 105.6 C155.5 102.8 160.3 103 166.2 99.9 C164.5 104.7 160.5 108 155.1 110.4 C153.8 109.4 152.1 108.8 149.8 108.8 L149.7 111.3 L147.8 111.4 L146.6 109.3 L146.6 111.4 L144.2 113.6 L139.1 113.6 L137.6 112.4 L137.4 113.4 L135.1 113.4 L133.7 110.4 L133.3 108.1 L135.3 107.6 L134.7 104.1 L133.7 102.5 L131.9 102.2 C126.6 103.5 123 106 121 109.8 C123.1 113.4 124.4 116.9 125.3 120.1 L131.2 130 L132.4 134 L134.2 135.5 L136.1 141.4 L139.8 152.1 L142.9 155.5 L142.2 158 L145.6 161.7 L150.2 164.1 L150.6 166.9 L145 168.4 L135.2 168.4 L129 167.2 L129.9 161.7 L128.4 160.4 L125 151.8 L122.2 142 L122.6 140.1 L121.3 132.8 L118.6 128.1 C113.3 123.3 108.8 118.5 105.6 113.7 L90.9 113.7 C88.9 116.9 86.4 120 83.2 123.2 L89.9 131.2 L89 132.8 L98.2 142.6 L95.5 145.7 L86.2 135.7 L82.9 138 L76.7 130.6 L74.9 132.8 L72.1 134.9 L70.3 139.2 L69.6 141.4 L70.9 142.9 L67.2 147.5 L63.2 154 L63.2 158 L61.6 160.8 L62.6 162.9 L62.6 167.5 z M74.1 114.5 L70 109.9 L70 108.7 L68.6 107.4 L67.7 108.4 L64.2 105.1 L64.3 101.9 L63.2 98.6 L63.5 96.3 L65.1 95.3 L68.3 84.9 L70.3 81.9 L70.8 80.5 L72.7 77.7 L81.9 72.5 C82.9 76.1 84.1 79.7 85.9 83.2 L86.4 86.3 C86.1 87.3 85.9 88.2 85.6 89.2 C80.3 88.2 76.5 90.6 74.9 98.1 C75.2 102.3 77.7 103.5 82.4 101.8 C78.9 105.8 76 110 74.1 114.5 L74.1 114.5 z" style="fill:#FFFFC9;" />
    <path d="M98.5 19.5 L99.1 19.6 L99.7 19.7 L100.2 19.9 L100.7 20.1 L100.9 20.2 L101.3 20.1 L101.8 19.9 L102.4 19.8 L103 19.8 L103.6 19.8 L104.2 19.8 L104.7 19.9 L105.2 20.1 L105.7 19.9 L106.2 19.7 L106.8 19.6 L107.4 19.6 L108 19.6 L108.5 19.7 L109.1 19.8 L109.7 20 L110.2 20.2 L110.7 20.5 L111.2 20.8 L111.7 21.2 L112.1 21.6 L112.5 22 L112.8 22.5 L112.9 22.6 L113 22.8 L113.1 22.9 L113.3 23.1 L113.4 23.3 L113.5 23.3 L113.6 23.5 L113.8 23.6 L114 23.9 L114.4 24.2 L114.6 24.3 L114.8 24.5 L115 24.7 L115.2 24.9 L115.5 25 L116 25.2 L116.6 25.4 L117.1 25.7 L117.5 26 L118 26.4 L118.4 26.8 L118.8 27.3 L119.1 27.7 L119.4 28.2 L120.1 29.6 L120.3 30.2 L120.5 30.6 L120.6 30.7 L120.8 30.8 L120.9 30.8 L121.1 30.9 L121.3 31 L121.4 31.1 L121.6 31.1 L121.8 31.2 L121.9 31.3 L122.1 31.4 L122.3 31.5 L122.4 31.5 L122.6 31.6 L122.7 31.7 L122.9 31.8 L123 31.9 L123.2 32 L123.4 32.1 L123.6 32.2 L123.7 32.2 L123.9 32.3 L124 32.3 L124.2 32.4 L124.4 32.4 L124.6 32.5 L124.7 32.5 L124.9 32.5 L125 32.5 L125.2 32.5 L125.8 32.6 L126.4 32.7 L126.9 32.8 L127.5 33 L128 33.3 L128.5 33.6 L129 33.9 L129.4 34.3 L129.8 34.8 L130.2 35.2 L130.5 35.7 L130.8 36.3 L131 36.8 L131.1 37.4 L131.3 38 L131.3 38.6 L131.3 39.1 L131.2 39.7 L131.1 40.3 L131 40.9 L130.7 41.4 L130.5 41.9 L130.1 42.4 L129.6 43.1 L129.7 43.1 L130 43.6 L130.3 44.1 L130.5 44.6 L130.7 45.2 L130.9 45.7 L131 46.3 L131 46.8 L131 47.4 L130.5 54.2 L130.5 54.7 L130.3 55.3 L130.2 55.9 L129.9 56.4 L129.7 56.8 L129.8 57 L130.1 57.5 L130.1 57.6 L130.4 57.7 L130.6 57.8 L130.7 57.9 L130.9 58 L131.1 58.1 L131.3 58.2 L131.5 58.3 L131.7 58.4 L131.9 58.6 L132 58.7 L132.2 58.8 L132.4 58.9 L132.6 59 L132.8 59.1 L132.9 59.2 L133.1 59.3 L133.3 59.5 L133.5 59.6 L133.6 59.7 L133.8 59.8 L134 59.9 L134.1 60.1 L134.3 60.2 L134.5 60.3 L134.6 60.4 L134.8 60.6 L135 60.7 L135.1 60.8 L135.3 61 L135.5 61.1 L135.6 61.2 L135.8 61.4 L135.9 61.5 L136.1 61.6 L136.2 61.8 L136.4 61.9 L136.6 62 L136.7 62.2 L136.9 62.3 L137 62.4 L137.2 62.6 L137.3 62.7 L137.5 62.9 L137.6 63 L137.8 63.1 L137.9 63.3 L138 63.4 L138.3 63.7 L138.6 64 L138.8 64.2 L139 64.4 L139.2 64.6 L139.3 64.8 L139.6 65.1 L139.8 65.3 L140.1 65.7 L140.4 66 L140.6 66.3 L140.9 66.6 L141.1 66.9 L141.4 67.2 L141.6 67.5 L141.9 67.8 L142.1 68.1 L142.3 68.5 L142.6 68.8 L142.8 69.1 L143 69.4 L143.2 69.7 L143.5 70.1 L143.7 70.4 L143.9 70.7 L144.1 71.1 L144.3 71.4 L144.6 71.7 L144.8 72 L145 72.4 L145.1 72.5 L145.5 72.7 L145.9 73 L146.2 73.2 L146.6 73.4 L147 73.6 L147.4 73.8 L147.7 74 L148.1 74.2 L148.5 74.5 L148.8 74.7 L149.2 74.9 L149.5 75.1 L149.9 75.3 L150.2 75.6 L150.6 75.8 L150.9 76 L151.3 76.2 L151.6 76.4 L151.9 76.7 L152.3 76.9 L152.6 77.1 L152.9 77.3 L153.2 77.6 L153.6 77.8 L153.9 78 L154.2 78.2 L154.5 78.4 L154.8 78.7 L155.1 78.9 L155.5 79.1 L155.8 79.3 L156.1 79.5 L156.4 79.8 L156.7 80 L157.3 80.4 L157.9 80.9 L158.4 81.3 L159 81.7 L159.6 82.2 L160.7 83 L161.3 83.5 L161.9 83.9 L162.4 84.3 L163 84.7 L163.5 85.1 L164.1 85.6 L164.6 85.9 L165 86.3 L165.4 86.8 L165.7 87.3 L166 87.8 L166.2 88.3 L166.4 88.9 L166.6 89.5 L166.6 90 L166.7 90.6 L166.6 91.2 L166.5 91.8 L166.4 92.4 L166.2 92.9 L166 93.5 L165.8 93.7 L166.2 93.7 L166.8 93.7 L167.3 93.8 L167.9 93.9 L168.4 94.1 L169 94.3 L169.5 94.6 L170 94.9 L170.4 95.3 L170.8 95.7 L171.2 96.1 L171.5 96.6 L171.8 97.1 L172.1 97.6 L172.2 98.2 L172.4 98.7 L172.5 99.3 L172.5 99.9 L172.5 100.5 L172.4 101 L172.3 101.6 L172.1 102.1 L172 102.3 L172 102.4 L171.9 102.6 L171.9 102.7 L171.8 102.9 L171.7 103.1 L171.7 103.2 L171.6 103.4 L171.5 103.5 L171.4 103.7 L171.4 103.8 L171.3 104 L171.2 104.1 L171.2 104.3 L171.1 104.4 L171 104.6 L170.9 104.7 L170.9 104.9 L170.8 105 L170.7 105.1 L170.6 105.3 L170.5 105.4 L170.4 105.6 L170.4 105.7 L170.3 105.9 L170.2 106 L170.1 106.1 L170 106.3 L169.9 106.4 L169.8 106.5 L169.7 106.7 L169.6 106.8 L169.5 107 L169.5 107.1 L169.4 107.2 L169.3 107.3 L169.2 107.5 L169.1 107.6 L169 107.7 L168.9 107.9 L168.8 108 L168.7 108.1 L168.6 108.2 L168.5 108.4 L168.4 108.5 L168.3 108.6 L168.1 108.7 L168 108.9 L167.9 109 L167.8 109.1 L167.7 109.2 L167.6 109.3 L167.5 109.5 L167.4 109.6 L167.3 109.7 L167.2 109.8 L167 109.9 L166.9 110 L166.8 110.2 L166.7 110.3 L166.6 110.4 L166.5 110.5 L166.3 110.6 L166.2 110.7 L166.1 110.8 L166 110.9 L165.9 111 L165.7 111.1 L165.6 111.2 L165.5 111.3 L165.4 111.4 L165.3 111.5 L165.1 111.6 L165 111.7 L164.8 111.9 L164.5 112.1 L164.2 112.3 L164 112.5 L163.7 112.7 L163.5 112.9 L163.2 113.1 L162.9 113.2 L162.6 113.4 L162.4 113.6 L162.1 113.8 L161.8 113.9 L161.6 114.1 L161.3 114.2 L161 114.4 L160.7 114.6 L160.4 114.7 L160.1 114.9 L159.9 115 L159.6 115.2 L159.3 115.3 L159 115.4 L158.7 115.6 L158.4 115.7 L158.1 115.8 L157.8 116 L157.5 116.1 L157 116.3 L156.5 116.4 L155.9 116.6 L155.4 116.6 L154.8 116.6 L154.2 116.6 L153.7 116.5 L153.3 116.4 L153 116.6 L152.5 116.9 L151.9 117.1 L151.4 117.3 L150.8 117.4 L150.2 117.5 L149.1 117.6 L148.3 118.3 L147.8 118.6 L147.4 118.9 L146.9 119.2 L146.4 119.4 L145.8 119.6 L145.3 119.7 L144.7 119.8 L144.2 119.8 L139.1 119.8 L138.6 119.8 L138.1 119.7 L137.7 119.7 L137.4 119.7 L135.1 119.7 L134.6 119.7 L134 119.6 L133.5 119.5 L133 119.3 L132.5 119.1 L132 118.8 L131.7 118.7 L136.5 126.8 L136.8 127.2 L137 127.7 L137.1 128.1 L137.8 130.4 L138.2 130.7 L138.7 131.1 L139.1 131.6 L139.4 132 L139.7 132.5 L140 133.1 L140.2 133.6 L142 139.4 L145.3 148.9 L147.5 151.3 L147.8 151.7 L148.2 152.2 L148.4 152.7 L148.7 153.2 L148.8 153.7 L149 154.3 L149.1 154.8 L149.1 155.4 L149.1 155.9 L149.1 156.2 L149.5 156.7 L153.2 158.6 L153.7 158.9 L154.1 159.2 L154.5 159.6 L154.9 160 L155.3 160.4 L155.6 160.9 L155.8 161.3 L156.1 161.8 L156.2 162.4 L156.4 162.9 L156.5 163.4 L156.8 166.2 L156.8 166.8 L156.8 167.4 L156.7 168 L156.6 168.5 L156.4 169.1 L156.2 169.6 L155.9 170.2 L155.6 170.6 L155.2 171.1 L154.8 171.5 L154.3 171.9 L153.8 172.2 L153.3 172.5 L152.8 172.7 L152.2 172.9 L146.7 174.5 L146.1 174.6 L145.6 174.7 L145 174.7 L135.2 174.7 L134.8 174.7 L134.4 174.6 L133.9 174.6 L127.8 173.3 L127.2 173.2 L126.7 173 L126.2 172.8 L125.7 172.5 L125.2 172.2 L124.8 171.8 L124.4 171.4 L124 171 L123.7 170.5 L123.4 170 L123.2 169.5 L123 169 L122.9 168.4 L122.8 167.9 L122.8 167.3 L122.8 166.7 L122.8 166.2 L123.2 163.9 L123.1 163.7 L122.8 163.2 L122.6 162.7 L119.2 154.1 L119.1 153.8 L119 153.5 L116.2 143.7 L116.1 143.1 L116 142.6 L116 142.1 L116 141.5 L116.1 141 L116.2 140.1 L115.4 134.9 L113.7 132.1 L113.6 132 L113.3 131.8 L113.1 131.6 L112.8 131.3 L112.6 131.1 L112.3 130.8 L112.1 130.6 L111.8 130.4 L111.6 130.1 L111.3 129.9 L111.1 129.7 L110.8 129.4 L110.6 129.2 L110.4 128.9 L110.1 128.7 L109.9 128.5 L109.6 128.2 L109.4 128 L109.2 127.7 L109 127.5 L108.7 127.3 L108.5 127 L108.3 126.8 L108 126.5 L107.8 126.3 L107.6 126.1 L107.4 125.8 L107.1 125.6 L106.9 125.3 L106.7 125.1 L106.5 124.9 L106.3 124.6 L106 124.4 L105.8 124.1 L105.6 123.9 L105.4 123.6 L105.2 123.4 L105 123.1 L104.8 122.9 L104.6 122.7 L104.4 122.4 L104.2 122.2 L104 121.9 L103.7 121.7 L103.6 121.4 L103.4 121.2 L103.2 120.9 L103 120.7 L102.8 120.4 L102.6 120.2 L102.4 119.9 L94.2 119.9 L94.1 120 L93.9 120.4 L93.6 120.7 L93.4 121 L93.1 121.4 L92.9 121.7 L92.6 122 L92.3 122.4 L92.1 122.7 L91.8 123 L91.5 123.4 L91.5 123.4 L94.7 127.2 L95.1 127.6 L95.4 128.2 L95.7 128.7 L95.9 129.3 L96 129.8 L96.1 130.4 L96.2 131 L96.2 131.3 L102.8 138.3 L103.2 138.8 L103.5 139.2 L103.8 139.7 L104.1 140.3 L104.2 140.8 L104.4 141.4 L104.5 142 L104.5 142.5 L104.5 143.1 L104.4 143.7 L104.3 144.3 L104.1 144.8 L103.9 145.3 L103.6 145.8 L103.3 146.3 L102.9 146.8 L100.1 149.9 L99.7 150.3 L99.3 150.6 L98.8 151 L98.3 151.2 L97.8 151.5 L97.2 151.7 L96.7 151.8 L96.1 151.9 L95.5 151.9 L94.9 151.9 L94.4 151.8 L93.8 151.7 L93.3 151.5 L92.7 151.3 L92.2 151 L91.7 150.7 L91.3 150.3 L90.9 149.9 L85.2 143.8 L84.8 143.9 L84.3 144.1 L83.7 144.2 L83.1 144.2 L82.6 144.2 L82 144.2 L81.4 144.1 L80.9 143.9 L80.3 143.7 L79.8 143.4 L79.3 143.1 L78.9 142.8 L78.5 142.4 L78.1 142 L76.6 140.2 L76.6 140.3 L76.6 140.4 L76.8 141 L77 141.5 L77.1 142.1 L77.1 142.6 L77.1 143.2 L77.1 143.7 L77 144.3 L76.8 144.8 L76.6 145.4 L76.4 145.9 L76.1 146.4 L75.7 146.8 L72.3 151.1 L69.4 155.8 L69.4 158 L69.4 158.5 L69.3 159 L69.2 159.5 L69.1 160 L68.9 160.5 L68.6 161 L68.6 161.2 L68.6 161.4 L68.7 161.9 L68.8 162.4 L68.8 162.9 L68.8 167.5 L68.8 168.1 L68.7 168.7 L68.6 169.2 L68.4 169.8 L68.2 170.3 L67.9 170.8 L67.6 171.3 L67.2 171.7 L66.8 172.1 L66.3 172.5 L65.9 172.8 L65.4 173.1 L64.9 173.3 L64.3 173.5 L63.8 173.7 L63.2 173.7 L54 174.7 L53.5 174.7 L53.1 174.7 L43.3 174.4 L42.7 174.3 L42.1 174.2 L41.5 174.1 L41 173.9 L40.4 173.6 L39.9 173.3 L39.5 172.9 L39 172.5 L38.6 172.1 L38.3 171.6 L38 171.1 L37.7 170.5 L37.5 170 L37.4 169.4 L37.3 168.8 L37.2 168.2 L37.3 167.6 L37.6 163.9 L37.6 163.4 L37.7 162.9 L37.9 162.4 L38.1 162 L38.3 161.5 L38.5 161.1 L39.4 159.7 L39.3 159.4 L39.2 158.8 L39.1 158.2 L39.1 157.6 L39.1 157 L39.2 156.5 L39.3 155.9 L39.5 155.3 L39.8 154.8 L44.1 146.5 L44.3 146.1 L44.5 145.8 L47.7 141.3 L49.6 135.7 L49.8 135.2 L50 134.6 L50.3 134.1 L50.5 133.9 L50.1 133.6 L49.6 133.2 L49.2 132.9 L43.1 126.7 L42.7 126.3 L42.3 125.8 L42 125.3 L41.8 124.8 L41.5 124.2 L41.4 123.7 L41.3 123.1 L41.2 122.5 L41.2 122 L41.3 121.4 L41.4 120.8 L41.6 120.2 L41.8 119.7 L42.1 119.2 L42.4 118.7 L42.7 118.2 L43.1 117.8 L50.8 110.4 L49.7 109.8 L49.3 109.5 L48.8 109.1 L48.4 108.7 L48.1 108.3 L47.8 107.8 L47.5 107.3 L47.2 106.8 L47.1 106.3 L46.9 105.8 L46.8 105.2 L46.8 104.7 L45.9 103.8 L45.5 104.1 L45 104.4 L44.5 104.6 L44 104.8 L43.4 105 L42.8 105.1 L42.3 105.1 L41.7 105.2 L41.1 105.1 L40.6 105 L40 104.9 L39.5 104.6 L39 104.4 L38.5 104.1 L38 103.8 L33.1 99.8 L32.6 99.4 L32.3 99 L31.9 98.5 L31.6 98 L31.3 97.5 L31.1 97 L31 96.4 L30.8 95.8 L30.8 95.3 L30.8 94.7 L30.8 94.1 L30.9 93.5 L31.1 93 L31.3 92.4 L31.5 91.9 L31.8 91.4 L32.2 91 L41.4 79.6 L41.8 79.1 L42.2 78.8 L42.7 78.4 L43.2 78.1 L43.7 77.8 L44.2 77.6 L44.8 77.5 L45.4 77.3 L45.9 77.3 L46.5 77.3 L47.1 77.3 L47.7 77.4 L48.2 77.6 L48.8 77.8 L49.3 78.1 L49.8 78.4 L50.2 78.7 L50.7 79.1 L51.7 80.1 L53.7 75.3 L54 74.8 L54.2 74.3 L54.6 73.8 L54.9 73.4 L55.3 73 L55.7 72.7 L57.2 71.6 L58.4 69.5 L58.6 69.2 L58.9 68.9 L61 66.2 L61.4 65.7 L61.8 65.3 L62.2 64.9 L62.7 64.6 L67.6 61.7 L67.7 60.6 L67.8 60.1 L67.9 59.5 L68 59 L68.3 58.5 L68.5 58 L68.8 57.5 L69.1 57.1 L69.5 56.7 L69.9 56.3 L70.4 55.9 L76.5 51.6 L76.9 51.4 L77.4 51.1 L77.9 50.9 L78.4 50.7 L78.9 50.6 L79.4 50.5 L85 49.9 L88.2 49.6 L89.1 48.5 L88.8 48.2 L88.4 47.8 L88.2 47.4 L88.1 47.4 L87.6 47.1 L87.1 46.8 L86.7 46.5 L86.2 46.1 L85.9 45.7 L85.5 45.2 L85.2 44.7 L85 44.2 L84.7 43.7 L84.6 43.1 L84.5 42.6 L84.4 42 L84.4 41.8 L84.4 41.6 L84.4 41.4 L84.4 41.2 L84.4 41.1 L84.4 40.9 L84.4 40.7 L84.4 40.5 L84.4 40.3 L84.4 40.1 L84.4 39.9 L84.5 39.7 L84.5 39.5 L84.5 39.3 L84.5 39.1 L84.5 38.9 L84.6 38.7 L84.6 38.5 L84.6 38.3 L84.7 38.1 L84.7 37.9 L84.8 37.7 L84.8 37.5 L84.9 37.3 L85 37.1 L85 36.9 L85.1 36.7 L85.2 36.5 L85.2 36.3 L85.3 36.1 L85.4 35.9 L85.5 35.8 L85.5 35.5 L85.5 34.9 L85.6 34.3 L85.8 33.8 L86 33.2 L86.1 33.1 L86.2 32.9 L86.3 32.7 L86.4 32.5 L86.5 32.3 L86.6 32.1 L86.7 31.9 L86.8 31.7 L87 31.5 L87.1 31.4 L87.2 31.2 L87.3 31 L87.5 30.8 L87.6 30.7 L87.7 30.5 L87.8 30.3 L88 30.2 L88.1 30 L88.3 29.9 L88.4 29.7 L88.5 29.6 L88.7 29.4 L88.8 29.3 L89 29.1 L89.1 29 L89.3 28.9 L89.4 28.7 L89.5 28.6 L89.7 28.5 L89.8 28.4 L90 28.2 L90.1 28.1 L90.3 28 L90.4 27.9 L90.6 27.8 L90.7 27.7 L90.9 27.6 L90.9 27.6 L90.9 27.5 L91 27.3 L91 27.2 L91 27 L91 26.9 L91.1 26.7 L91.1 26.5 L91.1 26.4 L91.1 26.2 L91.2 26.1 L91.2 25.9 L91.3 25.8 L91.3 25.6 L91.3 25.4 L91.4 25.3 L91.4 25.1 L91.5 25 L91.5 24.8 L91.6 24.7 L91.6 24.5 L91.7 24.4 L91.7 24.2 L91.8 24 L91.9 23.9 L91.9 23.7 L92 23.6 L92 23.4 L92.1 23.3 L92.2 23.1 L92.2 23 L92.5 22.5 L92.9 22 L93.2 21.5 L93.6 21.1 L94.1 20.7 L94.6 20.4 L95.1 20.1 L95.6 19.9 L96.2 19.7 L96.7 19.5 L97.3 19.5 L97.9 19.4 L98.5 19.5 z M97.8 25.8 L97.8 25.9 L97.8 26 L97.7 26 L97.7 26.1 L97.7 26.2 L97.6 26.3 L97.6 26.4 L97.6 26.5 L97.5 26.6 L97.5 26.6 L97.5 26.7 L97.4 26.8 L97.4 26.9 L97.4 27 L97.4 27.1 L97.3 27.2 L97.3 27.3 L97.3 27.4 L97.3 27.4 L97.3 27.5 L97.2 27.6 L97.2 27.7 L97.2 27.8 L97.2 27.9 L97.2 28 L97.2 28 L97.2 28.1 L97.1 28.2 L97.1 28.3 L97.1 28.4 L97.1 28.5 L97.1 28.6 L97.1 28.7 L97.1 28.7 L97.1 28.8 L97.1 28.9 L97.1 29 L97.1 29.1 L97.1 29.2 L97.1 29.3 L97.1 29.5 L97.1 29.7 L97.1 29.9 L97.1 30 L97.1 30.2 L97.1 30.4 L97.2 30.6 L97.2 30.8 L97.2 30.9 L97.2 31.1 L97.3 31.3 L97 31.4 L96.8 31.5 L96.6 31.6 L96.5 31.6 L96.4 31.7 L96.3 31.7 L96.2 31.8 L96 31.8 L95.9 31.9 L95.8 31.9 L95.7 32 L95.6 32 L95.5 32.1 L95.4 32.1 L95.3 32.2 L95.2 32.3 L95.1 32.3 L95 32.4 L94.9 32.4 L94.8 32.5 L94.7 32.6 L94.6 32.6 L94.5 32.7 L94.4 32.8 L94.3 32.8 L94.2 32.9 L94.1 33 L94 33 L93.9 33.1 L93.9 33.2 L93.8 33.2 L93.7 33.3 L93.6 33.4 L93.5 33.4 L93.4 33.5 L93.4 33.6 L93.3 33.7 L93.2 33.8 L93.1 33.8 L93 33.9 L93 34 L92.9 34.1 L92.8 34.1 L92.7 34.2 L92.7 34.3 L92.6 34.4 L92.5 34.5 L92.5 34.6 L92.4 34.7 L92.3 34.8 L92.3 34.9 L92.2 34.9 L92.1 35 L92.1 35.1 L92 35.2 L92 35.3 L91.9 35.4 L91.9 35.5 L91.8 35.6 L91.8 35.7 L91.7 35.8 L92.3 36.3 L92.8 36.8 L92.8 36.8 L92.7 36.9 L92.6 36.9 L92.5 37 L92.5 37 L92.4 37 L92.4 37.1 L92.3 37.1 L92.2 37.2 L92.2 37.2 L92.1 37.3 L92.1 37.3 L92 37.4 L91.9 37.4 L91.9 37.4 L91.8 37.5 L91.8 37.5 L91.7 37.6 L91.7 37.7 L91.6 37.7 L91.6 37.8 L91.5 37.8 L91.5 37.9 L91.4 37.9 L91.4 38 L91.4 38.1 L91.3 38.1 L91.3 38.2 L91.2 38.2 L91.2 38.3 L91.2 38.4 L91.1 38.4 L91.1 38.5 L91.1 38.6 L91 38.7 L91 38.7 L91 38.8 L90.9 38.9 L90.9 39 L90.9 39.1 L90.9 39.1 L90.8 39.2 L90.8 39.3 L90.8 39.4 L90.8 39.5 L90.8 39.6 L90.8 39.7 L90.7 39.8 L90.7 39.9 L90.7 40 L90.7 40.1 L90.7 40.2 L90.7 40.3 L90.7 40.4 L90.7 40.6 L90.7 40.7 L90.7 40.8 L90.7 40.9 L90.7 41 L90.7 41.3 L90.7 41.6 L90.7 41.7 L93.1 39.7 L93.3 43.8 L95.6 42.3 L96.5 46.1 L98 49.8 L95.2 50.9 L91.5 55.5 L85.6 56.1 L80.1 56.8 L73.9 61.1 L73.6 65.4 L65.9 70 L63.8 72.8 L61.9 75.8 L59.5 77.7 L55.5 87.2 L54.6 92.1 L54.6 97.1 L48.4 90.9 L49.9 87.2 L46.3 83.5 L37 94.9 L41.9 98.9 L46.9 95.5 L52.7 102 L53 104.4 L57 106.9 L58.6 111.2 L57.6 112.4 L47.5 122.3 L53.6 128.4 L62.2 118.6 L61.3 116.4 L63.8 115.2 L66.9 118.9 L65.6 120.4 L68.1 122.6 L65.9 127.5 L59.2 135.2 L55.5 137.7 L53.3 144.1 L49.6 149.4 L45.3 157.7 L46.6 160.1 L43.8 164.4 L43.5 168.1 L53.3 168.4 L62.6 167.5 L62.6 162.9 L61.6 160.8 L63.2 158 L63.2 154 L67.2 147.5 L70.9 142.9 L69.6 141.4 L70.3 139.2 L72.1 134.9 L74.9 132.8 L76.7 130.6 L82.9 138 L86.2 135.7 L95.5 145.7 L98.2 142.6 L89 132.8 L89.9 131.2 L83.2 123.2 L83.5 122.9 L83.8 122.6 L84.1 122.3 L84.3 122 L84.6 121.7 L84.9 121.4 L85.2 121.1 L85.4 120.8 L85.7 120.5 L86 120.2 L86.2 119.9 L86.5 119.6 L86.7 119.3 L87 119 L87.2 118.7 L87.5 118.4 L87.7 118.1 L88 117.8 L88.2 117.6 L88.4 117.3 L88.6 117 L88.9 116.7 L89.1 116.4 L89.3 116.1 L89.5 115.8 L89.7 115.5 L89.9 115.2 L90.1 114.9 L90.3 114.6 L90.4 114.4 L90.5 114.3 L90.6 114.1 L90.7 114 L90.8 113.8 L90.9 113.7 L105.6 113.7 L105.8 113.9 L105.9 114.1 L106.1 114.4 L106.2 114.6 L106.4 114.8 L106.6 115 L106.7 115.3 L106.9 115.5 L107.1 115.7 L107.2 115.9 L107.4 116.2 L107.6 116.4 L107.7 116.6 L107.9 116.8 L108.1 117.1 L108.3 117.3 L108.4 117.5 L108.6 117.7 L108.8 118 L109 118.2 L109.2 118.4 L109.4 118.6 L109.6 118.9 L109.7 119.1 L109.9 119.3 L110.1 119.6 L110.3 119.8 L110.5 120 L110.7 120.2 L110.9 120.5 L111.1 120.7 L111.3 120.9 L111.5 121.1 L111.7 121.4 L111.9 121.6 L112.2 121.8 L112.4 122 L112.6 122.3 L112.8 122.5 L113 122.7 L113.2 122.9 L113.4 123.2 L113.7 123.4 L113.9 123.6 L114.1 123.8 L114.3 124.1 L114.5 124.3 L114.8 124.5 L115 124.7 L115.2 125 L115.5 125.2 L115.7 125.4 L115.9 125.6 L116.2 125.9 L116.4 126.1 L116.6 126.3 L116.9 126.6 L117.1 126.8 L117.3 127 L117.6 127.2 L117.8 127.5 L118.1 127.7 L118.6 128.1 L121.3 132.8 L122.6 140.1 L122.2 142 L125 151.8 L128.4 160.4 L129.9 161.7 L129 167.2 L135.2 168.4 L145 168.4 L150.6 166.9 L150.2 164.1 L145.6 161.7 L142.2 158 L142.9 155.5 L139.8 152.1 L136.1 141.4 L134.2 135.5 L132.4 134 L131.2 130 L125.3 120.1 L125.2 119.8 L125.2 119.5 L125.1 119.2 L125 118.9 L124.9 118.6 L124.8 118.3 L124.7 118 L124.6 117.6 L124.5 117.3 L124.4 117 L124.2 116.7 L124.1 116.4 L124 116.1 L123.9 115.7 L123.8 115.4 L123.6 115.1 L123.5 114.8 L123.4 114.4 L123.2 114.1 L123.2 114 L123.1 113.8 L123 113.6 L122.9 113.5 L122.9 113.3 L122.8 113.1 L122.7 113 L122.6 112.8 L122.5 112.6 L122.5 112.5 L122.4 112.3 L122.3 112.1 L122.2 112 L122.1 111.8 L122 111.6 L122 111.5 L121.9 111.3 L121.8 111.1 L121.7 110.9 L121.6 110.8 L121.5 110.6 L121.4 110.4 L121.3 110.3 L121.2 110.1 L121.1 109.9 L121 109.8 L121.1 109.6 L121.2 109.4 L121.3 109.2 L121.4 109.1 L121.5 108.9 L121.6 108.7 L121.7 108.6 L121.8 108.4 L122 108.3 L122.1 108.1 L122.2 107.9 L122.3 107.8 L122.4 107.6 L122.6 107.5 L122.7 107.3 L122.8 107.2 L123 107 L123.1 106.9 L123.2 106.8 L123.4 106.6 L123.5 106.5 L123.7 106.3 L123.8 106.2 L123.9 106.1 L124.1 105.9 L124.3 105.8 L124.4 105.7 L124.6 105.6 L124.7 105.4 L124.9 105.3 L125.1 105.2 L125.2 105.1 L125.4 105 L125.6 104.8 L125.8 104.7 L125.9 104.6 L126.1 104.5 L126.3 104.4 L126.5 104.3 L126.7 104.2 L126.9 104.1 L127.1 104 L127.3 103.9 L127.5 103.8 L127.7 103.7 L127.8 103.6 L128.1 103.5 L128.3 103.4 L128.5 103.3 L128.7 103.2 L128.9 103.2 L129.1 103.1 L129.3 103 L129.6 102.9 L129.8 102.9 L130 102.8 L130.2 102.7 L130.5 102.6 L130.7 102.6 L130.9 102.5 L131.2 102.4 L131.4 102.4 L131.7 102.3 L131.9 102.2 L133.7 102.5 L134.7 104.1 L135.3 107.6 L133.3 108.1 L133.7 110.4 L135.1 113.4 L137.4 113.4 L137.6 112.4 L139.1 113.6 L144.2 113.6 L146.6 111.4 L146.6 109.3 L147.8 111.4 L149.7 111.3 L149.8 108.8 L149.9 108.8 L150.1 108.8 L150.3 108.8 L150.5 108.8 L150.7 108.8 L150.9 108.9 L151.1 108.9 L151.3 108.9 L151.4 108.9 L151.6 108.9 L151.8 109 L152 109 L152.2 109 L152.3 109.1 L152.5 109.1 L152.7 109.2 L152.8 109.2 L153 109.3 L153.1 109.3 L153.3 109.4 L153.5 109.4 L153.6 109.5 L153.7 109.6 L153.9 109.6 L154 109.7 L154.2 109.8 L154.3 109.8 L154.4 109.9 L154.6 110 L154.8 110.2 L155 110.3 L155.1 110.4 L155.3 110.3 L155.6 110.1 L155.8 110 L156.1 109.9 L156.3 109.8 L156.5 109.7 L156.8 109.6 L157 109.4 L157.3 109.3 L157.5 109.2 L157.7 109.1 L158 108.9 L158.2 108.8 L158.4 108.7 L158.6 108.6 L158.9 108.4 L159.1 108.3 L159.3 108.1 L159.5 108 L159.7 107.9 L159.9 107.7 L160.1 107.6 L160.3 107.4 L160.5 107.3 L160.7 107.1 L160.9 107 L161.1 106.9 L161.2 106.8 L161.3 106.7 L161.4 106.6 L161.5 106.5 L161.6 106.5 L161.7 106.4 L161.8 106.3 L161.8 106.2 L161.9 106.1 L162 106.1 L162.1 106 L162.2 105.9 L162.3 105.8 L162.4 105.7 L162.5 105.7 L162.5 105.6 L162.6 105.5 L162.7 105.4 L162.8 105.3 L162.9 105.2 L163 105.2 L163 105.1 L163.1 105 L163.2 104.9 L163.3 104.8 L163.4 104.7 L163.4 104.6 L163.5 104.5 L163.6 104.5 L163.7 104.4 L163.7 104.3 L163.8 104.2 L163.9 104.1 L164 104 L164 103.9 L164.1 103.8 L164.2 103.7 L164.2 103.6 L164.3 103.5 L164.4 103.4 L164.4 103.4 L164.5 103.3 L164.6 103.2 L164.6 103.1 L164.7 103 L164.8 102.9 L164.8 102.8 L164.9 102.7 L165 102.6 L165 102.5 L165.1 102.4 L165.1 102.3 L165.2 102.2 L165.3 102.1 L165.3 102 L165.4 101.9 L165.4 101.8 L165.5 101.7 L165.5 101.6 L165.6 101.5 L165.6 101.4 L165.7 101.2 L165.7 101.1 L165.8 101 L165.8 100.9 L165.9 100.8 L165.9 100.7 L166 100.6 L166 100.5 L166.1 100.4 L166.1 100.3 L166.2 100.2 L166.2 100.1 L166.2 99.9 L166.1 100 L166 100.1 L165.8 100.1 L165.7 100.2 L165.5 100.3 L165.4 100.4 L165.3 100.4 L165.1 100.5 L165 100.5 L164.9 100.6 L164.7 100.7 L164.6 100.7 L164.5 100.8 L164.3 100.8 L164.2 100.9 L164.1 100.9 L163.8 101.1 L163.5 101.2 L163.3 101.3 L163 101.4 L162.7 101.5 L162.5 101.5 L162.2 101.6 L162 101.7 L161.7 101.8 L161.4 101.9 L161.2 102 L160.9 102 L160.7 102.1 L160.4 102.2 L160.1 102.3 L159.9 102.3 L159.6 102.4 L159.4 102.5 L159.1 102.5 L158.9 102.6 L158.3 102.7 L157.8 102.9 L156.8 103.1 L156.2 103.2 L155.7 103.4 L155.4 103.4 L155.2 103.5 L154.9 103.6 L154.6 103.7 L154.4 103.7 L154.1 103.8 L153.8 103.9 L153.6 104 L153.3 104 L153 104.1 L152.7 104.2 L152.4 104.3 L152.2 104.4 L151.9 104.5 L151.6 104.6 L151.3 104.7 L151 104.8 L150.7 104.9 L150.4 105 L150.1 105.1 L149.8 105.2 L149.5 105.4 L149.2 105.5 L149.1 105.5 L148.9 105.6 L148.3 104.1 L147.2 103.5 L145.9 105 L145.2 103.6 L141.3 100.4 L141.6 100 L142 99.7 L142.4 99.3 L142.7 98.9 L143.1 98.6 L143.4 98.3 L144.1 97.6 L144.7 97 L145.3 96.4 L145.5 96.2 L145.8 95.9 L146.1 95.6 L146.3 95.4 L146.6 95.1 L146.8 94.9 L147.1 94.7 L147.3 94.4 L147.4 94.3 L147.6 94.2 L147.7 94.1 L147.8 94 L147.9 93.9 L148 93.8 L148.2 93.7 L148.3 93.6 L148.4 93.5 L148.5 93.4 L148.6 93.3 L148.7 93.3 L148.8 93.2 L148.9 93.1 L149.1 93 L149.2 92.9 L149.3 92.8 L149.4 92.7 L149.5 92.7 L149.6 92.6 L149.7 92.5 L149.8 92.4 L150 92.4 L150.1 92.3 L150.2 92.2 L150.3 92.2 L150.4 92.1 L150.5 92 L150.7 92 L150.8 91.9 L150.9 91.8 L151 91.8 L151.1 91.7 L151.2 91.7 L151.4 91.6 L151.5 91.6 L151.6 91.5 L151.7 91.5 L151.9 91.4 L152 91.4 L152.1 91.3 L152.2 91.3 L152.4 91.2 L152.5 91.2 L152.6 91.2 L152.8 91.1 L152.9 91.1 L153 91.1 L153.2 91 L153.3 91 L153.5 91 L153.6 90.9 L153.8 90.9 L153.9 90.9 L154.1 90.8 L154.2 90.8 L154.4 90.8 L154.5 90.8 L154.7 90.7 L154.8 90.7 L155 90.7 L155.2 90.7 L155.3 90.7 L155.5 90.7 L155.7 90.6 L155.8 90.6 L156 90.6 L156.2 90.6 L156.4 90.6 L156.6 90.6 L156.7 90.6 L156.9 90.6 L157.1 90.6 L157.3 90.6 L157.5 90.6 L157.7 90.6 L157.9 90.5 L158.1 90.5 L158.4 90.5 L158.6 90.5 L159 90.6 L159.5 90.6 L159.9 90.6 L160.4 90.6 L159.8 90.2 L159.3 89.7 L158.7 89.3 L158.1 88.9 L157.5 88.4 L157 88 L155.8 87.2 L155.3 86.7 L154.7 86.3 L154.1 85.9 L153.5 85.5 L153 85 L152.7 84.8 L152.4 84.6 L152.1 84.4 L151.8 84.2 L151.5 84 L151.2 83.8 L150.9 83.5 L150.6 83.3 L150.3 83.1 L150 82.9 L149.7 82.7 L149.4 82.5 L149.1 82.3 L148.8 82.1 L148.5 81.9 L148.2 81.7 L147.8 81.5 L147.5 81.2 L147.2 81 L146.9 80.8 L146.6 80.6 L146.2 80.4 L145.9 80.2 L145.6 80 L145.2 79.8 L144.9 79.6 L144.6 79.4 L144.2 79.2 L143.9 79 L143.5 78.8 L143.2 78.6 L142.8 78.4 L142.5 78.2 L142.1 78 L141.8 77.8 L141.4 77.6 L141 77.4 L140.6 77.2 L140.5 76.9 L140.3 76.6 L140.1 76.3 L139.9 76 L139.7 75.7 L139.5 75.4 L139.3 75.1 L139.1 74.8 L138.9 74.5 L138.7 74.2 L138.5 73.9 L138.3 73.6 L138.1 73.3 L137.9 73 L137.7 72.7 L137.5 72.5 L137.3 72.2 L137.1 71.9 L136.9 71.6 L136.7 71.3 L136.4 71.1 L136.2 70.8 L136 70.5 L135.9 70.4 L135.8 70.2 L135.7 70.1 L135.6 70 L135.5 69.9 L135.4 69.7 L135.2 69.6 L135.1 69.5 L135 69.3 L134.9 69.2 L134.8 69.1 L134.7 68.9 L134.6 68.8 L134.4 68.7 L134.3 68.6 L134.2 68.4 L134.1 68.3 L134 68.2 L133.9 68.1 L133.7 68 L133.6 67.8 L133.5 67.7 L133.4 67.6 L133.3 67.5 L133.1 67.4 L133 67.3 L132.9 67.1 L132.8 67 L132.6 66.9 L132.5 66.8 L132.4 66.7 L132.3 66.6 L132.1 66.5 L132 66.4 L131.9 66.3 L131.8 66.1 L131.6 66 L131.5 65.9 L131.4 65.8 L131.2 65.7 L131.1 65.6 L131 65.5 L130.9 65.4 L130.7 65.3 L130.6 65.2 L130.5 65.1 L130.3 65 L130.2 64.9 L130.1 64.8 L129.9 64.7 L129.8 64.6 L129.6 64.5 L129.5 64.4 L129.4 64.4 L129.2 64.3 L129.1 64.2 L128.9 64.1 L128.8 64 L128.7 63.9 L128.5 63.8 L128.4 63.8 L128.2 63.7 L128.1 63.6 L127.9 63.5 L127.8 63.4 L127.6 63.3 L127.5 63.3 L127.3 63.2 L127.2 63.1 L127 63 L126.9 63 L126.7 62.9 L126.6 62.8 L126.4 62.8 L126.3 62.7 L126.1 62.6 L126 62.5 L125.8 62.5 L125.6 62.4 L125.5 62.4 L125.3 62.3 L125.2 62.2 L124.8 61.2 L124.6 60.6 L124.4 60.1 L120.9 57.6 L113.4 55.6 L113.3 54.3 L112.9 51.3 L110.9 49.6 L111.8 48.4 L113.6 44.5 L114.5 44.1 L114.6 44.1 L114.8 44.2 L114.9 44.2 L115 44.3 L115.2 44.4 L115.3 44.4 L115.5 44.5 L115.6 44.6 L115.7 44.7 L115.9 44.8 L116 44.9 L116.1 45 L116.3 45.1 L116.4 45.2 L116.5 45.4 L116.7 45.5 L116.8 45.6 L117 45.7 L117.1 45.9 L117.2 46 L117.4 46.2 L117.5 46.3 L117.7 46.4 L117.8 46.6 L117.9 46.7 L118.1 46.9 L118.2 47.1 L118.4 47.2 L118.6 47.6 L118.9 47.9 L119.2 48.2 L119.5 48.6 L120.1 49.3 L120.4 49.7 L120.8 50 L121.1 50.4 L121.2 50.6 L121.4 50.8 L121.6 51 L121.7 51.2 L121.9 51.4 L122.1 51.5 L122.2 51.7 L122.4 51.9 L122.6 52.1 L122.8 52.3 L123 52.5 L123.1 52.7 L123.3 52.8 L123.5 53 L123.7 53.2 L123.9 53.4 L124.1 53.6 L124.3 53.7 L124.7 47 L121.8 43.3 L125.1 38.8 L124.9 38.8 L124.8 38.8 L124.6 38.8 L124.4 38.8 L124.3 38.7 L124.1 38.7 L124 38.7 L123.8 38.7 L123.7 38.7 L123.5 38.6 L123.4 38.6 L123.2 38.6 L123.1 38.5 L122.9 38.5 L122.8 38.5 L122.6 38.4 L122.5 38.4 L122.3 38.3 L122.2 38.3 L122 38.3 L121.9 38.2 L121.7 38.2 L121.6 38.1 L121.4 38 L121.3 38 L121.1 37.9 L121 37.8 L120.8 37.8 L120.7 37.7 L120.5 37.6 L120.3 37.5 L120.2 37.5 L120.1 37.4 L120 37.3 L119.9 37.3 L119.8 37.2 L119.7 37.2 L119.6 37.1 L119.5 37 L119.4 37 L119.3 36.9 L119.2 36.9 L119 36.8 L118.9 36.8 L118.8 36.7 L118.7 36.7 L118.6 36.7 L118.5 36.6 L118.4 36.6 L118.3 36.5 L118.2 36.5 L118.1 36.4 L118 36.4 L117.9 36.4 L117.8 36.4 L117.7 36.3 L117.6 36.3 L117.5 36.3 L117.4 36.2 L117.3 36.2 L117.2 36.2 L117.2 36.2 L117 36.2 L116.9 36.2 L116.9 36.1 L116.8 36.1 L116.7 36.1 L116.6 36.1 L116.5 36.1 L116.4 36.1 L116.3 36.1 L116.2 36.1 L116.1 36.1 L116 36.1 L115.9 36.1 L115.8 36.1 L115.7 36.2 L115.6 36.2 L115.5 36.2 L115.4 36.2 L115.3 36.2 L115.3 36.3 L115.2 36.3 L115.1 36.3 L115 36.3 L114.9 36.4 L114.8 36.4 L114.7 36.4 L114.6 36.5 L114.5 36.5 L114.5 36.6 L114.4 36.6 L114.3 36.7 L114.2 36.7 L114.1 36.8 L114 36.8 L114 35.3 L114.5 32.4 L113.8 31 L112.4 31.6 L112.3 31.5 L112.3 31.4 L112.2 31.2 L112.2 31.1 L112.1 31 L112 30.9 L112 30.8 L111.9 30.7 L111.8 30.6 L111.8 30.5 L111.7 30.4 L111.6 30.4 L111.6 30.3 L111.5 30.2 L111.4 30.1 L111.3 30 L111.3 29.9 L111.2 29.8 L111.1 29.7 L111 29.7 L111 29.6 L110.9 29.5 L110.8 29.4 L110.7 29.3 L110.6 29.2 L110.4 29 L110.2 28.9 L110.1 28.7 L109.8 28.4 L109.6 28.2 L109.4 28.1 L109.3 27.9 L109.1 27.8 L109 27.7 L108.9 27.6 L108.9 27.5 L108.8 27.4 L108.7 27.3 L108.6 27.3 L108.5 27.2 L108.5 27.1 L108.4 27 L108.3 26.9 L108.2 26.8 L108.1 26.7 L108.1 26.6 L108 26.5 L107.9 26.4 L107.8 26.3 L107.8 26.2 L107.7 26.1 L107.6 26 L107.5 25.8 L107.5 25.9 L107.5 26 L107.5 26.1 L107.5 26.2 L107.4 26.4 L107.4 26.6 L107.4 26.8 L107.3 27 L107.3 27.2 L107.2 27.4 L107.2 27.6 L107.1 27.8 L107.1 28 L107 28.2 L107 28.4 L106.9 28.6 L106.8 29 L106.7 28.9 L106.6 28.8 L106.5 28.7 L106.4 28.6 L106.3 28.5 L106.3 28.4 L106.2 28.3 L106.1 28.2 L106 28.1 L105.9 28 L105.8 27.9 L105.7 27.7 L105.6 27.6 L105.5 27.6 L105.4 27.5 L105.3 27.4 L105.2 27.3 L105.1 27.2 L105 27.1 L104.8 27 L104.7 26.9 L104.6 26.8 L104.5 26.7 L104.3 26.6 L104.3 26.6 L104.2 26.5 L104.2 26.5 L104.1 26.5 L104 26.4 L104 26.4 L103.9 26.3 L103.8 26.3 L103.7 26.3 L103.7 26.2 L103.6 26.2 L103.5 26.1 L103.4 26.1 L103.4 26.1 L103.3 26 L103.2 26 L103.3 26.2 L103.3 26.4 L103.4 26.6 L103.4 26.8 L103.5 26.9 L103.5 27.1 L103.5 27.2 L103.5 27.4 L103.5 27.5 L103.5 27.6 L103.5 27.7 L103.5 27.8 L103.5 27.9 L103.5 28 L103.5 28.1 L103.5 28.2 L103.5 28.3 L103.5 28.4 L103.5 28.5 L103.4 28.6 L103.4 28.7 L103.4 28.8 L103.4 28.9 L103.3 29 L103.3 29.1 L103.3 29.2 L103.3 29.3 L103.2 29.4 L103.2 29.5 L103.1 29.5 L103 29.5 L102.9 29.4 L102.8 29.4 L102.8 29.4 L102.7 29.4 L102.6 29.3 L102.5 29.3 L102.4 29.3 L102.3 29.3 L102.2 29.2 L102.1 29.2 L102 29.2 L101.9 29.1 L101.9 29.1 L101.8 29.1 L101.7 29 L101.6 29 L101.5 28.9 L101.4 28.9 L101.3 28.9 L101.2 28.8 L101.2 28.8 L101.1 28.7 L101 28.7 L100.9 28.6 L100.8 28.6 L100.7 28.5 L100.6 28.5 L100.6 28.4 L100.5 28.3 L100.4 28.3 L100.3 28.2 L100.2 28.2 L100.1 28.1 L100.1 28 L100 28 L99.9 27.9 L99.8 27.8 L99.7 27.8 L99.7 27.7 L99.6 27.6 L99.5 27.6 L99.4 27.5 L99.3 27.4 L99.3 27.3 L99.2 27.2 L99.1 27.2 L99 27.1 L98.9 27 L98.9 26.9 L98.8 26.8 L98.7 26.7 L98.6 26.6 L98.6 26.6 L98.5 26.5 L98.4 26.4 L98.3 26.3 L98.3 26.2 L98.2 26.1 L98.1 26 L98 25.9 L98 25.8 L97.9 25.7 L97.8 25.8 z M82 72.8 L82.1 73.2 L82.2 73.5 L82.3 73.8 L82.4 74.2 L82.5 74.5 L82.6 74.9 L82.7 75.2 L82.8 75.5 L82.9 75.9 L83 76.2 L83.1 76.5 L83.3 76.9 L83.4 77.2 L83.5 77.5 L83.6 77.9 L83.7 78.2 L83.9 78.5 L84 78.9 L84.1 79.2 L84.3 79.5 L84.4 79.9 L84.5 80.2 L84.7 80.5 L84.8 80.9 L85 81.2 L85.1 81.6 L85.3 81.9 L85.4 82.2 L85.6 82.6 L85.8 82.9 L85.9 83.2 L86.4 86.3 L85.6 89.2 L85.5 89.2 L85.4 89.2 L85.2 89.1 L85.1 89.1 L85 89.1 L84.9 89.1 L84.8 89.1 L84.6 89.1 L84.5 89 L84.4 89 L84.3 89 L84.2 89 L84 89 L83.9 89 L83.8 89 L83.7 89 L83.6 89 L83.5 89 L83.4 89 L83.2 89 L83.1 89 L83 89 L82.9 89 L82.8 89 L82.7 89 L82.6 89 L82.5 89 L82.3 89.1 L82.2 89.1 L82.1 89.1 L82 89.1 L81.9 89.1 L81.8 89.1 L81.7 89.2 L81.6 89.2 L81.5 89.2 L81.4 89.2 L81.3 89.3 L81.2 89.3 L81.1 89.3 L81 89.4 L80.9 89.4 L80.8 89.4 L80.7 89.5 L80.6 89.5 L80.5 89.5 L80.4 89.6 L80.3 89.6 L80.2 89.7 L80.1 89.7 L80 89.7 L79.9 89.8 L79.8 89.8 L79.7 89.9 L79.7 89.9 L79.6 90 L79.5 90.1 L79.4 90.1 L79.3 90.2 L79.2 90.2 L79.1 90.3 L79 90.3 L79 90.4 L78.9 90.5 L78.8 90.5 L78.7 90.6 L78.6 90.7 L78.5 90.8 L78.5 90.8 L78.4 90.9 L78.3 91 L78.2 91.1 L78.1 91.1 L78 91.2 L78 91.3 L77.9 91.4 L77.8 91.5 L77.7 91.6 L77.7 91.7 L77.6 91.7 L77.5 91.8 L77.4 91.9 L77.4 92 L77.3 92.1 L77.2 92.2 L77.2 92.3 L77.1 92.4 L77 92.5 L76.9 92.6 L76.9 92.7 L76.8 92.8 L76.8 93 L76.7 93.1 L76.6 93.2 L76.6 93.3 L76.5 93.4 L76.4 93.5 L76.4 93.7 L76.3 93.8 L76.3 93.9 L76.2 94 L76.1 94.2 L76.1 94.3 L76 94.4 L76 94.6 L75.9 94.7 L75.9 94.8 L75.8 95 L75.7 95.1 L75.7 95.2 L75.6 95.4 L75.6 95.5 L75.5 95.7 L75.5 95.8 L75.4 96 L75.4 96.1 L75.3 96.3 L75.3 96.4 L75.3 96.6 L75.2 96.8 L75.2 96.9 L75.1 97.1 L75.1 97.2 L75 97.4 L75 97.6 L75 97.7 L74.9 97.9 L74.9 98.1 L74.9 98.3 L74.9 98.5 L74.9 98.7 L75 98.9 L75 99 L75 99.2 L75.1 99.4 L75.1 99.5 L75.2 99.7 L75.2 99.9 L75.3 100 L75.3 100.2 L75.4 100.3 L75.4 100.4 L75.5 100.6 L75.6 100.7 L75.6 100.8 L75.7 101 L75.8 101.1 L75.8 101.2 L75.9 101.3 L76 101.4 L76.1 101.5 L76.2 101.6 L76.3 101.7 L76.4 101.8 L76.5 101.8 L76.6 101.9 L76.7 102 L76.8 102.1 L76.9 102.1 L77 102.2 L77.1 102.2 L77.3 102.3 L77.4 102.3 L77.5 102.4 L77.6 102.4 L77.8 102.5 L77.9 102.5 L78.1 102.5 L78.2 102.5 L78.4 102.5 L78.5 102.6 L78.7 102.6 L78.8 102.6 L78.9 102.6 L79 102.6 L79.1 102.6 L79.1 102.6 L79.2 102.5 L79.3 102.5 L79.4 102.5 L79.5 102.5 L79.6 102.5 L79.6 102.5 L79.7 102.5 L79.8 102.5 L79.9 102.5 L80 102.5 L80.1 102.4 L80.2 102.4 L80.3 102.4 L80.4 102.4 L80.5 102.4 L80.6 102.3 L80.7 102.3 L80.7 102.3 L80.8 102.3 L80.9 102.2 L81 102.2 L81.1 102.2 L81.2 102.2 L81.3 102.1 L81.4 102.1 L81.6 102.1 L81.7 102 L81.8 102 L81.9 102 L82 101.9 L82.1 101.9 L82.2 101.9 L82.3 101.8 L82.4 101.8 L82.1 102.2 L81.8 102.5 L81.6 102.7 L81.4 102.9 L81.3 103.1 L81.1 103.3 L81 103.5 L80.8 103.7 L80.7 103.9 L80.5 104.1 L80.3 104.3 L80.2 104.5 L80.1 104.7 L79.9 104.9 L79.7 105 L79.6 105.2 L79.5 105.4 L79.3 105.6 L79.2 105.8 L79 106 L78.9 106.2 L78.7 106.4 L78.6 106.6 L78.5 106.8 L78.3 107 L78.2 107.2 L78.1 107.4 L77.9 107.6 L77.8 107.8 L77.6 108 L77.5 108.2 L77.4 108.4 L77.3 108.6 L77.1 108.8 L77 109 L76.9 109.2 L76.8 109.4 L76.6 109.6 L76.5 109.8 L76.4 110 L76.3 110.2 L76.2 110.4 L76 110.6 L75.9 110.8 L75.8 111 L75.7 111.2 L75.6 111.4 L75.5 111.6 L75.4 111.8 L75.3 112 L75.2 112.2 L75.1 112.4 L75 112.6 L74.9 112.8 L74.8 113 L74.7 113.3 L74.6 113.5 L74.5 113.7 L74.4 113.9 L74.3 114.1 L74.2 114.3 L74.1 114.5 L70 109.9 L70 108.7 L68.6 107.4 L67.7 108.4 L64.2 105.1 L64.3 101.9 L63.2 98.6 L63.5 96.3 L65.1 95.3 L68.3 84.9 L70.3 81.9 L70.8 80.5 L72.7 77.7 L81.9 72.5 L82 72.8 z M155.8 96.9 L155.7 96.9 L155.6 96.9 L155.5 96.9 L155.4 97 L155.3 97 L155.2 97 L155.1 97 L155 97 L155 97 L154.9 97 L154.8 97.1 L154.7 97.1 L154.7 97.1 L154.6 97.1 L154.5 97.1 L154.5 97.1 L154.4 97.2 L154.3 97.2 L154.3 97.2 L154.2 97.2 L154.2 97.2 L154.1 97.3 L154.1 97.3 L154 97.3 L154 97.3 L153.9 97.3 L153.9 97.3 L153.8 97.4 L153.8 97.4 L153.7 97.4 L153.7 97.4 L153.7 97.5 L153.9 97.4 L154.2 97.3 L154.7 97.2 L155.3 97.1 L155.9 96.9 L155.8 96.9 z M77 82.5 L76.4 83.4 L76.2 83.8 L76 84.3 L75.8 84.8 L75.6 85.1 L75.7 85.1 L75.8 85 L76 84.8 L76.2 84.7 L76.4 84.6 L76.5 84.5 L76.7 84.4 L76.9 84.3 L77.1 84.2 L77.2 84.1 L77.4 84.1 L77.6 84 L77.8 83.9 L78 83.8 L78.2 83.7 L78.3 83.7 L78.5 83.6 L78.7 83.5 L78.9 83.5 L79.1 83.4 L79.1 83.4 L79.1 83.4 L78.9 83 L78.8 82.6 L78.6 82.3 L78.5 81.9 L78.4 81.7 L77 82.5 z M123.3 32.1 L123.3 32 L123.3 32 L123.3 32.1 z" fill-opacity="0.71" />
    <path d="M152.6 34.8 L160.5 51.1 L178.3 53.5 L165.3 66 L168.5 83.7 L152.6 75.1 L136.8 83.7 L140 66 L127 53.5 L144.8 51.1 L152.6 34.8 z" style="fill:#FFFFC9;" />
    <path d="M153 28.6 L153.3 28.6 L153.7 28.7 L154 28.7 L154.4 28.8 L154.7 28.9 L155 29.1 L155.4 29.2 L155.7 29.4 L156 29.5 L156.3 29.7 L156.5 30 L156.8 30.2 L157.1 30.4 L157.3 30.7 L157.5 30.9 L157.7 31.2 L157.9 31.5 L158.1 31.8 L158.3 32.1 L164.6 45.3 L179.2 47.3 L179.5 47.4 L179.9 47.4 L180.2 47.5 L180.5 47.6 L180.8 47.8 L181.2 47.9 L181.5 48.1 L181.8 48.3 L182.1 48.5 L182.3 48.7 L182.6 48.9 L182.9 49.2 L183.1 49.4 L183.3 49.7 L183.5 50 L183.7 50.3 L183.9 50.6 L184 50.9 L184.2 51.2 L184.3 51.6 L184.4 51.9 L184.5 52.2 L184.5 52.6 L184.6 52.9 L184.6 53.3 L184.6 53.6 L184.6 54 L184.5 54.3 L184.5 54.7 L184.4 55 L184.3 55.4 L184.2 55.7 L184 56 L183.9 56.3 L183.7 56.6 L183.5 56.9 L183.3 57.2 L183.1 57.5 L182.9 57.8 L182.6 58 L172.1 68.1 L174.7 82.6 L174.7 82.9 L174.8 83.3 L174.8 83.6 L174.8 84 L174.7 84.3 L174.7 84.7 L174.6 85 L174.5 85.3 L174.4 85.7 L174.3 86 L174.2 86.3 L174 86.6 L173.8 86.9 L173.7 87.2 L173.4 87.5 L173.2 87.8 L173 88.1 L172.7 88.3 L172.5 88.5 L172.2 88.7 L171.9 88.9 L171.6 89.1 L171.3 89.3 L171 89.4 L170.7 89.6 L170.3 89.7 L170 89.8 L169.6 89.8 L169.3 89.9 L168.9 89.9 L168.6 89.9 L168.2 89.9 L167.9 89.9 L167.5 89.9 L167.2 89.8 L166.9 89.7 L166.5 89.6 L166.2 89.5 L165.9 89.3 L165.6 89.2 L152.6 82.2 L139.7 89.2 L139.4 89.3 L139.1 89.5 L138.8 89.6 L138.4 89.7 L138.1 89.8 L137.8 89.9 L137.4 89.9 L137.1 89.9 L136.7 89.9 L136.4 89.9 L136 89.9 L135.7 89.8 L135.3 89.8 L135 89.7 L134.6 89.6 L134.3 89.4 L134 89.3 L133.7 89.1 L133.4 88.9 L133.1 88.7 L132.8 88.5 L132.6 88.3 L132.3 88.1 L132.1 87.8 L131.8 87.5 L131.6 87.2 L131.5 86.9 L131.3 86.6 L131.1 86.3 L131 86 L130.9 85.7 L130.8 85.3 L130.7 85 L130.6 84.7 L130.6 84.3 L130.5 84 L130.5 83.6 L130.5 83.3 L130.6 82.9 L130.6 82.6 L133.2 68.1 L122.7 58 L122.4 57.8 L122.2 57.5 L122 57.2 L121.8 56.9 L121.6 56.6 L121.4 56.3 L121.3 56 L121.1 55.7 L121 55.4 L120.9 55 L120.8 54.7 L120.8 54.3 L120.7 54 L120.7 53.6 L120.7 53.3 L120.7 52.9 L120.8 52.6 L120.8 52.2 L120.9 51.9 L121 51.6 L121.1 51.2 L121.3 50.9 L121.4 50.6 L121.6 50.3 L121.8 50 L122 49.7 L122.2 49.4 L122.4 49.2 L122.7 48.9 L123 48.7 L123.2 48.5 L123.5 48.3 L123.8 48.1 L124.1 47.9 L124.5 47.8 L124.8 47.6 L125.1 47.5 L125.4 47.4 L125.8 47.4 L126.1 47.3 L140.7 45.3 L147 32.1 L147.2 31.8 L147.4 31.5 L147.6 31.2 L147.8 30.9 L148 30.7 L148.2 30.4 L148.5 30.2 L148.8 30 L149 29.7 L149.3 29.5 L149.6 29.4 L149.9 29.2 L150.3 29.1 L150.6 28.9 L150.9 28.8 L151.3 28.7 L151.6 28.7 L152 28.6 L152.3 28.6 L152.6 28.6 L153 28.6 z M144.8 51.1 L127 53.5 L140 66 L136.8 83.7 L152.6 75.1 L168.5 83.7 L165.3 66 L178.3 53.5 L160.5 51.1 L152.6 34.8 L144.8 51.1 z" fill-opacity="0.71" />
	
    <defs>
        <radialGradient cx="101.6" cy="101.6" r="100.4" gradientUnits="userSpaceOnUse" id="Radial">
			<stop offset="0%" stop-color="#FFE166" stop-opacity="1" />
			<stop offset="100%" stop-color="#CE8C13" stop-opacity="1" />
		</radialGradient>
    </defs>
	
</svg>