<?xml version="1.0" encoding="utf-8"?>
<!DOCTYPE svg PUBLIC "-//W3C//DTD SVG 1.1//EN" "http://www.w3.org/Graphics/SVG/1.1/DTD/svg11.dtd">
<svg version="1.1" xmlns="http://www.w3.org/2000/svg" xmlns:xlink="http://www.w3.org/1999/xlink" xmlns:xml="http://www.w3.org/XML/1998/namespace" xmlns:serif="http://www.serif.com/" width="204" height="204" viewBox="0, 0, 204, 204" xml:space="preserve" fill-rule="evenodd" stroke-linecap="round" stroke-linejoin="round" stroke-miterlimit="1.5" style="clip-rule:evenodd;">

	<circle cx="101.6" cy="101.6" r="100.4" stroke-width="2.49px" style="fill:url(#Radial);stroke:black;" />
    <circle cx="101.6" cy="101.6" r="69" stroke-width="6px" stroke-opacity="0.5" style="fill:none;stroke:#FFFFC7;" />
    <path d="M60.5 171.8 L63.4 165.1 L66.2 160 L64.9 158.6 L65.6 155.2 L37.3 140.3 C52.3 113.9 75 105.3 90.1 83.9 L93.3 82.6 L93.8 74 L91.1 73.4 L90.7 69.3 C89.2 73.6 86.9 77.8 84.1 81.7 C79.5 83.6 74.9 84.7 70.4 84.9 L69.2 84.2 L70.9 91.9 L73.4 91.2 L73.9 94.4 L66.1 96.1 L65.2 93.4 L67.7 92.2 L66.3 85 L64.4 85.5 L63.4 82.2 L61.7 82 L59.2 74.4 L59 71.7 L60.4 70.1 L58.5 60.4 L60 58.9 L58.4 52.2 L55.7 52.5 L55 49.7 L58.1 48.9 L56.8 43.9 L53.9 44.4 L53.3 41.4 L56.1 40.6 L55.4 38.1 L59 37.8 L59.5 40.5 L62.5 40.3 L62.8 43 L60 43.3 L60.9 47.3 L64.7 47.3 L65 49.7 L61.4 50.9 L63.1 58.1 L65.2 59 L66.8 66.6 L68.8 68.5 L70.6 72.2 L76.1 71.9 L77.9 69 L80.1 66.1 L84.5 59.2 L84.7 57.4 L87.1 52.2 L88.5 51.1 L97.7 50.3 L95 42.4 C95.7 40.9 97.1 39.6 99.1 38.6 C98.8 37.1 98.5 35.7 98.2 34.3 C97.2 31.5 97.9 28.7 99.5 25.9 C101.9 23.4 105.1 23 108.3 22.8 C111.6 23.4 114.1 25 115.6 27.9 C116.6 29.4 116.8 31.1 117.1 32.8 L118.2 33.4 C118.1 34.8 117.9 36 117.5 37.2 C120.7 38.9 123.5 40.9 125.8 43.3 C123.9 45.1 122.5 47.5 121.5 50.6 L127.9 50.8 L130.4 51.7 L134.2 56.5 L140.9 60.6 L144.5 65.5 L148 67.9 L150.9 72.8 L152.1 73.8 L154.5 85.4 L152.9 87.4 L155 94.5 L153.2 97.9 L151 99.8 L150.7 102.5 L149.3 103.9 L150.5 107.7 L150.1 109 L150.7 111.4 L151.5 115.5 L150.1 116.1 L148 112.9 L146.7 113.6 L147 117.1 L145.5 117.9 L143.6 115 L142.8 115.2 L141.7 112 L140.7 112 L134.7 96.6 L136.1 95 L134.7 94.9 L133.9 92 L141.3 88.7 L142.3 91.5 L143.4 92.8 L144.8 92.2 L145 89.5 L143.2 89.5 L140.7 81.4 L140.1 77.7 L139.7 75.4 L137.4 74.6 L135.8 71.7 L129.9 67.6 L127.1 65.2 L124.5 73.1 L121.8 75.5 L121 85.5 L123.3 88.5 C125.1 100 128.9 111.1 133.7 122.1 C140.5 132.9 145.6 144.7 150.2 156.7 L149 158 L151 162.3 L153.7 171.3 L145.6 172.4 L136.1 172.3 L135.9 168.8 L137.5 165.1 L136.3 162.7 L135.8 160.2 C130.1 161.4 126.7 164.8 122 164.7 C106.4 165 91.8 164.2 78.4 161.5 L78.2 171.6 L60.5 171.8 z" style="fill:#FFFFC9;" />
    <path d="M109 16.6 L109.5 16.7 L109.7 16.7 L109.9 16.8 L110.1 16.8 L110.3 16.9 L110.5 16.9 L110.7 17 L111 17 L111.2 17.1 L111.4 17.1 L111.6 17.2 L111.8 17.3 L112 17.3 L112.2 17.4 L112.4 17.5 L112.7 17.6 L112.9 17.6 L113.1 17.7 L113.3 17.8 L113.5 17.9 L113.7 18 L113.9 18.1 L114.1 18.2 L114.3 18.3 L114.5 18.4 L114.7 18.5 L114.9 18.6 L115.1 18.7 L115.3 18.8 L115.5 18.9 L115.7 19.1 L115.9 19.2 L116.1 19.3 L116.3 19.5 L116.5 19.6 L116.7 19.7 L116.9 19.9 L117.1 20 L117.3 20.2 L117.4 20.3 L117.6 20.5 L117.8 20.6 L118 20.8 L118.1 21 L118.3 21.1 L118.5 21.3 L118.7 21.5 L118.8 21.7 L119 21.8 L119.1 22 L119.3 22.2 L119.5 22.4 L119.6 22.6 L119.7 22.8 L119.9 23 L120 23.2 L120.2 23.4 L120.3 23.6 L120.5 23.8 L120.6 24 L120.7 24.2 L120.8 24.4 L121 24.6 L121.1 24.8 L121 24.8 L121.1 24.9 L121.2 25 L121.3 25.2 L121.3 25.3 L121.4 25.4 L121.5 25.6 L121.6 25.7 L121.6 25.9 L121.7 26 L121.7 26.1 L121.8 26.3 L121.9 26.5 L122 26.8 L122.1 26.9 L122.1 27.1 L122.2 27.3 L122.3 27.6 L122.4 27.8 L122.5 28.1 L122.5 28.3 L122.6 28.6 L122.7 28.8 L122.7 29 L122.7 29.1 L122.8 29.2 L123.2 29.6 L123.5 30.1 L123.8 30.6 L124 31.1 L124.2 31.6 L124.3 32.2 L124.4 32.8 L124.4 33.3 L124.4 33.9 L124.4 34.1 L124.5 34.1 L124.8 34.3 L125.1 34.5 L125.4 34.8 L125.7 35 L126 35.2 L126.3 35.4 L126.6 35.7 L126.9 35.9 L127.2 36.1 L127.5 36.4 L127.8 36.6 L128.1 36.9 L128.3 37.1 L128.6 37.4 L128.9 37.6 L129.2 37.9 L129.5 38.1 L129.7 38.4 L130 38.7 L130.3 38.9 L130.6 39.4 L131 39.8 L131.3 40.3 L131.5 40.8 L131.7 41.4 L131.9 41.9 L132 42.5 L132 43.1 L132 43.7 L132 44.2 L131.9 44.8 L131.7 45.4 L131.6 45.5 L132.6 45.9 L133.1 46.1 L133.6 46.3 L134.1 46.7 L134.5 47 L134.9 47.4 L135.3 47.8 L138.4 51.7 L144.1 55.3 L144.6 55.6 L145.1 56 L145.5 56.4 L145.9 56.9 L148.9 60.9 L151.5 62.7 L152 63.1 L152.4 63.4 L152.8 63.9 L153.1 64.3 L153.4 64.8 L155.6 68.6 L155.9 68.8 L156.3 69.1 L156.7 69.5 L157.1 70 L157.4 70.4 L157.7 70.9 L157.9 71.4 L158.1 72 L158.2 72.5 L160.6 84.1 L160.7 84.7 L160.8 85.3 L160.7 85.9 L160.7 86.5 L160.5 87 L160.3 87.6 L160.1 88.1 L159.8 88.7 L159.8 88.7 L161 92.8 L161.1 93.4 L161.2 94 L161.2 94.6 L161.2 95.2 L161.1 95.8 L161 96.3 L160.8 96.9 L160.5 97.4 L158.8 100.8 L158.5 101.3 L158.1 101.8 L157.7 102.2 L157.3 102.6 L156.9 102.9 L156.9 103.2 L156.8 103.8 L156.6 104.4 L156.4 104.9 L156.3 105.2 L156.5 105.7 L156.6 106.3 L156.7 106.9 L156.8 107.5 L156.8 108.1 L156.7 108.7 L156.6 109.2 L156.8 110 L157.6 114.3 L157.7 114.9 L157.7 115.5 L157.7 116.1 L157.6 116.7 L157.5 117.3 L157.3 117.8 L157 118.4 L156.7 118.9 L156.4 119.4 L156 119.8 L155.5 120.2 L155.1 120.6 L154.6 120.9 L154 121.2 L152.6 121.8 L152 122 L151.5 122.2 L150.9 122.3 L150.4 122.4 L150.3 122.4 L149.8 122.7 L148.3 123.4 L147.7 123.7 L147.1 123.9 L146.5 124 L146 124.1 L145.3 124.1 L144.7 124.1 L144.1 124 L143.6 123.8 L143 123.6 L142.5 123.3 L141.9 123 L141.5 122.7 L141.2 122.4 L141.3 122.6 L141.6 123.1 L141.9 123.6 L142.2 124.2 L142.5 124.7 L142.8 125.3 L143.1 125.8 L143.4 126.4 L143.7 126.9 L144 127.4 L144.3 128 L144.6 128.6 L144.9 129.1 L145.2 129.7 L145.4 130.2 L145.7 130.8 L146 131.3 L146.3 131.9 L146.6 132.4 L146.8 133 L147.1 133.5 L147.4 134.1 L147.6 134.6 L147.9 135.2 L148.2 135.8 L148.4 136.3 L148.7 136.9 L148.9 137.4 L149.2 138 L149.5 138.6 L149.7 139.1 L150 139.7 L150.2 140.3 L150.5 140.8 L150.7 141.4 L151 141.9 L151.2 142.5 L151.4 143.1 L151.7 143.6 L151.9 144.2 L152.2 144.8 L152.4 145.4 L152.6 145.9 L152.9 146.5 L153.1 147.1 L153.3 147.6 L153.6 148.2 L153.8 148.8 L154 149.3 L154.3 149.9 L154.5 150.5 L154.7 151.1 L154.9 151.6 L155.2 152.2 L155.4 152.8 L155.6 153.3 L155.8 153.9 L156 154.5 L156.2 155 L156.4 155.6 L156.4 156.2 L156.5 156.8 L156.4 157.4 L156.3 158 L156.2 158.6 L156.2 158.6 L156.6 159.6 L156.8 160 L157 160.5 L159.7 169.5 L159.8 170.1 L159.9 170.7 L160 171.3 L159.9 171.9 L159.8 172.5 L159.7 173.1 L159.5 173.6 L159.3 174.2 L159 174.7 L158.6 175.2 L158.2 175.6 L157.8 176.1 L157.3 176.4 L156.8 176.7 L156.3 177 L155.7 177.2 L155.1 177.4 L154.6 177.5 L146.5 178.6 L146 178.7 L145.5 178.7 L136 178.5 L135.4 178.5 L134.8 178.4 L134.3 178.2 L133.7 178 L133.2 177.8 L132.7 177.5 L132.2 177.1 L131.7 176.8 L131.3 176.3 L131 175.9 L130.7 175.4 L130.4 174.8 L130.2 174.3 L130 173.7 L129.9 173.1 L129.9 172.6 L129.7 169.2 L129.5 169.3 L129.3 169.4 L129 169.5 L128.8 169.6 L128.5 169.7 L128.2 169.8 L128 169.9 L127.7 170 L127.4 170.1 L127.3 170.1 L127.1 170.2 L127 170.2 L126.8 170.2 L126.7 170.3 L126.5 170.3 L126.4 170.4 L126.2 170.4 L126.1 170.4 L125.9 170.5 L125.8 170.5 L125.6 170.5 L125.5 170.6 L125.3 170.6 L125.1 170.6 L125 170.7 L124.8 170.7 L124.6 170.7 L124.5 170.7 L124.3 170.8 L124.1 170.8 L124 170.8 L123.8 170.8 L123.6 170.8 L123.4 170.9 L123.3 170.9 L123.1 170.9 L122.9 170.9 L122.7 170.9 L122.6 170.9 L122.4 170.9 L122.2 170.9 L122 170.9 L122 170.9 L121.4 170.9 L120.6 170.9 L119.9 170.9 L119.1 170.9 L118.4 171 L117.7 171 L116.9 171 L116.2 171 L115.5 171 L114.7 171 L114 171 L113.3 170.9 L112.5 170.9 L111.8 170.9 L111.1 170.9 L110.4 170.9 L109.7 170.9 L108.9 170.9 L108.2 170.9 L107.5 170.8 L106.8 170.8 L106.1 170.8 L105.3 170.8 L104.6 170.7 L103.9 170.7 L103.2 170.7 L102.5 170.6 L101.8 170.6 L101.1 170.5 L100.4 170.5 L99.7 170.5 L99 170.4 L98.2 170.4 L97.5 170.3 L96.8 170.3 L96.1 170.2 L95.5 170.2 L94.7 170.1 L94.1 170 L93.4 170 L92.7 169.9 L92 169.8 L91.3 169.8 L90.6 169.7 L89.9 169.6 L89.2 169.5 L88.5 169.4 L87.9 169.3 L87.2 169.3 L86.5 169.2 L85.8 169.1 L85.1 169 L84.5 168.9 L84.4 171.7 L84.4 172.3 L84.3 172.9 L84.2 173.5 L84 174.1 L83.7 174.6 L83.4 175.1 L83 175.6 L82.6 176.1 L82.2 176.5 L81.7 176.8 L81.2 177.1 L80.6 177.4 L80 177.6 L79.5 177.8 L78.9 177.8 L78.3 177.9 L60.6 178.1 L60 178 L59.4 177.9 L58.8 177.8 L58.2 177.6 L57.7 177.4 L57.2 177.1 L56.7 176.8 L56.3 176.4 L55.8 176 L55.5 175.5 L55.1 175 L54.9 174.5 L54.6 174 L54.5 173.4 L54.3 172.8 L54.3 172.2 L54.2 171.6 L54.3 171 L54.4 170.5 L54.5 169.9 L54.8 169.3 L57.6 162.7 L57.8 162.4 L57.9 162.1 L58.9 160.3 L58.8 159.7 L58.7 159.1 L58.7 158.7 L34.3 145.8 L33.8 145.5 L33.3 145.2 L32.9 144.8 L32.5 144.3 L32.1 143.9 L31.8 143.4 L31.6 142.9 L31.3 142.3 L31.2 141.7 L31.1 141.2 L31 140.6 L31 140 L31.1 139.4 L31.2 138.8 L31.3 138.2 L31.6 137.7 L31.8 137.2 L32 136.9 L32.2 136.5 L32.4 136.2 L32.6 135.9 L32.8 135.5 L33 135.2 L33.2 134.9 L33.4 134.6 L33.6 134.3 L33.8 134 L33.9 133.6 L34.1 133.3 L34.3 133 L34.5 132.7 L34.7 132.4 L34.9 132.1 L35.1 131.8 L35.3 131.5 L35.5 131.2 L35.7 130.9 L35.9 130.6 L36.2 130.3 L36.4 130 L36.6 129.7 L36.8 129.4 L37 129.1 L37.2 128.8 L37.4 128.5 L37.6 128.3 L37.8 128 L38 127.7 L38.2 127.4 L38.4 127.1 L38.6 126.8 L38.9 126.6 L39.1 126.3 L39.3 126 L39.5 125.7 L39.7 125.5 L39.9 125.2 L40.1 124.9 L40.3 124.7 L40.6 124.4 L40.8 124.1 L41 123.9 L41.2 123.6 L41.4 123.3 L41.6 123.1 L41.9 122.8 L42.1 122.6 L42.3 122.3 L42.5 122.1 L42.7 121.8 L42.9 121.5 L43.2 121.3 L43.4 121 L43.6 120.8 L43.8 120.5 L44.1 120.3 L44.3 120.1 L44.5 119.8 L44.7 119.6 L44.9 119.3 L45.2 119.1 L45.4 118.8 L45.6 118.6 L45.8 118.4 L46.1 118.1 L46.3 117.9 L46.5 117.7 L46.7 117.4 L47 117.2 L47.2 117 L47.4 116.7 L47.6 116.5 L47.8 116.3 L48.1 116 L48.3 115.8 L48.7 115.4 L49.2 114.9 L49.6 114.5 L50.1 114 L50.6 113.6 L51 113.2 L51.5 112.7 L51.9 112.3 L52.4 111.9 L52.8 111.5 L53.3 111 L53.7 110.6 L54.2 110.2 L54.6 109.8 L55.1 109.4 L55.5 109 L56 108.6 L56.5 108.2 L56.9 107.8 L57.4 107.4 L57.8 107 L58.3 106.6 L58.7 106.2 L59.2 105.8 L59.6 105.5 L60.5 104.7 L61.4 103.9 L62.3 103.2 L63.2 102.4 L63.8 101.9 L63.4 101.7 L62.9 101.4 L62.4 101.1 L61.9 100.7 L61.5 100.3 L61.1 99.8 L60.8 99.3 L60.5 98.8 L60.3 98.2 L59.3 95.5 L59.1 94.9 L59 94.3 L59 93.7 L58.9 93.1 L59 92.5 L59.1 92 L59.3 91.4 L59.5 90.8 L59.8 90.3 L60 89.9 L59.9 89.8 L59.5 89.4 L59.1 88.9 L58.8 88.3 L58.6 87.8 L58.4 87.3 L58.3 87.3 L57.8 86.9 L57.4 86.5 L57 86.1 L56.6 85.6 L56.3 85.1 L56 84.6 L55.8 84 L53.2 76.4 L53.1 75.8 L53 75.3 L52.9 74.8 L52.8 72.1 L52.8 71.5 L52.8 71 L52.9 70.4 L53 69.9 L53.2 69.4 L53.4 68.9 L53.7 68.4 L53.7 68.4 L52.4 61.6 L52.3 61.1 L52.3 60.5 L52.3 59.9 L52.4 59.3 L52.5 58.8 L52.7 58.2 L52.8 58 L52.5 57.9 L52.1 57.6 L51.6 57.2 L51.2 56.9 L50.8 56.4 L50.5 56 L50.2 55.5 L49.9 54.9 L49.7 54.4 L49.6 53.9 L48.9 51 L48.8 50.4 L48.8 49.8 L48.8 49.2 L48.9 48.6 L49 48.2 L48.7 47.9 L48.4 47.4 L48.2 46.8 L48 46.3 L47.8 45.7 L47.2 42.7 L47.1 42.1 L47.1 41.5 L47.1 40.9 L47.1 40.4 L47.3 39.8 L47.4 39.2 L47.7 38.7 L48 38.2 L48.3 37.7 L48.7 37.2 L49.1 36.8 L49.3 36.6 L49.3 36.5 L49.5 35.9 L49.7 35.4 L50 34.8 L50.3 34.4 L50.7 33.9 L51.1 33.5 L51.6 33.1 L52.1 32.8 L52.6 32.5 L53.1 32.2 L53.7 32.1 L54.2 31.9 L54.8 31.8 L58.5 31.5 L59 31.5 L59.6 31.5 L60.2 31.6 L60.8 31.8 L61.3 31.9 L61.8 32.2 L62.3 32.5 L62.8 32.8 L63.3 33.2 L63.7 33.6 L64 34 L64.2 34.3 L64.5 34.4 L65 34.6 L65.6 34.8 L66.1 35.2 L66.5 35.5 L67 35.9 L67.4 36.4 L67.7 36.8 L68 37.3 L68.3 37.9 L68.5 38.4 L68.6 39 L68.7 39.6 L69 42.3 L69.1 42.8 L69.5 43.2 L69.8 43.7 L70.2 44.2 L70.4 44.7 L70.6 45.3 L70.8 45.9 L70.9 46.4 L71.2 48.8 L71.3 49.4 L71.3 50 L71.2 50.5 L71.1 51.1 L71 51.6 L70.8 52.2 L70.5 52.7 L70.2 53.2 L69.9 53.6 L69.5 54.1 L69.2 54.3 L69.3 54.3 L69.7 54.7 L70.1 55.1 L70.4 55.6 L70.7 56.1 L71 56.6 L71.2 57.2 L71.3 57.7 L72.5 63.4 L73.1 63.9 L73.5 64.4 L73.5 64.4 L75 62.5 L78.5 57.1 L78.5 56.9 L78.5 56.3 L78.7 55.8 L78.8 55.3 L79 54.8 L81.4 49.6 L81.7 49.1 L82 48.6 L82.4 48.1 L82.8 47.7 L83.3 47.3 L84.7 46.2 L85.2 45.8 L85.7 45.5 L86.2 45.3 L86.8 45.1 L87.4 44.9 L88 44.9 L89.2 44.8 L89.1 44.4 L88.9 43.8 L88.8 43.3 L88.8 42.8 L88.8 42.2 L88.8 41.6 L88.9 41.1 L89 40.6 L89.2 40 L89.4 39.5 L89.5 39.4 L89.6 39.3 L89.6 39.2 L89.7 39 L89.8 38.9 L89.9 38.8 L89.9 38.6 L90 38.5 L90.1 38.4 L90.2 38.2 L90.3 38.1 L90.4 38 L90.5 37.9 L90.6 37.7 L90.6 37.6 L90.7 37.5 L90.8 37.4 L90.9 37.2 L91 37.1 L91.1 37 L91.2 36.9 L91.3 36.8 L91.4 36.7 L91.5 36.6 L91.6 36.4 L91.7 36.3 L91.8 36.2 L91.9 36.1 L92 36 L92.1 35.9 L92.1 35.7 L92 35.5 L91.9 35.2 L91.9 35 L91.8 34.7 L91.8 34.5 L91.7 34.3 L91.7 34 L91.6 33.8 L91.6 33.6 L91.6 33.3 L91.5 33.1 L91.5 32.8 L91.5 32.6 L91.5 32.4 L91.5 32.1 L91.5 31.9 L91.5 31.7 L91.5 31.4 L91.5 31.2 L91.5 31 L91.5 30.7 L91.5 30.5 L91.5 30.3 L91.6 30.1 L91.6 29.8 L91.6 29.6 L91.6 29.4 L91.7 29.2 L91.7 29 L91.7 28.7 L91.8 28.5 L91.8 28.3 L91.9 28.1 L91.9 27.9 L92 27.7 L92 27.5 L92.1 27.3 L92.2 27.1 L92.2 26.9 L92.3 26.7 L92.4 26.5 L92.4 26.3 L92.5 26.1 L92.6 25.9 L92.6 25.7 L92.7 25.5 L92.8 25.3 L92.9 25.2 L92.9 25 L93 24.8 L93.1 24.6 L93.2 24.4 L93.3 24.2 L93.4 24.1 L93.4 23.9 L93.5 23.7 L93.6 23.5 L93.7 23.4 L93.8 23.2 L93.9 23 L94 22.9 L94.3 22.4 L94.6 21.9 L95 21.4 L95.2 21.3 L95.4 21.1 L95.6 20.9 L95.8 20.7 L96 20.6 L96.2 20.4 L96.4 20.2 L96.6 20.1 L96.8 19.9 L97 19.7 L97.2 19.6 L97.5 19.5 L97.7 19.3 L97.9 19.2 L98.1 19 L98.3 18.9 L98.6 18.8 L98.8 18.7 L99 18.6 L99.2 18.5 L99.4 18.4 L99.7 18.3 L99.9 18.1 L100.1 18.1 L100.3 18 L100.6 17.9 L100.8 17.8 L101 17.7 L101.2 17.7 L101.4 17.6 L101.6 17.5 L101.9 17.5 L102.1 17.4 L102.3 17.3 L102.5 17.3 L102.7 17.2 L102.9 17.2 L103.1 17.1 L103.4 17.1 L103.6 17.1 L103.8 17 L104 17 L104.2 17 L104.4 16.9 L104.6 16.9 L104.8 16.9 L105 16.8 L105.2 16.8 L105.4 16.8 L105.6 16.8 L105.8 16.8 L105.9 16.7 L106.1 16.7 L106.3 16.7 L106.5 16.7 L106.7 16.7 L107.1 16.6 L107.4 16.6 L107.8 16.6 L108.1 16.6 L108.6 16.6 L109 16.6 z M108 22.9 L107.7 22.9 L107.4 22.9 L107.1 22.9 L107 22.9 L106.8 22.9 L106.7 22.9 L106.5 23 L106.4 23 L106.2 23 L106.1 23 L105.9 23 L105.8 23 L105.6 23.1 L105.5 23.1 L105.3 23.1 L105.2 23.1 L105 23.2 L104.9 23.2 L104.7 23.2 L104.6 23.2 L104.4 23.3 L104.3 23.3 L104.1 23.3 L104 23.4 L103.9 23.4 L103.7 23.4 L103.6 23.5 L103.4 23.5 L103.3 23.6 L103.2 23.6 L103 23.6 L102.9 23.7 L102.7 23.7 L102.6 23.8 L102.5 23.9 L102.3 23.9 L102.2 24 L102.1 24 L101.9 24.1 L101.8 24.2 L101.7 24.2 L101.5 24.3 L101.4 24.4 L101.3 24.4 L101.1 24.5 L101 24.6 L100.9 24.7 L100.8 24.8 L100.6 24.8 L100.5 24.9 L100.4 25 L100.3 25.1 L100.2 25.2 L100 25.3 L99.9 25.4 L99.8 25.5 L99.7 25.6 L99.6 25.7 L99.5 25.9 L99.4 26 L99.3 26.1 L99.2 26.3 L99.2 26.4 L99.1 26.5 L99 26.7 L99 26.8 L98.9 26.9 L98.9 27 L98.8 27.2 L98.7 27.3 L98.7 27.4 L98.6 27.6 L98.6 27.7 L98.5 27.8 L98.5 28 L98.4 28.1 L98.4 28.2 L98.3 28.4 L98.3 28.5 L98.2 28.6 L98.2 28.8 L98.1 28.9 L98.1 29 L98.1 29.1 L98 29.3 L98 29.4 L98 29.5 L97.9 29.7 L97.9 29.8 L97.9 29.9 L97.9 30.1 L97.8 30.2 L97.8 30.3 L97.8 30.5 L97.8 30.6 L97.8 30.7 L97.8 30.9 L97.7 31 L97.7 31.1 L97.7 31.2 L97.7 31.4 L97.7 31.5 L97.7 31.6 L97.7 31.8 L97.7 31.9 L97.7 32 L97.7 32.2 L97.7 32.3 L97.8 32.4 L97.8 32.6 L97.8 32.7 L97.8 32.8 L97.8 33 L97.9 33.1 L97.9 33.2 L97.9 33.3 L98 33.5 L98 33.6 L98 33.7 L98.1 33.9 L98.1 34 L98.1 34.1 L98.2 34.3 L98.7 36.4 L98.9 37.5 L99.1 38.6 L99 38.6 L98.8 38.7 L98.6 38.9 L98.4 39 L98.2 39.1 L98.2 39.1 L98.1 39.2 L98 39.2 L97.9 39.3 L97.8 39.3 L97.7 39.4 L97.7 39.4 L97.6 39.5 L97.5 39.5 L97.4 39.6 L97.4 39.7 L97.3 39.7 L97.2 39.8 L97.1 39.8 L97.1 39.9 L97 39.9 L96.9 40 L96.9 40.1 L96.8 40.1 L96.7 40.2 L96.7 40.2 L96.6 40.3 L96.5 40.4 L96.5 40.4 L96.4 40.5 L96.3 40.5 L96.3 40.6 L96.2 40.7 L96.2 40.7 L96.1 40.8 L96.1 40.8 L96 40.9 L96 41 L95.9 41 L95.8 41.1 L95.8 41.2 L95.7 41.2 L95.7 41.3 L95.6 41.4 L95.6 41.4 L95.5 41.5 L95.5 41.5 L95.5 41.6 L95.4 41.7 L95.4 41.7 L95.3 41.8 L95.3 41.9 L95.2 41.9 L95.2 42 L95.2 42.1 L95.1 42.1 L95.1 42.2 L95.1 42.3 L95 42.4 L97.7 50.3 L88.5 51.1 L87.1 52.2 L84.7 57.4 L84.5 59.2 L80.1 66.1 L77.9 69 L76.1 71.9 L70.6 72.2 L68.8 68.5 L66.8 66.6 L65.2 59 L63.1 58.1 L61.4 50.9 L65 49.7 L64.7 47.3 L60.9 47.3 L60 43.3 L62.8 43 L62.5 40.3 L59.5 40.5 L59 37.8 L55.4 38.1 L56.2 40.6 L53.3 41.4 L53.9 44.4 L56.8 43.9 L58.1 48.9 L55 49.7 L55.7 52.5 L58.4 52.2 L60 58.9 L58.5 60.4 L60.4 70.1 L59 71.7 L59.2 74.4 L61.7 82 L63.4 82.2 L64.4 85.5 L66.3 85 L67.7 92.2 L65.2 93.4 L66.1 96.1 L73.9 94.4 L73.4 91.2 L70.9 91.9 L69.2 84.2 L70.4 84.9 L70.6 84.9 L70.8 84.9 L71 84.8 L71.2 84.8 L71.4 84.8 L71.7 84.8 L71.9 84.8 L72.1 84.8 L72.3 84.7 L72.5 84.7 L72.7 84.7 L72.9 84.7 L73.1 84.6 L73.4 84.6 L73.6 84.6 L73.8 84.6 L74 84.5 L74.2 84.5 L74.4 84.5 L74.6 84.4 L74.9 84.4 L75.1 84.3 L75.3 84.3 L75.5 84.3 L75.7 84.2 L75.9 84.2 L76.1 84.2 L76.4 84.1 L76.6 84.1 L76.8 84 L77 84 L77.2 83.9 L77.4 83.9 L77.6 83.8 L77.9 83.8 L78.1 83.7 L78.3 83.7 L78.5 83.6 L78.7 83.5 L78.9 83.5 L79.1 83.4 L79.4 83.4 L79.6 83.3 L79.8 83.2 L80 83.2 L80.2 83.1 L80.4 83 L80.6 83 L80.9 82.9 L81.1 82.8 L81.3 82.7 L81.5 82.7 L81.7 82.6 L81.9 82.5 L82.1 82.4 L82.3 82.4 L82.6 82.3 L82.8 82.2 L83 82.1 L83.2 82 L83.4 82 L83.6 81.9 L83.8 81.8 L84.1 81.7 L84.2 81.5 L84.3 81.3 L84.5 81.1 L84.6 81 L84.7 80.8 L84.8 80.6 L85 80.4 L85.1 80.2 L85.2 80 L85.4 79.8 L85.5 79.6 L85.6 79.5 L85.7 79.3 L85.8 79.1 L86 78.9 L86.1 78.7 L86.2 78.5 L86.3 78.3 L86.4 78.1 L86.5 77.9 L86.7 77.8 L86.8 77.6 L86.9 77.4 L87 77.2 L87.1 77 L87.2 76.8 L87.3 76.6 L87.4 76.4 L87.6 76.2 L87.7 76 L87.8 75.8 L87.9 75.6 L88 75.4 L88.1 75.3 L88.2 75.1 L88.3 74.9 L88.4 74.7 L88.5 74.5 L88.6 74.3 L88.7 74.1 L88.8 73.9 L88.9 73.7 L89 73.5 L89.1 73.3 L89.2 73.1 L89.3 72.9 L89.3 72.7 L89.4 72.5 L89.5 72.3 L89.6 72.1 L89.7 71.9 L89.8 71.7 L89.9 71.5 L90 71.3 L90 71.1 L90.1 70.9 L90.2 70.7 L90.3 70.5 L90.4 70.3 L90.4 70.1 L90.5 69.9 L90.6 69.7 L90.7 69.5 L90.7 69.3 L91.1 73.4 L93.8 74 L93.3 82.6 L90.1 83.9 L89.9 84.2 L89.8 84.4 L89.6 84.7 L89.4 84.9 L89.2 85.2 L89 85.4 L88.9 85.6 L88.7 85.9 L88.5 86.1 L88.3 86.4 L88.1 86.6 L87.9 86.8 L87.8 87.1 L87.6 87.3 L87.4 87.5 L87.2 87.8 L87 88 L86.8 88.2 L86.6 88.5 L86.4 88.7 L86.3 88.9 L86.1 89.2 L85.9 89.4 L85.7 89.6 L85.5 89.8 L85.3 90.1 L85.1 90.3 L84.9 90.5 L84.7 90.7 L84.5 90.9 L84.3 91.2 L84.1 91.4 L83.9 91.6 L83.7 91.8 L83.5 92 L83.3 92.3 L83.1 92.5 L82.9 92.7 L82.7 92.9 L82.5 93.1 L82.3 93.3 L82.1 93.5 L81.9 93.7 L81.7 93.9 L81.5 94.2 L81.3 94.4 L81.1 94.6 L80.9 94.8 L80.7 95 L80.5 95.2 L80.1 95.6 L79.7 96 L79.3 96.4 L78.9 96.8 L78.5 97.2 L78 97.6 L77.6 98 L77.2 98.4 L76.8 98.8 L76.3 99.2 L75.9 99.6 L75.5 100 L75.1 100.4 L74.6 100.7 L74.2 101.1 L73.8 101.5 L73.3 101.9 L72.9 102.3 L72.5 102.6 L72 103 L71.6 103.4 L71.2 103.8 L70.7 104.2 L69.9 104.9 L69 105.7 L68.1 106.4 L67.2 107.2 L66.3 107.9 L65.4 108.7 L64.6 109.4 L63.7 110.2 L63.2 110.6 L62.8 111 L62.4 111.3 L61.9 111.7 L61.5 112.1 L61 112.5 L60.6 112.9 L60.1 113.3 L59.7 113.7 L59.3 114.1 L58.8 114.5 L58.4 114.9 L57.9 115.3 L57.5 115.6 L57.1 116.1 L56.6 116.5 L56.2 116.9 L55.8 117.3 L55.3 117.7 L54.9 118.1 L54.5 118.5 L54 118.9 L53.6 119.4 L53.2 119.8 L52.7 120.2 L52.5 120.4 L52.3 120.7 L52.1 120.9 L51.9 121.1 L51.7 121.3 L51.4 121.5 L51.2 121.8 L51 122 L50.8 122.2 L50.6 122.4 L50.4 122.6 L50.2 122.9 L50 123.1 L49.7 123.3 L49.5 123.5 L49.3 123.8 L49.1 124 L48.9 124.2 L48.7 124.5 L48.5 124.7 L48.3 124.9 L48.1 125.2 L47.9 125.4 L47.7 125.7 L47.5 125.9 L47.3 126.1 L47.1 126.4 L46.8 126.6 L46.6 126.8 L46.4 127.1 L46.2 127.3 L46 127.6 L45.8 127.8 L45.6 128.1 L45.4 128.3 L45.2 128.6 L45 128.8 L44.8 129.1 L44.6 129.3 L44.4 129.6 L44.2 129.8 L44 130.1 L43.8 130.4 L43.6 130.6 L43.4 130.9 L43.2 131.1 L43 131.4 L42.8 131.7 L42.6 131.9 L42.4 132.2 L42.3 132.5 L42.1 132.7 L41.9 133 L41.7 133.3 L41.5 133.6 L41.3 133.8 L41.1 134.1 L40.9 134.4 L40.7 134.7 L40.5 135 L40.4 135.2 L40.2 135.5 L40 135.8 L39.8 136.1 L39.6 136.4 L39.4 136.7 L39.2 137 L39 137.3 L38.9 137.6 L38.7 137.9 L38.5 138.1 L38.3 138.5 L38.1 138.7 L38 139.1 L37.8 139.4 L37.6 139.7 L37.4 140 L37.3 140.3 L65.6 155.2 L64.9 158.6 L66.2 160 L63.4 165.1 L60.5 171.8 L78.2 171.6 L78.4 161.5 L78.7 161.5 L79 161.6 L79.3 161.7 L79.6 161.7 L80.3 161.9 L80.9 162 L81.5 162.1 L82.2 162.2 L82.8 162.3 L83.4 162.4 L84.1 162.5 L84.7 162.6 L85.4 162.7 L86 162.8 L86.7 162.9 L87.3 163 L88 163.1 L88.7 163.1 L89.3 163.2 L90 163.3 L90.6 163.4 L91.3 163.5 L92 163.5 L92.6 163.6 L93.3 163.7 L94 163.7 L94.6 163.8 L95.3 163.9 L96 163.9 L96.7 164 L97.3 164 L98 164.1 L98.7 164.1 L99.4 164.2 L100.1 164.2 L100.7 164.3 L101.4 164.3 L102.1 164.4 L102.8 164.4 L103.5 164.4 L104.2 164.5 L104.9 164.5 L105.6 164.5 L106.3 164.5 L107 164.6 L107.7 164.6 L108.4 164.6 L109.1 164.6 L109.8 164.6 L110.5 164.7 L111.2 164.7 L111.9 164.7 L112.6 164.7 L113.3 164.7 L114.1 164.7 L114.8 164.7 L115.5 164.7 L116.2 164.7 L116.9 164.7 L117.6 164.7 L118.4 164.7 L119.1 164.7 L119.8 164.7 L120.5 164.7 L121.3 164.7 L122 164.7 L122.2 164.7 L122.3 164.7 L122.4 164.7 L122.5 164.6 L122.6 164.6 L122.7 164.6 L122.8 164.6 L123 164.6 L123.1 164.6 L123.2 164.6 L123.3 164.6 L123.4 164.6 L123.5 164.6 L123.6 164.6 L123.7 164.5 L123.8 164.5 L123.9 164.5 L124 164.5 L124.1 164.5 L124.2 164.5 L124.3 164.4 L124.4 164.4 L124.5 164.4 L124.6 164.4 L124.7 164.3 L124.8 164.3 L124.9 164.3 L125 164.3 L125.1 164.2 L125.2 164.2 L125.3 164.2 L125.4 164.1 L125.5 164.1 L125.7 164 L125.9 164 L126.1 163.9 L126.3 163.8 L126.5 163.8 L126.7 163.7 L126.9 163.6 L127.1 163.5 L127.3 163.4 L127.5 163.4 L127.7 163.3 L127.9 163.2 L128.1 163.1 L128.3 163 L128.5 162.9 L128.9 162.7 L129.3 162.5 L129.8 162.4 L130.2 162.2 L130.4 162.1 L130.6 162 L130.8 161.9 L131 161.8 L131.2 161.7 L131.5 161.6 L131.7 161.5 L131.9 161.4 L132.1 161.3 L132.4 161.2 L132.6 161.1 L132.8 161.1 L133 161 L133.3 160.9 L133.5 160.8 L133.8 160.7 L134 160.7 L134.1 160.6 L134.2 160.6 L134.4 160.6 L134.5 160.5 L134.6 160.5 L134.7 160.5 L134.9 160.4 L135 160.4 L135.1 160.4 L135.3 160.3 L135.4 160.3 L135.5 160.3 L135.7 160.2 L135.8 160.2 L136.3 162.7 L137.5 165.1 L135.9 168.8 L136.1 172.3 L145.6 172.4 L153.7 171.3 L151 162.3 L149 158 L150.2 156.7 L150 156.2 L149.8 155.6 L149.6 155 L149.3 154.5 L149.1 153.9 L148.9 153.3 L148.7 152.8 L148.5 152.2 L148.2 151.7 L148 151.1 L147.8 150.5 L147.6 150 L147.3 149.4 L147.1 148.9 L146.9 148.3 L146.6 147.8 L146.4 147.2 L146.2 146.7 L145.9 146.1 L145.7 145.5 L145.5 145 L145.2 144.4 L145 143.9 L144.7 143.3 L144.5 142.8 L144.3 142.2 L144 141.7 L143.8 141.1 L143.5 140.6 L143.3 140 L143 139.5 L142.8 139 L142.5 138.4 L142.3 137.9 L142 137.3 L141.7 136.8 L141.5 136.3 L141.2 135.7 L140.9 135.2 L140.7 134.6 L140.4 134.1 L140.2 133.6 L139.9 133 L139.6 132.5 L139.3 132 L139.1 131.5 L138.8 130.9 L138.5 130.4 L138.2 129.9 L137.9 129.3 L137.6 128.8 L137.4 128.3 L137.1 127.8 L136.8 127.3 L136.5 126.7 L136.2 126.2 L135.9 125.7 L135.6 125.2 L135.3 124.7 L135 124.2 L134.7 123.7 L134.3 123.2 L134 122.7 L133.7 122.1 L133.5 121.6 L133.3 121.1 L133 120.6 L132.8 120.1 L132.6 119.6 L132.4 119 L132.2 118.5 L132 118 L131.8 117.5 L131.5 117 L131.3 116.5 L131.1 115.9 L130.9 115.4 L130.7 114.9 L130.5 114.4 L130.3 113.9 L130.1 113.3 L129.9 112.8 L129.7 112.3 L129.5 111.8 L129.3 111.2 L129.1 110.7 L129 110.2 L128.8 109.7 L128.6 109.2 L128.4 108.6 L128.2 108.1 L128.1 107.6 L127.9 107.1 L127.7 106.5 L127.5 106 L127.4 105.5 L127.2 105 L127 104.4 L126.9 103.9 L126.7 103.4 L126.6 102.9 L126.4 102.3 L126.3 101.8 L126.1 101.3 L126 100.8 L125.8 100.2 L125.7 99.7 L125.5 99.2 L125.4 98.6 L125.3 98.1 L125.1 97.6 L125 97 L124.9 96.5 L124.7 96 L124.6 95.5 L124.5 94.9 L124.4 94.4 L124.3 93.9 L124.2 93.3 L124 92.8 L123.9 92.3 L123.8 91.7 L123.7 91.2 L123.6 90.7 L123.5 90.1 L123.4 89.6 L123.3 89.1 L123.3 88.5 L121 85.5 L121.8 75.5 L124.5 73.1 L127.1 65.2 L129.9 67.6 L135.8 71.7 L137.4 74.6 L139.7 75.4 L140.1 77.7 L140.7 81.4 L143.2 89.5 L145 89.5 L144.8 92.2 L143.4 92.8 L142.3 91.5 L141.3 88.7 L133.9 92 L134.7 94.9 L136.1 95 L134.7 96.6 L140.7 112 L141.7 112 L142.8 115.2 L143.6 115 L145.5 117.9 L147 117.1 L146.7 113.6 L148 112.9 L150.1 116.1 L151.5 115.5 L150.7 111.4 L150.1 109 L150.5 107.7 L149.3 103.9 L150.7 102.5 L151 99.8 L153.2 97.9 L155 94.5 L152.9 87.4 L154.5 85.4 L152.1 73.8 L150.9 72.8 L148 67.9 L144.5 65.5 L140.9 60.6 L134.2 56.5 L130.4 51.7 L127.9 50.8 L121.5 50.6 L121.6 50.5 L121.6 50.3 L121.7 50.2 L121.7 50 L121.7 49.9 L121.8 49.8 L121.8 49.6 L121.9 49.5 L122 49.4 L122 49.2 L122.1 49.1 L122.1 48.9 L122.2 48.8 L122.2 48.7 L122.3 48.6 L122.3 48.4 L122.4 48.3 L122.5 48.2 L122.5 48 L122.6 47.9 L122.6 47.8 L122.7 47.7 L122.7 47.5 L122.8 47.4 L122.9 47.3 L122.9 47.2 L123 47.1 L123.1 46.9 L123.1 46.8 L123.2 46.7 L123.3 46.6 L123.3 46.5 L123.4 46.4 L123.5 46.3 L123.5 46.2 L123.6 46 L123.7 45.9 L123.7 45.8 L123.8 45.7 L123.9 45.6 L124 45.5 L124 45.4 L124.1 45.3 L124.2 45.2 L124.2 45.1 L124.3 45 L124.4 44.9 L124.5 44.8 L124.6 44.7 L124.6 44.6 L124.7 44.5 L124.8 44.4 L124.9 44.3 L125 44.2 L125 44.1 L125.1 44 L125.2 43.9 L125.3 43.8 L125.4 43.7 L125.5 43.6 L125.5 43.6 L125.6 43.5 L125.7 43.4 L125.8 43.3 L125.7 43.2 L125.6 43.1 L125.5 43 L125.4 42.9 L125.2 42.8 L125.1 42.6 L125 42.5 L124.9 42.4 L124.8 42.3 L124.7 42.2 L124.6 42.1 L124.4 42 L124.3 41.9 L124.2 41.8 L124.1 41.7 L124 41.6 L123.9 41.5 L123.7 41.4 L123.6 41.3 L123.5 41.2 L123.4 41.1 L123.2 41 L123.1 40.9 L123 40.8 L122.9 40.7 L122.7 40.6 L122.6 40.5 L122.5 40.4 L122.4 40.3 L122.2 40.2 L122.1 40.1 L122 40 L121.7 39.8 L121.5 39.6 L121.2 39.5 L120.9 39.3 L120.7 39.1 L120.4 38.9 L120.1 38.7 L119.8 38.6 L119.6 38.4 L119.3 38.2 L119 38 L118.7 37.9 L118.4 37.7 L118.1 37.5 L117.8 37.4 L117.5 37.2 L117.6 37.1 L117.6 37 L117.7 36.8 L117.7 36.5 L117.8 36.3 L117.8 36.1 L117.8 35.9 L117.9 35.6 L117.9 35.4 L118 35.1 L118 34.9 L118 34.7 L118.1 34.4 L118.1 34.2 L118.1 33.9 L118.2 33.7 L118.2 33.4 L117.1 32.8 L117 32.2 L116.9 31.9 L116.9 31.7 L116.9 31.6 L116.8 31.4 L116.8 31.2 L116.8 31.1 L116.7 30.9 L116.7 30.8 L116.7 30.6 L116.6 30.5 L116.6 30.3 L116.6 30.1 L116.5 30 L116.5 29.8 L116.4 29.7 L116.4 29.5 L116.3 29.4 L116.3 29.2 L116.2 29.2 L116.2 29.1 L116.2 29 L116.2 28.9 L116.1 28.9 L116.1 28.8 L116.1 28.7 L116 28.6 L116 28.6 L115.9 28.5 L115.9 28.4 L115.9 28.3 L115.8 28.3 L115.8 28.2 L115.8 28.1 L115.7 28.1 L115.7 28 L115.6 27.9 L115.6 27.8 L115.5 27.7 L115.4 27.5 L115.3 27.4 L115.3 27.3 L115.2 27.1 L115.1 27 L115 26.9 L114.9 26.8 L114.8 26.6 L114.8 26.5 L114.7 26.4 L114.6 26.3 L114.5 26.2 L114.4 26.1 L114.3 26 L114.2 25.9 L114.1 25.8 L114 25.7 L113.9 25.6 L113.8 25.5 L113.7 25.4 L113.6 25.3 L113.5 25.2 L113.4 25.1 L113.3 25 L113.2 24.9 L113.1 24.8 L113 24.7 L112.9 24.7 L112.7 24.6 L112.6 24.5 L112.5 24.4 L112.4 24.4 L112.3 24.3 L112.2 24.2 L112 24.1 L111.9 24.1 L111.8 24 L111.7 23.9 L111.5 23.9 L111.4 23.8 L111.3 23.8 L111.2 23.7 L111 23.6 L110.9 23.6 L110.8 23.5 L110.6 23.5 L110.5 23.4 L110.4 23.4 L110.2 23.3 L110.1 23.3 L109.9 23.2 L109.8 23.2 L109.7 23.2 L109.5 23.1 L109.4 23.1 L109.2 23 L109.1 23 L108.9 23 L108.8 22.9 L108.6 22.9 L108.5 22.9 L108.3 22.8 L108 22.9 z M130.3 75.6 L130 76.1 L129.8 76.6 L129.4 77 L129.1 77.4 L128.7 77.8 L127.9 78.5 L127.4 83.7 L128.3 84.8 L128.6 85.3 L128.9 85.8 L129.1 86.4 L129.3 86.9 L129.4 87.5 L129.4 87.6 L129.8 87.2 L130.3 86.9 L130.8 86.6 L131.3 86.3 L135.2 84.6 L134.7 83.2 L134.6 82.8 L134.5 82.5 L134.1 79.9 L133.8 79.7 L133.4 79.4 L132.9 79 L132.6 78.6 L132.2 78.1 L131.9 77.6 L131 76 L130.3 75.5 L130.3 75.6 z" fill-opacity="0.71" />
    
	<defs>
        <radialGradient cx="101.6" cy="101.6" r="100.4" gradientUnits="userSpaceOnUse" id="Radial">
			<stop offset="0%" stop-color="#FFD359" stop-opacity="1" />
			<stop offset="100%" stop-color="#BE5005" stop-opacity="1" />
		</radialGradient>
    </defs>
	
</svg>