<?xml version="1.0" encoding="utf-8"?>
<!DOCTYPE svg PUBLIC "-//W3C//DTD SVG 1.1//EN" "http://www.w3.org/Graphics/SVG/1.1/DTD/svg11.dtd">
<svg version="1.1" xmlns="http://www.w3.org/2000/svg" xmlns:xlink="http://www.w3.org/1999/xlink" xmlns:xml="http://www.w3.org/XML/1998/namespace" xmlns:serif="http://www.serif.com/" width="91" height="91" viewBox="0, 0, 91, 91" xml:space="preserve" fill-rule="evenodd" stroke-linejoin="round" stroke-miterlimit="2" style="clip-rule:evenodd;">
	<filter xmlns="http://www.w3.org/2000/svg" height="150%" id="dropshadow">
      <feGaussianBlur stdDeviation="2" in="SourceAlpha" /> 
      <feOffset dx="0" dy="0" result="offsetblur" /> 
      <feMerge> 
        <feMergeNode />
        <feMergeNode in="SourceGraphic" /> 
      </feMerge>
    </filter>
    <path d="M7.4 70.4 C5.8 67.9 4.4 65.2 3.3 62.5 C2.2 59.7 1.3 56.8 0.8 53.9 C0.2 51 -0 48 0 45 C0 42.1 0.4 39.1 1 36.2 C1.6 33.3 2.5 30.4 3.6 27.7 C4.8 24.9 6.2 22.3 7.9 19.8 C9.6 17.4 11.5 15.1 13.6 13 C15.8 10.9 18.1 9.1 20.6 7.4 C23.1 5.8 25.7 4.4 28.5 3.3 C31.2 2.2 34.1 1.3 37 0.8 C39.9 0.2 42.9 -0 45.9 0 C48.9 0 51.9 0.4 54.8 1 C57.7 1.6 60.5 2.5 63.3 3.6 C66 4.8 68.6 6.2 71.1 7.9 C73.6 9.6 75.8 11.5 77.9 13.6 C80 15.7 81.9 18.1 83.5 20.6 C85.1 23.1 86.5 25.7 87.6 28.5 C88.8 31.2 89.6 34.1 90.2 37 C90.7 39.9 91 42.9 90.9 45.9 C90.9 48.9 90.6 51.9 90 54.8 C89.4 57.7 88.5 60.5 87.3 63.3 C86.1 66 84.7 68.6 83 71.1 C81.4 73.6 79.4 75.8 77.3 77.9 C75.2 80 72.9 81.9 70.4 83.5 C67.9 85.1 65.2 86.5 62.5 87.6 C59.7 88.8 56.8 89.6 53.9 90.2 C51 90.7 48 91 45 90.9 C42.1 90.9 39.1 90.6 36.2 90 C33.3 89.4 30.4 88.5 27.7 87.3 C24.9 86.1 22.3 84.7 19.8 83 C17.4 81.4 15.1 79.4 13 77.3 C10.9 75.2 9.1 72.9 7.4 70.4 z" fill-rule="nonzero" style="fill:#335A87;" />
	<g filter="url(#dropshadow)" stroke-width="0.5" style="stroke:black;">
		<path d="M19.4 45.5 C19.4 47.2 19.6 48.9 19.9 50.6 C20.3 52.2 20.8 53.9 21.4 55.4 C22.1 57 22.9 58.5 23.8 59.9 C24.8 61.4 25.9 62.7 27.1 63.9 C28.3 65.1 29.6 66.2 31 67.1 C32.4 68.1 33.9 68.9 35.5 69.5 C37.1 70.2 38.7 70.7 40.4 71 C42.1 71.3 43.8 71.5 45.5 71.5 C47.2 71.5 48.9 71.3 50.6 71 C52.2 70.7 53.9 70.2 55.4 69.5 C57 68.9 58.5 68.1 59.9 67.1 C61.4 66.2 62.7 65.1 63.9 63.9 C65.1 62.7 66.2 61.4 67.1 59.9 C68.1 58.5 68.9 57 69.5 55.4 C70.2 53.9 70.7 52.2 71 50.6 C71.3 48.9 71.5 47.2 71.5 45.5 C71.5 43.8 71.3 42.1 71 40.4 C70.7 38.7 70.2 37.1 69.5 35.5 C68.9 33.9 68.1 32.4 67.1 31 C66.2 29.6 65.1 28.3 63.9 27.1 C62.7 25.9 61.4 24.8 59.9 23.8 C58.5 22.9 57 22.1 55.4 21.4 C53.9 20.8 52.2 20.3 50.6 19.9 C48.9 19.6 47.2 19.4 45.5 19.4 C43.8 19.4 42.1 19.6 40.4 19.9 C38.7 20.3 37.1 20.8 35.5 21.4 C33.9 22.1 32.4 22.9 31 23.8 C29.6 24.8 28.3 25.9 27.1 27.1 C25.9 28.3 24.8 29.6 23.8 31 C22.9 32.4 22.1 33.9 21.4 35.5 C20.8 37.1 20.3 38.7 19.9 40.4 C19.6 42.1 19.4 43.8 19.4 45.5 z M45.5 21.8 C45.5 21.8 45.5 21.8 45.4 21.8 C45.4 21.8 45.4 21.8 45.4 21.8 C45.3 21.8 45.3 21.8 45.3 21.8 C45.3 21.8 45.2 21.8 45.2 21.8 C45.2 21.8 45.2 21.8 45.1 21.8 C45.1 21.8 45.1 21.8 45.1 21.9 C45 21.9 45 21.9 45 21.9 C45 21.9 44.9 21.9 44.9 21.9 C44.9 21.9 44.9 22 44.9 22 C44.8 22 44.8 22 44.8 22 C44.8 22 44.8 22 44.7 22.1 C44.7 22.1 44.7 22.1 44.7 22.1 C44.7 22.1 44.7 22.2 44.6 22.2 C44.6 22.2 44.6 22.2 44.6 22.2 C44.6 22.3 44.6 22.3 44.6 22.3 C44.5 22.3 44.5 22.3 44.5 22.4 L44.5 22.4 L44.4 22.5 L44.4 22.6 C44.4 22.6 44.4 22.7 44.4 22.7 C44.3 22.7 44.3 22.7 44.3 22.7 L44.3 22.8 L44.2 22.9 L44.2 23 L44.1 23.1 L44.1 23.2 L44 23.3 L44 23.4 C44 23.4 44 23.4 43.9 23.4 L43.9 23.5 L43.8 23.6 C43.8 23.6 43.8 23.7 43.8 23.7 C42.3 23.8 40.8 24.1 39.3 24.5 C37.8 24.9 36.4 25.5 35 26.3 C33.7 27 32.4 27.9 31.2 28.9 C30 29.9 29 31 28.1 32.2 C27.1 33.5 26.3 34.8 25.7 36.2 C25 37.6 24.5 39.1 24.2 40.6 C23.8 42.1 23.6 43.6 23.6 45.1 C23.6 46.7 23.7 48.2 24 49.7 C24.3 51.3 24.8 52.7 25.4 54.1 C26 55.6 26.8 56.9 27.7 58.2 C28.6 59.4 29.6 60.6 30.7 61.6 C31.9 62.7 33.1 63.6 34.4 64.4 C35.8 65.1 37.2 65.8 38.7 66.2 C40.1 66.7 41.6 67.1 43.2 67.2 C44.7 67.4 46.2 67.4 47.8 67.2 C49.3 67.1 50.8 66.7 52.3 66.2 C53.8 65.8 55.2 65.1 56.5 64.4 C57.8 63.6 59.1 62.7 60.2 61.6 C61.4 60.6 62.4 59.4 63.3 58.2 C64.2 56.9 64.9 55.6 65.5 54.1 C66.2 52.7 66.6 51.3 66.9 49.7 C67.2 48.2 67.4 46.7 67.3 45.1 C67.3 43.6 67.1 42.1 66.8 40.6 C66.4 39.1 65.9 37.6 65.3 36.2 C64.6 34.8 63.8 33.5 62.9 32.2 C62 31 60.9 29.9 59.7 28.9 C58.6 27.9 57.3 27 55.9 26.3 C54.6 25.5 53.1 24.9 51.7 24.5 C50.2 24.1 48.7 23.8 47.1 23.7 C47.1 23.7 47.1 23.6 47.1 23.6 L47 23.5 L47 23.4 L46.9 23.3 L46.9 23.2 L46.8 23.1 L46.8 23 L46.7 22.9 L46.7 22.8 L46.6 22.7 L46.6 22.6 L46.5 22.5 L46.5 22.4 L46.4 22.4 C46.4 22.3 46.4 22.3 46.4 22.3 C46.4 22.3 46.4 22.3 46.3 22.2 C46.3 22.2 46.3 22.2 46.3 22.2 C46.3 22.2 46.3 22.1 46.3 22.1 C46.2 22.1 46.2 22.1 46.2 22.1 C46.2 22 46.2 22 46.1 22 C46.1 22 46.1 22 46.1 22 C46.1 22 46 21.9 46 21.9 C46 21.9 46 21.9 46 21.9 C45.9 21.9 45.9 21.9 45.9 21.9 C45.9 21.8 45.8 21.8 45.8 21.8 C45.8 21.8 45.8 21.8 45.7 21.8 C45.7 21.8 45.7 21.8 45.7 21.8 C45.6 21.8 45.6 21.8 45.6 21.8 C45.6 21.8 45.5 21.8 45.5 21.8 z" style="fill:white;" />
		<path d="M45.5 25 C45.5 25 45.2 25.5 45 25.8 C44.9 26.1 44.8 26.4 44.6 26.6 C44.5 26.9 44.3 27.2 44.2 27.4 C44.1 27.7 43.9 28 43.8 28.3 C43.7 28.5 43.5 28.8 43.4 29.1 C43.3 29.4 43.1 29.7 43 29.9 C42.9 30.2 42.8 30.5 42.6 30.8 C42.5 31 42.4 31.3 42.3 31.6 C42.1 31.9 42 32.2 41.9 32.4 C41.8 32.7 41.6 33 41.5 33.3 C41.4 33.6 41.3 33.9 41.2 34.1 C41.1 34.4 41 34.7 40.8 35 C40.7 35.3 40.6 35.6 40.5 35.9 C40.4 36.1 40.3 36.4 40.2 36.7 C40.1 37 40 37.3 39.9 37.6 C39.8 37.9 39.7 38.2 39.6 38.5 C39.5 38.8 39.4 39 39.3 39.3 C39.2 39.6 39.2 39.9 39.1 40.2 C39 40.5 38.9 40.8 38.8 41.1 C38.7 41.4 38.6 41.7 38.6 42 C38.5 42.3 38.4 42.6 38.3 42.9 C38.3 43.2 38.2 43.5 38.2 43.8 C38.1 44.1 38.1 44.4 38.1 44.7 C38 45 38 45.3 38.1 45.6 C38.1 45.9 38.1 46.2 38.1 46.5 C38.2 46.8 38.2 47.1 38.3 47.4 C38.4 47.7 38.5 48 38.6 48.3 C38.7 48.6 38.8 48.9 38.9 49.2 C39.1 49.4 39.2 49.8 39.4 50 C39.5 50.1 39.6 50.2 39.7 50.3 C39.8 50.5 39.9 50.6 40 50.7 C40.1 50.8 40.2 50.9 40.3 51 C40.5 51.2 40.6 51.3 40.7 51.4 C40.8 51.5 41 51.6 41.1 51.7 C41.2 51.8 41.4 51.8 41.5 51.9 C41.7 52 41.8 52.1 41.9 52.2 C42.1 52.2 42.2 52.3 42.4 52.4 C42.5 52.5 42.7 52.5 42.8 52.6 C43 52.6 43.1 52.7 43.3 52.7 C43.5 52.8 43.6 52.8 43.8 52.9 C43.9 52.9 44.1 52.9 44.3 52.9 C44.4 53 44.6 53 44.7 53 C44.9 53 45.1 53 45.2 53 C45.4 53 45.6 53 45.7 53 C45.9 53 46 53 46.2 53 C46.4 53 46.5 53 46.7 52.9 C46.9 52.9 47 52.9 47.2 52.9 C47.3 52.8 47.5 52.8 47.6 52.7 C47.8 52.7 48 52.6 48.1 52.6 C48.3 52.5 48.4 52.5 48.6 52.4 C48.7 52.3 48.9 52.2 49 52.2 C49.1 52.1 49.3 52 49.4 51.9 C49.6 51.8 49.7 51.8 49.8 51.7 C50 51.6 50.1 51.5 50.2 51.4 C50.4 51.3 50.5 51.2 50.6 51 C50.7 50.9 50.8 50.8 50.9 50.7 C51.1 50.6 51.2 50.5 51.3 50.3 C51.4 50.2 51.5 50.1 51.6 50 C51.7 49.8 51.9 49.4 52 49.2 C52.2 48.9 52.3 48.6 52.4 48.3 C52.5 48 52.6 47.7 52.6 47.4 C52.7 47.1 52.8 46.8 52.8 46.5 C52.9 46.2 52.9 45.9 52.9 45.6 C52.9 45.3 52.9 45 52.9 44.7 C52.9 44.4 52.8 44.1 52.8 43.8 C52.7 43.5 52.7 43.2 52.6 42.9 C52.5 42.6 52.5 42.3 52.4 42 C52.3 41.7 52.2 41.4 52.1 41.1 C52.1 40.8 52 40.5 51.9 40.2 C51.8 39.9 51.7 39.6 51.6 39.3 C51.5 39 51.4 38.8 51.3 38.5 C51.2 38.2 51.1 37.9 51 37.6 C50.9 37.3 50.8 37 50.7 36.7 C50.6 36.4 50.5 36.1 50.4 35.9 C50.3 35.6 50.2 35.3 50.1 35 C50 34.7 49.9 34.4 49.8 34.1 C49.6 33.9 49.5 33.6 49.4 33.3 C49.3 33 49.2 32.7 49.1 32.4 C48.9 32.2 48.8 31.9 48.7 31.6 C48.6 31.3 48.4 31 48.3 30.8 C48.2 30.5 48.1 30.2 47.9 29.9 C47.8 29.7 47.7 29.4 47.5 29.1 C47.4 28.8 47.3 28.5 47.1 28.3 C47 28 46.9 27.7 46.7 27.4 C46.6 27.2 46.5 26.9 46.3 26.6 C46.2 26.4 46 26.1 45.9 25.8 C45.8 25.5 45.5 25 45.5 25 z" fill-rule="nonzero" style="fill:white;" />
		<path d="M39.2 33.5 C39.2 33.5 37.8 34.3 37.1 34.8 C36.5 35.3 35.9 35.9 35.3 36.5 C34.8 37.1 34.3 37.8 33.9 38.5 C33.4 39.2 33.1 40 32.8 40.8 C32.5 41.5 32.3 42.3 32.1 43.2 C32 44 31.9 44.8 31.9 45.6 C32 46.5 32 47.3 32.2 48.1 C32.4 48.9 32.6 49.7 32.9 50.5 C33.2 51.2 33.6 52 34 52.7 C34.5 53.4 35 54 35.5 54.6 C36.1 55.2 36.7 55.8 37.4 56.3 C38 56.8 38.7 57.2 39.5 57.6 C40.2 58 41 58.3 41.8 58.5 C42.6 58.7 43.4 58.9 44.2 58.9 C45.1 59 45.9 59 46.7 58.9 C47.5 58.9 48.4 58.7 49.1 58.5 C49.9 58.3 50.7 58 51.5 57.6 C52.2 57.2 52.9 56.8 53.6 56.3 C54.2 55.8 54.9 55.2 55.4 54.6 C56 54 56.5 53.4 56.9 52.7 C57.4 52 57.7 51.2 58 50.5 C58.3 49.7 58.6 48.9 58.7 48.1 C58.9 47.3 59 46.5 59 45.6 C59 44.8 58.9 44 58.8 43.2 C58.7 42.3 58.4 41.5 58.2 40.8 C57.9 40 57.5 39.2 57.1 38.5 C56.7 37.8 56.2 37.1 55.6 36.5 C55.1 35.9 54.5 35.3 53.8 34.8 C53.2 34.3 51.7 33.5 51.7 33.5 C51.7 33.5 51.8 33.7 51.9 33.8 C51.9 33.9 51.9 34 52 34.1 C52 34.2 52.1 34.3 52.1 34.4 C52.1 34.5 52.2 34.6 52.2 34.7 C52.2 34.8 52.3 34.9 52.3 35 C52.4 35.1 52.4 35.2 52.4 35.3 C52.5 35.4 52.5 35.5 52.6 35.6 C52.6 35.7 52.6 35.8 52.7 35.9 C52.7 36 52.7 36.1 52.8 36.2 C52.8 36.3 52.8 36.4 52.9 36.5 C52.9 36.6 53 36.7 53 36.8 C53 36.9 53.1 37 53.1 37.1 C53.1 37.2 53.2 37.4 53.2 37.5 C53.2 37.6 53.3 37.7 53.3 37.8 C53.3 37.9 53.4 38 53.4 38.1 C53.4 38.2 53.5 38.3 53.5 38.4 C53.5 38.5 53.6 38.6 53.6 38.7 C53.6 38.8 53.7 38.9 53.7 39 C53.7 39.1 53.8 39.2 53.8 39.3 C53.8 39.4 53.9 39.5 53.9 39.6 C53.9 39.7 53.9 39.8 54 39.9 C54 40 54 40.1 54.1 40.3 C54.1 40.4 54.1 40.5 54.2 40.6 C54.2 40.7 54.2 40.8 54.2 40.9 C54.3 41 54.3 41.1 54.3 41.2 C54.4 41.3 54.4 41.4 54.4 41.5 C54.4 41.6 54.5 41.7 54.5 41.8 C54.5 41.9 54.5 42 54.6 42.1 C54.6 42.2 54.6 42.4 54.7 42.5 C54.7 42.6 54.7 42.7 54.7 42.8 C54.7 42.9 54.8 43 54.8 43.1 C54.8 43.2 54.8 43.3 54.8 43.4 C54.9 43.5 54.9 43.6 54.9 43.7 C54.9 43.8 54.9 43.9 54.9 44 C54.9 44.1 54.9 44.2 54.9 44.3 C55 44.4 55 44.5 55 44.6 C55 44.7 55 44.8 55 44.9 C55 45 55 45.1 55 45.2 C55 45.3 55 45.4 55 45.5 C55 45.6 55 45.7 55 45.9 C55 46 55 46.1 54.9 46.2 C54.9 46.3 54.9 46.4 54.9 46.5 C54.9 46.6 54.9 46.7 54.9 46.8 C54.9 46.9 54.8 47 54.8 47.1 C54.8 47.2 54.8 47.3 54.8 47.4 C54.8 47.5 54.7 47.6 54.7 47.7 C54.7 47.8 54.7 47.9 54.6 48 C54.6 48.1 54.6 48.2 54.6 48.3 C54.5 48.4 54.5 48.5 54.5 48.6 C54.4 48.7 54.4 48.8 54.4 48.9 C54.3 49 54.3 49.1 54.3 49.2 C54.2 49.3 54.2 49.4 54.2 49.5 C54.1 49.6 54.1 49.7 54 49.8 C54 49.9 54 50 53.9 50.1 C53.9 50.1 53.8 50.2 53.8 50.3 C53.7 50.4 53.7 50.5 53.6 50.6 C53.6 50.7 53.5 50.8 53.5 50.9 C53.4 51 53.4 51.1 53.3 51.1 C53.2 51.3 53 51.5 52.9 51.6 C52.8 51.8 52.6 52 52.5 52.1 C52.4 52.3 52.2 52.4 52 52.5 C51.9 52.7 51.7 52.8 51.6 53 C51.4 53.1 51.2 53.2 51.1 53.3 C50.9 53.5 50.7 53.6 50.5 53.7 C50.4 53.8 50.2 53.9 50 54 C49.8 54.1 49.6 54.2 49.4 54.3 C49.2 54.4 49.1 54.4 48.9 54.5 C48.7 54.6 48.5 54.7 48.3 54.7 C48.1 54.8 47.9 54.8 47.7 54.9 C47.4 54.9 47.2 55 47 55 C46.8 55 46.6 55.1 46.4 55.1 C46.2 55.1 46 55.1 45.8 55.1 C45.6 55.1 45.4 55.1 45.2 55.1 C44.9 55.1 44.7 55.1 44.5 55.1 C44.3 55.1 44.1 55 43.9 55 C43.7 55 43.5 54.9 43.3 54.9 C43.1 54.8 42.9 54.8 42.7 54.7 C42.5 54.7 42.3 54.6 42.1 54.5 C41.9 54.4 41.7 54.4 41.5 54.3 C41.3 54.2 41.1 54.1 40.9 54 C40.8 53.9 40.6 53.8 40.4 53.7 C40.2 53.6 40 53.5 39.9 53.3 C39.7 53.2 39.5 53.1 39.4 53 C39.2 52.8 39 52.7 38.9 52.5 C38.7 52.4 38.6 52.3 38.4 52.1 C38.3 52 38.2 51.8 38 51.6 C37.9 51.5 37.7 51.3 37.6 51.1 C37.6 51.1 37.5 51 37.5 50.9 C37.4 50.8 37.4 50.7 37.3 50.6 C37.3 50.5 37.2 50.4 37.2 50.3 C37.1 50.2 37.1 50.1 37 50.1 C37 50 36.9 49.9 36.9 49.8 C36.9 49.7 36.8 49.6 36.8 49.5 C36.7 49.4 36.7 49.3 36.7 49.2 C36.6 49.1 36.6 49 36.6 48.9 C36.5 48.8 36.5 48.7 36.5 48.6 C36.4 48.5 36.4 48.4 36.4 48.3 C36.3 48.2 36.3 48.1 36.3 48 C36.3 47.9 36.2 47.8 36.2 47.7 C36.2 47.6 36.2 47.5 36.2 47.4 C36.1 47.3 36.1 47.2 36.1 47.1 C36.1 47 36.1 46.9 36.1 46.8 C36 46.7 36 46.6 36 46.5 C36 46.4 36 46.3 36 46.2 C36 46.1 36 46 36 45.9 C36 45.7 36 45.6 36 45.5 C36 45.4 36 45.3 36 45.2 C36 45.1 36 45 36 44.9 C36 44.8 36 44.7 36 44.6 C36 44.5 36 44.4 36 44.3 C36 44.2 36 44.1 36 44 C36 43.9 36 43.8 36.1 43.7 C36.1 43.6 36.1 43.5 36.1 43.4 C36.1 43.3 36.1 43.2 36.2 43.1 C36.2 43 36.2 42.9 36.2 42.8 C36.2 42.7 36.3 42.6 36.3 42.5 C36.3 42.4 36.3 42.2 36.4 42.1 C36.4 42 36.4 41.9 36.4 41.8 C36.5 41.7 36.5 41.6 36.5 41.5 C36.6 41.4 36.6 41.3 36.6 41.2 C36.6 41.1 36.7 41 36.7 40.9 C36.7 40.8 36.8 40.7 36.8 40.6 C36.8 40.5 36.8 40.4 36.9 40.3 C36.9 40.1 36.9 40 37 39.9 C37 39.8 37 39.7 37.1 39.6 C37.1 39.5 37.1 39.4 37.2 39.3 C37.2 39.2 37.2 39.1 37.2 39 C37.3 38.9 37.3 38.8 37.3 38.7 C37.4 38.6 37.4 38.5 37.4 38.4 C37.5 38.3 37.5 38.2 37.5 38.1 C37.6 38 37.6 37.9 37.6 37.8 C37.7 37.7 37.7 37.6 37.7 37.5 C37.8 37.4 37.8 37.2 37.8 37.1 C37.9 37 37.9 36.9 38 36.8 C38 36.7 38 36.6 38.1 36.5 C38.1 36.4 38.1 36.3 38.2 36.2 C38.2 36.1 38.2 36 38.3 35.9 C38.3 35.8 38.4 35.7 38.4 35.6 C38.4 35.5 38.5 35.4 38.5 35.3 C38.5 35.2 38.6 35.1 38.6 35 C38.7 34.9 38.7 34.8 38.7 34.7 C38.8 34.6 38.8 34.5 38.8 34.4 C38.9 34.3 38.9 34.2 39 34.1 C39 34 39 33.9 39.1 33.8 C39.1 33.7 39.2 33.5 39.2 33.5 z" fill-rule="nonzero" style="fill:white;" />
		<path d="M50.6 30.7 C50.6 30.7 52.5 31.5 53.3 32 C54.2 32.5 55 33.1 55.8 33.7 C56.5 34.4 57.2 35.1 57.8 35.9 C58.4 36.7 59 37.6 59.4 38.5 C59.9 39.4 60.3 40.4 60.5 41.3 C60.8 42.3 61 43.3 61 44.3 C61.1 45.3 61.1 46.3 61 47.3 C60.9 48.3 60.6 49.3 60.3 50.3 C60 51.2 59.6 52.2 59.1 53 C58.6 53.9 58.1 54.8 57.4 55.5 C56.8 56.3 56 57 55.3 57.6 C54.5 58.3 53.6 58.8 52.7 59.3 C51.9 59.8 50.9 60.1 49.9 60.4 C49 60.7 48 60.9 47 61 C46 61.1 45 61.1 44 61 C43 60.9 42 60.7 41 60.4 C40 60.1 39.1 59.8 38.2 59.3 C37.3 58.8 36.5 58.3 35.7 57.6 C34.9 57 34.2 56.3 33.5 55.5 C32.9 54.8 32.3 53.9 31.8 53 C31.3 52.2 30.9 51.2 30.6 50.3 C30.3 49.3 30.1 48.3 30 47.3 C29.8 46.3 29.8 45.3 29.9 44.3 C30 43.3 30.2 42.3 30.4 41.3 C30.7 40.4 31.1 39.4 31.5 38.5 C31.9 37.6 32.5 36.7 33.1 35.9 C33.7 35.1 34.4 34.4 35.2 33.7 C35.9 33.1 36.8 32.5 37.6 32 C38.5 31.5 40.4 30.7 40.4 30.7 C40.4 30.7 40.4 30.6 40.4 30.5 C40.5 30.5 40.5 30.4 40.5 30.4 C40.5 30.3 40.6 30.3 40.6 30.2 C40.6 30.2 40.6 30.1 40.7 30 C40.7 30 40.7 29.9 40.7 29.9 C40.8 29.8 40.8 29.8 40.8 29.7 C40.8 29.7 40.9 29.6 40.9 29.5 C40.9 29.5 40.9 29.4 41 29.4 C41 29.3 41 29.3 41 29.2 C41.1 29.1 41.1 29.1 41.1 29 C41.2 29 41.2 28.9 41.2 28.9 C41.2 28.8 41.3 28.8 41.3 28.7 C41.3 28.6 41.3 28.6 41.4 28.5 C41.4 28.5 41.4 28.4 41.4 28.4 C41.5 28.3 41.5 28.3 41.5 28.2 C41.5 28.1 41.6 28.1 41.6 28 C41.6 28 41.6 27.9 41.7 27.9 C41.7 27.8 41.7 27.8 41.8 27.7 C41.8 27.6 41.8 27.6 41.8 27.5 C41.9 27.5 41.9 27.4 41.9 27.4 C41.9 27.3 42 27.3 42 27.2 C42 27.2 42.1 27.1 42.1 27 C42.1 27 42.1 26.9 42.2 26.9 C42.2 26.8 42.2 26.8 42.2 26.7 C42.3 26.7 42.3 26.6 42.3 26.5 C42.4 26.5 42.4 26.4 42.4 26.4 C42.4 26.3 42.5 26.3 42.5 26.2 C42.5 26.2 42.5 26.1 42.6 26 C42.6 26 42.7 25.9 42.7 25.9 C42.7 25.9 41.7 26.1 40.6 26.3 C39.9 26.5 39.2 26.7 38.7 26.9 C37.4 27.3 36.2 27.9 35 28.7 C33.9 29.4 32.8 30.2 31.8 31.2 C30.8 32.1 29.9 33.2 29.1 34.3 C28.4 35.4 27.7 36.6 27.2 37.9 C26.7 39.1 26.3 40.4 26 41.8 C25.8 43.1 25.7 44.5 25.7 45.9 C25.7 47.2 25.9 48.6 26.2 49.9 C26.5 51.2 26.9 52.5 27.5 53.8 C28.1 55 28.8 56.2 29.6 57.3 C30.4 58.4 31.3 59.4 32.4 60.3 C33.4 61.2 34.5 62 35.7 62.7 C36.9 63.3 38.1 63.9 39.4 64.3 C40.7 64.7 42.1 65 43.4 65.2 C44.8 65.3 46.2 65.3 47.5 65.2 C48.9 65 50.2 64.7 51.5 64.3 C52.8 63.9 54.1 63.3 55.3 62.7 C56.4 62 57.6 61.2 58.6 60.3 C59.6 59.4 60.5 58.4 61.3 57.3 C62.2 56.2 62.9 55 63.4 53.8 C64 52.5 64.4 51.2 64.8 49.9 C65.1 48.6 65.2 47.2 65.3 45.9 C65.3 44.5 65.2 43.1 64.9 41.8 C64.7 40.4 64.3 39.1 63.7 37.9 C63.2 36.6 62.6 35.4 61.8 34.3 C61 33.2 60.1 32.1 59.1 31.2 C58.2 30.2 57.1 29.4 55.9 28.7 C54.8 27.9 53.5 27.3 52.2 26.9 C51 26.4 48.3 25.9 48.3 25.9 C48.3 25.9 48.3 26 48.4 26 C48.4 26.1 48.4 26.2 48.5 26.2 C48.5 26.3 48.5 26.3 48.5 26.4 C48.6 26.4 48.6 26.5 48.6 26.5 C48.6 26.6 48.7 26.7 48.7 26.7 C48.7 26.8 48.8 26.8 48.8 26.9 C48.8 26.9 48.8 27 48.9 27 C48.9 27.1 48.9 27.2 48.9 27.2 C49 27.3 49 27.3 49 27.4 C49.1 27.4 49.1 27.5 49.1 27.5 C49.1 27.6 49.2 27.6 49.2 27.7 C49.2 27.8 49.2 27.8 49.3 27.9 C49.3 27.9 49.3 28 49.3 28 C49.4 28.1 49.4 28.1 49.4 28.2 C49.5 28.3 49.5 28.3 49.5 28.4 C49.5 28.4 49.6 28.5 49.6 28.5 C49.6 28.6 49.6 28.6 49.7 28.7 C49.7 28.8 49.7 28.8 49.7 28.9 C49.8 28.9 49.8 29 49.8 29 C49.8 29.1 49.9 29.1 49.9 29.2 C49.9 29.3 49.9 29.3 50 29.4 C50 29.4 50 29.5 50 29.5 C50.1 29.6 50.1 29.7 50.1 29.7 C50.2 29.8 50.2 29.8 50.2 29.9 C50.2 29.9 50.3 30 50.3 30 C50.3 30.1 50.3 30.2 50.4 30.2 C50.4 30.3 50.4 30.3 50.4 30.4 C50.5 30.4 50.5 30.5 50.5 30.5 C50.5 30.6 50.6 30.7 50.6 30.7 z" fill-rule="nonzero" style="fill:white;" />
    </g>
</svg>