<?xml version="1.0" encoding="UTF-8" standalone="no"?>
<!DOCTYPE svg PUBLIC "-//W3C//DTD SVG 1.1//EN" "http://www.w3.org/Graphics/SVG/1.1/DTD/svg11.dtd">
<svg width="91" height="91" viewBox="0 0 91 91" version="1.1" xmlns="http://www.w3.org/2000/svg" xmlns:xlink="http://www.w3.org/1999/xlink" xml:space="preserve" xmlns:serif="http://www.serif.com/" style="fill-rule:evenodd;clip-rule:evenodd;stroke-linejoin:round;stroke-miterlimit:2;">
	<filter xmlns="http://www.w3.org/2000/svg" id="dropshadow" height="150%">
      <feGaussianBlur in="SourceAlpha" stdDeviation="2"/> 
      <feOffset dx="0" dy="0" result="offsetblur"/> 
      <feMerge> 
        <feMergeNode/>
        <feMergeNode in="SourceGraphic"/> 
      </feMerge>
    </filter>
    <g transform="matrix(1,0,0,1,-57.3646,-26.48)">
        <g transform="matrix(1,0,0,1,9,26)">
			<path d="M55.789,70.852C54.159,68.362 52.775,65.711 51.662,62.951C50.549,60.191 49.709,57.321 49.156,54.397C48.603,51.472 48.338,48.494 48.367,45.518C48.395,42.542 48.716,39.569 49.325,36.656C49.933,33.743 50.828,30.889 51.993,28.151C53.158,25.412 54.593,22.788 56.27,20.33C57.947,17.871 59.866,15.578 61.99,13.493C64.115,11.409 66.444,9.534 68.934,7.904C71.424,6.275 74.075,4.89 76.835,3.778C79.595,2.665 82.465,1.824 85.389,1.271C88.314,0.718 91.292,0.454 94.268,0.482C97.244,0.51 100.217,0.832 103.13,1.44C106.044,2.049 108.897,2.944 111.635,4.109C114.374,5.274 116.998,6.709 119.456,8.385C121.915,10.062 124.208,11.981 126.293,14.106C128.377,16.23 130.252,18.56 131.882,21.05C133.512,23.54 134.896,26.19 136.009,28.951C137.121,31.711 137.962,34.581 138.515,37.505C139.068,40.429 139.332,43.408 139.304,46.384C139.276,49.36 138.954,52.333 138.346,55.246C137.738,58.159 136.842,61.012 135.677,63.751C134.512,66.489 133.078,69.113 131.401,71.572C129.724,74.03 127.805,76.324 125.68,78.408C123.556,80.492 121.227,82.367 118.737,83.997C116.246,85.627 113.596,87.011 110.836,88.124C108.075,89.237 105.206,90.077 102.281,90.63C99.357,91.183 96.378,91.448 93.403,91.419C90.427,91.391 87.454,91.07 84.54,90.461C81.627,89.853 78.774,88.958 76.035,87.793C73.297,86.628 70.673,85.193 68.214,83.516C65.756,81.839 63.462,79.92 61.378,77.796C59.294,75.672 57.419,73.342 55.789,70.852Z" style="fill:rgb(77,101,46);fill-rule:nonzero;"/>

            <g id="icon_atreides" stroke="black" stroke-width="0.5">
                <path d="M94.68,69.465L94.944,69.101L95.207,68.738L95.47,68.374L95.734,68.01L95.997,67.647L96.261,67.283L96.524,66.92L96.787,66.556L97.051,66.192L97.314,65.829L97.578,65.465L97.841,65.102L98.104,64.738L98.368,64.374L98.631,64.011L98.895,63.647L99.158,63.284L99.421,62.92L99.685,62.556L99.948,62.193L100.212,61.829L100.475,61.466L100.738,61.102L101.002,60.738L101.265,60.375L101.528,60.011L101.792,59.648L102.055,59.284L102.319,58.92L102.345,58.882L102.37,58.843L102.393,58.803L102.414,58.762L102.433,58.719L102.45,58.676L102.465,58.633L102.479,58.589L102.49,58.544L102.5,58.498L102.507,58.453L102.513,58.407L102.516,58.36L102.517,58.314L102.516,58.268L102.513,58.222L102.509,58.176L102.502,58.13L102.493,58.084L102.482,58.039L102.469,57.995L102.454,57.951L102.437,57.908L102.419,57.866L102.398,57.824L102.376,57.784L102.351,57.744L102.326,57.706L102.298,57.669L102.169,57.502L102.039,57.335L101.91,57.169L101.781,57.002L101.651,56.836L101.522,56.669L101.393,56.503L101.263,56.336L101.134,56.169L101.005,56.003L100.876,55.836L100.746,55.67L100.617,55.503L100.488,55.336L100.358,55.17L100.229,55.003L100.1,54.837L99.97,54.67L99.841,54.504L99.712,54.337L99.583,54.17L99.453,54.004L99.324,53.837L99.195,53.671L99.065,53.504L98.936,53.337L98.807,53.171L98.677,53.004L98.548,52.838L98.534,52.819L98.52,52.8L98.506,52.78L98.493,52.76L98.481,52.74L98.469,52.72L98.457,52.699L98.446,52.678L98.435,52.657L98.425,52.635L98.415,52.614L98.406,52.592L98.397,52.57L98.389,52.547L98.381,52.525L98.374,52.502L98.368,52.479L98.361,52.456L98.356,52.433L98.351,52.41L98.346,52.387L98.342,52.364L98.339,52.34L98.336,52.316L98.333,52.293L98.331,52.269L98.33,52.245L98.329,52.222L98.329,52.198L98.329,52.046L98.329,51.894L98.329,51.743L98.329,51.591L98.329,51.439L98.329,51.287L98.329,51.135L98.329,50.983L98.329,50.832L98.329,50.68L98.329,50.528L98.329,50.376L98.329,50.224L98.329,50.072L98.329,49.921L98.329,49.769L98.329,49.617L98.329,49.465L98.329,49.313L98.329,49.161L98.329,49.01L98.329,48.858L98.329,48.706L98.329,48.554L98.329,48.402L98.329,48.25L98.329,48.099L98.329,47.947L98.329,47.795L98.331,47.737L98.335,47.68L98.343,47.623L98.354,47.567L98.368,47.511L98.386,47.456L98.406,47.402L98.429,47.349L98.455,47.298L98.484,47.248L98.515,47.2L98.549,47.154L98.586,47.109L98.625,47.067L98.666,47.027L98.71,46.989L98.755,46.954L98.802,46.921L98.851,46.891L98.902,46.864L98.954,46.839L99.007,46.818L99.062,46.799L99.117,46.783L99.173,46.771L99.23,46.761L99.287,46.755L99.345,46.752L99.402,46.752L100.223,46.802L101.036,46.919L101.817,47.169L102.518,47.594L103.135,48.135L103.695,48.737L104.23,49.361L104.766,49.984L105.304,50.604L105.846,51.222L106.39,51.838L106.936,52.452L107.484,53.065L108.033,53.676L108.584,54.286L109.134,54.896L109.685,55.506L110.236,56.116L110.786,56.727L111.337,57.337L111.887,57.947L112.438,58.557L112.99,59.166L113.542,59.774L114.095,60.382L114.65,60.988L115.206,61.593L115.764,62.197L116.324,62.798L116.334,62.809L116.345,62.82L116.356,62.831L116.366,62.841L116.378,62.852L116.389,62.862L116.4,62.872L116.412,62.882L116.423,62.892L116.435,62.901L116.447,62.911L116.459,62.92L116.471,62.929L116.483,62.938L116.496,62.946L116.508,62.955L116.521,62.963L116.534,62.971L116.547,62.979L116.56,62.987L116.573,62.995L116.586,63.002L116.6,63.009L116.613,63.016L116.627,63.023L116.64,63.029L116.654,63.036L116.668,63.042L116.682,63.048L116.924,63.15L117.167,63.252L117.896,63.559L118.138,63.661L119.11,64.07L119.353,64.172L119.838,64.376L120.081,64.479L120.809,64.785L121.052,64.887L121.538,65.092L121.781,65.194L122.266,65.398L122.509,65.5L123.237,65.807L123.48,65.909L123.723,66.011L123.799,66.04L123.877,66.062L123.956,66.079L124.036,66.089L124.117,66.093L124.198,66.091L124.279,66.082L124.359,66.067L124.437,66.046L124.513,66.019L124.587,65.986L124.659,65.948L124.727,65.904L124.791,65.855L124.852,65.801L124.908,65.742L124.959,65.68L125.006,65.613L125.047,65.544L125.082,65.471L125.112,65.395L125.136,65.318L125.154,65.239L125.165,65.159L125.171,65.078L125.17,64.997L125.162,64.916L125.149,64.836L125.129,64.758L124.75,63.458L124.371,62.159L123.992,60.859L123.613,59.56L123.234,58.261L122.855,56.961L122.476,55.662L122.096,54.363L121.717,53.063L121.338,51.764L120.959,50.464L120.58,49.165L120.201,47.866L119.822,46.566L119.443,45.267L119.064,43.968L118.685,42.668L118.306,41.369L117.927,40.069L117.547,38.77L117.168,37.471L116.789,36.171L116.41,34.872L116.031,33.572L115.652,32.273L115.273,30.974L114.894,29.674L114.515,28.375L114.136,27.076L114.081,26.895L114.023,26.716L113.962,26.538L113.897,26.362L113.827,26.187L113.753,26.014L113.675,25.842L113.593,25.673L113.505,25.507L113.412,25.343L113.314,25.182L113.21,25.025L113.101,24.872L112.986,24.723L112.864,24.579L112.737,24.44L112.603,24.308L112.464,24.181L112.318,24.062L112.167,23.95L112.01,23.846L111.848,23.75L111.681,23.663L111.51,23.585L111.335,23.515L111.156,23.455L110.976,23.403L110.792,23.36L110.607,23.326L110.518,23.311L110.43,23.296L110.341,23.282L110.252,23.267L110.163,23.253L110.074,23.238L109.986,23.224L109.897,23.209L109.808,23.195L109.719,23.18L109.631,23.165L109.542,23.151L109.453,23.136L109.364,23.122L109.275,23.107L109.187,23.093L109.098,23.078L109.009,23.063L108.92,23.049L108.831,23.034L108.743,23.02L108.654,23.005L108.565,22.991L108.476,22.976L108.387,22.961L108.299,22.947L108.21,22.932L108.121,22.918L108.032,22.903L107.986,22.897L107.94,22.892L107.894,22.89L107.848,22.89L107.802,22.891L107.756,22.895L107.71,22.901L107.664,22.909L107.619,22.918L107.575,22.93L107.53,22.944L107.487,22.96L107.444,22.977L107.402,22.997L107.361,23.018L107.321,23.041L107.282,23.066L107.245,23.093L107.208,23.121L107.173,23.151L107.139,23.182L107.106,23.215L107.075,23.249L107.046,23.285L107.018,23.321L106.992,23.36L106.967,23.399L106.944,23.439L106.923,23.48L106.717,23.901L106.506,24.319L106.289,24.734L106.066,25.146L105.837,25.555L105.602,25.959L105.36,26.36L105.111,26.757L104.854,27.149L104.591,27.537L104.319,27.918L104.04,28.294L103.752,28.664L103.455,29.026L103.15,29.381L102.835,29.728L102.51,30.066L102.176,30.394L101.832,30.712L101.477,31.018L101.113,31.312L100.738,31.592L100.352,31.859L99.957,32.11L99.551,32.344L99.136,32.561L98.712,32.76L98.28,32.94L97.839,33.099L97.794,32.827L97.749,32.555L97.704,32.283L97.659,32.011L97.614,31.739L97.569,31.467L97.524,31.195L97.479,30.923L97.434,30.651L97.389,30.378L97.344,30.106L97.299,29.834L97.254,29.562L97.209,29.29L97.164,29.018L97.119,28.746L97.074,28.474L97.029,28.202L96.984,27.93L96.939,27.658L96.894,27.386L96.849,27.114L96.804,26.842L96.76,26.569L96.715,26.297L96.67,26.025L96.625,25.753L96.58,25.481L96.535,25.209L96.439,24.922L96.319,24.645L96.172,24.381L95.989,24.141L95.764,23.939L95.505,23.783L95.225,23.67L94.934,23.59L94.636,23.535L94.336,23.497L94.036,23.468L93.734,23.447L93.432,23.437L93.129,23.436L92.827,23.445L92.525,23.467L92.225,23.501L91.926,23.548L91.63,23.61L91.338,23.687L91.051,23.781L90.769,23.892L90.496,24.021L90.232,24.168L89.979,24.333L89.737,24.515L89.507,24.711L89.288,24.919L89.08,25.139L89.433,25.184L89.781,25.257L90.124,25.352L90.462,25.465L90.793,25.595L91.111,25.754L91.404,25.956L91.653,26.209L91.845,26.508L91.984,26.836L92.07,27.181L92.106,27.535L92.093,27.89L92.042,28.242L91.965,28.59L91.873,28.934L91.775,29.276L91.68,29.619L91.59,29.963L91.504,30.309L91.423,30.656L91.348,31.004L91.277,31.352L91.212,31.702L91.152,32.053L91.098,32.405L91.049,32.758L91.007,33.111L90.971,33.465L90.493,33.297L90.021,33.112L89.556,32.91L89.099,32.693L88.649,32.46L88.207,32.211L87.775,31.947L87.351,31.669L86.937,31.376L86.533,31.07L86.139,30.752L85.756,30.421L85.382,30.078L85.02,29.724L84.667,29.36L84.325,28.986L83.993,28.603L83.672,28.212L83.36,27.812L83.058,27.405L82.766,26.991L82.483,26.571L82.21,26.144L81.945,25.712L81.689,25.275L81.442,24.832L81.202,24.386L80.971,23.935L80.747,23.48L80.726,23.439L80.704,23.399L80.679,23.36L80.653,23.321L80.625,23.285L80.596,23.249L80.565,23.215L80.532,23.182L80.498,23.151L80.463,23.121L80.426,23.093L80.388,23.066L80.349,23.041L80.309,23.018L80.268,22.997L80.226,22.977L80.184,22.96L80.14,22.944L80.096,22.93L80.052,22.918L80.006,22.909L79.961,22.901L79.915,22.895L79.869,22.891L79.823,22.89L79.777,22.89L79.73,22.892L79.684,22.897L79.639,22.903L79.55,22.918L79.461,22.932L79.372,22.947L79.283,22.961L79.195,22.976L79.106,22.991L79.017,23.005L78.928,23.02L78.839,23.034L78.751,23.049L78.662,23.063L78.573,23.078L78.484,23.093L78.395,23.107L78.307,23.122L78.218,23.136L78.129,23.151L78.04,23.165L77.951,23.18L77.863,23.195L77.774,23.209L77.685,23.224L77.596,23.238L77.508,23.253L77.419,23.267L77.33,23.282L77.241,23.296L77.152,23.311L77.064,23.326L76.878,23.36L76.695,23.403L76.514,23.455L76.336,23.515L76.161,23.585L75.99,23.663L75.823,23.75L75.661,23.846L75.504,23.95L75.353,24.062L75.207,24.181L75.067,24.308L74.934,24.44L74.806,24.579L74.685,24.723L74.57,24.872L74.461,25.025L74.357,25.182L74.259,25.343L74.166,25.507L74.078,25.673L73.995,25.842L73.917,26.014L73.844,26.187L73.774,26.362L73.709,26.538L73.647,26.716L73.59,26.895L73.535,27.076L73.156,28.375L72.777,29.674L72.398,30.974L72.019,32.273L71.64,33.572L71.261,34.872L70.882,36.171L70.502,37.471L70.123,38.77L69.744,40.069L69.365,41.369L68.986,42.668L68.607,43.968L68.228,45.267L67.849,46.566L67.47,47.866L67.091,49.165L66.712,50.464L66.333,51.764L65.953,53.063L65.574,54.363L65.195,55.662L64.816,56.961L64.437,58.261L64.058,59.56L63.679,60.859L63.3,62.159L62.921,63.458L62.542,64.758L62.522,64.836L62.509,64.916L62.501,64.997L62.5,65.078L62.506,65.159L62.517,65.239L62.535,65.318L62.559,65.395L62.589,65.471L62.624,65.544L62.665,65.613L62.712,65.68L62.763,65.742L62.819,65.801L62.88,65.855L62.944,65.904L63.012,65.948L63.084,65.986L63.158,66.019L63.234,66.046L63.312,66.067L63.392,66.082L63.472,66.091L63.553,66.093L63.634,66.089L63.715,66.079L63.794,66.062L63.872,66.04L63.948,66.011L64.191,65.909L64.433,65.807L64.676,65.705L64.919,65.603L65.162,65.5L65.405,65.398L65.647,65.296L65.89,65.194L66.133,65.092L66.376,64.99L66.619,64.887L66.861,64.785L67.104,64.683L67.347,64.581L67.59,64.479L67.833,64.376L68.075,64.274L68.318,64.172L68.561,64.07L68.804,63.968L69.047,63.865L69.289,63.763L69.532,63.661L69.775,63.559L70.018,63.457L70.261,63.355L70.503,63.252L70.746,63.15L70.989,63.048L71.003,63.042L71.017,63.036L71.031,63.029L71.044,63.023L71.058,63.016L71.071,63.009L71.085,63.002L71.098,62.995L71.111,62.987L71.124,62.979L71.137,62.971L71.15,62.963L71.162,62.955L71.175,62.946L71.187,62.938L71.2,62.929L71.212,62.92L71.224,62.911L71.236,62.901L71.248,62.892L71.259,62.882L71.271,62.872L71.282,62.862L71.293,62.852L71.304,62.841L71.315,62.831L71.326,62.82L71.337,62.809L71.347,62.798L71.907,62.197L72.465,61.593L73.021,60.988L73.575,60.382L74.129,59.774L74.681,59.166L75.233,58.557L75.784,57.947L76.334,57.337L76.885,56.727L77.435,56.116L77.986,55.506L78.536,54.896L79.087,54.286L79.637,53.676L80.187,53.065L80.735,52.452L81.281,51.838L81.825,51.222L82.366,50.604L82.905,49.984L83.441,49.361L83.976,48.737L84.536,48.135L85.153,47.594L85.854,47.169L86.635,46.919L87.448,46.802L88.268,46.752L88.326,46.752L88.383,46.755L88.441,46.761L88.497,46.771L88.554,46.783L88.609,46.799L88.663,46.818L88.717,46.839L88.769,46.864L88.819,46.891L88.868,46.921L88.916,46.954L88.961,46.989L89.005,47.027L89.046,47.067L89.085,47.109L89.121,47.154L89.156,47.2L89.187,47.248L89.216,47.298L89.242,47.349L89.265,47.402L89.285,47.456L89.302,47.511L89.317,47.567L89.328,47.623L89.335,47.68L89.34,47.737L89.342,47.795L89.342,52.198L89.342,52.222L89.341,52.245L89.339,52.269L89.338,52.293L89.335,52.316L89.332,52.34L89.329,52.364L89.325,52.387L89.32,52.41L89.315,52.433L89.309,52.456L89.303,52.479L89.296,52.502L89.289,52.525L89.282,52.547L89.273,52.57L89.265,52.592L89.255,52.614L89.246,52.635L89.236,52.657L89.225,52.678L89.214,52.699L89.202,52.72L89.19,52.74L89.177,52.76L89.164,52.78L89.151,52.8L89.137,52.819L89.123,52.838L88.993,53.004L88.864,53.171L88.735,53.337L88.605,53.504L88.476,53.671L88.347,53.837L88.218,54.004L88.088,54.17L87.959,54.337L87.83,54.504L87.7,54.67L87.571,54.837L87.442,55.003L87.312,55.17L87.183,55.336L87.054,55.503L86.924,55.67L86.795,55.836L86.666,56.003L86.537,56.169L86.407,56.336L86.278,56.503L86.149,56.669L86.019,56.836L85.89,57.002L85.761,57.169L85.631,57.335L85.502,57.502L85.373,57.669L85.345,57.706L85.319,57.744L85.295,57.784L85.273,57.824L85.252,57.866L85.233,57.908L85.217,57.951L85.202,57.995L85.189,58.039L85.178,58.084L85.169,58.13L85.162,58.176L85.157,58.222L85.154,58.268L85.154,58.314L85.155,58.36L85.158,58.407L85.164,58.453L85.171,58.498L85.181,58.544L85.192,58.589L85.205,58.633L85.221,58.676L85.238,58.719L85.257,58.762L85.278,58.803L85.301,58.843L85.326,58.882L85.352,58.92L86.142,60.011L86.669,60.738L86.932,61.102L87.196,61.466L87.723,62.193L87.986,62.556L88.249,62.92L88.776,63.647L89.04,64.011L89.303,64.374L89.83,65.102L90.093,65.465L90.357,65.829L90.62,66.192L91.41,67.283L91.674,67.647L92.2,68.374L92.464,68.738L92.991,69.465L93.032,69.519L93.077,69.569L93.125,69.617L93.177,69.662L93.231,69.703L93.287,69.74L93.346,69.774L93.407,69.804L93.47,69.83L93.534,69.852L93.6,69.869L93.666,69.882L93.734,69.891L93.801,69.896L93.869,69.896L93.937,69.891L94.004,69.882L94.071,69.869L94.137,69.852L94.201,69.83L94.264,69.804L94.325,69.774L94.384,69.74L94.44,69.703L94.494,69.662L94.545,69.617L94.594,69.569L94.639,69.519L94.68,69.465Z" style="fill:white;fill-rule:nonzero;" filter="url(#dropshadow)"/>
            </g>
        </g>
    </g>
</svg>
