<?xml version="1.0" encoding="utf-8"?>
<!DOCTYPE svg PUBLIC "-//W3C//DTD SVG 1.1//EN" "http://www.w3.org/Graphics/SVG/1.1/DTD/svg11.dtd">
<svg version="1.1" xmlns="http://www.w3.org/2000/svg" xmlns:xlink="http://www.w3.org/1999/xlink" xmlns:xml="http://www.w3.org/XML/1998/namespace" xmlns:serif="http://www.serif.com/" width="91" height="91" viewBox="0, 0, 91, 91" xml:space="preserve" fill-rule="evenodd" stroke-linejoin="round" stroke-miterlimit="2" style="clip-rule:evenodd;">
	<filter xmlns="http://www.w3.org/2000/svg" height="150%" id="dropshadow">
      <feGaussianBlur stdDeviation="2" in="SourceAlpha" /> 
      <feOffset dx="0" dy="0" result="offsetblur" /> 
      <feMerge> 
        <feMergeNode />
        <feMergeNode in="SourceGraphic" /> 
      </feMerge>
    </filter>
	
	<path d="M7.4 70.4 C5.8 67.9 4.4 65.2 3.3 62.5 C2.2 59.7 1.3 56.8 0.8 53.9 C0.2 51 -0 48 0 45 C0 42.1 0.4 39.1 1 36.2 C1.6 33.3 2.5 30.4 3.6 27.7 C4.8 24.9 6.2 22.3 7.9 19.8 C9.6 17.4 11.5 15.1 13.6 13 C15.8 10.9 18.1 9.1 20.6 7.4 C23.1 5.8 25.7 4.4 28.5 3.3 C31.2 2.2 34.1 1.3 37 0.8 C39.9 0.2 42.9 -0 45.9 0 C48.9 0 51.9 0.4 54.8 1 C57.7 1.6 60.5 2.5 63.3 3.6 C66 4.8 68.6 6.2 71.1 7.9 C73.6 9.6 75.8 11.5 77.9 13.6 C80 15.8 81.9 18.1 83.5 20.6 C85.1 23.1 86.5 25.7 87.6 28.5 C88.8 31.2 89.6 34.1 90.2 37 C90.7 39.9 91 42.9 90.9 45.9 C90.9 48.9 90.6 51.9 90 54.8 C89.4 57.7 88.5 60.5 87.3 63.3 C86.1 66 84.7 68.6 83 71.1 C81.4 73.5 79.4 75.8 77.3 77.9 C75.2 80 72.9 81.9 70.4 83.5 C67.9 85.1 65.2 86.5 62.5 87.6 C59.7 88.8 56.8 89.6 53.9 90.1 C51 90.7 48 91 45 90.9 C42.1 90.9 39.1 90.6 36.2 90 C33.3 89.4 30.4 88.5 27.7 87.3 C24.9 86.1 22.3 84.7 19.8 83 C17.4 81.4 15.1 79.4 13 77.3 C10.9 75.2 9.1 72.9 7.4 70.4 z" fill-rule="nonzero" style="fill:#a85f9c;" />
	
	<path
       style="fill:#ffffff;fill-opacity:1;stroke:#black;stroke-width:1" filter="url(#dropshadow)" fill-rule="nonzero"
       d="m 45.176558,81.210189 c -0.072,-0.09075 -0.198,-0.54315 -0.307275,-1.1029 -0.154,-0.788675 -0.289475,-1.346125 -0.34555,-1.4228 -0.04275,-0.0585 -0.0665,-0.06 -0.2475,-0.0175 -0.11,0.02625 -0.375025,0.12125 -0.58865,0.21075 -0.6397,0.26855 -1.02155,0.348 -1.775775,0.3695 l -0.647425,0.0175 0.18675,-0.198 c 0.56065,-0.59405 0.729375,-0.789175 0.896225,-1.036425 1.135475,-1.6827 1.318175,-4.1702 0.439575,-5.984675 -0.1125,-0.2325 -0.2175,-0.37925 -0.411375,-0.5757 -0.343675,-0.34815 -0.5649,-0.47865 -0.765725,-0.451725 -0.5525,0.074 -1.802425,1.3656 -2.303625,2.38025 -0.350275,0.7091 -0.4458,1.306725 -0.33855,2.11815 0.03325,0.25205 0.05425,0.4646 0.0465,0.4723 -0.0175,0.0175 -0.30695,-0.6377 -0.4002,-0.908225 -0.03925,-0.114 -0.088,-0.32335 -0.10825,-0.465125 -0.047,-0.32955 -0.1085,-0.42665 -0.27045,-0.42665 -0.16825,0 -0.384875,0.1645 -0.556325,0.4229 -0.519475,0.782625 -0.727575,2.6331 -0.442575,3.9353 0.0325,0.1485 0.05125,0.278 0.04175,0.287525 -0.034,0.03425 -0.5036,-0.93385 -0.595775,-1.228425 -0.361,-1.153525 -0.12025,-2.4875 0.75565,-4.18695 0.384875,-0.746725 0.699075,-1.225725 0.9462,-1.4425 0.277075,-0.243 0.38355,-0.57975 0.265375,-0.839125 -0.09825,-0.2155 -0.2475,-0.1805 -1.288475,0.30345 -1.29895,0.6037 -2.1658,0.9126 -3.866025,1.377625 -1.18625,0.32445 -1.4727,0.416625 -1.85235,0.595975 -0.548425,0.2591 -0.77025,0.570225 -0.765225,1.073325 0.005,0.436175 0.189,0.938475 0.63095,1.71715 0.203,0.3578 0.857475,1.363475 1.1628,1.787125 0.12175,0.169 0.21375,0.315 0.2045,0.324375 -0.0225,0.0225 -0.881975,-0.373725 -1.722775,-0.79465 -1.871225,-0.9367 -3.78115,-2.12045 -4.87195,-3.019525 -1.0438,-0.860325 -2.948165,-2.8218 -3.185792,-3.281325 -0.05555,-0.1075 -0.05503,-0.11225 0.0098,-0.09325 2.286392,0.67205 4.014367,1.076275 5.358742,1.253575 0.855225,0.11275 2.557575,0.123 3.292575,0.02 1.5931,-0.224 2.820325,-0.6442 3.9585,-1.35545 1.000575,-0.62525 1.55225,-1.052425 2.222,-1.720525 2.066,-2.060975 3.718225,-4.869175 4.13625,-7.030125 0.2125,-1.09855 0.3915,-2.673877 0.483375,-4.254452 0.0755,-1.296855 0.093,-1.857608 0.13275,-4.242298 l 0.035,-2.096572 -0.71145,-0.698275 c -1.8325,-1.798568 -2.5641,-2.48022 -3.264925,-3.042025 -0.46325,-0.371378 -0.634325,-0.466385 -0.775775,-0.430878 -0.1755,0.04407 -0.6307,0.523105 -1.12795,1.187233 -0.573,0.76532 -0.787825,1.024515 -1.438325,1.735355 -0.847525,0.92618 -2.054975,2.019135 -2.89825,2.623417 -0.992275,0.711065 -2.23395,1.098228 -3.52105,1.097888 -0.831725,-3.7e-4 -1.4252,-0.114175 -2.0922,-0.40174 -0.3417,-0.147325 -0.9094,-0.479468 -0.8762,-0.512658 0.01,-0.01025 0.16075,0.04235 0.3344,0.116925 0.53535,0.22995 0.960925,0.321633 1.593525,0.343318 0.641525,0.022 0.98935,-0.02815 1.596125,-0.23005 1.193825,-0.39724 2.281175,-1.18055 4.000825,-2.882125 l 0.935575,-0.925723 0.3825,-0.611787 c 0.810675,-1.29663 1.457325,-2.52161 1.491575,-2.825573 0.0175,-0.1522 0.01,-0.16425 -0.18675,-0.34475 -0.324725,-0.296795 -1.11045,-0.648917 -1.56795,-0.702685 -0.232,-0.02727 -0.359775,0.03785 -0.3922,0.199975 -0.04375,0.218575 -0.947125,1.483865 -1.51215,2.117863 -1.074175,1.205302 -2.388625,1.97321 -3.198,1.868297 l -0.2175,-0.0282 0.334825,-0.0853 c 0.753275,-0.191875 1.22105,-0.439707 1.666975,-0.883195 0.5745,-0.57137 1.334025,-1.665732 1.850225,-2.665882 0.405075,-0.78484 0.511575,-1.18283 0.354575,-1.324915 -0.0365,-0.03303 -0.20725,-0.12545 -0.3792,-0.205375 -0.888525,-0.412725 -2.5013,-0.84002 -3.8089,-1.009145 -0.595275,-0.077 -2.23595,-0.06728 -2.77465,0.0165 -1.9623,0.304907 -3.7063,1.138335 -5.419805,2.590027 -0.142425,0.120675 -0.575277,0.51415 -0.961877,0.874398 -0.922343,0.859472 -1.015315,0.941227 -1.041058,0.915487 -0.03107,-0.03107 0.417903,-0.67343 0.819958,-1.173155 0.18855,-0.23435 0.555562,-0.650552 0.815582,-0.924882 0.55018,-0.58046 0.800993,-0.90427 0.785323,-1.013885 -0.0082,-0.05823 -0.05505,-0.0877 -0.192975,-0.121725 -0.273133,-0.0674 -1.23187,-0.121575 -2.151953,-0.121575 -1.019297,0 -1.64822,-0.04955 -2.10749,-0.16605 -0.413611,-0.104925 -0.999621,-0.374488 -1.411151,-0.649113 -1.002716,-0.669137 -2.227411,-1.928275 -2.602738,-2.675932 -0.1541,-0.306975 -0.18125,-0.466155 -0.0921,-0.540133 0.04468,-0.03707 0.058,-0.02672 0.07743,0.06023 0.0449,0.2009 0.05705,0.228375 0.1962,0.443518 0.356002,0.550385 1.441332,1.561837 2.079978,1.938395 1.185972,0.699275 3.721479,0.848302 5.695504,0.33476 2.097545,-0.545675 4.198702,-1.762803 6.454552,-3.738881 1.71385,-1.501295 3.6052,-3.426867 3.94375,-4.015135 0.084,-0.145975 0.1015,-0.212275 0.0835,-0.31446 -0.039,-0.219625 -0.07525,-0.258967 -0.238,-0.258967 -0.19,0 -0.3267,0.07088 -1.0701,0.554475 -1.36785,0.88982 -2.51835,1.455182 -3.917575,1.92511 -2.30885,0.77544 -4.393325,0.934035 -5.84454,0.44468 -0.631982,-0.2131 -1.38972,-0.69103 -1.94769,-1.22845 -0.8855,-0.85289 -1.407427,-1.91879 -1.625896,-3.32046 -0.05687,-0.364938 -0.1312,-1.628156 -0.126425,-2.148876 0.002,-0.2124 0.02275,-0.13895 0.17815,0.62892 0.269211,1.330341 0.456819,1.944778 0.807479,2.644598 0.24325,0.485435 0.500145,0.849265 0.838407,1.187343 0.484355,0.484087 1.017188,0.795625 1.698433,0.99304 1.51464,0.438927 3.865535,-0.1179 6.277157,-1.486783 1.20425,-0.68356 2.664325,-1.775542 2.97665,-2.226207 0.0935,-0.13495 0.099,-0.15965 0.0575,-0.259775 -0.07075,-0.1708 -0.7775,-0.829801 -1.3595,-1.267651 -1.889,-1.421108 -3.15035,-1.995648 -4.393815,-2.001353 -0.832832,-0.0038 -1.390185,0.248075 -1.753825,0.792628 -0.22585,0.338215 -0.30023,0.621622 -0.331077,1.261565 -0.0145,0.299085 -0.0361,0.553682 -0.0482,0.565772 -0.03635,0.03635 -0.2095,-0.436735 -0.254595,-0.695635 -0.100375,-0.57641 0.163625,-1.315095 0.659917,-1.846455 0.501615,-0.537062 1.087388,-0.839162 1.93125,-0.99601 0.66737,-0.12405 0.92487,-0.2205 0.92487,-0.346435 0,-0.04487 -0.19225,-0.459372 -0.427325,-0.92112 -0.45162,-0.88725 -0.650842,-1.408507 -0.800192,-2.09367 -0.07497,-0.344022 -0.08458,-0.48789 -0.0839,-1.25784 6.62e-4,-0.762812 0.011,-0.916465 0.08435,-1.253387 0.23465,-1.07811 0.664067,-2.017203 1.317392,-2.88094 0.28925,-0.382432 0.79545,-0.94847 0.8233,-0.920627 0.01,0.0092 -0.02925,0.08892 -0.08525,0.177325 -0.3963,0.625967 -0.830525,1.926187 -0.99855,2.989922 -0.08175,0.516837 -0.05475,1.6022 0.05175,2.091175 0.345075,1.584122 1.346325,2.911447 3.2306,4.282632 1.07685,0.78363 2.2315,1.37195 2.494525,1.271018 0.10375,-0.0398 0.0515,-0.53807 -0.115,-1.095718 -0.209,-0.700397 -0.304175,-1.1127 -0.352575,-1.528237 -0.21475,-1.84337 0.7889,-3.631088 2.3524,-4.190503 0.13625,-0.0488 0.3211,-0.06905 0.7029,-0.07705 l 0.51795,-0.01075 -0.554925,0.1254 c -0.854375,0.193075 -1.1781,0.338008 -1.53045,0.685163 -0.54025,0.532292 -0.73995,1.342317 -0.6976,2.82969 0.025,0.840942 0.079,1.093122 0.372325,1.702997 0.648525,1.34867 2.07665,2.93979 3.6385,4.053773 0.9934,0.708531 2.0918,1.357911 3.47055,2.051783 1.6755,0.843218 2.68215,1.170343 2.68215,0.87159 0,-0.08568 -0.2465,-0.662597 -0.71275,-1.66791 -1.0291,-2.219146 -1.4042,-3.625366 -1.34685,-5.049313 0.05325,-1.324575 0.445675,-2.385248 1.46625,-3.964123 0.2435,-0.376712 0.25515,-0.404247 0.195,-0.460337 -1.02325,-0.953315 -2.03835,-1.92577 -2.34795,-2.249278 -1.554855,-1.6248 -2.48988,-3.449319 -2.48568,-4.850299 0.0025,-0.826053 0.3561,-1.902633 0.887025,-2.700658 0.13975,-0.2101 0.79345,-0.906217 0.79345,-0.844977 0,0.0125 -0.10725,0.245225 -0.2385,0.517117 -0.13125,0.271888 -0.271925,0.627523 -0.312725,0.790303 -0.2868,1.144375 -0.13675,2.530175 0.36705,3.387852 0.321575,0.547563 0.930175,1.254675 1.423575,1.654003 1.30675,1.057607 4.158775,2.492474 4.757,2.393262 0.48385,-0.08025 0.60865,-0.532408 0.31665,-1.14726 -0.149,-0.313608 -0.268475,-0.49548 -0.6192,-0.942037 -1.052425,-1.339993 -1.51655,-2.562935 -1.516325,-3.995493 3e-4,-1.724895 0.6205,-3.280552 2.6145,-6.5578323 0.75265,-1.237033 0.831975,-1.327493 1.0429,-1.1893 0.20775,0.136175 0.427,0.46802 1.329425,2.012862 1.27485,2.1824033 1.642725,2.9161283 1.91055,3.8105153 0.18925,0.632293 0.2265,0.92257 0.225,1.757278 -0.0025,1.81337 -0.2664,2.524075 -1.609575,4.346944 -0.537475,0.729438 -0.735625,1.36288 -0.529275,1.69206 0.072,0.1148 0.316225,0.2317 0.48415,0.2317 0.70265,0 3.15435,-1.27995 4.598025,-2.400459 0.397975,-0.308905 0.708575,-0.618713 0.974575,-0.972125 0.69395,-0.92198 1.0235,-1.83972 1.022875,-2.848435 -4.75e-4,-0.77146 -0.1225,-1.273175 -0.50155,-2.061853 -0.131,-0.272452 -0.238,-0.505155 -0.238,-0.517117 0,-0.06137 0.65985,0.641167 0.812475,0.865065 0.3685,0.540527 0.68975,1.307867 0.83615,1.997182 0.29605,1.393998 -0.3832,3.197558 -1.867,4.957367 -0.43225,0.51265 -0.828175,0.91413 -1.85335,1.87931 -0.51885,0.4885 -0.981025,0.923663 -1.02705,0.967028 l -0.08375,0.07885 0.264375,0.40567 c 1.10955,1.70244 1.528325,2.977377 1.4637,4.456185 -0.0595,1.360225 -0.407475,2.50767 -1.444725,4.762923 -0.6725,1.462188 -0.6857,1.501868 -0.52055,1.564653 0.254975,0.09695 1.10335,-0.218725 2.605775,-0.969568 4.135725,-2.066893 6.58575,-4.347216 7.289575,-6.784626 0.139,-0.481375 0.187,-0.863305 0.1865,-1.484085 -0.0011,-1.617307 -0.412725,-2.42296 -1.44815,-2.834377 -0.214,-0.08505 -0.74015,-0.206175 -1.3666,-0.314653 -0.1765,-0.03057 -0.132,-0.0358 0.336275,-0.03962 0.641725,-0.0053 0.95195,0.0594 1.397375,0.291153 0.3898,0.2028 0.6789,0.44293 0.970975,0.806525 0.809875,1.008187 1.087325,2.555597 0.719025,4.010345 -0.048,0.189425 -0.14775,0.57746 -0.22175,0.862322 -0.09425,0.362845 -0.13125,0.578863 -0.12375,0.72141 0.01,0.191975 0.0175,0.20415 0.11375,0.2153 0.395125,0.04537 1.816325,-0.771087 3.03945,-1.746145 0.504225,-0.401947 1.34715,-1.25484 1.6863,-1.70624 0.3299,-0.439065 0.54625,-0.84227 0.703025,-1.310197 0.416,-1.24165 0.43145,-2.67959 0.04325,-4.017123 -0.1405,-0.483712 -0.261875,-0.783942 -0.553775,-1.368827 -0.132,-0.264515 -0.262475,-0.544525 -0.2899,-0.622242 -0.04525,-0.128525 -0.04425,-0.1402 0.0125,-0.1292 0.088,0.017 0.5441,0.586085 0.9383,1.170865 0.355225,0.526924 0.734625,1.266934 0.915025,1.784714 0.258725,0.742608 0.40265,1.708168 0.360725,2.420283 -0.06075,1.032822 -0.2568,1.738547 -0.81605,2.937965 -0.3662,0.785345 -0.5004,1.096885 -0.5004,1.161505 0,0.0847 0.1445,0.132425 0.8131,0.268417 0.253925,0.05165 0.58345,0.134775 0.732275,0.18475 1.22295,0.41053 1.96645,1.291508 1.968625,2.332595 5e-4,0.253108 -0.127,1.00257 -0.18025,1.059298 -0.015,0.01525 -0.05575,-0.208675 -0.09225,-0.497335 -0.171,-1.350785 -0.477725,-1.825445 -1.327425,-2.054335 -0.349825,-0.09423 -1.1562,-0.08383 -1.646575,0.02125 -0.7639,0.1637 -1.1847,0.333295 -1.894025,0.763422 -1.071225,0.64956 -2.56555,1.796788 -2.900625,2.226885 -0.07375,0.09467 -0.134,0.213625 -0.134,0.264336 0,0.209425 0.996475,1.041135 2.145725,1.790978 1.88255,1.228267 3.439375,1.908612 4.940475,2.159027 0.498425,0.08315 1.41045,0.0845 1.8323,0.0027 1.3503,-0.261777 2.360225,-1.077752 3.02965,-2.447765 0.33905,-0.693935 0.517275,-1.316087 0.777,-2.712621 l 0.14225,-0.764937 0.0025,0.913737 c 0.005,1.316481 -0.0985,1.998379 -0.44165,2.908934 -0.49195,1.30544 -1.44435,2.358937 -2.6987,2.985135 -0.4093,0.204325 -1.07125,0.42936 -1.5394,0.523325 -0.462475,0.09283 -1.648025,0.09303 -2.2164,4e-4 -0.970825,-0.158225 -2.139075,-0.505513 -3.259975,-0.96907 -1.11755,-0.462178 -3.171975,-1.520925 -3.769125,-1.942425 -0.481825,-0.34009 -0.7538,-0.36498 -0.831575,-0.0761 -0.0225,0.08152 -0.03,0.187675 -0.0175,0.2359 0.06675,0.266115 1.1846,1.505667 2.42285,2.686737 1.642675,1.566813 2.734075,2.501448 3.594375,3.078086 2.606575,1.747132 4.711675,2.476267 7.1414,2.473532 1.111375,-0.0013 2.039425,-0.20735 2.916175,-0.647635 0.989275,-0.496777 1.69125,-1.164977 2.3796,-2.265065 0.10625,-0.169675 0.191,-0.210575 0.1535,-0.074 -0.0125,0.04578 -0.0895,0.217975 -0.17075,0.382643 -0.370525,0.750667 -1.51505,2.03111 -2.238825,2.50472 -0.816325,0.534172 -1.6032,0.868242 -2.38195,1.011292 -0.3731,0.06853 -1.3826,0.0875 -2.75615,0.05178 -0.7672,-0.02 -0.95785,0.004 -1.041025,0.130975 -0.0535,0.0816 -0.0515,0.101 0.02575,0.260768 0.04925,0.101775 0.275125,0.371635 0.5503,0.657505 0.619225,0.64327 0.8568,0.918755 1.287875,1.493392 0.36555,0.487313 0.55685,0.786425 0.501975,0.784973 -0.02875,-7.93e-4 -0.36065,-0.301518 -1.405075,-1.273405 -2.04245,-1.900543 -4.120975,-2.92856 -6.404675,-3.167678 -0.613375,-0.06423 -2.0445,-0.02543 -2.63455,0.07145 -1.730275,0.284033 -3.634125,0.83277 -3.935725,1.13437 -0.20875,0.208775 0.13225,1.074878 0.91935,2.335665 1.0625,1.701758 1.719175,2.27481 2.960375,2.583463 l 0.333475,0.08292 -0.222,0.02935 c -0.980725,0.1297 -2.555075,-0.950233 -3.803825,-2.609238 -0.407725,-0.541652 -0.8785,-1.260685 -0.901825,-1.37739 -0.0125,-0.0578 -0.05575,-0.12945 -0.09825,-0.15925 -0.253425,-0.1775 -1.158625,0.094 -1.712075,0.513515 -0.251175,0.190375 -0.3469,0.311915 -0.345875,0.43914 0.0025,0.448285 1.7742,3.453358 2.65465,4.505478 1.2233,1.46183 3.019675,2.62796 4.62305,3.001092 0.4653,0.108275 1.464825,0.13695 1.9027,0.0546 0.17625,-0.03317 0.379775,-0.08503 0.452,-0.1152 0.14325,-0.0599 0.281675,-0.07218 0.281675,-0.025 0,0.0503 -0.554775,0.326768 -0.894025,0.445538 -0.5234,0.18325 -0.843725,0.23675 -1.4182,0.23695 -0.59675,3.7e-4 -1.033,-0.07615 -1.65175,-0.28907 -0.864275,-0.29742 -1.939175,-0.926725 -2.89865,-1.697068 -1.1488,-0.92231 -2.5679,-2.36549 -3.5463,-3.606437 -0.37235,-0.472285 -0.9336,-1.072663 -1.072,-1.146723 -0.1305,-0.06982 -0.23225,-0.03355 -0.52645,0.187525 -0.667825,0.501953 -1.347425,1.11531 -3.079275,2.779138 l -1.268925,1.21907 0.02,0.24545 c 0.01,0.135 0.03725,1.061187 0.058,2.05821 0.061,2.919432 0.11225,3.94205 0.25885,5.14696 0.260875,2.145262 0.90645,4.297637 2.028775,6.764012 0.33475,0.73565 0.57565,1.11285 1.23235,1.92975 1.443175,1.7952 3.38175,3.322725 5.01675,3.952975 2.3416,0.90265 6.475525,0.6811 10.570575,-0.5665 0.57845,-0.17625 0.721425,-0.20825 0.721425,-0.16175 0,0.16025 -2.4273,2.523025 -3.78545,3.684725 -0.73635,0.629825 -1.368975,1.04155 -2.818225,1.83415 -0.895425,0.489725 -3.14355,1.62905 -3.21445,1.62905 -0.147,0 -0.06025,-0.10775 0.7898,-0.98075 0.7784,-0.799275 1.20725,-1.306075 1.3514,-1.596975 0.0875,-0.1765 0.1095,-0.275525 0.12225,-0.548375 0.02,-0.417075 -0.0435,-0.948725 -0.12975,-1.094625 -0.094,-0.15925 -0.346275,-0.267325 -1.06505,-0.456575 -1.510675,-0.39775 -4.108925,-1.373 -5.771275,-2.166275 -0.549375,-0.262175 -0.71045,-0.325375 -0.940925,-0.36925 -0.239,-0.0455 -0.3354,0.002 -0.3354,0.1655 0,0.1825 0.118,0.3983 0.54625,0.99885 0.775325,1.087375 1.221725,2.0461 1.457875,3.1311 0.0705,0.32445 0.0835,0.496525 0.08475,1.12305 0.0016,0.93005 -0.0555,1.194275 -0.412775,1.9087 -0.1325,0.2651 -0.24875,0.474225 -0.258375,0.464675 -0.01,-0.01 0.0175,-0.17925 0.06075,-0.37725 0.327375,-1.511025 0.015,-3.317075 -0.7027,-4.0586 -0.162,-0.1675 -0.22975,-0.21275 -0.3185,-0.21275 -0.164,0 -0.224,0.0935 -0.2691,0.41895 -0.05725,0.414725 -0.36325,1.282825 -0.452025,1.282825 -0.0175,0 -0.032,-0.2205 -0.032,-0.490175 0,-1.6115 -0.27755,-2.32445 -1.343575,-3.452375 -0.368725,-0.390125 -0.7753,-0.741575 -0.976,-0.843625 -0.16875,-0.08575 -0.4117,-0.07575 -0.611125,0.02525 -0.73205,0.3706 -1.158825,1.085775 -1.3509,2.263825 -0.084,0.51545 -0.084,1.9632 0,2.478675 0.1315,0.806575 0.416625,1.5188 0.829375,2.071725 0.1215,0.16275 0.452625,0.524875 0.735775,0.804675 l 0.51485,0.508675 -0.517725,-3.75e-4 c -0.5292,-3.75e-4 -1.096775,-0.06575 -1.43695,-0.16625 -0.10475,-0.031 -0.343375,-0.133 -0.530075,-0.2265 -0.1915,-0.096 -0.41335,-0.17875 -0.509,-0.1895 -0.157,-0.0175 -0.17875,-0.01 -0.292225,0.111 -0.1455,0.15425 -0.22875,0.405575 -0.39535,1.19295 -0.12075,0.570825 -0.310575,1.221575 -0.36635,1.25605 -0.0175,0.01 -0.04775,-0.0013 -0.06775,-0.0265 z m 3.9034,-34.918447 c 0.6441,-0.401853 1.78795,-1.168678 1.96425,-1.31682 l 0.124,-0.1042 -0.1205,-0.313828 c -0.06625,-0.1726 -0.2943,-0.688407 -0.50675,-1.146222 -0.6898,-1.486528 -1.14545,-2.565238 -1.51575,-3.588545 -0.30045,-0.830233 -0.601575,-1.405821 -0.735475,-1.405821 -0.224,0 -0.40635,1.597736 -0.4958,4.346946 -0.07525,2.309542 -0.015,3.91007 0.155,4.114747 0.04925,0.0593 0.32745,-0.0849 1.131025,-0.586247 z m -6.53885,0.291265 c 0.234,-0.86596 0.311925,-1.653338 0.2849,-2.87546 -0.0225,-1.069288 -0.078,-1.59368 -0.37955,-3.663458 -0.2495,-1.712448 -0.23525,-1.627793 -0.275425,-1.627793 -0.11275,0 -0.428325,0.614158 -0.71315,1.387323 -0.41005,1.113125 -0.81485,2.074175 -1.440025,3.41887 -0.4452,0.957635 -0.56975,1.26551 -0.60385,1.49294 -0.025,0.1634 -0.02,0.1797 0.09825,0.289308 0.06825,0.06388 0.34905,0.268932 0.62375,0.455667 0.274675,0.186725 0.740825,0.508158 1.03585,0.714278 0.542575,0.379062 1.1148,0.711785 1.22605,0.712917 0.04475,4.45e-4 0.08225,-0.0791 0.14325,-0.304592 z m 11.189325,-3.191555 c 0.3715,-0.121275 0.879175,-0.370998 0.98655,-0.485288 l 0.0865,-0.09215 -0.17125,-0.50632 c -0.09425,-0.278475 -0.3488,-0.969572 -0.565725,-1.535772 -0.48215,-1.258398 -0.794025,-2.190216 -0.986525,-2.947541 -0.2075,-0.816432 -0.280225,-1.018625 -0.419425,-1.166222 -0.103,-0.109225 -0.14575,-0.1285 -0.283425,-0.1278 -0.08925,4.47e-4 -0.22875,0.03128 -0.310075,0.0685 -0.149,0.06815 -0.87755,0.594032 -0.92155,0.665195 -0.0275,0.0446 0.2025,0.9787 0.58905,2.391605 0.5933,2.168663 1.00005,3.382448 1.248325,3.72519 0.107,0.147575 0.1105,0.14915 0.2885,0.12555 0.09925,-0.01325 0.3057,-0.06487 0.45905,-0.114925 z m -16.317325,0.0065 c 0.26625,-0.17445 0.501675,-0.815768 1.22995,-3.350423 0.43275,-1.506143 0.5703,-2.07454 0.59485,-2.457955 l 0.02,-0.32717 -0.24475,-0.2342 c -0.31385,-0.300255 -0.652725,-0.472005 -0.971375,-0.492295 -0.318875,-0.02025 -0.39175,0.05228 -0.4567,0.454832 -0.131,0.812365 -1.094225,3.731566 -1.605525,4.866001 -0.188,0.416962 -0.2275,0.540947 -0.24025,0.750822 l -0.015,0.251385 0.14725,0.140175 c 0.14475,0.137675 0.53875,0.322105 0.9226,0.431815 0.21925,0.0627 0.494425,0.048 0.618025,-0.033 z m 20.03675,-1.39413 c 1.2398,-0.306658 1.780525,-0.384015 3.2371,-0.46309 0.95975,-0.0521 1.3834,-0.109225 1.47275,-0.198575 0.031,-0.03107 0.0265,-0.06772 -0.0175,-0.142825 -0.08675,-0.146425 -0.7659,-0.725938 -1.549175,-1.321855 -1.194475,-0.908763 -2.394975,-1.935761 -3.6905,-3.157121 -1.3165,-1.241122 -1.86875,-1.670765 -2.147575,-1.670765 -0.216,0 -0.218,0.07232 -0.02775,1.040393 0.0935,0.475675 0.22925,1.197822 0.301525,1.604772 0.4057,2.280313 0.680125,3.577886 0.856025,4.047533 0.0975,0.260425 0.23225,0.433018 0.35925,0.460463 0.15375,0.03322 0.496125,-0.02325 1.2065,-0.19895 z m -23.0482,0.0425 c 0.17975,-0.18905 0.27935,-0.506988 0.53405,-1.706395 0.346475,-1.631606 0.855825,-4.255191 1.0028,-5.165313 0.0175,-0.1054 0.0075,-0.117475 -0.09775,-0.138725 -0.064,-0.01275 -0.15325,-0.02325 -0.1985,-0.02325 -0.178,0 -0.9455,0.623637 -2.051775,1.667067 -0.8653,0.816155 -1.499825,1.38896 -2.166875,1.95614 -0.51055,0.43411 -0.765625,0.63809 -2.09535,1.675678 -0.626625,0.48897 -1.042275,0.884315 -1.025125,0.9751 0.02,0.10705 0.427925,0.193225 1.122,0.237175 1.83635,0.116275 2.4206,0.18355 3.0772,0.354383 0.20025,0.0521 0.547225,0.14275 0.77105,0.20145 0.276975,0.07265 0.500325,0.107275 0.699375,0.1084 0.292325,0.0017 0.2925,0.0017 0.428825,-0.141675 z m 11.084575,-5.425016 c 0.43145,-0.252842 1.406175,-1.892067 2.249225,-3.782587 0.721075,-1.616999 1.0682,-2.547944 1.3383,-3.589179 0.2355,-0.907665 0.209,-1.524527 -0.10275,-2.408475 -0.4837,-1.370607 -1.29365,-2.119075 -2.693625,-2.489112 -0.3636,-0.0961 -1.28885,-0.133875 -1.693175,-0.0691 -1.10085,0.176375 -2.105725,0.81565 -2.6865,1.709125 -0.68885,1.059735 -0.7876,2.02189 -0.373375,3.637802 0.395275,1.541848 1.3529,3.765619 2.4218,5.623716 0.77305,1.34381 1.094325,1.629113 1.5402,1.367803 z m 0.624575,-18.44109 c 0.817625,-0.258143 1.45395,-0.867538 1.73705,-1.663533 0.1945,-0.547212 0.212,-1.533252 0.039,-2.202945 -0.182,-0.704335 -0.7025,-1.251972 -1.446625,-1.522072 -1.293275,-0.469433 -3.02525,-0.03367 -3.621725,0.911205 -0.13225,0.209375 -0.301025,0.73722 -0.3543,1.10752 -0.05325,0.369802 -0.02625,0.996455 0.0565,1.316117 0.2435,0.939608 0.86345,1.67036 1.663225,1.96023 0.4559,0.16525 0.7029,0.203975 1.205425,0.189 0.3445,-0.01025 0.528475,-0.03463 0.7214,-0.09553 z"
	   />

</svg>