<?xml version="1.0" encoding="utf-8"?>
<!DOCTYPE svg PUBLIC "-//W3C//DTD SVG 1.1//EN" "http://www.w3.org/Graphics/SVG/1.1/DTD/svg11.dtd">
<svg version="1.1" xmlns="http://www.w3.org/2000/svg" xmlns:xlink="http://www.w3.org/1999/xlink" xmlns:xml="http://www.w3.org/XML/1998/namespace" xmlns:serif="http://www.serif.com/" width="205" height="205" viewBox="0, 0, 205, 205" xml:space="preserve" fill-rule="evenodd" stroke-linecap="round" stroke-linejoin="round" style="clip-rule:evenodd;">
    
    <circle cx="102.5" cy="102.5" r="100.4" stroke-width="2.49px" style="fill:url(#Radial);stroke:black;" />
    <circle cx="102.5" cy="102.5" r="69" stroke-width="6px" stroke-opacity="0.5" style="fill:none;stroke:white;" />
    <path d="M40.3 109.5 C40 109 42.4 104 43.6 101.8 C44.6 99.8 46 97.5 47 96.1 C47.8 95 49.4 94.3 49.8 93.1 C50.3 92 49.4 90.3 49.8 89.2 C50.3 88 51.4 87.1 52.4 86.3 C53.4 85.3 55.1 83.8 56 83.4 C56.6 83.1 57.3 83.6 57.9 83.5 C58.7 83.4 60 83.3 60.8 82.7 C62 81.9 64 80.3 65.1 78.7 C66.4 76.9 67.9 73.5 68.7 71.7 C69.3 70.6 70 68.9 70.1 68.1 C70.2 67.8 70.1 67.4 69.8 67.1 C69.6 66.8 68.9 66.6 68.6 66.2 C68.4 65.9 68.3 65.4 68.5 65 C69.1 64 71.6 60.9 72.3 59.9 C72.4 59.8 72.4 59.5 72.4 59.3 C72.5 58.6 72.1 57 72.5 56 C73.2 54.5 74.8 51.7 76.6 50.1 C78.4 48.6 82.1 47.3 83.4 46.5 C83.6 46.4 83.9 46.1 84 45.8 C84.2 44.2 84.3 39 84.5 37.5 C84.5 37.1 84.8 36.8 85.1 36.7 C86.2 36.3 89.9 35.2 91 34.8 C91.2 34.7 91.4 34.6 91.5 34.4 C91.6 34.2 91.6 33.9 91.5 33.7 C91.4 33 90.8 31.3 90.7 30.1 C90.7 28.4 90.5 25 91.5 23.3 C92.4 21.6 94.6 20.2 96.7 19.9 C98.8 19.5 102.3 20.2 104.1 21.1 C105.6 21.8 106.7 23.5 107.1 25.2 C107.5 27.1 106.8 30.9 106.7 32.4 C106.6 33 106.1 33.8 106 34.2 C106 34.4 105.9 34.7 106 34.9 C106.1 35 106.3 35.2 106.5 35.3 C108.2 36 114.3 38.1 116 38.8 C116.3 39 116.5 39.3 116.5 39.7 C116.6 40.8 116.4 44.6 116.5 45.8 C116.5 46.1 116.7 46.4 117 46.6 C117.6 47 119.7 48 120.4 48.3 C120.5 48.4 120.6 48.4 120.8 48.4 C121.1 48.4 121.8 48.4 122.2 48.4 C122.4 48.5 122.6 48.5 122.8 48.7 C123.5 49.4 126 51.9 126.7 52.6 C126.8 52.7 126.9 52.9 127 53 C127.3 54.3 128.2 59.1 128.6 60.5 C128.7 60.7 128.9 60.9 129.1 61.1 C129.3 61.2 129.6 61.3 129.9 61.4 C130.1 61.6 130.3 61.7 130.3 62 C130.6 62.8 131.4 65.3 131.6 66.2 C131.7 66.5 131.3 66.8 131.2 67.2 C131.1 67.5 130.8 67.9 130.9 68.3 C131.6 70.1 134.7 76.3 135.5 78 C135.5 78.1 135.5 78.1 135.5 78.2 C135.7 78.8 136.1 81.2 136.3 81.8 C136.3 82 136.4 82.1 136.4 82.2 C136.8 82.8 138.1 84.3 138.5 85.5 C139 86.9 139.3 89.1 139.4 90.7 C139.5 92 139.7 93.6 139.2 94.6 C138.7 95.7 137.4 96.6 136.3 96.8 C135.2 97 133.6 96.7 132.7 95.9 C131.8 95 131.1 93.1 130.8 91.6 C130.6 90 131.2 87.6 131.3 86.3 C131.4 85.6 131.6 84.7 131.6 84.1 C131.6 83.8 131.5 83.4 131.5 83.2 C131.4 83.1 131.4 83 131.3 82.9 C129.8 81 124.3 73.7 122.7 71.8 C122.5 71.5 122 71.5 121.8 71.5 C121.6 71.5 121.4 71.7 121.3 71.6 C121 71.6 120.6 71.6 120.4 71.4 C119.8 71 118.4 69.4 117.8 68.9 C117.6 68.7 117.1 68.6 116.9 68.7 C116.7 68.8 116.4 69.1 116.3 69.4 C116.1 70 116 71.5 115.6 72.6 C115.1 73.9 113.9 76.1 113.4 77.7 C113 79.2 112.8 80.9 112.7 82.3 C112.6 83.5 112.7 85.2 112.7 85.9 C112.7 86.1 112.9 86.4 113 86.5 C113.2 86.7 113.5 86.7 113.7 86.7 C114.5 86.6 117.2 86.2 118.1 86.2 C118.4 86.2 118.9 86.4 119 86.8 C119.8 89.1 122.4 97.8 123.1 100.2 C123.2 100.5 123.1 100.8 122.9 101 C122.5 101.5 121.3 102.6 120.9 102.9 C120.8 103 120.7 103.1 120.7 103.2 C120.7 103.3 120.6 103.6 120.7 103.8 C121.6 107.4 125.6 121.3 126.5 125 C126.6 125.3 126.2 125.6 126.1 125.9 C126 126.2 125.7 126.6 125.8 126.9 C126.8 130.4 131.1 143.2 132.2 146.6 C132.2 146.7 132.2 146.9 132.2 147 C132.1 147.9 131.4 151.1 131.3 152 C131.2 152.1 131.3 152.2 131.3 152.4 C131.9 154.6 133.9 162.4 134.7 165.6 C135.2 167.6 135.6 170.1 136.1 171.6 C136.5 172.7 137.4 173.5 137.8 174.6 C138.2 175.6 138.3 177.1 138.4 178 C138.5 178.6 138.5 179.5 138.5 179.9 C138.5 180.1 138.4 180.4 138.2 180.5 C138.1 180.7 137.8 180.8 137.6 180.8 C136.1 180.8 131 180.8 129.5 180.6 C129.1 180.6 128.8 180.3 128.6 179.9 C128.5 179.4 128.3 178.4 128.3 177.6 C128.3 176.6 128.5 174.8 128.6 173.7 C128.6 172.8 128.9 171.8 128.8 170.9 C128.6 169.8 127.9 168.6 127.4 167.5 C126.4 165.1 123.6 158.9 122.5 156.5 C122 155.2 121.7 153.8 121 152.7 C120 151.4 118.2 149.8 116.9 148.4 C115.5 147 113.6 145.4 112.7 144.3 C112.1 143.5 111.9 142.4 111.6 141.4 C111.2 139.9 110.6 137.1 110.1 135.1 C109.7 133.3 109 130.6 108.6 129.6 C108.5 129.2 108.1 129 107.8 129 C106.5 128.8 103.2 129 100.9 128.9 C98.4 128.8 94.2 128.5 92.7 128.5 C92.3 128.5 92 128.7 91.8 129 C91.2 130.1 90.1 132.9 89.3 134.8 C88.2 137.3 86.3 141.8 85.5 143.8 C85.1 144.9 84.7 146.5 84.5 147.1 C84.4 147.3 84.3 147.5 84.1 147.6 C83.3 148.3 80.8 150.2 79.8 151 C79.3 151.4 78.7 152.1 78.4 152.5 C78.2 152.7 78.2 153.1 78 153.3 C77.6 154.5 76.3 157.5 75.5 159.6 C74.5 162 73 165.6 72.2 168 C71.5 169.9 70.9 172.1 70.6 173.8 C70.3 175.2 70.5 177.3 70.4 178.2 C70.4 178.4 70.3 178.7 70.1 178.8 C70 179 69.7 179.1 69.5 179.1 C66.7 179 56.1 178.8 53.3 178.6 C52.9 178.6 52.6 178.4 52.5 178.1 C52.3 177.8 52.1 177.2 52.3 176.8 C52.6 176.5 53.3 176.2 53.9 176 C54.5 175.8 55.4 176.1 56.1 175.7 C56.9 175.2 58 174 58.9 173.1 C60 172 61.6 170.6 62.6 169 C63.6 167.3 64.5 164.8 65.2 162.6 C66.1 159.9 67.2 156 67.9 152.6 C68.6 149.1 69.1 144 69.3 141.6 C69.4 140.6 69.2 139.6 69.3 138.5 C69.6 137 70.3 134.3 70.9 132.5 C71.3 130.9 72.2 128.7 72.5 127.8 C72.6 127.5 72.7 127.2 72.7 126.9 C72.7 126.6 72.4 126.2 72.2 125.9 C72.1 125.6 71.7 125.3 71.7 124.9 C71.8 124.1 72.2 122.3 72.6 121 C73.1 118.8 74 114.5 74.8 111.7 C75.5 109.2 76.6 106.8 77.3 104.3 C78 101.9 78.1 98.7 78.8 96.8 C79.4 95.3 80.6 93.8 81.4 92.7 C82.1 91.7 83.2 90.8 83.6 89.8 C83.9 88.8 83.6 87.6 83.6 86.5 C83.6 84.4 83.6 79.6 83.5 77.5 C83.4 76.3 83.3 74.8 83.1 74 C82.8 73.4 82.2 72.7 81.8 72.5 C81.5 72.3 81 72.4 80.6 72.6 C80.2 72.9 79.5 73.8 79 74.4 C77.7 75.7 74.9 78.7 73.2 80.6 C71.7 82.1 69.6 84.3 68.7 85.3 C68.3 85.7 67.6 86.2 67.3 86.5 C67.2 86.7 67 86.9 67 87.2 C67 87.4 67.3 87.7 67.4 87.8 C67.4 87.9 67.5 87.9 67.6 88 C67.6 88.1 67.9 88.4 67.9 88.6 C67.9 88.8 67.8 89.1 67.7 89.2 C67.3 89.7 66.5 90.6 65.8 91.2 C64.9 92.1 62.9 93.8 62.1 94.3 C61.8 94.4 61.3 94.4 61 94.2 C60.6 94 59.8 93.1 59.4 92.9 C59 92.8 58.6 92.7 58.3 93 C56.8 94.1 52.9 97.6 50.7 99.6 C48.8 101.3 46.8 103.1 45.1 104.8 C43.5 106.3 40.5 110 40.3 109.5 z" fill-rule="nonzero" style="fill:#FFFFC9;" />
    <path d="M84.5 30.3 L84.5 30.2 C84.5 27.6 84.6 22.7 86 20.2 C87.9 17.1 91.8 14.4 95.6 13.7 C98.8 13.1 104.2 14.1 106.9 15.5 C110 17.1 112.4 20.4 113.2 23.8 C113.6 25.6 113.4 28.8 113.1 31.1 C115.2 31.9 117.5 32.7 118.4 33.1 C120.7 34.1 122.5 36.7 122.7 39.2 C122.8 39.7 122.8 41 122.8 42.2 L123 42.2 C124.4 42.4 125.9 43.1 127 44.1 C127.8 44.8 130.5 47.5 131.2 48.3 C132.1 49.2 132.8 50.4 133.1 51.6 C133.3 52.5 133.8 55 134.2 56.9 C135.1 57.7 135.8 58.7 136.2 59.8 C136.6 60.8 137.6 64 137.8 65.1 C137.9 65.8 137.7 66.8 137.5 67.7 C138.6 70.2 140.6 74.1 141.1 75.4 C141.4 75.9 141.5 76.4 141.7 76.9 C141.7 77.4 142 78.6 142.2 79.5 C142.8 80.5 143.9 82.1 144.4 83.4 C145 85.3 145.4 88.2 145.6 90.1 C145.8 92.6 145.8 95.5 144.8 97.4 C143.5 100 140.2 102.4 137.5 102.9 C135 103.4 131.6 102.7 129.3 101.1 C129.1 102.5 128.6 103.9 127.8 104.9 C127.7 105 127.6 105.1 127.5 105.2 C129.1 110.7 131.8 120.5 132.6 123.5 C132.8 124.3 132.6 125.7 132.3 126.8 C133.8 131.5 137.2 141.8 138.1 144.7 C138.5 145.8 138.6 147 138.4 148.1 C138.3 148.7 137.9 150.6 137.6 152 C138.4 155 140.1 161.3 140.8 164.1 C141.2 165.8 141.5 167.9 141.9 169.3 C142.2 169.8 143.3 171.4 143.7 172.4 C144.2 173.9 144.5 176 144.6 177.2 C144.8 178.3 144.8 179.7 144.7 180.4 C144.6 182.1 143.7 183.9 142.6 185 C141.4 186.2 139.4 187 137.7 187 C136.1 187 130.5 187 128.9 186.8 C126.3 186.6 123.7 184.6 122.8 182.2 C122.4 181.2 122.1 179.2 122.1 177.7 C122.1 176.5 122.3 174.6 122.3 173.3 C122.4 172.9 122.4 172.3 122.5 171.8 C122.3 171.4 121.9 170.5 121.7 170 C120.6 167.6 117.9 161.4 116.8 159 C116.4 158.1 116.4 157.1 115.9 156.3 C115.1 155.2 113.6 153.9 112.4 152.8 C110.9 151.2 108.7 149.4 107.7 148.1 C106.6 146.6 106.1 144.9 105.6 143.1 C105.1 141.6 104.6 138.7 104.1 136.6 L103.7 135.1 C102.7 135.2 101.6 135.2 100.7 135.1 C99.4 135.1 97.6 135 96 134.9 C95.7 135.7 95.3 136.6 95 137.3 C94 139.7 92.1 144.1 91.3 146.1 C90.9 147.1 90.6 148.6 90.4 149.2 C89.9 150.5 89.1 151.6 88.1 152.5 C87.3 153.1 84.8 155 83.9 155.8 L83.8 155.9 C83.3 157.1 82.1 159.9 81.3 161.9 C80.3 164.3 78.9 167.7 78.1 170 C77.6 171.6 77 173.4 76.7 174.9 C76.5 176.1 76.7 178 76.6 178.7 C76.5 180.3 75.7 182.1 74.6 183.2 C73.4 184.4 71.3 185.3 69.4 185.3 C66.6 185.3 55.8 185 52.9 184.9 C50.6 184.7 48.1 183.1 47 181 C46.5 180.2 46 178.6 46 177.3 C46 175.8 46.4 174.5 47.1 173.4 C47.9 172.2 50.2 170.6 52.1 170 C52.4 169.9 52.9 169.9 53.3 169.8 L54.4 168.7 C55.2 167.9 56.5 167 57.2 165.8 C58 164.4 58.7 162.4 59.2 160.7 C60.1 158.2 61.2 154.6 61.8 151.4 C62.4 148.1 62.9 143.2 63.1 141 C63.2 139.9 63 138.7 63.2 137.5 C63.4 135.8 64.3 132.8 64.9 130.8 C65.2 129.7 65.7 128.3 66.1 127.2 C65.7 126.3 65.4 125.3 65.5 124.5 C65.6 123.5 66.1 121.2 66.5 119.6 C67 117.3 68 112.9 68.8 110 C69.5 107.6 70.6 105.2 71.3 102.7 C72 100.1 72.2 96.8 72.9 94.7 C73.7 92.7 75.2 90.7 76.3 89.2 C76.5 88.7 77 88.1 77.4 87.7 C77.4 87.3 77.4 86.8 77.4 86.5 L77.4 85.2 L75.2 87.5 L74.2 88.6 C74.1 90.1 73.6 91.9 72.6 93.2 C72.1 93.8 70.9 95 69.9 95.9 C68.8 96.9 66.4 98.9 65.4 99.5 C63.7 100.6 61.3 100.8 59.3 100.2 C57.8 101.6 56 103.2 54.8 104.3 C53 105.9 51.1 107.7 49.4 109.3 C48.2 110.4 46.4 112.7 45.3 113.7 C44.2 114.7 43.1 115.2 42.5 115.4 C40.7 116.1 39.2 115.8 38.1 115.4 C36.7 114.8 35.5 113.9 34.7 112.3 C34.3 111.6 33.8 110.2 34.1 108.1 C34.4 106.7 36.7 101.4 38 99 C39.1 96.7 40.8 94 42 92.4 C42.3 91.9 43 91.2 43.6 90.6 C43.6 89.4 43.7 87.8 44 87 C44.7 85 46.5 83.2 48.1 81.7 C49.5 80.4 51.9 78.4 53.2 77.8 C54.2 77.3 56 77.2 57.3 77.3 L57.8 77.2 C58.5 76.7 59.5 75.9 60 75 C61.2 73.5 62.4 70.6 63.1 69.1 C62 66.9 61.9 63.9 63.1 61.9 C63.5 61.1 65.1 59.1 66.2 57.6 C66.2 56.3 66.4 54.4 66.8 53.4 C67.8 51.3 70 47.6 72.5 45.4 C73.9 44.2 76.2 43.1 78 42.3 C78.1 40.2 78.2 37.7 78.3 36.7 C78.6 34.3 80.5 31.8 82.7 30.9 C83.1 30.8 83.7 30.5 84.5 30.3 z M40.3 109.5 C40 109 42.4 104 43.6 101.8 C44.6 99.8 46 97.5 47 96.1 C47.8 95 49.4 94.3 49.8 93.1 C50.3 92 49.4 90.3 49.8 89.2 C50.3 88 51.4 87.1 52.4 86.3 C53.4 85.3 55.1 83.8 56 83.4 C56.6 83.1 57.3 83.6 57.9 83.5 C58.7 83.4 60 83.3 60.8 82.7 C62 81.9 64 80.3 65.1 78.7 C66.4 76.9 67.9 73.5 68.7 71.7 C69.3 70.6 70 68.9 70.1 68.1 C70.2 67.8 70.1 67.4 69.8 67.1 C69.6 66.8 68.9 66.6 68.6 66.2 C68.4 65.9 68.3 65.4 68.5 65 C69.1 64 71.6 60.9 72.3 59.9 C72.4 59.8 72.4 59.5 72.4 59.3 C72.5 58.6 72.1 57 72.5 56 C73.2 54.5 74.8 51.7 76.6 50.1 C78.4 48.6 82.1 47.3 83.4 46.5 C83.6 46.4 83.9 46.1 84 45.8 C84.2 44.2 84.3 39 84.5 37.5 C84.5 37.1 84.8 36.8 85.1 36.7 C86.2 36.3 89.9 35.2 91 34.8 C91.2 34.7 91.4 34.6 91.5 34.4 C91.6 34.2 91.6 33.9 91.5 33.7 C91.4 33 90.8 31.3 90.7 30.1 C90.7 28.4 90.5 25 91.5 23.3 C92.4 21.6 94.6 20.2 96.7 19.9 C98.8 19.5 102.3 20.2 104.1 21.1 C105.6 21.8 106.7 23.5 107.1 25.2 C107.5 27.1 106.8 30.9 106.7 32.4 C106.6 33 106.1 33.8 106 34.2 C106 34.4 105.9 34.7 106 34.9 C106.1 35 106.3 35.2 106.5 35.3 C108.2 36 114.3 38.1 116 38.8 C116.3 39 116.5 39.3 116.5 39.7 C116.6 40.8 116.4 44.6 116.5 45.8 C116.5 46.1 116.7 46.4 117 46.6 C117.6 47 119.7 48 120.4 48.3 C120.5 48.4 120.6 48.4 120.8 48.4 C121.1 48.4 121.8 48.4 122.2 48.4 C122.4 48.5 122.6 48.5 122.8 48.7 C123.5 49.4 126 51.9 126.7 52.6 C126.8 52.7 126.9 52.9 127 53 C127.3 54.3 128.2 59.1 128.6 60.5 C128.7 60.7 128.9 60.9 129.1 61.1 C129.3 61.2 129.6 61.3 129.9 61.4 C130.1 61.6 130.3 61.7 130.3 62 C130.6 62.8 131.4 65.3 131.6 66.2 C131.7 66.5 131.3 66.8 131.2 67.2 C131.1 67.5 130.8 67.9 130.9 68.3 C131.6 70.1 134.7 76.3 135.5 78 C135.5 78.1 135.5 78.1 135.5 78.2 C135.7 78.8 136.1 81.2 136.3 81.8 C136.3 82 136.4 82.1 136.4 82.2 C136.8 82.8 138.1 84.3 138.5 85.5 C139 86.9 139.3 89.1 139.4 90.7 C139.5 92 139.7 93.6 139.2 94.6 C138.7 95.7 137.4 96.6 136.3 96.8 C135.2 97 133.6 96.7 132.7 95.9 C131.8 95 131.1 93.1 130.8 91.6 C130.6 90 131.2 87.6 131.3 86.3 C131.4 85.6 131.6 84.7 131.6 84.1 C131.6 83.8 131.5 83.4 131.5 83.2 C131.4 83.1 131.4 83 131.3 82.9 C129.8 81 124.3 73.7 122.7 71.8 C122.5 71.5 122 71.5 121.8 71.5 C121.6 71.5 121.4 71.7 121.3 71.6 C121 71.6 120.6 71.6 120.4 71.4 C119.8 71 118.4 69.4 117.8 68.9 C117.6 68.7 117.1 68.6 116.9 68.7 C116.7 68.8 116.4 69.1 116.3 69.4 C116.1 70 116 71.5 115.6 72.6 C115.1 73.9 113.9 76.1 113.4 77.7 C113 79.2 112.8 80.9 112.7 82.3 C112.6 83.5 112.7 85.2 112.7 85.9 C112.7 86.1 112.9 86.4 113 86.5 C113.2 86.7 113.5 86.7 113.7 86.7 C114.5 86.6 117.2 86.2 118.1 86.2 C118.4 86.2 118.9 86.4 119 86.8 C119.8 89.1 122.4 97.8 123.1 100.2 C123.2 100.5 123.1 100.8 122.9 101 C122.5 101.5 121.3 102.6 120.9 102.9 C120.8 103 120.7 103.1 120.7 103.2 C120.7 103.3 120.6 103.6 120.7 103.8 C121.6 107.4 125.6 121.3 126.5 125 C126.6 125.3 126.2 125.6 126.1 125.9 C126 126.2 125.7 126.6 125.8 126.9 C126.8 130.4 131.1 143.2 132.2 146.6 C132.2 146.7 132.2 146.9 132.2 147 C132.1 147.9 131.4 151.1 131.3 152 C131.2 152.1 131.3 152.2 131.3 152.4 C131.9 154.6 133.9 162.4 134.7 165.6 C135.2 167.6 135.6 170.1 136.1 171.6 C136.5 172.7 137.4 173.5 137.8 174.6 C138.2 175.6 138.3 177.1 138.4 178 C138.5 178.6 138.5 179.5 138.5 179.9 C138.5 180.1 138.4 180.4 138.2 180.5 C138.1 180.7 137.8 180.8 137.6 180.8 C136.1 180.8 131 180.8 129.5 180.6 C129.1 180.6 128.8 180.3 128.6 179.9 C128.5 179.4 128.3 178.4 128.3 177.6 C128.3 176.6 128.5 174.8 128.6 173.7 C128.6 172.8 128.9 171.8 128.8 170.9 C128.6 169.8 127.9 168.6 127.4 167.5 C126.4 165.1 123.6 158.9 122.5 156.5 C122 155.2 121.7 153.8 121 152.7 C120 151.4 118.2 149.8 116.9 148.4 C115.5 147 113.6 145.4 112.7 144.3 C112.1 143.5 111.9 142.4 111.6 141.4 C111.2 139.9 110.6 137.1 110.1 135.1 C109.7 133.3 109 130.6 108.6 129.6 C108.5 129.2 108.1 129 107.8 129 C106.5 128.8 103.2 129 100.9 128.9 C98.4 128.8 94.2 128.5 92.7 128.5 C92.3 128.5 92 128.7 91.8 129 C91.2 130.1 90.1 132.9 89.3 134.8 C88.2 137.3 86.3 141.8 85.5 143.8 C85.1 144.9 84.7 146.5 84.5 147.1 C84.4 147.3 84.3 147.5 84.1 147.6 C83.3 148.3 80.8 150.2 79.8 151 C79.3 151.4 78.7 152.1 78.4 152.5 C78.2 152.7 78.2 153.1 78 153.3 C77.6 154.5 76.3 157.5 75.5 159.6 C74.5 162 73 165.6 72.2 168 C71.5 169.9 70.9 172.1 70.6 173.8 C70.3 175.2 70.5 177.3 70.4 178.2 C70.4 178.4 70.3 178.7 70.1 178.8 C70 179 69.7 179.1 69.5 179.1 C66.7 179 56.1 178.8 53.3 178.6 C52.9 178.6 52.6 178.4 52.5 178.1 C52.3 177.8 52.1 177.2 52.3 176.8 C52.6 176.5 53.3 176.2 53.9 176 C54.5 175.8 55.4 176.1 56.1 175.7 C56.9 175.2 58 174 58.9 173.1 C60 172 61.6 170.6 62.6 169 C63.6 167.3 64.5 164.8 65.2 162.6 C66.1 159.9 67.2 156 67.9 152.6 C68.6 149.1 69.1 144 69.3 141.6 C69.4 140.6 69.2 139.6 69.3 138.5 C69.6 137 70.3 134.3 70.9 132.5 C71.3 130.9 72.2 128.7 72.5 127.8 C72.6 127.5 72.7 127.2 72.7 126.9 C72.7 126.6 72.4 126.2 72.2 125.9 C72.1 125.6 71.7 125.3 71.7 124.9 C71.8 124.1 72.2 122.3 72.6 121 C73.1 118.8 74 114.5 74.8 111.7 C75.5 109.2 76.6 106.8 77.3 104.3 C78 101.9 78.1 98.7 78.8 96.8 C79.4 95.3 80.6 93.8 81.4 92.7 C82.1 91.7 83.2 90.8 83.6 89.8 C83.9 88.8 83.6 87.6 83.6 86.5 C83.6 84.4 83.6 79.6 83.5 77.5 C83.4 76.3 83.3 74.8 83.1 74 C82.8 73.4 82.2 72.7 81.8 72.5 C81.5 72.3 81 72.4 80.6 72.6 C80.2 72.9 79.5 73.8 79 74.4 C77.7 75.7 74.9 78.7 73.2 80.6 C71.7 82.1 69.6 84.3 68.7 85.3 C68.3 85.7 67.6 86.2 67.3 86.5 C67.2 86.7 67 86.9 67 87.2 C67 87.4 67.3 87.7 67.4 87.8 C67.4 87.9 67.5 87.9 67.6 88 C67.6 88.1 67.9 88.4 67.9 88.6 C67.9 88.8 67.8 89.1 67.7 89.2 C67.3 89.7 66.5 90.6 65.8 91.2 C64.9 92.1 62.9 93.8 62.1 94.3 C61.8 94.4 61.3 94.4 61 94.2 C60.6 94 59.8 93.1 59.4 92.9 C59 92.8 58.6 92.7 58.3 93 C56.8 94.1 52.9 97.6 50.7 99.6 C48.8 101.3 46.8 103.1 45.1 104.8 C43.5 106.3 40.5 110 40.3 109.5 z M66.9 129.1 L66.9 129.2 L67 129.3 L66.9 129.1 z M131.9 128.3 C131.9 128.2 131.9 128.2 132 128.2 C132 128.1 132 128.1 132 128 L131.9 128.3 z M64.4 93.3 C64.5 93.3 64.5 93.4 64.6 93.4 C64.6 93.5 64.7 93.5 64.7 93.5 L64.4 93.3 z M64.1 93.1 L64.2 93.2 L64.1 93.1 L64.1 93.1 z M125.2 85.2 L125 84.9 L125.2 85.5 L125.2 85.2 z M119.9 78.3 C119.7 78.7 119.5 79.1 119.4 79.5 C119.4 79.7 119.3 79.8 119.3 80 C120.3 80.3 121.4 80.7 122.3 81.4 L122.2 81.2 L119.9 78.3 z M58 77.3 C58.2 77.3 58.4 77.3 58.5 77.3 C58.6 77.3 58.6 77.3 58.6 77.3 C58.6 77.3 58.3 77.3 58 77.3 z" fill-opacity="0.71" />
    <defs>
        <radialGradient cx="102.6" cy="101.8" r="100.4" gradientUnits="userSpaceOnUse" id="Radial">
			<stop offset="0%" stop-color="#CB7BFF" stop-opacity="1" />
			<stop offset="100%" stop-color="#602D8B" stop-opacity="1" />
		</radialGradient>
    </defs>
	
</svg>