<?xml version="1.0" encoding="UTF-8" standalone="no"?>
<!DOCTYPE svg PUBLIC "-//W3C//DTD SVG 1.1//EN" "http://www.w3.org/Graphics/SVG/1.1/DTD/svg11.dtd">
<svg width="204" height="204" viewBox="0 0 204 204" version="1.1" xmlns="http://www.w3.org/2000/svg" xmlns:xlink="http://www.w3.org/1999/xlink" xml:space="preserve" xmlns:serif="http://www.serif.com/" style="fill-rule:evenodd;clip-rule:evenodd;stroke-linecap:round;stroke-linejoin:round;stroke-miterlimit:1.5;">
    <g transform="matrix(1,0,0,1,-1472.31,-238.885)">
        <g id="Bene-Ges-Fighter" serif:id="Bene Ges Fighter" transform="matrix(1,0,0,1,1344,-1791.99)">
            <g transform="matrix(1.00601,0,0,1.00601,-4.80232,1796.3)">
                <circle cx="233.356" cy="334.206" r="99.794" style="fill:url(#_Radial1);stroke:black;stroke-width:2.49px;"/>
            </g>
            <g transform="matrix(0.691174,0,0,0.691174,68.666,1901.52)">
                <circle cx="233.356" cy="334.206" r="99.794" style="fill:none;stroke:white;stroke-opacity:0.5;stroke-width:9.04px;"/>
            </g>
            <g transform="matrix(10.2083,0,0,10.2083,-4369.76,-485.219)">
                <path d="M447.448,262.987L447.152,262.987L447.106,262.754L446.795,262.862L446.515,263.08L445.257,263.064L445.35,262.66L445.614,262.489L445.971,262.474L446.236,262.147L446.562,261.852L446.562,261.604L446.748,261.386L447.059,260.796L446.935,260.314L447.308,259.242L447.463,259.242L447.789,259.397L447.898,258.993L447.883,258.807L448.38,257.828L448.225,257.75L449.126,255.854L449.359,255.652L449.328,255.326L449.079,255.279L448.629,254.347L448.038,255.45L447.805,255.544L447.075,255.326L446.95,255.652L446.78,255.652L445.987,255.015L445.801,254.86L445.692,255.015L445.335,254.938L445.148,254.767L445.148,254.269L444.806,254.099L444.79,253.896L444.822,253.555L444.433,253.399L444.449,253.166L444.325,252.964L444.216,253.166L443.563,252.84L443.703,252.374L444.293,252.56L444.387,252.747L444.542,252.793L444.651,252.685L446.22,253.29L446.22,253.508L446.344,253.586L446.313,253.866L446.08,253.866L446.189,254.176L446.313,254.238L447.214,254.409L447.246,254.487L447.619,254.565L447.65,254.409L447.619,254.192L447.836,253.834L447.758,253.601L448.023,252.98L448.209,252.809L448.799,252.591L448.535,252.42L448.737,252.079L448.784,251.923L448.644,251.876C448.518,251.591 448.428,251.318 448.364,251.053L448.396,250.68L448.333,250.54L448.318,250.322L448.248,249.809C448.559,249.536 449.025,249.546 449.483,249.546L449.654,249.623C449.997,249.809 450.235,250.068 450.369,250.4L450.198,250.68L449.918,250.975L449.949,251.146L450.074,251.177L450.167,251.286L450.633,251.395L450.757,251.799L451.255,251.799L451.628,251.923L452.063,252.187L452.342,252.234L452.669,252.638L453.026,252.7L453.119,252.793L453.337,252.514L453.259,252.405L453.554,251.721L453.679,251.55L453.601,251.395L453.399,251.488L453.166,251.441L453.01,251.208L453.414,249.515L453.539,249.546L453.585,249.328L453.43,249.25L453.57,248.769L453.694,248.738L453.881,248.411L453.943,248.8L454.114,248.846L454.067,249.39L453.912,249.406L453.912,249.608L454.052,249.732L454.036,250.121L454.207,250.214L454.254,250.463L454.626,250.664L454.642,250.804L454.58,251.332L454.254,251.783L454.238,252.653C454.921,252.588 455.704,252.399 456.553,252.125C456.025,252.551 455.508,252.983 455.357,253.617C454.797,253.703 454.264,253.671 453.787,253.384L453.71,253.601C455.279,254.161 456.569,255.217 457.998,256.025C457.447,256.452 456.893,256.858 456.258,256.616C453.806,256.787 454.541,258.175 453.834,259.226L453.943,259.366L454.316,259.397L454.549,260.065L454.564,260.314L455.124,261.573L455.435,261.93L455.652,262.303L455.963,262.536L455.994,263.033L455.232,263.033L454.766,262.924L454.533,262.893L454.44,262.272L454.502,261.961L454.347,261.852L454.191,261.479L453.725,260.811L453.554,260.858L453.15,260.314L453.259,260.019L453.197,259.848C451.964,260.112 451.337,260.734 450.338,261.013L449.483,258.387L448.597,259.319L448.566,259.863L448.737,260.034L448.271,260.811L447.945,260.796L447.603,261.573L447.587,261.806L447.432,262.008L447.587,262.225L447.448,262.987Z" style="fill:rgb(255,255,201);"/>
                <path d="M453.933,247.801L453.99,247.809L454.047,247.822L454.102,247.84L454.155,247.864L454.205,247.892L454.253,247.925L454.297,247.963L454.338,248.004L454.374,248.049L454.406,248.098L454.434,248.149L454.456,248.202L454.473,248.258L454.485,248.315L454.494,248.367L454.522,248.39L454.562,248.43L454.599,248.473L454.631,248.52L454.659,248.569L454.683,248.621L454.701,248.674L454.715,248.729L454.723,248.785L454.726,248.842L454.724,248.899L454.677,249.442L454.67,249.498L454.657,249.553L454.646,249.587L454.648,249.595L454.658,249.649L454.663,249.702L454.663,249.757L454.661,249.804L454.668,249.812L454.702,249.854L454.732,249.899L454.758,249.947L454.779,249.996L454.796,250.048L454.799,250.062L454.918,250.126L454.968,250.156L455.016,250.192L455.059,250.231L455.099,250.275L455.134,250.322L455.165,250.373L455.19,250.426L455.211,250.481L455.226,250.538L455.235,250.597L455.25,250.737L455.254,250.783L455.254,250.829L455.25,250.876L455.188,251.404L455.18,251.455L455.167,251.506L455.15,251.555L455.129,251.602L455.105,251.648L455.076,251.691L454.9,251.934L454.925,251.929L454.958,251.923L454.992,251.916L455.025,251.909L455.059,251.901L455.093,251.894L455.127,251.886L455.161,251.879L455.195,251.871L455.23,251.863L455.264,251.854L455.299,251.846L455.334,251.838L455.369,251.829L455.404,251.82L455.439,251.811L455.475,251.802L455.51,251.793L455.546,251.784L455.582,251.774L455.618,251.764L455.654,251.755L455.691,251.745L455.727,251.735L455.764,251.724L455.8,251.714L455.837,251.703L455.874,251.693L455.911,251.682L455.948,251.671L455.986,251.66L456.023,251.649L456.061,251.638L456.098,251.626L456.136,251.614L456.174,251.603L456.212,251.591L456.251,251.579L456.289,251.567L456.327,251.555L456.366,251.542L456.423,251.527L456.481,251.517L456.539,251.513L456.598,251.514L456.656,251.521L456.713,251.534L456.769,251.552L456.822,251.575L456.874,251.603L456.922,251.636L456.967,251.674L457.008,251.715L457.045,251.76L457.078,251.809L457.106,251.861L457.128,251.915L457.146,251.97L457.158,252.028L457.164,252.086L457.165,252.144L457.161,252.203L457.151,252.26L457.135,252.317L457.114,252.371L457.088,252.424L457.057,252.473L457.021,252.52L456.981,252.563L456.938,252.602L456.889,252.641L456.841,252.68L456.793,252.719L456.77,252.738L456.747,252.757L456.724,252.776L456.701,252.795L456.678,252.814L456.656,252.833L456.634,252.852L456.612,252.87L456.591,252.889L456.57,252.908L456.548,252.926L456.528,252.945L456.507,252.963L456.487,252.982L456.467,253L456.448,253.019L456.429,253.037L456.41,253.055L456.391,253.073L456.373,253.092L456.355,253.11L456.338,253.128L456.32,253.146L456.303,253.165L456.295,253.173L456.287,253.182L456.279,253.191L456.271,253.2L456.263,253.209L456.255,253.218L456.247,253.227L456.24,253.235L456.232,253.244L456.225,253.253L456.218,253.262L456.21,253.271L456.203,253.28L456.196,253.288L456.189,253.297L456.182,253.306L456.175,253.315L456.169,253.324L456.162,253.332L456.156,253.341L456.149,253.35L456.143,253.359L456.137,253.367L456.131,253.376L456.125,253.385L456.119,253.394L456.113,253.402L456.107,253.411L456.102,253.419L456.096,253.428L456.091,253.437L456.085,253.445L456.08,253.454L456.075,253.463L456.07,253.471L456.065,253.48L456.06,253.488L456.055,253.497L456.051,253.506L456.046,253.514L456.041,253.523L456.037,253.532L456.033,253.54L456.029,253.548L456.024,253.557L456.02,253.566L456.016,253.574L456.012,253.583L456.009,253.592L456.005,253.6L456.001,253.609L455.998,253.618L455.994,253.626L455.991,253.635L455.988,253.644L455.984,253.652L455.981,253.661L455.978,253.67L455.975,253.678L455.972,253.687L455.97,253.696L455.967,253.705L455.964,253.714L455.962,253.723L455.959,253.732L455.957,253.741L455.955,253.75L455.952,253.762L455.936,253.815L455.916,253.867L455.891,253.917L455.861,253.964L455.856,253.971L455.894,253.994L455.928,254.014L455.962,254.035L456.029,254.076L456.097,254.117L456.164,254.159L456.231,254.201L456.297,254.242L456.364,254.284L456.43,254.326L456.496,254.368L456.562,254.41L456.627,254.452L456.693,254.494L456.758,254.536L456.888,254.619L457.018,254.703L457.147,254.786L457.211,254.827L457.276,254.868L457.34,254.909L457.404,254.95L457.468,254.991L457.532,255.031L457.596,255.071L457.66,255.111L457.724,255.151L457.788,255.19L457.852,255.229L457.884,255.248L457.916,255.268L457.948,255.287L457.98,255.306L458.012,255.325L458.044,255.344L458.076,255.363L458.108,255.382L458.14,255.4L458.172,255.419L458.204,255.437L458.236,255.456L458.268,255.474L458.3,255.493L458.349,255.523L458.394,255.558L458.436,255.597L458.474,255.64L458.508,255.686L458.538,255.736L458.563,255.787L458.582,255.841L458.597,255.897L458.607,255.953L458.611,256.01L458.609,256.068L458.603,256.125L458.591,256.181L458.573,256.236L458.551,256.289L458.524,256.339L458.492,256.387L458.456,256.432L458.416,256.473L458.373,256.51L458.32,256.55L458.267,256.591L458.24,256.612L458.212,256.633L458.185,256.654L458.157,256.674L458.129,256.695L458.101,256.716L458.072,256.736L458.043,256.757L458.015,256.778L457.985,256.798L457.956,256.819L457.926,256.839L457.896,256.859L457.866,256.879L457.835,256.899L457.805,256.918L457.789,256.928L457.773,256.938L457.757,256.948L457.741,256.957L457.725,256.967L457.709,256.976L457.693,256.986L457.677,256.995L457.661,257.004L457.644,257.013L457.628,257.023L457.611,257.032L457.594,257.041L457.577,257.05L457.561,257.058L457.544,257.067L457.526,257.076L457.509,257.084L457.492,257.093L457.474,257.101L457.457,257.109L457.439,257.117L457.421,257.125L457.403,257.133L457.385,257.141L457.367,257.148L457.349,257.156L457.33,257.163L457.312,257.171L457.293,257.178L457.274,257.185L457.256,257.191L457.236,257.198L457.217,257.204L457.198,257.211L457.178,257.217L457.159,257.223L457.139,257.229L457.12,257.234L457.1,257.24L457.079,257.245L457.059,257.25L457.039,257.255L457.018,257.259L456.998,257.264L456.977,257.268L456.956,257.272L456.935,257.276L456.914,257.279L456.893,257.282L456.872,257.285L456.85,257.288L456.829,257.291L456.807,257.293L456.785,257.295L456.763,257.296L456.742,257.298L456.719,257.299L456.697,257.3L456.675,257.3L456.653,257.301L456.63,257.301L456.608,257.3L456.585,257.3L456.563,257.299L456.54,257.297L456.518,257.296L456.495,257.294L456.472,257.292L456.449,257.289L456.426,257.286L456.404,257.283L456.381,257.28L456.358,257.276L456.335,257.272L456.312,257.267L456.289,257.262L456.266,257.257L456.243,257.252L456.221,257.246L456.198,257.24L456.184,257.236L456.175,257.237L456.151,257.239L456.127,257.241L456.103,257.244L456.08,257.246L456.057,257.249L456.035,257.252L456.013,257.255L455.991,257.258L455.969,257.261L455.948,257.264L455.927,257.267L455.906,257.27L455.886,257.273L455.866,257.277L455.846,257.28L455.827,257.284L455.808,257.287L455.789,257.291L455.771,257.294L455.752,257.298L455.734,257.302L455.717,257.306L455.7,257.31L455.683,257.314L455.666,257.318L455.649,257.322L455.633,257.326L455.618,257.33L455.602,257.335L455.587,257.339L455.572,257.343L455.557,257.348L455.543,257.352L455.528,257.356L455.515,257.361L455.501,257.365L455.488,257.37L455.475,257.374L455.462,257.379L455.449,257.384L455.437,257.388L455.425,257.393L455.413,257.398L455.402,257.402L455.39,257.407L455.379,257.412L455.369,257.417L455.358,257.421L455.348,257.426L455.338,257.431L455.328,257.436L455.318,257.44L455.309,257.445L455.3,257.45L455.291,257.455L455.282,257.46L455.273,257.464L455.265,257.469L455.257,257.474L455.249,257.479L455.241,257.484L455.233,257.488L455.226,257.493L455.219,257.498L455.212,257.503L455.205,257.508L455.198,257.512L455.191,257.517L455.185,257.522L455.179,257.527L455.173,257.531L455.166,257.536L455.161,257.541L455.155,257.546L455.149,257.55L455.144,257.555L455.138,257.56L455.133,257.565L455.128,257.57L455.123,257.574L455.118,257.579L455.113,257.584L455.108,257.589L455.103,257.594L455.099,257.599L455.094,257.604L455.09,257.609L455.085,257.614L455.081,257.618L455.077,257.624L455.072,257.629L455.068,257.634L455.064,257.639L455.06,257.644L455.056,257.65L455.052,257.655L455.048,257.66L455.044,257.666L455.04,257.671L455.036,257.677L455.032,257.683L455.029,257.688L455.025,257.694L455.021,257.7L455.018,257.706L455.014,257.712L455.01,257.718L455.007,257.724L455.003,257.731L454.999,257.737L454.996,257.744L454.993,257.75L454.989,257.757L454.986,257.764L454.982,257.77L454.979,257.777L454.975,257.784L454.972,257.792L454.969,257.799L454.965,257.806L454.962,257.813L454.959,257.821L454.955,257.829L454.952,257.837L454.949,257.845L454.946,257.853L454.942,257.861L454.939,257.869L454.936,257.877L454.933,257.886L454.93,257.894L454.927,257.903L454.924,257.911L454.917,257.93L454.911,257.949L454.905,257.967L454.899,257.987L454.893,258.006L454.887,258.027L454.881,258.047L454.876,258.068L454.87,258.09L454.864,258.112L454.858,258.134L454.853,258.157L454.847,258.18L454.841,258.204L454.835,258.227L454.824,258.277L454.812,258.328L454.8,258.38L454.787,258.433L454.774,258.488L454.768,258.516L454.761,258.545L454.754,258.573L454.746,258.602L454.739,258.631L454.731,258.661L454.723,258.69L454.715,258.72L454.706,258.751L454.698,258.781L454.688,258.812L454.679,258.843L454.669,258.875L454.663,258.894L454.691,258.913L454.735,258.951L454.776,258.993L454.813,259.039L454.845,259.089L454.872,259.141L454.894,259.195L455.127,259.864L455.143,259.917L455.154,259.972L455.16,260.027L455.169,260.166L455.646,261.24L455.896,261.528L455.932,261.573L455.963,261.622L456.118,261.887L456.33,262.046L456.375,262.083L456.417,262.125L456.454,262.171L456.487,262.219L456.515,262.271L456.538,262.325L456.555,262.381L456.567,262.439L456.574,262.497L456.605,262.995L456.606,263.054L456.601,263.112L456.591,263.17L456.575,263.227L456.553,263.282L456.527,263.334L456.496,263.384L456.46,263.431L456.42,263.473L456.375,263.512L456.328,263.547L456.277,263.576L456.223,263.601L456.168,263.62L456.111,263.634L456.053,263.643L455.994,263.646L455.232,263.646L455.186,263.644L455.139,263.638L455.093,263.629L454.656,263.527L454.452,263.5L454.397,263.49L454.342,263.475L454.29,263.455L454.239,263.43L454.191,263.401L454.146,263.367L454.104,263.33L454.065,263.288L454.031,263.244L454.001,263.196L453.975,263.146L453.955,263.093L453.939,263.039L453.928,262.984L453.834,262.363L453.829,262.31L453.828,262.257L453.831,262.204L453.834,262.187L453.807,262.14L453.782,262.088L453.652,261.776L453.429,261.457L453.381,261.445L453.328,261.426L453.276,261.403L453.227,261.375L453.181,261.343L453.138,261.307L453.099,261.267L453.063,261.223L452.659,260.679L452.641,260.653L452.641,260.653L452.62,260.662L452.599,260.67L452.579,260.678L452.558,260.687L452.538,260.695L452.517,260.704L452.497,260.712L452.477,260.721L452.456,260.73L452.436,260.739L452.416,260.748L452.396,260.757L452.376,260.766L452.356,260.775L452.336,260.784L452.316,260.793L452.276,260.812L452.236,260.831L452.197,260.85L452.157,260.87L452.118,260.889L452.078,260.909L452.039,260.929L451.999,260.949L451.959,260.969L451.879,261.011L451.799,261.052L451.717,261.094L451.676,261.115L451.635,261.136L451.593,261.158L451.551,261.179L451.509,261.2L451.466,261.221L451.423,261.242L451.38,261.263L451.336,261.284L451.292,261.305L451.269,261.316L451.246,261.326L451.224,261.336L451.201,261.347L451.178,261.357L451.155,261.367L451.132,261.377L451.108,261.387L451.085,261.397L451.061,261.407L451.038,261.417L451.014,261.427L450.99,261.436L450.966,261.446L450.941,261.456L450.917,261.465L450.892,261.474L450.867,261.484L450.842,261.493L450.817,261.502L450.792,261.511L450.767,261.52L450.741,261.529L450.715,261.537L450.689,261.546L450.663,261.555L450.637,261.563L450.61,261.571L450.584,261.579L450.557,261.587L450.53,261.595L450.505,261.602L450.448,261.615L450.39,261.623L450.331,261.625L450.272,261.622L450.215,261.613L450.158,261.598L450.103,261.578L450.05,261.553L449.999,261.523L449.952,261.488L449.908,261.449L449.869,261.406L449.833,261.36L449.802,261.31L449.777,261.257L449.756,261.202L449.338,259.92L449.345,259.959L449.349,260.017L449.348,260.075L449.342,260.133L449.33,260.189L449.312,260.245L449.29,260.298L449.262,260.349L448.796,261.126L448.766,261.172L448.731,261.215L448.693,261.255L448.652,261.291L448.607,261.323L448.56,261.351L448.51,261.375L448.459,261.394L448.406,261.408L448.352,261.418L448.339,261.419L448.207,261.721L448.198,261.846L448.193,261.898L448.183,261.948L448.169,261.998L448.162,262.015L448.178,262.065L448.19,262.119L448.197,262.173L448.2,262.227L448.197,262.282L448.19,262.336L448.05,263.097L448.037,263.152L448.019,263.206L447.996,263.258L447.969,263.308L447.937,263.354L447.901,263.398L447.861,263.438L447.817,263.475L447.771,263.507L447.721,263.534L447.669,263.557L447.616,263.575L447.56,263.588L447.504,263.596L447.448,263.599L447.152,263.599L447.096,263.596L447.041,263.589L446.986,263.576L446.933,263.558L446.91,263.548L446.891,263.563L446.843,263.597L446.792,263.626L446.738,263.65L446.682,263.669L446.625,263.682L446.567,263.69L446.508,263.692L445.249,263.676L445.192,263.673L445.135,263.664L445.079,263.65L445.025,263.631L444.973,263.607L444.923,263.578L444.877,263.544L444.833,263.506L444.794,263.465L444.758,263.419L444.727,263.371L444.701,263.32L444.679,263.267L444.663,263.212L444.651,263.155L444.646,263.098L444.645,263.041L444.65,262.983L444.66,262.927L444.753,262.523L444.769,262.466L444.79,262.411L444.817,262.359L444.848,262.309L444.885,262.262L444.925,262.219L444.969,262.18L445.017,262.146L445.281,261.975L445.328,261.948L445.377,261.925L445.428,261.906L445.48,261.892L445.533,261.882L445.587,261.878L445.669,261.874L445.76,261.762L445.791,261.726L445.825,261.693L445.951,261.58L445.952,261.549L445.959,261.496L445.971,261.443L445.988,261.391L446.009,261.341L446.034,261.293L446.064,261.248L446.097,261.205L446.239,261.04L446.407,260.72L446.342,260.467L446.33,260.408L446.324,260.349L446.323,260.289L446.329,260.229L446.34,260.17L446.357,260.113L446.729,259.041L446.751,258.987L446.778,258.935L446.809,258.886L446.845,258.84L446.886,258.798L446.93,258.76L446.977,258.726L447.027,258.697L447.08,258.673L447.135,258.654L447.192,258.64L447.25,258.632L447.297,258.63L447.314,258.581L447.337,258.529L447.641,257.931L447.629,257.893L447.618,257.834L447.613,257.775L447.613,257.716L447.62,257.657L447.631,257.599L447.649,257.542L447.672,257.487L448.408,255.938L448.405,255.94L448.361,255.97L448.314,255.997L448.266,256.019L448.033,256.112L447.977,256.131L447.92,256.145L447.862,256.153L447.804,256.156L447.745,256.153L447.687,256.144L447.63,256.13L447.405,256.063L447.365,256.103L447.321,256.14L447.274,256.172L447.225,256.2L447.173,256.223L447.119,256.241L447.064,256.254L447.007,256.262L446.95,256.265L446.78,256.265L446.72,256.262L446.662,256.253L446.604,256.239L446.549,256.219L446.495,256.194L446.444,256.164L446.396,256.13L445.765,255.622L445.74,255.626L445.68,255.627L445.62,255.623L445.561,255.613L445.204,255.536L445.152,255.522L445.102,255.504L445.053,255.481L445.006,255.454L444.962,255.424L444.921,255.389L444.734,255.218L444.695,255.178L444.659,255.135L444.627,255.088L444.599,255.039L444.577,254.987L444.559,254.934L444.546,254.879L444.538,254.823L444.536,254.767L444.536,254.648L444.532,254.646L444.482,254.618L444.435,254.586L444.391,254.549L444.351,254.508L444.315,254.464L444.283,254.416L444.255,254.366L444.233,254.313L444.215,254.258L444.203,254.202L444.196,254.146L444.181,253.956L444.152,253.943L444.101,253.913L444.053,253.879L444.008,253.84L443.967,253.797L443.931,253.75L443.9,253.7L443.895,253.69L443.289,253.388L443.239,253.36L443.192,253.327L443.148,253.291L443.108,253.25L443.072,253.206L443.04,253.159L443.013,253.109L442.99,253.056L442.972,253.002L442.96,252.946L442.953,252.89L442.951,252.833L442.954,252.776L442.963,252.719L442.976,252.664L443.116,252.198L443.135,252.144L443.159,252.092L443.188,252.042L443.221,251.996L443.258,251.953L443.299,251.913L443.344,251.878L443.392,251.846L443.442,251.82L443.495,251.798L443.549,251.781L443.605,251.769L443.662,251.763L443.719,251.762L443.776,251.766L443.832,251.775L443.887,251.79L444.478,251.976L444.529,251.995L444.578,252.018L444.625,252.046L444.664,252.073L444.7,252.074L444.758,252.082L444.815,252.095L444.871,252.113L446.44,252.719L446.492,252.742L446.542,252.769L446.589,252.801L446.632,252.838L446.672,252.878L446.708,252.921L446.74,252.968L446.768,253.017L446.791,253.069L446.809,253.123L446.822,253.178L446.826,253.209L446.836,253.221L446.868,253.269L446.895,253.319L446.918,253.372L446.935,253.426L446.948,253.482L446.955,253.539L446.957,253.596L446.953,253.653L446.944,253.735L447.156,253.775L447.167,253.757L447.162,253.742L447.152,253.687L447.147,253.632L447.147,253.577L447.151,253.522L447.161,253.467L447.176,253.414L447.195,253.362L447.459,252.74L447.482,252.693L447.508,252.648L447.538,252.605L447.572,252.565L447.609,252.528L447.795,252.357L447.841,252.319L447.891,252.286L447.943,252.257L447.946,252.256L447.959,252.215L447.981,252.161L448.008,252.109L448.048,252.041L448.046,252.035L448.033,252.005L448.021,251.975L448.009,251.946L447.997,251.916L447.985,251.887L447.974,251.857L447.963,251.827L447.952,251.798L447.941,251.769L447.931,251.74L447.92,251.71L447.91,251.681L447.9,251.652L447.891,251.623L447.881,251.594L447.872,251.565L447.863,251.537L447.854,251.508L447.846,251.479L447.837,251.451L447.829,251.422L447.821,251.394L447.813,251.365L447.805,251.337L447.798,251.309L447.79,251.28L447.783,251.252L447.776,251.224L447.77,251.198L447.76,251.149L447.754,251.1L447.752,251.051L447.754,251.002L447.772,250.785L447.755,250.74L447.739,250.689L447.729,250.637L447.723,250.584L447.708,250.386L447.641,249.891L447.636,249.836L447.636,249.781L447.641,249.726L447.651,249.671L447.666,249.618L447.685,249.566L447.709,249.517L447.738,249.469L447.771,249.425L447.807,249.383L447.847,249.345L447.857,249.337L447.87,249.326L447.883,249.315L447.896,249.305L447.909,249.294L447.923,249.284L447.936,249.274L447.95,249.264L447.963,249.255L447.976,249.245L447.99,249.236L448.004,249.227L448.017,249.218L448.031,249.21L448.045,249.201L448.059,249.193L448.072,249.185L448.086,249.177L448.1,249.169L448.114,249.161L448.128,249.154L448.142,249.147L448.156,249.139L448.17,249.133L448.184,249.126L448.198,249.119L448.212,249.113L448.226,249.107L448.24,249.101L448.254,249.095L448.268,249.089L448.283,249.083L448.297,249.078L448.311,249.072L448.325,249.067L448.339,249.062L448.353,249.057L448.366,249.053L448.38,249.048L448.394,249.043L448.408,249.039L448.422,249.035L448.436,249.031L448.451,249.026L448.477,249.019L448.505,249.012L448.532,249.005L448.559,248.999L448.587,248.993L448.614,248.988L448.64,248.983L448.667,248.978L448.694,248.974L448.72,248.969L448.746,248.966L448.772,248.962L448.798,248.959L448.824,248.956L448.85,248.953L448.875,248.951L448.901,248.949L448.926,248.947L448.951,248.945L448.976,248.943L449.001,248.942L449.025,248.94L449.05,248.939L449.074,248.938L449.098,248.937L449.122,248.936L449.146,248.936L449.17,248.935L449.193,248.935L449.217,248.934L449.263,248.934L449.308,248.933L449.353,248.933L449.397,248.933L449.483,248.933L449.535,248.935L449.587,248.942L449.639,248.953L449.689,248.969L449.737,248.988L449.929,249.076L449.967,249.097L449.988,249.108L450.008,249.12L450.029,249.132L450.049,249.144L450.07,249.157L450.09,249.169L450.11,249.182L450.129,249.195L450.149,249.208L450.169,249.221L450.188,249.235L450.207,249.248L450.226,249.262L450.245,249.276L450.264,249.29L450.282,249.305L450.301,249.319L450.319,249.334L450.337,249.349L450.355,249.364L450.373,249.38L450.39,249.395L450.408,249.411L450.425,249.426L450.442,249.443L450.459,249.459L450.475,249.475L450.492,249.492L450.508,249.508L450.524,249.525L450.54,249.543L450.556,249.56L450.571,249.577L450.587,249.595L450.602,249.613L450.617,249.63L450.632,249.649L450.646,249.667L450.66,249.685L450.674,249.704L450.688,249.723L450.702,249.742L450.715,249.761L450.728,249.78L450.741,249.799L450.754,249.819L450.767,249.839L450.779,249.858L450.791,249.878L450.803,249.898L450.815,249.919L450.826,249.939L450.837,249.959L450.848,249.98L450.859,250.001L450.869,250.022L450.88,250.043L450.89,250.064L450.9,250.085L450.909,250.106L450.919,250.128L450.928,250.149L450.935,250.168L450.954,250.222L450.969,250.277L450.977,250.334L450.981,250.391L450.979,250.449L450.972,250.506L450.959,250.562L450.942,250.616L450.919,250.669L450.891,250.719L450.832,250.816L450.882,250.836L450.934,250.862L450.983,250.893L451.029,250.928L451.071,250.967L451.11,251.011L451.144,251.058L451.174,251.108L451.198,251.16L451.208,251.186L451.255,251.186L451.304,251.188L451.353,251.194L451.401,251.204L451.448,251.218L451.821,251.342L451.864,251.358L451.906,251.377L451.946,251.4L452.28,251.603L452.443,251.63L452.497,251.642L452.55,251.658L452.583,251.672L452.501,251.548L452.472,251.5L452.448,251.45L452.428,251.397L452.413,251.343L452.403,251.288L452.399,251.233L452.399,251.177L452.404,251.121L452.415,251.066L452.819,249.373L452.826,249.348L452.82,249.304L452.818,249.247L452.821,249.191L452.829,249.135L452.842,249.079L452.982,248.598L453.001,248.543L453.025,248.49L453.054,248.44L453.087,248.393L453.125,248.349L453.166,248.308L453.212,248.272L453.26,248.241L453.278,248.231L453.349,248.107L453.38,248.059L453.416,248.013L453.456,247.971L453.499,247.932L453.546,247.898L453.596,247.869L453.649,247.845L453.703,247.825L453.76,247.811L453.817,247.802L453.875,247.799L453.933,247.801ZM453.694,248.738L453.57,248.769L453.43,249.25L453.585,249.328L453.539,249.546L453.414,249.515L453.01,251.208L453.166,251.441L453.399,251.488L453.601,251.395L453.679,251.55L453.554,251.721L453.259,252.405L453.337,252.514L453.119,252.793L453.026,252.7L452.669,252.638L452.342,252.234L452.063,252.187L451.628,251.923L451.255,251.799L450.757,251.799L450.633,251.395L450.167,251.286L450.074,251.177L449.949,251.146L449.918,250.975L450.198,250.68L450.369,250.4L450.362,250.385L450.356,250.369L450.349,250.354L450.342,250.339L450.335,250.324L450.328,250.309L450.321,250.294L450.314,250.279L450.306,250.264L450.298,250.25L450.29,250.235L450.282,250.221L450.274,250.207L450.266,250.193L450.257,250.179L450.249,250.165L450.24,250.151L450.231,250.137L450.222,250.124L450.213,250.11L450.203,250.097L450.194,250.084L450.184,250.071L450.174,250.057L450.164,250.045L450.154,250.032L450.144,250.019L450.133,250.006L450.122,249.994L450.112,249.981L450.101,249.969L450.09,249.957L450.078,249.945L450.067,249.933L450.055,249.921L450.044,249.909L450.032,249.898L450.02,249.886L450.008,249.875L449.995,249.863L449.983,249.852L449.97,249.841L449.958,249.83L449.945,249.819L449.932,249.808L449.918,249.797L449.905,249.787L449.891,249.776L449.878,249.766L449.864,249.756L449.85,249.746L449.836,249.736L449.822,249.726L449.807,249.716L449.792,249.706L449.778,249.696L449.763,249.687L449.748,249.678L449.733,249.668L449.717,249.659L449.702,249.65L449.686,249.641L449.67,249.632L449.654,249.623L449.483,249.546L449.397,249.545L449.354,249.546L449.311,249.546L449.269,249.546L449.226,249.547L449.204,249.547L449.183,249.547L449.162,249.548L449.141,249.548L449.12,249.549L449.098,249.55L449.077,249.551L449.056,249.552L449.035,249.553L449.015,249.554L448.994,249.556L448.973,249.557L448.952,249.559L448.932,249.561L448.911,249.563L448.891,249.565L448.871,249.567L448.85,249.569L448.83,249.572L448.81,249.575L448.79,249.578L448.771,249.581L448.751,249.585L448.731,249.589L448.712,249.593L448.693,249.597L448.674,249.601L448.655,249.606L448.636,249.611L448.617,249.616L448.608,249.619L448.598,249.621L448.589,249.624L448.58,249.627L448.571,249.63L448.561,249.633L448.552,249.636L448.543,249.639L448.534,249.642L448.525,249.646L448.516,249.649L448.507,249.653L448.499,249.656L448.49,249.66L448.481,249.664L448.472,249.667L448.464,249.671L448.455,249.675L448.446,249.679L448.438,249.683L448.429,249.687L448.421,249.692L448.413,249.696L448.404,249.7L448.396,249.705L448.388,249.71L448.379,249.714L448.371,249.719L448.363,249.724L448.355,249.729L448.347,249.734L448.339,249.739L448.331,249.744L448.323,249.75L448.315,249.755L448.308,249.761L448.3,249.766L448.292,249.772L448.285,249.778L448.277,249.784L448.27,249.79L448.262,249.796L448.255,249.802L448.248,249.809L448.318,250.322L448.333,250.54L448.396,250.68L448.364,251.053L448.37,251.078L448.377,251.103L448.383,251.128L448.39,251.153L448.396,251.178L448.403,251.203L448.41,251.228L448.417,251.253L448.425,251.278L448.432,251.304L448.44,251.329L448.448,251.355L448.456,251.38L448.464,251.406L448.472,251.431L448.481,251.457L448.489,251.483L448.498,251.508L448.508,251.534L448.517,251.56L448.526,251.586L448.536,251.612L448.546,251.638L448.556,251.665L448.566,251.691L448.577,251.717L448.588,251.743L448.598,251.77L448.61,251.796L448.621,251.823L448.632,251.85L448.644,251.876L448.784,251.923L448.737,252.079L448.535,252.42L448.8,252.591L448.209,252.809L448.023,252.98L447.758,253.601L447.836,253.834L447.619,254.192L447.65,254.409L447.619,254.565L447.246,254.487L447.214,254.409L446.313,254.238L446.189,254.176L446.08,253.866L446.313,253.866L446.344,253.586L446.22,253.508L446.22,253.29L444.651,252.685L444.542,252.793L444.387,252.747L444.293,252.56L443.703,252.374L443.563,252.84L444.216,253.166L444.325,252.964L444.449,253.166L444.433,253.399L444.822,253.555L444.791,253.896L444.806,254.099L445.148,254.269L445.148,254.767L445.335,254.938L445.692,255.015L445.801,254.86L445.987,255.015L446.78,255.652L446.951,255.652L447.075,255.326L447.805,255.544L448.038,255.45L448.629,254.347L449.079,255.279L449.328,255.326L449.359,255.652L449.126,255.854L448.225,257.75L448.38,257.828L447.883,258.807L447.898,258.993L447.79,259.397L447.463,259.242L447.308,259.242L446.935,260.314L447.059,260.796L446.748,261.386L446.562,261.604L446.562,261.852L446.236,262.147L445.971,262.474L445.614,262.489L445.35,262.66L445.257,263.064L446.515,263.08L446.795,262.862L447.106,262.754L447.152,262.987L447.448,262.987L447.587,262.225L447.432,262.008L447.587,261.806L447.603,261.573L447.945,260.796L448.271,260.811L448.737,260.034L448.567,259.863L448.597,259.319L449.483,258.387L450.338,261.013L450.361,261.006L450.384,261L450.408,260.993L450.431,260.986L450.453,260.979L450.476,260.972L450.499,260.964L450.521,260.957L450.544,260.949L450.566,260.942L450.588,260.934L450.61,260.926L450.632,260.918L450.654,260.91L450.676,260.902L450.697,260.894L450.719,260.885L450.74,260.877L450.762,260.868L450.783,260.86L450.804,260.851L450.825,260.842L450.846,260.833L450.867,260.824L450.888,260.815L450.909,260.806L450.93,260.797L450.951,260.788L450.971,260.778L450.992,260.769L451.012,260.76L451.033,260.75L451.074,260.731L451.115,260.712L451.155,260.692L451.196,260.672L451.236,260.652L451.276,260.632L451.316,260.612L451.357,260.591L451.397,260.571L451.437,260.55L451.518,260.508L451.599,260.466L451.68,260.425L451.721,260.404L451.762,260.383L451.803,260.362L451.845,260.341L451.887,260.32L451.929,260.3L451.971,260.279L452.014,260.259L452.057,260.239L452.079,260.228L452.101,260.218L452.123,260.208L452.145,260.198L452.167,260.189L452.189,260.179L452.211,260.169L452.234,260.159L452.256,260.15L452.279,260.14L452.302,260.13L452.324,260.121L452.347,260.111L452.371,260.102L452.394,260.093L452.417,260.083L452.441,260.074L452.465,260.065L452.488,260.056L452.512,260.047L452.537,260.038L452.561,260.029L452.585,260.021L452.61,260.012L452.635,260.004L452.66,259.995L452.685,259.987L452.71,259.978L452.735,259.97L452.761,259.962L452.787,259.954L452.813,259.946L452.839,259.939L452.865,259.931L452.892,259.923L452.919,259.916L452.946,259.908L452.973,259.901L453,259.894L453.027,259.887L453.055,259.88L453.083,259.873L453.111,259.867L453.14,259.86L453.168,259.854L453.197,259.848L453.259,260.019L453.15,260.314L453.554,260.858L453.725,260.811L454.191,261.479L454.347,261.852L454.502,261.961L454.44,262.272L454.533,262.893L454.767,262.924L455.233,263.033L455.994,263.033L455.963,262.536L455.652,262.303L455.435,261.93L455.124,261.573L454.564,260.314L454.549,260.065L454.316,259.397L453.943,259.366L453.834,259.226L453.842,259.214L453.85,259.201L453.858,259.189L453.866,259.177L453.874,259.164L453.881,259.152L453.889,259.139L453.896,259.127L453.903,259.114L453.911,259.101L453.918,259.089L453.924,259.076L453.931,259.064L453.938,259.051L453.944,259.038L453.951,259.025L453.957,259.013L453.963,259L453.97,258.987L453.976,258.974L453.981,258.961L453.987,258.949L453.993,258.936L453.999,258.923L454.004,258.91L454.01,258.897L454.015,258.884L454.02,258.871L454.025,258.858L454.031,258.845L454.036,258.832L454.041,258.819L454.045,258.806L454.05,258.793L454.055,258.78L454.06,258.767L454.069,258.741L454.077,258.715L454.086,258.688L454.094,258.662L454.102,258.636L454.11,258.609L454.118,258.583L454.125,258.557L454.132,258.53L454.139,258.504L454.146,258.478L454.153,258.451L454.16,258.425L454.166,258.399L454.172,258.372L454.179,258.346L454.191,258.294L454.203,258.241L454.215,258.189L454.228,258.137L454.24,258.086L454.246,258.06L454.252,258.034L454.259,258.009L454.265,257.983L454.271,257.958L454.278,257.932L454.285,257.907L454.292,257.882L454.299,257.857L454.306,257.832L454.314,257.808L454.321,257.783L454.329,257.758L454.337,257.734L454.346,257.71L454.35,257.698L454.354,257.686L454.359,257.674L454.363,257.662L454.368,257.65L454.372,257.638L454.377,257.626L454.382,257.614L454.386,257.602L454.391,257.591L454.396,257.579L454.401,257.567L454.407,257.556L454.412,257.544L454.417,257.533L454.423,257.521L454.428,257.51L454.434,257.498L454.439,257.487L454.445,257.476L454.451,257.464L454.457,257.453L454.463,257.442L454.469,257.431L454.476,257.42L454.482,257.409L454.488,257.398L454.495,257.387L454.502,257.376L454.509,257.365L454.515,257.354L454.522,257.344L454.53,257.333L454.537,257.322L454.544,257.312L454.552,257.301L454.56,257.291L454.567,257.281L454.575,257.27L454.583,257.26L454.591,257.25L454.6,257.24L454.608,257.229L454.617,257.219L454.625,257.209L454.634,257.199L454.643,257.19L454.652,257.18L454.661,257.17L454.671,257.16L454.68,257.151L454.69,257.141L454.7,257.132L454.71,257.122L454.72,257.113L454.73,257.103L454.741,257.094L454.751,257.085L454.762,257.076L454.773,257.067L454.784,257.058L454.795,257.049L454.807,257.04L454.818,257.031L454.83,257.023L454.842,257.014L454.854,257.006L454.867,256.997L454.879,256.989L454.892,256.98L454.904,256.972L454.917,256.964L454.931,256.956L454.944,256.948L454.958,256.94L454.971,256.932L454.985,256.924L454.999,256.916L455.014,256.909L455.028,256.901L455.043,256.894L455.058,256.886L455.073,256.879L455.088,256.872L455.104,256.865L455.119,256.857L455.135,256.85L455.151,256.844L455.168,256.837L455.184,256.83L455.201,256.823L455.218,256.817L455.235,256.81L455.252,256.804L455.27,256.797L455.288,256.791L455.306,256.785L455.324,256.779L455.343,256.773L455.361,256.767L455.38,256.761L455.4,256.756L455.419,256.75L455.439,256.744L455.459,256.739L455.479,256.734L455.499,256.729L455.52,256.723L455.541,256.718L455.562,256.713L455.583,256.708L455.605,256.704L455.626,256.699L455.648,256.695L455.671,256.69L455.693,256.686L455.716,256.681L455.739,256.677L455.763,256.673L455.786,256.669L455.81,256.665L455.834,256.662L455.859,256.658L455.883,256.654L455.908,256.651L455.934,256.648L455.959,256.644L455.985,256.641L456.011,256.638L456.037,256.635L456.064,256.632L456.091,256.63L456.118,256.627L456.145,256.625L456.173,256.622L456.201,256.62L456.229,256.618L456.258,256.616L456.273,256.621L456.288,256.627L456.302,256.632L456.317,256.636L456.332,256.641L456.347,256.646L456.361,256.65L456.376,256.654L456.391,256.657L456.405,256.661L456.42,256.664L456.434,256.667L456.449,256.67L456.463,256.673L456.478,256.675L456.492,256.677L456.507,256.679L456.521,256.681L456.536,256.683L456.55,256.684L456.564,256.685L456.579,256.686L456.593,256.687L456.607,256.688L456.621,256.688L456.635,256.688L456.65,256.688L456.664,256.688L456.678,256.688L456.692,256.687L456.706,256.687L456.72,256.686L456.734,256.685L456.748,256.683L456.762,256.682L456.776,256.68L456.79,256.679L456.804,256.677L456.818,256.674L456.832,256.672L456.846,256.67L456.86,256.667L456.873,256.664L456.887,256.661L456.901,256.658L456.915,256.655L456.928,256.652L456.942,256.648L456.956,256.644L456.97,256.64L456.983,256.636L456.997,256.632L457.011,256.628L457.024,256.623L457.038,256.619L457.051,256.614L457.065,256.609L457.078,256.604L457.092,256.599L457.106,256.594L457.119,256.588L457.132,256.583L457.146,256.577L457.159,256.572L457.173,256.566L457.186,256.56L457.2,256.553L457.213,256.547L457.226,256.541L457.24,256.534L457.253,256.528L457.267,256.521L457.28,256.514L457.293,256.507L457.306,256.5L457.32,256.493L457.333,256.486L457.346,256.479L457.36,256.471L457.373,256.464L457.386,256.456L457.399,256.448L457.412,256.44L457.426,256.433L457.439,256.425L457.452,256.417L457.465,256.408L457.478,256.4L457.505,256.383L457.531,256.367L457.557,256.349L457.583,256.332L457.609,256.314L457.635,256.296L457.661,256.278L457.687,256.259L457.713,256.24L457.739,256.221L457.765,256.202L457.791,256.183L457.817,256.164L457.843,256.144L457.869,256.125L457.895,256.105L457.947,256.065L457.999,256.025L457.965,256.006L457.932,255.987L457.898,255.968L457.865,255.949L457.832,255.929L457.798,255.91L457.765,255.891L457.732,255.871L457.699,255.851L457.666,255.832L457.633,255.812L457.6,255.792L457.567,255.772L457.534,255.752L457.468,255.712L457.402,255.672L457.337,255.631L457.272,255.59L457.206,255.549L457.141,255.508L457.076,255.467L457.011,255.426L456.946,255.384L456.881,255.343L456.816,255.301L456.686,255.218L456.557,255.134L456.427,255.051L456.362,255.009L456.297,254.967L456.232,254.926L456.167,254.884L456.102,254.843L456.037,254.802L455.972,254.761L455.906,254.72L455.841,254.679L455.776,254.639L455.71,254.599L455.644,254.558L455.611,254.539L455.578,254.519L455.545,254.499L455.512,254.479L455.479,254.459L455.446,254.44L455.413,254.42L455.379,254.401L455.346,254.382L455.313,254.362L455.279,254.343L455.246,254.324L455.213,254.305L455.179,254.286L455.146,254.267L455.112,254.249L455.078,254.23L455.044,254.211L455.011,254.193L454.977,254.175L454.943,254.156L454.909,254.138L454.875,254.12L454.841,254.102L454.807,254.085L454.773,254.067L454.738,254.049L454.704,254.032L454.669,254.015L454.635,253.997L454.6,253.98L454.566,253.963L454.531,253.947L454.496,253.93L454.461,253.913L454.426,253.897L454.391,253.881L454.356,253.865L454.321,253.849L454.286,253.833L454.251,253.817L454.215,253.802L454.18,253.786L454.144,253.771L454.108,253.756L454.073,253.741L454.037,253.726L454.001,253.712L453.965,253.697L453.929,253.683L453.892,253.669L453.856,253.655L453.82,253.641L453.783,253.628L453.746,253.614L453.71,253.601L453.787,253.384L453.81,253.397L453.832,253.41L453.855,253.422L453.877,253.435L453.9,253.446L453.923,253.458L453.946,253.469L453.969,253.48L453.992,253.49L454.015,253.5L454.038,253.51L454.061,253.519L454.084,253.528L454.108,253.537L454.131,253.545L454.155,253.553L454.178,253.561L454.202,253.569L454.226,253.576L454.25,253.582L454.274,253.589L454.298,253.595L454.322,253.601L454.346,253.606L454.37,253.612L454.394,253.617L454.418,253.621L454.443,253.626L454.467,253.63L454.492,253.633L454.516,253.637L454.541,253.64L454.566,253.643L454.59,253.646L454.615,253.648L454.64,253.65L454.665,253.652L454.69,253.654L454.715,253.655L454.74,253.657L454.765,253.657L454.79,253.658L454.816,253.659L454.841,253.659L454.866,253.659L454.892,253.658L454.917,253.658L454.943,253.657L454.968,253.656L454.994,253.655L455.019,253.653L455.045,253.652L455.071,253.65L455.097,253.648L455.122,253.646L455.148,253.643L455.174,253.641L455.2,253.638L455.226,253.635L455.252,253.632L455.278,253.628L455.305,253.625L455.331,253.621L455.357,253.617L455.361,253.602L455.364,253.587L455.368,253.573L455.372,253.558L455.376,253.543L455.381,253.529L455.385,253.515L455.389,253.5L455.394,253.486L455.399,253.472L455.404,253.458L455.409,253.444L455.414,253.43L455.419,253.416L455.425,253.402L455.43,253.388L455.436,253.374L455.441,253.361L455.447,253.347L455.453,253.334L455.459,253.32L455.466,253.307L455.472,253.293L455.478,253.28L455.485,253.267L455.491,253.254L455.498,253.241L455.505,253.228L455.512,253.215L455.519,253.202L455.526,253.189L455.533,253.176L455.541,253.163L455.548,253.151L455.556,253.138L455.563,253.125L455.571,253.113L455.579,253.1L455.587,253.088L455.595,253.075L455.603,253.063L455.611,253.051L455.62,253.039L455.628,253.026L455.637,253.014L455.645,253.002L455.654,252.99L455.663,252.978L455.671,252.966L455.68,252.954L455.689,252.943L455.699,252.931L455.708,252.919L455.717,252.907L455.726,252.896L455.736,252.884L455.745,252.872L455.755,252.861L455.764,252.849L455.774,252.838L455.784,252.827L455.794,252.815L455.804,252.804L455.814,252.793L455.824,252.781L455.834,252.77L455.844,252.759L455.854,252.748L455.875,252.726L455.896,252.704L455.917,252.682L455.939,252.66L455.961,252.638L455.982,252.617L456.005,252.595L456.027,252.574L456.049,252.553L456.072,252.532L456.095,252.511L456.118,252.49L456.141,252.469L456.165,252.448L456.188,252.428L456.212,252.407L456.236,252.387L456.26,252.366L456.284,252.346L456.308,252.326L456.332,252.305L456.356,252.285L456.381,252.265L456.405,252.245L456.455,252.205L456.504,252.165L456.553,252.125L456.514,252.138L456.474,252.15L456.434,252.163L456.395,252.175L456.355,252.188L456.316,252.2L456.277,252.212L456.238,252.224L456.199,252.235L456.16,252.247L456.121,252.258L456.083,252.27L456.044,252.281L456.006,252.292L455.967,252.303L455.929,252.314L455.891,252.324L455.853,252.335L455.815,252.345L455.777,252.355L455.74,252.366L455.702,252.376L455.665,252.385L455.628,252.395L455.59,252.405L455.553,252.414L455.516,252.423L455.48,252.432L455.443,252.441L455.406,252.45L455.37,252.459L455.333,252.467L455.297,252.475L455.261,252.484L455.225,252.492L455.189,252.499L455.153,252.507L455.118,252.515L455.082,252.522L455.047,252.529L455.012,252.536L454.977,252.543L454.942,252.55L454.907,252.557L454.872,252.563L454.837,252.569L454.803,252.576L454.769,252.582L454.734,252.587L454.7,252.593L454.667,252.598L454.633,252.604L454.599,252.609L454.566,252.614L454.532,252.618L454.499,252.623L454.466,252.627L454.433,252.632L454.4,252.636L454.367,252.64L454.335,252.643L454.302,252.647L454.27,252.65L454.238,252.653L454.254,251.783L454.58,251.332L454.642,250.804L454.626,250.664L454.254,250.463L454.207,250.214L454.036,250.121L454.052,249.732L453.912,249.608L453.912,249.406L454.067,249.39L454.114,248.846L453.943,248.8L453.881,248.411L453.694,248.738ZM449.196,259.578L449.193,259.626L449.209,259.644L449.244,259.691L449.274,259.74L449.291,259.773L449.219,259.554L449.196,259.578Z" style="fill-opacity:0.71;"/>
            </g>
        </g>
    </g>
    <defs>
        <radialGradient id="_Radial1" cx="0" cy="0" r="1" gradientUnits="userSpaceOnUse" gradientTransform="matrix(99.7942,0,0,99.7942,233.356,334.206)"><stop offset="0" style="stop-color:rgb(169,203,250);stop-opacity:1"/><stop offset="1" style="stop-color:rgb(0,46,107);stop-opacity:1"/></radialGradient>
    </defs>
</svg>
