<?xml version="1.0" encoding="utf-8"?>
<!DOCTYPE svg PUBLIC "-//W3C//DTD SVG 1.1//EN" "http://www.w3.org/Graphics/SVG/1.1/DTD/svg11.dtd">
<svg version="1.1" xmlns="http://www.w3.org/2000/svg" xmlns:xlink="http://www.w3.org/1999/xlink" xmlns:xml="http://www.w3.org/XML/1998/namespace" xmlns:serif="http://www.serif.com/" width="63" height="42" viewBox="-2, -2, 67, 46" xml:space="preserve" fill-rule="evenodd" stroke-linejoin="round" stroke-miterlimit="2" style="clip-rule:evenodd;">

	<g>
		<path d="M31.1 2.8 C29.7 1.9 28 1.2 26.2 0.7 C24.5 0.3 22.6 0 20.8 0 C18.9 -0 17.1 0.3 15.3 0.7 C13.6 1.2 11.9 1.9 10.4 2.8 C8.9 3.7 7.4 4.7 6.2 6 C4.9 7.3 3.7 8.8 2.8 10.4 C1.9 12 1.1 13.7 0.7 15.5 C0.2 17.2 0 19 -0 20.8 C-0 21.6 0.1 22.5 0.2 23.4 C0.3 24.3 0.5 25.1 0.7 26 C0.9 26.9 1.2 27.8 1.6 28.6 C1.9 29.5 2.3 30.3 2.8 31.1 C3.7 32.7 4.9 34.2 6.2 35.5 C7.4 36.8 8.9 37.8 10.4 38.7 C11.9 39.6 13.5 40.3 15.3 40.8 C16.2 41 17.1 41.2 18 41.3 C18.9 41.4 19.8 41.5 20.8 41.5 C21.7 41.5 22.6 41.4 23.5 41.3 C24.5 41.2 25.4 41 26.2 40.8 C27.1 40.5 28 40.2 28.8 39.9 C29.2 39.7 29.6 39.5 30 39.3 C30.2 39.2 30.4 39.1 30.6 39 C30.8 38.9 31 38.8 31.1 38.7 C31.8 38.3 32.4 37.9 33.1 37.6 C33.7 37.2 34.4 36.8 35 36.5 C36.3 35.7 37.6 35 38.9 34.2 C40.2 33.5 41.5 32.7 42.8 32 C44.1 31.2 45.3 30.5 46.6 29.7 C49.2 28.2 51.8 26.7 54.4 25.2 C57 23.7 59.5 22.2 62.1 20.7 C51.8 14.8 41.5 8.8 31.1 2.8 z" fill-rule="nonzero" style="fill:#4D502F;" />
		<circle cx="20.7" cy="20.7" r="18.3" fill-opacity="0.6" style="fill:#FFFED6;" />
		<path d="M16.9 27.5 L14 24.6 L12.1 26.4 L11.4 25.7 L9.6 27.6 L8.9 26.9 L10.1 24.3 L8.9 23.2 L8.9 18.9 L10.3 17.6 L9.5 16.8 L10.7 15.7 L11.4 16.5 L16.5 11.4 L15.7 10.7 L16.8 9.5 L17.6 10.3 L18.9 8.9 L23.2 8.9 L24.3 10.1 L26.9 8.9 L27.6 9.6 L25.7 11.4 L26.4 12.1 L24.6 14 L27.5 16.9 L29.4 15.1 L30 15.8 L31.9 13.9 L32.6 14.6 L31.4 17.2 L32.6 18.3 L32.6 22.6 L31.2 23.9 L32 24.6 L30.8 25.8 L30.1 25 L25 30.1 L25.8 30.8 L24.6 32 L23.9 31.2 L22.6 32.6 L18.3 32.6 L17.2 31.4 L14.6 32.6 L13.9 31.9 L15.8 30 L15.1 29.4 L16.9 27.5 z" fill-rule="nonzero" fill-opacity="0.95" style="fill:#1A0B00;" />
		<path d="M15 26.5 L16.1 27.5 C16.1 27.5 14.2 29.4 14.2 29.4 L14.9 30 C14.9 30 13 31.9 13 31.9 L14.4 33.4 L17 32.2 C17 32.2 18 33.2 18 33.2 L22.8 33.2 L23.9 32.1 C23.9 32.1 24.6 32.8 24.6 32.8 L26.6 30.8 L25.9 30.1 L30.1 25.9 C30.1 25.9 30.8 26.6 30.8 26.6 L32.8 24.6 L32.1 23.9 C32.1 23.9 33.2 22.8 33.2 22.8 L33.2 18 L32.2 17 C32.2 17 33.4 14.4 33.4 14.4 L31.9 13 L30 14.9 C30 14.9 29.4 14.2 29.4 14.2 L27.5 16.1 L25.4 14 C25.4 14 27.3 12.1 27.3 12.1 L26.6 11.4 C26.6 11.4 28.5 9.6 28.5 9.6 L27.1 8.1 L24.5 9.3 C24.5 9.3 23.5 8.3 23.5 8.3 L18.7 8.3 L17.6 9.4 C17.6 9.4 16.8 8.7 16.8 8.7 L14.9 10.7 L15.6 11.4 L11.4 15.6 C11.4 15.6 10.7 14.9 10.7 14.9 L8.7 16.8 L9.4 17.6 C9.4 17.6 8.3 18.7 8.3 18.7 L8.3 23.5 L9.3 24.5 C9.3 24.5 8.1 27.1 8.1 27.1 L9.6 28.5 L11.4 26.6 C11.4 26.6 12.1 27.3 12.1 27.3 L14 25.4 C14 25.4 15 26.5 15 26.5 z M16.9 27.5 L14 24.6 L12.1 26.4 L11.4 25.7 L9.6 27.6 L8.9 26.9 L10.1 24.3 L8.9 23.2 L8.9 18.9 L10.3 17.6 L9.5 16.8 L10.7 15.7 L11.4 16.5 L16.5 11.4 L15.7 10.7 L16.8 9.5 L17.6 10.3 L18.9 8.9 L23.2 8.9 L24.3 10.1 L26.9 8.9 L27.6 9.6 L25.7 11.4 L26.4 12.1 L24.6 14 L27.5 16.9 L29.4 15.1 L30 15.8 L31.9 13.9 L32.6 14.6 L31.4 17.2 L32.6 18.3 L32.6 22.6 L31.2 23.9 L32 24.6 L30.8 25.8 L30.1 25 L25 30.1 L25.8 30.8 L24.6 32 L23.9 31.2 L22.6 32.6 L18.3 32.6 L17.2 31.4 L14.6 32.6 L13.9 31.9 L15.8 30 L15.1 29.4 L16.9 27.5 z" style="fill:#FFFED6;" />
		
		<animateMotion dur="30s" repeatCount="indefinite" path="M0,-2 C0,-2 4,2 4,0 C4-2 0,2 0,0 z" />
	</g>
	
</svg>