<?xml version="1.0" encoding="UTF-8" standalone="no"?>
<!DOCTYPE svg PUBLIC "-//W3C//DTD SVG 1.1//EN" "http://www.w3.org/Graphics/SVG/1.1/DTD/svg11.dtd">
<svg width="63" height="42" viewBox="0 0 63 42" version="1.1" xmlns="http://www.w3.org/2000/svg" xmlns:xlink="http://www.w3.org/1999/xlink" xml:space="preserve" xmlns:serif="http://www.serif.com/" style="fill-rule:evenodd;clip-rule:evenodd;stroke-linejoin:round;stroke-miterlimit:2;">
    <g transform="matrix(0.103923,0.103923,-0.103923,0.103923,25.0649,-16.3079)">
        <path d="M121.185,62.648C109.814,65.666 98.421,70.255 87.653,76.387C76.885,82.518 66.741,90.193 57.806,99.118C48.87,108.043 41.144,118.217 35,128.909C28.856,139.601 24.296,150.81 21.178,162.407C18.061,174.005 16.387,185.991 16.34,198.321C16.293,210.65 17.873,223.324 21.133,235.531C24.392,247.738 29.332,259.478 35.559,270.165C41.786,280.851 49.301,290.485 57.717,298.905C61.925,303.115 66.359,307.022 71.133,310.709C75.908,314.395 81.022,317.861 86.382,320.989C91.743,324.116 97.349,326.906 103.141,329.325C108.932,331.744 114.91,333.791 121.009,335.419C133.207,338.676 145.888,340.256 158.227,340.207C170.565,340.159 182.56,338.482 194.14,335.369C205.72,332.256 216.884,327.706 227.611,321.557C232.974,318.483 238.227,315.008 243.228,311.19C248.229,307.371 252.977,303.207 257.429,298.742C261.882,294.276 266.039,289.509 269.842,284.51C273.645,279.511 277.094,274.28 280.161,268.894C283.227,263.508 285.911,257.966 288.199,252.354C289.343,249.548 290.388,246.725 291.343,243.881C291.82,242.46 292.276,241.033 292.692,239.626C293.109,238.22 293.488,236.833 293.859,235.465C295.243,230.361 296.521,225.527 297.815,220.652C299.109,215.776 300.42,210.859 301.728,205.948C304.345,196.125 306.952,186.325 309.561,176.521C312.171,166.717 314.782,156.909 317.392,147.101C320.003,137.294 322.613,127.487 325.223,117.681C330.444,98.068 335.665,78.454 340.885,58.84C346.106,39.227 351.327,19.613 356.547,-0C278.093,20.882 199.639,41.765 121.185,62.648Z" style="fill:rgb(77,80,47);fill-rule:nonzero;"/>
    </g>
    <g transform="matrix(0.103923,0.103923,-0.103923,0.103923,25.0649,-16.3079)">
        <circle cx="157.494" cy="199.054" r="124.519" style="fill:rgb(255,254,214);fill-opacity:0.6;"/>
    </g>
    <g transform="matrix(0.103923,0.103923,-0.103923,0.103923,25.0649,-16.3079)">
        <path d="M171.602,249.996L143.385,249.996L143.385,267.757L136.745,267.757L136.745,286.015L130.023,286.015L123.377,267.757L112.452,267.757L91.87,247.174L91.87,234.228L84.754,234.228L84.754,223.356L91.87,223.356L91.87,174.752L84.754,174.752L84.754,163.88L91.87,163.88L91.87,150.933L112.452,130.351L123.377,130.351L130.023,112.093L136.745,112.093L136.745,130.351L143.385,130.351L143.385,148.111L171.602,148.111L171.602,130.351L178.242,130.351L178.242,112.093L184.964,112.093L191.61,130.351L202.535,130.351L223.117,150.933L223.117,163.88L230.233,163.88L230.233,174.752L223.117,174.752L223.117,223.356L230.233,223.356L230.233,234.228L223.117,234.228L223.117,247.174L202.535,267.757L191.61,267.757L184.964,286.015L178.242,286.015L178.242,267.757L171.602,267.757L171.602,249.996Z" style="fill:rgb(26,11,0);fill-opacity:0.95;fill-rule:nonzero;"/>
        <path d="M157.494,254.079L167.52,254.079C167.52,254.079 167.52,271.839 167.52,271.839L174.159,271.839C174.159,271.839 174.159,290.097 174.159,290.097L187.823,290.097L194.468,271.839C194.468,271.839 204.226,271.839 204.226,271.839L227.199,248.866L227.199,238.31C227.199,238.31 234.315,238.31 234.315,238.31L234.315,219.273L227.199,219.273L227.199,178.834C227.199,178.834 234.315,178.834 234.315,178.834L234.315,159.797L227.199,159.797C227.199,159.797 227.199,149.242 227.199,149.242L204.226,126.268L194.468,126.268C194.468,126.268 187.823,108.01 187.823,108.01L174.159,108.01L174.159,126.268C174.159,126.268 167.52,126.268 167.52,126.268L167.52,144.029L147.467,144.029C147.467,144.029 147.467,126.268 147.467,126.268L140.828,126.268C140.828,126.268 140.828,108.01 140.828,108.01L127.164,108.01L120.519,126.268C120.519,126.268 110.761,126.268 110.761,126.268L87.788,149.242L87.788,159.797C87.788,159.797 80.672,159.797 80.672,159.797L80.672,178.834L87.788,178.834L87.788,219.273C87.788,219.273 80.672,219.273 80.672,219.273L80.672,238.31L87.788,238.31C87.788,238.31 87.788,248.866 87.788,248.866L110.761,271.839L120.519,271.839C120.519,271.839 127.164,290.097 127.164,290.097L140.828,290.097L140.828,271.839C140.828,271.839 147.467,271.839 147.467,271.839L147.467,254.079C147.467,254.079 157.494,254.079 157.494,254.079ZM171.602,249.996L143.385,249.996L143.385,267.757L136.745,267.757L136.745,286.015L130.023,286.015L123.377,267.757L112.452,267.757L91.87,247.174L91.87,234.228L84.754,234.228L84.754,223.356L91.87,223.356L91.87,174.752L84.754,174.752L84.754,163.88L91.87,163.88L91.87,150.933L112.452,130.351L123.377,130.351L130.023,112.093L136.745,112.093L136.745,130.351L143.385,130.351L143.385,148.111L171.602,148.111L171.602,130.351L178.242,130.351L178.242,112.093L184.964,112.093L191.61,130.351L202.535,130.351L223.117,150.933L223.117,163.88L230.233,163.88L230.233,174.752L223.117,174.752L223.117,223.356L230.233,223.356L230.233,234.228L223.117,234.228L223.117,247.174L202.535,267.757L191.61,267.757L184.964,286.015L178.242,286.015L178.242,267.757L171.602,267.757L171.602,249.996Z" style="fill:rgb(255,254,214);"/>
    </g>
</svg>
