<?xml version="1.0" encoding="utf-8"?>
<!DOCTYPE svg PUBLIC "-//W3C//DTD SVG 1.1//EN" "http://www.w3.org/Graphics/SVG/1.1/DTD/svg11.dtd">

<svg version="1.1" xmlns="http://www.w3.org/2000/svg" xmlns:xlink="http://www.w3.org/1999/xlink" xmlns:xml="http://www.w3.org/XML/1998/namespace" xmlns:serif="http://www.serif.com/" width="563" height="626" viewBox="0, 0, 563, 626" xml:space="preserve" fill-rule="evenodd" style="clip-rule:evenodd;">

    <g id="Dune" style="font-family:Herbert;font-size:7px;font-weight:normal;">

		<g id="Background">
		
            <circle cx="281.1" cy="311.3" r="259.7" style="fill:#E7BF3C;" />
		
		    <g id="Background_Rocks">
                <mask id="mask_dune">
                    <path d="M523.5 307.3 C523 278.7 517.3 247.9 504.9 218.3 C492.6 188.7 473.6 160.3 449.6 137 C425.6 113.8 396.5 95.8 366.5 84.5 C336.5 73.1 305.5 68.4 277 68.9 C248.5 69.4 217.7 75.1 188 87.5 C158.4 99.8 130 118.8 106.8 142.8 C83.5 166.8 65.5 195.9 54.2 225.9 C42.8 255.9 38.1 286.9 38.7 315.4 C39.1 343.9 44.8 374.8 57.2 404.4 C69.5 434 88.5 462.4 112.6 485.6 C136.6 508.9 165.6 526.9 195.6 538.2 C225.7 549.6 256.6 554.3 285.2 553.7 C313.7 553.3 344.5 547.6 374.1 535.2 C403.7 522.9 432.1 503.9 455.4 479.9 C478.6 455.8 496.6 426.8 508 396.8 C519.3 366.7 524 335.8 523.5 307.3 z" id="Achtergrond_cirkel" style="fill:white;" />
                </mask>
                <path d="M523.5 307.3 C523 278.7 517.3 247.9 504.9 218.3 C492.6 188.7 473.6 160.3 449.6 137 C425.6 113.8 396.5 95.8 366.5 84.5 C336.5 73.1 305.5 68.4 277 68.9 C248.5 69.4 217.7 75.1 188 87.5 C158.4 99.8 130 118.8 106.8 142.8 C83.5 166.8 65.5 195.9 54.2 225.9 C42.8 255.9 38.1 286.9 38.7 315.4 C39.1 343.9 44.8 374.8 57.2 404.4 C69.5 434 88.5 462.4 112.6 485.6 C136.6 508.9 165.6 526.9 195.6 538.2 C225.7 549.6 256.6 554.3 285.2 553.7 C313.7 553.3 344.5 547.6 374.1 535.2 C403.7 522.9 432.1 503.9 455.4 479.9 C478.6 455.8 496.6 426.8 508 396.8 C519.3 366.7 524 335.8 523.5 307.3 z" filter="url(#dunes)" id="Achtergrond_cirkel#1" fill-rule="nonzero" fill-opacity="1" style="mask:url(#mask_dune);fill:#F3D987;" />
	        </g>
		
	        <g id="Background_Dune">
		        <mask id="mask_rock">
		            <path d="M521.6 307.5 C521.2 279.2 515.5 248.6 503.2 219.2 C491 189.7 472.1 161.5 448.3 138.4 C424.5 115.3 395.7 97.4 365.9 86.2 C336.1 74.9 305.3 70.2 277.1 70.7 C248.8 71.2 218.2 76.9 188.8 89.1 C159.4 101.4 131.2 120.3 108.2 144.2 C85.2 168 67.3 196.9 56 226.7 C44.8 256.6 40.1 287.4 40.6 315.7 C41.1 344 46.7 374.6 59 404.1 C71.3 433.5 90.1 461.7 113.9 484.8 C137.8 507.9 166.6 525.8 196.4 537.1 C226.2 548.3 256.9 553 285.2 552.5 C313.5 552 344 546.4 373.4 534.1 C402.8 521.8 431 502.9 454 479.1 C477.1 455.2 495 426.3 506.2 396.5 C517.5 366.7 522.1 335.9 521.6 307.5 z" id="Achtergrond_cirkel#2" style="fill:black;" />
		            <g id="rock_mask_white" style="fill:white;">
			            <path d="M355.3 195.8 L367.4 187.2 L367.3 183.9 L374.5 179.6 L375 176.7 L378.2 176.5 L378.9 172.2 L386.9 158.4 L389.1 147.4 L393.5 142.1 L393.5 132.1 L390.2 130.6 L386.5 134.2 L383.3 134.2 L361.1 172.7 L354.6 183.9 L355.8 190.1 L353.8 193.3 L355.3 195.8 z" id="territory20-border" fill-rule="nonzero" stroke-width="0px" stroke-linecap="round" stroke-linejoin="round" fill-opacity="1" />
			            <path d="M203 321.8 L184 323.6 L181.7 329.7 L171.4 334.5 L170.7 336.9 L169 338.4 L168.8 352.2 L169.5 354.8 L169.2 362 L153.5 379 L149.2 389.6 L151.8 392.5 L154.6 397.9 L154.7 405.1 L149.7 409.5 L150.7 420.7 L159 438.5 L160.5 453.3 L169.6 459.3 L178.4 459.3 L176.5 428.8 L186.5 417.4 L193.6 384.7 L202.8 339.8 L203 321.8 z" id="territory38-border" fill-rule="nonzero" stroke-width="0px" stroke-linecap="round" stroke-linejoin="round" fill-opacity="1" />
			            <path d="M451.4 447.4 L437.4 441 L435.7 433.8 L437.2 420.2 L433.7 404 L434.9 392.5 L420.3 381.2 L413.4 381.6 L400 372.9 L393 374 L379.5 362.5 L372.4 376.6 L368.4 376.5 L361.8 366.5 L356.7 347.4 L349.8 341.5 L344.6 342 L339.7 360.6 L330.9 360.1 L327.5 357.4 L325 357.5 L325.3 369.6 L321.6 381.5 L336 406.5 L357.5 434 L373.2 449 L387.2 455.7 L396.1 465.4 L398.7 477 L403.3 483.9 L414 486 L420.8 485.6 L426 483.3 L427.2 480 L431.8 473.4 L433.4 462.8 L440.2 455.2 L451.4 447.4 z" id="territory13-border" fill-rule="nonzero" stroke-width="0px" stroke-linecap="round" stroke-linejoin="round" fill-opacity="1" />
			            <path d="M334 336.9 L341 319.9 L341 314 L343 311.3 L342.2 289.1 L329.5 270.7 L317.2 262 L312.5 271.2 L302.7 280.5 L302.7 285.5 L312 285.4 L320.2 297.1 L317.7 311.3 L310.1 321.9 L305.7 332 L319.2 343.4 L334 336.9 z" id="territory14-border" fill-rule="nonzero" stroke-width="0px" stroke-linecap="round" stroke-linejoin="round" fill-opacity="1" />
			            <path d="M235.5 273.1 L188.3 233.5 L188.4 227 L184.2 222.9 L182 212.2 L179.1 204.6 L180.7 201.7 L181.2 192.2 L183.2 184.6 L181.8 180.9 L186.6 170.4 L193.4 159.5 L195.4 151.5 L199.9 149.3 L202.9 145.1 L208.3 141.4 L210.3 136.6 L212.6 136.5 L220 121 L222.1 120.2 L222.6 109.6 L223.8 105.9 L207.8 108.2 L198.1 116.4 L179 116.4 L166 112.1 L157.9 123.1 L148 129.2 L139.8 141.9 L130.2 170.5 L120 181.5 L122 191 L127.7 200.5 L127.9 206.7 L130.5 208.7 L131 213.6 L133.9 216.7 L128.8 234 L126.2 242.8 L123.1 243.1 L121 247.5 L120.5 252.9 L185 276.4 L220 289.1 L235.5 273.1 z" id="territory30-border" fill-rule="nonzero" stroke-width="0px" stroke-linecap="round" stroke-linejoin="round" fill-opacity="1" />
			            <path d="M482.6 390.3 L491.5 364.8 L495.8 356.2 L496.5 342.4 L494.6 336 L495.7 334.1 L493.6 328.8 L495.6 319.7 L501.6 311.3 L502.1 303.7 L495.9 303.7 L486.8 292.2 L484.5 279.6 L488.2 269.5 L497 262.8 L497.9 258.8 L513.4 242.2 C510 230.6 505.6 219.1 500.3 207.8 L490.8 208.1 L487.8 210.3 L484.4 208.6 L475.4 215 L468.8 210.9 L453.9 215.4 L449 210 L437 210.5 L433.3 207.7 L430.8 199 L412.5 213.9 L407.2 227.3 L400.3 233.9 L396 235.2 L395.6 238.6 L392.6 242.1 L385.6 245.2 L385.7 260.7 L391.9 273.8 L392.5 295.2 L388.7 311.3 L376.1 345.9 L379.5 362.5 L393 374 L400 372.9 L413.4 381.6 L420.3 381.2 L434.9 392.5 L443.5 377.4 L453.8 379.9 L464.4 381.1 L469.5 386.4 L482.6 390.3 z" id="territory16-border" fill-rule="nonzero" stroke-width="0px" stroke-linecap="round" stroke-linejoin="round" fill-opacity="1" />
			            <path d="M333.3 276.3 L345.8 269.8 L349.1 265.7 L362 260.9 L368.3 261.3 L371.6 254.4 L375.5 252.5 L378.7 248.4 L392.6 242.1 L395.6 238.6 L396 235.2 L400.3 233.9 L407.2 227.3 L412.5 213.9 L439.7 191.8 L448.9 174.6 L449 170.4 L435.6 165.8 L418.9 168.3 L407.8 182.8 L407.4 188.2 L391 200.7 L384.3 201.4 L350.4 220.9 L342.5 222.4 L331.6 240.5 L333.1 243.9 L317.2 262 L329.5 270.7 L333.3 276.3 z" id="territory23-border" fill-rule="nonzero" stroke-width="0px" stroke-linecap="round" stroke-linejoin="round" fill-opacity="1" />
		            </g>
	            </mask>
                <path d="M521.6 307.5 C521.2 279.2 515.5 248.6 503.2 219.2 C491 189.7 472.1 161.5 448.3 138.4 C424.5 115.3 395.7 97.4 365.9 86.2 C336.1 74.9 305.3 70.2 277.1 70.7 C248.8 71.2 218.2 76.9 188.8 89.1 C159.4 101.4 131.2 120.3 108.2 144.2 C85.2 168 67.3 196.9 56 226.7 C44.8 256.6 40.1 287.4 40.6 315.7 C41.1 344 46.7 374.6 59 404.1 C71.3 433.5 90.1 461.7 113.9 484.8 C137.8 507.9 166.6 525.8 196.4 537.1 C226.2 548.3 256.9 553 285.2 552.5 C313.5 552 344 546.4 373.4 534.1 C402.8 521.8 431 502.9 454 479.1 C477.1 455.2 495 426.3 506.2 396.5 C517.5 366.7 522.1 335.9 521.6 307.5 z" filter="url(#rock)" id="Achtergrond_cirkel#3" fill-rule="nonzero" fill-opacity="1" style="mask:url(#mask_rock);fill:#F3D987;" />
	        </g>

			<g id="Fremen_Border">
                <path d="M262.8 291.1 C263.1 291.6 263.5 292.1 264 292.6 C264.3 292.8 264.5 293 264.8 293.2 C265.1 293.3 265.4 293.5 265.7 293.6 C266.1 293.7 266.4 293.8 266.7 293.9 C266.9 293.9 267 293.9 267.2 293.9 C267.4 293.9 267.5 294 267.7 294 C267.9 294 268 294 268.2 293.9 C268.4 293.9 268.5 293.9 268.7 293.9 C268.7 293.9 268.8 293.9 268.9 293.8 C269 293.8 269 293.8 269.1 293.8 C269.2 293.8 269.3 293.7 269.3 293.7 C269.3 293.7 269.2 293.8 269.8 293.6 C270.5 293.3 272.6 292.6 274.4 292 C276.1 291.5 277.5 291 279.2 290.4 C280.4 289.5 281.6 288.5 282.9 287.6 C283.2 287.6 283.6 287.6 283.9 287.6 C285.6 289.3 287.3 291 289 292.7 C290.8 292.7 293.1 292.8 294.8 292.9 C296.6 292.9 297.8 293 299.4 293 C300.9 292.4 302.4 291.8 303.9 291.1 C305.6 291.1 307.3 291.1 309 291.1 C310.8 293.5 312.5 296 314.2 298.4 C313.6 302 312.9 305.5 312.3 309.1 C309.9 312.4 307.5 315.8 305.2 319.1 C303.7 322.4 302.2 325.7 300.8 329 C299.1 331.1 297.5 333.1 295.9 335.2 C295.7 337.7 295.6 340.2 295.4 342.8 C292.6 344.8 289.8 346.8 287 348.8 C283.3 348.6 279.7 348.5 276 348.3 C275.1 347.4 274.1 346.4 273.1 345.4 C272.5 344.2 271.8 343 271.1 341.7 C270.7 341.1 270.4 340.5 270 339.9 C269.7 339.3 269.3 338.6 269.1 338.2 C268.8 337.6 268.9 337.8 268.9 337.9 C269 337.9 268.9 337.8 268.8 337.8 C268.7 337.6 268.7 337.5 268.6 337.4 C268.6 337.3 268.5 337.2 268.4 337.1 C268.3 337 268.2 337 268.1 336.9 C268 336.7 267.8 336.5 267.6 336.4 C267.4 336.2 267.2 336.1 266.9 335.9 C266.7 335.8 266.5 335.7 266.3 335.6 C266 335.5 265.8 335.4 265.5 335.3 C265.3 335.3 265.1 335.2 264.8 335.2 C264.6 335.1 264.3 335.1 264.1 335.1 C263.9 335.1 263.6 335.1 263.4 335.2 C263.1 335.2 262.9 335.2 262.6 335.3 C262.4 335.4 262.2 335.5 261.9 335.5 C261.8 335.6 261.7 335.6 261.6 335.7 C261.5 335.8 261.3 335.8 261.2 335.9 C261.1 335.9 261 336 260.9 336.1 C260.8 336.2 260.7 336.2 260.6 336.3 C260.5 336.4 260.4 336.5 260.3 336.5 C260.2 336.6 260.1 336.7 260 336.8 C259.9 336.9 259.9 337 259.8 337.1 C259.7 337.1 259.7 337.2 259.6 337.2 C259.6 337.3 259.6 337.3 259.5 337.4 C259.5 337.4 259.5 337.4 259.4 337.5 C259.4 337.6 259.3 337.7 259.3 337.7 C259.3 337.7 259.4 337.6 259.2 337.8 C259.1 338.1 258.7 338.7 257.3 341.1 C254 346.9 244.6 363.2 236.5 377.2 C228.4 391.2 221.6 402.9 213.8 416.5 C214.5 420 215.2 423.6 215.8 427.2 C214.4 428.3 212.9 429.4 211.5 430.5 C212.3 433.2 213.1 436 213.9 438.7 C213.2 442.8 212.6 446.9 212 451.1 C209.5 454.2 207.1 457.4 204.7 460.6 C204.3 464.1 203.8 467.7 203.4 471.3 C199.9 474.6 196.3 477.9 192.8 481.1 C190.6 481.2 188.5 481.3 186.3 481.4 C187.2 476.1 188.1 470.9 189.1 465.7 C186.6 461.7 184.1 457.6 181.6 453.6 L171.3 453.6 C169.5 452.4 167.7 451.2 165.9 450 C165.4 445.7 165 441.3 164.5 436.9 C161.8 431 159 425.1 156.3 419.3 C156 416.8 155.8 414.3 155.6 411.9 C157.2 410.5 158.9 409.1 160.5 407.6 C160.4 403.9 160.3 400.2 160.2 396.4 C159 394 157.8 391.7 156.5 389.3 C155.1 387.7 153.7 386.1 152.3 384.5 C148.9 383.7 145.5 382.9 142.2 382.1 C138.3 380 134.4 377.9 130.5 375.8 C129 375.8 127.4 375.9 125.8 376 C123.8 374.1 121.8 372.2 119.8 370.4 C115 370 110.3 369.6 105.5 369.2 C87.5 375.8 69.4 382.3 51.3 388.9 C52 390.7 52.6 392.5 53.2 394.3 C70.9 387.8 88.6 381.4 106.3 375 C110 375.3 113.7 375.6 117.3 375.9 C119.5 377.8 121.6 379.8 123.7 381.8 C125.5 381.7 127.4 381.6 129.2 381.5 C132.8 383.5 136.5 385.4 140.1 387.4 C143.1 388.2 146.2 388.9 149.2 389.6 C150.1 390.6 151 391.6 151.8 392.5 C152.7 394.3 153.7 396.1 154.6 397.9 C154.6 400.3 154.7 402.7 154.7 405.1 C153.1 406.6 151.4 408 149.7 409.5 C150 413.3 150.4 417 150.7 420.7 C153.4 426.7 156.2 432.6 159 438.5 C159.5 443.4 160 448.4 160.5 453.3 C163.5 455.3 166.6 457.3 169.6 459.3 L178.4 459.3 C180 461.8 181.5 464.3 183.1 466.8 C181.9 473.7 180.7 480.5 179.5 487.3 C184.7 487.1 189.9 486.9 195.1 486.8 C199.7 482.5 204.2 478.3 208.8 474 C209.2 470.3 209.7 466.5 210.1 462.8 C212.5 459.7 214.9 456.5 217.3 453.4 C218.1 448.3 218.9 443.3 219.7 438.3 C219.1 436.4 218.6 434.5 218 432.7 C220.2 431 222.4 429.4 224.5 427.7 C223.4 426.6 222.3 425.6 221.1 424.6 C220.7 422.2 220.2 419.8 219.8 417.5 C234.5 391.9 249.3 366.4 264.1 340.8 C265.6 343.5 267.1 346.2 268.6 348.9 C270.2 350.6 271.9 352.3 273.6 353.9 C278.6 354.1 283.6 354.3 288.7 354.5 C292.8 351.6 296.9 348.7 301 345.8 C301.1 343 301.3 340.1 301.4 337.3 C302.8 335.5 304.3 333.8 305.7 332 C307.2 328.6 308.6 325.3 310.1 321.9 C312.6 318.4 315.1 314.9 317.7 311.3 C318.5 306.6 319.4 301.8 320.2 297.1 C317.5 293.2 314.7 289.3 312 285.4 C308.9 285.4 305.8 285.4 302.7 285.5 C301.3 286.1 299.8 286.7 298.3 287.3 C297.2 287.3 296.2 287.2 295 287.2 C293.9 287.1 292.6 287.1 291.4 287.1 C289.7 285.4 288 283.6 286.2 281.9 C284.5 281.9 282.7 281.9 281 281.9 C279.5 283.1 278 284.2 276.5 285.3 C273.6 286.3 270.7 287.3 267.7 288.3 C264.6 282.9 261.5 277.5 258.4 272.1 C258.7 268 259.1 263.9 259.4 259.7 C258.8 257.8 258.3 256 257.7 254.1 C256.4 252.6 255.1 251.1 253.8 249.6 C253.5 243.8 253.3 238.1 253 232.3 C253.6 226.6 254.2 220.9 254.8 215.2 C257.1 210.6 259.4 206 261.7 201.4 C258 180.6 254.3 159.8 250.7 139.1 C256.9 137.3 263.2 135.6 269.4 133.8 C272.1 132.3 274.8 130.8 277.5 129.2 C282.6 130.2 287.8 131.2 292.9 132.2 C294.5 130.7 296 129.2 297.6 127.7 C300.5 120.9 303.5 114.1 306.4 107.4 C311 101.7 315.5 96.1 320 90.4 C315 89.2 310 87.9 305 86.7 C302.6 87.2 300.2 87.6 297.8 88.1 C299.6 85.1 301.4 82.1 303.3 79.1 C303.3 76.1 303.3 73 303.3 69.9 C301.4 69.9 299.5 69.9 297.6 69.9 C297.6 72.5 297.6 75 297.6 77.5 C293.8 83.7 290 89.9 286.3 96.1 C292.5 94.9 298.6 93.7 304.8 92.5 C306.6 92.9 308.3 93.4 310 93.8 C307.2 97.3 304.4 100.9 301.5 104.4 C298.6 111.1 295.7 117.7 292.8 124.4 C292.3 125 291.7 125.5 291.1 126.1 C286.2 125.1 281.3 124.2 276.5 123.2 C273.4 125 270.3 126.8 267.2 128.6 C259.5 130.7 251.9 132.8 244.2 135 C248.1 156.8 251.9 178.7 255.8 200.5 C253.6 204.9 251.5 209.2 249.3 213.6 C248.6 219.8 248 225.9 247.3 232.1 C247.6 238.7 247.9 245.3 248.2 251.8 C249.6 253.5 251.1 255.2 252.6 256.9 C253 258 253.3 259.2 253.6 260.3 C253.3 264.7 253 269.1 252.6 273.4 C256 279.3 259.4 285.2 262.8 291.1 z" fill-rule="nonzero" style="fill:#E3A63199;" />
            </g>
		
	    </g>
		
        <g id="Territories">
		  
            <path d="M341.9 106.9 L340.8 110.7 L343.4 121 L342.3 126.1 L336.4 137.1 L329.5 145 L330.4 152.6 L343.9 162.8 L347.7 171.9 L354.7 170.7 L361.1 172.7 L383.3 134.2 L383.1 124.6 L370.6 110.3 L358 106.3 L341.9 106.9 z M350.9 115.3 L352.3 120.8 L350.6 129.2 L343.5 142 L338.6 147.7 L338.6 147.9 L350.9 157.3 L353 162.2 L355.3 161.8 L357.1 162.4 L374.6 132 L374.5 128 L365.6 117.8 L356.8 115 L350.9 115.3 z" id="territory3-border" fill-opacity="0.5" style="fill:#F27F34;" />
            <path d="M287.6 182.5 L297.5 159 L297.6 140.5 L292.9 132.2 L277.5 129.2 L269.4 133.8 L250.7 139.1 L257.5 178 L261.6 178.3 L267.9 185.3 L275.2 182.6 L287.6 182.5 z M281.9 173.9 L288.8 157.3 L288.9 142.8 L287.3 140 L279 138.3 L272.8 141.9 L260.6 145.3 L264.9 169.8 L265.8 169.9 L270.4 175.1 L273.6 173.9 L281.9 173.9 z" id="territory2-border" fill-opacity="0.5" style="fill:#F27F34;" />
            <path d="M128.8 234 L133.9 216.7 L131 213.6 L130.5 208.7 L127.9 206.7 L127.7 200.5 L122 191 L120 181.5 L111.1 177.2 L91.1 195.1 L90.4 200 L86.2 207.7 L81 209.4 L79.5 218 L89.4 228.9 L94.9 229.7 L100.2 226.6 L112.8 232 L120.6 231.9 L128.8 234 z M122.8 223.5 L124.2 219 L122.7 217.4 L122.2 213.3 L119.4 211.1 L119.1 203 L113.8 194.1 L112.5 187.6 L99.3 199.4 L98.8 202.8 L92.1 214.9 L89.2 215.8 L93.5 220.5 L99.6 217 L114.5 223.3 L121.6 223.2 L122.8 223.5 z" id="territory5-border" fill-opacity="0.5" style="fill:#F27F34;" />
            <path d="M139.6 430 L129.1 409 L128.6 401.4 L125.9 395 L112.3 391.7 L97.8 396.8 L91.2 407.5 L96.8 427.1 L117 449 L139.6 430 z M128.8 427.8 L120.6 411.3 L120 403.4 L119.6 402.4 L112.8 400.8 L103.6 404 L100.6 408.8 L104.6 422.8 L117.8 437.1 L128.8 427.8 z" id="territory6-border" fill-opacity="0.5" style="fill:#F27F34;" />
            <path d="M451.4 447.4 L470.7 430.2 L479.3 414.8 L479.1 402.4 L482.6 390.3 L469.5 386.4 L464.4 381.1 L453.8 379.9 L443.5 377.4 L434.9 392.5 L433.7 404 L437.2 420.2 L435.7 433.8 L437.4 441 L451.4 447.4 z M449.8 437.2 L463.8 424.7 L470.6 412.6 L470.4 401.2 L471.9 396.1 L464.9 394 L460.3 389.4 L452.2 388.4 L447.8 387.4 L443.3 395.2 L442.5 403.6 L445.9 419.8 L444.5 433.2 L444.9 434.9 L449.8 437.2 z" id="territory4-border" fill-opacity="0.5" style="fill:#F27F34;" />
              
            <path d="M451.4 447.4 L470.7 430.2 L479.3 414.8 L479.1 402.4 L482.6 390.3 L469.5 386.4 L464.4 381.1 L453.8 379.9 L443.5 377.4 L434.9 392.5 L433.7 404 L437.2 420.2 L435.7 433.8 L437.4 441 L451.4 447.4 z" id="area-tuekssietch" fill-rule="nonzero" stroke-width="1.07px" stroke-linecap="round" stroke-linejoin="round" fill-opacity="0.5" style="fill:#F27F34;stroke:#1D0C00;" />
            <path d="M341.9 106.9 L340.8 110.7 L343.4 121 L342.3 126.1 L336.4 137.1 L329.5 145 L330.4 152.6 L343.9 162.8 L347.7 171.9 L354.7 170.7 L361.1 172.7 L383.3 134.2 L383.1 124.6 L370.6 110.3 L358 106.3 L341.9 106.9 z" id="area-arrakeen" fill-rule="nonzero" stroke-width="2.2px" stroke-linecap="round" stroke-linejoin="round" fill-opacity="0.5" style="fill:#F27F34;stroke:#1D0C00;" />
            <path d="M287.6 182.5 L297.5 159 L297.6 140.5 L292.9 132.2 L277.5 129.2 L269.4 133.8 L250.7 139.1 L257.5 178 L261.6 178.3 L267.9 185.3 L275.2 182.6 L287.6 182.5 z" id="area-carthag" fill-rule="nonzero" stroke-width="2.2px" stroke-linecap="round" stroke-linejoin="round" fill-opacity="0.5" style="fill:#F27F34;stroke:#1D0C00;" />
            <path d="M128.8 234 L133.9 216.7 L131 213.6 L130.5 208.7 L127.9 206.7 L127.7 200.5 L122 191 L120 181.5 L111.1 177.2 L91.1 195.1 L90.4 200 L86.2 207.7 L81 209.4 L79.5 218 L89.4 228.9 L94.9 229.7 L100.2 226.6 L112.8 232 L120.6 231.9 L128.8 234 z" id="area-sietchtabr" fill-rule="nonzero" stroke-width="2.2px" stroke-linecap="round" stroke-linejoin="round" fill-opacity="0.5" style="fill:#F27F34;stroke:#1D0C00;" />
            <path d="M139.6 430 L129.1 409 L128.6 401.4 L125.9 395 L112.3 391.7 L97.8 396.8 L91.2 407.5 L96.8 427.1 L117 449 L139.6 430 z" id="area-habbanyasietch" fill-rule="nonzero" stroke-width="2.2px" stroke-linecap="round" stroke-linejoin="round" fill-opacity="0.5" style="fill:#F27F34;stroke:#1D0C00;" />
              
            <path d="M355.3 195.8 L367.4 187.2 L367.3 183.9 L374.5 179.6 L375 176.7 L378.2 176.5 L378.9 172.2 L386.9 158.4 L389.1 147.4 L393.5 142.1 L393.5 132.1 L390.2 130.6 L386.5 134.2 L383.3 134.2 L361.1 172.7 L354.6 183.9 L355.8 190.1 L353.8 193.3 L355.3 195.8 z" id="territory20-border#1" fill-rule="nonzero" stroke-width="2.2px" stroke-linecap="round" stroke-linejoin="round" fill-opacity="0" style="stroke:#1D0C00;" />
            <path d="M203 321.8 L184 323.6 L181.7 329.7 L171.4 334.5 L170.7 336.9 L169 338.4 L168.8 352.2 L169.5 354.8 L169.2 362 L153.5 379 L149.2 389.6 L151.8 392.5 L154.6 397.9 L154.7 405.1 L149.7 409.5 L150.7 420.7 L159 438.5 L160.5 453.3 L169.6 459.3 L178.4 459.3 L176.5 428.8 L186.5 417.4 L193.6 384.7 L202.8 339.8 L203 321.8 z" id="territory38-border#1" fill-rule="nonzero" stroke-width="2.2px" stroke-linecap="round" stroke-linejoin="round" fill-opacity="0" style="stroke:#1D0C00;" />
            <path d="M451.4 447.4 L437.4 441 L435.7 433.8 L437.2 420.2 L433.7 404 L434.9 392.5 L420.3 381.2 L413.4 381.6 L400 372.9 L393 374 L379.5 362.5 L372.4 376.6 L368.4 376.5 L361.8 366.5 L356.7 347.4 L349.8 341.5 L344.6 342 L339.7 360.6 L330.9 360.1 L327.5 357.4 L325 357.5 L325.3 369.6 L321.6 381.5 L336 406.5 L357.5 434 L373.2 449 L387.2 455.7 L396.1 465.4 L398.7 477 L403.3 483.9 L414 486 L420.8 485.6 L426 483.3 L427.2 480 L431.8 473.4 L433.4 462.8 L440.2 455.2 L451.4 447.4 z" id="territory13-border#1" fill-rule="nonzero" stroke-width="2.2px" stroke-linecap="round" stroke-linejoin="round" fill-opacity="0" style="stroke:#1D0C00;" />
            <path d="M334 336.9 L341 319.9 L341 314 L343 311.3 L342.2 289.1 L329.5 270.7 L317.2 262 L312.5 271.2 L302.7 280.5 L302.7 285.5 L312 285.4 L320.2 297.1 L317.7 311.3 L310.1 321.9 L305.7 332 L319.2 343.4 L334 336.9 z" id="territory14-border#1" fill-rule="nonzero" stroke-width="2.2px" stroke-linecap="round" stroke-linejoin="round" fill-opacity="0" style="stroke:#1D0C00;" />
            <path d="M235.5 273.1 L188.3 233.5 L188.4 227 L184.2 222.9 L182 212.2 L179.1 204.6 L180.7 201.7 L181.2 192.2 L183.2 184.6 L181.8 180.9 L186.6 170.4 L193.4 159.5 L195.4 151.5 L199.9 149.3 L202.9 145.1 L208.3 141.4 L210.3 136.6 L212.6 136.5 L220 121 L222.1 120.2 L222.6 109.6 L223.8 105.9 L207.8 108.2 L198.1 116.4 L179 116.4 L166 112.1 L157.9 123.1 L148 129.2 L139.8 141.9 L130.2 170.5 L120 181.5 L122 191 L127.7 200.5 L127.9 206.7 L130.5 208.7 L131 213.6 L133.9 216.7 L128.8 234 L126.2 242.8 L123.1 243.1 L121 247.5 L120.5 252.9 L185 276.4 L220 289.1 L235.5 273.1 z" id="territory30-border#1" fill-rule="nonzero" stroke-width="2.2px" stroke-linecap="round" stroke-linejoin="round" fill-opacity="0" style="stroke:#1D0C00;" />
            <path d="M482.6 390.3 L491.5 364.8 L495.8 356.2 L496.5 342.4 L494.6 336 L495.7 334.1 L493.6 328.8 L495.6 319.7 L501.6 311.3 L502.1 303.7 L495.9 303.7 L486.8 292.2 L484.5 279.6 L488.2 269.5 L497 262.8 L497.9 258.8 L513.4 242.2 C510 230.6 505.6 219.1 500.3 207.8 L490.8 208.1 L487.8 210.3 L484.4 208.6 L475.4 215 L468.8 210.9 L453.9 215.4 L449 210 L437 210.5 L433.3 207.7 L430.8 199 L412.5 213.9 L407.2 227.3 L400.3 233.9 L396 235.2 L395.6 238.6 L392.6 242.1 L385.6 245.2 L385.7 260.7 L391.9 273.8 L392.5 295.2 L388.7 311.3 L376.1 345.9 L379.5 362.5 L393 374 L400 372.9 L413.4 381.6 L420.3 381.2 L434.9 392.5 L443.5 377.4 L453.8 379.9 L464.4 381.1 L469.5 386.4 L482.6 390.3 z" id="territory16-border#1" fill-rule="nonzero" stroke-width="2.2px" stroke-linecap="round" stroke-linejoin="round" fill-opacity="0" style="stroke:#1D0C00;" />
            <path d="M333.3 276.3 L345.8 269.8 L349.1 265.7 L362 260.9 L368.3 261.3 L371.6 254.4 L375.5 252.5 L378.7 248.4 L392.6 242.1 L395.6 238.6 L396 235.2 L400.3 233.9 L407.2 227.3 L412.5 213.9 L439.7 191.8 L448.9 174.6 L449 170.4 L435.6 165.8 L418.9 168.3 L407.8 182.8 L407.4 188.2 L391 200.7 L384.3 201.4 L350.4 220.9 L342.5 222.4 L331.6 240.5 L333.1 243.9 L317.2 262 L329.5 270.7 L333.3 276.3 z" id="territory23-border#1" fill-rule="nonzero" stroke-width="2.2px" stroke-linecap="round" stroke-linejoin="round" fill-opacity="0" style="stroke:#1D0C00;" />
              
            <path d="M344.1 109.7 L343.7 110.8 L346.3 120.9 L345 127.1 L338.7 138.7 L332.5 145.9 L333.1 151.1 L346.2 161 L349.5 168.7 L354.9 167.8 L359.8 169.3 L380.5 133.5 L380.3 125.7 L368.9 112.8 L357.6 109.2 L344.1 109.7 z" id="Arrakeen (inner)" fill-rule="nonzero" stroke-width="1.1px" stroke-linecap="round" stroke-linejoin="round" stroke-opacity="0.3" style="fill:none;stroke:#1D0C00;" />
            <path d="M285.8 179.6 L294.6 158.5 L294.7 141.3 L291.1 134.8 L277.9 132.2 L270.5 136.5 L253.9 141.1 L260 175.3 L263 175.5 L268.8 181.9 L274.7 179.7 L285.8 179.6 z" id="Carthag (inner)" fill-rule="nonzero" stroke-width="1.1px" stroke-linecap="round" stroke-linejoin="round" stroke-opacity="0.3" style="fill:none;stroke:#1D0C00;" />
            <path d="M245.6 299.6 L238.9 312.3 L236.7 325.3 L240.3 329.3 L243.6 329.5 L250.3 336 L257.2 338.9 L265.6 337.7 L270.8 347.2 L274.8 351.1 L287.8 351.6 L298.2 344.3 L298.6 336.2 L303.2 330.5 L307.6 320.5 L315 310.2 L317.2 297.8 L310.5 288.3 L303.3 288.3 L298.9 290.2 L290.2 289.9 L285.1 284.8 L281.9 284.8 L277.8 287.9 L268.3 291.1 L256 292.2 L245.6 299.6 z" id="Polar Sink (inner)" fill-rule="nonzero" stroke-width="1.1px" stroke-linecap="round" stroke-linejoin="round" stroke-opacity="0.3" style="fill:none;stroke:#1D0C00;" />
            <path d="M231.3 273.3 L185.4 234.8 L185.5 228.2 L181.6 224.3 L179.2 213 L175.9 204.4 L177.9 200.9 L178.4 191.7 L180.2 184.8 L178.7 180.8 L184.1 169 L190.8 158.4 L193 149.6 L198 147.1 L200.8 143 L206 139.5 L208.3 133.9 L210.7 133.8 L217.9 118.7 L219.3 118.2 L219.8 109.4 L209 110.9 L199.1 119.3 L178.6 119.3 L167.1 115.5 L159.8 125.3 L150 131.2 L142.4 143.1 L132.7 171.9 L123.1 182.4 L124.7 189.9 L130.5 199.7 L130.7 205.3 L133.2 207.2 L133.7 212.4 L137.1 216 L128.4 245.5 L125 245.8 L123.8 248.3 L123.5 251 L219.3 285.8 L231.3 273.3 z" id="Plastic Basin (inner)" fill-rule="nonzero" stroke-width="1.1px" stroke-linecap="round" stroke-linejoin="round" stroke-opacity="0.3" style="fill:none;stroke:#1D0C00;" />
            <path d="M126.8 230.6 L130.7 217.5 L128.3 214.9 L127.8 210.2 L125.1 208.1 L124.9 201.3 L119.3 192 L117.5 183.5 L111.5 180.6 L93.8 196.5 L93.2 201 L88.1 210.1 L83.5 211.6 L82.5 217.1 L90.8 226.3 L94.3 226.7 L100 223.5 L113.3 229.2 L120.9 229 L126.8 230.6 z" id="Sietch Tabr (inner)" fill-rule="nonzero" stroke-width="1.1px" stroke-linecap="round" stroke-linejoin="round" stroke-opacity="0.3" style="fill:none;stroke:#1D0C00;" />
            <path d="M200.1 324.9 L186 326.3 L183.9 331.8 L173.8 336.5 L173.2 338.5 L171.8 339.7 L171.6 351.8 L172.4 354.5 L172 363.1 L156 380.6 L152.5 389.1 L154.2 390.9 L157.4 397.2 L157.6 406.4 L152.7 410.7 L153.5 420 L161.8 437.7 L163.2 451.7 L170.4 456.4 L175.4 456.4 L173.6 427.8 L183.8 416.1 L190.9 384.1 L200 339.5 L200.1 324.9 z" id="false wall west (inner)" fill-rule="nonzero" stroke-width="1.1px" stroke-linecap="round" stroke-linejoin="round" stroke-opacity="0.3" style="fill:none;stroke:#1D0C00;" />
            <path d="M445.7 447.9 L435 443 L432.8 434 L434.3 420.4 L430.9 404.2 L431.9 393.8 L419.4 384.1 L412.7 384.5 L399.4 375.9 L392.2 377.1 L380.4 367 L374.1 379.5 L366.8 379.4 L359.2 367.7 L354.1 349 L348.8 344.5 L346.8 344.6 L341.9 363.5 L329.9 362.8 L328 361.3 L328.2 370 L324.6 381.1 L338.4 404.9 L359.6 432 L374.8 446.7 L389 453.4 L398.7 464.1 L401.4 475.9 L405 481.3 L414.2 483.2 L420.1 482.8 L423.8 481.2 L424.7 478.7 L429.1 472.3 L430.7 461.6 L438.3 453.1 L445.7 447.9 z" id="false wall south (inner)" fill-rule="nonzero" stroke-width="1.1px" stroke-linecap="round" stroke-linejoin="round" stroke-opacity="0.3" style="fill:none;stroke:#1D0C00;" />
            <path d="M450.9 444 L468.4 428.4 L476.4 414.1 L476.3 402 L479.1 392.2 L468 388.9 L463.1 383.9 L453.3 382.7 L444.9 380.7 L437.7 393.4 L436.6 403.9 L440 420.1 L438.6 433.6 L439.9 439 L450.9 444 z" id="Tueks Sietch (inner)" fill-rule="nonzero" stroke-width="1.1px" stroke-linecap="round" stroke-linejoin="round" stroke-opacity="0.3" style="fill:none;stroke:#1D0C00;" />
            <path d="M334.2 272.6 L344 267.6 L347.3 263.3 L361.5 258.1 L366.5 258.4 L369.5 252.3 L373.6 250.3 L376.9 246.1 L390.9 239.7 L392.9 237.4 L393.3 233 L398.8 231.4 L404.8 225.6 L410.1 212.1 L437.5 190 L446.1 173.8 L446.1 172.4 L435.4 168.7 L420.5 170.9 L410.5 183.8 L410.1 189.7 L392.1 203.5 L385.2 204.1 L351.4 223.7 L344.2 225 L334.8 240.7 L336.4 244.4 L321.4 261.5 L331.5 268.7 L334.2 272.6 z" id="shield wall (inner)" fill-rule="nonzero" stroke-width="1.1px" stroke-linecap="round" stroke-linejoin="round" stroke-opacity="0.3" style="fill:none;stroke:#1D0C00;" />
            <path d="M331.8 334.7 L338.2 319.3 L338.1 313 L340.2 310.4 L339.4 290 L327.4 272.8 L318.2 266.2 L314.8 272.9 L305.6 281.7 L305.6 282.6 L313.4 282.5 L323.2 296.4 L320.3 312.5 L312.6 323.3 L309.1 331.2 L319.7 340 L331.8 334.7 z" id="false wall east (inner)" fill-rule="nonzero" stroke-width="1.1px" stroke-linecap="round" stroke-linejoin="round" stroke-opacity="0.3" style="fill:none;stroke:#1D0C00;" />
            <path d="M480.8 386.8 L488.9 363.7 L492.9 355.4 L493.7 342.8 L491.6 335.7 L492.6 333.9 L490.6 329 L493 318.5 L498.8 310.3 L499 306.5 L494.5 306.6 L484.1 293.4 L481.5 279.3 L485.9 267.7 L494.5 261.2 L495.3 257.4 L510.2 241.4 C507 231 503.1 220.7 498.5 210.7 L491.8 210.9 L488.2 213.6 L484.7 211.9 L475.6 218.4 L468.4 214 L453.1 218.6 L447.8 212.9 L436 213.4 L430.9 209.3 L429.3 203.9 L414.8 215.6 L409.7 228.9 L401.7 236.4 L398.6 237.4 L398.4 239.8 L394.3 244.4 L388.5 247.1 L388.5 260.1 L394.7 273.1 L395.4 295.5 L391.4 312.2 L379 346.2 L382.1 361 L393.9 371 L400.6 369.9 L414.2 378.7 L421.2 378.3 L434.1 388.3 L442.1 374.1 L454.3 377.1 L465.7 378.4 L471 383.9 L480.8 386.8 z" id="Pasty Mesa (inner)" fill-rule="nonzero" stroke-width="1.1px" stroke-linecap="round" stroke-linejoin="round" stroke-opacity="0.3" style="fill:none;stroke:#1D0C00;" />
            <path d="M343.7 219.3 L352.2 196.1 L350.5 193.3 L352.8 189.6 L351.7 183.4 L356.8 174.4 L354.5 173.6 L346 175.1 L341.5 164.6 L327.7 154.1 L326.6 144.1 L334 135.4 L339.6 125.1 L340.5 121.1 L337.9 110.7 L338.8 107.4 L335 101.9 L329.7 101.3 L320.5 94.3 L308.9 108.8 L300 129.4 L296.5 132.8 L300.4 139.8 L300.3 159.6 L290.4 183.3 L286.7 207.5 L289.3 216.6 L289.1 234.3 L291.3 236.9 L290.6 242.1 L290.7 259.7 L292.2 264.3 L289.3 281 L292.6 284.3 L297.8 284.4 L299.9 283.6 L299.9 279.3 L310.2 269.5 L314.8 260.3 L329.7 243.4 L328.4 240.3 L340.7 219.9 L343.7 219.3 z" id="territory1-inner" fill-rule="nonzero" stroke-width="1.1px" stroke-linecap="round" stroke-linejoin="round" stroke-opacity="0.3" style="fill:none;stroke:#1D0C00;" />
            <path d="M136.1 429.3 L126.3 409.7 L125.8 402.1 L123.9 397.4 L112.5 394.7 L99.7 399.2 L94.3 408 L99.4 425.7 L117.2 445.1 L136.1 429.3 z" id="habbanya sietch-inner" fill-rule="nonzero" stroke-width="1.1px" stroke-linecap="round" stroke-linejoin="round" stroke-opacity="0.3" style="fill:none;stroke:#1D0C00;" />
            <path d="M358.6 190 L364.5 185.7 L364.4 182.3 L371.9 177.8 L372.5 174 L375.8 173.8 L376.2 171.2 L384.2 157.4 L386.5 146.2 L390.7 141.1 L390.6 134.1 L387.7 137 L385 137 L357.6 184.4 L358.6 190 z" id="territory20-inner" fill-rule="nonzero" stroke-width="1.1px" stroke-linecap="round" stroke-linejoin="round" stroke-opacity="0.3" style="fill:none;stroke:#1D0C00;" />
                 
            <path d="M47 248.2 L55.4 249.7 L60.3 255 L71.3 254 L85.8 249.4 L88.5 251.2 L95.9 254.8 L99.6 258.6 L110.9 257.8 L120.5 252.9 L121 247.5 L123.1 243.1 L126.2 242.8 L128.8 234 L120.6 231.9 L112.8 232 L100.2 226.6 L94.9 229.7 L89.4 228.9 L79.5 218 L81 209.4 L86.2 207.7 L90.4 200 L91.1 195.1 L89.3 193 L84.6 192.7 L75.3 183.1 C62.4 203.7 53 225.9 47 248.2 z" id="territory32-border" fill-rule="nonzero" stroke-width="2.2px" stroke-linecap="round" stroke-linejoin="round" fill-opacity="0" style="stroke:#1D0C00;" />
            <path d="M178.4 459.3 L169.6 459.3 L160.5 453.3 L159 438.5 L150.7 420.7 L149.7 409.5 L154.7 405.1 L154.6 397.9 L151.8 392.5 L149.2 389.6 L140.1 387.4 L129.2 381.5 L123.7 381.8 L117.3 375.9 L106.3 375 L53.2 394.3 C71.3 445.4 110.7 493.5 159.8 521.3 L179.5 487.3 L183.1 466.8 L178.4 459.3 z M139.6 430 L129.1 409 L128.6 401.4 L125.9 395 L112.3 391.7 L97.8 396.8 L91.2 407.5 L96.8 427.1 L117 449 L139.6 430 z" id="territory40-border" stroke-width="2.2px" style="fill:none;stroke:#1D0C00;" />
            <path d="M243.4 297.6 L236.2 311.3 L233.7 326.2 L238.9 332 L242.4 332.3 L248.8 338.5 L256.8 341.8 L264.1 340.8 L268.6 348.9 L273.6 353.9 L288.7 354.5 L301 345.8 L301.4 337.3 L305.7 332 L310.1 321.9 L317.7 311.3 L320.2 297.1 L312 285.4 L302.7 285.5 L298.3 287.3 L291.4 287.1 L286.2 281.9 L281 281.9 L276.5 285.3 L267.7 288.3 L254.9 289.4 L243.4 297.6 z" id="territory0-border" fill-rule="nonzero" stroke-width="2.2px" stroke-linecap="round" stroke-linejoin="round" style="fill:none;stroke:#1D0C00;" />
            <path d="M257.5 178 L261.6 178.3 L267.9 185.3 L275.2 182.6 L287.6 182.5 L283.8 207.7 L286.4 217 L286.2 235.3 L288.3 237.8 L287.8 241.9 L287.9 260.2 L289.3 264.5 L286.2 281.9 L281 281.9 L276.5 285.3 L267.7 288.3 L258.4 272.1 L259.4 259.7 L257.7 254.1 L253.7 249.6 L253 232.3 L254.8 215.2 L261.7 201.4 L257.5 178 z" id="territory28-border" fill-rule="nonzero" stroke-width="2.2px" stroke-linecap="round" stroke-linejoin="round" style="fill:none;stroke:#1D0C00;" />
            <path d="M336.2 473.2 L324.9 474.3 L311 480.9 L301.1 481.1 L277.8 486.5 L245.5 486.1 L228.7 478.4 L218 479.5 L208.8 474 L210.1 462.8 L217.3 453.4 L219.7 438.3 L218 432.7 L224.5 427.7 L233.7 436.2 L263.8 439.1 L268.6 435.7 L280 435.6 L305.8 451.9 L314 446.6 L323.8 431.9 L327.9 446.4 L340.9 463.4 L336.2 473.2 z" id="territory8-border" fill-rule="nonzero" stroke-width="2.2px" stroke-linecap="round" stroke-linejoin="round" style="fill:none;stroke:#1D0C00;" />
            <path d="M267.7 288.3 L258.4 272.1 L259.4 259.7 L257.7 254.1 L253.7 249.6 L253 232.3 L254.8 215.2 L261.7 201.4 L252.9 151.8 L237.7 159.1 L233.5 156.5 L218.1 159.2 L201.2 173 L194.8 184.1 L185.6 187.3 L183.2 184.6 L181.2 192.2 L180.7 201.7 L179.1 204.6 L182 212.2 L184.2 222.9 L188.4 227 L188.3 233.5 L235.5 273.1 L254.9 289.4 L267.7 288.3 z" id="territory31-border" fill-rule="nonzero" stroke-width="2.2px" stroke-linecap="round" stroke-linejoin="round" fill-opacity="0" style="stroke:#1D0C00;" />
            <path d="M346.3 544.8 C372.2 537.6 398.2 525.6 421.6 508.9 L422 487.5 L420.8 485.6 L414 486 L403.3 483.9 L398.7 477 L396.1 465.4 L387.2 455.7 L373.2 449 L357.5 434 L336 406.5 L330.4 424.6 L323.8 431.9 L327.9 446.4 L340.9 463.4 L336.2 473.2 L337 481.3 L344.6 494.6 L346.1 510.3 L342.5 520.6 L342.6 539.1 L346.3 544.8 z" id="territory11-border" fill-rule="nonzero" stroke-width="2.2px" stroke-linecap="round" stroke-linejoin="round" fill-opacity="0" style="stroke:#1D0C00;" />
            <path d="M159.8 101.4 C126 120.8 96 149.6 75.3 183.1 L84.6 192.7 L89.3 193 L91.1 195.1 L111.1 177.2 L120 181.5 L130.2 170.5 L139.8 141.9 L148 129.2 L157.9 123.1 L166 112.1 L159.8 101.4 z" id="territory29-border" fill-rule="nonzero" stroke-width="2.2px" stroke-linecap="round" stroke-linejoin="round" fill-opacity="0" style="stroke:#1D0C00;" />
            <path d="M168.8 352.2 L157.5 346.2 L146.1 347 L138.2 344.2 L128.5 346.4 L106.7 348 L90 352.2 L71 351.3 L48.7 347.8 L41.8 350.3 C44.2 364.9 47.9 379.7 53.2 394.3 L106.3 375 L117.3 375.9 L123.7 381.8 L129.2 381.5 L140.1 387.4 L149.2 389.6 L153.5 379 L169.2 362 L169.5 354.8 L168.8 352.2 z" id="territory37-border" fill-rule="nonzero" stroke-width="2.2px" stroke-linecap="round" stroke-linejoin="round" fill-opacity="0" style="stroke:#1D0C00;" />
            <path d="M42.1 270.3 L53.5 278.2 L81.4 279.1 L96.3 283.5 L115.1 282.7 L142.5 277.2 L161 279.3 L167.4 283.5 L185.2 280 L185 276.4 L120.5 252.9 L110.9 257.8 L99.6 258.6 L95.9 254.8 L88.5 251.2 L85.8 249.4 L71.3 254 L60.3 255 L55.4 249.7 L47 248.2 C45 255.5 43.4 262.9 42.1 270.3 z" id="territory33-border" fill-rule="nonzero" stroke-width="2.2px" stroke-linecap="round" stroke-linejoin="round" fill-opacity="0" style="stroke:#1D0C00;" />
            <path d="M235.3 328 L225.7 331.5 L212.5 368.9 L213.3 388.3 L224.1 410 L264.1 340.8 L256.8 341.8 L248.8 338.5 L242.4 332.3 L238.9 332 L235.3 328 z" id="territory39-border" fill-rule="nonzero" stroke-width="2.2px" stroke-linecap="round" stroke-linejoin="round" fill-opacity="0" style="stroke:#1D0C00;" />
            <path d="M193.6 384.7 L186.5 417.4 L176.5 428.8 L178.4 459.3 L183.1 466.8 L179.5 487.3 L195.1 486.8 L208.8 474 L210.1 462.8 L217.3 453.4 L219.7 438.3 L218 432.7 L224.5 427.7 L221.1 424.6 L219.8 417.5 L224.1 410 L213.3 388.3 L212.5 368.9 L193.6 384.7 z" id="territory41-border" fill-rule="nonzero" stroke-width="2.2px" stroke-linecap="round" stroke-linejoin="round" fill-opacity="0" style="stroke:#1D0C00;" />
            <path d="M259.7 552.8 L259.8 536.1 L264.3 529.4 L259.8 515.6 L260.2 494.4 L267 486.4 L245.5 486.1 L228.7 478.4 L218 479.5 L208.8 474 L195.1 486.8 L179.5 487.3 L159.8 521.3 C191.7 539.8 226.7 550 259.7 552.8 z" id="territory9-border" fill-rule="nonzero" stroke-width="2.2px" stroke-linecap="round" stroke-linejoin="round" fill-opacity="0" style="stroke:#1D0C00;" />
            <path d="M336.2 473.2 L324.9 474.3 L311 480.9 L301.1 481.1 L277.8 486.5 L267 486.4 L260.2 494.4 L259.8 515.6 L264.3 529.4 L259.8 536.1 L259.7 552.8 C268.3 553.6 276.8 553.9 285.2 553.7 C304.8 553.4 325.5 550.6 346.3 544.8 L342.6 539.1 L342.5 520.6 L346.1 510.3 L344.6 494.6 L337 481.3 L336.2 473.2 z" id="territory10-border" fill-rule="nonzero" stroke-width="2.2px" stroke-linecap="round" stroke-linejoin="round" fill-opacity="0" style="stroke:#1D0C00;" />
            <path d="M224.1 410 L219.8 417.5 L221.1 424.6 L233.7 436.2 L263.8 439.1 L268.6 435.7 L280 435.6 L305.8 451.9 L314 446.6 L323.8 431.9 L330.4 424.6 L336 406.5 L301 345.8 L288.7 354.5 L273.6 353.9 L268.6 348.9 L264.1 340.8 L224.1 410 z" id="territory7-border" fill-rule="nonzero" stroke-width="2.2px" stroke-linecap="round" stroke-linejoin="round" fill-opacity="0" style="stroke:#1D0C00;" />
            <path d="M321.6 381.5 L325.3 369.6 L325 357.5 L327.5 357.4 L330.9 360.1 L339.7 360.6 L344.6 342 L334 336.9 L319.2 343.4 L305.7 332 L301.4 337.3 L301 345.8 L321.6 381.5 z" id="territory12-border" fill-rule="nonzero" stroke-width="2.2px" stroke-linecap="round" stroke-linejoin="round" fill-opacity="0" style="stroke:#1D0C00;" />
            <path d="M212.5 368.9 L225.7 331.5 L235.3 328 L233.7 326.2 L236.2 311.3 L243.4 297.6 L254.9 289.4 L235.5 273.1 L220 289.1 L216.8 300.7 L205.6 311.3 L203 321.8 L202.8 339.8 L193.6 384.7 L212.5 368.9 z" id="territory35-border" fill-rule="nonzero" stroke-width="2.2px" stroke-linecap="round" stroke-linejoin="round" fill-opacity="0" style="stroke:#1D0C00;" />
            <path d="M344.6 342 L349.8 341.5 L356.7 347.4 L361.8 366.5 L368.4 376.5 L372.4 376.6 L379.5 362.5 L376.1 345.9 L388.7 311.3 L392.5 295.2 L391.9 273.8 L385.7 260.7 L385.6 245.2 L378.7 248.4 L375.5 252.5 L371.6 254.4 L368.3 261.3 L362 260.9 L349.1 265.7 L345.8 269.8 L333.3 276.3 L342.2 289.1 L343 311.3 L341 314 L341 319.9 L334 336.9 L344.6 342 z" id="territory15-border" fill-rule="nonzero" stroke-width="2.2px" stroke-linecap="round" stroke-linejoin="round" fill-opacity="0" style="stroke:#1D0C00;" />
            <path d="M421.6 508.9 C454.2 486 481.1 453.8 498.4 418.7 C515.8 383.7 523.6 345.7 523.5 311.3 L501.6 311.3 L495.6 319.7 L493.6 328.8 L495.7 334.1 L494.6 336 L496.5 342.4 L495.8 356.2 L491.5 364.8 L482.6 390.3 L479.1 402.4 L479.3 414.8 L470.7 430.2 L451.4 447.4 L440.2 455.2 L433.4 462.8 L431.8 473.4 L427.2 480 L426 483.3 L420.8 485.6 L422 487.5 L421.6 508.9 z" id="territory18-border" fill-rule="nonzero" stroke-width="2.2px" stroke-linecap="round" stroke-linejoin="round" fill-opacity="0" style="stroke:#1D0C00;" />
            <path d="M185 276.4 L185.2 280 L167.4 283.5 L161 279.3 L142.5 277.2 L115.1 282.7 L96.3 283.5 L81.4 279.1 L53.5 278.2 L42.1 270.3 C39.7 284.2 38.6 298 38.6 311.3 L205.6 311.3 L216.8 300.7 L220 289.1 L185 276.4 z" id="territory34-border" fill-rule="nonzero" stroke-width="2.2px" stroke-linecap="round" stroke-linejoin="round" fill-opacity="0" style="stroke:#1D0C00;" />
            <path d="M449 170.4 L448.9 174.6 L439.7 191.8 L430.8 199 L433.3 207.7 L437 210.5 L449 210 L453.9 215.4 L468.8 210.9 L475.4 215 L484.4 208.6 L487.8 210.3 L490.8 208.1 L500.3 207.8 C491.6 189.4 480.3 171.6 466.8 155.5 L449 170.4 z" id="territory24-border" fill-rule="nonzero" stroke-width="2.2px" stroke-linecap="round" stroke-linejoin="round" fill-opacity="0" style="stroke:#1D0C00;" />
            <path d="M418.9 168.3 L424.2 161.4 L424 152 L415 153 L405 158.9 L397.6 160.1 L388.7 164.5 L383.7 163.9 L378.9 172.2 L378.2 176.5 L375 176.7 L374.5 179.6 L367.3 183.9 L367.4 187.2 L355.3 195.8 L345.8 221.8 L350.4 220.9 L384.3 201.4 L391 200.7 L407.4 188.2 L407.8 182.8 L418.9 168.3 z" id="territory21-border" fill-rule="nonzero" stroke-width="2.2px" stroke-linecap="round" stroke-linejoin="round" fill-opacity="0" style="stroke:#1D0C00;" />
            <path d="M383.7 163.9 L388.7 164.5 L397.6 160.1 L405 158.9 L415 153 L424 152 L428.3 143.7 L442.7 130.6 C434.1 123 425 115.9 415.5 109.6 L404.1 126.1 L393.5 132.1 L393.5 142.1 L389.1 147.4 L386.9 158.4 L383.7 163.9 z" id="territory19-border" fill-rule="nonzero" stroke-width="2.2px" stroke-linecap="round" stroke-linejoin="round" style="fill:none;stroke:#1D0C00;" />
            <path d="M345.8 221.8 L355.3 195.8 L353.8 193.3 L355.8 190.1 L354.6 183.9 L361.1 172.7 L354.7 170.7 L347.7 171.9 L343.9 162.8 L330.4 152.6 L329.5 145 L336.4 137.1 L342.3 126.1 L343.4 121 L340.8 110.7 L341.9 106.9 L336.6 99.3 L330.8 98.6 L320 90.4 L306.4 107.4 L297.6 127.7 L292.9 132.2 L297.6 140.5 L297.5 159 L287.6 182.5 L283.8 207.7 L286.4 217 L286.2 235.3 L288.3 237.8 L287.8 241.9 L287.9 260.2 L289.3 264.5 L286.2 281.9 L291.4 287.1 L298.3 287.3 L302.7 285.5 L302.7 280.5 L312.5 271.2 L317.2 262 L333.1 243.9 L331.6 240.5 L342.5 222.4 L345.8 221.8 z" id="territory1-border" fill-rule="nonzero" stroke-width="2.2px" stroke-linecap="round" stroke-linejoin="round" style="fill:none;stroke:#1D0C00;" />
            <path d="M320 90.4 L305 86.7 L290.7 89.5 L286.1 94.3 L266.5 93.1 L243.5 98.2 L223.8 105.9 L222.6 109.6 L222.1 120.2 L220 121 L212.6 136.5 L210.3 136.6 L208.3 141.4 L202.9 145.1 L199.9 149.3 L195.4 151.5 L193.4 159.5 L186.6 170.4 L181.8 180.9 L183.2 184.6 L185.6 187.3 L194.8 184.1 L201.2 173 L218.1 159.2 L233.5 156.5 L237.7 159.1 L252.9 151.8 L250.7 139.1 L269.4 133.8 L277.5 129.2 L292.9 132.2 L297.6 127.7 L306.4 107.4 z" id="territory27-border" fill-rule="nonzero" stroke-width="2.2px" stroke-linecap="round" stroke-linejoin="round" fill-opacity="0" style="stroke:#1D0C00;" />
            <path d="M320 90.4 L330.8 98.6 L336.6 99.3 L341.9 106.9 L358 106.3 L370.6 110.3 L383.1 124.6 L383.3 134.2 L386.5 134.2 L390.2 130.6 L393.5 132.1 L404.1 126.1 L415.5 109.6 C380.6 86.2 340.6 73.2 303.3 69.9 L303.3 79.1 L297.8 88.1 L305 86.7 L320 90.4 z" id="territory25-border" fill-rule="nonzero" stroke-width="2.2px" stroke-linecap="round" stroke-linejoin="round" fill-opacity="0" style="stroke:#1D0C00;" />
            <path d="M166 112.1 L179 116.4 L198.1 116.4 L207.8 108.2 L223.8 105.9 L243.5 98.2 L266.5 93.1 L286.1 94.3 L290.7 89.5 L297.8 88.1 L303.3 79.1 L303.3 69.9 C294.4 69.1 285.6 68.8 277 68.9 C239.3 69.5 197.5 79.5 159.8 101.4 L166 112.1 z" id="territory26-border" fill-rule="nonzero" stroke-width="2.2px" stroke-linecap="round" stroke-linejoin="round" fill-opacity="0" style="stroke:#1D0C00;" />
            <path d="M41.8 350.3 L48.7 347.8 L71 351.3 L90 352.2 L106.7 348 L128.5 346.4 L138.2 344.2 L146.1 347 L157.5 346.2 L168.8 352.2 L169 338.4 L170.7 336.9 L171.4 334.5 L181.7 329.7 L184 323.6 L203 321.8 L205.6 311.3 L38.6 311.3 L38.7 315.4 C38.9 326.8 39.9 338.5 41.8 350.3 z" id="territory36-border" fill-rule="nonzero" stroke-width="2.2px" stroke-linecap="round" stroke-linejoin="round" fill-opacity="0" style="stroke:#1D0C00;" />
            <path d="M523.5 307.3 C523.1 286.3 520 264.2 513.4 242.2 L497.9 258.8 L497 262.8 L488.2 269.5 L484.5 279.6 L486.8 292.2 L495.9 303.7 L502.1 303.7 L501.6 311.3 L523.5 311.3 L523.5 307.3 z" id="territory17-border" fill-rule="nonzero" stroke-width="2.2px" stroke-linecap="round" stroke-linejoin="round" fill-opacity="0" style="stroke:#1D0C00;" />
            <path d="M418.9 168.3 L435.6 165.8 L449 170.4 L466.8 155.5 C459.4 146.7 451.3 138.3 442.7 130.6 L428.3 143.7 L424 152 L424.2 161.4 L418.9 168.3 z" id="territory22-border" fill-rule="nonzero" stroke-width="2.2px" stroke-linecap="round" stroke-linejoin="round" fill-opacity="0" style="fill:#C33232;stroke:#1D0C00;" />
		  
      </g>
	  
        <g id="Sectors">
		
	        <!--Sector Lines-->
			<g fill-rule="nonzero" stroke-width="1.4px" stroke-dasharray="5.6 1.4 0 0" opacity="0.3" style="fill:none;stroke:black;">
                <path d="M243.4 297.6 L42.7 224.6"/>
                <path d="M254.9 289.4 L89.4 150.5"/>
                <path d="M267.7 288.3 L155.2 93.4"/>
                <path d="M276.5 285.3 L237.4 63.6"/>
                <path d="M286.2 281.9 L324.2 66.6"/>
                <path d="M312 285.4 L472.1 151"/>
                <path d="M320.2 297.1 L515.8 225.9"/>
                <path d="M317.7 311.3 L527.6 311.3"/>
                <path d="M305.7 332 L472.1 471.7"/>
                <path d="M301 345.8 L406.2 528.1"/>
                <path d="M288.7 354.5 L324.3 556.6"/>
                <path d="M264.1 340.8 L155.9 528.1"/>
                <path d="M248.8 338.5 L89.4 472.2"/>
                <path d="M235.3 328 L46.2 396.8"/>
                <path d="M310.1 321.9 L515.8 396.8"/>
                <path d="M236.2 311.3 L32.1 311.3"/>
                <path d="M273.6 353.9 L237.9 556"/>
                <path d="M295 287.2 L406.3 94.4"/>
	        </g>
			
	        <!--Sector Line Ends-->
			<g fill-rule="nonzero" style="fill:#FCF9D1;">
                <path d="M26.4 301.9 L30.2 306 L34.3 302.2 L32.9 300.7 L30.3 303.1 L27.9 300.5 L26.4 301.9 z"/>
                <path d="M79.9 467.8 L85.5 468.5 L86.2 462.9 L84.1 462.7 L83.7 466.2 L80.2 465.8 L79.9 467.8 z"/>
                <path d="M400.2 536.6 L401.9 531.2 L396.5 529.6 L395.9 531.6 L399.3 532.6 L398.3 536 L400.2 536.6 z"/>
                <path d="M216 557.7 L220.9 554.9 L218 550.1 L216.3 551.1 L218 554.2 L215 555.9 L216 557.7 z"/>
                <path d="M221.8 559.2 L226.5 556.2 L223.6 551.5 L221.9 552.5 L223.7 555.6 L220.7 557.4 L221.8 559.2 z"/>
                <path d="M246.1 58.9 L242.8 63.4 L247.2 66.8 L248.5 65.1 L245.6 63 L247.8 60.2 L246.1 58.9 z"/>
                <path d="M45 215.4 L47.2 220.5 L52.3 218.4 L51.5 216.5 L48.3 217.9 L46.9 214.6 L45 215.4 z"/>
                <path d="M92.1 140.4 L92.4 146 L97.9 145.7 L97.8 143.7 L94.3 143.9 L94.1 140.3 L92.1 140.4 z"/>
                <path d="M161.9 86.1 L160.3 91.5 L165.6 93.1 L166.2 91.1 L162.8 90.1 L163.9 86.7 L161.9 86.1 z"/>
                <path d="M334.6 62.2 L329.9 65.3 L332.9 70 L334.6 68.8 L332.7 65.9 L335.7 63.9 L334.6 62.2 z"/>
                <path d="M416.6 95.5 L411.1 96.8 L412.4 102.2 L414.4 101.8 L413.6 98.3 L417 97.5 L416.6 95.5 z"/>
                <path d="M482.2 154.9 L476.6 154.2 L476 159.8 L478 160 L478.4 156.5 L481.9 156.9 L482.2 154.9 z"/>
                <path d="M535.7 320.8 L531.9 316.7 L527.8 320.5 L529.2 322 L531.8 319.6 L534.2 322.2 L535.7 320.8 z"/>
                <path d="M517.1 407.3 L514.9 402.1 L509.8 404.3 L510.6 406.2 L513.9 404.8 L515.2 408.1 L517.1 407.3 z"/>
                <path d="M470.1 482.2 L469.8 476.7 L464.2 477 L464.3 479 L467.8 478.8 L468 482.4 L470.1 482.2 z"/>
                <path d="M523.6 233.1 L518.6 230.6 L516 235.6 L517.9 236.5 L519.5 233.3 L522.6 234.9 L523.6 233.1 z"/>
                <path d="M316 563.8 L319.4 559.3 L314.9 555.9 L313.7 557.6 L316.5 559.7 L314.4 562.5 L316 563.8 z"/>
                <path d="M227.6 560.5 L232.3 557.4 L229.2 552.7 L227.5 553.9 L229.4 556.8 L226.4 558.8 L227.6 560.5 z"/>
                <path d="M145.6 527.2 L151 525.9 L149.8 520.4 L147.8 520.9 L148.6 524.4 L145.1 525.2 L145.6 527.2 z"/>
                <path d="M38.6 389.6 L43.5 392.1 L46.1 387.1 L44.3 386.2 L42.6 389.4 L39.5 387.7 L38.6 389.6 z"/>
			</g>
				
			<g stroke-width="2.04px" stroke-linecap="square" stroke-linejoin="bevel" stroke-miterlimit="1.5" style="fill:none;stroke:#222222;">
                <path d="M509.6 228.2 L524.5 222.7"/>
                <path d="M467.4 155.1 L479.5 144.9"/>
                <path d="M402.7 100.8 L410.6 87.1"/>
                <path d="M323.4 71.9 L326.1 56.3"/>
                <path d="M238.9 72 L236.2 56.4"/>
                <path d="M159.6 100.9 L151.7 87.1"/>
                <path d="M94.9 155.1 L82.8 144.9"/>
                <path d="M52.8 228.2 L37.9 222.8"/>
                <path d="M38.1 311.4 L22.3 311.4"/>
                <path d="M52.8 394.5 L37.9 399.9"/>
                <path d="M95 467.6 L82.9 477.8"/>
                <path d="M239 550.7 L236.3 566.3"/>
                <path d="M323.4 550.7 L326.2 566.3"/>
                <path d="M402.8 521.8 L410.7 535.6"/>
                <path d="M467.4 467.6 L479.6 477.7"/>
                <path d="M509.6 394.4 L524.5 399.9"/>
                <path d="M524.3 311.3 L540.1 311.3"/>
                <path d="M159.7 521.9 L151.8 535.6"/>
		    </g>
				
		    <!--Storm Start-->
		    <text transform="rotate(24.5, 167, 537.5)" x="167" y="537.5" style="fill:white;fill-opacity:1;">Storm</text>
            <text transform="rotate(19.5, 190, 548)" x="190" y="548" style="fill:white;fill-opacity:1;">Start</text>
		
		    <!--Outer Circle-->
            <path d="M523.5 307.3 C523 278.7 517.3 247.9 504.9 218.3 C492.6 188.7 473.6 160.3 449.6 137 C425.6 113.8 396.5 95.8 366.5 84.5 C336.5 73.1 305.5 68.4 277 68.9 C248.5 69.4 217.7 75.1 188 87.5 C158.4 99.8 130 118.8 106.8 142.8 C83.5 166.8 65.5 195.9 54.2 225.9 C42.8 255.9 38.1 286.9 38.7 315.4 C39.1 343.9 44.8 374.8 57.2 404.4 C69.5 434 88.5 462.4 112.6 485.6 C136.6 508.9 165.6 526.9 195.6 538.2 C225.7 549.6 256.6 554.3 285.2 553.7 C313.7 553.3 344.5 547.6 374.1 535.2 C403.7 522.9 432.1 503.9 455.4 479.9 C478.6 455.8 496.6 426.8 508 396.8 C519.3 366.7 524 335.8 523.5 307.3 z" id="rand_cirkel" stroke-width="2.2px" stroke-linecap="round" stroke-linejoin="round" fill-opacity="0" style="fill:#C33232;stroke:#1D0C00;" />

      </g>
	  
        <g id="Names" style="fill:rgb(0,0,0);fill-opacity:1;">
              
            <text x="198" y="217.8">Hagga Basin</text>              
            <text x="84.3" y="271">Funeral Plain</text>               
            <text x="106" y="298.4">The Great Flat</text>               
            <text x="74.1" y="330.2" transform="rotate(0.5948393, 74.1, 330.2)">The Greater Flat</text>               
            <text x="84.4" y="364.9" transform="rotate(0.5948393, 84.4, 364.9)">Habbanya Erg</text> 
            <text x="256.7" y="316.3">Polar Sink</text>
            <text x="328.6" y="336.7" transform="rotate(-89, 328.6, 336.7)">False Wall East</text> 
            <text x="255.9" y="237.6" transform="rotate(0.5948393, 255.9, 237.6)">Arsunt</text> 
            <text x="357.9" y="225.9">Shield Wall</text> 
            <text x="420.9" y="299.8">Pasty Mesa</text> 
            <text x="352" y="411.1">False Wall South</text> 
            <text x="457.9" y="466.4" transform="rotate(-53, 457.9, 466.4)">South Mesa</text> 
            <text x="346.6" y="486.5">Cielago East</text> 
            <text x="236.8" y="464.9">Cielago Depression</text> 
            <text x="248" y="412.4">Cielago North</text> 
            <text x="274.6" y="515.3">Cielago South</text> 
            <text x="203.2" y="513.8">Meridian</text> 
            <text x="443.8" y="193.9">Gara Kulon</text> 
            <text x="429.7" y="157.1">Sihaya</text><text x="431.1" y="163.7">Ridge</text> 
            <text x="360.5" y="207.5" transform="rotate(-40, 360.5, 207.5)">Hole In The Rock</text> 
            <text x="361.9" y="188.4" transform="rotate(-60, 361.9, 188.4)">Rim Wall West</text> 
            <text x="340.2" y="139.7">Arrakeen</text> 
            <text x="405.6" y="135.1">Basin</text> 
            <text x="351.3" y="100.2">Old Gap</text> 
            <text x="216.7" y="87.2">Broken Land</text> 
            <text x="239.3" y="121.7">Tsimpo</text> 
            <text x="258" y="158.4">Carthag</text> 
            <text x="99.8" y="168" transform="rotate(-45, 99.8, 168)">Rock Outcroppings</text> 
            <text x="137.6" y="194.7">Plastic</text><text x="141.2" y="202.3">Basin</text> 
            <text x="94.7" y="212.2" transform="rotate(0.5948393, 94.7, 212.2)">Sietch</text><text x="98" y="220.3" transform="rotate(0.5948393, 98, 220.3)">Tabr</text> 
            <text x="55" y="232.8" transform="rotate(0.5948393, 55.8, 232.8)">Bight of</text><text x="54.3" y="240.5" transform="rotate(0.5948393, 54.3, 240.5)">the Cliff</text> 
            <text x="210.8" y="316.9" transform="rotate(0.5948393, 210.8, 316.9)">Wind</text><text x="211.5" y="324.5" transform="rotate(0.5948393, 211.5, 324.5)">Pass</text> 
            <text x="346.7" y="309" transform="rotate(0.5948393, 346.7, 309)">The Minor</text><text x="358.6" y="317.2" transform="rotate(0.5948393, 358.6, 317.2)">Erg</text> 
            <text x="306.1" y="348.7" transform="rotate(0.5948393, 306.1, 348.7)">Harg</text><text x="308.3" y="356.2" transform="rotate(0.5948393, 308.3, 356.2)">Pass</text> 
            <text x="220.5" y="358.8" transform="rotate(0.5948393, 220.5, 358.8)">Wind</text><text x="221.1" y="366.3" transform="rotate(0.5948393, 221.1, 366.3)">Pass</text><text x="217.8" y="373.9" transform="rotate(0.5948393, 217.8, 373.9)">North</text> 
            <text x="164.6" y="379.8" transform="rotate(0.5948393, 164.6, 379.8)">False</text><text x="165.3" y="387.3" transform="rotate(0.5948393, 165.3, 387.3)">Wall</text><text x="164.9" y="394.7" transform="rotate(0.5948393, 164.9, 394.7)">West</text> 
            <text x="185.4" y="429.4" transform="rotate(0.5948393, 185.4, 429.4)">Cielago</text><text x="190.2" y="436.8" transform="rotate(0.5948393, 190.2, 436.8)">West</text> 
            <text x="97.5" y="424.1" transform="rotate(0.5948393, 97.3, 424.1)">Habbanya</text><text x="103.9" y="432" transform="rotate(0.5948393, 103.9, 432)">Sietch</text> 
            <text x="102.1" y="457.2">Habbanya</text><text x="101.1" y="464.5">Ridge Flat</text> 
            <text x="443" y="412.8" transform="rotate(0.5948393, 443, 412.8)">Tuek's</text><text x="442.9" y="420.6" transform="rotate(0.5948393, 442.9, 420.6)">Sietch</text> 
            <text x="498.8" y="270.6" transform="rotate(0.5948393, 498.8, 270.6)">Red</text><text x="493.3" y="278.5" transform="rotate(0.5948393, 493.3, 278.5)">Chasm</text> 
            <text x="303.1" y="195.2" transform="rotate(0.5948393, 303.1, 195.2)">Imperial</text><text x="308.2" y="203" transform="rotate(0.5948393, 308.2, 203)">Basin</text> 
              
      </g>
	  
        <g id="Icons">

          <path d="M272.7 138.7 L272.7 136.8 L272.2 136.8 L272.2 138.7 C271.8 138.9 271.4 139.7 271.4 140.9 L270.9 140.9 L270.9 147.8 L269.7 147.8 L269.7 145 L269 145 L268 142.7 L267 145 L266.2 145 L266.2 149.8 L264.7 149.8 L264.7 151.5 L284.7 151.5 L284.7 149.8 L283.8 149.8 L283.8 146.1 L283.1 146.1 C283.1 145.2 282.5 144.6 281.9 144.6 C281.3 144.6 280.8 145.2 280.8 146.1 L280.2 146.1 C280.2 145.2 279.6 144.6 279 144.6 C278.4 144.7 277.8 145.2 277.8 146.1 L277.1 146.1 L277.1 147.4 L275.2 147.4 L275.2 143.5 L274 143.5 L274 140.9 L273.4 140.9 C273.4 139.7 273.1 138.9 272.7 138.7 z" fill-rule="nonzero" fill-opacity="0.95" style="fill:#1A0B00;" />
          <path d="M272.8 136.3 L272.8 136.3 L272.9 136.4 L272.9 136.4 L273 136.4 L273 136.5 L273.1 136.5 L273.1 136.5 L273.2 136.6 L273.2 136.7 L273.2 136.7 L273.2 136.8 L273.2 136.8 L273.2 138.5 L273.2 138.5 L273.3 138.5 L273.3 138.6 L273.4 138.6 L273.4 138.7 L273.5 138.8 L273.5 138.8 L273.5 138.9 L273.6 139 L273.6 139.1 L273.6 139.1 L273.7 139.2 L273.7 139.3 L273.7 139.4 L273.8 139.5 L273.8 139.5 L273.8 139.6 L273.8 139.7 L273.8 139.8 L273.9 139.9 L273.9 140 L273.9 140.1 L273.9 140.2 L273.9 140.3 L273.9 140.4 L274 140.4 L274.1 140.4 L274.1 140.4 L274.2 140.4 L274.2 140.4 L274.3 140.5 L274.3 140.5 L274.4 140.5 L274.4 140.6 L274.4 140.6 L274.5 140.7 L274.5 140.8 L274.5 140.8 L274.5 140.9 L274.5 143 L275.2 143 L275.3 143 L275.3 143 L275.4 143 L275.4 143 L275.5 143.1 L275.5 143.1 L275.6 143.1 L275.6 143.2 L275.6 143.2 L275.7 143.3 L275.7 143.4 L275.7 143.4 L275.7 143.5 L275.7 146.9 L276.6 146.9 L276.6 146.1 L276.6 146 L276.6 146 L276.6 145.9 L276.6 145.9 L276.7 145.8 L276.7 145.8 L276.8 145.7 L276.8 145.7 L276.9 145.6 L276.9 145.6 L277 145.6 L277 145.6 L277.1 145.6 L277.4 145.6 L277.4 145.5 L277.4 145.5 L277.4 145.5 L277.4 145.4 L277.4 145.4 L277.4 145.3 L277.5 145.3 L277.5 145.2 L277.5 145.2 L277.5 145.2 L277.5 145.1 L277.6 145.1 L277.6 145 L277.6 145 L277.6 145 L277.6 144.9 L277.7 144.9 L277.7 144.8 L277.7 144.8 L277.8 144.7 L277.9 144.6 L277.9 144.6 L278 144.5 L278 144.5 L278.1 144.4 L278.2 144.4 L278.3 144.3 L278.3 144.3 L278.4 144.3 L278.5 144.2 L278.5 144.2 L278.6 144.2 L278.6 144.2 L278.6 144.2 L278.7 144.2 L278.7 144.2 L278.8 144.2 L278.8 144.2 L278.8 144.1 L278.9 144.1 L278.9 144.1 L279 144.1 L279 144.1 L279 144.1 L279.1 144.1 L279.1 144.2 L279.2 144.2 L279.2 144.2 L279.3 144.2 L279.3 144.2 L279.3 144.2 L279.4 144.2 L279.4 144.2 L279.5 144.2 L279.5 144.2 L279.5 144.3 L279.6 144.3 L279.6 144.3 L279.7 144.3 L279.7 144.3 L279.7 144.3 L279.8 144.4 L279.8 144.4 L279.8 144.4 L279.9 144.4 L279.9 144.5 L279.9 144.5 L280 144.5 L280 144.5 L280 144.6 L280.1 144.6 L280.1 144.6 L280.1 144.7 L280.2 144.7 L280.2 144.7 L280.2 144.8 L280.2 144.8 L280.3 144.8 L280.3 144.9 L280.3 144.9 L280.3 144.9 L280.4 145 L280.4 145 L280.4 145.1 L280.4 145.1 L280.4 145.1 L280.5 145.2 L280.5 145.2 L280.5 145.1 L280.5 145.1 L280.5 145 L280.6 145 L280.6 145 L280.6 144.9 L280.6 144.9 L280.6 144.8 L280.7 144.8 L280.8 144.7 L280.8 144.6 L280.9 144.6 L280.9 144.5 L281 144.5 L281.1 144.4 L281.1 144.4 L281.2 144.3 L281.3 144.3 L281.4 144.3 L281.4 144.2 L281.5 144.2 L281.5 144.2 L281.5 144.2 L281.6 144.2 L281.6 144.2 L281.7 144.2 L281.7 144.2 L281.8 144.2 L281.8 144.1 L281.8 144.1 L281.9 144.1 L281.9 144.1 L282 144.1 L282 144.1 L282 144.1 L282.1 144.2 L282.1 144.2 L282.2 144.2 L282.2 144.2 L282.3 144.2 L282.3 144.2 L282.3 144.2 L282.4 144.2 L282.4 144.2 L282.5 144.2 L282.5 144.3 L282.5 144.3 L282.6 144.3 L282.6 144.3 L282.6 144.3 L282.7 144.3 L282.7 144.4 L282.8 144.4 L282.8 144.4 L282.8 144.4 L282.9 144.5 L282.9 144.5 L282.9 144.5 L283 144.5 L283 144.6 L283 144.6 L283.1 144.6 L283.1 144.7 L283.1 144.7 L283.1 144.7 L283.2 144.8 L283.2 144.8 L283.2 144.8 L283.2 144.9 L283.3 144.9 L283.3 144.9 L283.3 145 L283.3 145 L283.4 145.1 L283.4 145.1 L283.4 145.1 L283.4 145.2 L283.4 145.2 L283.5 145.3 L283.5 145.3 L283.5 145.4 L283.5 145.4 L283.5 145.5 L283.5 145.5 L283.5 145.5 L283.6 145.6 L283.8 145.6 L283.9 145.6 L283.9 145.6 L284 145.6 L284 145.6 L284.1 145.7 L284.1 145.7 L284.2 145.8 L284.2 145.8 L284.3 145.9 L284.3 145.9 L284.3 146 L284.3 146 L284.3 146.1 L284.3 149.3 L284.7 149.3 L284.8 149.3 L284.9 149.3 L284.9 149.3 L285 149.4 L285 149.4 L285.1 149.4 L285.1 149.5 L285.1 149.5 L285.2 149.6 L285.2 149.6 L285.2 149.7 L285.2 149.7 L285.2 149.8 L285.2 151.5 L285.2 151.6 L285.2 151.7 L285.2 151.7 L285.2 151.8 L285.1 151.8 L285.1 151.9 L285.1 151.9 L285 152 L285 152 L284.9 152 L284.9 152 L284.8 152 L284.7 152 L264.7 152 L264.6 152 L264.6 152 L264.5 152 L264.5 152 L264.4 152 L264.4 151.9 L264.3 151.9 L264.3 151.8 L264.3 151.8 L264.2 151.7 L264.2 151.7 L264.2 151.6 L264.2 151.5 L264.2 149.8 L264.2 149.7 L264.2 149.7 L264.2 149.6 L264.3 149.6 L264.3 149.5 L264.3 149.5 L264.4 149.4 L264.4 149.4 L264.5 149.4 L264.5 149.3 L264.6 149.3 L264.6 149.3 L264.7 149.3 L265.7 149.3 L265.7 145 L265.7 144.9 L265.7 144.9 L265.8 144.8 L265.8 144.8 L265.8 144.7 L265.9 144.7 L265.9 144.6 L265.9 144.6 L266 144.5 L266.1 144.5 L266.1 144.5 L266.2 144.5 L266.2 144.5 L266.7 144.5 L267.5 142.5 L267.6 142.4 L267.6 142.4 L267.6 142.3 L267.7 142.3 L267.7 142.3 L267.8 142.2 L267.8 142.2 L267.9 142.2 L268 142.2 L268 142.2 L268.1 142.2 L268.1 142.2 L268.2 142.2 L268.3 142.3 L268.3 142.3 L268.3 142.3 L268.4 142.4 L268.4 142.4 L268.4 142.5 L269.3 144.5 L269.7 144.5 L269.8 144.5 L269.9 144.5 L269.9 144.5 L270 144.5 L270 144.6 L270.1 144.6 L270.1 144.7 L270.2 144.7 L270.2 144.8 L270.2 144.8 L270.2 144.9 L270.2 144.9 L270.2 145 L270.2 147.3 L270.4 147.3 L270.4 140.9 L270.4 140.8 L270.4 140.8 L270.4 140.7 L270.4 140.6 L270.5 140.6 L270.5 140.5 L270.5 140.5 L270.6 140.5 L270.6 140.4 L270.7 140.4 L270.8 140.4 L270.8 140.4 L270.9 140.4 L271 140.4 L271 140.3 L271 140.2 L271 140.1 L271 140 L271 139.9 L271 139.8 L271.1 139.7 L271.1 139.6 L271.1 139.5 L271.1 139.4 L271.2 139.4 L271.2 139.3 L271.2 139.2 L271.2 139.1 L271.3 139 L271.3 139 L271.3 138.9 L271.4 138.8 L271.4 138.8 L271.5 138.7 L271.5 138.6 L271.6 138.6 L271.6 138.5 L271.7 138.5 L271.7 138.5 L271.7 136.8 L271.7 136.8 L271.7 136.7 L271.7 136.7 L271.7 136.6 L271.8 136.5 L271.8 136.5 L271.8 136.5 L271.9 136.4 L271.9 136.4 L272 136.4 L272 136.3 L272.1 136.3 L272.2 136.3 L272.7 136.3 L272.8 136.3 z M272.2 136.8 L272.2 138.7 L272.1 138.7 L272.1 138.7 L272.1 138.8 L272 138.8 L272 138.8 L272 138.9 L271.9 138.9 L271.9 139 L271.9 139 L271.8 139.1 L271.8 139.1 L271.8 139.2 L271.7 139.2 L271.7 139.3 L271.7 139.4 L271.7 139.4 L271.6 139.5 L271.6 139.6 L271.6 139.7 L271.6 139.7 L271.5 139.8 L271.5 139.9 L271.5 140 L271.5 140.1 L271.5 140.2 L271.5 140.3 L271.5 140.4 L271.4 140.5 L271.4 140.6 L271.4 140.7 L271.4 140.8 L271.4 140.9 L270.9 140.9 L270.9 147.8 L269.7 147.8 L269.7 145 L269 145 L268 142.7 L267 145 L266.2 145 L266.2 149.8 L264.7 149.8 L264.7 151.5 L284.7 151.5 L284.7 149.8 L283.8 149.8 L283.8 146.1 L283.1 146.1 L283.1 146 L283.1 146 L283.1 146 L283.1 145.9 L283.1 145.9 L283.1 145.8 L283.1 145.8 L283.1 145.8 L283.1 145.7 L283.1 145.7 L283.1 145.7 L283 145.6 L283 145.6 L283 145.6 L283 145.5 L283 145.5 L283 145.5 L283 145.4 L283 145.4 L283 145.4 L282.9 145.3 L282.9 145.3 L282.9 145.3 L282.9 145.2 L282.9 145.2 L282.9 145.2 L282.8 145.2 L282.8 145.1 L282.8 145.1 L282.8 145.1 L282.8 145.1 L282.7 145 L282.7 145 L282.7 145 L282.7 145 L282.7 144.9 L282.6 144.9 L282.6 144.9 L282.6 144.9 L282.6 144.9 L282.5 144.8 L282.5 144.8 L282.5 144.8 L282.5 144.8 L282.4 144.8 L282.4 144.8 L282.4 144.8 L282.4 144.7 L282.3 144.7 L282.3 144.7 L282.3 144.7 L282.3 144.7 L282.2 144.7 L282.2 144.7 L282.2 144.7 L282.1 144.7 L282.1 144.7 L282.1 144.7 L282.1 144.7 L282 144.6 L282 144.6 L282 144.6 L282 144.6 L281.9 144.6 L281.9 144.6 L281.9 144.6 L281.8 144.6 L281.8 144.7 L281.8 144.7 L281.8 144.7 L281.7 144.7 L281.7 144.7 L281.7 144.7 L281.7 144.7 L281.6 144.7 L281.6 144.7 L281.6 144.7 L281.5 144.7 L281.5 144.8 L281.4 144.8 L281.4 144.8 L281.3 144.9 L281.3 144.9 L281.2 144.9 L281.2 145 L281.1 145 L281.1 145.1 L281.1 145.1 L281 145.2 L281 145.2 L281 145.2 L281 145.2 L281 145.3 L281 145.3 L280.9 145.3 L280.9 145.4 L280.9 145.4 L280.9 145.4 L280.9 145.5 L280.9 145.5 L280.9 145.5 L280.8 145.6 L280.8 145.6 L280.8 145.6 L280.8 145.7 L280.8 145.7 L280.8 145.7 L280.8 145.8 L280.8 145.8 L280.8 145.8 L280.8 145.9 L280.8 145.9 L280.8 146 L280.8 146 L280.8 146 L280.8 146.1 L280.2 146.1 L280.2 146 L280.2 146 L280.1 146 L280.1 145.9 L280.1 145.9 L280.1 145.8 L280.1 145.8 L280.1 145.8 L280.1 145.7 L280.1 145.7 L280.1 145.7 L280.1 145.6 L280.1 145.6 L280.1 145.6 L280.1 145.5 L280.1 145.5 L280 145.5 L280 145.4 L280 145.4 L280 145.4 L280 145.3 L280 145.3 L280 145.3 L279.9 145.2 L279.9 145.2 L279.9 145.2 L279.9 145.2 L279.9 145.1 L279.8 145.1 L279.8 145.1 L279.8 145.1 L279.8 145 L279.8 145 L279.7 145 L279.7 145 L279.7 144.9 L279.7 144.9 L279.7 144.9 L279.6 144.9 L279.6 144.9 L279.6 144.8 L279.6 144.8 L279.5 144.8 L279.5 144.8 L279.5 144.8 L279.5 144.8 L279.4 144.8 L279.4 144.7 L279.4 144.7 L279.4 144.7 L279.3 144.7 L279.3 144.7 L279.3 144.7 L279.2 144.7 L279.2 144.7 L279.2 144.7 L279.2 144.7 L279.1 144.7 L279.1 144.7 L279.1 144.6 L279.1 144.6 L279 144.6 L279 144.6 L279 144.6 L278.9 144.6 L278.9 144.6 L278.9 144.6 L278.9 144.7 L278.8 144.7 L278.8 144.7 L278.8 144.7 L278.8 144.7 L278.7 144.7 L278.7 144.7 L278.7 144.7 L278.6 144.7 L278.6 144.7 L278.5 144.7 L278.5 144.8 L278.4 144.8 L278.4 144.8 L278.4 144.9 L278.3 144.9 L278.3 144.9 L278.2 145 L278.2 145 L278.1 145.1 L278.1 145.1 L278.1 145.2 L278.1 145.2 L278 145.2 L278 145.2 L278 145.3 L278 145.3 L278 145.3 L278 145.4 L278 145.4 L277.9 145.4 L277.9 145.5 L277.9 145.5 L277.9 145.5 L277.9 145.6 L277.9 145.6 L277.9 145.6 L277.9 145.7 L277.9 145.7 L277.8 145.7 L277.8 145.8 L277.8 145.8 L277.8 145.8 L277.8 145.9 L277.8 145.9 L277.8 146 L277.8 146 L277.8 146 L277.8 146.1 L277.1 146.1 L277.1 147.4 L275.2 147.4 L275.2 143.5 L274 143.5 L274 140.9 L273.4 140.9 L273.4 140.8 L273.4 140.7 L273.4 140.6 L273.4 140.5 L273.4 140.4 L273.4 140.3 L273.4 140.2 L273.4 140.1 L273.4 140 L273.4 139.9 L273.3 139.8 L273.3 139.8 L273.3 139.7 L273.3 139.6 L273.3 139.5 L273.2 139.5 L273.2 139.4 L273.2 139.3 L273.1 139.3 L273.1 139.2 L273.1 139.1 L273.1 139.1 L273 139 L273 139 L273 138.9 L272.9 138.9 L272.9 138.9 L272.9 138.8 L272.8 138.8 L272.8 138.7 L272.8 138.7 L272.7 138.7 L272.7 136.8 L272.2 136.8 z" style="fill:#FFFED8;" />
          <path d="M358.3 119.4 L358.3 117.6 L357.8 117.6 L357.8 119.4 C357.4 119.7 357.1 120.5 357.1 121.6 L356.5 121.6 L356.5 128.6 L355.4 128.6 L355.4 125.7 L354.6 125.7 L353.6 123.4 L352.6 125.7 L351.9 125.7 L351.9 130.5 L350.3 130.5 L350.3 132.3 L370.4 132.3 L370.4 130.5 L369.4 130.5 L369.4 126.8 L368.7 126.8 C368.7 125.9 368.1 125.4 367.6 125.4 C367 125.4 366.4 125.9 366.4 126.8 L365.8 126.8 C365.8 125.9 365.2 125.4 364.6 125.4 C364 125.4 363.4 125.9 363.4 126.8 L362.7 126.8 L362.7 128.1 L360.8 128.1 L360.8 124.2 L359.6 124.2 L359.6 121.6 L359.1 121.6 C359.1 120.5 358.7 119.7 358.3 119.4 z" fill-rule="nonzero" fill-opacity="0.95" style="fill:#1A0B00;" />
          <path d="M358.4 117.1 L358.5 117.1 L358.5 117.1 L358.6 117.1 L358.6 117.1 L358.7 117.2 L358.7 117.2 L358.8 117.3 L358.8 117.3 L358.8 117.4 L358.8 117.4 L358.8 117.5 L358.8 117.6 L358.8 119.2 L358.8 119.2 L358.9 119.2 L358.9 119.3 L359 119.4 L359 119.4 L359.1 119.5 L359.1 119.6 L359.2 119.6 L359.2 119.7 L359.2 119.8 L359.3 119.9 L359.3 119.9 L359.3 120 L359.4 120.1 L359.4 120.2 L359.4 120.3 L359.4 120.4 L359.5 120.5 L359.5 120.5 L359.5 120.6 L359.5 120.7 L359.5 120.8 L359.5 120.9 L359.5 121 L359.6 121.1 L359.6 121.1 L359.7 121.1 L359.7 121.1 L359.8 121.1 L359.9 121.2 L359.9 121.2 L360 121.2 L360 121.3 L360 121.3 L360.1 121.4 L360.1 121.4 L360.1 121.5 L360.1 121.5 L360.1 121.6 L360.1 123.7 L360.8 123.7 L360.9 123.7 L360.9 123.7 L361 123.7 L361.1 123.8 L361.1 123.8 L361.2 123.8 L361.2 123.9 L361.2 123.9 L361.3 124 L361.3 124 L361.3 124.1 L361.3 124.1 L361.3 124.2 L361.3 127.6 L362.2 127.6 L362.2 126.8 L362.2 126.8 L362.2 126.7 L362.2 126.6 L362.3 126.6 L362.3 126.5 L362.3 126.5 L362.4 126.4 L362.4 126.4 L362.5 126.4 L362.5 126.3 L362.6 126.3 L362.7 126.3 L362.7 126.3 L363 126.3 L363 126.3 L363 126.2 L363 126.2 L363 126.1 L363.1 126.1 L363.1 126 L363.1 126 L363.1 126 L363.1 125.9 L363.1 125.9 L363.2 125.8 L363.2 125.8 L363.2 125.8 L363.2 125.7 L363.2 125.7 L363.3 125.6 L363.3 125.6 L363.3 125.6 L363.4 125.5 L363.4 125.4 L363.5 125.4 L363.5 125.3 L363.6 125.3 L363.7 125.2 L363.7 125.2 L363.8 125.1 L363.9 125.1 L364 125 L364 125 L364.1 125 L364.1 124.9 L364.2 124.9 L364.2 124.9 L364.3 124.9 L364.3 124.9 L364.3 124.9 L364.4 124.9 L364.4 124.9 L364.5 124.9 L364.5 124.9 L364.6 124.9 L364.6 124.9 L364.6 124.9 L364.7 124.9 L364.7 124.9 L364.8 124.9 L364.8 124.9 L364.8 124.9 L364.9 124.9 L364.9 124.9 L365 124.9 L365 124.9 L365.1 124.9 L365.1 124.9 L365.1 125 L365.2 125 L365.2 125 L365.2 125 L365.3 125 L365.3 125.1 L365.4 125.1 L365.4 125.1 L365.4 125.1 L365.5 125.1 L365.5 125.2 L365.5 125.2 L365.6 125.2 L365.6 125.2 L365.6 125.3 L365.7 125.3 L365.7 125.3 L365.7 125.4 L365.8 125.4 L365.8 125.4 L365.8 125.5 L365.8 125.5 L365.9 125.5 L365.9 125.6 L365.9 125.6 L365.9 125.6 L366 125.7 L366 125.7 L366 125.7 L366 125.8 L366.1 125.8 L366.1 125.9 L366.1 125.9 L366.1 125.9 L366.1 125.8 L366.1 125.8 L366.2 125.8 L366.2 125.7 L366.2 125.7 L366.2 125.6 L366.2 125.6 L366.3 125.6 L366.3 125.5 L366.4 125.4 L366.4 125.4 L366.5 125.3 L366.6 125.3 L366.6 125.2 L366.7 125.2 L366.8 125.1 L366.8 125.1 L366.9 125 L367 125 L367.1 125 L367.1 124.9 L367.1 124.9 L367.2 124.9 L367.2 124.9 L367.3 124.9 L367.3 124.9 L367.3 124.9 L367.4 124.9 L367.4 124.9 L367.5 124.9 L367.5 124.9 L367.5 124.9 L367.6 124.9 L367.6 124.9 L367.7 124.9 L367.7 124.9 L367.8 124.9 L367.8 124.9 L367.8 124.9 L367.9 124.9 L367.9 124.9 L368 124.9 L368 124.9 L368 124.9 L368.1 125 L368.1 125 L368.2 125 L368.2 125 L368.2 125 L368.3 125.1 L368.3 125.1 L368.4 125.1 L368.4 125.1 L368.4 125.1 L368.5 125.2 L368.5 125.2 L368.5 125.2 L368.6 125.2 L368.6 125.3 L368.6 125.3 L368.7 125.3 L368.7 125.4 L368.7 125.4 L368.7 125.4 L368.8 125.5 L368.8 125.5 L368.8 125.5 L368.9 125.6 L368.9 125.6 L368.9 125.6 L368.9 125.7 L368.9 125.7 L369 125.7 L369 125.8 L369 125.8 L369 125.9 L369.1 125.9 L369.1 126 L369.1 126 L369.1 126 L369.1 126.1 L369.1 126.1 L369.1 126.2 L369.2 126.2 L369.2 126.3 L369.2 126.3 L369.4 126.3 L369.5 126.3 L369.6 126.3 L369.6 126.3 L369.7 126.4 L369.7 126.4 L369.8 126.4 L369.8 126.5 L369.9 126.5 L369.9 126.6 L369.9 126.6 L369.9 126.7 L369.9 126.8 L369.9 126.8 L369.9 130 L370.4 130 L370.4 130 L370.5 130 L370.5 130.1 L370.6 130.1 L370.6 130.1 L370.7 130.1 L370.7 130.2 L370.8 130.2 L370.8 130.3 L370.8 130.3 L370.9 130.4 L370.9 130.5 L370.9 130.5 L370.9 132.3 L370.9 132.3 L370.9 132.4 L370.8 132.4 L370.8 132.5 L370.8 132.6 L370.7 132.6 L370.7 132.6 L370.6 132.7 L370.6 132.7 L370.5 132.7 L370.5 132.8 L370.4 132.8 L370.4 132.8 L350.3 132.8 L350.3 132.8 L350.2 132.8 L350.2 132.7 L350.1 132.7 L350 132.7 L350 132.6 L350 132.6 L349.9 132.6 L349.9 132.5 L349.9 132.4 L349.8 132.4 L349.8 132.3 L349.8 132.3 L349.8 130.5 L349.8 130.5 L349.8 130.4 L349.9 130.3 L349.9 130.3 L349.9 130.2 L350 130.2 L350 130.1 L350 130.1 L350.1 130.1 L350.2 130.1 L350.2 130 L350.3 130 L350.3 130 L351.4 130 L351.4 125.7 L351.4 125.7 L351.4 125.6 L351.4 125.5 L351.4 125.5 L351.4 125.4 L351.5 125.4 L351.5 125.3 L351.6 125.3 L351.6 125.3 L351.7 125.2 L351.7 125.2 L351.8 125.2 L351.9 125.2 L352.3 125.2 L353.2 123.2 L353.2 123.2 L353.2 123.1 L353.3 123.1 L353.3 123 L353.4 123 L353.4 123 L353.5 122.9 L353.5 122.9 L353.6 122.9 L353.6 122.9 L353.7 122.9 L353.8 122.9 L353.8 123 L353.9 123 L353.9 123 L354 123.1 L354 123.1 L354 123.2 L354.1 123.2 L354.9 125.2 L355.4 125.2 L355.4 125.2 L355.5 125.2 L355.6 125.2 L355.6 125.3 L355.7 125.3 L355.7 125.3 L355.7 125.4 L355.8 125.4 L355.8 125.5 L355.8 125.5 L355.9 125.6 L355.9 125.7 L355.9 125.7 L355.9 128.1 L356 128.1 L356 121.6 L356 121.5 L356 121.5 L356 121.4 L356.1 121.4 L356.1 121.3 L356.1 121.3 L356.2 121.2 L356.2 121.2 L356.3 121.2 L356.3 121.1 L356.4 121.1 L356.4 121.1 L356.5 121.1 L356.6 121.1 L356.6 121 L356.6 120.9 L356.6 120.8 L356.6 120.7 L356.6 120.6 L356.7 120.5 L356.7 120.4 L356.7 120.3 L356.7 120.3 L356.8 120.2 L356.8 120.1 L356.8 120 L356.8 119.9 L356.9 119.8 L356.9 119.8 L356.9 119.7 L357 119.6 L357 119.5 L357.1 119.5 L357.1 119.4 L357.1 119.4 L357.2 119.3 L357.2 119.2 L357.3 119.2 L357.3 119.2 L357.3 117.6 L357.3 117.5 L357.3 117.4 L357.3 117.4 L357.4 117.3 L357.4 117.3 L357.4 117.2 L357.5 117.2 L357.5 117.1 L357.6 117.1 L357.6 117.1 L357.7 117.1 L357.7 117.1 L357.8 117.1 L358.3 117.1 L358.4 117.1 z M357.8 117.6 L357.8 119.4 L357.8 119.4 L357.7 119.5 L357.7 119.5 L357.6 119.5 L357.6 119.6 L357.6 119.6 L357.5 119.7 L357.5 119.7 L357.5 119.7 L357.4 119.8 L357.4 119.9 L357.4 119.9 L357.4 120 L357.3 120 L357.3 120.1 L357.3 120.2 L357.3 120.2 L357.2 120.3 L357.2 120.4 L357.2 120.5 L357.2 120.6 L357.2 120.6 L357.1 120.7 L357.1 120.8 L357.1 120.9 L357.1 121 L357.1 121.1 L357.1 121.2 L357.1 121.3 L357.1 121.4 L357.1 121.5 L357.1 121.6 L356.5 121.6 L356.5 128.6 L355.4 128.6 L355.4 125.7 L354.6 125.7 L353.6 123.4 L352.6 125.7 L351.9 125.7 L351.9 130.5 L350.3 130.5 L350.3 132.3 L370.4 132.3 L370.4 130.5 L369.4 130.5 L369.4 126.8 L368.7 126.8 L368.7 126.8 L368.7 126.7 L368.7 126.7 L368.7 126.7 L368.7 126.6 L368.7 126.6 L368.7 126.5 L368.7 126.5 L368.7 126.5 L368.7 126.4 L368.7 126.4 L368.7 126.3 L368.7 126.3 L368.7 126.3 L368.6 126.2 L368.6 126.2 L368.6 126.2 L368.6 126.1 L368.6 126.1 L368.6 126.1 L368.6 126.1 L368.6 126 L368.5 126 L368.5 126 L368.5 125.9 L368.5 125.9 L368.5 125.9 L368.4 125.9 L368.4 125.8 L368.4 125.8 L368.4 125.8 L368.4 125.8 L368.3 125.7 L368.3 125.7 L368.3 125.7 L368.3 125.7 L368.3 125.6 L368.2 125.6 L368.2 125.6 L368.2 125.6 L368.2 125.6 L368.1 125.6 L368.1 125.5 L368.1 125.5 L368.1 125.5 L368 125.5 L368 125.5 L368 125.5 L368 125.5 L367.9 125.4 L367.9 125.4 L367.9 125.4 L367.9 125.4 L367.8 125.4 L367.8 125.4 L367.8 125.4 L367.7 125.4 L367.7 125.4 L367.7 125.4 L367.7 125.4 L367.6 125.4 L367.6 125.4 L367.6 125.4 L367.6 125.4 L367.5 125.4 L367.5 125.4 L367.5 125.4 L367.4 125.4 L367.4 125.4 L367.4 125.4 L367.4 125.4 L367.3 125.4 L367.3 125.4 L367.3 125.4 L367.3 125.4 L367.2 125.4 L367.2 125.4 L367.1 125.5 L367.1 125.5 L367 125.5 L367 125.6 L366.9 125.6 L366.9 125.6 L366.8 125.7 L366.8 125.7 L366.8 125.8 L366.7 125.8 L366.7 125.9 L366.7 125.9 L366.6 125.9 L366.6 125.9 L366.6 126 L366.6 126 L366.6 126 L366.6 126.1 L366.6 126.1 L366.5 126.1 L366.5 126.1 L366.5 126.2 L366.5 126.2 L366.5 126.2 L366.5 126.3 L366.5 126.3 L366.5 126.4 L366.4 126.4 L366.4 126.4 L366.4 126.5 L366.4 126.5 L366.4 126.5 L366.4 126.6 L366.4 126.6 L366.4 126.7 L366.4 126.7 L366.4 126.7 L366.4 126.8 L366.4 126.8 L365.8 126.8 L365.8 126.8 L365.8 126.7 L365.8 126.7 L365.8 126.7 L365.8 126.6 L365.8 126.6 L365.8 126.5 L365.8 126.5 L365.7 126.5 L365.7 126.4 L365.7 126.4 L365.7 126.4 L365.7 126.3 L365.7 126.3 L365.7 126.2 L365.7 126.2 L365.7 126.2 L365.7 126.1 L365.6 126.1 L365.6 126.1 L365.6 126.1 L365.6 126 L365.6 126 L365.6 126 L365.5 125.9 L365.5 125.9 L365.5 125.9 L365.5 125.9 L365.5 125.8 L365.5 125.8 L365.4 125.8 L365.4 125.8 L365.4 125.7 L365.4 125.7 L365.3 125.7 L365.3 125.7 L365.3 125.6 L365.3 125.6 L365.3 125.6 L365.2 125.6 L365.2 125.6 L365.2 125.6 L365.2 125.5 L365.1 125.5 L365.1 125.5 L365.1 125.5 L365.1 125.5 L365 125.5 L365 125.5 L365 125.4 L365 125.4 L364.9 125.4 L364.9 125.4 L364.9 125.4 L364.8 125.4 L364.8 125.4 L364.8 125.4 L364.8 125.4 L364.7 125.4 L364.7 125.4 L364.7 125.4 L364.7 125.4 L364.6 125.4 L364.6 125.4 L364.6 125.4 L364.5 125.4 L364.5 125.4 L364.5 125.4 L364.5 125.4 L364.4 125.4 L364.4 125.4 L364.4 125.4 L364.4 125.4 L364.3 125.4 L364.3 125.4 L364.3 125.4 L364.2 125.4 L364.2 125.5 L364.1 125.5 L364.1 125.5 L364 125.6 L364 125.6 L363.9 125.6 L363.9 125.7 L363.8 125.7 L363.8 125.8 L363.8 125.8 L363.7 125.9 L363.7 125.9 L363.7 125.9 L363.7 125.9 L363.7 126 L363.6 126 L363.6 126 L363.6 126.1 L363.6 126.1 L363.6 126.1 L363.6 126.1 L363.6 126.2 L363.5 126.2 L363.5 126.2 L363.5 126.3 L363.5 126.3 L363.5 126.4 L363.5 126.4 L363.5 126.4 L363.5 126.5 L363.5 126.5 L363.5 126.5 L363.5 126.6 L363.5 126.6 L363.5 126.7 L363.4 126.7 L363.4 126.7 L363.4 126.8 L363.4 126.8 L362.7 126.8 L362.7 128.1 L360.8 128.1 L360.8 124.2 L359.6 124.2 L359.6 121.6 L359.1 121.6 L359.1 121.5 L359.1 121.4 L359.1 121.3 L359.1 121.2 L359.1 121.1 L359 121 L359 120.9 L359 120.8 L359 120.7 L359 120.6 L359 120.6 L358.9 120.5 L358.9 120.4 L358.9 120.3 L358.9 120.3 L358.9 120.2 L358.8 120.1 L358.8 120 L358.8 120 L358.7 119.9 L358.7 119.9 L358.7 119.8 L358.7 119.8 L358.6 119.7 L358.6 119.7 L358.6 119.6 L358.5 119.6 L358.5 119.5 L358.5 119.5 L358.4 119.5 L358.4 119.4 L358.3 119.4 L358.3 117.6 L357.8 117.6 z" style="fill:#FFFED8;" />
          <path d="M123.2 416.6 L122.3 413.6 L120.8 411.8 L119.5 411.8 L117.9 407.4 L115.9 406.2 L114.4 404 L113.2 403.4 L110.8 404.6 L109.5 409.1 L108.7 410 L107.7 412.5 L106.2 413.6 L105.9 416.6 L110.5 416.6 L111 414.8 L112.2 414 L114.1 414.7 L114.5 416.6 L123.2 416.6 z" fill-rule="nonzero" fill-opacity="0.95" style="fill:#1A0B00;" />
          <path d="M113.2 402.9 L113.3 402.9 L113.3 402.9 L113.4 402.9 L113.4 402.9 L114.7 403.6 L114.7 403.6 L114.7 403.6 L114.8 403.7 L114.8 403.7 L114.8 403.7 L116.2 405.8 L118.2 407 L118.2 407 L118.3 407.1 L118.3 407.1 L118.4 407.2 L118.4 407.2 L118.4 407.3 L119.8 411.3 L120.8 411.3 L120.9 411.3 L120.9 411.3 L121 411.3 L121 411.3 L121.1 411.3 L121.1 411.4 L121.2 411.4 L121.2 411.4 L122.7 413.3 L122.7 413.3 L122.7 413.4 L122.7 413.4 L122.7 413.5 L123.6 416.4 L123.7 416.5 L123.7 416.6 L123.7 416.6 L123.7 416.7 L123.6 416.7 L123.6 416.8 L123.6 416.8 L123.6 416.9 L123.5 416.9 L123.5 417 L123.4 417 L123.4 417 L123.3 417.1 L123.3 417.1 L123.2 417.1 L123.2 417.1 L114.5 417.1 L114.5 417.1 L114.4 417.1 L114.4 417.1 L114.3 417 L114.3 417 L114.2 417 L114.2 416.9 L114.2 416.9 L114.1 416.9 L114.1 416.8 L114.1 416.8 L114.1 416.7 L113.7 415.1 L112.3 414.5 L111.5 415.1 L111 416.7 L111 416.8 L111 416.8 L111 416.9 L110.9 416.9 L110.9 416.9 L110.8 417 L110.8 417 L110.8 417 L110.7 417.1 L110.7 417.1 L110.6 417.1 L110.5 417.1 L105.9 417.1 L105.9 417.1 L105.8 417.1 L105.7 417.1 L105.7 417 L105.6 417 L105.6 417 L105.6 416.9 L105.5 416.9 L105.5 416.8 L105.5 416.8 L105.4 416.7 L105.4 416.7 L105.4 416.6 L105.4 416.6 L105.4 416.5 L105.8 413.5 L105.8 413.5 L105.8 413.4 L105.8 413.4 L105.8 413.3 L105.9 413.3 L105.9 413.2 L105.9 413.2 L107.3 412.2 L108.3 409.8 L108.3 409.7 L108.3 409.7 L108.4 409.6 L109 408.8 L110.3 404.4 L110.3 404.4 L110.3 404.3 L110.4 404.3 L110.4 404.2 L110.4 404.2 L110.5 404.2 L110.5 404.1 L110.6 404.1 L113 402.9 L113 402.9 L113.1 402.9 L113.1 402.9 L113.2 402.9 L113.2 402.9 z M110.8 404.6 L109.5 409.1 L108.7 410 L107.7 412.5 L106.2 413.6 L105.9 416.6 L110.5 416.6 L111 414.8 L112.2 414 L114.1 414.7 L114.5 416.6 L123.2 416.6 L122.3 413.6 L120.8 411.8 L119.5 411.8 L117.9 407.4 L115.9 406.2 L114.4 404 L113.2 403.4 L110.8 404.6 z" style="fill:#FFFED8;" />
          <path d="M464 404.2 L463.1 401.3 L461.6 399.4 L460.3 399.4 L458.8 395.1 L456.7 393.8 L455.3 391.7 L454 391 L451.6 392.2 L450.3 396.7 L449.6 397.6 L448.6 400.1 L447.1 401.3 L446.8 404.2 L451.4 404.2 L451.9 402.5 L453.1 401.6 L454.9 402.4 L455.4 404.2 L464 404.2 z" fill-rule="nonzero" fill-opacity="0.95" style="fill:#1A0B00;" />
          <path d="M454.1 390.5 L454.1 390.5 L454.2 390.5 L454.2 390.5 L454.3 390.6 L455.5 391.2 L455.5 391.3 L455.6 391.3 L455.6 391.3 L455.7 391.4 L455.7 391.4 L457.1 393.5 L459 394.7 L459.1 394.7 L459.1 394.7 L459.2 394.8 L459.2 394.8 L459.2 394.9 L459.3 394.9 L460.7 398.9 L461.6 398.9 L461.7 398.9 L461.8 398.9 L461.8 398.9 L461.9 399 L461.9 399 L462 399 L462 399.1 L462 399.1 L463.5 401 L463.5 401 L463.6 401 L463.6 401.1 L463.6 401.1 L464.5 404.1 L464.5 404.1 L464.5 404.2 L464.5 404.3 L464.5 404.3 L464.5 404.4 L464.5 404.4 L464.5 404.5 L464.4 404.5 L464.4 404.6 L464.3 404.6 L464.3 404.7 L464.2 404.7 L464.2 404.7 L464.1 404.7 L464.1 404.7 L464 404.7 L455.4 404.7 L455.3 404.7 L455.3 404.7 L455.2 404.7 L455.2 404.7 L455.1 404.7 L455.1 404.6 L455 404.6 L455 404.5 L455 404.5 L454.9 404.5 L454.9 404.4 L454.9 404.4 L454.5 402.7 L453.2 402.2 L452.3 402.8 L451.9 404.4 L451.9 404.4 L451.8 404.5 L451.8 404.5 L451.8 404.6 L451.7 404.6 L451.7 404.6 L451.6 404.7 L451.6 404.7 L451.6 404.7 L451.5 404.7 L451.4 404.7 L451.4 404.7 L446.8 404.7 L446.7 404.7 L446.6 404.7 L446.6 404.7 L446.5 404.7 L446.5 404.7 L446.4 404.6 L446.4 404.6 L446.4 404.5 L446.3 404.5 L446.3 404.4 L446.3 404.4 L446.3 404.3 L446.3 404.3 L446.3 404.2 L446.3 404.2 L446.6 401.2 L446.6 401.1 L446.6 401.1 L446.6 401 L446.7 401 L446.7 400.9 L446.7 400.9 L446.8 400.9 L448.2 399.8 L449.1 397.4 L449.1 397.4 L449.2 397.3 L449.2 397.3 L449.9 396.5 L451.2 392.1 L451.2 392 L451.2 392 L451.2 391.9 L451.2 391.9 L451.3 391.9 L451.3 391.8 L451.4 391.8 L451.4 391.8 L453.8 390.6 L453.9 390.5 L453.9 390.5 L454 390.5 L454 390.5 L454.1 390.5 z M451.6 392.2 L450.3 396.7 L449.6 397.6 L448.6 400.1 L447.1 401.3 L446.8 404.2 L451.4 404.2 L451.9 402.5 L453.1 401.6 L454.9 402.4 L455.4 404.2 L464 404.2 L463.1 401.3 L461.6 399.4 L460.3 399.4 L458.8 395.1 L456.7 393.8 L455.3 391.7 L454 391 L451.6 392.2 z" style="fill:#FFFED8;" />
          <path d="M116.6 203.2 L115.7 200.2 L114.2 198.3 L112.9 198.3 L111.3 194 L109.3 192.8 L107.8 190.6 L106.6 189.9 L104.2 191.2 L102.9 195.7 L102.1 196.5 L101.1 199.1 L99.6 200.2 L99.3 203.2 L103.9 203.2 L104.4 201.4 L105.6 200.6 L107.5 201.3 L107.9 203.2 L116.6 203.2 z" fill-rule="nonzero" fill-opacity="0.95" style="fill:#1A0B00;" />
          <path d="M106.6 189.5 L106.7 189.5 L106.7 189.5 L106.8 189.5 L106.8 189.5 L108 190.2 L108.1 190.2 L108.1 190.2 L108.2 190.3 L108.2 190.3 L108.2 190.3 L109.6 192.4 L111.6 193.6 L111.6 193.6 L111.7 193.7 L111.7 193.7 L111.8 193.8 L111.8 193.8 L111.8 193.9 L113.2 197.8 L114.2 197.8 L114.2 197.8 L114.3 197.9 L114.4 197.9 L114.4 197.9 L114.5 197.9 L114.5 198 L114.5 198 L114.6 198 L116.1 199.9 L116.1 199.9 L116.1 200 L116.1 200 L116.1 200.1 L117 203 L117.1 203.1 L117.1 203.1 L117.1 203.2 L117.1 203.3 L117 203.3 L117 203.4 L117 203.4 L117 203.5 L116.9 203.5 L116.9 203.6 L116.8 203.6 L116.8 203.6 L116.7 203.6 L116.7 203.7 L116.6 203.7 L116.6 203.7 L107.9 203.7 L107.9 203.7 L107.8 203.7 L107.8 203.6 L107.7 203.6 L107.7 203.6 L107.6 203.6 L107.6 203.5 L107.5 203.5 L107.5 203.4 L107.5 203.4 L107.5 203.3 L107.4 203.3 L107.1 201.7 L105.7 201.1 L104.9 201.7 L104.4 203.3 L104.4 203.4 L104.4 203.4 L104.4 203.5 L104.3 203.5 L104.3 203.5 L104.2 203.6 L104.2 203.6 L104.1 203.6 L104.1 203.7 L104 203.7 L104 203.7 L103.9 203.7 L99.3 203.7 L99.2 203.7 L99.2 203.7 L99.1 203.6 L99.1 203.6 L99 203.6 L99 203.6 L99 203.5 L98.9 203.5 L98.9 203.4 L98.9 203.4 L98.8 203.3 L98.8 203.3 L98.8 203.2 L98.8 203.2 L98.8 203.1 L99.1 200.1 L99.2 200.1 L99.2 200 L99.2 200 L99.2 199.9 L99.3 199.9 L99.3 199.8 L99.3 199.8 L100.7 198.7 L101.7 196.4 L101.7 196.3 L101.7 196.3 L101.8 196.2 L102.4 195.4 L103.7 191 L103.7 191 L103.7 190.9 L103.8 190.9 L103.8 190.8 L103.8 190.8 L103.9 190.8 L103.9 190.7 L104 190.7 L106.4 189.5 L106.4 189.5 L106.5 189.5 L106.5 189.5 L106.6 189.4 L106.6 189.5 z M104.2 191.2 L102.9 195.7 L102.1 196.5 L101.1 199.1 L99.6 200.2 L99.3 203.2 L103.9 203.2 L104.4 201.4 L105.6 200.6 L107.5 201.3 L107.9 203.2 L116.6 203.2 L115.7 200.2 L114.2 198.3 L112.9 198.3 L111.3 194 L109.3 192.8 L107.8 190.6 L106.6 189.9 L104.2 191.2 z" style="fill:#FFFED8;" />
      </g>

    </g>
	
	    <defs>

	    <filter id="dunes">
		    <feTurbulence baseFrequency="0.04" numOctaves="1" in="displ" result="noise" />
            <feDiffuseLighting surfaceScale="10" lighting-color="#FFF5BD" in="noise">
                <feDistantLight azimuth="45" elevation="60" />
		    </feDiffuseLighting>
        </filter>
	
	    <filter id="rock">
		    <feTurbulence baseFrequency="0.003" numOctaves="10" seed="50" in="displ" result="noise" />
            <feDiffuseLighting surfaceScale="50" lighting-color="#CAA465" in="noise">
                <feDistantLight azimuth="45" elevation="60" />
		    </feDiffuseLighting>
	    </filter>

    	<style type="text/css">
			@font-face {
              font-family: Herbert;
              src: url('../OrthodoxHerbertarian.ttf');
            }
        </style>

    </defs>
  
</svg>