<?xml version="1.0" encoding="utf-8"?>
<!DOCTYPE svg PUBLIC "-//W3C//DTD SVG 1.1//EN" "http://www.w3.org/Graphics/SVG/1.1/DTD/svg11.dtd">
<svg version="1.1" xmlns="http://www.w3.org/2000/svg" xmlns:xlink="http://www.w3.org/1999/xlink" xmlns:xml="http://www.w3.org/XML/1998/namespace" xmlns:serif="http://www.serif.com/" width="91" height="91" viewBox="15, 15, 61, 61" xml:space="preserve" fill-rule="evenodd" stroke-linejoin="round" stroke-miterlimit="2" style="clip-rule:evenodd;" >

	<filter xmlns="http://www.w3.org/2000/svg" height="150%" id="dropshadow">
      <feGaussianBlur stdDeviation="2" in="SourceAlpha" /> 
      <feOffset dx="0" dy="0" result="offsetblur" /> 
      <feMerge> 
        <feMergeNode />
        <feMergeNode in="SourceGraphic" /> 
      </feMerge>
    </filter>
    
	<circle cx="45.5" cy="45.5" r="30" style="fill:#4D652E;stroke:black;" stroke-width="0.5px" />
    
    <g filter="url(#dropshadow)" stroke-width="0.5" style="stroke:black;">
            <rect x="25.5" y="37.8" width="4.3" height="8.5" fill-rule="nonzero" style="fill:white;" />
            <rect x="61.1" y="37.8" width="4.3" height="8.5" fill-rule="nonzero" style="fill:white;" />
            <path d="M32.8 53.9 L27 53.9 C30.3 50.9 32.2 46.4 32.2 42 C32.2 37.5 30.2 33 26.8 30.1 L32.6 30.1 C34.5 33 35.7 36.4 36.1 39.8 L43.3 39.8 L43.3 38.8 C41.5 38.4 39.7 37.1 38.5 35.4 C37.4 33.7 36.9 31.7 37.2 29.7 C37.5 27.7 38.5 25.8 40 24.5 C41.5 23.2 43.5 22.4 45.5 22.4 C47.5 22.4 49.5 23.2 51 24.5 C52.5 25.8 53.5 27.7 53.8 29.7 C54 31.7 53.6 33.7 52.4 35.4 C51.3 37.1 49.4 38.4 47.6 38.8 L47.6 39.8 L54.9 39.8 C55.2 36.4 56.4 33 58.3 30.1 L64.1 30.1 C60.8 33 58.8 37.5 58.7 42 C58.7 46.4 60.6 50.9 63.9 53.9 L58.2 53.9 C56.3 51 55.2 47.6 54.8 44.2 L47.6 44.2 L47.6 46.7 C50.2 47.1 52.9 48.8 54.6 51.1 C56.4 53.4 57.2 56.3 56.9 59 C56.6 61.8 55.3 64.5 53.2 66.4 C51.1 68.3 48.3 69.4 45.5 69.4 C42.7 69.4 39.8 68.3 37.8 66.4 C35.7 64.5 34.3 61.8 34.1 59 C33.8 56.3 34.5 53.4 36.3 51.1 C38.1 48.8 40.8 47.1 43.3 46.7 L43.3 44.2 L36.1 44.2 C35.8 47.6 34.6 51 32.8 53.9 z M47.6 51 C49.2 51.4 50.7 52.6 51.7 54.1 C52.6 55.5 53 57.3 52.7 59 C52.4 60.7 51.5 62.3 50.2 63.5 C48.9 64.6 47.2 65.2 45.5 65.2 C43.7 65.2 42 64.6 40.7 63.5 C39.4 62.3 38.5 60.7 38.3 59 C38 57.3 38.3 55.5 39.3 54.1 C40.2 52.6 41.8 51.4 43.3 51 C43.3 53.3 43.3 55.6 43.3 57.9 L47.6 57.9 C47.6 55.6 47.6 53.3 47.6 51 z M45.5 26.6 C47.8 26.6 49.7 28.5 49.7 30.8 C49.7 33.1 47.8 35 45.5 35 C43.2 35 41.3 33.1 41.3 30.8 C41.3 28.5 43.2 26.6 45.5 26.6 z" style="fill:white;" />
    </g>
    
</svg>