<?xml version="1.0" encoding="UTF-8" standalone="no"?>
<!DOCTYPE svg PUBLIC "-//W3C//DTD SVG 1.1//EN" "http://www.w3.org/Graphics/SVG/1.1/DTD/svg11.dtd">
<svg width="300" height="300" viewBox="0 0 91 91" version="1.1" xmlns="http://www.w3.org/2000/svg" xmlns:xlink="http://www.w3.org/1999/xlink" xml:space="preserve" xmlns:serif="http://www.serif.com/" style="fill-rule:evenodd;clip-rule:evenodd;stroke-linejoin:round;stroke-miterlimit:2;">
	<filter xmlns="http://www.w3.org/2000/svg" id="dropshadow" height="150%">
      <feGaussianBlur in="SourceAlpha" stdDeviation="2"/> 
      <feOffset dx="0" dy="0" result="offsetblur"/> 
      <feMerge> 
        <feMergeNode/>
        <feMergeNode in="SourceGraphic"/> 
      </feMerge>
    </filter>
    <g id="icon_atreides" transform="matrix(1,0,0,1,-48.3646,-0.48)">
        <path d="M55.789,70.852C54.159,68.362 52.775,65.711 51.662,62.951C50.549,60.191 49.709,57.321 49.156,54.397C48.603,51.472 48.338,48.494 48.367,45.518C48.395,42.542 48.716,39.569 49.325,36.656C49.933,33.743 50.828,30.889 51.993,28.151C53.158,25.412 54.593,22.788 56.27,20.33C57.947,17.871 59.866,15.578 61.99,13.493C64.115,11.409 66.444,9.534 68.934,7.904C71.424,6.275 74.075,4.89 76.835,3.778C79.595,2.665 82.465,1.824 85.389,1.271C88.314,0.718 91.292,0.454 94.268,0.482C97.244,0.51 100.217,0.832 103.13,1.44C106.044,2.049 108.897,2.944 111.635,4.109C114.374,5.274 116.998,6.709 119.456,8.385C121.915,10.062 124.208,11.981 126.293,14.106C128.377,16.23 130.252,18.56 131.882,21.05C133.512,23.54 134.896,26.19 136.009,28.951C137.121,31.711 137.962,34.581 138.515,37.505C139.068,40.429 139.332,43.408 139.304,46.384C139.276,49.36 138.954,52.333 138.346,55.246C137.738,58.159 136.842,61.012 135.677,63.751C134.512,66.489 133.078,69.113 131.401,71.572C129.724,74.03 127.805,76.324 125.68,78.408C123.556,80.492 121.227,82.367 118.737,83.997C116.246,85.627 113.596,87.011 110.836,88.124C108.075,89.237 105.206,90.077 102.281,90.63C99.357,91.183 96.378,91.448 93.403,91.419C90.427,91.391 87.454,91.07 84.54,90.461C81.627,89.853 78.774,88.958 76.035,87.793C73.297,86.628 70.673,85.193 68.214,83.516C65.756,81.839 63.462,79.92 61.378,77.796C59.294,75.672 57.419,73.342 55.789,70.852Z" style="fill:rgb(77,101,46);fill-rule:nonzero;"/>
        <g stroke="black" stroke-width="0.5" filter="url(#dropshadow)">
            <g transform="matrix(1.14565,0,0,1.14565,73.8581,22.89)">
                <rect x="0" y="13.463" width="3.785" height="7.432" style="fill:white;fill-rule:nonzero;"/>
            </g>
            <g transform="matrix(1.14565,0,0,1.14565,73.8581,22.89)">
                <rect x="31.091" y="13.463" width="3.785" height="7.432" style="fill:white;fill-rule:nonzero;"/>
            </g>
            <g transform="matrix(1.14565,0,0,1.14565,73.8581,22.89)">
                <path d="M6.345,27.478L1.351,27.478C4.208,24.893 5.885,20.974 5.849,17.071C5.814,13.167 4.065,9.279 1.162,6.747L6.231,6.747C7.879,9.252 8.94,12.237 9.241,15.22L15.545,15.22L15.545,14.348C14,13.982 12.377,12.829 11.368,11.351C10.358,9.874 9.963,8.071 10.202,6.344C10.441,4.617 11.314,2.965 12.626,1.811C13.938,0.656 15.688,0 17.438,0C19.188,0 20.938,0.656 22.249,1.811C23.561,2.965 24.435,4.617 24.674,6.344C24.912,8.071 24.517,9.874 23.508,11.351C22.498,12.829 20.876,13.982 19.33,14.348L19.33,15.22L25.634,15.22C25.936,12.237 26.996,9.252 28.644,6.747L33.713,6.747C30.81,9.279 29.061,13.167 29.026,17.071C28.99,20.974 30.667,24.893 33.524,27.478L28.531,27.478C26.916,24.964 25.89,21.98 25.616,19.005L19.33,19.005L19.33,21.207C21.522,21.556 23.914,23.038 25.444,25.034C26.974,27.031 27.643,29.543 27.394,31.979C27.145,34.415 25.978,36.775 24.165,38.429C22.353,40.083 19.895,41.03 17.438,41.03C14.98,41.03 12.522,40.083 10.71,38.429C8.897,36.775 7.73,34.415 7.481,31.979C7.232,29.543 7.901,27.031 9.431,25.034C10.961,23.038 13.353,21.556 15.545,21.207L15.545,19.005L9.259,19.005C8.986,21.98 7.959,24.964 6.345,27.478ZM19.33,24.924C20.651,25.294 22.008,26.331 22.839,27.628C23.669,28.925 23.972,30.483 23.737,31.966C23.503,33.449 22.731,34.858 21.591,35.841C20.452,36.824 18.945,37.381 17.438,37.381C15.931,37.381 14.424,36.824 13.284,35.841C12.145,34.858 11.373,33.449 11.138,31.966C10.903,30.483 11.206,28.925 12.037,27.628C12.867,26.331 14.225,25.294 15.545,24.924C15.545,26.953 15.545,28.981 15.545,31.009L19.33,31.009C19.33,28.981 19.33,26.953 19.33,24.924ZM17.438,3.649C19.452,3.649 21.087,5.285 21.087,7.299C21.087,9.313 19.452,10.948 17.438,10.948C15.423,10.948 13.788,9.313 13.788,7.299C13.788,5.285 15.423,3.649 17.438,3.649Z" style="fill:white;"/>
            </g>
        </g>
    </g>
</svg>
