<?xml version="1.0" encoding="UTF-8" standalone="no"?>
<!DOCTYPE svg PUBLIC "-//W3C//DTD SVG 1.1//EN" "http://www.w3.org/Graphics/SVG/1.1/DTD/svg11.dtd">
<svg width="200" height="200"  viewBox="20 20 160 160" version="1.1" xmlns="http://www.w3.org/2000/svg" xmlns:xlink="http://www.w3.org/1999/xlink" xml:space="preserve" xmlns:serif="http://www.serif.com/" style="fill-rule:evenodd;clip-rule:evenodd;stroke-linejoin:round;stroke-miterlimit:2;">
    <g id="Artboard1" transform="matrix(1.11475,0,0,1.0384,-267.134,-95.9961)">
        <rect x="239.636" y="92.446" width="179.412" height="192.604" style="fill:none;"/>
        <g id="wormen_icon" transform="matrix(1.28688,0,0,1.38151,-112.678,-84.2594)">
            <g id="worm2">
                <g transform="matrix(0.645372,0,0,0.645372,204.2,-66.1652)">
                    <path d="M178.332,371.248L179.168,372.283L179.873,373.413L180.513,374.581L181.193,375.726L181.925,376.839L182.622,377.974L183.191,379.177L183.55,380.458L183.706,381.78L183.707,383.112L183.658,384.443L183.614,385.774L183.652,387.106L183.799,388.429L184.051,389.737L184.402,391.022L184.848,392.284L185.16,393.08L185.463,393.881L185.736,394.692L185.984,395.511C185.984,395.511 186.167,396.054 186.214,396.335C186.261,396.617 186.222,396.94 186.267,397.203C186.309,397.446 186.322,397.734 186.483,397.911C186.644,398.087 187.013,398.097 187.233,398.263C187.453,398.428 187.614,398.687 187.802,398.902C187.989,399.117 188.358,399.552 188.358,399.552L188.891,400.222C188.891,400.222 189.232,400.679 189.401,400.909C189.57,401.138 189.738,401.369 189.905,401.6C190.073,401.831 190.242,402.06 190.407,402.293C190.572,402.526 190.738,402.758 190.896,402.995C191.054,403.233 191.202,403.477 191.354,403.719C191.505,403.96 191.67,404.195 191.806,404.445C191.941,404.694 192.106,404.953 192.166,405.216C192.226,405.479 192.141,405.826 192.167,406.025C192.186,406.162 192.191,406.378 192.326,406.409C192.492,406.447 192.9,406.213 193.165,406.254C193.43,406.296 193.675,406.506 193.916,406.656C194.156,406.806 194.379,406.988 194.61,407.156C194.84,407.325 195.072,407.491 195.297,407.665C195.523,407.84 195.744,408.02 195.963,408.203C196.182,408.385 196.397,408.573 196.612,408.761C196.826,408.949 197.039,409.14 197.25,409.331C197.462,409.522 197.673,409.714 197.882,409.908C198.092,410.101 198.301,410.296 198.507,410.493C198.713,410.69 198.918,410.889 199.118,411.092C199.319,411.294 199.516,411.5 199.71,411.71C199.903,411.919 200.091,412.135 200.279,412.348C200.468,412.562 200.66,412.773 200.842,412.993C201.024,413.213 201.234,413.422 201.37,413.666C201.506,413.91 201.539,414.205 201.657,414.458C201.776,414.711 201.925,415.071 202.082,415.185C202.221,415.286 202.429,415.122 202.598,415.141C202.766,415.159 202.935,415.225 203.092,415.294C203.249,415.364 203.395,415.464 203.541,415.557C203.687,415.651 203.827,415.754 203.968,415.855C204.109,415.956 204.248,416.061 204.386,416.165C204.525,416.269 204.663,416.374 204.801,416.48C204.938,416.586 205.076,416.691 205.212,416.799C205.349,416.906 205.484,417.015 205.618,417.125C205.751,417.236 205.883,417.349 206.014,417.463C206.145,417.576 206.275,417.692 206.403,417.809C206.532,417.925 206.659,418.044 206.785,418.163C206.911,418.282 207.036,418.402 207.161,418.523C207.285,418.644 207.408,418.766 207.531,418.889C207.654,419.012 207.775,419.135 207.896,419.26C208.017,419.384 208.137,419.51 208.257,419.635C208.376,419.761 208.495,419.888 208.612,420.015C208.73,420.143 208.847,420.271 208.963,420.4C209.079,420.529 209.194,420.659 209.309,420.79C209.423,420.92 209.536,421.052 209.648,421.184C209.76,421.317 209.871,421.451 209.98,421.585C210.09,421.72 210.198,421.855 210.305,421.992C210.412,422.129 210.517,422.267 210.621,422.406C210.724,422.545 210.826,422.686 210.927,422.827C211.027,422.969 211.125,423.112 211.222,423.256C211.32,423.399 211.415,423.544 211.511,423.689C211.606,423.834 211.701,423.979 211.795,424.125C211.889,424.271 211.982,424.418 212.073,424.565C212.163,424.713 212.254,424.862 212.34,425.012C212.425,425.163 212.511,425.315 212.587,425.47C212.664,425.626 212.739,425.783 212.797,425.946C212.856,426.109 212.882,426.283 212.936,426.447C213.006,426.657 213.122,426.983 213.216,427.205C213.3,427.404 213.388,427.709 213.504,427.784C213.619,427.86 213.79,427.633 213.911,427.658C214.031,427.684 214.134,427.832 214.227,427.938C214.439,428.179 214.878,428.706 215.182,429.107C215.486,429.508 215.774,429.922 216.051,430.342C216.329,430.762 216.596,431.19 216.847,431.626C217.098,432.062 217.333,432.509 217.558,432.959C217.783,433.409 217.995,433.866 218.199,434.327C218.402,434.788 218.596,435.253 218.777,435.723C218.958,436.192 219.131,436.666 219.286,437.145C219.44,437.624 219.58,438.109 219.704,438.596C219.827,439.084 219.935,439.577 220.028,440.072C220.12,440.567 220.212,441.074 220.258,441.564C220.304,442.044 220.17,442.547 220.307,443.01C220.505,443.682 221.154,444.702 221.449,445.597C221.758,446.535 221.983,447.612 222.161,448.636C222.339,449.659 222.455,450.7 222.517,451.737C222.58,452.774 222.536,454.857 222.536,454.857C222.504,455.907 222.447,456.974 222.1,457.942C221.754,458.909 221.117,459.778 220.333,460.462C219.549,461.145 218.616,461.642 217.653,462.043L214.682,462.991L211.599,463.476L208.488,463.326L205.432,462.693L202.474,461.7L199.681,460.309C198.783,459.773 197.92,459.161 197.227,458.393C196.533,457.625 196.009,456.701 195.717,455.71C195.424,454.719 195.362,453.591 195.282,452.618C195.206,451.705 195.336,450.518 195.234,449.87C195.167,449.451 194.861,449.101 194.665,448.731C194.472,448.366 194.25,448.017 194.058,447.652C193.865,447.287 193.688,446.914 193.509,446.542C193.331,446.169 193.159,445.794 192.988,445.418C192.817,445.043 192.639,444.669 192.483,444.288C192.326,443.906 192.148,443.452 192.049,443.128C191.971,442.872 192.02,442.575 191.89,442.341C191.755,442.096 191.347,441.773 191.238,441.659C191.237,441.657 191.235,441.657 191.234,441.656C191.162,441.6 190.947,441.437 190.807,441.324C190.656,441.2 190.458,441.029 190.324,440.916C190.215,440.824 190.087,440.716 189.999,440.641C189.931,440.583 189.865,440.524 189.799,440.464C189.727,440.399 189.644,440.324 189.568,440.252C189.486,440.175 189.391,440.084 189.303,439.998C189.207,439.905 189.074,439.774 188.994,439.694C188.935,439.636 188.878,439.577 188.82,439.519C188.759,439.458 188.693,439.391 188.63,439.327C188.564,439.26 188.477,439.171 188.424,439.118C188.388,439.08 188.351,439.043 188.315,439.005C188.277,438.967 188.238,438.927 188.2,438.888C188.162,438.849 188.123,438.809 188.085,438.77C188.047,438.732 188.01,438.693 187.973,438.655C187.919,438.599 187.829,438.507 187.76,438.436C187.694,438.367 187.626,438.297 187.562,438.23C187.5,438.166 187.438,438.102 187.377,438.037C187.299,437.954 187.146,437.792 187.091,437.733C187.077,437.718 187.062,437.702 187.048,437.687C186.994,437.628 186.855,437.476 186.768,437.38C186.689,437.291 186.605,437.196 186.532,437.111C186.464,437.033 186.397,436.955 186.331,436.876C186.243,436.77 186.114,436.612 186.006,436.48C185.866,436.309 185.641,436.037 185.492,435.85C185.363,435.688 185.216,435.506 185.113,435.357C185.025,435.229 184.963,435.084 184.877,434.955C184.761,434.781 184.619,434.484 184.419,434.314C184.178,434.109 183.739,433.899 183.436,433.724C183.161,433.566 182.867,433.43 182.601,433.268C182.339,433.108 182.048,432.894 181.84,432.751C181.676,432.639 181.481,432.504 181.35,432.411C181.251,432.341 181.152,432.269 181.055,432.196C180.949,432.117 180.826,432.024 180.713,431.936C180.589,431.84 180.445,431.727 180.313,431.62C180.168,431.503 179.966,431.336 179.844,431.234C179.755,431.161 179.667,431.086 179.58,431.011C179.488,430.933 179.389,430.848 179.294,430.766C179.195,430.68 179.064,430.565 178.985,430.495C178.93,430.447 178.875,430.399 178.821,430.351C178.765,430.301 178.707,430.249 178.651,430.199C178.594,430.148 178.536,430.096 178.48,430.046C178.425,429.996 178.371,429.947 178.316,429.897C178.237,429.825 178.106,429.705 178.007,429.614C177.911,429.525 177.813,429.433 177.721,429.347C177.633,429.264 177.545,429.181 177.458,429.097C177.337,428.98 177.137,428.786 176.995,428.645C176.864,428.515 176.726,428.373 176.607,428.25C176.497,428.137 176.382,428.014 176.282,427.906C176.19,427.806 176.098,427.706 176.009,427.604C175.889,427.468 175.711,427.264 175.565,427.092C175.376,426.87 175.07,426.511 174.874,426.269C174.708,426.064 174.512,425.816 174.388,425.644C174.295,425.514 174.199,425.382 174.131,425.238C174.063,425.094 174,424.913 173.98,424.78C173.963,424.666 173.993,424.545 174.013,424.437C174.033,424.332 174.082,424.204 174.102,424.13C174.114,424.083 174.127,424.035 174.133,423.989C174.139,423.945 174.143,423.899 174.139,423.855C174.134,423.811 174.117,423.759 174.105,423.727C174.097,423.704 174.083,423.684 174.069,423.665C174.055,423.644 174.037,423.623 174.018,423.604C174,423.585 173.979,423.566 173.959,423.551C173.939,423.537 173.919,423.522 173.897,423.513C173.865,423.5 173.807,423.481 173.768,423.474C173.734,423.468 173.687,423.472 173.664,423.472C173.653,423.472 173.642,423.473 173.632,423.475C173.602,423.479 173.535,423.49 173.487,423.5C173.41,423.517 173.274,423.56 173.172,423.576C173.074,423.592 172.933,423.595 172.875,423.598C172.858,423.599 172.84,423.6 172.824,423.593C172.703,423.54 172.28,423.346 172.149,423.281C172.108,423.26 172.071,423.225 172.037,423.2C172.007,423.177 171.976,423.155 171.947,423.131C171.824,423.029 171.511,422.773 171.301,422.586C171.048,422.361 170.669,422.006 170.432,421.783C170.246,421.608 170.029,421.394 169.882,421.249C169.771,421.139 169.662,421.027 169.554,420.913C169.436,420.79 169.301,420.645 169.177,420.508C169.042,420.359 168.885,420.184 168.743,420.019C168.588,419.839 168.376,419.584 168.247,419.429C168.155,419.318 168.065,419.205 167.974,419.092C167.88,418.974 167.78,418.847 167.684,418.723C167.584,418.594 167.454,418.423 167.375,418.32C167.321,418.249 167.268,418.177 167.214,418.105C167.16,418.032 167.104,417.956 167.049,417.881C166.994,417.806 166.938,417.73 166.885,417.656C166.832,417.584 166.78,417.512 166.729,417.439C166.654,417.334 166.531,417.159 166.439,417.026C166.35,416.899 166.26,416.766 166.176,416.642C166.096,416.524 166.017,416.405 165.939,416.286C165.832,416.12 165.655,415.845 165.532,415.648C165.42,415.467 165.302,415.27 165.203,415.101C165.111,414.945 165.016,414.777 164.935,414.631C164.86,414.497 164.786,414.362 164.716,414.226C164.622,414.045 164.484,413.777 164.373,413.551C164.231,413.261 164.004,412.794 163.864,412.486C163.746,412.227 163.614,411.926 163.529,411.7C163.459,411.512 163.388,411.294 163.356,411.125C163.33,410.982 163.34,410.82 163.341,410.69C163.342,410.574 163.34,410.457 163.364,410.344C163.395,410.2 163.634,409.971 163.527,409.824C163.392,409.638 162.839,409.446 162.552,409.228C162.278,409.021 162.014,408.792 161.806,408.519C161.502,408.119 160.982,407.24 160.729,406.833C160.574,406.584 160.425,406.322 160.286,406.073C160.151,405.832 160.013,405.593 159.896,405.343C159.615,404.737 158.989,403.423 158.597,402.438C158.022,400.991 156.446,396.661 156.446,396.661C155.797,394.711 155.236,392.731 154.825,390.717C154.413,388.703 154.151,386.655 154.104,384.602C154.058,382.55 154.228,380.493 154.677,378.556C155.125,376.619 155.853,374.801 156.892,373.082C157.931,371.363 159.282,369.743 160.994,368.315C162.706,366.888 164.781,365.653 165.943,365.076C165.572,366.096 164.555,366.973 163.735,367.958C162.916,368.943 162.293,370.037 161.88,371.202C161.468,372.368 161.264,373.606 161.211,374.836C161.158,376.066 161.255,377.288 161.469,378.512C161.682,379.736 161.893,380.675 162.653,382.327C162.83,382.712 163.239,383.456 163.239,383.456C163.514,381.721 163.932,379.972 164.83,378.534C165.74,377.076 168.009,375.612 168.646,375.027C168.648,375.025 168.651,375.025 168.653,375.023C168.794,374.816 169.215,374.2 169.493,373.787C169.771,373.374 170.047,372.959 170.322,372.543C170.596,372.128 170.872,371.712 171.139,371.292C171.406,370.872 171.664,370.445 171.925,370.021C172.186,369.597 172.426,369.158 172.708,368.748C172.99,368.339 173.281,367.93 173.615,367.563C173.949,367.196 174.711,366.549 174.711,366.549C174.711,366.549 175.192,367.468 175.377,367.951C175.594,368.515 175.719,369.301 176.008,369.931C176.312,370.596 176.223,370.839 177.206,371.942L178.332,371.248Z" style="fill:url(#_Linear1);fill-rule:nonzero;"/>
                    <clipPath id="_clip2">
                        <path d="M178.332,371.248L179.168,372.283L179.873,373.413L180.513,374.581L181.193,375.726L181.925,376.839L182.622,377.974L183.191,379.177L183.55,380.458L183.706,381.78L183.707,383.112L183.658,384.443L183.614,385.774L183.652,387.106L183.799,388.429L184.051,389.737L184.402,391.022L184.848,392.284L185.16,393.08L185.463,393.881L185.736,394.692L185.984,395.511C185.984,395.511 186.167,396.054 186.214,396.335C186.261,396.617 186.222,396.94 186.267,397.203C186.309,397.446 186.322,397.734 186.483,397.911C186.644,398.087 187.013,398.097 187.233,398.263C187.453,398.428 187.614,398.687 187.802,398.902C187.989,399.117 188.358,399.552 188.358,399.552L188.891,400.222C188.891,400.222 189.232,400.679 189.401,400.909C189.57,401.138 189.738,401.369 189.905,401.6C190.073,401.831 190.242,402.06 190.407,402.293C190.572,402.526 190.738,402.758 190.896,402.995C191.054,403.233 191.202,403.477 191.354,403.719C191.505,403.96 191.67,404.195 191.806,404.445C191.941,404.694 192.106,404.953 192.166,405.216C192.226,405.479 192.141,405.826 192.167,406.025C192.186,406.162 192.191,406.378 192.326,406.409C192.492,406.447 192.9,406.213 193.165,406.254C193.43,406.296 193.675,406.506 193.916,406.656C194.156,406.806 194.379,406.988 194.61,407.156C194.84,407.325 195.072,407.491 195.297,407.665C195.523,407.84 195.744,408.02 195.963,408.203C196.182,408.385 196.397,408.573 196.612,408.761C196.826,408.949 197.039,409.14 197.25,409.331C197.462,409.522 197.673,409.714 197.882,409.908C198.092,410.101 198.301,410.296 198.507,410.493C198.713,410.69 198.918,410.889 199.118,411.092C199.319,411.294 199.516,411.5 199.71,411.71C199.903,411.919 200.091,412.135 200.279,412.348C200.468,412.562 200.66,412.773 200.842,412.993C201.024,413.213 201.234,413.422 201.37,413.666C201.506,413.91 201.539,414.205 201.657,414.458C201.776,414.711 201.925,415.071 202.082,415.185C202.221,415.286 202.429,415.122 202.598,415.141C202.766,415.159 202.935,415.225 203.092,415.294C203.249,415.364 203.395,415.464 203.541,415.557C203.687,415.651 203.827,415.754 203.968,415.855C204.109,415.956 204.248,416.061 204.386,416.165C204.525,416.269 204.663,416.374 204.801,416.48C204.938,416.586 205.076,416.691 205.212,416.799C205.349,416.906 205.484,417.015 205.618,417.125C205.751,417.236 205.883,417.349 206.014,417.463C206.145,417.576 206.275,417.692 206.403,417.809C206.532,417.925 206.659,418.044 206.785,418.163C206.911,418.282 207.036,418.402 207.161,418.523C207.285,418.644 207.408,418.766 207.531,418.889C207.654,419.012 207.775,419.135 207.896,419.26C208.017,419.384 208.137,419.51 208.257,419.635C208.376,419.761 208.495,419.888 208.612,420.015C208.73,420.143 208.847,420.271 208.963,420.4C209.079,420.529 209.194,420.659 209.309,420.79C209.423,420.92 209.536,421.052 209.648,421.184C209.76,421.317 209.871,421.451 209.98,421.585C210.09,421.72 210.198,421.855 210.305,421.992C210.412,422.129 210.517,422.267 210.621,422.406C210.724,422.545 210.826,422.686 210.927,422.827C211.027,422.969 211.125,423.112 211.222,423.256C211.32,423.399 211.415,423.544 211.511,423.689C211.606,423.834 211.701,423.979 211.795,424.125C211.889,424.271 211.982,424.418 212.073,424.565C212.163,424.713 212.254,424.862 212.34,425.012C212.425,425.163 212.511,425.315 212.587,425.47C212.664,425.626 212.739,425.783 212.797,425.946C212.856,426.109 212.882,426.283 212.936,426.447C213.006,426.657 213.122,426.983 213.216,427.205C213.3,427.404 213.388,427.709 213.504,427.784C213.619,427.86 213.79,427.633 213.911,427.658C214.031,427.684 214.134,427.832 214.227,427.938C214.439,428.179 214.878,428.706 215.182,429.107C215.486,429.508 215.774,429.922 216.051,430.342C216.329,430.762 216.596,431.19 216.847,431.626C217.098,432.062 217.333,432.509 217.558,432.959C217.783,433.409 217.995,433.866 218.199,434.327C218.402,434.788 218.596,435.253 218.777,435.723C218.958,436.192 219.131,436.666 219.286,437.145C219.44,437.624 219.58,438.109 219.704,438.596C219.827,439.084 219.935,439.577 220.028,440.072C220.12,440.567 220.212,441.074 220.258,441.564C220.304,442.044 220.17,442.547 220.307,443.01C220.505,443.682 221.154,444.702 221.449,445.597C221.758,446.535 221.983,447.612 222.161,448.636C222.339,449.659 222.455,450.7 222.517,451.737C222.58,452.774 222.536,454.857 222.536,454.857C222.504,455.907 222.447,456.974 222.1,457.942C221.754,458.909 221.117,459.778 220.333,460.462C219.549,461.145 218.616,461.642 217.653,462.043L214.682,462.991L211.599,463.476L208.488,463.326L205.432,462.693L202.474,461.7L199.681,460.309C198.783,459.773 197.92,459.161 197.227,458.393C196.533,457.625 196.009,456.701 195.717,455.71C195.424,454.719 195.362,453.591 195.282,452.618C195.206,451.705 195.336,450.518 195.234,449.87C195.167,449.451 194.861,449.101 194.665,448.731C194.472,448.366 194.25,448.017 194.058,447.652C193.865,447.287 193.688,446.914 193.509,446.542C193.331,446.169 193.159,445.794 192.988,445.418C192.817,445.043 192.639,444.669 192.483,444.288C192.326,443.906 192.148,443.452 192.049,443.128C191.971,442.872 192.02,442.575 191.89,442.341C191.755,442.096 191.347,441.773 191.238,441.659C191.237,441.657 191.235,441.657 191.234,441.656C191.162,441.6 190.947,441.437 190.807,441.324C190.656,441.2 190.458,441.029 190.324,440.916C190.215,440.824 190.087,440.716 189.999,440.641C189.931,440.583 189.865,440.524 189.799,440.464C189.727,440.399 189.644,440.324 189.568,440.252C189.486,440.175 189.391,440.084 189.303,439.998C189.207,439.905 189.074,439.774 188.994,439.694C188.935,439.636 188.878,439.577 188.82,439.519C188.759,439.458 188.693,439.391 188.63,439.327C188.564,439.26 188.477,439.171 188.424,439.118C188.388,439.08 188.351,439.043 188.315,439.005C188.277,438.967 188.238,438.927 188.2,438.888C188.162,438.849 188.123,438.809 188.085,438.77C188.047,438.732 188.01,438.693 187.973,438.655C187.919,438.599 187.829,438.507 187.76,438.436C187.694,438.367 187.626,438.297 187.562,438.23C187.5,438.166 187.438,438.102 187.377,438.037C187.299,437.954 187.146,437.792 187.091,437.733C187.077,437.718 187.062,437.702 187.048,437.687C186.994,437.628 186.855,437.476 186.768,437.38C186.689,437.291 186.605,437.196 186.532,437.111C186.464,437.033 186.397,436.955 186.331,436.876C186.243,436.77 186.114,436.612 186.006,436.48C185.866,436.309 185.641,436.037 185.492,435.85C185.363,435.688 185.216,435.506 185.113,435.357C185.025,435.229 184.963,435.084 184.877,434.955C184.761,434.781 184.619,434.484 184.419,434.314C184.178,434.109 183.739,433.899 183.436,433.724C183.161,433.566 182.867,433.43 182.601,433.268C182.339,433.108 182.048,432.894 181.84,432.751C181.676,432.639 181.481,432.504 181.35,432.411C181.251,432.341 181.152,432.269 181.055,432.196C180.949,432.117 180.826,432.024 180.713,431.936C180.589,431.84 180.445,431.727 180.313,431.62C180.168,431.503 179.966,431.336 179.844,431.234C179.755,431.161 179.667,431.086 179.58,431.011C179.488,430.933 179.389,430.848 179.294,430.766C179.195,430.68 179.064,430.565 178.985,430.495C178.93,430.447 178.875,430.399 178.821,430.351C178.765,430.301 178.707,430.249 178.651,430.199C178.594,430.148 178.536,430.096 178.48,430.046C178.425,429.996 178.371,429.947 178.316,429.897C178.237,429.825 178.106,429.705 178.007,429.614C177.911,429.525 177.813,429.433 177.721,429.347C177.633,429.264 177.545,429.181 177.458,429.097C177.337,428.98 177.137,428.786 176.995,428.645C176.864,428.515 176.726,428.373 176.607,428.25C176.497,428.137 176.382,428.014 176.282,427.906C176.19,427.806 176.098,427.706 176.009,427.604C175.889,427.468 175.711,427.264 175.565,427.092C175.376,426.87 175.07,426.511 174.874,426.269C174.708,426.064 174.512,425.816 174.388,425.644C174.295,425.514 174.199,425.382 174.131,425.238C174.063,425.094 174,424.913 173.98,424.78C173.963,424.666 173.993,424.545 174.013,424.437C174.033,424.332 174.082,424.204 174.102,424.13C174.114,424.083 174.127,424.035 174.133,423.989C174.139,423.945 174.143,423.899 174.139,423.855C174.134,423.811 174.117,423.759 174.105,423.727C174.097,423.704 174.083,423.684 174.069,423.665C174.055,423.644 174.037,423.623 174.018,423.604C174,423.585 173.979,423.566 173.959,423.551C173.939,423.537 173.919,423.522 173.897,423.513C173.865,423.5 173.807,423.481 173.768,423.474C173.734,423.468 173.687,423.472 173.664,423.472C173.653,423.472 173.642,423.473 173.632,423.475C173.602,423.479 173.535,423.49 173.487,423.5C173.41,423.517 173.274,423.56 173.172,423.576C173.074,423.592 172.933,423.595 172.875,423.598C172.858,423.599 172.84,423.6 172.824,423.593C172.703,423.54 172.28,423.346 172.149,423.281C172.108,423.26 172.071,423.225 172.037,423.2C172.007,423.177 171.976,423.155 171.947,423.131C171.824,423.029 171.511,422.773 171.301,422.586C171.048,422.361 170.669,422.006 170.432,421.783C170.246,421.608 170.029,421.394 169.882,421.249C169.771,421.139 169.662,421.027 169.554,420.913C169.436,420.79 169.301,420.645 169.177,420.508C169.042,420.359 168.885,420.184 168.743,420.019C168.588,419.839 168.376,419.584 168.247,419.429C168.155,419.318 168.065,419.205 167.974,419.092C167.88,418.974 167.78,418.847 167.684,418.723C167.584,418.594 167.454,418.423 167.375,418.32C167.321,418.249 167.268,418.177 167.214,418.105C167.16,418.032 167.104,417.956 167.049,417.881C166.994,417.806 166.938,417.73 166.885,417.656C166.832,417.584 166.78,417.512 166.729,417.439C166.654,417.334 166.531,417.159 166.439,417.026C166.35,416.899 166.26,416.766 166.176,416.642C166.096,416.524 166.017,416.405 165.939,416.286C165.832,416.12 165.655,415.845 165.532,415.648C165.42,415.467 165.302,415.27 165.203,415.101C165.111,414.945 165.016,414.777 164.935,414.631C164.86,414.497 164.786,414.362 164.716,414.226C164.622,414.045 164.484,413.777 164.373,413.551C164.231,413.261 164.004,412.794 163.864,412.486C163.746,412.227 163.614,411.926 163.529,411.7C163.459,411.512 163.388,411.294 163.356,411.125C163.33,410.982 163.34,410.82 163.341,410.69C163.342,410.574 163.34,410.457 163.364,410.344C163.395,410.2 163.634,409.971 163.527,409.824C163.392,409.638 162.839,409.446 162.552,409.228C162.278,409.021 162.014,408.792 161.806,408.519C161.502,408.119 160.982,407.24 160.729,406.833C160.574,406.584 160.425,406.322 160.286,406.073C160.151,405.832 160.013,405.593 159.896,405.343C159.615,404.737 158.989,403.423 158.597,402.438C158.022,400.991 156.446,396.661 156.446,396.661C155.797,394.711 155.236,392.731 154.825,390.717C154.413,388.703 154.151,386.655 154.104,384.602C154.058,382.55 154.228,380.493 154.677,378.556C155.125,376.619 155.853,374.801 156.892,373.082C157.931,371.363 159.282,369.743 160.994,368.315C162.706,366.888 164.781,365.653 165.943,365.076C165.572,366.096 164.555,366.973 163.735,367.958C162.916,368.943 162.293,370.037 161.88,371.202C161.468,372.368 161.264,373.606 161.211,374.836C161.158,376.066 161.255,377.288 161.469,378.512C161.682,379.736 161.893,380.675 162.653,382.327C162.83,382.712 163.239,383.456 163.239,383.456C163.514,381.721 163.932,379.972 164.83,378.534C165.74,377.076 168.009,375.612 168.646,375.027C168.648,375.025 168.651,375.025 168.653,375.023C168.794,374.816 169.215,374.2 169.493,373.787C169.771,373.374 170.047,372.959 170.322,372.543C170.596,372.128 170.872,371.712 171.139,371.292C171.406,370.872 171.664,370.445 171.925,370.021C172.186,369.597 172.426,369.158 172.708,368.748C172.99,368.339 173.281,367.93 173.615,367.563C173.949,367.196 174.711,366.549 174.711,366.549C174.711,366.549 175.192,367.468 175.377,367.951C175.594,368.515 175.719,369.301 176.008,369.931C176.312,370.596 176.223,370.839 177.206,371.942L178.332,371.248Z" clip-rule="nonzero"/>
                    </clipPath>
                    <g clip-path="url(#_clip2)">
                        <g transform="matrix(10.8608,0,0,11.0023,-528.355,-2357.05)">
                            <path d="M67.14,252.508C67.123,252.552 67.104,252.597 67.084,252.642C67.014,252.796 66.921,252.951 66.791,253.084C66.695,253.184 66.586,253.271 66.474,253.346C66.437,253.372 66.399,253.396 66.362,253.419L66.358,253.421C66.317,253.444 66.276,253.464 66.235,253.483C66.121,253.536 66.011,253.577 65.914,253.607C65.719,253.668 65.582,253.688 65.582,253.688C65.556,253.694 65.539,253.721 65.546,253.747C65.552,253.774 65.579,253.79 65.606,253.784C65.606,253.784 65.741,253.739 65.931,253.651C66.024,253.608 66.13,253.555 66.24,253.492C66.279,253.469 66.318,253.446 66.358,253.421L66.362,253.419C66.4,253.398 66.439,253.375 66.477,253.35C66.59,253.276 66.7,253.19 66.798,253.09C66.894,252.99 66.971,252.879 67.031,252.765C67.074,252.683 67.109,252.601 67.136,252.52L67.14,252.508L67.145,252.495C67.165,252.443 67.183,252.393 67.199,252.344C67.228,252.259 67.25,252.18 67.267,252.112C67.304,251.967 67.315,251.871 67.315,251.871C67.315,251.844 67.293,251.821 67.266,251.821C67.238,251.821 67.216,251.842 67.215,251.869C67.215,251.869 67.224,251.958 67.214,252.097C67.21,252.164 67.202,252.242 67.185,252.327C67.174,252.385 67.159,252.446 67.14,252.508Z" style="fill:rgb(36,15,7);"/>
                        </g>
                        <g transform="matrix(13.2951,0,0,8.3961,-680.836,-1687.87)">
                            <path d="M66.888,253.193C66.846,253.257 66.8,253.316 66.749,253.367C66.644,253.477 66.526,253.555 66.406,253.611C66.334,253.645 66.261,253.67 66.19,253.687C66.15,253.697 66.11,253.704 66.072,253.709C66.03,253.714 65.99,253.716 65.952,253.716C65.9,253.717 65.852,253.714 65.809,253.71C65.68,253.698 65.598,253.672 65.598,253.672C65.576,253.668 65.556,253.694 65.554,253.73C65.551,253.765 65.568,253.796 65.59,253.8C65.59,253.8 65.677,253.8 65.81,253.78C65.873,253.771 65.946,253.757 66.025,253.738C66.062,253.729 66.1,253.719 66.139,253.708C66.194,253.693 66.251,253.676 66.308,253.654C66.341,253.641 66.374,253.627 66.406,253.611C66.412,253.609 66.418,253.606 66.424,253.603C66.537,253.549 66.649,253.473 66.75,253.369C66.8,253.316 66.846,253.257 66.888,253.193C66.927,253.135 66.962,253.072 66.994,253.008C67.042,252.912 67.082,252.812 67.118,252.713C67.141,252.649 67.162,252.585 67.181,252.524C67.214,252.417 67.239,252.316 67.26,252.226C67.307,252.022 67.325,251.878 67.325,251.878C67.327,251.842 67.311,251.81 67.289,251.806C67.267,251.802 67.247,251.827 67.244,251.862C67.244,251.862 67.241,252.002 67.213,252.205C67.2,252.296 67.183,252.4 67.159,252.509C67.144,252.573 67.128,252.638 67.108,252.704C67.076,252.806 67.038,252.908 66.992,253.006C66.961,253.071 66.926,253.134 66.888,253.193Z" style="fill:rgb(36,15,7);"/>
                        </g>
                        <g transform="matrix(15.6776,0,0,4.10133,-833.592,-590.905)">
                            <path d="M65.57,253.86C65.57,253.86 65.667,253.957 65.815,254.028C65.853,254.046 65.894,254.063 65.937,254.077C65.976,254.089 66.017,254.1 66.06,254.106C66.099,254.112 66.14,254.114 66.182,254.112C66.222,254.11 66.263,254.104 66.304,254.093C66.384,254.073 66.465,254.034 66.545,253.957C66.709,253.807 66.848,253.514 66.962,253.199C67.175,252.611 67.294,251.94 67.294,251.94C67.304,251.879 67.299,251.797 67.283,251.759C67.267,251.72 67.246,251.738 67.236,251.8C67.236,251.8 67.134,252.477 66.94,253.092C66.834,253.428 66.701,253.743 66.543,253.925C66.464,254.013 66.383,254.069 66.304,254.092C66.263,254.105 66.222,254.108 66.182,254.105C66.14,254.102 66.099,254.091 66.06,254.075C66.018,254.058 65.978,254.035 65.94,254.008C65.897,253.977 65.858,253.943 65.821,253.906C65.682,253.766 65.593,253.612 65.593,253.612C65.575,253.587 65.556,253.624 65.549,253.692C65.543,253.761 65.552,253.836 65.57,253.86Z" style="fill:rgb(36,15,7);"/>
                        </g>
                        <g transform="matrix(11.8053,0,0,10.34,-601.263,-2199.49)">
                            <path d="M67.07,252.445L67.067,252.452C67.04,252.507 67.01,252.564 66.978,252.621C66.896,252.765 66.795,252.911 66.67,253.039C66.544,253.171 66.404,253.282 66.27,253.377C66.236,253.401 66.201,253.424 66.168,253.447L66.163,253.45C66.133,253.468 66.103,253.484 66.074,253.499C66.026,253.524 65.979,253.545 65.936,253.564C65.885,253.587 65.837,253.605 65.795,253.621C65.664,253.668 65.58,253.686 65.58,253.686C65.556,253.694 65.543,253.724 65.55,253.751C65.558,253.779 65.583,253.794 65.608,253.786C65.608,253.786 65.688,253.746 65.813,253.672C65.871,253.638 65.938,253.597 66.012,253.549C66.061,253.518 66.113,253.484 66.167,253.448C66.236,253.406 66.307,253.359 66.379,253.306C66.48,253.231 66.582,253.144 66.676,253.047C66.769,252.951 66.848,252.846 66.916,252.739C66.964,252.661 67.007,252.583 67.043,252.506C67.053,252.486 67.062,252.465 67.07,252.445C67.089,252.408 67.106,252.372 67.123,252.337C67.162,252.255 67.196,252.18 67.223,252.115C67.282,251.974 67.31,251.881 67.31,251.881C67.315,251.853 67.299,251.825 67.275,251.819C67.25,251.813 67.226,251.831 67.22,251.859C67.22,251.859 67.215,251.936 67.189,252.058C67.177,252.115 67.162,252.182 67.14,252.255C67.13,252.288 67.119,252.322 67.106,252.358C67.095,252.386 67.083,252.416 67.07,252.445Z" style="fill:rgb(36,15,7);"/>
                        </g>
                        <g transform="matrix(14.3045,0,0,7.01797,-775.328,-1370.7)">
                            <path d="M67.026,252.528C66.982,252.62 66.935,252.718 66.881,252.814C66.787,252.983 66.677,253.148 66.551,253.276C66.428,253.405 66.301,253.497 66.182,253.565C66.138,253.59 66.096,253.612 66.055,253.632C66.033,253.64 66.01,253.648 65.988,253.654C65.954,253.663 65.921,253.669 65.89,253.673C65.846,253.679 65.806,253.681 65.771,253.681C65.661,253.68 65.595,253.659 65.595,253.659C65.574,253.658 65.557,253.692 65.556,253.734C65.556,253.777 65.572,253.812 65.593,253.813C65.593,253.813 65.662,253.799 65.774,253.756C65.81,253.742 65.849,253.726 65.892,253.707C65.92,253.695 65.949,253.682 65.979,253.667C65.998,253.658 66.018,253.649 66.038,253.64C66.043,253.637 66.049,253.634 66.055,253.632C66.066,253.628 66.076,253.624 66.086,253.619C66.148,253.594 66.213,253.56 66.279,253.518C66.37,253.461 66.463,253.386 66.555,253.292C66.715,253.125 66.851,252.902 66.958,252.68C66.982,252.629 67.005,252.579 67.026,252.529L67.096,252.38C67.136,252.295 67.17,252.219 67.199,252.152C67.263,252.003 67.298,251.907 67.298,251.907C67.308,251.87 67.301,251.823 67.283,251.803C67.265,251.782 67.242,251.796 67.232,251.833C67.232,251.833 67.212,251.941 67.167,252.106C67.146,252.183 67.12,252.272 67.087,252.366C67.069,252.419 67.049,252.473 67.026,252.528Z" style="fill:rgb(36,15,7);"/>
                        </g>
                    </g>
                    <path d="M160.267,411.364C160.276,411.476 160.29,411.587 160.31,411.693C160.369,412.012 160.494,412.429 160.626,412.783C160.732,413.068 160.896,413.446 161.044,413.772C161.195,414.102 161.438,414.603 161.59,414.913C161.712,415.162 161.863,415.457 161.966,415.654C162.05,415.817 162.138,415.978 162.227,416.138C162.319,416.303 162.427,416.495 162.531,416.671C162.643,416.861 162.775,417.082 162.901,417.284C163.033,417.497 163.222,417.792 163.338,417.97C163.426,418.106 163.516,418.241 163.607,418.375C163.697,418.509 163.796,418.654 163.892,418.792L164.374,419.473L164.908,420.196C164.991,420.305 165.13,420.486 165.236,420.623C165.34,420.757 165.449,420.896 165.552,421.024C165.654,421.153 165.757,421.281 165.862,421.408C166,421.574 166.229,421.848 166.395,422.041C166.554,422.226 166.729,422.423 166.881,422.59C167.022,422.745 167.176,422.91 167.309,423.05C167.438,423.185 167.569,423.32 167.702,423.451C167.863,423.611 168.102,423.846 168.307,424.039C168.561,424.278 168.969,424.659 169.24,424.901C169.476,425.11 169.825,425.397 169.962,425.511C170.038,425.574 170.116,425.633 170.195,425.692C170.171,425.674 170.119,425.634 170.119,425.634C170.119,425.634 170.539,425.94 170.764,426.053C170.847,426.095 171.027,426.179 171.2,426.259C171.24,426.364 171.284,426.466 171.33,426.562C171.478,426.876 171.67,427.172 171.874,427.455C172.026,427.666 172.265,427.972 172.469,428.224C172.678,428.48 173.003,428.863 173.204,429.099C173.362,429.285 173.554,429.506 173.683,429.653C173.79,429.774 173.899,429.893 174.008,430.011C174.122,430.134 174.253,430.273 174.377,430.402C174.509,430.539 174.663,430.696 174.809,430.841C174.961,430.992 175.174,431.2 175.304,431.325L175.903,431.889L176.763,432.668L177.264,433.107L177.864,433.618C177.994,433.727 178.21,433.905 178.365,434.03C178.513,434.15 178.674,434.277 178.812,434.384C178.942,434.485 179.082,434.591 179.204,434.681C179.322,434.769 179.44,434.856 179.56,434.941C179.701,435.04 179.911,435.186 180.088,435.308C180.333,435.476 180.679,435.726 180.987,435.914C181.275,436.09 181.593,436.239 181.89,436.411L182.263,436.619C182.311,436.704 182.463,436.972 182.558,437.11C182.697,437.312 182.892,437.56 183.066,437.779L183.948,438.857C184.028,438.953 184.109,439.048 184.191,439.142C184.275,439.239 184.371,439.349 184.463,439.45L184.833,439.855L185.533,440.591L186.62,441.701L187.143,442.22C187.243,442.318 187.352,442.422 187.447,442.511C187.537,442.596 187.636,442.686 187.722,442.764C187.806,442.841 187.892,442.916 187.978,442.991L188.852,443.728L189.046,443.881C189.058,443.936 189.071,443.986 189.085,444.03C189.206,444.43 189.422,444.992 189.615,445.463C189.787,445.881 189.98,446.291 190.168,446.703C190.347,447.097 190.528,447.49 190.715,447.88C190.91,448.289 191.106,448.698 191.317,449.098C191.511,449.465 191.733,449.816 191.927,450.182C191.993,450.307 192.109,450.5 192.199,450.647C192.23,451.264 192.134,452.16 192.193,452.874C192.29,454.044 192.393,455.397 192.745,456.588C193.168,458.021 193.924,459.358 194.927,460.469C194.927,460.469 194.927,460.47 194.927,460.47C195.825,461.464 196.929,462.275 198.092,462.97C198.16,463.01 198.229,463.048 198.3,463.083L201.093,464.474C201.22,464.537 201.352,464.592 201.487,464.637L204.446,465.631C204.563,465.67 204.683,465.702 204.804,465.727L207.86,466.36C208.017,466.393 208.178,466.413 208.339,466.421L211.45,466.572C211.661,466.582 211.872,466.57 212.081,466.538L215.163,466.053C215.319,466.028 215.473,465.992 215.624,465.943L218.595,464.995C218.679,464.968 218.762,464.938 218.843,464.904C220.114,464.375 221.333,463.7 222.368,462.798C222.368,462.798 222.368,462.798 222.368,462.798C223.551,461.768 224.495,460.446 225.018,458.987C225.472,457.718 225.592,456.327 225.633,454.95C225.633,454.941 225.634,454.932 225.634,454.922C225.634,454.922 225.678,452.671 225.611,451.551C225.541,450.398 225.412,449.242 225.214,448.105C225.01,446.933 224.746,445.701 224.393,444.627C224.136,443.848 223.593,442.974 223.349,442.334C223.358,442.077 223.371,441.563 223.344,441.271C223.288,440.691 223.184,440.088 223.074,439.502C222.969,438.943 222.847,438.386 222.707,437.835C222.568,437.283 222.41,436.735 222.235,436.194C222.063,435.66 221.87,435.131 221.668,434.607C221.47,434.092 221.257,433.581 221.034,433.076C220.811,432.57 220.577,432.067 220.329,431.572C220.077,431.068 219.814,430.568 219.533,430.079C219.25,429.588 218.949,429.106 218.636,428.633C218.322,428.158 217.995,427.688 217.651,427.234C217.302,426.774 216.799,426.17 216.556,425.893C216.344,425.652 216.086,425.422 215.808,425.224C215.78,425.116 215.753,425.008 215.716,424.904C215.619,424.632 215.498,424.366 215.37,424.106C215.266,423.893 215.15,423.686 215.033,423.48C214.93,423.299 214.822,423.121 214.714,422.944C214.612,422.779 214.509,422.616 214.404,422.453C214.303,422.296 214.201,422.14 214.099,421.984C213.996,421.828 213.892,421.671 213.787,421.516C213.678,421.356 213.568,421.195 213.456,421.037C213.341,420.875 213.225,420.715 213.107,420.556C212.989,420.398 212.869,420.241 212.748,420.086C212.629,419.932 212.507,419.78 212.384,419.629C212.263,419.48 212.14,419.332 212.016,419.185C211.893,419.04 211.769,418.895 211.643,418.752C211.519,418.609 211.394,418.468 211.268,418.328C211.142,418.189 211.016,418.05 210.888,417.912C210.762,417.775 210.634,417.639 210.506,417.504C210.378,417.368 210.249,417.234 210.119,417.1C209.988,416.966 209.857,416.832 209.724,416.7C209.591,416.566 209.457,416.434 209.322,416.302C209.186,416.17 209.049,416.038 208.911,415.908C208.771,415.776 208.629,415.644 208.487,415.515C208.342,415.383 208.196,415.253 208.048,415.124C207.898,414.994 207.747,414.865 207.594,414.738C207.442,414.613 207.288,414.489 207.133,414.367C206.986,414.25 206.836,414.136 206.687,414.021C206.541,413.909 206.395,413.797 206.247,413.687C206.091,413.57 205.935,413.452 205.777,413.338C205.591,413.204 205.404,413.07 205.211,412.946C204.932,412.768 204.644,412.592 204.344,412.46L204.191,412.395C204.153,412.306 204.114,412.225 204.078,412.159C203.852,411.753 203.532,411.383 203.23,411.018C203.027,410.773 202.814,410.537 202.603,410.298C202.399,410.067 202.196,409.834 201.986,409.607C201.769,409.371 201.547,409.14 201.322,408.912C201.102,408.69 200.877,408.472 200.65,408.255C200.432,408.046 200.21,407.839 199.987,407.633C199.769,407.431 199.548,407.23 199.327,407.03C199.104,406.829 198.88,406.628 198.654,406.43C198.421,406.225 198.186,406.021 197.947,405.822C197.699,405.615 197.448,405.411 197.192,405.213C196.945,405.022 196.69,404.839 196.438,404.654C196.147,404.442 195.861,404.217 195.557,404.027C195.336,403.889 195.104,403.752 194.865,403.629C194.762,403.403 194.646,403.181 194.53,402.967C194.363,402.661 194.165,402.368 193.979,402.071C193.813,401.807 193.65,401.541 193.478,401.282C193.302,401.017 193.118,400.758 192.934,400.499C192.762,400.257 192.587,400.018 192.412,399.778C192.241,399.542 192.07,399.306 191.897,399.071L191.316,398.293L190.722,397.549C190.722,397.549 190.334,397.091 190.137,396.865C189.864,396.552 189.592,396.215 189.287,395.944L189.27,395.824C189.196,395.38 188.921,394.522 188.921,394.522L188.95,394.614L188.673,393.701L188.362,392.786L188.045,391.948L187.752,391.201C187.752,391.201 187.362,390.097 187.362,390.097C187.362,390.097 187.072,389.035 187.072,389.035C187.072,389.035 186.865,387.963 186.865,387.963C186.865,387.963 186.746,386.889 186.746,386.889C186.746,386.889 186.714,385.782 186.714,385.782C186.714,385.782 186.755,384.551 186.755,384.551C186.755,384.551 186.804,383.225 186.804,383.225C186.805,383.187 186.806,383.148 186.806,383.11L186.805,381.778C186.805,381.657 186.798,381.536 186.784,381.416L186.627,380.095C186.608,379.935 186.577,379.778 186.534,379.623L186.175,378.342C186.128,378.174 186.067,378.01 185.993,377.852L185.424,376.649C185.376,376.548 185.322,376.449 185.263,376.353L184.514,375.136L183.821,374.082C183.821,374.082 183.204,373.045 183.204,373.045C183.204,373.045 182.591,371.925 182.591,371.925C182.563,371.873 182.533,371.822 182.502,371.772L181.797,370.643C181.731,370.536 181.658,370.434 181.579,370.336L180.743,369.301C180.206,368.636 179.445,368.247 178.648,368.166C178.506,367.706 178.415,367.218 178.271,366.842C178.043,366.246 177.456,365.111 177.456,365.111C177.019,364.276 176.227,363.686 175.302,363.506C174.377,363.327 173.421,363.577 172.703,364.188C172.703,364.188 171.746,365.013 171.324,365.476C170.896,365.947 170.516,366.467 170.154,366.992C169.843,367.444 169.576,367.927 169.287,368.395C169.033,368.807 168.783,369.221 168.524,369.63C168.266,370.035 168,370.435 167.735,370.836C167.466,371.244 167.195,371.651 166.922,372.056L166.318,372.945C165.861,373.328 165.101,373.908 164.331,374.582C164.391,373.786 164.535,372.991 164.802,372.237C165.094,371.411 165.537,370.638 166.118,369.94C166.118,369.94 166.118,369.94 166.118,369.94C167.176,368.668 168.376,367.452 168.855,366.135C169.289,364.945 168.953,363.61 168.008,362.765C167.064,361.921 165.7,361.737 164.565,362.3C163.26,362.948 160.931,364.333 159.009,365.935C157.018,367.595 155.449,369.48 154.24,371.479C154.24,371.479 154.24,371.479 154.24,371.479C153.03,373.482 152.181,375.599 151.658,377.856C151.152,380.04 150.954,382.358 151.006,384.672C151.006,384.672 151.006,384.672 151.006,384.672C151.057,386.909 151.34,389.142 151.788,391.337C152.225,393.473 152.817,395.573 153.506,397.64C153.515,397.667 153.524,397.694 153.534,397.721C153.534,397.721 155.134,402.114 155.717,403.582C156.131,404.622 156.789,406.009 157.086,406.648C157.234,406.968 157.408,407.276 157.58,407.584C157.742,407.874 157.917,408.179 158.097,408.469C158.387,408.936 158.992,409.938 159.34,410.395C159.611,410.75 159.926,411.072 160.267,411.364ZM178.332,371.248L179.168,372.283L179.873,373.413L180.513,374.581L181.193,375.726L181.925,376.839L182.622,377.974L183.191,379.177L183.55,380.458L183.706,381.78L183.707,383.112L183.658,384.443L183.614,385.774L183.652,387.106L183.799,388.429L184.051,389.737L184.402,391.022L184.848,392.284L185.16,393.08L185.463,393.881L185.736,394.692L185.984,395.511C185.984,395.511 186.167,396.054 186.214,396.335C186.261,396.617 186.222,396.94 186.267,397.203C186.309,397.446 186.322,397.734 186.483,397.911C186.644,398.087 187.013,398.097 187.233,398.263C187.453,398.428 187.614,398.687 187.802,398.902C187.989,399.117 188.358,399.552 188.358,399.552L188.891,400.222C188.891,400.222 189.232,400.679 189.401,400.909L190.407,402.293C190.572,402.526 190.738,402.758 190.896,402.995C191.054,403.233 191.202,403.477 191.354,403.719C191.505,403.96 191.67,404.195 191.806,404.445C191.941,404.694 192.106,404.953 192.166,405.216C192.226,405.479 192.141,405.826 192.167,406.025C192.186,406.162 192.191,406.378 192.326,406.409C192.492,406.447 192.9,406.213 193.165,406.254C193.43,406.296 193.675,406.506 193.916,406.656C194.156,406.806 194.379,406.988 194.61,407.156C194.84,407.325 195.072,407.491 195.297,407.665C195.523,407.84 195.744,408.02 195.963,408.203C196.182,408.385 196.397,408.573 196.612,408.761C196.826,408.949 197.039,409.14 197.25,409.331C197.462,409.522 197.673,409.714 197.882,409.908C198.092,410.101 198.301,410.296 198.507,410.493C198.713,410.69 198.918,410.889 199.118,411.092C199.319,411.294 199.516,411.5 199.71,411.71C199.903,411.919 200.091,412.135 200.279,412.348C200.468,412.562 200.66,412.773 200.842,412.993C201.024,413.213 201.234,413.422 201.37,413.666C201.506,413.91 201.539,414.205 201.657,414.458C201.776,414.711 201.925,415.071 202.082,415.185C202.221,415.286 202.429,415.122 202.598,415.141C202.766,415.159 202.935,415.225 203.092,415.294C203.249,415.364 203.395,415.464 203.541,415.557C203.687,415.651 203.827,415.754 203.968,415.855C204.109,415.956 204.248,416.061 204.386,416.165L205.212,416.799C205.349,416.906 205.484,417.015 205.618,417.125C205.751,417.236 205.883,417.349 206.014,417.463C206.145,417.576 206.275,417.692 206.403,417.809C206.532,417.925 206.659,418.044 206.785,418.163C206.911,418.282 207.036,418.402 207.161,418.523C207.285,418.644 207.408,418.766 207.531,418.889C207.654,419.012 207.775,419.135 207.896,419.26C208.017,419.384 208.137,419.51 208.257,419.635C208.376,419.761 208.495,419.888 208.612,420.015C208.73,420.143 208.847,420.271 208.963,420.4C209.079,420.529 209.194,420.659 209.309,420.79C209.423,420.92 209.536,421.052 209.648,421.184C209.76,421.317 209.871,421.451 209.98,421.585C210.09,421.72 210.198,421.855 210.305,421.992C210.412,422.129 210.517,422.267 210.621,422.406C210.724,422.545 210.826,422.686 210.927,422.827C211.027,422.969 211.125,423.112 211.222,423.256C211.32,423.399 211.415,423.544 211.511,423.689C211.606,423.834 211.701,423.979 211.795,424.125C211.889,424.271 211.982,424.418 212.073,424.565C212.163,424.713 212.254,424.862 212.34,425.012C212.425,425.163 212.511,425.315 212.587,425.47C212.664,425.626 212.739,425.783 212.797,425.946C212.856,426.109 212.882,426.283 212.936,426.447C213.006,426.657 213.122,426.983 213.216,427.205C213.3,427.404 213.388,427.709 213.504,427.784C213.619,427.86 213.79,427.633 213.911,427.658C214.031,427.684 214.134,427.832 214.227,427.938C214.439,428.179 214.878,428.706 215.182,429.107C215.486,429.508 215.774,429.922 216.051,430.342C216.329,430.762 216.596,431.19 216.847,431.626C217.098,432.062 217.333,432.509 217.558,432.959C217.783,433.409 217.995,433.866 218.199,434.327C218.402,434.788 218.596,435.253 218.777,435.723C218.958,436.192 219.131,436.666 219.286,437.145C219.44,437.624 219.58,438.109 219.704,438.596C219.827,439.084 219.935,439.577 220.028,440.072C220.12,440.567 220.212,441.074 220.258,441.564C220.304,442.044 220.17,442.547 220.307,443.01C220.505,443.682 221.154,444.702 221.449,445.597C221.758,446.535 221.983,447.612 222.161,448.636C222.339,449.659 222.455,450.7 222.517,451.737C222.58,452.774 222.536,454.857 222.536,454.857C222.504,455.907 222.447,456.974 222.1,457.942C221.754,458.909 221.117,459.778 220.333,460.462C219.549,461.145 218.616,461.642 217.653,462.043L214.682,462.991L211.599,463.476L208.488,463.326L205.432,462.693L202.474,461.7L199.681,460.309C198.783,459.773 197.92,459.161 197.227,458.393C196.533,457.625 196.009,456.701 195.717,455.71C195.424,454.719 195.362,453.591 195.282,452.618C195.206,451.705 195.336,450.518 195.234,449.87C195.167,449.451 194.861,449.101 194.665,448.731C194.472,448.366 194.25,448.017 194.058,447.652C193.865,447.287 193.688,446.914 193.509,446.542C193.331,446.169 193.159,445.794 192.988,445.418C192.817,445.043 192.639,444.669 192.483,444.288C192.326,443.906 192.148,443.452 192.049,443.128C191.971,442.872 192.02,442.575 191.89,442.341C191.755,442.096 191.347,441.773 191.238,441.659C191.237,441.657 191.235,441.657 191.234,441.656C191.162,441.6 190.947,441.437 190.807,441.324L189.999,440.641L189.568,440.252C189.486,440.175 189.391,440.084 189.303,439.998L188.63,439.327L187.562,438.23L187.048,437.687C186.994,437.628 186.855,437.476 186.768,437.38L186.331,436.876L185.492,435.85C185.363,435.688 185.216,435.506 185.113,435.357C185.025,435.229 184.963,435.084 184.877,434.955C184.761,434.781 184.619,434.484 184.419,434.314C184.178,434.109 183.739,433.899 183.436,433.724C183.161,433.566 182.867,433.43 182.601,433.268C182.339,433.108 182.048,432.894 181.84,432.751C181.676,432.639 181.481,432.504 181.35,432.411C181.251,432.341 181.152,432.269 181.055,432.196C180.949,432.117 180.826,432.024 180.713,431.936C180.589,431.84 180.445,431.727 180.313,431.62C180.168,431.503 179.966,431.336 179.844,431.234L179.294,430.766L178.48,430.046L178.007,429.614L177.458,429.097C177.337,428.98 177.137,428.786 176.995,428.645C176.864,428.515 176.726,428.373 176.607,428.25C176.497,428.137 176.382,428.014 176.282,427.906C176.19,427.806 176.098,427.706 176.009,427.604C175.889,427.468 175.711,427.264 175.565,427.092C175.376,426.87 175.07,426.511 174.874,426.269C174.708,426.064 174.512,425.816 174.388,425.644C174.295,425.514 174.199,425.382 174.131,425.238C174.063,425.094 174,424.913 173.98,424.78C173.963,424.666 173.993,424.545 174.013,424.437C174.033,424.332 174.082,424.204 174.102,424.13C174.114,424.083 174.127,424.035 174.133,423.989C174.139,423.945 174.143,423.899 174.139,423.855C174.134,423.811 174.117,423.759 174.105,423.727C174.097,423.704 174.083,423.684 174.069,423.665C174.055,423.644 174.037,423.623 174.018,423.604C174,423.585 173.979,423.566 173.959,423.551C173.939,423.537 173.919,423.522 173.897,423.513C173.865,423.5 173.807,423.481 173.768,423.474C173.734,423.468 173.687,423.472 173.664,423.472L173.487,423.5C173.41,423.517 173.274,423.56 173.172,423.576C173.074,423.592 172.933,423.595 172.875,423.598C172.858,423.599 172.84,423.6 172.824,423.593C172.703,423.54 172.28,423.346 172.149,423.281C172.108,423.26 172.071,423.225 172.037,423.2C172.007,423.177 171.976,423.155 171.947,423.131C171.824,423.029 171.511,422.773 171.301,422.586C171.048,422.361 170.669,422.006 170.432,421.783C170.246,421.608 170.029,421.394 169.882,421.249C169.771,421.139 169.662,421.027 169.554,420.913C169.436,420.79 169.301,420.645 169.177,420.508C169.042,420.359 168.885,420.184 168.743,420.019C168.588,419.839 168.376,419.584 168.247,419.429C168.155,419.318 168.065,419.205 167.974,419.092C167.88,418.974 167.78,418.847 167.684,418.723L167.214,418.105L166.729,417.439C166.654,417.334 166.531,417.159 166.439,417.026C166.35,416.899 166.26,416.766 166.176,416.642C166.096,416.524 166.017,416.405 165.939,416.286C165.832,416.12 165.655,415.845 165.532,415.648C165.42,415.467 165.302,415.27 165.203,415.101C165.111,414.945 165.016,414.777 164.935,414.631C164.86,414.497 164.786,414.362 164.716,414.226C164.622,414.045 164.484,413.777 164.373,413.551C164.231,413.261 164.004,412.794 163.864,412.486C163.746,412.227 163.614,411.926 163.529,411.7C163.459,411.512 163.388,411.294 163.356,411.125C163.33,410.982 163.34,410.82 163.341,410.69C163.342,410.574 163.34,410.457 163.364,410.344C163.395,410.2 163.634,409.971 163.527,409.824C163.392,409.638 162.839,409.446 162.552,409.228C162.278,409.021 162.014,408.792 161.806,408.519C161.502,408.119 160.982,407.24 160.729,406.833C160.574,406.584 160.425,406.322 160.286,406.073C160.151,405.832 160.013,405.593 159.896,405.343C159.615,404.737 158.989,403.423 158.597,402.438C158.022,400.991 156.446,396.661 156.446,396.661C155.797,394.711 155.236,392.731 154.825,390.717C154.413,388.703 154.151,386.655 154.104,384.602C154.058,382.55 154.228,380.493 154.677,378.556C155.125,376.619 155.853,374.801 156.892,373.082C157.931,371.363 159.282,369.743 160.994,368.315C162.706,366.888 164.781,365.653 165.943,365.076C165.572,366.096 164.555,366.973 163.735,367.958C162.916,368.943 162.293,370.037 161.88,371.202C161.468,372.368 161.264,373.606 161.211,374.836C161.158,376.066 161.255,377.288 161.469,378.512C161.682,379.736 161.893,380.675 162.653,382.327C162.83,382.712 163.239,383.456 163.239,383.456C163.514,381.721 163.932,379.972 164.83,378.534C165.74,377.076 168.009,375.612 168.646,375.027C168.648,375.025 168.651,375.025 168.653,375.023C168.794,374.816 169.215,374.2 169.493,373.787C169.771,373.374 170.047,372.959 170.322,372.543C170.596,372.128 170.872,371.712 171.139,371.292C171.406,370.872 171.664,370.445 171.925,370.021C172.186,369.597 172.426,369.158 172.708,368.748C172.99,368.339 173.281,367.93 173.615,367.563C173.949,367.196 174.711,366.549 174.711,366.549C174.711,366.549 175.192,367.468 175.377,367.951C175.594,368.515 175.719,369.301 176.008,369.931C176.312,370.596 176.223,370.839 177.206,371.942L178.332,371.248ZM189.037,443.838L189.001,443.803L189.037,443.838ZM174.121,426.535L174.124,426.534C174.13,426.533 174.144,426.529 174.154,426.527L174.121,426.535Z" style="fill:rgb(36,15,7);"/>
                </g>
                <g transform="matrix(0.645372,0,0,0.645372,204.2,-66.1652)">
                    <path d="M163.76,394.412L161.922,390.035L160.038,385.678C159.486,384.199 159.067,382.674 158.759,381.152C158.45,379.629 158.254,378.109 158.365,376.565C158.476,375.02 158.895,373.451 159.586,372.02C160.276,370.589 161.238,369.296 162.478,368.011C163.717,366.726 165.235,365.449 165.943,365.076C165.572,366.096 164.555,366.973 163.735,367.958C162.916,368.943 162.293,370.037 161.88,371.202C161.468,372.368 161.264,373.606 161.211,374.836C161.158,376.066 161.255,377.288 161.469,378.512C161.682,379.736 162.011,380.961 162.653,382.327L163.239,383.456L163.228,383.527C162.953,385.285 162.821,387.024 162.889,388.768C162.956,390.512 163.223,392.261 163.646,393.967L163.76,394.412Z" style="fill:url(#_Linear3);fill-rule:nonzero;"/>
                </g>
                <g transform="matrix(0.645372,0,0,0.645372,204.2,-66.1652)">
                    <path d="M168.653,375.023C168.653,375.023 169.215,374.2 169.493,373.787C169.771,373.374 170.047,372.959 170.322,372.543C170.596,372.128 170.872,371.712 171.139,371.292C171.406,370.872 171.664,370.445 171.925,370.021C172.186,369.597 172.426,369.158 172.708,368.748C172.99,368.339 173.281,367.93 173.615,367.563C173.949,367.196 174.711,366.549 174.711,366.549C174.711,366.549 174.887,366.771 174.964,366.889C175.041,367.008 175.11,367.133 175.173,367.259C175.236,367.386 175.29,367.518 175.342,367.649C175.394,367.781 175.44,367.915 175.484,368.05C175.537,368.215 175.605,368.442 175.66,368.639C175.747,368.953 175.818,369.527 176.008,369.931C176.265,370.481 176.223,370.839 177.206,371.942C175.846,372.63 174.604,372.597 173.344,373.051C171.918,373.564 170.154,374.115 168.653,375.023Z" style="fill:url(#_Linear4);fill-rule:nonzero;"/>
                </g>
            </g>
            <g id="worm1">
                <g transform="matrix(0.645372,0,0,0.645372,204.2,-66.1652)">
                    <path d="M256.905,467.725C256.789,468.04 256.625,468.734 256.46,469.23C256.296,469.727 256.118,470.221 255.919,470.705C255.719,471.189 255.5,471.666 255.264,472.133C255.029,472.6 254.773,473.058 254.506,473.509C254.239,473.959 253.957,474.401 253.664,474.835C253.371,475.269 253.068,475.697 252.749,476.112C252.43,476.527 252.1,476.935 251.752,477.326C251.404,477.716 251.036,478.091 250.659,478.454C250.282,478.817 249.737,479.286 249.49,479.503C249.389,479.592 249.266,479.656 249.179,479.758C249.084,479.867 249.012,480.028 248.923,480.16C248.783,480.369 248.51,480.767 248.334,481.015C248.183,481.228 247.995,481.48 247.869,481.648C247.774,481.774 247.721,481.956 247.576,482.02C246.558,482.471 243.911,484.146 241.762,484.354C239.612,484.563 237.48,484.467 235.369,484.178C233.258,483.888 231.167,483.404 229.144,482.692C227.121,481.979 225.166,481.037 223.34,480.004C221.515,478.97 219.818,477.845 218.382,476.182C216.945,474.52 215.768,472.321 216.353,470.66C216.938,468.998 219.285,467.874 221.164,467.763L221.338,467.434L221.969,466.428L222.667,465.467L223.413,464.542L224.213,463.664L225.04,462.812L225.892,461.983L226.791,461.204L227.058,460.593L227.769,459.193L228.533,457.82L229.374,456.491L229.475,455.541L229.755,453.897L230.092,452.263L230.509,450.648L231.035,449.065L230.921,448.022L230.793,446.287L230.785,444.547L230.835,442.807L230.947,441.071L231.176,439.346L231.555,437.649L231.202,436.62L230.967,435.536L230.752,434.448L230.581,433.352L230.449,432.251L230.337,431.148L230.238,430.043L230.159,428.937L230.125,427.829L230.133,426.72L230.143,425.612L230.648,424.653C230.905,424.358 231.238,424.08 231.118,423.924L230.096,423.523C229.765,423.312 229.677,422.923 229.57,422.559L229.216,421.508L228.879,420.451L228.59,419.381L228.336,418.301L228.101,417.217L227.881,416.13L227.683,415.039L227.52,413.942C227.52,413.942 227.44,413.207 227.404,412.839C227.368,412.471 227.324,412.103 227.305,411.734C227.285,411.366 227.234,410.986 227.286,410.627C227.339,410.268 227.553,409.772 227.62,409.58C227.634,409.539 227.713,409.504 227.687,409.471C227.559,409.306 227.076,408.926 226.857,408.593C226.638,408.26 226.521,407.851 226.375,407.471C226.229,407.091 226.107,406.701 225.981,406.314C225.854,405.927 225.617,405.147 225.617,405.147L225.31,403.964L225.047,402.77L224.815,401.57L224.61,400.365L224.438,399.154L224.312,397.938C224.312,397.938 224.261,397.125 224.244,396.718C224.227,396.311 224.208,395.903 224.208,395.496C224.207,395.089 224.182,394.673 224.242,394.275C224.302,393.876 224.491,393.342 224.57,393.105C224.601,393.012 224.747,392.944 224.716,392.851C224.562,392.391 223.822,391.261 223.646,390.343L223.208,387.603L223.027,384.834L223.038,382.059L223.248,379.292L223.706,376.556C223.931,375.636 224.251,374.699 225.269,374.463L225.309,374.428L225.294,374.384C224.915,374.149 224.613,373.73 224.429,373.343C224.245,372.956 224.225,372.495 224.191,372.061C224.157,371.623 224.193,371.161 224.226,370.713C224.26,370.26 224.325,369.797 224.393,369.342C224.463,368.878 224.541,368.397 224.643,367.931C224.748,367.451 224.916,366.935 225.022,366.461C225.125,366.005 225.183,365.54 225.283,365.083C225.508,364.054 226.178,361.13 226.373,360.283C226.395,360.188 226.433,360.098 226.453,360.002C226.649,359.05 227.552,354.567 227.552,354.567L228.724,349.147C229.193,347.36 229.778,345.603 230.527,343.908C231.275,342.214 232.186,340.582 233.356,339.163C234.525,337.744 235.955,336.539 237.464,335.456C238.974,334.374 240.563,333.414 242.273,332.719C243.982,332.025 245.811,331.595 247.978,331.553C247.696,333.469 248.19,335.142 248.519,336.431L249.155,339.535L249.399,342.268L249.063,344.998L248.496,347.692L247.803,350.515L250.06,353.433L250.61,354.061L252.392,351.718L254.326,349.474L256.4,347.366L258.455,345.261L260.208,342.876L261.828,340.423C262.379,339.611 262.957,338.806 263.1,337.469C263.329,338.242 263.452,339.062 263.408,339.867L262.954,342.247L262.415,344.615L261.989,347.006L261.478,349.38L260.85,351.727L260.146,354.051L259.416,356.368L258.71,358.692L258.041,361.026L257.41,363.372C257.41,363.372 257.01,364.941 256.825,365.729C256.64,366.518 256.464,367.308 256.299,368.101C256.135,368.893 255.992,369.69 255.838,370.485C255.685,371.28 255.56,372.082 255.381,372.871C255.202,373.66 255.098,374.521 254.763,375.219C254.431,375.912 253.492,376.649 253.372,377.057C253.287,377.345 253.924,377.385 254.042,377.662C254.219,378.08 254.347,378.922 254.436,379.562C254.526,380.205 254.55,380.864 254.579,381.516C254.609,382.169 254.607,382.823 254.612,383.476C254.616,384.129 254.628,384.783 254.606,385.435C254.584,386.088 254.573,386.748 254.483,387.391C254.392,388.034 254.048,388.845 254.065,389.294C254.077,389.61 254.449,389.802 254.586,390.086C254.741,390.407 254.864,390.836 254.992,391.215C255.12,391.593 255.242,391.975 255.354,392.358C255.466,392.742 255.568,393.129 255.664,393.517C255.76,393.905 255.844,394.296 255.929,394.687C256.014,395.078 256.094,395.47 256.172,395.862C256.251,396.254 256.328,396.646 256.399,397.04C256.469,397.433 256.538,397.827 256.594,398.223C256.65,398.619 256.693,399.017 256.735,399.414C256.776,399.812 256.821,400.21 256.845,400.609C256.868,401.008 256.932,401.419 256.877,401.807C256.821,402.194 256.543,402.726 256.511,402.934C256.5,403.004 256.64,403.002 256.687,403.055C256.846,403.233 257.253,403.654 257.462,404.002C257.671,404.349 257.788,404.758 257.938,405.141C258.088,405.525 258.228,405.913 258.363,406.302C258.497,406.691 258.628,407.082 258.747,407.476C258.866,407.871 258.974,408.269 259.078,408.667C259.182,409.066 259.278,409.467 259.371,409.868C259.465,410.269 259.554,410.671 259.639,411.074C259.724,411.477 259.806,411.881 259.881,412.286C259.955,412.691 260.027,413.097 260.087,413.505C260.147,413.912 260.199,414.321 260.243,414.731C260.286,415.14 260.318,415.551 260.349,415.962C260.379,416.373 260.43,416.786 260.426,417.195C260.422,417.605 260.432,418.025 260.325,418.421C260.215,418.828 259.747,419.34 259.768,419.639C259.79,419.936 260.263,419.988 260.453,420.214C260.643,420.44 260.793,420.717 260.909,420.996C261.045,421.323 261.16,421.78 261.268,422.177C261.376,422.574 261.466,422.977 261.557,423.379C261.648,423.781 261.738,424.183 261.814,424.588C261.89,424.992 261.954,425.4 262.013,425.807C262.071,426.215 262.12,426.624 262.165,427.034C262.21,427.443 262.248,427.854 262.282,428.264C262.316,428.675 262.346,429.086 262.37,429.497C262.393,429.908 262.413,430.32 262.424,430.731C262.436,431.143 262.442,431.555 262.436,431.967C262.43,432.379 262.412,432.791 262.389,433.202C262.366,433.613 262.334,434.024 262.296,434.434C262.258,434.844 262.232,435.258 262.162,435.663C262.091,436.067 261.939,436.615 261.872,436.862C261.845,436.96 261.74,437.044 261.757,437.143C261.813,437.47 262.099,438.252 262.205,438.82C262.311,439.387 262.346,439.972 262.394,440.55C262.442,441.128 262.48,441.707 262.494,442.287C262.508,442.866 262.495,443.447 262.476,444.027C262.456,444.606 262.42,445.186 262.375,445.764C262.329,446.342 262.276,446.921 262.202,447.496C262.129,448.071 262.043,448.646 261.933,449.215C261.823,449.784 261.687,450.349 261.541,450.91C261.395,451.471 261.163,452.229 261.054,452.58C261.008,452.729 260.897,452.86 260.887,453.016C260.862,453.366 260.921,454.127 260.908,454.683C260.894,455.238 260.859,455.795 260.806,456.348C260.752,456.901 260.679,457.453 260.587,458.001C260.494,458.549 260.379,459.094 260.253,459.635C260.127,460.177 259.985,460.715 259.831,461.249C259.676,461.783 259.51,462.315 259.324,462.838C259.138,463.362 258.938,463.882 258.714,464.39C258.49,464.899 258.24,465.397 257.981,465.888C257.721,466.38 257.336,467.032 257.156,467.338C257.079,467.471 256.958,467.58 256.905,467.725Z" style="fill:url(#_Linear5);fill-rule:nonzero;"/>
                    <path d="M223.436,359.286C223.409,359.375 223.372,359.505 223.353,359.587C223.156,360.44 222.482,363.385 222.255,364.422C222.156,364.872 222.1,365.332 221.999,365.782C221.891,366.262 221.722,366.784 221.615,367.27C221.499,367.803 221.408,368.352 221.329,368.882C221.249,369.414 221.175,369.954 221.135,370.483C221.091,371.087 221.056,371.709 221.101,372.3C221.144,372.858 221.217,373.433 221.372,373.973C221.075,374.54 220.856,375.166 220.696,375.818C220.678,375.893 220.662,375.968 220.65,376.044L220.192,378.781C220.176,378.873 220.165,378.965 220.158,379.058L219.948,381.825C219.943,381.899 219.94,381.973 219.939,382.046L219.928,384.821C219.928,384.893 219.93,384.965 219.935,385.036L220.115,387.805C220.122,387.901 220.132,387.997 220.148,388.092L220.586,390.832C220.591,390.864 220.596,390.896 220.603,390.928C220.713,391.501 221.064,392.346 221.362,392.996C221.286,393.271 221.216,393.56 221.178,393.811C221.095,394.362 221.108,394.935 221.109,395.498C221.109,395.949 221.129,396.4 221.148,396.85C221.166,397.277 221.219,398.131 221.219,398.131C221.221,398.173 221.225,398.216 221.229,398.259L221.356,399.474C221.36,399.513 221.364,399.552 221.37,399.591L221.555,400.885L221.773,402.158L222.021,403.436L222.284,404.63C222.292,404.667 222.301,404.704 222.31,404.74L222.616,405.924C222.627,405.966 222.639,406.009 222.652,406.051C222.652,406.051 222.902,406.869 223.034,407.275C223.177,407.713 223.317,408.154 223.482,408.583C223.696,409.138 223.906,409.717 224.216,410.212C224.14,410.76 224.18,411.338 224.21,411.899C224.232,412.313 224.279,412.726 224.319,413.14C224.356,413.52 224.439,414.278 224.439,414.278C224.443,414.318 224.449,414.358 224.454,414.397L224.634,415.594L224.844,416.745L225.072,417.872L225.319,419.012L225.598,420.188L225.887,421.258C225.899,421.303 225.912,421.348 225.926,421.393L226.279,422.496L226.616,423.499C226.753,423.95 226.928,424.384 227.158,424.781C227.084,425.042 227.046,425.313 227.044,425.586L227.026,427.804C227.025,427.844 227.026,427.885 227.027,427.926L227.062,429.034C227.063,429.075 227.065,429.115 227.068,429.156L227.151,430.321L227.254,431.461L227.372,432.621L227.519,433.829L227.69,434.925C227.696,434.966 227.704,435.007 227.712,435.048L227.938,436.195L228.174,437.278C228.2,437.396 228.232,437.512 228.271,437.626L228.34,437.827C228.34,437.827 228.152,438.669 228.152,438.669C228.132,438.759 228.116,438.848 228.104,438.939L227.875,440.664C227.866,440.733 227.859,440.802 227.855,440.871L227.742,442.607C227.74,442.644 227.738,442.681 227.737,442.718L227.687,444.458C227.686,444.493 227.685,444.528 227.686,444.563L227.694,446.303C227.695,446.373 227.698,446.444 227.703,446.515L227.83,448.25L227.881,448.73C227.881,448.73 227.568,449.671 227.568,449.671C227.546,449.737 227.526,449.805 227.509,449.873L227.091,451.488C227.079,451.538 227.067,451.587 227.057,451.638L226.72,453.271C226.713,453.306 226.706,453.341 226.7,453.377L226.42,455.021L226.369,455.444C226.369,455.444 225.914,456.163 225.914,456.163C225.883,456.212 225.854,456.262 225.825,456.312L225.061,457.685C225.042,457.72 225.023,457.755 225.005,457.79L224.294,459.191L224.233,459.32L223.863,459.64C223.818,459.68 223.774,459.72 223.731,459.762L222.816,460.653L221.923,461.576L221.122,462.454C221.08,462.5 221.04,462.548 221.001,462.596L220.255,463.521C220.222,463.561 220.19,463.603 220.159,463.645L219.461,464.607L219.238,464.95C218.084,465.242 216.927,465.748 215.972,466.422C214.758,467.278 213.864,468.399 213.43,469.631C212.989,470.883 212.996,472.298 213.436,473.745C213.902,475.277 214.89,476.882 216.037,478.209C217.716,480.152 219.68,481.492 221.814,482.7C223.795,483.822 225.918,484.841 228.114,485.615C228.114,485.615 228.114,485.615 228.114,485.615C230.335,486.397 232.63,486.93 234.948,487.248C237.297,487.57 239.669,487.671 242.061,487.439C244.547,487.198 247.654,485.375 248.832,484.853C249.528,484.545 250.484,483.306 250.484,483.306C250.484,483.306 250.393,483.449 250.344,483.513C250.485,483.326 250.694,483.045 250.863,482.806C251.051,482.54 251.344,482.113 251.496,481.888L251.526,481.839L251.538,481.829C251.806,481.593 252.399,481.082 252.809,480.687C253.242,480.27 253.664,479.838 254.064,479.389C254.463,478.942 254.842,478.475 255.207,478C255.564,477.534 255.905,477.055 256.233,476.569C256.56,476.084 256.875,475.591 257.172,475.088C257.475,474.577 257.765,474.058 258.032,473.528C258.303,472.99 258.555,472.442 258.784,471.886C259.011,471.334 259.215,470.771 259.402,470.205C259.519,469.852 259.633,469.393 259.729,469.063C259.768,469.006 259.804,468.949 259.831,468.904C260.024,468.573 260.44,467.867 260.721,467.336C261.014,466.78 261.296,466.215 261.55,465.64C261.804,465.062 262.033,464.471 262.244,463.876C262.451,463.295 262.635,462.705 262.807,462.112C262.977,461.525 263.133,460.933 263.271,460.338C263.412,459.734 263.54,459.126 263.643,458.515C263.747,457.896 263.83,457.271 263.891,456.646C263.951,456.019 263.99,455.387 264.006,454.758C264.014,454.399 263.986,453.948 263.977,453.6L264.013,453.5C264.131,453.12 264.381,452.3 264.54,451.693C264.703,451.068 264.852,450.438 264.975,449.804C265.098,449.17 265.194,448.53 265.276,447.889C265.356,447.264 265.415,446.636 265.464,446.007C265.513,445.384 265.551,444.758 265.573,444.133C265.595,443.494 265.607,442.853 265.592,442.214C265.577,441.573 265.535,440.931 265.482,440.292C265.425,439.61 265.377,438.921 265.251,438.25C265.2,437.975 265.088,437.554 264.988,437.199C265.07,436.884 265.16,436.506 265.215,436.196C265.3,435.709 265.336,435.213 265.382,434.719C265.423,434.273 265.458,433.825 265.483,433.378C265.509,432.923 265.528,432.467 265.535,432.011C265.541,431.557 265.535,431.102 265.522,430.648C265.51,430.205 265.489,429.761 265.463,429.318C265.438,428.881 265.407,428.444 265.37,428.007C265.334,427.57 265.293,427.133 265.246,426.696C265.197,426.253 265.144,425.809 265.08,425.367C265.016,424.915 264.944,424.464 264.86,424.015C264.777,423.573 264.679,423.134 264.579,422.695C264.479,422.25 264.378,421.804 264.259,421.364C264.116,420.84 263.951,420.24 263.771,419.807C263.657,419.533 263.523,419.261 263.371,419.002C263.498,418.422 263.519,417.819 263.525,417.225C263.53,416.729 263.476,416.229 263.439,415.732C263.406,415.288 263.371,414.845 263.324,414.402C263.276,413.951 263.219,413.5 263.153,413.051C263.087,412.607 263.009,412.165 262.928,411.724C262.849,411.294 262.761,410.864 262.671,410.436C262.582,410.011 262.488,409.587 262.389,409.164C262.29,408.737 262.187,408.31 262.076,407.885C261.962,407.448 261.844,407.012 261.714,406.58C261.583,406.146 261.439,405.716 261.291,405.287C261.142,404.86 260.989,404.433 260.824,404.012C260.611,403.468 260.415,402.901 260.12,402.408C260.071,402.327 260.015,402.242 259.954,402.157C260.023,401.594 259.972,401.001 259.938,400.425C259.912,399.98 259.863,399.535 259.817,399.09C259.771,398.656 259.723,398.222 259.662,397.789C259.601,397.356 259.526,396.925 259.449,396.495C259.375,396.081 259.294,395.668 259.211,395.255C259.13,394.846 259.046,394.438 258.957,394.03C258.867,393.611 258.775,393.191 258.673,392.774C258.566,392.344 258.453,391.916 258.329,391.49C258.205,391.065 258.07,390.642 257.928,390.222C257.759,389.723 257.581,389.162 257.377,388.739L257.362,388.712C257.441,388.395 257.519,388.054 257.552,387.821C257.657,387.07 257.678,386.3 257.703,385.538C257.726,384.844 257.715,384.149 257.711,383.455C257.706,382.762 257.706,382.069 257.675,381.377C257.642,380.629 257.608,379.872 257.505,379.134C257.422,378.535 257.292,377.817 257.14,377.228C257.314,376.986 257.465,376.751 257.557,376.56C257.987,375.664 258.173,374.571 258.403,373.557C258.59,372.735 258.722,371.9 258.882,371.071C259.032,370.291 259.172,369.508 259.334,368.73C259.493,367.964 259.663,367.2 259.842,366.438C260.007,365.737 260.345,364.404 260.404,364.171C260.408,364.155 261.027,361.856 261.027,361.856C261.027,361.856 261.682,359.569 261.682,359.569C261.682,359.569 262.376,357.284 262.376,357.284L263.112,354.95L263.816,352.625C263.826,352.593 263.835,352.56 263.844,352.527L264.472,350.181C264.485,350.132 264.497,350.082 264.507,350.032L265.018,347.658C265.026,347.622 265.033,347.586 265.04,347.55L265.453,345.231C265.453,345.231 265.975,342.935 265.975,342.935C265.983,342.899 265.991,342.864 265.998,342.828L266.452,340.447C266.478,340.312 266.494,340.175 266.502,340.037C266.566,338.88 266.401,337.699 266.071,336.588C265.651,335.172 264.29,334.249 262.819,334.383C261.347,334.517 260.176,335.671 260.019,337.14C259.942,337.854 259.558,338.25 259.263,338.684L257.665,341.102C257.665,341.102 256.086,343.251 256.086,343.251C256.086,343.251 254.187,345.197 254.187,345.197C254.187,345.197 252.117,347.3 252.117,347.3C252.07,347.349 252.023,347.399 251.979,347.45L251.628,347.858L252.096,345.637C252.114,345.551 252.128,345.464 252.139,345.376L252.475,342.646C252.501,342.429 252.505,342.21 252.486,341.992L252.242,339.26C252.231,339.144 252.214,339.028 252.191,338.914L251.555,335.809C251.545,335.761 251.534,335.712 251.522,335.664C251.274,334.694 250.832,333.445 251.044,332.004C251.177,331.102 250.906,330.188 250.303,329.504C249.701,328.82 248.828,328.436 247.917,328.454C245.33,328.505 243.147,329.019 241.106,329.848C241.106,329.848 241.106,329.848 241.106,329.848C239.171,330.635 237.367,331.713 235.658,332.938C233.93,334.177 232.304,335.567 230.965,337.191C230.965,337.191 230.965,337.191 230.965,337.191C229.616,338.827 228.555,340.702 227.692,342.656C226.877,344.502 226.237,346.415 225.726,348.361C225.715,348.405 225.704,348.448 225.695,348.492L224.514,353.955C224.514,353.955 223.665,358.173 223.436,359.286ZM256.905,467.725C256.789,468.04 256.625,468.734 256.46,469.23C256.296,469.727 256.118,470.221 255.919,470.705C255.719,471.189 255.5,471.666 255.264,472.133C255.029,472.6 254.773,473.058 254.506,473.509C254.239,473.959 253.957,474.401 253.664,474.835C253.371,475.269 253.068,475.697 252.749,476.112C252.43,476.527 252.1,476.935 251.752,477.326C251.404,477.716 251.036,478.091 250.659,478.454C250.282,478.817 249.737,479.286 249.49,479.503C249.389,479.592 249.266,479.656 249.179,479.758C249.084,479.867 249.012,480.028 248.923,480.16C248.783,480.369 248.51,480.767 248.334,481.015C248.183,481.228 247.995,481.48 247.869,481.648C247.774,481.774 247.721,481.956 247.576,482.02C246.558,482.471 243.911,484.146 241.762,484.354C239.612,484.563 237.48,484.467 235.369,484.178C233.258,483.888 231.167,483.404 229.144,482.692C227.121,481.979 225.166,481.037 223.34,480.004C221.515,478.97 219.818,477.845 218.382,476.182C216.945,474.52 215.768,472.321 216.353,470.66C216.938,468.998 219.285,467.874 221.164,467.763L221.338,467.434L221.969,466.428L222.667,465.467L223.413,464.542L224.213,463.664L225.04,462.812L225.892,461.983L226.791,461.204L227.058,460.593L227.769,459.193L228.533,457.82L229.374,456.491L229.475,455.541L229.755,453.897L230.092,452.263L230.509,450.648L231.035,449.065L230.921,448.022L230.793,446.287L230.785,444.547L230.835,442.807L230.947,441.071L231.176,439.346L231.555,437.649L231.202,436.62L230.967,435.536L230.752,434.448L230.581,433.352L230.449,432.251L230.337,431.148L230.238,430.043L230.159,428.937L230.125,427.829L230.143,425.612L230.648,424.653C230.905,424.358 231.238,424.08 231.118,423.924L230.096,423.523C229.765,423.312 229.677,422.923 229.57,422.559L229.216,421.508L228.879,420.451L228.59,419.381L228.336,418.301L228.101,417.217L227.881,416.13L227.683,415.039L227.52,413.942C227.52,413.942 227.44,413.207 227.404,412.839C227.368,412.471 227.324,412.103 227.305,411.734C227.285,411.366 227.234,410.986 227.286,410.627C227.339,410.268 227.553,409.772 227.62,409.58C227.634,409.539 227.713,409.504 227.687,409.471C227.559,409.306 227.076,408.926 226.857,408.593C226.638,408.26 226.521,407.851 226.375,407.471C226.229,407.091 226.107,406.701 225.981,406.314C225.854,405.927 225.617,405.147 225.617,405.147L225.31,403.964L225.047,402.77L224.815,401.57L224.61,400.365L224.438,399.154L224.312,397.938C224.312,397.938 224.261,397.125 224.244,396.718C224.227,396.311 224.208,395.903 224.208,395.496C224.207,395.089 224.182,394.673 224.242,394.275C224.302,393.876 224.491,393.342 224.57,393.105C224.601,393.012 224.747,392.944 224.716,392.851C224.562,392.391 223.822,391.261 223.646,390.343L223.208,387.603L223.027,384.834L223.038,382.059L223.248,379.292L223.706,376.556C223.931,375.636 224.251,374.699 225.269,374.463L225.309,374.428L225.294,374.384C224.915,374.149 224.613,373.73 224.429,373.343C224.245,372.956 224.225,372.495 224.191,372.061C224.157,371.623 224.193,371.161 224.226,370.713C224.26,370.26 224.325,369.797 224.393,369.342C224.463,368.878 224.541,368.397 224.643,367.931C224.748,367.451 224.916,366.935 225.022,366.461C225.125,366.005 225.183,365.54 225.283,365.083C225.508,364.054 226.178,361.13 226.373,360.283C226.395,360.188 226.433,360.098 226.453,360.002C226.649,359.05 227.552,354.567 227.552,354.567L228.724,349.147C229.193,347.36 229.778,345.603 230.527,343.908C231.275,342.214 232.186,340.582 233.356,339.163C234.525,337.744 235.955,336.539 237.464,335.456C238.974,334.374 240.563,333.414 242.273,332.719C243.982,332.025 245.811,331.595 247.978,331.553C247.696,333.469 248.19,335.142 248.519,336.431L249.155,339.535L249.399,342.268L249.063,344.998L248.496,347.692L247.803,350.515L250.06,353.433L250.61,354.061L252.392,351.718L254.326,349.474L256.4,347.366L258.455,345.261L260.208,342.876L261.828,340.423C262.379,339.611 262.957,338.806 263.1,337.469C263.329,338.242 263.452,339.062 263.408,339.867L262.954,342.247L262.415,344.615L261.989,347.006L261.478,349.38L260.85,351.727L260.146,354.051L259.416,356.368L258.71,358.692L258.041,361.026L257.41,363.372C257.41,363.372 257.01,364.941 256.825,365.729C256.64,366.518 256.464,367.308 256.299,368.101C256.135,368.893 255.992,369.69 255.838,370.485C255.685,371.28 255.56,372.082 255.381,372.871C255.202,373.66 255.098,374.521 254.763,375.219C254.431,375.912 253.492,376.649 253.372,377.057C253.287,377.345 253.924,377.385 254.042,377.662C254.219,378.08 254.347,378.922 254.436,379.562C254.526,380.205 254.55,380.864 254.579,381.516C254.609,382.169 254.607,382.823 254.612,383.476C254.616,384.129 254.628,384.783 254.606,385.435C254.584,386.088 254.573,386.748 254.483,387.391C254.392,388.034 254.048,388.845 254.065,389.294C254.077,389.61 254.449,389.802 254.586,390.086C254.741,390.407 254.864,390.836 254.992,391.215C255.12,391.593 255.242,391.975 255.354,392.358C255.466,392.742 255.568,393.129 255.664,393.517C255.76,393.905 255.844,394.296 255.929,394.687C256.014,395.078 256.094,395.47 256.172,395.862C256.251,396.254 256.328,396.646 256.399,397.04C256.469,397.433 256.538,397.827 256.594,398.223C256.65,398.619 256.693,399.017 256.735,399.414C256.776,399.812 256.821,400.21 256.845,400.609C256.868,401.008 256.932,401.419 256.877,401.807C256.821,402.194 256.543,402.726 256.511,402.934C256.5,403.004 256.64,403.002 256.687,403.055C256.846,403.233 257.253,403.654 257.462,404.002C257.671,404.349 257.788,404.758 257.938,405.141C258.088,405.525 258.228,405.913 258.363,406.302C258.497,406.691 258.628,407.082 258.747,407.476C258.866,407.871 258.974,408.269 259.078,408.667C259.182,409.066 259.278,409.467 259.371,409.868C259.465,410.269 259.554,410.671 259.639,411.074C259.724,411.477 259.806,411.881 259.881,412.286C259.955,412.691 260.027,413.097 260.087,413.505C260.147,413.912 260.199,414.321 260.243,414.731C260.286,415.14 260.318,415.551 260.349,415.962C260.379,416.373 260.43,416.786 260.426,417.195C260.422,417.605 260.432,418.025 260.325,418.421C260.215,418.828 259.747,419.34 259.768,419.639C259.79,419.936 260.263,419.988 260.453,420.214C260.643,420.44 260.793,420.717 260.909,420.996C261.045,421.323 261.16,421.78 261.268,422.177C261.376,422.574 261.466,422.977 261.557,423.379C261.648,423.781 261.738,424.183 261.814,424.588C261.89,424.992 261.954,425.4 262.013,425.807C262.071,426.215 262.12,426.624 262.165,427.034C262.21,427.443 262.248,427.854 262.282,428.264C262.316,428.675 262.346,429.086 262.37,429.497C262.393,429.908 262.413,430.32 262.424,430.731C262.436,431.143 262.442,431.555 262.436,431.967C262.43,432.379 262.412,432.791 262.389,433.202C262.366,433.613 262.334,434.024 262.296,434.434C262.258,434.844 262.232,435.258 262.162,435.663C262.091,436.067 261.939,436.615 261.872,436.862C261.845,436.96 261.74,437.044 261.757,437.143C261.813,437.47 262.099,438.252 262.205,438.82C262.311,439.387 262.346,439.972 262.394,440.55C262.442,441.128 262.48,441.707 262.494,442.287C262.508,442.866 262.495,443.447 262.476,444.027C262.456,444.606 262.42,445.186 262.375,445.764C262.329,446.342 262.276,446.921 262.202,447.496C262.129,448.071 262.043,448.646 261.933,449.215C261.823,449.784 261.687,450.349 261.541,450.91C261.395,451.471 261.163,452.229 261.054,452.58C261.008,452.729 260.897,452.86 260.887,453.016C260.862,453.366 260.921,454.127 260.908,454.683C260.894,455.238 260.859,455.795 260.806,456.348C260.752,456.901 260.679,457.453 260.587,458.001C260.494,458.549 260.379,459.094 260.253,459.635C260.127,460.177 259.985,460.715 259.831,461.249C259.676,461.783 259.51,462.315 259.324,462.838C259.138,463.362 258.938,463.882 258.714,464.39C258.49,464.899 258.24,465.397 257.981,465.888C257.721,466.38 257.336,467.032 257.156,467.338C257.079,467.471 256.958,467.58 256.905,467.725Z" style="fill:rgb(36,15,7);"/>
                </g>
                <g transform="matrix(0.645372,0,0,0.645372,204.2,-66.1652)">
                    <path d="M247.803,350.515L247.591,350.218C246.878,349.21 246.28,348.325 245.705,346.938C245.13,345.551 244.578,343.661 244.526,342.203C243.137,342.458 240.625,342.592 238.383,343.344C236.14,344.097 234.168,345.469 232.794,346.857C231.42,348.245 230.643,349.649 229.923,351.108L227.941,355.616L226.453,360.002L227.552,354.567L228.724,349.147C229.193,347.36 229.778,345.603 230.527,343.908C231.275,342.214 232.186,340.582 233.356,339.163C234.525,337.744 235.955,336.539 237.464,335.456C238.974,334.374 240.563,333.414 242.273,332.719C243.982,332.025 245.811,331.595 247.978,331.553C247.696,333.469 248.19,335.142 248.519,336.431L249.155,339.535L249.399,342.268L249.063,344.998L248.496,347.692L247.803,350.515Z" style="fill:url(#_Linear6);fill-rule:nonzero;"/>
                </g>
                <g transform="matrix(0.645372,0,0,0.645372,204.2,-66.1652)">
                    <path d="M250.61,354.061L252.392,351.718L254.326,349.474L256.4,347.366L258.455,345.261L260.208,342.876L261.828,340.423C262.379,339.611 262.957,338.806 263.1,337.469C263.157,339.824 262.192,341.543 261.389,342.954L259.318,346.757L257.396,350.956L255.326,355.27C254.716,356.742 254.265,358.284 253.853,359.831L252.755,364.498L251.967,369.272L252.502,365.1L253.012,360.926C253.104,359.503 253.068,358.027 252.538,356.779C252.112,355.775 251.367,354.918 250.61,354.061Z" style="fill:url(#_Linear7);fill-rule:nonzero;"/>
                </g>
                <g transform="matrix(10.4,0,0,1.47215,-328.374,-166.314)">
                    <path d="M66.531,254.189C66.456,254.235 66.377,254.261 66.298,254.274C66.189,254.294 66.079,254.285 65.977,254.271C65.936,254.26 65.896,254.246 65.858,254.226C65.828,254.21 65.798,254.19 65.771,254.166C65.716,254.119 65.667,254.064 65.625,254.013C65.536,253.905 65.481,253.816 65.481,253.816C65.463,253.802 65.447,253.897 65.445,254.027C65.443,254.157 65.456,254.273 65.475,254.287C65.475,254.287 65.538,254.279 65.64,254.262C65.67,254.257 65.703,254.252 65.739,254.249C65.76,254.247 65.782,254.244 65.805,254.246C65.852,254.249 65.901,254.26 65.953,254.268L65.977,254.271C66.005,254.278 66.034,254.284 66.063,254.289C66.159,254.305 66.259,254.302 66.356,254.274C66.416,254.256 66.475,254.229 66.531,254.189C66.572,254.165 66.611,254.134 66.648,254.097C66.716,254.035 66.779,253.944 66.837,253.848C66.905,253.736 66.967,253.61 67.022,253.477C67.093,253.308 67.153,253.13 67.202,252.962C67.315,252.583 67.374,252.257 67.374,252.257C67.387,252.171 67.389,252.021 67.376,251.923C67.364,251.825 67.343,251.816 67.329,251.903C67.329,251.903 67.28,252.26 67.182,252.699C67.136,252.902 67.081,253.123 67.014,253.332C66.961,253.5 66.902,253.662 66.835,253.798C66.778,253.916 66.715,254.01 66.648,254.087C66.611,254.127 66.572,254.161 66.531,254.189Z" style="fill:rgb(36,15,7);"/>
                </g>
                <g transform="matrix(10.4,0,0,1.47215,-327.014,-156.04)">
                    <path d="M65.36,253.043C65.36,253.043 65.417,253.425 65.525,253.884C65.559,254.029 65.598,254.183 65.642,254.335C65.68,254.463 65.72,254.59 65.764,254.712C65.79,254.786 65.818,254.859 65.847,254.929C65.911,255.086 65.982,255.228 66.059,255.334C66.158,255.471 66.268,255.554 66.387,255.541C66.483,255.535 66.573,255.462 66.656,255.351C66.751,255.223 66.838,255.036 66.916,254.83C66.971,254.687 67.021,254.536 67.066,254.382C67.132,254.162 67.188,253.938 67.234,253.732C67.336,253.28 67.391,252.915 67.391,252.915C67.403,252.82 67.403,252.67 67.389,252.581C67.376,252.491 67.355,252.495 67.342,252.59C67.342,252.59 67.297,252.977 67.208,253.472C67.166,253.706 67.115,253.964 67.054,254.214C67.011,254.391 66.963,254.564 66.91,254.72C66.834,254.945 66.748,255.135 66.654,255.27C66.571,255.387 66.482,255.457 66.387,255.467C66.268,255.475 66.16,255.393 66.061,255.249C65.985,255.137 65.916,254.99 65.852,254.82C65.824,254.744 65.797,254.664 65.772,254.58C65.73,254.441 65.692,254.293 65.657,254.144C65.492,253.431 65.409,252.719 65.409,252.719C65.396,252.624 65.375,252.619 65.362,252.708C65.348,252.797 65.348,252.947 65.36,253.043Z" style="fill:rgb(36,15,7);"/>
                </g>
                <g transform="matrix(10.4,0,0,1.47215,-326.183,-147.427)">
                    <path d="M65.247,252.072C65.247,252.072 65.282,252.663 65.368,253.42C65.395,253.665 65.428,253.928 65.467,254.195C65.494,254.386 65.525,254.578 65.559,254.768C65.589,254.94 65.622,255.11 65.658,255.274C65.8,255.928 65.985,256.489 66.228,256.681C66.328,256.764 66.422,256.744 66.51,256.657C66.609,256.559 66.7,256.368 66.782,256.139C66.838,255.984 66.889,255.812 66.936,255.633C67.001,255.384 67.058,255.124 67.105,254.883C67.203,254.374 67.258,253.956 67.258,253.956C67.27,253.855 67.268,253.706 67.254,253.622C67.24,253.538 67.218,253.552 67.207,253.652C67.207,253.652 67.106,254.605 66.92,255.435C66.876,255.632 66.827,255.821 66.773,255.985C66.694,256.229 66.605,256.421 66.507,256.524C66.421,256.616 66.329,256.635 66.23,256.556C65.991,256.353 65.808,255.805 65.671,255.14C65.636,254.973 65.605,254.799 65.576,254.621C65.545,254.424 65.517,254.224 65.492,254.025C65.354,252.925 65.31,251.91 65.31,251.91C65.304,251.788 65.285,251.724 65.267,251.769C65.25,251.813 65.241,251.949 65.247,252.072Z" style="fill:rgb(36,15,7);"/>
                </g>
                <g transform="matrix(10.4,0,0,1.47215,-328.978,-138.513)">
                    <path d="M65.427,249.21C65.427,249.21 65.419,249.93 65.466,250.956C65.482,251.32 65.506,251.722 65.539,252.147C65.566,252.492 65.599,252.852 65.64,253.218C65.741,254.111 65.888,255.043 66.111,255.844C66.325,256.626 66.532,256.667 66.711,256.415C66.752,256.357 66.792,256.284 66.83,256.201C66.871,256.112 66.91,256.013 66.947,255.907C67.143,255.342 67.27,254.588 67.27,254.588C67.283,254.5 67.284,254.35 67.272,254.253C67.259,254.157 67.238,254.151 67.225,254.239C67.225,254.239 67.113,255.042 66.932,255.669C66.865,255.899 66.789,256.106 66.706,256.237C66.532,256.511 66.33,256.461 66.121,255.711C65.903,254.91 65.756,253.999 65.661,253.104C65.622,252.742 65.592,252.382 65.569,252.037C65.541,251.619 65.522,251.223 65.51,250.868C65.478,249.915 65.493,249.266 65.493,249.266C65.496,249.136 65.482,249.018 65.464,249.003C65.446,248.987 65.429,249.08 65.427,249.21Z" style="fill:rgb(36,15,7);"/>
                </g>
                <g transform="matrix(10.4,0,0,1.47215,-333.889,-131.94)">
                    <path d="M65.748,246.621C65.748,246.621 65.698,247.502 65.691,248.751C65.688,249.386 65.695,250.117 65.725,250.879C65.77,252.033 65.867,253.264 66.065,254.328C66.259,255.385 66.453,255.85 66.626,256.023C66.691,256.088 66.753,256.113 66.811,256.11C67.063,256.096 67.238,255.529 67.238,255.529C67.255,255.471 67.262,255.329 67.253,255.212C67.245,255.095 67.225,255.047 67.208,255.105C67.208,255.105 67.047,255.725 66.81,255.821C66.754,255.843 66.693,255.837 66.63,255.783C66.462,255.64 66.273,255.177 66.084,254.158C65.894,253.119 65.799,251.934 65.76,250.815C65.734,250.081 65.732,249.379 65.74,248.773C65.755,247.61 65.809,246.81 65.809,246.81C65.817,246.69 65.809,246.55 65.792,246.498C65.775,246.446 65.755,246.501 65.748,246.621Z" style="fill:rgb(36,15,7);"/>
                </g>
                <g transform="matrix(10.4,0,0,1.47215,-342.652,-135.944)">
                    <path d="M66.255,251.987C66.255,251.987 66.24,252.436 66.226,253.024C66.221,253.243 66.215,253.479 66.211,253.72C66.203,254.129 66.198,254.55 66.202,254.907C66.205,255.157 66.213,255.465 66.223,255.786C66.231,256.051 66.241,256.324 66.25,256.581C66.272,257.229 66.293,257.768 66.293,257.768C66.299,257.892 66.318,257.959 66.336,257.917C66.353,257.875 66.363,257.74 66.357,257.616C66.357,257.616 66.32,256.984 66.29,256.264C66.27,255.782 66.254,255.26 66.25,254.882C66.246,254.464 66.253,253.954 66.266,253.49C66.287,252.747 66.319,252.122 66.319,252.122C66.325,251.996 66.315,251.864 66.297,251.827C66.279,251.79 66.26,251.862 66.255,251.987Z" style="fill:rgb(36,15,7);"/>
                </g>
                <g transform="matrix(10.4,0,0,1.47215,-329.961,-177.646)">
                    <path d="M66.896,253.565C66.883,253.596 66.869,253.628 66.855,253.66C66.751,253.898 66.631,254.153 66.494,254.385C66.357,254.626 66.232,254.805 66.12,254.952C66.095,254.985 66.071,255.017 66.047,255.047C66.022,255.071 65.997,255.093 65.974,255.111C65.936,255.14 65.901,255.161 65.868,255.177C65.809,255.206 65.756,255.219 65.709,255.223C65.537,255.238 65.448,255.139 65.448,255.139C65.429,255.13 65.413,255.228 65.412,255.358C65.411,255.489 65.424,255.602 65.443,255.611C65.443,255.611 65.517,255.608 65.658,255.486C65.717,255.435 65.788,255.362 65.869,255.267C65.916,255.212 65.966,255.151 66.02,255.082L66.047,255.047C66.074,255.021 66.102,254.992 66.131,254.958C66.241,254.832 66.362,254.653 66.495,254.427C66.589,254.261 66.675,254.091 66.754,253.914C66.805,253.798 66.852,253.684 66.896,253.565L66.916,253.52C66.949,253.446 66.979,253.377 67.008,253.311C67.075,253.159 67.132,253.022 67.179,252.899C67.291,252.608 67.348,252.407 67.348,252.407C67.364,252.338 67.369,252.192 67.359,252.081C67.349,251.97 67.329,251.936 67.313,252.005C67.313,252.005 67.271,252.237 67.183,252.591C67.145,252.745 67.1,252.922 67.045,253.108C67.008,253.234 66.967,253.365 66.922,253.493C66.914,253.517 66.905,253.541 66.896,253.565Z" style="fill:rgb(36,15,7);"/>
                </g>
                <g transform="matrix(10.4,0,0,1.47215,-331.623,-187.996)">
                    <path d="M66.59,253.683C66.5,253.741 66.402,253.821 66.298,253.918C66.268,253.947 66.238,253.977 66.21,254.007C66.104,254.112 66.007,254.223 65.92,254.324C65.885,254.366 65.852,254.405 65.82,254.44C65.764,254.502 65.713,254.553 65.668,254.604C65.639,254.638 65.612,254.67 65.587,254.698C65.462,254.841 65.397,254.939 65.397,254.939C65.379,254.978 65.369,255.11 65.375,255.235C65.38,255.36 65.399,255.43 65.416,255.391C65.416,255.391 65.49,255.177 65.63,254.874C65.663,254.803 65.699,254.728 65.739,254.652C65.774,254.588 65.81,254.524 65.85,254.461C65.892,254.395 65.936,254.332 65.984,254.27C66.053,254.179 66.129,254.092 66.21,254.007C66.238,253.979 66.268,253.951 66.298,253.924C66.402,253.823 66.5,253.746 66.59,253.683C66.617,253.665 66.644,253.65 66.67,253.636C66.761,253.587 66.844,253.556 66.918,253.548C66.954,253.545 66.987,253.549 67.018,253.556C67.076,253.568 67.125,253.591 67.167,253.614C67.275,253.675 67.331,253.746 67.331,253.746C67.349,253.756 67.365,253.658 67.367,253.528C67.368,253.397 67.354,253.283 67.336,253.274C67.336,253.274 67.27,253.283 67.147,253.349C67.094,253.377 67.032,253.417 66.959,253.462C66.928,253.482 66.895,253.501 66.86,253.521C66.813,253.547 66.764,253.572 66.711,253.604C66.672,253.628 66.632,253.654 66.59,253.683Z" style="fill:rgb(36,15,7);"/>
                </g>
                <g transform="matrix(10.4,0,0,1.47215,-331.925,-199.403)">
                    <path d="M66.088,254.269C66.139,254.277 66.192,254.292 66.247,254.319C66.254,254.321 66.26,254.324 66.267,254.327C66.335,254.365 66.403,254.416 66.471,254.487C66.546,254.567 66.62,254.67 66.692,254.78C67.051,255.339 67.336,256.115 67.336,256.115C67.354,256.156 67.373,256.089 67.378,255.965C67.384,255.841 67.375,255.707 67.357,255.665C67.357,255.665 67.119,255.188 66.805,254.806C66.717,254.699 66.623,254.603 66.527,254.516C66.441,254.439 66.354,254.367 66.267,254.327C66.26,254.324 66.254,254.32 66.247,254.317C66.192,254.292 66.139,254.275 66.088,254.269C66.063,254.264 66.039,254.262 66.016,254.261C65.961,254.258 65.91,254.265 65.862,254.271C65.839,254.273 65.817,254.274 65.796,254.275C65.76,254.276 65.727,254.276 65.696,254.28C65.544,254.297 65.456,254.379 65.456,254.379C65.438,254.408 65.427,254.536 65.431,254.663C65.436,254.79 65.454,254.87 65.472,254.84C65.472,254.84 65.567,254.599 65.737,254.409C65.773,254.369 65.812,254.33 65.854,254.306C65.903,254.277 65.955,254.268 66.012,254.265C66.036,254.264 66.062,254.265 66.088,254.269Z" style="fill:rgb(36,15,7);"/>
                </g>
            </g>
        </g>
    </g>
    <defs>
        <linearGradient id="_Linear1" x1="0" y1="0" x2="1" y2="0" gradientUnits="userSpaceOnUse" gradientTransform="matrix(41.9177,68.1315,-97.9586,60.2687,166.672,381.125)"><stop offset="0" style="stop-color:rgb(193,157,119);stop-opacity:1"/><stop offset="1" style="stop-color:rgb(82,40,9);stop-opacity:1"/></linearGradient>
        <linearGradient id="_Linear3" x1="0" y1="0" x2="1" y2="0" gradientUnits="userSpaceOnUse" gradientTransform="matrix(-3.54392,-16.8319,64.8889,-13.6622,163.91,395.055)"><stop offset="0" style="stop-color:black;stop-opacity:1"/><stop offset="0.56" style="stop-color:rgb(90,1,0);stop-opacity:1"/><stop offset="1" style="stop-color:rgb(130,1,0);stop-opacity:1"/></linearGradient>
        <linearGradient id="_Linear4" x1="0" y1="0" x2="1" y2="0" gradientUnits="userSpaceOnUse" gradientTransform="matrix(-0.648934,11.4213,-11.4213,-0.648934,174.677,367.489)"><stop offset="0" style="stop-color:rgb(133,1,0);stop-opacity:1"/><stop offset="0.5" style="stop-color:rgb(72,0,0);stop-opacity:1"/><stop offset="1" style="stop-color:rgb(52,0,0);stop-opacity:1"/></linearGradient>
        <linearGradient id="_Linear5" x1="0" y1="0" x2="1" y2="0" gradientUnits="userSpaceOnUse" gradientTransform="matrix(-11.2171,107.53,-107.53,-11.2171,245.031,368.719)"><stop offset="0" style="stop-color:rgb(208,168,130);stop-opacity:1"/><stop offset="1" style="stop-color:rgb(73,36,1);stop-opacity:1"/></linearGradient>
        <linearGradient id="_Linear6" x1="0" y1="0" x2="1" y2="0" gradientUnits="userSpaceOnUse" gradientTransform="matrix(-14.047,22.7761,-22.7761,-14.047,248.159,330.868)"><stop offset="0" style="stop-color:rgb(129,1,0);stop-opacity:1"/><stop offset="0.55" style="stop-color:rgb(113,1,0);stop-opacity:1"/><stop offset="1" style="stop-color:rgb(52,0,0);stop-opacity:1"/></linearGradient>
        <linearGradient id="_Linear7" x1="0" y1="0" x2="1" y2="0" gradientUnits="userSpaceOnUse" gradientTransform="matrix(-13.608,23.558,-23.558,-13.608,263.714,337.088)"><stop offset="0" style="stop-color:rgb(124,1,0);stop-opacity:1"/><stop offset="0.54" style="stop-color:rgb(108,1,0);stop-opacity:1"/><stop offset="1" style="stop-color:rgb(52,0,0);stop-opacity:1"/></linearGradient>
    </defs>
</svg>
