<?xml version="1.0" encoding="utf-8"?>
<!DOCTYPE svg PUBLIC "-//W3C//DTD SVG 1.1//EN" "http://www.w3.org/Graphics/SVG/1.1/DTD/svg11.dtd">
<svg version="1.1" xmlns="http://www.w3.org/2000/svg" xmlns:xlink="http://www.w3.org/1999/xlink" xmlns:xml="http://www.w3.org/XML/1998/namespace" xmlns:serif="http://www.serif.com/" width="200" height="200" viewBox="40, 25, 150, 150" xml:space="preserve" fill-rule="evenodd" stroke-linejoin="round" stroke-miterlimit="2" style="clip-rule:evenodd;">
        
    <g id="worm2">
        <g>
            <path d="M65.3 65.3 L66.1 66.3 L66.7 67.3 L67.3 68.4 L67.9 69.4 L68.6 70.5 L69.3 71.5 L69.8 72.6 L70.1 73.8 L70.3 75.1 L70.3 76.3 L70.2 77.5 L70.2 78.8 L70.2 80 L70.4 81.2 L70.6 82.4 L70.9 83.6 L71.3 84.8 L71.6 85.5 L71.9 86.3 L72.2 87 L72.4 87.8 C72.4 87.8 72.5 88.3 72.6 88.5 C72.6 88.8 72.6 89.1 72.6 89.3 C72.7 89.6 72.7 89.8 72.8 90 C73 90.1 73.3 90.2 73.5 90.3 C73.7 90.5 73.9 90.7 74.1 90.9 C74.2 91.1 74.6 91.5 74.6 91.5 L75.1 92.1 C75.1 92.1 75.4 92.5 75.5 92.8 C75.7 93 75.9 93.2 76 93.4 C76.2 93.6 76.3 93.8 76.5 94 C76.6 94.3 76.8 94.5 76.9 94.7 C77.1 94.9 77.2 95.1 77.4 95.4 C77.5 95.6 77.6 95.8 77.8 96 C77.9 96.3 78 96.5 78.1 96.7 C78.2 97 78.1 97.3 78.1 97.5 C78.1 97.6 78.1 97.8 78.3 97.9 C78.4 97.9 78.8 97.7 79 97.7 C79.3 97.7 79.5 97.9 79.7 98.1 C79.9 98.2 80.2 98.4 80.4 98.5 C80.6 98.7 80.8 98.9 81 99 C81.2 99.2 81.4 99.3 81.6 99.5 C81.8 99.7 82 99.9 82.2 100 C82.4 100.2 82.6 100.4 82.8 100.6 C83 100.7 83.2 100.9 83.4 101.1 C83.6 101.3 83.8 101.5 84 101.6 C84.2 101.8 84.4 102 84.5 102.2 C84.7 102.4 84.9 102.6 85.1 102.8 C85.3 103 85.4 103.2 85.6 103.4 C85.8 103.6 86 103.7 86.1 104 C86.3 104.2 86.5 104.3 86.6 104.6 C86.8 104.8 86.8 105.1 86.9 105.3 C87 105.5 87.1 105.9 87.3 106 C87.4 106.1 87.6 105.9 87.8 105.9 C87.9 106 88.1 106 88.2 106.1 C88.4 106.1 88.5 106.2 88.6 106.3 C88.8 106.4 88.9 106.5 89 106.6 C89.2 106.7 89.3 106.8 89.4 106.9 C89.5 107 89.7 107.1 89.8 107.2 C89.9 107.3 90.1 107.4 90.2 107.5 C90.3 107.6 90.4 107.7 90.6 107.8 C90.7 107.9 90.8 108 90.9 108.1 C91 108.2 91.2 108.3 91.3 108.4 C91.4 108.5 91.5 108.6 91.6 108.7 C91.8 108.8 91.9 109 92 109.1 C92.1 109.2 92.2 109.3 92.3 109.4 C92.4 109.5 92.6 109.6 92.7 109.8 C92.8 109.9 92.9 110 93 110.1 C93.1 110.2 93.2 110.3 93.3 110.5 C93.4 110.6 93.5 110.7 93.7 110.8 C93.8 110.9 93.9 111 94 111.2 C94.1 111.3 94.2 111.4 94.3 111.5 C94.4 111.7 94.5 111.8 94.6 111.9 C94.7 112 94.8 112.2 94.9 112.3 C95 112.4 95.1 112.5 95.2 112.7 C95.3 112.8 95.4 112.9 95.5 113.1 C95.6 113.2 95.7 113.3 95.7 113.5 C95.8 113.6 95.9 113.7 96 113.9 C96.1 114 96.2 114.1 96.3 114.3 C96.4 114.4 96.4 114.5 96.5 114.7 C96.6 114.8 96.7 114.9 96.8 115.1 C96.9 115.2 96.9 115.4 97 115.5 C97.1 115.6 97.2 115.8 97.2 115.9 C97.3 116.1 97.3 116.3 97.3 116.4 C97.4 116.6 97.5 116.9 97.6 117.1 C97.7 117.3 97.8 117.6 97.9 117.6 C98 117.7 98.1 117.5 98.2 117.5 C98.3 117.6 98.4 117.7 98.5 117.8 C98.7 118 99.1 118.5 99.4 118.9 C99.7 119.2 100 119.6 100.2 120 C100.5 120.4 100.7 120.8 101 121.2 C101.2 121.6 101.4 122 101.6 122.4 C101.8 122.9 102 123.3 102.2 123.7 C102.4 124.1 102.6 124.6 102.7 125 C102.9 125.4 103.1 125.9 103.2 126.3 C103.4 126.8 103.5 127.2 103.6 127.7 C103.7 128.1 103.8 128.6 103.9 129 C104 129.5 104.1 129.9 104.1 130.4 C104.2 130.8 104 131.3 104.2 131.7 C104.3 132.4 104.9 133.3 105.2 134.1 C105.5 135 105.7 136 105.9 136.9 C106 137.9 106.1 138.9 106.2 139.8 C106.3 140.8 106.2 142.7 106.2 142.7 C106.2 143.7 106.1 144.7 105.8 145.6 C105.5 146.5 104.9 147.3 104.2 147.9 C103.5 148.5 102.6 149 101.7 149.4 L98.9 150.2 L96.1 150.7 L93.2 150.5 L90.4 150 L87.6 149 L85.1 147.8 C84.2 147.3 83.4 146.7 82.8 146 C82.1 145.3 81.7 144.4 81.4 143.5 C81.1 142.6 81.1 141.5 81 140.6 C80.9 139.8 81 138.7 80.9 138.1 C80.9 137.7 80.6 137.4 80.4 137 C80.2 136.7 80 136.4 79.9 136 C79.7 135.7 79.5 135.4 79.3 135 C79.2 134.7 79 134.3 78.9 134 C78.7 133.6 78.5 133.3 78.4 132.9 C78.3 132.6 78.1 132.1 78 131.8 C77.9 131.6 78 131.3 77.8 131.1 C77.7 130.9 77.3 130.6 77.2 130.5 C77.2 130.5 77.2 130.5 77.2 130.5 C77.2 130.4 77 130.3 76.8 130.2 C76.7 130.1 76.5 129.9 76.4 129.8 C76.3 129.7 76.2 129.6 76.1 129.5 C76 129.5 76 129.4 75.9 129.4 C75.8 129.3 75.8 129.3 75.7 129.2 C75.6 129.1 75.5 129 75.5 129 C75.4 128.9 75.2 128.7 75.2 128.7 C75.1 128.6 75.1 128.6 75 128.5 C74.9 128.5 74.9 128.4 74.8 128.3 C74.8 128.3 74.7 128.2 74.6 128.1 C74.6 128.1 74.6 128.1 74.5 128 C74.5 128 74.5 128 74.4 127.9 C74.4 127.9 74.4 127.9 74.3 127.8 C74.3 127.8 74.3 127.7 74.2 127.7 C74.2 127.7 74.1 127.6 74 127.5 C74 127.4 73.9 127.4 73.8 127.3 C73.8 127.3 73.7 127.2 73.7 127.1 C73.6 127.1 73.5 126.9 73.4 126.9 C73.4 126.8 73.4 126.8 73.4 126.8 C73.3 126.8 73.2 126.6 73.1 126.5 C73 126.4 73 126.4 72.9 126.3 C72.8 126.2 72.8 126.1 72.7 126.1 C72.6 126 72.5 125.8 72.4 125.7 C72.3 125.5 72.1 125.3 71.9 125.1 C71.8 125 71.7 124.8 71.6 124.7 C71.5 124.5 71.4 124.4 71.4 124.3 C71.2 124.1 71.1 123.8 70.9 123.7 C70.7 123.5 70.3 123.3 70 123.1 C69.8 123 69.5 122.9 69.2 122.7 C69 122.6 68.7 122.4 68.5 122.2 C68.4 122.1 68.2 122 68.1 121.9 C68 121.9 67.9 121.8 67.8 121.7 C67.7 121.7 67.6 121.6 67.5 121.5 C67.4 121.4 67.3 121.3 67.1 121.2 C67 121.1 66.8 120.9 66.7 120.8 C66.6 120.8 66.5 120.7 66.5 120.6 C66.4 120.6 66.3 120.5 66.2 120.4 C66.1 120.3 66 120.2 65.9 120.2 C65.8 120.1 65.8 120.1 65.7 120 C65.7 120 65.6 119.9 65.6 119.9 C65.5 119.8 65.5 119.8 65.4 119.7 C65.4 119.7 65.3 119.6 65.3 119.6 C65.2 119.5 65.1 119.4 65 119.3 C64.9 119.3 64.8 119.2 64.7 119.1 C64.6 119 64.6 118.9 64.5 118.9 C64.4 118.8 64.2 118.6 64.1 118.4 C63.9 118.3 63.8 118.2 63.7 118.1 C63.6 118 63.5 117.9 63.4 117.8 C63.3 117.7 63.2 117.6 63.1 117.5 C63 117.4 62.9 117.2 62.7 117 C62.6 116.8 62.3 116.5 62.1 116.2 C61.9 116.1 61.8 115.8 61.6 115.7 C61.6 115.5 61.5 115.4 61.4 115.3 C61.3 115.2 61.3 115 61.3 114.9 C61.3 114.8 61.3 114.6 61.3 114.5 C61.3 114.4 61.4 114.3 61.4 114.3 C61.4 114.2 61.4 114.2 61.4 114.1 C61.4 114.1 61.4 114 61.4 114 C61.4 114 61.4 113.9 61.4 113.9 C61.4 113.9 61.4 113.8 61.3 113.8 C61.3 113.8 61.3 113.8 61.3 113.8 C61.3 113.8 61.3 113.7 61.2 113.7 C61.2 113.7 61.2 113.7 61.2 113.7 C61.2 113.7 61.1 113.7 61.1 113.7 C61 113.6 61 113.7 61 113.7 C61 113.7 61 113.7 60.9 113.7 C60.9 113.7 60.9 113.7 60.8 113.7 C60.7 113.7 60.6 113.7 60.5 113.7 C60.4 113.8 60.3 113.8 60.2 113.8 C60.2 113.8 60.2 113.8 60.2 113.8 C60.1 113.7 59.7 113.5 59.6 113.5 C59.5 113.5 59.5 113.4 59.5 113.4 C59.4 113.4 59.4 113.4 59.4 113.3 C59.3 113.2 59 113 58.8 112.8 C58.6 112.6 58.2 112.3 58 112.1 C57.8 111.9 57.6 111.7 57.5 111.6 C57.4 111.5 57.3 111.4 57.2 111.3 C57.1 111.2 56.9 111 56.8 110.9 C56.7 110.8 56.5 110.6 56.4 110.5 C56.3 110.3 56.1 110.1 56 109.9 C55.9 109.8 55.8 109.7 55.7 109.6 C55.6 109.5 55.5 109.4 55.4 109.3 C55.3 109.1 55.2 109 55.2 108.9 C55.1 108.8 55.1 108.7 55 108.7 C55 108.6 54.9 108.5 54.9 108.5 C54.8 108.4 54.7 108.3 54.7 108.3 C54.6 108.2 54.6 108.1 54.6 108.1 C54.5 108 54.4 107.8 54.3 107.7 C54.2 107.6 54.1 107.4 54 107.3 C54 107.2 53.9 107.1 53.8 107 C53.7 106.8 53.6 106.6 53.4 106.4 C53.3 106.2 53.2 106.1 53.1 105.9 C53.1 105.8 53 105.6 52.9 105.5 C52.8 105.3 52.8 105.2 52.7 105.1 C52.6 104.9 52.5 104.7 52.4 104.5 C52.2 104.2 52 103.8 51.9 103.5 C51.8 103.2 51.7 103 51.6 102.8 C51.5 102.6 51.5 102.4 51.4 102.2 C51.4 102.1 51.4 101.9 51.4 101.8 C51.4 101.7 51.4 101.6 51.4 101.5 C51.5 101.4 51.7 101.2 51.6 101 C51.5 100.8 51 100.7 50.7 100.5 C50.4 100.3 50.2 100.1 50 99.8 C49.7 99.4 49.2 98.6 49 98.2 C48.9 98 48.7 97.8 48.6 97.5 C48.5 97.3 48.3 97.1 48.2 96.9 C48 96.3 47.4 95.1 47 94.2 C46.5 92.8 45 88.8 45 88.8 C44.4 87 43.9 85.2 43.5 83.3 C43.2 81.5 42.9 79.6 42.9 77.7 C42.8 75.8 43 73.9 43.4 72.1 C43.8 70.3 44.5 68.6 45.4 67 C46.4 65.4 47.7 63.9 49.2 62.6 C50.8 61.3 52.8 60.1 53.8 59.6 C53.5 60.5 52.5 61.3 51.8 62.3 C51 63.2 50.4 64.2 50.1 65.3 C49.7 66.3 49.5 67.5 49.4 68.6 C49.4 69.8 49.5 70.9 49.7 72 C49.9 73.2 50.1 74 50.8 75.6 C50.9 75.9 51.3 76.6 51.3 76.6 C51.6 75 52 73.4 52.8 72 C53.6 70.7 55.7 69.3 56.3 68.8 C56.3 68.8 56.3 68.8 56.3 68.8 C56.5 68.6 56.9 68 57.1 67.7 C57.4 67.3 57.6 66.9 57.9 66.5 C58.1 66.1 58.4 65.7 58.6 65.3 C58.9 65 59.1 64.6 59.4 64.2 C59.6 63.8 59.8 63.4 60.1 63 C60.4 62.6 60.6 62.2 60.9 61.9 C61.2 61.6 61.9 61 61.9 61 C61.9 61 62.4 61.8 62.6 62.2 C62.8 62.8 62.9 63.5 63.1 64.1 C63.4 64.7 63.3 64.9 64.3 65.9 L65.3 65.3 z" fill-rule="nonzero" style="fill:url(#_Linear1);" />
            <clipPath id="_clip2">
                <path d="M65.3 65.3 L66.1 66.3 L66.7 67.3 L67.3 68.4 L67.9 69.4 L68.6 70.5 L69.3 71.5 L69.8 72.6 L70.1 73.8 L70.3 75.1 L70.3 76.3 L70.2 77.5 L70.2 78.8 L70.2 80 L70.4 81.2 L70.6 82.4 L70.9 83.6 L71.3 84.8 L71.6 85.5 L71.9 86.3 L72.2 87 L72.4 87.8 C72.4 87.8 72.5 88.3 72.6 88.5 C72.6 88.8 72.6 89.1 72.6 89.3 C72.7 89.6 72.7 89.8 72.8 90 C73 90.1 73.3 90.2 73.5 90.3 C73.7 90.5 73.9 90.7 74.1 90.9 C74.2 91.1 74.6 91.5 74.6 91.5 L75.1 92.1 C75.1 92.1 75.4 92.5 75.5 92.8 C75.7 93 75.9 93.2 76 93.4 C76.2 93.6 76.3 93.8 76.5 94 C76.6 94.3 76.8 94.5 76.9 94.7 C77.1 94.9 77.2 95.1 77.4 95.4 C77.5 95.6 77.6 95.8 77.8 96 C77.9 96.3 78 96.5 78.1 96.7 C78.2 97 78.1 97.3 78.1 97.5 C78.1 97.6 78.1 97.8 78.3 97.9 C78.4 97.9 78.8 97.7 79 97.7 C79.3 97.7 79.5 97.9 79.7 98.1 C79.9 98.2 80.2 98.4 80.4 98.5 C80.6 98.7 80.8 98.9 81 99 C81.2 99.2 81.4 99.3 81.6 99.5 C81.8 99.7 82 99.9 82.2 100 C82.4 100.2 82.6 100.4 82.8 100.6 C83 100.7 83.2 100.9 83.4 101.1 C83.6 101.3 83.8 101.5 84 101.6 C84.2 101.8 84.4 102 84.5 102.2 C84.7 102.4 84.9 102.6 85.1 102.8 C85.3 103 85.4 103.2 85.6 103.4 C85.8 103.6 86 103.7 86.1 104 C86.3 104.2 86.5 104.3 86.6 104.6 C86.8 104.8 86.8 105.1 86.9 105.3 C87 105.5 87.1 105.9 87.3 106 C87.4 106.1 87.6 105.9 87.8 105.9 C87.9 106 88.1 106 88.2 106.1 C88.4 106.1 88.5 106.2 88.6 106.3 C88.8 106.4 88.9 106.5 89 106.6 C89.2 106.7 89.3 106.8 89.4 106.9 C89.5 107 89.7 107.1 89.8 107.2 C89.9 107.3 90.1 107.4 90.2 107.5 C90.3 107.6 90.4 107.7 90.6 107.8 C90.7 107.9 90.8 108 90.9 108.1 C91 108.2 91.2 108.3 91.3 108.4 C91.4 108.5 91.5 108.6 91.6 108.7 C91.8 108.8 91.9 109 92 109.1 C92.1 109.2 92.2 109.3 92.3 109.4 C92.4 109.5 92.6 109.6 92.7 109.8 C92.8 109.9 92.9 110 93 110.1 C93.1 110.2 93.2 110.3 93.3 110.5 C93.4 110.6 93.5 110.7 93.7 110.8 C93.8 110.9 93.9 111 94 111.2 C94.1 111.3 94.2 111.4 94.3 111.5 C94.4 111.7 94.5 111.8 94.6 111.9 C94.7 112 94.8 112.2 94.9 112.3 C95 112.4 95.1 112.5 95.2 112.7 C95.3 112.8 95.4 112.9 95.5 113.1 C95.6 113.2 95.7 113.3 95.7 113.5 C95.8 113.6 95.9 113.7 96 113.9 C96.1 114 96.2 114.1 96.3 114.3 C96.4 114.4 96.4 114.5 96.5 114.7 C96.6 114.8 96.7 114.9 96.8 115.1 C96.9 115.2 96.9 115.4 97 115.5 C97.1 115.6 97.2 115.8 97.2 115.9 C97.3 116.1 97.3 116.3 97.3 116.4 C97.4 116.6 97.5 116.9 97.6 117.1 C97.7 117.3 97.8 117.6 97.9 117.6 C98 117.7 98.1 117.5 98.2 117.5 C98.3 117.6 98.4 117.7 98.5 117.8 C98.7 118 99.1 118.5 99.4 118.9 C99.7 119.2 100 119.6 100.2 120 C100.5 120.4 100.7 120.8 101 121.2 C101.2 121.6 101.4 122 101.6 122.4 C101.8 122.9 102 123.3 102.2 123.7 C102.4 124.1 102.6 124.6 102.7 125 C102.9 125.4 103.1 125.9 103.2 126.3 C103.4 126.8 103.5 127.2 103.6 127.7 C103.7 128.1 103.8 128.6 103.9 129 C104 129.5 104.1 129.9 104.1 130.4 C104.2 130.8 104 131.3 104.2 131.7 C104.3 132.4 104.9 133.3 105.2 134.1 C105.5 135 105.7 136 105.9 136.9 C106 137.9 106.1 138.9 106.2 139.8 C106.3 140.8 106.2 142.7 106.2 142.7 C106.2 143.7 106.1 144.7 105.8 145.6 C105.5 146.5 104.9 147.3 104.2 147.9 C103.5 148.5 102.6 149 101.7 149.4 L98.9 150.2 L96.1 150.7 L93.2 150.5 L90.4 150 L87.6 149 L85.1 147.8 C84.2 147.3 83.4 146.7 82.8 146 C82.1 145.3 81.7 144.4 81.4 143.5 C81.1 142.6 81.1 141.5 81 140.6 C80.9 139.8 81 138.7 80.9 138.1 C80.9 137.7 80.6 137.4 80.4 137 C80.2 136.7 80 136.4 79.9 136 C79.7 135.7 79.5 135.4 79.3 135 C79.2 134.7 79 134.3 78.9 134 C78.7 133.6 78.5 133.3 78.4 132.9 C78.3 132.6 78.1 132.1 78 131.8 C77.9 131.6 78 131.3 77.8 131.1 C77.7 130.9 77.3 130.6 77.2 130.5 C77.2 130.5 77.2 130.5 77.2 130.5 C77.2 130.4 77 130.3 76.8 130.2 C76.7 130.1 76.5 129.9 76.4 129.8 C76.3 129.7 76.2 129.6 76.1 129.5 C76 129.5 76 129.4 75.9 129.4 C75.8 129.3 75.8 129.3 75.7 129.2 C75.6 129.1 75.5 129 75.5 129 C75.4 128.9 75.2 128.7 75.2 128.7 C75.1 128.6 75.1 128.6 75 128.5 C74.9 128.5 74.9 128.4 74.8 128.3 C74.8 128.3 74.7 128.2 74.6 128.1 C74.6 128.1 74.6 128.1 74.5 128 C74.5 128 74.5 128 74.4 127.9 C74.4 127.9 74.4 127.9 74.3 127.8 C74.3 127.8 74.3 127.7 74.2 127.7 C74.2 127.7 74.1 127.6 74 127.5 C74 127.4 73.9 127.4 73.8 127.3 C73.8 127.3 73.7 127.2 73.7 127.1 C73.6 127.1 73.5 126.9 73.4 126.9 C73.4 126.8 73.4 126.8 73.4 126.8 C73.3 126.8 73.2 126.6 73.1 126.5 C73 126.4 73 126.4 72.9 126.3 C72.8 126.2 72.8 126.1 72.7 126.1 C72.6 126 72.5 125.8 72.4 125.7 C72.3 125.5 72.1 125.3 71.9 125.1 C71.8 125 71.7 124.8 71.6 124.7 C71.5 124.5 71.4 124.4 71.4 124.3 C71.2 124.1 71.1 123.8 70.9 123.7 C70.7 123.5 70.3 123.3 70 123.1 C69.8 123 69.5 122.9 69.2 122.7 C69 122.6 68.7 122.4 68.5 122.2 C68.4 122.1 68.2 122 68.1 121.9 C68 121.9 67.9 121.8 67.8 121.7 C67.7 121.7 67.6 121.6 67.5 121.5 C67.4 121.4 67.3 121.3 67.1 121.2 C67 121.1 66.8 120.9 66.7 120.8 C66.6 120.8 66.5 120.7 66.5 120.6 C66.4 120.6 66.3 120.5 66.2 120.4 C66.1 120.3 66 120.2 65.9 120.2 C65.8 120.1 65.8 120.1 65.7 120 C65.7 120 65.6 119.9 65.6 119.9 C65.5 119.8 65.5 119.8 65.4 119.7 C65.4 119.7 65.3 119.6 65.3 119.6 C65.2 119.5 65.1 119.4 65 119.3 C64.9 119.3 64.8 119.2 64.7 119.1 C64.6 119 64.6 118.9 64.5 118.9 C64.4 118.8 64.2 118.6 64.1 118.4 C63.9 118.3 63.8 118.2 63.7 118.1 C63.6 118 63.5 117.9 63.4 117.8 C63.3 117.7 63.2 117.6 63.1 117.5 C63 117.4 62.9 117.2 62.7 117 C62.6 116.8 62.3 116.5 62.1 116.2 C61.9 116.1 61.8 115.8 61.6 115.7 C61.6 115.5 61.5 115.4 61.4 115.3 C61.3 115.2 61.3 115 61.3 114.9 C61.3 114.8 61.3 114.6 61.3 114.5 C61.3 114.4 61.4 114.3 61.4 114.3 C61.4 114.2 61.4 114.2 61.4 114.1 C61.4 114.1 61.4 114 61.4 114 C61.4 114 61.4 113.9 61.4 113.9 C61.4 113.9 61.4 113.8 61.3 113.8 C61.3 113.8 61.3 113.8 61.3 113.8 C61.3 113.8 61.3 113.7 61.2 113.7 C61.2 113.7 61.2 113.7 61.2 113.7 C61.2 113.7 61.1 113.7 61.1 113.7 C61 113.6 61 113.7 61 113.7 C61 113.7 61 113.7 60.9 113.7 C60.9 113.7 60.9 113.7 60.8 113.7 C60.7 113.7 60.6 113.7 60.5 113.7 C60.4 113.8 60.3 113.8 60.2 113.8 C60.2 113.8 60.2 113.8 60.2 113.8 C60.1 113.7 59.7 113.5 59.6 113.5 C59.5 113.5 59.5 113.4 59.5 113.4 C59.4 113.4 59.4 113.4 59.4 113.3 C59.3 113.2 59 113 58.8 112.8 C58.6 112.6 58.2 112.3 58 112.1 C57.8 111.9 57.6 111.7 57.5 111.6 C57.4 111.5 57.3 111.4 57.2 111.3 C57.1 111.2 56.9 111 56.8 110.9 C56.7 110.8 56.5 110.6 56.4 110.5 C56.3 110.3 56.1 110.1 56 109.9 C55.9 109.8 55.8 109.7 55.7 109.6 C55.6 109.5 55.5 109.4 55.4 109.3 C55.3 109.1 55.2 109 55.2 108.9 C55.1 108.8 55.1 108.7 55 108.7 C55 108.6 54.9 108.5 54.9 108.5 C54.8 108.4 54.7 108.3 54.7 108.3 C54.6 108.2 54.6 108.1 54.6 108.1 C54.5 108 54.4 107.8 54.3 107.7 C54.2 107.6 54.1 107.4 54 107.3 C54 107.2 53.9 107.1 53.8 107 C53.7 106.8 53.6 106.6 53.4 106.4 C53.3 106.2 53.2 106.1 53.1 105.9 C53.1 105.8 53 105.6 52.9 105.5 C52.8 105.3 52.8 105.2 52.7 105.1 C52.6 104.9 52.5 104.7 52.4 104.5 C52.2 104.2 52 103.8 51.9 103.5 C51.8 103.2 51.7 103 51.6 102.8 C51.5 102.6 51.5 102.4 51.4 102.2 C51.4 102.1 51.4 101.9 51.4 101.8 C51.4 101.7 51.4 101.6 51.4 101.5 C51.5 101.4 51.7 101.2 51.6 101 C51.5 100.8 51 100.7 50.7 100.5 C50.4 100.3 50.2 100.1 50 99.8 C49.7 99.4 49.2 98.6 49 98.2 C48.9 98 48.7 97.8 48.6 97.5 C48.5 97.3 48.3 97.1 48.2 96.9 C48 96.3 47.4 95.1 47 94.2 C46.5 92.8 45 88.8 45 88.8 C44.4 87 43.9 85.2 43.5 83.3 C43.2 81.5 42.9 79.6 42.9 77.7 C42.8 75.8 43 73.9 43.4 72.1 C43.8 70.3 44.5 68.6 45.4 67 C46.4 65.4 47.7 63.9 49.2 62.6 C50.8 61.3 52.8 60.1 53.8 59.6 C53.5 60.5 52.5 61.3 51.8 62.3 C51 63.2 50.4 64.2 50.1 65.3 C49.7 66.3 49.5 67.5 49.4 68.6 C49.4 69.8 49.5 70.9 49.7 72 C49.9 73.2 50.1 74 50.8 75.6 C50.9 75.9 51.3 76.6 51.3 76.6 C51.6 75 52 73.4 52.8 72 C53.6 70.7 55.7 69.3 56.3 68.8 C56.3 68.8 56.3 68.8 56.3 68.8 C56.5 68.6 56.9 68 57.1 67.7 C57.4 67.3 57.6 66.9 57.9 66.5 C58.1 66.1 58.4 65.7 58.6 65.3 C58.9 65 59.1 64.6 59.4 64.2 C59.6 63.8 59.8 63.4 60.1 63 C60.4 62.6 60.6 62.2 60.9 61.9 C61.2 61.6 61.9 61 61.9 61 C61.9 61 62.4 61.8 62.6 62.2 C62.8 62.8 62.9 63.5 63.1 64.1 C63.4 64.7 63.3 64.9 64.3 65.9 L65.3 65.3 z" clip-rule="nonzero" />
            </clipPath>
            <g clip-path="url(#_clip2)">
                        
                    <path d="M86.1 111.5 C86 111.9 85.8 112.4 85.6 112.8 C84.9 114.4 83.9 116 82.6 117.3 C81.7 118.4 80.6 119.2 79.4 120 C79.1 120.3 78.7 120.5 78.3 120.8 L78.3 120.8 C77.9 121 77.4 121.2 77 121.4 C75.9 121.9 74.8 122.4 73.8 122.7 C71.8 123.3 70.5 123.5 70.5 123.5 C70.2 123.6 70 123.8 70.1 124.1 C70.2 124.4 70.4 124.5 70.7 124.5 C70.7 124.5 72.1 124 74 123.1 C74.9 122.7 76 122.1 77.1 121.5 C77.5 121.3 77.9 121 78.3 120.8 L78.3 120.8 C78.7 120.5 79.1 120.3 79.5 120 C80.6 119.3 81.7 118.4 82.7 117.4 C83.7 116.4 84.4 115.3 85 114.1 C85.5 113.3 85.8 112.4 86.1 111.6 L86.1 111.5 L86.2 111.3 C86.4 110.8 86.6 110.3 86.7 109.8 C87 108.9 87.2 108.1 87.4 107.4 C87.8 106 87.9 105 87.9 105 C87.9 104.7 87.7 104.5 87.4 104.5 C87.1 104.5 86.9 104.7 86.9 105 C86.9 105 87 105.9 86.9 107.3 C86.8 108 86.8 108.8 86.6 109.6 C86.5 110.2 86.3 110.8 86.1 111.5 z" style="fill:#240F07;" />
                    <path d="M93.2 127.1 C92.7 127.6 92.1 128 91.5 128.4 C90.2 129.3 88.7 129.9 87.2 130.3 C86.4 130.6 85.5 130.8 84.6 130.9 C84.1 131 83.6 131 83.1 131.1 C82.6 131.1 82.1 131.1 81.7 131.1 C81 131.1 80.4 131.1 79.9 131.1 C78.3 131 77.3 130.8 77.3 130.8 C77 130.8 76.8 131 76.8 131.2 C76.7 131.5 76.9 131.8 77.2 131.8 C77.2 131.8 78.3 131.8 79.9 131.6 C80.7 131.6 81.6 131.5 82.6 131.3 C83 131.2 83.5 131.2 84 131.1 C84.6 131 85.3 130.8 86 130.7 C86.4 130.6 86.9 130.4 87.2 130.3 C87.3 130.3 87.4 130.3 87.5 130.3 C88.9 129.8 90.2 129.2 91.5 128.4 C92.1 128 92.7 127.6 93.2 127.1 C93.7 126.6 94.1 126.1 94.5 125.6 C95.1 124.9 95.6 124.1 96 123.3 C96.3 122.8 96.5 122.3 96.8 121.9 C97.2 121 97.5 120.3 97.8 119.6 C98.3 118 98.6 116.8 98.6 116.8 C98.6 116.6 98.4 116.3 98.1 116.3 C97.8 116.3 97.6 116.5 97.6 116.7 C97.6 116.7 97.5 117.8 97.2 119.4 C97 120.1 96.8 120.9 96.5 121.8 C96.3 122.2 96.1 122.8 95.9 123.3 C95.5 124.1 95 124.9 94.5 125.6 C94.1 126.1 93.6 126.6 93.2 127.1 z" style="fill:#240F07;" />
                    <path d="M80.2 138.5 C80.2 138.5 81.6 138.8 83.7 139.1 C84.3 139.2 84.9 139.2 85.5 139.3 C86.1 139.3 86.6 139.4 87.3 139.4 C87.8 139.4 88.4 139.4 89 139.4 C89.6 139.4 90.2 139.4 90.8 139.3 C92 139.3 93.2 139.1 94.3 138.8 C96.7 138.3 98.7 137.1 100.4 135.9 C103.5 133.7 105.2 131.2 105.2 131.2 C105.3 130.9 105.3 130.6 105 130.5 C104.8 130.3 104.5 130.4 104.3 130.6 C104.3 130.6 102.9 133.2 100 135.5 C98.5 136.8 96.6 138 94.3 138.7 C93.1 139 92 139.2 90.8 139.3 C90.2 139.4 89.6 139.4 89 139.4 C88.4 139.4 87.8 139.3 87.3 139.3 C86.7 139.2 86.1 139.1 85.5 139 C84.9 138.9 84.3 138.8 83.8 138.6 C81.8 138.1 80.5 137.5 80.5 137.5 C80.2 137.4 80 137.6 79.9 137.8 C79.8 138.1 79.9 138.4 80.2 138.5 z" style="fill:#240F07;" />
                    <path d="M76.6 101.9 L76.5 102 C76.3 102.5 75.9 103.1 75.6 103.6 C74.7 105 73.6 106.4 72.2 107.6 C70.8 108.9 69.3 109.9 67.8 110.8 C67.5 111.1 67.1 111.3 66.7 111.5 L66.7 111.5 C66.3 111.7 66 111.9 65.7 112 C65.2 112.2 64.7 112.4 64.2 112.6 C63.6 112.8 63.1 113 62.6 113.2 C61.2 113.6 60.3 113.8 60.3 113.8 C60 113.9 59.9 114.2 60 114.4 C60.1 114.7 60.3 114.8 60.6 114.7 C60.6 114.7 61.5 114.4 62.8 113.7 C63.5 113.3 64.2 112.9 65 112.5 C65.6 112.2 66.1 111.9 66.7 111.5 C67.5 111.1 68.2 110.7 69 110.2 C70.1 109.4 71.2 108.6 72.3 107.7 C73.3 106.8 74.2 105.8 74.9 104.7 C75.4 104 75.9 103.2 76.3 102.5 C76.4 102.3 76.5 102.1 76.6 101.9 C76.8 101.6 77 101.2 77.2 100.9 C77.6 100.1 78 99.4 78.3 98.8 C78.9 97.4 79.2 96.5 79.2 96.5 C79.3 96.2 79.1 96 78.8 95.9 C78.5 95.9 78.3 96 78.2 96.3 C78.2 96.3 78.2 97 77.9 98.2 C77.7 98.8 77.6 99.4 77.3 100.1 C77.2 100.4 77.1 100.7 77 101.1 C76.9 101.3 76.7 101.6 76.6 101.9 z" style="fill:#240F07;" />
                    <path d="M70 93.3 C69.4 93.9 68.8 94.6 68.1 95.2 C66.9 96.3 65.4 97.4 63.7 98.2 C62.1 99 60.4 99.6 58.9 100.1 C58.3 100.2 57.7 100.4 57.2 100.5 C56.9 100.6 56.6 100.6 56.3 100.7 C55.8 100.7 55.4 100.8 55 100.8 C54.4 100.8 53.9 100.8 53.4 100.8 C52 100.8 51.1 100.7 51.1 100.7 C50.8 100.7 50.6 100.9 50.6 101.2 C50.6 101.5 50.8 101.7 51.1 101.7 C51.1 101.7 52 101.6 53.4 101.3 C53.9 101.2 54.4 101.1 55 101 C55.4 100.9 55.8 100.8 56.2 100.7 C56.4 100.7 56.7 100.6 56.9 100.6 C57 100.5 57.1 100.5 57.2 100.5 C57.3 100.5 57.4 100.5 57.6 100.4 C58.4 100.3 59.3 100 60.1 99.8 C61.3 99.4 62.6 98.9 63.8 98.3 C65.9 97.2 67.7 95.8 69.1 94.3 C69.4 94 69.8 93.7 70 93.3 L71 92.4 C71.5 91.8 71.9 91.3 72.3 90.9 C73.2 89.9 73.6 89.3 73.6 89.3 C73.8 89.1 73.7 88.8 73.4 88.6 C73.2 88.5 72.9 88.6 72.8 88.8 C72.8 88.8 72.5 89.5 71.9 90.6 C71.6 91.1 71.3 91.7 70.8 92.3 C70.6 92.6 70.3 93 70 93.3 z" style="fill:#240F07;" />
                        
            </g>
            <path d="M48.6 102.4 C48.6 102.5 48.6 102.6 48.6 102.7 C48.7 103 48.8 103.4 48.9 103.8 C49 104 49.2 104.4 49.3 104.7 C49.4 105 49.7 105.4 49.8 105.7 C49.9 106 50 106.2 50.1 106.4 C50.2 106.6 50.3 106.7 50.4 106.9 C50.5 107 50.6 107.2 50.7 107.4 C50.8 107.5 50.9 107.7 51 107.9 C51.1 108.1 51.3 108.4 51.4 108.6 C51.5 108.7 51.6 108.8 51.7 108.9 C51.7 109.1 51.8 109.2 51.9 109.3 L52.4 109.9 L52.9 110.6 C52.9 110.7 53.1 110.9 53.2 111 C53.3 111.1 53.4 111.3 53.5 111.4 C53.6 111.5 53.7 111.6 53.8 111.7 C53.9 111.9 54.1 112.1 54.2 112.3 C54.4 112.5 54.6 112.7 54.7 112.8 C54.8 113 55 113.1 55.1 113.3 C55.2 113.4 55.3 113.5 55.5 113.6 C55.6 113.8 55.8 114 56 114.2 C56.2 114.4 56.6 114.8 56.9 115 C57.1 115.2 57.4 115.4 57.5 115.5 C57.6 115.6 57.7 115.7 57.8 115.7 C57.7 115.7 57.7 115.7 57.7 115.7 C57.7 115.7 58.1 115.9 58.3 116 C58.4 116.1 58.5 116.2 58.7 116.2 C58.7 116.3 58.8 116.4 58.8 116.5 C59 116.8 59.1 117.1 59.3 117.3 C59.5 117.5 59.7 117.8 59.9 118.1 C60.1 118.3 60.4 118.6 60.5 118.9 C60.7 119 60.9 119.2 61 119.4 C61.1 119.5 61.2 119.6 61.3 119.7 C61.4 119.8 61.5 119.9 61.6 120.1 C61.8 120.2 61.9 120.3 62 120.5 C62.2 120.6 62.4 120.8 62.5 120.9 L63 121.4 L63.8 122.2 L64.3 122.6 L64.9 123 C65 123.1 65.2 123.3 65.3 123.4 C65.5 123.5 65.6 123.7 65.7 123.8 C65.9 123.8 66 123.9 66.1 124 C66.2 124.1 66.3 124.2 66.4 124.3 C66.6 124.4 66.8 124.5 66.9 124.6 C67.1 124.8 67.5 125 67.8 125.2 C68 125.3 68.3 125.5 68.6 125.6 L68.9 125.8 C69 125.9 69.1 126.2 69.2 126.3 C69.3 126.5 69.5 126.7 69.7 126.9 L70.5 127.9 C70.6 128 70.6 128.1 70.7 128.2 C70.8 128.2 70.9 128.4 71 128.4 L71.3 128.8 L72 129.5 L73 130.5 L73.5 131 C73.5 131.1 73.6 131.2 73.7 131.3 C73.8 131.4 73.9 131.4 74 131.5 C74.1 131.6 74.1 131.7 74.2 131.7 L75 132.4 L75.2 132.5 C75.2 132.6 75.2 132.6 75.3 132.7 C75.4 133.1 75.6 133.6 75.7 134 C75.9 134.4 76.1 134.8 76.3 135.2 C76.4 135.5 76.6 135.9 76.8 136.2 C76.9 136.6 77.1 137 77.3 137.4 C77.5 137.7 77.7 138 77.9 138.4 C77.9 138.5 78.1 138.7 78.1 138.8 C78.2 139.4 78.1 140.2 78.1 140.9 C78.2 142 78.3 143.2 78.6 144.3 C79 145.6 79.7 146.9 80.7 147.9 C80.7 147.9 80.7 147.9 80.7 147.9 C81.5 148.8 82.5 149.6 83.6 150.2 C83.7 150.3 83.7 150.3 83.8 150.3 L86.4 151.6 C86.5 151.7 86.6 151.7 86.7 151.8 L89.5 152.7 C89.6 152.7 89.7 152.7 89.8 152.8 L92.6 153.4 C92.8 153.4 92.9 153.4 93.1 153.4 L96 153.6 C96.2 153.6 96.3 153.6 96.5 153.5 L99.4 153.1 C99.5 153.1 99.7 153 99.8 153 L102.6 152.1 C102.7 152.1 102.7 152 102.8 152 C104 151.5 105.1 150.9 106.1 150.1 C106.1 150.1 106.1 150.1 106.1 150.1 C107.2 149.1 108 147.9 108.5 146.5 C108.9 145.4 109.1 144.1 109.1 142.8 C109.1 142.8 109.1 142.8 109.1 142.8 C109.1 142.8 109.1 140.7 109.1 139.6 C109 138.6 108.9 137.5 108.7 136.5 C108.5 135.4 108.3 134.2 107.9 133.2 C107.7 132.5 107.2 131.7 107 131.1 C107 130.9 107 130.4 107 130.1 C106.9 129.6 106.8 129 106.7 128.5 C106.6 128 106.5 127.5 106.4 126.9 C106.3 126.4 106.1 125.9 105.9 125.4 C105.8 124.9 105.6 124.4 105.4 124 C105.2 123.5 105 123 104.8 122.5 C104.6 122.1 104.4 121.6 104.2 121.2 C103.9 120.7 103.7 120.2 103.4 119.8 C103.2 119.3 102.9 118.9 102.6 118.4 C102.3 118 102 117.6 101.7 117.1 C101.4 116.7 100.9 116.1 100.7 115.9 C100.5 115.7 100.2 115.5 100 115.3 C100 115.2 99.9 115.1 99.9 115 C99.8 114.7 99.7 114.5 99.6 114.2 C99.5 114 99.4 113.8 99.3 113.7 C99.2 113.5 99.1 113.3 99 113.2 C98.9 113 98.8 112.9 98.7 112.7 C98.6 112.6 98.5 112.4 98.4 112.3 C98.3 112.1 98.2 112 98.1 111.8 C98 111.7 97.9 111.5 97.8 111.4 C97.7 111.2 97.6 111.1 97.5 111 C97.4 110.8 97.3 110.7 97.2 110.5 C97 110.4 96.9 110.2 96.8 110.1 C96.7 110 96.6 109.8 96.5 109.7 C96.4 109.5 96.3 109.4 96.1 109.3 C96 109.1 95.9 109 95.8 108.9 C95.7 108.8 95.6 108.6 95.4 108.5 C95.3 108.4 95.2 108.3 95.1 108.1 C95 108 94.8 107.9 94.7 107.8 C94.6 107.6 94.5 107.5 94.4 107.4 C94.2 107.3 94.1 107.1 94 107 C93.9 106.9 93.7 106.8 93.6 106.6 C93.5 106.5 93.3 106.4 93.2 106.3 C93.1 106.2 92.9 106 92.8 105.9 C92.7 105.8 92.5 105.7 92.4 105.6 C92.2 105.4 92.1 105.3 92 105.2 C91.8 105.1 91.7 105 91.5 104.9 C91.4 104.8 91.3 104.7 91.1 104.6 C91 104.5 90.9 104.4 90.7 104.3 C90.5 104.1 90.4 104 90.2 103.9 C89.9 103.7 89.7 103.6 89.4 103.5 L89.2 103.4 C89.2 103.3 89.2 103.2 89.1 103.2 C88.9 102.8 88.6 102.5 88.3 102.1 C88.2 101.9 88 101.7 87.8 101.5 C87.6 101.2 87.4 101 87.2 100.8 C87 100.6 86.8 100.4 86.6 100.2 C86.4 100 86.2 99.8 86 99.6 C85.8 99.4 85.6 99.2 85.3 99 C85.1 98.8 84.9 98.6 84.7 98.4 C84.5 98.2 84.3 98.1 84.1 97.9 C83.9 97.7 83.7 97.5 83.5 97.3 C83.2 97.1 83 96.9 82.8 96.7 C82.5 96.6 82.3 96.4 82.1 96.2 C81.8 96 81.5 95.8 81.2 95.6 C81 95.5 80.8 95.4 80.6 95.3 C80.5 95.1 80.4 94.9 80.3 94.7 C80.1 94.4 80 94.1 79.8 93.8 C79.6 93.6 79.5 93.3 79.3 93.1 C79.2 92.9 79 92.6 78.8 92.4 C78.7 92.2 78.5 91.9 78.3 91.7 C78.2 91.5 78 91.3 77.9 91.1 L77.3 90.3 L76.8 89.7 C76.8 89.7 76.4 89.2 76.2 89 C76 88.7 75.7 88.4 75.4 88.2 L75.4 88.1 C75.4 87.6 75.1 86.8 75.1 86.8 L75.1 86.9 L74.9 86.1 L74.6 85.2 L74.3 84.5 L74 83.8 C74 83.8 73.7 82.8 73.7 82.8 C73.7 82.8 73.4 81.8 73.4 81.8 C73.4 81.8 73.2 80.8 73.2 80.8 C73.2 80.8 73.1 79.8 73.1 79.8 C73.1 79.8 73.1 78.8 73.1 78.8 C73.1 78.8 73.1 77.6 73.1 77.6 C73.1 77.6 73.1 76.4 73.1 76.4 C73.1 76.4 73.1 76.3 73.1 76.3 L73.1 75.1 C73.1 74.9 73.1 74.8 73.1 74.7 L73 73.5 C73 73.3 72.9 73.2 72.9 73.1 L72.6 71.9 C72.5 71.7 72.5 71.6 72.4 71.4 L71.9 70.3 C71.8 70.2 71.8 70.1 71.7 70 L71 68.9 L70.4 67.9 C70.4 67.9 69.8 67 69.8 67 C69.8 67 69.2 65.9 69.2 65.9 C69.2 65.9 69.2 65.8 69.2 65.8 L68.5 64.7 C68.4 64.6 68.4 64.5 68.3 64.5 L67.5 63.5 C67 62.9 66.3 62.5 65.6 62.4 C65.5 62 65.4 61.6 65.2 61.2 C65 60.7 64.5 59.6 64.5 59.6 C64.1 58.8 63.3 58.3 62.5 58.1 C61.6 58 60.7 58.2 60.1 58.8 C60.1 58.8 59.2 59.5 58.8 60 C58.4 60.4 58.1 60.9 57.7 61.4 C57.4 61.8 57.2 62.2 56.9 62.7 C56.7 63 56.5 63.4 56.2 63.8 C56 64.2 55.7 64.5 55.5 64.9 C55.2 65.3 55 65.7 54.7 66 L54.2 66.9 C53.8 67.2 53 67.8 52.3 68.4 C52.4 67.7 52.5 66.9 52.8 66.2 C53 65.5 53.5 64.7 54 64.1 C54 64.1 54 64.1 54 64.1 C55 62.9 56.1 61.8 56.5 60.6 C56.9 59.5 56.6 58.2 55.7 57.4 C54.9 56.7 53.6 56.5 52.6 57 C51.3 57.6 49.2 58.9 47.4 60.4 C45.6 61.9 44.1 63.7 43 65.5 C43 65.5 43 65.5 43 65.5 C41.9 67.4 41.1 69.3 40.6 71.4 C40.1 73.4 39.9 75.6 40 77.7 C40 77.7 40 77.7 40 77.7 C40 79.8 40.3 81.9 40.7 83.9 C41.1 85.9 41.7 87.8 42.3 89.7 C42.3 89.8 42.3 89.8 42.3 89.8 C42.3 89.8 43.8 93.9 44.4 95.2 C44.7 96.2 45.4 97.5 45.6 98.1 C45.8 98.4 45.9 98.7 46.1 98.9 C46.2 99.2 46.4 99.5 46.6 99.8 C46.8 100.2 47.4 101.1 47.7 101.5 C48 101.9 48.3 102.2 48.6 102.4 z M65.3 65.3 L66.1 66.3 L66.7 67.3 L67.3 68.4 L67.9 69.4 L68.6 70.5 L69.3 71.5 L69.8 72.6 L70.1 73.8 L70.3 75.1 L70.3 76.3 L70.2 77.5 L70.2 78.8 L70.2 80 L70.4 81.2 L70.6 82.4 L70.9 83.6 L71.3 84.8 L71.6 85.5 L71.9 86.3 L72.2 87 L72.4 87.8 C72.4 87.8 72.5 88.3 72.6 88.5 C72.6 88.8 72.6 89.1 72.6 89.3 C72.7 89.6 72.7 89.8 72.8 90 C73 90.1 73.3 90.2 73.5 90.3 C73.7 90.5 73.9 90.7 74.1 90.9 C74.2 91.1 74.6 91.5 74.6 91.5 L75.1 92.1 C75.1 92.1 75.4 92.5 75.5 92.8 L76.5 94 C76.6 94.3 76.8 94.5 76.9 94.7 C77.1 94.9 77.2 95.1 77.4 95.4 C77.5 95.6 77.6 95.8 77.8 96 C77.9 96.3 78 96.5 78.1 96.7 C78.2 97 78.1 97.3 78.1 97.5 C78.1 97.6 78.1 97.8 78.3 97.9 C78.4 97.9 78.8 97.7 79 97.7 C79.3 97.7 79.5 97.9 79.7 98.1 C79.9 98.2 80.2 98.4 80.4 98.5 C80.6 98.7 80.8 98.9 81 99 C81.2 99.2 81.4 99.3 81.6 99.5 C81.8 99.7 82 99.9 82.2 100 C82.4 100.2 82.6 100.4 82.8 100.6 C83 100.7 83.2 100.9 83.4 101.1 C83.6 101.3 83.8 101.5 84 101.6 C84.2 101.8 84.4 102 84.5 102.2 C84.7 102.4 84.9 102.6 85.1 102.8 C85.3 103 85.4 103.2 85.6 103.4 C85.8 103.6 86 103.7 86.1 104 C86.3 104.2 86.5 104.3 86.6 104.6 C86.8 104.8 86.8 105.1 86.9 105.3 C87 105.5 87.1 105.9 87.3 106 C87.4 106.1 87.6 105.9 87.8 105.9 C87.9 106 88.1 106 88.2 106.1 C88.4 106.1 88.5 106.2 88.6 106.3 C88.8 106.4 88.9 106.5 89 106.6 C89.2 106.7 89.3 106.8 89.4 106.9 L90.2 107.5 C90.3 107.6 90.4 107.7 90.6 107.8 C90.7 107.9 90.8 108 90.9 108.1 C91 108.2 91.2 108.3 91.3 108.4 C91.4 108.5 91.5 108.6 91.6 108.7 C91.8 108.8 91.9 109 92 109.1 C92.1 109.2 92.2 109.3 92.3 109.4 C92.4 109.5 92.6 109.6 92.7 109.8 C92.8 109.9 92.9 110 93 110.1 C93.1 110.2 93.2 110.3 93.3 110.5 C93.4 110.6 93.5 110.7 93.7 110.8 C93.8 110.9 93.9 111 94 111.2 C94.1 111.3 94.2 111.4 94.3 111.5 C94.4 111.7 94.5 111.8 94.6 111.9 C94.7 112 94.8 112.2 94.9 112.3 C95 112.4 95.1 112.5 95.2 112.7 C95.3 112.8 95.4 112.9 95.5 113.1 C95.6 113.2 95.7 113.3 95.7 113.5 C95.8 113.6 95.9 113.7 96 113.9 C96.1 114 96.2 114.1 96.3 114.3 C96.4 114.4 96.4 114.5 96.5 114.7 C96.6 114.8 96.7 114.9 96.8 115.1 C96.9 115.2 96.9 115.4 97 115.5 C97.1 115.6 97.2 115.8 97.2 115.9 C97.3 116.1 97.3 116.3 97.3 116.4 C97.4 116.6 97.5 116.9 97.6 117.1 C97.7 117.3 97.8 117.6 97.9 117.6 C98 117.7 98.1 117.5 98.2 117.5 C98.3 117.6 98.4 117.7 98.5 117.8 C98.7 118 99.1 118.5 99.4 118.9 C99.7 119.2 100 119.6 100.2 120 C100.5 120.4 100.7 120.8 101 121.2 C101.2 121.6 101.4 122 101.6 122.4 C101.8 122.9 102 123.3 102.2 123.7 C102.4 124.1 102.6 124.6 102.7 125 C102.9 125.4 103.1 125.9 103.2 126.3 C103.4 126.8 103.5 127.2 103.6 127.7 C103.7 128.1 103.8 128.6 103.9 129 C104 129.5 104.1 129.9 104.1 130.4 C104.2 130.8 104 131.3 104.2 131.7 C104.3 132.4 104.9 133.3 105.2 134.1 C105.5 135 105.7 136 105.9 136.9 C106 137.9 106.1 138.9 106.2 139.8 C106.3 140.8 106.2 142.7 106.2 142.7 C106.2 143.7 106.1 144.7 105.8 145.6 C105.5 146.5 104.9 147.3 104.2 147.9 C103.5 148.5 102.6 149 101.7 149.4 L98.9 150.2 L96.1 150.7 L93.2 150.5 L90.4 150 L87.6 149 L85.1 147.8 C84.2 147.3 83.4 146.7 82.8 146 C82.1 145.3 81.7 144.4 81.4 143.5 C81.1 142.6 81.1 141.5 81 140.6 C80.9 139.8 81 138.7 80.9 138.1 C80.9 137.7 80.6 137.4 80.4 137 C80.2 136.7 80 136.4 79.9 136 C79.7 135.7 79.5 135.4 79.3 135 C79.2 134.7 79 134.3 78.9 134 C78.7 133.6 78.5 133.3 78.4 132.9 C78.3 132.6 78.1 132.1 78 131.8 C77.9 131.6 78 131.3 77.8 131.1 C77.7 130.9 77.3 130.6 77.2 130.5 C77.2 130.5 77.2 130.5 77.2 130.5 C77.2 130.4 77 130.3 76.8 130.2 L76.1 129.5 L75.7 129.2 C75.6 129.1 75.5 129 75.5 129 L74.8 128.3 L73.8 127.3 L73.4 126.8 C73.3 126.8 73.2 126.6 73.1 126.5 L72.7 126.1 L71.9 125.1 C71.8 125 71.7 124.8 71.6 124.7 C71.5 124.5 71.4 124.4 71.4 124.3 C71.2 124.1 71.1 123.8 70.9 123.7 C70.7 123.5 70.3 123.3 70 123.1 C69.8 123 69.5 122.9 69.2 122.7 C69 122.6 68.7 122.4 68.5 122.2 C68.4 122.1 68.2 122 68.1 121.9 C68 121.9 67.9 121.8 67.8 121.7 C67.7 121.7 67.6 121.6 67.5 121.5 C67.4 121.4 67.3 121.3 67.1 121.2 C67 121.1 66.8 120.9 66.7 120.8 L66.2 120.4 L65.4 119.7 L65 119.3 L64.5 118.9 C64.4 118.8 64.2 118.6 64.1 118.4 C63.9 118.3 63.8 118.2 63.7 118.1 C63.6 118 63.5 117.9 63.4 117.8 C63.3 117.7 63.2 117.6 63.1 117.5 C63 117.4 62.9 117.2 62.7 117 C62.6 116.8 62.3 116.5 62.1 116.2 C61.9 116.1 61.8 115.8 61.6 115.7 C61.6 115.5 61.5 115.4 61.4 115.3 C61.3 115.2 61.3 115 61.3 114.9 C61.3 114.8 61.3 114.6 61.3 114.5 C61.3 114.4 61.4 114.3 61.4 114.3 C61.4 114.2 61.4 114.2 61.4 114.1 C61.4 114.1 61.4 114 61.4 114 C61.4 114 61.4 113.9 61.4 113.9 C61.4 113.9 61.4 113.8 61.3 113.8 C61.3 113.8 61.3 113.8 61.3 113.8 C61.3 113.8 61.3 113.7 61.2 113.7 C61.2 113.7 61.2 113.7 61.2 113.7 C61.2 113.7 61.1 113.7 61.1 113.7 C61 113.6 61 113.7 61 113.7 L60.8 113.7 C60.7 113.7 60.6 113.7 60.5 113.7 C60.4 113.8 60.3 113.8 60.2 113.8 C60.2 113.8 60.2 113.8 60.2 113.8 C60.1 113.7 59.7 113.5 59.6 113.5 C59.5 113.5 59.5 113.4 59.5 113.4 C59.4 113.4 59.4 113.4 59.4 113.3 C59.3 113.2 59 113 58.8 112.8 C58.6 112.6 58.2 112.3 58 112.1 C57.8 111.9 57.6 111.7 57.5 111.6 C57.4 111.5 57.3 111.4 57.2 111.3 C57.1 111.2 56.9 111 56.8 110.9 C56.7 110.8 56.5 110.6 56.4 110.5 C56.3 110.3 56.1 110.1 56 109.9 C55.9 109.8 55.8 109.7 55.7 109.6 C55.6 109.5 55.5 109.4 55.4 109.3 L55 108.7 L54.6 108.1 C54.5 108 54.4 107.8 54.3 107.7 C54.2 107.6 54.1 107.4 54 107.3 C54 107.2 53.9 107.1 53.8 107 C53.7 106.8 53.6 106.6 53.4 106.4 C53.3 106.2 53.2 106.1 53.1 105.9 C53.1 105.8 53 105.6 52.9 105.5 C52.8 105.3 52.8 105.2 52.7 105.1 C52.6 104.9 52.5 104.7 52.4 104.5 C52.2 104.2 52 103.8 51.9 103.5 C51.8 103.2 51.7 103 51.6 102.8 C51.5 102.6 51.5 102.4 51.4 102.2 C51.4 102.1 51.4 101.9 51.4 101.8 C51.4 101.7 51.4 101.6 51.4 101.5 C51.5 101.4 51.7 101.2 51.6 101 C51.5 100.8 51 100.7 50.7 100.5 C50.4 100.3 50.2 100.1 50 99.8 C49.7 99.4 49.2 98.6 49 98.2 C48.9 98 48.7 97.8 48.6 97.5 C48.5 97.3 48.3 97.1 48.2 96.9 C48 96.3 47.4 95.1 47 94.2 C46.5 92.8 45 88.8 45 88.8 C44.4 87 43.9 85.2 43.5 83.3 C43.2 81.5 42.9 79.6 42.9 77.7 C42.8 75.8 43 73.9 43.4 72.1 C43.8 70.3 44.5 68.6 45.4 67 C46.4 65.4 47.7 63.9 49.2 62.6 C50.8 61.3 52.8 60.1 53.8 59.6 C53.5 60.5 52.5 61.3 51.8 62.3 C51 63.2 50.4 64.2 50.1 65.3 C49.7 66.3 49.5 67.5 49.4 68.6 C49.4 69.8 49.5 70.9 49.7 72 C49.9 73.2 50.1 74 50.8 75.6 C50.9 75.9 51.3 76.6 51.3 76.6 C51.6 75 52 73.4 52.8 72 C53.6 70.7 55.7 69.3 56.3 68.8 C56.3 68.8 56.3 68.8 56.3 68.8 C56.5 68.6 56.9 68 57.1 67.7 C57.4 67.3 57.6 66.9 57.9 66.5 C58.1 66.1 58.4 65.7 58.6 65.3 C58.9 65 59.1 64.6 59.4 64.2 C59.6 63.8 59.8 63.4 60.1 63 C60.4 62.6 60.6 62.2 60.9 61.9 C61.2 61.6 61.9 61 61.9 61 C61.9 61 62.4 61.8 62.6 62.2 C62.8 62.8 62.9 63.5 63.1 64.1 C63.4 64.7 63.3 64.9 64.3 65.9 L65.3 65.3 z M75.2 132.5 L75.2 132.5 L75.2 132.5 z M61.4 116.5 L61.4 116.5 C61.4 116.5 61.4 116.5 61.4 116.5 L61.4 116.5 z" style="fill:#240F07;" />
        </g>
                
        <path d="M51.8 86.7 L50.1 82.7 L48.4 78.7 C47.8 77.3 47.5 75.9 47.2 74.5 C46.9 73.1 46.7 71.7 46.8 70.2 C46.9 68.8 47.3 67.3 47.9 66 C48.6 64.7 49.5 63.5 50.6 62.3 C51.8 61.1 53.2 59.9 53.8 59.6 C53.5 60.5 52.5 61.3 51.8 62.3 C51 63.2 50.4 64.2 50.1 65.3 C49.7 66.3 49.5 67.5 49.4 68.6 C49.4 69.8 49.5 70.9 49.7 72 C49.9 73.2 50.2 74.3 50.8 75.6 L51.3 76.6 L51.3 76.7 C51.1 78.3 50.9 79.9 51 81.5 C51.1 83.1 51.3 84.8 51.7 86.3 L51.8 86.7 z" fill-rule="nonzero" style="fill:url(#_Linear3);" />
        <path d="M56.3 68.8 C56.3 68.8 56.9 68 57.1 67.7 C57.4 67.3 57.6 66.9 57.9 66.5 C58.1 66.1 58.4 65.7 58.6 65.3 C58.9 65 59.1 64.6 59.4 64.2 C59.6 63.8 59.8 63.4 60.1 63 C60.4 62.6 60.6 62.2 60.9 61.9 C61.2 61.6 61.9 61 61.9 61 C61.9 61 62.1 61.2 62.2 61.3 C62.2 61.4 62.3 61.5 62.4 61.6 C62.4 61.7 62.5 61.8 62.5 62 C62.6 62.1 62.6 62.2 62.7 62.3 C62.7 62.5 62.8 62.7 62.8 62.9 C62.9 63.2 63 63.7 63.1 64.1 C63.4 64.6 63.3 64.9 64.3 65.9 C63 66.6 61.8 66.6 60.7 67 C59.4 67.4 57.7 68 56.3 68.8 z" fill-rule="nonzero" style="fill:url(#_Linear4);" />
                
    </g>
	
    <g id="worm1">
        <path d="M138 154.6 C137.9 154.9 137.8 155.6 137.6 156 C137.5 156.5 137.3 156.9 137.1 157.4 C136.9 157.8 136.7 158.3 136.5 158.7 C136.3 159.1 136.1 159.6 135.8 160 C135.6 160.4 135.3 160.8 135 161.2 C134.8 161.6 134.5 162 134.2 162.4 C133.9 162.8 133.6 163.1 133.3 163.5 C132.9 163.9 132.6 164.2 132.3 164.6 C131.9 164.9 131.4 165.3 131.2 165.5 C131.1 165.6 131 165.7 130.9 165.8 C130.8 165.9 130.7 166 130.7 166.1 C130.5 166.3 130.3 166.7 130.1 166.9 C130 167.1 129.8 167.4 129.7 167.5 C129.6 167.6 129.5 167.8 129.4 167.9 C128.5 168.3 126 169.8 124 170 C122 170.2 120.1 170.1 118.1 169.9 C116.1 169.6 114.2 169.1 112.3 168.5 C110.5 167.8 108.7 166.9 107 166 C105.3 165 103.7 164 102.4 162.5 C101 160.9 100 158.9 100.5 157.3 C101 155.8 103.2 154.8 105 154.7 L105.1 154.4 L105.7 153.4 L106.3 152.5 L107 151.7 L107.8 150.9 L108.5 150.1 L109.3 149.3 L110.2 148.6 L110.4 148 L111.1 146.7 L111.8 145.5 L112.6 144.2 L112.6 143.3 L112.9 141.8 L113.2 140.3 L113.6 138.8 L114.1 137.3 L114 136.4 L113.9 134.8 L113.9 133.2 L113.9 131.6 L114 129.9 L114.2 128.3 L114.6 126.8 L114.2 125.8 L114 124.8 L113.8 123.8 L113.7 122.8 L113.5 121.8 L113.4 120.8 L113.4 119.7 L113.3 118.7 L113.2 117.7 L113.3 116.7 L113.3 115.6 L113.7 114.7 C114 114.5 114.3 114.2 114.2 114.1 L113.2 113.7 C112.9 113.5 112.8 113.1 112.7 112.8 L112.4 111.8 L112.1 110.9 L111.8 109.9 L111.6 108.9 L111.4 107.9 L111.2 106.9 L111 105.8 L110.8 104.8 C110.8 104.8 110.8 104.1 110.7 103.8 C110.7 103.5 110.7 103.1 110.6 102.8 C110.6 102.4 110.6 102.1 110.6 101.8 C110.7 101.4 110.9 101 110.9 100.8 C110.9 100.8 111 100.7 111 100.7 C110.9 100.5 110.4 100.2 110.2 99.9 C110 99.6 109.9 99.2 109.8 98.8 C109.6 98.5 109.5 98.1 109.4 97.8 C109.3 97.4 109.1 96.7 109.1 96.7 L108.8 95.6 L108.5 94.5 L108.3 93.4 L108.1 92.3 L108 91.1 L107.9 90 C107.9 90 107.8 89.3 107.8 88.9 C107.8 88.5 107.8 88.1 107.8 87.8 C107.8 87.4 107.7 87 107.8 86.6 C107.9 86.3 108 85.8 108.1 85.5 C108.1 85.5 108.3 85.4 108.2 85.3 C108.1 84.9 107.4 83.8 107.2 83 L106.8 80.4 L106.7 77.9 L106.7 75.3 L106.9 72.7 L107.3 70.2 C107.5 69.4 107.8 68.5 108.8 68.3 L108.8 68.2 L108.8 68.2 C108.4 68 108.1 67.6 108 67.2 C107.8 66.9 107.8 66.5 107.8 66.1 C107.7 65.6 107.8 65.2 107.8 64.8 C107.8 64.4 107.9 64 107.9 63.5 C108 63.1 108.1 62.7 108.2 62.2 C108.3 61.8 108.4 61.3 108.5 60.9 C108.6 60.4 108.7 60 108.8 59.6 C109 58.6 109.6 55.9 109.8 55.1 C109.8 55.1 109.8 55 109.8 54.9 C110 54 110.9 49.9 110.9 49.9 L111.9 44.8 C112.4 43.2 112.9 41.6 113.6 40 C114.3 38.4 115.2 36.9 116.2 35.6 C117.3 34.3 118.6 33.2 120 32.2 C121.4 31.2 122.9 30.3 124.5 29.6 C126.1 29 127.8 28.6 129.8 28.6 C129.5 30.3 130 31.9 130.3 33.1 L130.9 35.9 L131.1 38.5 L130.8 41 L130.3 43.5 L129.6 46.1 L131.7 48.8 L132.2 49.4 L133.9 47.2 L135.7 45.1 L137.6 43.2 L139.5 41.2 L141.1 39 L142.6 36.8 C143.1 36 143.6 35.3 143.8 34 C144 34.7 144.1 35.5 144.1 36.2 L143.6 38.5 L143.1 40.6 L142.7 42.9 L142.3 45.1 L141.7 47.2 L141 49.4 L140.4 51.5 L139.7 53.7 L139.1 55.8 L138.5 58 C138.5 58 138.1 59.5 138 60.2 C137.8 60.9 137.6 61.7 137.5 62.4 C137.3 63.1 137.2 63.9 137.1 64.6 C136.9 65.3 136.8 66.1 136.6 66.8 C136.5 67.5 136.4 68.3 136.1 69 C135.7 69.6 134.9 70.3 134.8 70.7 C134.7 70.9 135.3 71 135.4 71.2 C135.6 71.6 135.7 72.4 135.8 73 C135.8 73.6 135.9 74.2 135.9 74.8 C135.9 75.4 135.9 76 135.9 76.6 C135.9 77.2 135.9 77.8 135.9 78.4 C135.9 79 135.9 79.7 135.8 80.2 C135.7 80.8 135.4 81.6 135.4 82 C135.4 82.3 135.8 82.5 135.9 82.7 C136 83 136.2 83.4 136.3 83.8 C136.4 84.1 136.5 84.5 136.6 84.8 C136.7 85.2 136.8 85.6 136.9 85.9 C137 86.3 137.1 86.6 137.1 87 C137.2 87.4 137.3 87.7 137.4 88.1 C137.4 88.5 137.5 88.8 137.6 89.2 C137.6 89.5 137.7 89.9 137.8 90.3 C137.8 90.6 137.8 91 137.9 91.4 C137.9 91.7 138 92.1 138 92.5 C138 92.9 138.1 93.2 138 93.6 C138 94 137.7 94.4 137.7 94.6 C137.7 94.7 137.8 94.7 137.8 94.7 C138 94.9 138.4 95.3 138.6 95.6 C138.7 95.9 138.9 96.3 139 96.7 C139.1 97 139.3 97.4 139.4 97.8 C139.5 98.1 139.6 98.5 139.7 98.8 C139.9 99.2 140 99.6 140.1 99.9 C140.1 100.3 140.2 100.7 140.3 101.1 C140.4 101.4 140.5 101.8 140.6 102.2 C140.7 102.5 140.7 102.9 140.8 103.3 C140.9 103.7 140.9 104 141 104.4 C141 104.8 141.1 105.2 141.1 105.6 C141.2 105.9 141.2 106.3 141.2 106.7 C141.3 107.1 141.3 107.5 141.3 107.8 C141.3 108.2 141.3 108.6 141.2 109 C141.1 109.4 140.7 109.8 140.7 110.1 C140.7 110.4 141.1 110.4 141.3 110.6 C141.5 110.8 141.6 111.1 141.7 111.4 C141.9 111.7 142 112.1 142.1 112.5 C142.2 112.8 142.3 113.2 142.3 113.6 C142.4 113.9 142.5 114.3 142.6 114.7 C142.7 115.1 142.7 115.4 142.8 115.8 C142.8 116.2 142.9 116.6 142.9 116.9 C143 117.3 143 117.7 143 118.1 C143.1 118.5 143.1 118.8 143.1 119.2 C143.1 119.6 143.1 120 143.2 120.4 C143.2 120.8 143.2 121.1 143.2 121.5 C143.2 121.9 143.1 122.3 143.1 122.7 C143.1 123 143.1 123.4 143 123.8 C143 124.2 143 124.6 142.9 124.9 C142.8 125.3 142.7 125.8 142.6 126 C142.6 126.1 142.5 126.2 142.5 126.3 C142.6 126.6 142.8 127.3 142.9 127.9 C143 128.4 143.1 128.9 143.1 129.5 C143.2 130 143.2 130.5 143.2 131.1 C143.2 131.6 143.2 132.1 143.2 132.7 C143.2 133.2 143.1 133.8 143.1 134.3 C143.1 134.8 143 135.4 142.9 135.9 C142.9 136.4 142.8 137 142.7 137.5 C142.6 138 142.5 138.5 142.3 139.1 C142.2 139.6 142 140.3 141.9 140.6 C141.8 140.7 141.7 140.9 141.7 141 C141.7 141.3 141.8 142 141.7 142.5 C141.7 143.1 141.7 143.6 141.7 144.1 C141.6 144.6 141.5 145.1 141.4 145.6 C141.4 146.1 141.3 146.6 141.1 147.1 C141 147.6 140.9 148.1 140.7 148.6 C140.6 149.1 140.5 149.6 140.3 150.1 C140.1 150.6 139.9 151.1 139.7 151.5 C139.5 152 139.3 152.5 139 152.9 C138.8 153.4 138.4 154 138.3 154.3 C138.2 154.4 138.1 154.5 138 154.6 z" fill-rule="nonzero" style="fill:url(#_Linear5);" />
        <path d="M107.1 54.2 C107 54.3 107 54.4 107 54.5 C106.8 55.3 106.2 58 106 59 C105.9 59.4 105.8 59.8 105.7 60.2 C105.6 60.7 105.5 61.2 105.4 61.6 C105.3 62.1 105.2 62.6 105.1 63.1 C105 63.6 105 64.1 104.9 64.6 C104.9 65.2 104.9 65.7 104.9 66.3 C104.9 66.8 105 67.3 105.1 67.8 C104.9 68.3 104.7 68.9 104.5 69.5 C104.5 69.6 104.5 69.7 104.5 69.7 L104.1 72.3 C104 72.4 104 72.4 104 72.5 L103.8 75.1 C103.8 75.2 103.8 75.2 103.8 75.3 L103.8 77.9 C103.8 77.9 103.8 78 103.8 78.1 L104 80.6 C104 80.7 104 80.8 104 80.9 L104.4 83.4 C104.4 83.5 104.4 83.5 104.4 83.5 C104.5 84.1 104.9 84.8 105.1 85.4 C105.1 85.7 105 86 105 86.2 C104.9 86.7 104.9 87.2 104.9 87.8 C104.9 88.2 104.9 88.6 104.9 89 C105 89.4 105 90.2 105 90.2 C105 90.2 105 90.3 105 90.3 L105.1 91.4 C105.1 91.5 105.1 91.5 105.1 91.5 L105.3 92.7 L105.5 93.9 L105.7 95.1 L106 96.2 C106 96.2 106 96.3 106 96.3 L106.3 97.4 C106.3 97.4 106.3 97.5 106.3 97.5 C106.3 97.5 106.6 98.3 106.7 98.7 C106.8 99.1 106.9 99.5 107.1 99.9 C107.3 100.4 107.5 100.9 107.8 101.4 C107.7 101.9 107.7 102.4 107.8 102.9 C107.8 103.3 107.8 103.7 107.9 104.1 C107.9 104.4 108 105.1 108 105.1 C108 105.2 108 105.2 108 105.2 L108.2 106.4 L108.4 107.4 L108.6 108.5 L108.8 109.5 L109.1 110.6 L109.3 111.6 C109.3 111.6 109.3 111.7 109.4 111.7 L109.7 112.7 L110 113.7 C110.1 114.1 110.3 114.5 110.5 114.9 C110.4 115.1 110.4 115.4 110.4 115.6 L110.4 117.7 C110.4 117.7 110.4 117.7 110.4 117.8 L110.4 118.8 C110.4 118.8 110.4 118.9 110.4 118.9 L110.5 120 L110.6 121 L110.7 122.1 L110.8 123.2 L111 124.3 C111 124.3 111 124.3 111 124.4 L111.2 125.4 L111.4 126.4 C111.5 126.5 111.5 126.7 111.5 126.8 L111.6 126.9 C111.6 126.9 111.4 127.7 111.4 127.7 C111.4 127.8 111.4 127.9 111.4 128 L111.2 129.6 C111.2 129.6 111.1 129.7 111.1 129.8 L111 131.4 C111 131.4 111 131.4 111 131.5 L111 133.1 C111 133.1 111 133.1 111 133.2 L111 134.8 C111 134.9 111 134.9 111 135 L111.1 136.6 L111.2 137 C111.2 137 110.9 137.9 110.9 137.9 C110.9 138 110.8 138 110.8 138.1 L110.4 139.6 C110.4 139.6 110.4 139.7 110.4 139.7 L110.1 141.2 C110.1 141.3 110.1 141.3 110.1 141.3 L109.8 142.9 L109.8 143.3 C109.8 143.3 109.3 143.9 109.3 143.9 C109.3 144 109.3 144 109.3 144.1 L108.6 145.3 C108.5 145.4 108.5 145.4 108.5 145.4 L107.8 146.7 L107.8 146.8 L107.4 147.1 C107.4 147.2 107.4 147.2 107.3 147.3 L106.5 148.1 L105.7 148.9 L104.9 149.7 C104.9 149.8 104.8 149.8 104.8 149.9 L104.1 150.7 C104.1 150.8 104 150.8 104 150.8 L103.4 151.7 L103.2 152.1 C102.1 152.3 101 152.8 100.1 153.4 C99 154.2 98.2 155.2 97.8 156.4 C97.4 157.5 97.4 158.9 97.8 160.2 C98.2 161.6 99.1 163.1 100.2 164.3 C101.8 166.1 103.6 167.4 105.6 168.5 C107.4 169.5 109.4 170.5 111.4 171.2 C111.4 171.2 111.4 171.2 111.4 171.2 C113.4 171.9 115.6 172.4 117.7 172.7 C119.9 173 122.1 173.1 124.3 172.9 C126.6 172.7 129.5 171 130.6 170.5 C131.2 170.2 132.1 169 132.1 169 C132.1 169 132 169.2 132 169.2 C132.1 169.1 132.3 168.8 132.4 168.6 C132.6 168.3 132.9 167.9 133 167.7 L133.1 167.7 L133.1 167.7 C133.3 167.5 133.9 167 134.2 166.6 C134.6 166.2 135 165.8 135.4 165.4 C135.8 165 136.1 164.6 136.5 164.1 C136.8 163.7 137.1 163.3 137.4 162.8 C137.7 162.4 138 161.9 138.3 161.4 C138.6 161 138.8 160.5 139.1 160 C139.3 159.5 139.6 159 139.8 158.5 C140 158 140.2 157.4 140.4 156.9 C140.5 156.6 140.6 156.2 140.7 155.9 C140.7 155.8 140.7 155.8 140.7 155.7 C140.9 155.4 141.3 154.8 141.6 154.3 C141.8 153.7 142.1 153.2 142.3 152.7 C142.6 152.2 142.8 151.6 143 151.1 C143.2 150.5 143.3 150 143.5 149.4 C143.7 148.9 143.8 148.3 143.9 147.8 C144.1 147.2 144.2 146.7 144.3 146.1 C144.4 145.5 144.5 144.9 144.5 144.4 C144.6 143.8 144.6 143.2 144.6 142.6 C144.6 142.3 144.6 141.9 144.6 141.5 L144.6 141.5 C144.7 141.1 145 140.3 145.1 139.8 C145.3 139.2 145.4 138.6 145.5 138 C145.6 137.4 145.7 136.9 145.8 136.3 C145.9 135.7 145.9 135.1 146 134.5 C146 133.9 146 133.4 146.1 132.8 C146.1 132.2 146.1 131.6 146.1 131 C146.1 130.4 146 129.8 146 129.2 C145.9 128.6 145.9 128 145.8 127.3 C145.7 127.1 145.6 126.7 145.5 126.4 C145.6 126.1 145.7 125.7 145.7 125.4 C145.8 125 145.8 124.5 145.9 124.1 C145.9 123.7 146 123.2 146 122.8 C146 122.4 146 122 146 121.6 C146 121.1 146 120.7 146 120.3 C146 119.9 146 119.5 146 119.1 C145.9 118.7 145.9 118.3 145.9 117.9 C145.8 117.4 145.8 117 145.8 116.6 C145.7 116.2 145.7 115.8 145.6 115.4 C145.5 115 145.5 114.6 145.4 114.2 C145.3 113.7 145.2 113.3 145.1 112.9 C145.1 112.5 145 112.1 144.8 111.7 C144.7 111.2 144.6 110.7 144.4 110.3 C144.3 110 144.2 109.8 144 109.5 C144.1 109 144.2 108.4 144.2 107.9 C144.2 107.4 144.1 106.9 144.1 106.5 C144.1 106.1 144 105.7 144 105.3 C143.9 104.8 143.9 104.4 143.8 104 C143.8 103.6 143.7 103.2 143.6 102.8 C143.5 102.4 143.5 102 143.4 101.6 C143.3 101.2 143.2 100.8 143.1 100.4 C143 100 142.9 99.6 142.8 99.2 C142.7 98.8 142.6 98.4 142.5 98 C142.4 97.6 142.2 97.2 142.1 96.8 C142 96.4 141.8 96 141.7 95.6 C141.5 95.1 141.3 94.6 141 94.2 C141 94.1 140.9 94 140.9 93.9 C140.9 93.4 140.9 92.8 140.8 92.3 C140.8 91.9 140.8 91.5 140.7 91.1 C140.7 90.7 140.6 90.3 140.6 89.9 C140.5 89.5 140.5 89.1 140.4 88.7 C140.3 88.3 140.3 87.9 140.2 87.5 C140.1 87.1 140 86.8 139.9 86.4 C139.9 86 139.8 85.6 139.7 85.2 C139.6 84.8 139.5 84.4 139.4 84 C139.2 83.6 139.1 83.3 139 82.9 C138.8 82.4 138.7 81.9 138.5 81.5 L138.5 81.5 C138.5 81.2 138.6 80.9 138.6 80.6 C138.7 79.9 138.8 79.2 138.8 78.5 C138.8 77.9 138.8 77.2 138.8 76.6 C138.8 76 138.8 75.3 138.8 74.7 C138.7 74 138.7 73.3 138.6 72.6 C138.5 72 138.4 71.4 138.3 70.8 C138.4 70.6 138.6 70.4 138.6 70.2 C139 69.4 139.2 68.4 139.4 67.4 C139.6 66.7 139.7 65.9 139.9 65.1 C140 64.4 140.1 63.7 140.3 63 C140.4 62.3 140.6 61.6 140.8 60.8 C140.9 60.2 141.2 59 141.3 58.7 C141.3 58.7 141.9 56.6 141.9 56.6 C141.9 56.6 142.5 54.5 142.5 54.5 C142.5 54.5 143.1 52.4 143.1 52.4 L143.8 50.2 L144.4 48.1 C144.4 48 144.5 48 144.5 48 L145 45.8 C145.1 45.8 145.1 45.7 145.1 45.7 L145.6 43.5 C145.6 43.4 145.6 43.4 145.6 43.4 L146 41.2 C146 41.2 146.4 39.1 146.4 39.1 C146.4 39.1 146.5 39 146.5 39 L146.9 36.8 C146.9 36.7 146.9 36.5 146.9 36.4 C147 35.3 146.8 34.2 146.5 33.2 C146.1 31.9 144.9 31 143.5 31.2 C142.2 31.3 141.1 32.4 140.9 33.7 C140.9 34.4 140.5 34.8 140.2 35.2 L138.7 37.4 C138.7 37.4 137.3 39.4 137.3 39.4 C137.3 39.4 135.5 41.2 135.5 41.2 C135.5 41.2 133.6 43.1 133.6 43.1 C133.6 43.2 133.5 43.2 133.5 43.3 L133.2 43.6 L133.6 41.6 C133.6 41.5 133.6 41.4 133.6 41.3 L133.9 38.8 C134 38.6 134 38.4 133.9 38.2 L133.7 35.7 C133.7 35.6 133.7 35.5 133.7 35.4 L133.1 32.5 C133.1 32.4 133.1 32.4 133.1 32.4 C132.8 31.5 132.4 30.3 132.6 29 C132.7 28.1 132.5 27.3 131.9 26.7 C131.4 26 130.6 25.7 129.7 25.7 C127.3 25.7 125.3 26.2 123.4 27 C123.4 27 123.4 27 123.4 27 C121.6 27.7 120 28.7 118.4 29.8 C116.8 31 115.3 32.3 114 33.8 C114 33.8 114 33.8 114 33.8 C112.8 35.3 111.8 37 111 38.8 C110.2 40.5 109.6 42.3 109.2 44.1 C109.2 44.2 109.2 44.2 109.1 44.2 L108.1 49.3 C108.1 49.3 107.3 53.2 107.1 54.2 z M138 154.6 C137.9 154.9 137.8 155.6 137.6 156 C137.5 156.5 137.3 156.9 137.1 157.4 C136.9 157.8 136.7 158.3 136.5 158.7 C136.3 159.1 136.1 159.6 135.8 160 C135.6 160.4 135.3 160.8 135 161.2 C134.8 161.6 134.5 162 134.2 162.4 C133.9 162.8 133.6 163.1 133.3 163.5 C132.9 163.9 132.6 164.2 132.3 164.6 C131.9 164.9 131.4 165.3 131.2 165.5 C131.1 165.6 131 165.7 130.9 165.8 C130.8 165.9 130.7 166 130.7 166.1 C130.5 166.3 130.3 166.7 130.1 166.9 C130 167.1 129.8 167.4 129.7 167.5 C129.6 167.6 129.5 167.8 129.4 167.9 C128.5 168.3 126 169.8 124 170 C122 170.2 120.1 170.1 118.1 169.9 C116.1 169.6 114.2 169.1 112.3 168.5 C110.5 167.8 108.7 166.9 107 166 C105.3 165 103.7 164 102.4 162.5 C101 160.9 100 158.9 100.5 157.3 C101 155.8 103.2 154.8 105 154.7 L105.1 154.4 L105.7 153.4 L106.3 152.5 L107 151.7 L107.8 150.9 L108.5 150.1 L109.3 149.3 L110.2 148.6 L110.4 148 L111.1 146.7 L111.8 145.5 L112.6 144.2 L112.6 143.3 L112.9 141.8 L113.2 140.3 L113.6 138.8 L114.1 137.3 L114 136.4 L113.9 134.8 L113.9 133.2 L113.9 131.6 L114 129.9 L114.2 128.3 L114.6 126.8 L114.2 125.8 L114 124.8 L113.8 123.8 L113.7 122.8 L113.5 121.8 L113.4 120.8 L113.4 119.7 L113.3 118.7 L113.2 117.7 L113.3 115.6 L113.7 114.7 C114 114.5 114.3 114.2 114.2 114.1 L113.2 113.7 C112.9 113.5 112.8 113.1 112.7 112.8 L112.4 111.8 L112.1 110.9 L111.8 109.9 L111.6 108.9 L111.4 107.9 L111.2 106.9 L111 105.8 L110.8 104.8 C110.8 104.8 110.8 104.1 110.7 103.8 C110.7 103.5 110.7 103.1 110.6 102.8 C110.6 102.4 110.6 102.1 110.6 101.8 C110.7 101.4 110.9 101 110.9 100.8 C110.9 100.8 111 100.7 111 100.7 C110.9 100.5 110.4 100.2 110.2 99.9 C110 99.6 109.9 99.2 109.8 98.8 C109.6 98.5 109.5 98.1 109.4 97.8 C109.3 97.4 109.1 96.7 109.1 96.7 L108.8 95.6 L108.5 94.5 L108.3 93.4 L108.1 92.3 L108 91.1 L107.9 90 C107.9 90 107.8 89.3 107.8 88.9 C107.8 88.5 107.8 88.1 107.8 87.8 C107.8 87.4 107.7 87 107.8 86.6 C107.9 86.3 108 85.8 108.1 85.5 C108.1 85.5 108.3 85.4 108.2 85.3 C108.1 84.9 107.4 83.8 107.2 83 L106.8 80.4 L106.7 77.9 L106.7 75.3 L106.9 72.7 L107.3 70.2 C107.5 69.4 107.8 68.5 108.8 68.3 L108.8 68.2 L108.8 68.2 C108.4 68 108.1 67.6 108 67.2 C107.8 66.9 107.8 66.5 107.8 66.1 C107.7 65.6 107.8 65.2 107.8 64.8 C107.8 64.4 107.9 64 107.9 63.5 C108 63.1 108.1 62.7 108.2 62.2 C108.3 61.8 108.4 61.3 108.5 60.9 C108.6 60.4 108.7 60 108.8 59.6 C109 58.6 109.6 55.9 109.8 55.1 C109.8 55.1 109.8 55 109.8 54.9 C110 54 110.9 49.9 110.9 49.9 L111.9 44.8 C112.4 43.2 112.9 41.6 113.6 40 C114.3 38.4 115.2 36.9 116.2 35.6 C117.3 34.3 118.6 33.2 120 32.2 C121.4 31.2 122.9 30.3 124.5 29.6 C126.1 29 127.8 28.6 129.8 28.6 C129.5 30.3 130 31.9 130.3 33.1 L130.9 35.9 L131.1 38.5 L130.8 41 L130.3 43.5 L129.6 46.1 L131.7 48.8 L132.2 49.4 L133.9 47.2 L135.7 45.1 L137.6 43.2 L139.5 41.2 L141.1 39 L142.6 36.8 C143.1 36 143.6 35.3 143.8 34 C144 34.7 144.1 35.5 144.1 36.2 L143.6 38.5 L143.1 40.6 L142.7 42.9 L142.3 45.1 L141.7 47.2 L141 49.4 L140.4 51.5 L139.7 53.7 L139.1 55.8 L138.5 58 C138.5 58 138.1 59.5 138 60.2 C137.8 60.9 137.6 61.7 137.5 62.4 C137.3 63.1 137.2 63.9 137.1 64.6 C136.9 65.3 136.8 66.1 136.6 66.8 C136.5 67.5 136.4 68.3 136.1 69 C135.7 69.6 134.9 70.3 134.8 70.7 C134.7 70.9 135.3 71 135.4 71.2 C135.6 71.6 135.7 72.4 135.8 73 C135.8 73.6 135.9 74.2 135.9 74.8 C135.9 75.4 135.9 76 135.9 76.6 C135.9 77.2 135.9 77.8 135.9 78.4 C135.9 79 135.9 79.7 135.8 80.2 C135.7 80.8 135.4 81.6 135.4 82 C135.4 82.3 135.8 82.5 135.9 82.7 C136 83 136.2 83.4 136.3 83.8 C136.4 84.1 136.5 84.5 136.6 84.8 C136.7 85.2 136.8 85.6 136.9 85.9 C137 86.3 137.1 86.6 137.1 87 C137.2 87.4 137.3 87.7 137.4 88.1 C137.4 88.5 137.5 88.8 137.6 89.2 C137.6 89.5 137.7 89.9 137.8 90.3 C137.8 90.6 137.8 91 137.9 91.4 C137.9 91.7 138 92.1 138 92.5 C138 92.9 138.1 93.2 138 93.6 C138 94 137.7 94.4 137.7 94.6 C137.7 94.7 137.8 94.7 137.8 94.7 C138 94.9 138.4 95.3 138.6 95.6 C138.7 95.9 138.9 96.3 139 96.7 C139.1 97 139.3 97.4 139.4 97.8 C139.5 98.1 139.6 98.5 139.7 98.8 C139.9 99.2 140 99.6 140.1 99.9 C140.1 100.3 140.2 100.7 140.3 101.1 C140.4 101.4 140.5 101.8 140.6 102.2 C140.7 102.5 140.7 102.9 140.8 103.3 C140.9 103.7 140.9 104 141 104.4 C141 104.8 141.1 105.2 141.1 105.6 C141.2 105.9 141.2 106.3 141.2 106.7 C141.3 107.1 141.3 107.5 141.3 107.8 C141.3 108.2 141.3 108.6 141.2 109 C141.1 109.4 140.7 109.8 140.7 110.1 C140.7 110.4 141.1 110.4 141.3 110.6 C141.5 110.8 141.6 111.1 141.7 111.4 C141.9 111.7 142 112.1 142.1 112.5 C142.2 112.8 142.3 113.2 142.3 113.6 C142.4 113.9 142.5 114.3 142.6 114.7 C142.7 115.1 142.7 115.4 142.8 115.8 C142.8 116.2 142.9 116.6 142.9 116.9 C143 117.3 143 117.7 143 118.1 C143.1 118.5 143.1 118.8 143.1 119.2 C143.1 119.6 143.1 120 143.2 120.4 C143.2 120.8 143.2 121.1 143.2 121.5 C143.2 121.9 143.1 122.3 143.1 122.7 C143.1 123 143.1 123.4 143 123.8 C143 124.2 143 124.6 142.9 124.9 C142.8 125.3 142.7 125.8 142.6 126 C142.6 126.1 142.5 126.2 142.5 126.3 C142.6 126.6 142.8 127.3 142.9 127.9 C143 128.4 143.1 128.9 143.1 129.5 C143.2 130 143.2 130.5 143.2 131.1 C143.2 131.6 143.2 132.1 143.2 132.7 C143.2 133.2 143.1 133.8 143.1 134.3 C143.1 134.8 143 135.4 142.9 135.9 C142.9 136.4 142.8 137 142.7 137.5 C142.6 138 142.5 138.5 142.3 139.1 C142.2 139.6 142 140.3 141.9 140.6 C141.8 140.7 141.7 140.9 141.7 141 C141.7 141.3 141.8 142 141.7 142.5 C141.7 143.1 141.7 143.6 141.7 144.1 C141.6 144.6 141.5 145.1 141.4 145.6 C141.4 146.1 141.3 146.6 141.1 147.1 C141 147.6 140.9 148.1 140.7 148.6 C140.6 149.1 140.5 149.6 140.3 150.1 C140.1 150.6 139.9 151.1 139.7 151.5 C139.5 152 139.3 152.5 139 152.9 C138.8 153.4 138.4 154 138.3 154.3 C138.2 154.4 138.1 154.5 138 154.6 z" style="fill:#240F07;" />
        <path d="M129.6 46.1 L129.4 45.8 C128.8 44.9 128.2 44.1 127.7 42.8 C127.1 41.5 126.6 39.8 126.6 38.4 C125.3 38.6 123 38.8 120.9 39.5 C118.8 40.2 117 41.4 115.7 42.7 C114.4 44 113.7 45.3 113.1 46.7 L111.2 50.8 L109.8 54.9 L110.9 49.9 L111.9 44.8 C112.4 43.2 112.9 41.6 113.6 40 C114.3 38.4 115.2 36.9 116.2 35.6 C117.3 34.3 118.6 33.2 120 32.2 C121.4 31.2 122.9 30.3 124.5 29.6 C126.1 29 127.8 28.6 129.8 28.6 C129.5 30.3 130 31.9 130.3 33.1 L130.9 35.9 L131.1 38.5 L130.8 41 L130.3 43.5 L129.6 46.1 z" fill-rule="nonzero" style="fill:url(#_Linear6);" />
        <path d="M132.2 49.4 L133.9 47.2 L135.7 45.1 L137.6 43.2 L139.5 41.2 L141.1 39 L142.6 36.8 C143.1 36 143.6 35.3 143.8 34 C143.8 36.2 142.9 37.8 142.2 39.1 L140.3 42.6 L138.5 46.5 L136.6 50.5 C136 51.9 135.6 53.3 135.2 54.7 L134.2 59.1 L133.5 63.5 L134 59.6 L134.4 55.7 C134.5 54.4 134.5 53.1 134 51.9 C133.6 51 132.9 50.2 132.2 49.4 z" fill-rule="nonzero" style="fill:url(#_Linear7);" />
        <path d="M128.8 114.7 C127.7 114.8 126.5 114.9 125.3 114.9 C123.7 115 122 114.9 120.5 114.9 C119.9 114.9 119.3 114.9 118.7 114.8 C118.3 114.8 117.9 114.7 117.4 114.7 C116.6 114.6 115.9 114.5 115.3 114.4 C113.9 114.1 113.1 114 113.1 114 C112.9 113.9 112.6 114.1 112.6 114.4 C112.6 114.7 112.7 114.9 113 114.9 C113 114.9 114 114.9 115.5 114.9 C115.9 114.9 116.4 114.9 117 114.9 C117.3 114.9 117.6 114.9 118 114.9 C118.7 114.9 119.4 114.9 120.2 114.9 L120.5 114.9 C120.9 114.9 121.4 114.9 121.8 115 C123.2 115 124.7 115 126.2 114.9 C127.1 114.9 128 114.8 128.8 114.7 C129.4 114.7 130 114.6 130.5 114.5 C131.5 114.4 132.5 114.2 133.4 114 C134.4 113.8 135.3 113.5 136.1 113.2 C137.2 112.9 138.1 112.5 138.8 112.1 C140.5 111.3 141.4 110.7 141.4 110.7 C141.6 110.5 141.6 110.2 141.4 110 C141.2 109.7 140.9 109.7 140.7 109.9 C140.7 109.9 140 110.7 138.5 111.6 C137.8 112 137 112.5 136 112.9 C135.2 113.3 134.3 113.6 133.3 113.9 C132.5 114.2 131.5 114.4 130.5 114.5 C130 114.6 129.4 114.7 128.8 114.7 z" style="fill:#240F07;" />
        <path d="M113.3 127.1 C113.3 127.1 114.1 127.9 115.7 128.8 C116.2 129.1 116.8 129.5 117.5 129.8 C118 130.1 118.6 130.3 119.3 130.6 C119.7 130.7 120.1 130.9 120.5 131 C121.5 131.4 122.5 131.7 123.7 131.9 C125.2 132.2 126.8 132.4 128.6 132.3 C130 132.3 131.4 132.2 132.6 131.9 C134 131.7 135.3 131.3 136.5 130.8 C137.3 130.5 138 130.2 138.7 129.9 C139.7 129.4 140.5 128.9 141.2 128.5 C142.7 127.6 143.6 126.8 143.6 126.8 C143.7 126.6 143.7 126.3 143.5 126.1 C143.3 125.9 143 125.9 142.8 126.1 C142.8 126.1 142.2 126.9 140.8 128 C140.2 128.5 139.5 129 138.5 129.5 C137.9 129.9 137.2 130.3 136.4 130.6 C135.3 131.1 134 131.5 132.6 131.8 C131.3 132 130 132.2 128.6 132.2 C126.8 132.2 125.2 132 123.7 131.7 C122.6 131.5 121.6 131.2 120.6 130.8 C120.2 130.7 119.8 130.5 119.4 130.3 C118.8 130 118.2 129.7 117.7 129.4 C115.2 127.9 114 126.4 114 126.4 C113.8 126.2 113.5 126.2 113.3 126.4 C113.1 126.5 113.1 126.9 113.3 127.1 z" style="fill:#240F07;" />
        <path d="M112.8 137.4 C112.8 137.4 113.3 138.6 114.6 140.2 C115 140.7 115.5 141.3 116.1 141.8 C116.5 142.3 116.9 142.7 117.4 143.1 C117.9 143.4 118.4 143.8 118.9 144.1 C121 145.5 123.8 146.7 127.4 147.1 C128.9 147.3 130.3 147.2 131.6 147 C133.1 146.8 134.5 146.4 135.7 146 C136.5 145.6 137.3 145.3 138 144.9 C138.9 144.4 139.8 143.8 140.5 143.3 C142 142.2 142.8 141.3 142.8 141.3 C143 141.1 142.9 140.8 142.7 140.6 C142.5 140.5 142.2 140.5 142 140.7 C142 140.7 140.5 142.7 137.7 144.5 C137.1 144.9 136.3 145.3 135.5 145.6 C134.4 146.1 133 146.5 131.6 146.8 C130.3 147 128.9 147 127.4 146.8 C123.9 146.4 121.1 145.2 119.1 143.8 C118.6 143.5 118.1 143.1 117.7 142.7 C117.2 142.3 116.8 141.9 116.4 141.5 C114.4 139.2 113.7 137 113.7 137 C113.6 136.8 113.3 136.6 113.1 136.7 C112.8 136.8 112.7 137.1 112.8 137.4 z" style="fill:#240F07;" />
        <path d="M111.4 144.1 C111.4 144.1 111.3 145.6 112 147.8 C112.3 148.6 112.6 149.4 113.1 150.3 C113.5 151 114 151.8 114.6 152.6 C116.1 154.5 118.3 156.4 121.7 158.1 C124.8 159.8 127.9 159.9 130.6 159.3 C131.2 159.2 131.8 159 132.4 158.9 C133 158.7 133.6 158.5 134.1 158.3 C137.1 157.1 138.9 155.5 138.9 155.5 C139.1 155.3 139.2 155 139 154.8 C138.8 154.6 138.5 154.5 138.3 154.7 C138.3 154.7 136.6 156.4 133.9 157.7 C132.9 158.2 131.8 158.7 130.5 158.9 C127.9 159.5 124.9 159.4 121.8 157.8 C118.6 156.1 116.4 154.2 114.9 152.3 C114.4 151.6 113.9 150.8 113.6 150.1 C113.1 149.2 112.9 148.4 112.7 147.6 C112.2 145.6 112.4 144.2 112.4 144.2 C112.5 144 112.3 143.7 112 143.7 C111.7 143.6 111.5 143.8 111.4 144.1 z" style="fill:#240F07;" />
        <path d="M109.2 148.1 C109.2 148.1 108.4 149.9 108.3 152.6 C108.3 153.9 108.4 155.5 108.8 157.1 C109.5 159.5 111 162.1 113.9 164.3 C116.8 166.6 119.7 167.6 122.3 167.9 C123.3 168.1 124.2 168.1 125.1 168.1 C128.8 168.1 131.4 166.9 131.4 166.9 C131.7 166.8 131.8 166.5 131.6 166.2 C131.5 166 131.2 165.9 131 166 C131 166 128.6 167.3 125 167.5 C124.2 167.5 123.3 167.5 122.4 167.4 C119.8 167.1 117 166.1 114.2 164 C111.4 161.8 110 159.3 109.4 156.9 C109 155.4 109 153.9 109.1 152.6 C109.3 150.2 110.1 148.5 110.1 148.5 C110.2 148.2 110.1 147.9 109.8 147.8 C109.6 147.7 109.3 147.8 109.2 148.1 z" style="fill:#240F07;" />
        <path d="M104.2 153.7 C104.2 153.7 104 154.6 103.8 155.8 C103.7 156.3 103.6 156.8 103.5 157.3 C103.4 158.2 103.3 159.1 103.4 159.8 C103.4 160.4 103.6 161 103.7 161.7 C103.8 162.2 104 162.8 104.1 163.4 C104.4 164.7 104.8 165.9 104.8 165.9 C104.8 166.1 105.1 166.3 105.4 166.2 C105.6 166.1 105.8 165.8 105.7 165.5 C105.7 165.5 105.2 164.2 104.7 162.7 C104.4 161.7 104.2 160.6 104.1 159.8 C104.1 158.9 104.2 157.8 104.4 156.8 C104.7 155.3 105.1 153.9 105.1 153.9 C105.2 153.7 105.1 153.4 104.8 153.3 C104.5 153.2 104.3 153.4 104.2 153.7 z" style="fill:#240F07;" />
        <path d="M132 97.2 C131.8 97.2 131.6 97.3 131.3 97.4 C129.8 97.9 128 98.4 126 98.9 C123.9 99.4 122 99.8 120.4 100.1 C120 100.2 119.6 100.2 119.3 100.3 C118.9 100.3 118.5 100.4 118.2 100.4 C117.6 100.5 117.1 100.5 116.6 100.6 C115.7 100.6 114.9 100.7 114.2 100.7 C111.7 100.7 110.4 100.5 110.4 100.5 C110.1 100.5 109.8 100.7 109.8 101 C109.8 101.2 110 101.5 110.3 101.5 C110.3 101.5 111.4 101.5 113.5 101.2 C114.4 101.1 115.4 101 116.6 100.8 C117.3 100.6 118.1 100.5 118.9 100.4 L119.3 100.3 C119.7 100.2 120.1 100.2 120.5 100.1 C122.2 99.8 124 99.5 126 99 C127.4 98.6 128.7 98.3 129.8 97.9 C130.6 97.7 131.3 97.4 132 97.2 L132.3 97.1 C132.7 96.9 133.2 96.8 133.6 96.6 C134.6 96.3 135.5 96 136.2 95.8 C137.8 95.1 138.7 94.7 138.7 94.7 C138.9 94.6 139 94.3 138.9 94 C138.7 93.8 138.4 93.7 138.2 93.9 C138.2 93.9 137.6 94.4 136.2 95.1 C135.7 95.4 135 95.8 134.2 96.2 C133.6 96.5 133 96.7 132.3 97 C132.2 97.1 132.1 97.1 132 97.2 z" style="fill:#240F07;" />
        <path d="M125 82.6 C123.7 82.7 122.2 82.9 120.6 83.1 C120.2 83.1 119.8 83.2 119.3 83.3 C117.8 83.5 116.3 83.7 115 83.9 C114.5 84 114 84.1 113.5 84.2 C112.7 84.3 111.9 84.4 111.3 84.5 C110.8 84.6 110.4 84.7 110 84.7 C108.2 85 107.2 85.2 107.2 85.2 C106.9 85.3 106.8 85.6 106.9 85.8 C107 86.1 107.2 86.3 107.5 86.2 C107.5 86.2 108.6 85.7 110.7 85.1 C111.2 84.9 111.7 84.8 112.3 84.6 C112.8 84.5 113.4 84.3 114 84.2 C114.6 84.1 115.2 83.9 116 83.8 C117 83.6 118.1 83.4 119.3 83.3 C119.8 83.2 120.2 83.1 120.6 83.1 C122.2 82.9 123.7 82.7 125 82.6 C125.4 82.5 125.8 82.5 126.2 82.5 C127.6 82.4 128.8 82.3 129.9 82.3 C130.4 82.3 130.9 82.3 131.4 82.3 C132.3 82.3 133 82.4 133.6 82.4 C135.2 82.6 136.1 82.7 136.1 82.7 C136.3 82.7 136.6 82.5 136.6 82.2 C136.6 82 136.4 81.7 136.1 81.7 C136.1 81.7 135.2 81.7 133.3 81.9 C132.5 81.9 131.6 82 130.5 82.1 C130 82.1 129.6 82.2 129 82.2 C128.3 82.3 127.6 82.3 126.8 82.4 C126.2 82.5 125.6 82.5 125 82.6 z" style="fill:#240F07;" />
        <path d="M117.1 67.4 C117.8 67.5 118.6 67.5 119.5 67.5 C119.6 67.6 119.6 67.6 119.8 67.6 C120.8 67.6 121.8 67.8 122.8 67.9 C123.9 68.1 125 68.3 126.1 68.5 C131.5 69.7 135.7 71.3 135.7 71.3 C136 71.4 136.3 71.3 136.3 71 C136.4 70.8 136.3 70.5 136 70.4 C136 70.4 132.5 69.4 127.8 68.6 C126.5 68.3 125.1 68.1 123.6 68 C122.3 67.8 121.1 67.6 119.8 67.6 C119.6 67.6 119.6 67.5 119.5 67.5 C118.6 67.5 117.8 67.5 117.1 67.4 C116.7 67.4 116.4 67.4 116 67.4 C115.2 67.4 114.4 67.4 113.7 67.4 C113.4 67.4 113 67.5 112.7 67.5 C112.2 67.5 111.7 67.5 111.2 67.5 C109 67.5 107.7 67.7 107.7 67.7 C107.4 67.7 107.2 68 107.3 68.3 C107.4 68.5 107.6 68.7 107.9 68.6 C107.9 68.6 109.3 68.1 111.8 67.7 C112.4 67.7 113 67.6 113.6 67.5 C114.3 67.5 115.1 67.4 115.9 67.4 C116.3 67.4 116.7 67.4 117.1 67.4 z" style="fill:#240F07;" />
    </g>
        
    <defs>
        <linearGradient x1="45" y1="60" x2="55" y2="82" gradientUnits="userSpaceOnUse" id="_Linear3">
			<stop offset="0%" stop-color="#820100" stop-opacity="1" />
			<stop offset="50%" stop-color="#5A0100" stop-opacity="1" />
			<stop offset="100%" stop-color="black" stop-opacity="1" />
		</linearGradient>
        <linearGradient x1="40" y1="50" x2="90" y2="140"  gradientUnits="userSpaceOnUse" id="_Linear1">
			<stop offset="50%" stop-color="#C19D77" stop-opacity="1" />
			<stop offset="100%" stop-color="#522809" stop-opacity="1" />
		</linearGradient>
		<linearGradient x1="63" y1="60" x2="58" y2="70" gradientUnits="userSpaceOnUse" id="_Linear4">
			<stop offset="0%" stop-color="#850100" stop-opacity="1" />
			<stop offset="50%" stop-color="#5A0100" stop-opacity="1" />
			<stop offset="100%" stop-color="black" stop-opacity="1" />
		</linearGradient>
		
        <linearGradient x1="120" y1="20" x2="125" y2="55" gradientUnits="userSpaceOnUse" id="_Linear6">
			<stop offset="0%" stop-color="#810100" stop-opacity="1" />
			<stop offset="50%" stop-color="#710100" stop-opacity="1" />
			<stop offset="100%" stop-color="black" stop-opacity="1" />
		</linearGradient>
		<linearGradient x1="130" y1="30" x2="115" y2="150" gradientUnits="userSpaceOnUse" id="_Linear5">
			<stop offset="40%" stop-color="#D0A882" stop-opacity="1" />
			<stop offset="100%" stop-color="#492401" stop-opacity="1" />
		</linearGradient>
        <linearGradient x1="150" y1="40" x2="130" y2="60" gradientUnits="userSpaceOnUse" id="_Linear7">
			<stop offset="0%" stop-color="#7C0100" stop-opacity="1" />
			<stop offset="50%" stop-color="#6C0100" stop-opacity="1" />
			<stop offset="100%" stop-color="black" stop-opacity="1" />
		</linearGradient>
    </defs>
	
</svg>