<?xml version="1.0" encoding="UTF-8" standalone="no"?>
<!DOCTYPE svg PUBLIC "-//W3C//DTD SVG 1.1//EN" "http://www.w3.org/Graphics/SVG/1.1/DTD/svg11.dtd">
<svg width="200" height="200" viewBox="-50 -50 300 300" version="1.1" xmlns="http://www.w3.org/2000/svg" xmlns:xlink="http://www.w3.org/1999/xlink" xml:space="preserve" xmlns:serif="http://www.serif.com/" style="fill-rule:evenodd;clip-rule:evenodd;stroke-linejoin:round;stroke-miterlimit:2;">
    <g class="passief" transform="matrix(1,0,0,1,-251,-251)">
        <g transform="matrix(0.284887,0,0,0.284887,251.016,251.016)">
            <path d="M228.23,340.867C214.307,308.389 205.317,272.787 202.206,236.679C199.095,200.57 201.863,163.955 210.026,129.575L341.342,129.575C315.2,159.772 292.118,193.281 273.034,228.93C253.95,264.578 238.864,302.367 228.23,340.867Z" style="fill:rgba(52,22,0,0.8);fill-rule:nonzero;"/>
        </g>
        <g transform="matrix(0.284887,0,0,0.284887,251.016,251.016)">
            <path d="M280.833,452.277C245.746,448.096 210.419,438.081 177.592,422.721C144.766,407.361 114.44,386.656 88.747,362.397C110.633,324.49 132.519,286.582 154.405,248.674C167.486,286.413 184.964,323.157 206.295,357.508C227.625,391.86 252.808,423.819 280.833,452.277Z" style="fill:rgba(52,22,0,0.8);fill-rule:nonzero;"/>
        </g>
        <g transform="matrix(0.284887,0,0,0.284887,251.016,251.016)">
            <path d="M403.62,462.427C382.455,490.724 356.118,516.31 326.402,537.059C296.687,557.807 263.593,573.717 229.738,583.839C207.852,545.931 185.966,508.023 164.08,470.115C203.303,477.657 243.863,480.892 284.278,479.595C324.692,478.298 364.961,472.468 403.62,462.427Z" style="fill:rgba(52,22,0,0.8);fill-rule:nonzero;"/>
        </g>
        <g transform="matrix(0.284887,0,0,0.284887,251.016,251.016)">
            <path d="M473.803,361.166C487.725,393.643 496.716,429.245 499.827,465.354C502.938,501.463 500.17,538.078 492.007,572.458L360.691,572.458C386.833,542.26 409.915,508.752 428.999,473.103C448.083,437.455 463.169,399.666 473.803,361.166Z" style="fill:rgba(52,22,0,0.8);fill-rule:nonzero;"/>
        </g>
        <g transform="matrix(0.284887,0,0,0.284887,251.016,251.016)">
            <path d="M421.199,249.755C456.287,253.936 491.614,263.952 524.441,279.312C557.267,294.672 587.593,315.377 613.286,339.635C591.4,377.543 569.514,415.451 547.627,453.359C534.547,415.62 517.069,378.876 495.738,344.525C474.407,310.173 449.224,278.214 421.199,249.755Z" style="fill:rgba(52,22,0,0.8);fill-rule:nonzero;"/>
        </g>
        <g transform="matrix(0.284887,0,0,0.284887,251.016,251.016)">
            <path d="M298.413,239.606C319.578,211.309 345.915,185.723 375.631,164.974C405.346,144.226 438.439,128.315 472.295,118.194C494.181,156.102 516.067,194.01 537.953,231.918C498.73,224.376 458.17,221.141 417.755,222.438C377.341,223.735 337.072,229.565 298.413,239.606Z" style="fill:rgba(52,22,0,0.8);fill-rule:nonzero;"/>
        </g>
    </g>    
</svg>
