<?xml version="1.0" encoding="utf-8"?>
<!DOCTYPE svg PUBLIC "-//W3C//DTD SVG 1.1//EN" "http://www.w3.org/Graphics/SVG/1.1/DTD/svg11.dtd">
<svg version="1.1" xmlns="http://www.w3.org/2000/svg" xmlns:xlink="http://www.w3.org/1999/xlink" xmlns:xml="http://www.w3.org/XML/1998/namespace" xmlns:serif="http://www.serif.com/" width="200" height="200" viewBox="25, 30, 150, 140" xml:space="preserve" fill-rule="evenodd" stroke-linejoin="round" stroke-miterlimit="2" style="clip-rule:evenodd;">

	<path d="M65 97.1 C61.1 87.9 58.5 77.7 57.6 67.4 C56.7 57.2 57.5 46.7 59.8 36.9 L97.3 36.9 C89.8 45.5 83.2 55.1 77.8 65.2 C72.4 75.4 68.1 86.2 65 97.1 z" fill-rule="nonzero" fill-opacity="0.8" style="fill:#341600;" />
    <path d="M80 128.9 C70 127.7 60 124.8 50.6 120.4 C41.3 116.1 32.6 110.2 25.3 103.3 C31.5 92.5 37.8 81.7 44 70.9 C47.7 81.6 52.7 92.1 58.8 101.9 C64.9 111.7 72 120.8 80 128.9 z" fill-rule="nonzero" fill-opacity="0.8" style="fill:#341600;" />
    <path d="M115 131.8 C109 139.8 101.5 147.1 93 153 C84.5 158.9 75.1 163.5 65.5 166.3 C59.2 155.5 53 144.7 46.8 133.9 C57.9 136.1 69.5 137 81 136.6 C92.5 136.3 104 134.6 115 131.8 z" fill-rule="nonzero" fill-opacity="0.8" style="fill:#341600;" />
    <path d="M135 102.9 C139 112.2 141.5 122.3 142.4 132.6 C143.3 142.9 142.5 153.3 140.2 163.1 L102.8 163.1 C110.2 154.5 116.8 145 122.2 134.8 C127.7 124.6 132 113.9 135 102.9 z" fill-rule="nonzero" fill-opacity="0.8" style="fill:#341600;" />
    <path d="M120 71.2 C130 72.4 140.1 75.2 149.4 79.6 C158.8 84 167.4 89.9 174.7 96.8 C168.5 107.6 162.3 118.4 156 129.2 C152.3 118.4 147.3 108 141.2 98.2 C135.2 88.4 128 79.3 120 71.2 z" fill-rule="nonzero" fill-opacity="0.8" style="fill:#341600;" />
    <path d="M85 68.3 C91.1 60.2 98.6 52.9 107 47 C115.5 41.1 124.9 36.6 134.6 33.7 C140.8 44.5 147 55.3 153.3 66.1 C142.1 63.9 130.5 63 119 63.4 C107.5 63.8 96 65.4 85 68.3 z" fill-rule="nonzero" fill-opacity="0.8" style="fill:#341600;" />

</svg>