<?xml version="1.0" encoding="iso-8859-1"?>
<!-- Generator: Adobe Illustrator 19.0.0, SVG Export Plug-In . SVG Version: 6.00 Build 0)  -->
<svg version="1.1" id="Layer_1" xmlns="http://www.w3.org/2000/svg" xmlns:xlink="http://www.w3.org/1999/xlink" x="0px" y="0px"
	 viewBox="0 0 496.158 496.158" style="enable-background:new 0 0 496.158 496.158;" xml:space="preserve">
<path style="fill:#334D5C;" d="M248.082,0.003C111.07,0.003,0,111.063,0,248.085c0,137.001,111.07,248.07,248.082,248.07
	c137.006,0,248.076-111.069,248.076-248.07C496.158,111.062,385.088,0.003,248.082,0.003z"/>
<path style="fill:#94B7CB;" d="M275.952,1.57c-8.678-0.97-17.489-1.497-26.415-1.548c82.965,29.046,142.474,108.016,142.474,200.897
	c0,117.533-95.279,212.813-212.813,212.813c-64.914,0-123.036-29.066-162.068-74.891c5.146,13.085,11.375,25.625,18.571,37.515
	c40.837,39.446,96.423,63.723,157.685,63.723c125.369,0,227-101.631,227-227C420.386,116.841,360.495,34.597,275.952,1.57z"/>
<path style="fill:#EAB32A;" d="M176.001,10.652c-2.333,0.708-4.655,1.439-6.958,2.213c67.148,14.493,117.469,74.212,117.469,145.696
	c0,82.324-66.737,149.063-149.063,149.063c-60.43,0-112.453-35.964-135.854-87.653c-0.325,2.882-0.616,5.774-0.841,8.686
	c24.063,57.233,80.652,97.422,146.632,97.422c87.814,0,159-71.186,159-159C306.386,89.035,250.157,24.129,176.001,10.652z"/>
<circle style="fill:#334D5C;" cx="286.469" cy="150.859" r="54.52"/>
<circle style="fill:#E2A120;" cx="286.469" cy="150.859" r="43.999"/>
<g>
	<path style="fill:#EAB32A;" d="M264.706,112.614c-2.788,1.589-5.38,3.473-7.736,5.604c0.754,10.14,3.691,21.551-0.631,35.975
		c-2.872,9.586-2.576,19.86-1.782,26.961c2.194,2.31,4.635,4.378,7.274,6.165c-0.102-8.706,0.616-20.134,4.602-27.573
		C270.756,151.679,267.121,126.357,264.706,112.614z"/>
	<path style="fill:#EAB32A;" d="M322.841,126.091c-2.477-3.63-5.48-6.86-8.891-9.588c-0.201,1.171-0.309,2.575-0.28,4.273
		c0.198,11.434,5.681,23.965,1.389,41.082c-2.037,8.127-1.833,16.634-1.058,23.331c3.375-2.712,6.334-5.907,8.778-9.472
		c0.55-3.192,1.386-6.201,2.616-8.771C328.807,159.816,325.707,140.108,322.841,126.091z"/>
	<path style="fill:#EAB32A;" d="M293.164,138.207c-2.651-8.42-3.341-20.192-3.247-31.213c-2.161-0.167-4.36-0.177-6.586-0.018
		c-0.416,0.03-0.83,0.066-1.242,0.107c-1.189,10.941-1.957,25.936,0.23,39.936c2.889,18.492,0.777,33.865-0.875,47.56
		c2.665,0.304,5.396,0.369,8.168,0.171c0.36-0.026,0.72-0.056,1.077-0.091C293.611,173.57,296.198,147.844,293.164,138.207z"/>
	<path style="fill:#EAB32A;" d="M275.051,108.367c-0.937,0.25-1.86,0.529-2.769,0.838c1.526,8.708,7.469,48.137-3.194,82.085
		c0.853,0.368,1.719,0.708,2.597,1.021C274.245,183.308,281.564,152.115,275.051,108.367z"/>
	<path style="fill:#EAB32A;" d="M251.186,124.578c-0.875,1.173-1.69,2.392-2.446,3.649c0.356,11.232-0.013,25.592-2.605,40.235
		c0.518,1.188,1.086,2.348,1.703,3.477C250.028,160.187,251.861,144.063,251.186,124.578z"/>
</g>
<circle style="fill:#334D5C;" cx="305.969" cy="381.349" r="79.53"/>
<circle style="fill:#4D87A9;" cx="305.969" cy="381.349" r="61.998"/>
<g>
	<path style="fill:#94B7CB;" d="M328.158,323.46c-12.257,7.418-24.72,18.39-45.598,22.165c-13.875,2.508-26.593,9.437-35.006,14.967
		c-1.502,4.231-2.543,8.616-3.103,13.072c10.873-5.683,25.688-12.075,37.577-11.814c12.891,0.282,42.383-20.443,58.107-32.247
		C336.359,327.113,332.339,325.059,328.158,323.46z"/>
	<path style="fill:#94B7CB;" d="M361.128,396.322c-14.238,7.545-26.482,22.43-50.723,27.962c-11.51,2.627-22.068,8.312-29.985,13.56
		c5.562,2.51,11.463,4.189,17.501,4.983c4.361-1.346,8.675-2.216,12.689-2.312c11.131-0.263,33.912-16.734,49.693-29.28
		c2.98-5.429,5.121-11.263,6.373-17.289C365.075,394.441,363.243,395.202,361.128,396.322z"/>
	<path style="fill:#94B7CB;" d="M359.103,349.402c-0.303-0.503-0.612-1-0.927-1.491c-14.504,5.488-33.831,14.093-50.024,25.774
		c-21.389,15.43-42.048,22.587-60.308,29.251c1.319,3.542,2.979,7.015,4.998,10.371c0.262,0.437,0.53,0.868,0.801,1.295
		c28.359-9.789,62.329-22.957,72.499-32.917c8.887-8.705,23.236-17.083,37.141-23.998
		C362.115,354.867,360.724,352.097,359.103,349.402z"/>
	<path style="fill:#94B7CB;" d="M349.251,336.944c-9.966,7.475-55.707,40.102-105.161,48.372c0.083,1.305,0.208,2.61,0.374,3.914
		c12.945-2.53,56.804-13.241,107.606-49.343C351.159,338.871,350.22,337.888,349.251,336.944z"/>
	<path style="fill:#94B7CB;" d="M310.331,319.507c-13.883,7.616-32.158,16.315-52.209,22.404c-1.162,1.409-2.257,2.863-3.281,4.358
		c16.162-4.75,37.586-12.736,61.636-26.019C314.445,319.901,312.393,319.655,310.331,319.507z"/>
</g>
<g>
</g>
<g>
</g>
<g>
</g>
<g>
</g>
<g>
</g>
<g>
</g>
<g>
</g>
<g>
</g>
<g>
</g>
<g>
</g>
<g>
</g>
<g>
</g>
<g>
</g>
<g>
</g>
<g>
</g>
</svg>
